<?xml version="1.0" encoding="UTF-8" standalone="no"?>
<!DOCTYPE svg PUBLIC "-//W3C//DTD SVG 1.1//EN"
 "http://www.w3.org/Graphics/SVG/1.1/DTD/svg11.dtd">
<!-- Generated by graphviz version 2.38.0 (20140413.2041)
 -->
<!-- Title: blfwk::DataPacket::SegmentDataProducer Pages: 1 -->
<svg width="350pt" height="184pt"
 viewBox="0.00 0.00 349.50 184.00" xmlns="http://www.w3.org/2000/svg" xmlns:xlink="http://www.w3.org/1999/xlink">
<g id="graph0" class="graph" transform="scale(1 1) rotate(0) translate(4 180)">
<title>blfwk::DataPacket::SegmentDataProducer</title>
<polygon fill="white" stroke="none" points="-4,4 -4,-180 345.5,-180 345.5,4 -4,4"/>
<!-- Node1 -->
<g id="node1" class="node"><title>Node1</title>
<polygon fill="#bfbfbf" stroke="black" points="31,-0.5 31,-30.5 146,-30.5 146,-0.5 31,-0.5"/>
<text text-anchor="start" x="39" y="-18.5" font-family="Helvetica,sans-Serif" font-size="10.00">blfwk::DataPacket::</text>
<text text-anchor="middle" x="88.5" y="-7.5" font-family="Helvetica,sans-Serif" font-size="10.00">SegmentDataProducer</text>
</g>
<!-- Node2 -->
<g id="node2" class="node"><title>Node2</title>
<g id="a_node2"><a xlink:href="classblfwk_1_1_data_packet_1_1_data_producer.html" target="_top" xlink:title="Abstract class to provide data for data phase. ">
<polygon fill="white" stroke="black" points="0,-78.5 0,-108.5 101,-108.5 101,-78.5 0,-78.5"/>
<text text-anchor="start" x="8" y="-96.5" font-family="Helvetica,sans-Serif" font-size="10.00">blfwk::DataPacket::</text>
<text text-anchor="middle" x="50.5" y="-85.5" font-family="Helvetica,sans-Serif" font-size="10.00">DataProducer</text>
</a>
</g>
</g>
<!-- Node2&#45;&gt;Node1 -->
<g id="edge1" class="edge"><title>Node2&#45;&gt;Node1</title>
<path fill="none" stroke="midnightblue" d="M62.1476,-69.2047C68.4295,-56.641 75.9792,-41.5416 81.3845,-30.7309"/>
<polygon fill="midnightblue" stroke="midnightblue" points="58.9892,-67.6954 57.6475,-78.205 65.2502,-70.826 58.9892,-67.6954"/>
</g>
<!-- Node3 -->
<g id="node3" class="node"><title>Node3</title>
<g id="a_node3"><a xlink:href="classblfwk_1_1_data_source_1_1_segment.html" target="_top" xlink:title="Discrete, contiguous part of the source&#39;s data. ">
<polygon fill="white" stroke="black" points="119,-78.5 119,-108.5 220,-108.5 220,-78.5 119,-78.5"/>
<text text-anchor="start" x="127" y="-96.5" font-family="Helvetica,sans-Serif" font-size="10.00">blfwk::DataSource::</text>
<text text-anchor="middle" x="169.5" y="-85.5" font-family="Helvetica,sans-Serif" font-size="10.00">Segment</text>
</a>
</g>
</g>
<!-- Node3&#45;&gt;Node1 -->
<g id="edge2" class="edge"><title>Node3&#45;&gt;Node1</title>
<path fill="none" stroke="#9a32cd" stroke-dasharray="5,2" d="M146.621,-71.0332C132.871,-58.1316 115.754,-42.0716 103.667,-30.7309"/>
<polygon fill="#9a32cd" stroke="#9a32cd" points="144.577,-73.915 154.265,-78.205 149.367,-68.8101 144.577,-73.915"/>
<text text-anchor="middle" x="161" y="-52" font-family="Helvetica,sans-Serif" font-size="10.00"> m_segment</text>
</g>
<!-- Node4 -->
<g id="node4" class="node"><title>Node4</title>
<g id="a_node4"><a xlink:href="classblfwk_1_1_data_source.html" target="_top" xlink:title="Abstract base class for data sources. ">
<polygon fill="white" stroke="black" points="191,-156.5 191,-175.5 286,-175.5 286,-156.5 191,-156.5"/>
<text text-anchor="middle" x="238.5" y="-163.5" font-family="Helvetica,sans-Serif" font-size="10.00">blfwk::DataSource</text>
</a>
</g>
</g>
<!-- Node4&#45;&gt;Node3 -->
<g id="edge3" class="edge"><title>Node4&#45;&gt;Node3</title>
<path fill="none" stroke="#9a32cd" stroke-dasharray="5,2" d="M199.398,-152.047C192.695,-148.379 186.343,-143.764 181.5,-138 174.646,-129.843 171.688,-118.076 170.42,-108.836"/>
<polygon fill="#9a32cd" stroke="#9a32cd" points="198.114,-155.313 208.645,-156.48 201.141,-149.001 198.114,-155.313"/>
<text text-anchor="middle" x="204.5" y="-130" font-family="Helvetica,sans-Serif" font-size="10.00"> m_source</text>
</g>
<!-- Node5 -->
<g id="node5" class="node"><title>Node5</title>
<g id="a_node5"><a xlink:href="classblfwk_1_1_data_target.html" target="_top" xlink:title="Abstract base class for the target address or range of data. ">
<polygon fill="white" stroke="black" points="249.5,-84 249.5,-103 341.5,-103 341.5,-84 249.5,-84"/>
<text text-anchor="middle" x="295.5" y="-91" font-family="Helvetica,sans-Serif" font-size="10.00">blfwk::DataTarget</text>
</a>
</g>
</g>
<!-- Node4&#45;&gt;Node5 -->
<g id="edge5" class="edge"><title>Node4&#45;&gt;Node5</title>
<path fill="none" stroke="#9a32cd" stroke-dasharray="5,2" d="M232.741,-146.187C231.831,-139.719 232.116,-132.682 235.5,-127 242.229,-115.702 254.403,-108.092 266.035,-103.095"/>
<polygon fill="#9a32cd" stroke="#9a32cd" points="229.394,-147.246 235.066,-156.195 236.213,-145.663 229.394,-147.246"/>
<text text-anchor="middle" x="258.5" y="-130" font-family="Helvetica,sans-Serif" font-size="10.00"> m_source</text>
</g>
<!-- Node5&#45;&gt;Node4 -->
<g id="edge4" class="edge"><title>Node5&#45;&gt;Node4</title>
<path fill="none" stroke="#9a32cd" stroke-dasharray="5,2" d="M294.541,-113.225C293.323,-121.479 290.765,-130.894 285.5,-138 279.562,-146.015 270.483,-152.021 261.883,-156.309"/>
<polygon fill="#9a32cd" stroke="#9a32cd" points="298.049,-113.3 295.501,-103.017 291.08,-112.645 298.049,-113.3"/>
<text text-anchor="middle" x="311.5" y="-130" font-family="Helvetica,sans-Serif" font-size="10.00"> m_target</text>
</g>
</g>
</svg>
