<?xml version="1.0" encoding="UTF-8" standalone="no"?>
<!DOCTYPE svg PUBLIC "-//W3C//DTD SVG 1.1//EN"
 "http://www.w3.org/Graphics/SVG/1.1/DTD/svg11.dtd">
<!-- Generated by graphviz version 2.38.0 (20140413.2041)
 -->
<!-- Title: elftosb::BinaryDataSection Pages: 1 -->
<svg width="200pt" height="230pt"
 viewBox="0.00 0.00 199.50 230.00" xmlns="http://www.w3.org/2000/svg" xmlns:xlink="http://www.w3.org/1999/xlink">
<g id="graph0" class="graph" transform="scale(1 1) rotate(0) translate(4 226)">
<title>elftosb::BinaryDataSection</title>
<polygon fill="white" stroke="none" points="-4,4 -4,-226 195.5,-226 195.5,4 -4,4"/>
<!-- Node1 -->
<g id="node1" class="node"><title>Node1</title>
<polygon fill="#bfbfbf" stroke="black" points="59.5,-0.5 59.5,-19.5 191.5,-19.5 191.5,-0.5 59.5,-0.5"/>
<text text-anchor="middle" x="125.5" y="-7.5" font-family="Helvetica,sans-Serif" font-size="10.00">elftosb::BinaryDataSection</text>
</g>
<!-- Node2 -->
<g id="node2" class="node"><title>Node2</title>
<g id="a_node2"><a xlink:href="classelftosb_1_1_output_section.html" target="_top" xlink:title="Base class for data model of sections of the output file. ">
<polygon fill="white" stroke="black" points="0,-57.5 0,-76.5 113,-76.5 113,-57.5 0,-57.5"/>
<text text-anchor="middle" x="56.5" y="-64.5" font-family="Helvetica,sans-Serif" font-size="10.00">elftosb::OutputSection</text>
</a>
</g>
</g>
<!-- Node2&#45;&gt;Node1 -->
<g id="edge1" class="edge"><title>Node2&#45;&gt;Node1</title>
<path fill="none" stroke="midnightblue" d="M75.3204,-50.9983C87.9115,-40.9619 104.042,-28.1044 114.567,-19.7149"/>
<polygon fill="midnightblue" stroke="midnightblue" points="72.9194,-48.4362 67.2813,-57.4063 77.2826,-53.91 72.9194,-48.4362"/>
</g>
<!-- Node3 -->
<g id="node3" class="node"><title>Node3</title>
<g id="a_node3"><a xlink:href="group__smart__pointer.html" target="_top" xlink:title="smart_ptr\&lt; elftosb\l::OptionContext \&gt;">
<polygon fill="white" stroke="black" points="9,-124.5 9,-154.5 104,-154.5 104,-124.5 9,-124.5"/>
<text text-anchor="start" x="17" y="-142.5" font-family="Helvetica,sans-Serif" font-size="10.00">smart_ptr&lt; elftosb</text>
<text text-anchor="middle" x="56.5" y="-131.5" font-family="Helvetica,sans-Serif" font-size="10.00">::OptionContext &gt;</text>
</a>
</g>
</g>
<!-- Node3&#45;&gt;Node2 -->
<g id="edge2" class="edge"><title>Node3&#45;&gt;Node2</title>
<path fill="none" stroke="#9a32cd" stroke-dasharray="5,2" d="M56.5,-114.091C56.5,-101.214 56.5,-86.1974 56.5,-76.8932"/>
<polygon fill="#9a32cd" stroke="#9a32cd" points="53.0001,-114.233 56.5,-124.233 60.0001,-114.233 53.0001,-114.233"/>
<text text-anchor="middle" x="81" y="-98" font-family="Helvetica,sans-Serif" font-size="10.00"> m_options</text>
</g>
<!-- Node4 -->
<g id="node4" class="node"><title>Node4</title>
<g id="a_node4"><a xlink:href="classelftosb_1_1_option_context.html" target="_top" xlink:title="Pure abstract interface class to a table of options. ">
<polygon fill="white" stroke="black" points="0,-202.5 0,-221.5 113,-221.5 113,-202.5 0,-202.5"/>
<text text-anchor="middle" x="56.5" y="-209.5" font-family="Helvetica,sans-Serif" font-size="10.00">elftosb::OptionContext</text>
</a>
</g>
</g>
<!-- Node4&#45;&gt;Node3 -->
<g id="edge3" class="edge"><title>Node4&#45;&gt;Node3</title>
<path fill="none" stroke="#9a32cd" stroke-dasharray="5,2" d="M56.5,-192.236C56.5,-180.408 56.5,-165.383 56.5,-154.576"/>
<polygon fill="#9a32cd" stroke="#9a32cd" points="53.0001,-192.355 56.5,-202.355 60.0001,-192.355 53.0001,-192.355"/>
<text text-anchor="middle" x="63.5" y="-176" font-family="Helvetica,sans-Serif" font-size="10.00"> _p</text>
</g>
<!-- Node5 -->
<g id="node5" class="node"><title>Node5</title>
<g id="a_node5"><a xlink:href="class_blob.html" target="_top" xlink:title="Manages a binary object of arbitrary length. ">
<polygon fill="white" stroke="black" points="131.5,-57.5 131.5,-76.5 167.5,-76.5 167.5,-57.5 131.5,-57.5"/>
<text text-anchor="middle" x="149.5" y="-64.5" font-family="Helvetica,sans-Serif" font-size="10.00">Blob</text>
</a>
</g>
</g>
<!-- Node5&#45;&gt;Node1 -->
<g id="edge4" class="edge"><title>Node5&#45;&gt;Node1</title>
<path fill="none" stroke="midnightblue" d="M141.659,-48.0314C137.513,-38.5306 132.612,-27.2977 129.303,-19.7149"/>
<polygon fill="midnightblue" stroke="midnightblue" points="138.543,-49.6407 145.75,-57.4063 144.958,-46.841 138.543,-49.6407"/>
</g>
</g>
</svg>
