<?xml version="1.0" encoding="UTF-8" standalone="no"?>
<!DOCTYPE svg PUBLIC "-//W3C//DTD SVG 1.1//EN"
 "http://www.w3.org/Graphics/SVG/1.1/DTD/svg11.dtd">
<!-- Generated by graphviz version 2.38.0 (20140413.2041)
 -->
<!-- Title: blfwk::IntelHexSourceFile Pages: 1 -->
<svg width="1381pt" height="371pt"
 viewBox="0.00 0.00 1381.00 371.00" xmlns="http://www.w3.org/2000/svg" xmlns:xlink="http://www.w3.org/1999/xlink">
<g id="graph0" class="graph" transform="scale(1 1) rotate(0) translate(4 367)">
<title>blfwk::IntelHexSourceFile</title>
<polygon fill="white" stroke="none" points="-4,4 -4,-367 1377,-367 1377,4 -4,4"/>
<!-- Node1 -->
<g id="node1" class="node"><title>Node1</title>
<polygon fill="#bfbfbf" stroke="black" points="1247,-228 1247,-247 1373,-247 1373,-228 1247,-228"/>
<text text-anchor="middle" x="1310" y="-235" font-family="Helvetica,sans-Serif" font-size="10.00">blfwk::IntelHexSourceFile</text>
</g>
<!-- Node2 -->
<g id="node2" class="node"><title>Node2</title>
<g id="a_node2"><a xlink:href="classblfwk_1_1_source_file.html" target="_top" xlink:title="Abstract base class for a source file containing executable code. ">
<polygon fill="white" stroke="black" points="1072,-294 1072,-313 1163,-313 1163,-294 1072,-294"/>
<text text-anchor="middle" x="1117.5" y="-301" font-family="Helvetica,sans-Serif" font-size="10.00">blfwk::SourceFile</text>
</a>
</g>
</g>
<!-- Node2&#45;&gt;Node1 -->
<g id="edge1" class="edge"><title>Node2&#45;&gt;Node1</title>
<path fill="none" stroke="midnightblue" d="M1172.94,-294.71C1191.07,-290.986 1211.18,-285.979 1229,-279.5 1252.59,-270.925 1277.94,-256.663 1293.64,-247.172"/>
<polygon fill="midnightblue" stroke="midnightblue" points="1172.23,-291.281 1163.1,-296.647 1173.58,-298.149 1172.23,-291.281"/>
</g>
<!-- Node3 -->
<g id="node3" class="node"><title>Node3</title>
<g id="a_node3"><a xlink:title="STL class. ">
<polygon fill="white" stroke="#bfbfbf" points="865,-120 865,-139 925,-139 925,-120 865,-120"/>
<text text-anchor="middle" x="895" y="-127" font-family="Helvetica,sans-Serif" font-size="10.00">std::string</text>
</a>
</g>
</g>
<!-- Node3&#45;&gt;Node2 -->
<g id="edge2" class="edge"><title>Node3&#45;&gt;Node2</title>
<path fill="none" stroke="#9a32cd" stroke-dasharray="5,2" d="M934.623,-137.375C944.271,-140.931 953.884,-146.074 961,-153.5 979.087,-172.376 960.574,-190.954 979,-209.5 1002.08,-232.731 1021.33,-214.992 1049,-232.5 1075.45,-249.231 1098.75,-278.59 1109.76,-293.781"/>
<polygon fill="#9a32cd" stroke="#9a32cd" points="935.644,-134.027 925.053,-134.321 933.516,-140.695 935.644,-134.027"/>
<text text-anchor="middle" x="1014" y="-235.5" font-family="Helvetica,sans-Serif" font-size="10.00"> m_path</text>
</g>
<!-- Node14 -->
<g id="node14" class="node"><title>Node14</title>
<g id="a_node14"><a xlink:href="class_st_executable_image.html" target="_top" xlink:title="Used to build a representation of memory regions. ">
<polygon fill="white" stroke="black" points="1067,-69 1067,-88 1168,-88 1168,-69 1067,-69"/>
<text text-anchor="middle" x="1117.5" y="-76" font-family="Helvetica,sans-Serif" font-size="10.00">StExecutableImage</text>
</a>
</g>
</g>
<!-- Node3&#45;&gt;Node14 -->
<g id="edge18" class="edge"><title>Node3&#45;&gt;Node14</title>
<path fill="none" stroke="#9a32cd" stroke-dasharray="5,2" d="M925.15,-115.846C940.8,-109.048 960.606,-101.281 979,-96.5 1007.66,-89.0505 1040.52,-84.6042 1066.93,-81.9949"/>
<polygon fill="#9a32cd" stroke="#9a32cd" points="923.708,-112.657 915.993,-119.918 926.552,-119.053 923.708,-112.657"/>
<text text-anchor="middle" x="1014" y="-99.5" font-family="Helvetica,sans-Serif" font-size="10.00"> m_name</text>
</g>
<!-- Node19 -->
<g id="node19" class="node"><title>Node19</title>
<g id="a_node19"><a xlink:href="class_st_intel_hex_file.html" target="_top" xlink:title="Intel Hex parser. ">
<polygon fill="white" stroke="black" points="1079,-171 1079,-190 1156,-190 1156,-171 1079,-171"/>
<text text-anchor="middle" x="1117.5" y="-178" font-family="Helvetica,sans-Serif" font-size="10.00">StIntelHexFile</text>
</a>
</g>
</g>
<!-- Node3&#45;&gt;Node19 -->
<g id="edge25" class="edge"><title>Node3&#45;&gt;Node19</title>
<path fill="none" stroke="#9a32cd" stroke-dasharray="5,2" d="M935.145,-130.484C966.495,-132.129 1011.31,-136.419 1049,-147.5 1067.65,-152.982 1087.45,-163.261 1100.75,-170.897"/>
<polygon fill="#9a32cd" stroke="#9a32cd" points="935.208,-126.983 925.059,-130.021 934.888,-133.976 935.208,-126.983"/>
<text text-anchor="middle" x="1014" y="-150.5" font-family="Helvetica,sans-Serif" font-size="10.00"> m_name</text>
</g>
<!-- Node4 -->
<g id="node4" class="node"><title>Node4</title>
<g id="a_node4"><a xlink:title="STL class. ">
<polygon fill="white" stroke="#bfbfbf" points="643,-114.5 643,-144.5 738,-144.5 738,-114.5 643,-114.5"/>
<text text-anchor="start" x="651" y="-132.5" font-family="Helvetica,sans-Serif" font-size="10.00">std::basic_string&lt;</text>
<text text-anchor="middle" x="690.5" y="-121.5" font-family="Helvetica,sans-Serif" font-size="10.00"> char &gt;</text>
</a>
</g>
</g>
<!-- Node4&#45;&gt;Node3 -->
<g id="edge3" class="edge"><title>Node4&#45;&gt;Node3</title>
<path fill="none" stroke="midnightblue" d="M748.588,-129.5C786.418,-129.5 834.479,-129.5 864.75,-129.5"/>
<polygon fill="midnightblue" stroke="midnightblue" points="748.212,-126 738.212,-129.5 748.212,-133 748.212,-126"/>
</g>
<!-- Node5 -->
<g id="node5" class="node"><title>Node5</title>
<g id="a_node5"><a xlink:href="group__smart__pointer.html" target="_top" xlink:title="smart_ptr\&lt; std::ifstream \&gt;">
<polygon fill="white" stroke="black" points="830,-294 830,-313 960,-313 960,-294 830,-294"/>
<text text-anchor="middle" x="895" y="-301" font-family="Helvetica,sans-Serif" font-size="10.00">smart_ptr&lt; std::ifstream &gt;</text>
</a>
</g>
</g>
<!-- Node5&#45;&gt;Node2 -->
<g id="edge4" class="edge"><title>Node5&#45;&gt;Node2</title>
<path fill="none" stroke="#9a32cd" stroke-dasharray="5,2" d="M970.352,-303.5C1004.04,-303.5 1042.75,-303.5 1071.87,-303.5"/>
<polygon fill="#9a32cd" stroke="#9a32cd" points="970.074,-300 960.074,-303.5 970.074,-307 970.074,-300"/>
<text text-anchor="middle" x="1014" y="-306.5" font-family="Helvetica,sans-Serif" font-size="10.00"> m_stream</text>
</g>
<!-- Node6 -->
<g id="node6" class="node"><title>Node6</title>
<g id="a_node6"><a xlink:title="STL class. ">
<polygon fill="white" stroke="#bfbfbf" points="655,-292 655,-311 726,-311 726,-292 655,-292"/>
<text text-anchor="middle" x="690.5" y="-299" font-family="Helvetica,sans-Serif" font-size="10.00">std::ifstream</text>
</a>
</g>
</g>
<!-- Node6&#45;&gt;Node5 -->
<g id="edge5" class="edge"><title>Node6&#45;&gt;Node5</title>
<path fill="none" stroke="#9a32cd" stroke-dasharray="5,2" d="M736.409,-301.944C763.866,-302.215 799.432,-302.566 829.827,-302.866"/>
<polygon fill="#9a32cd" stroke="#9a32cd" points="736.345,-298.443 726.311,-301.844 736.276,-305.443 736.345,-298.443"/>
<text text-anchor="middle" x="789.5" y="-306.5" font-family="Helvetica,sans-Serif" font-size="10.00"> _p</text>
</g>
<!-- Node7 -->
<g id="node7" class="node"><title>Node7</title>
<g id="a_node7"><a xlink:title="STL class. ">
<polygon fill="white" stroke="#bfbfbf" points="495,-224.5 495,-254.5 594,-254.5 594,-224.5 495,-224.5"/>
<text text-anchor="start" x="503" y="-242.5" font-family="Helvetica,sans-Serif" font-size="10.00">std::basic_ifstream</text>
<text text-anchor="middle" x="544.5" y="-231.5" font-family="Helvetica,sans-Serif" font-size="10.00">&lt; char &gt;</text>
</a>
</g>
</g>
<!-- Node7&#45;&gt;Node6 -->
<g id="edge6" class="edge"><title>Node7&#45;&gt;Node6</title>
<path fill="none" stroke="midnightblue" d="M589.859,-258.599C615.435,-269.611 646.498,-282.985 667.069,-291.842"/>
<polygon fill="midnightblue" stroke="midnightblue" points="590.927,-255.248 580.358,-254.508 588.159,-261.678 590.927,-255.248"/>
</g>
<!-- Node8 -->
<g id="node8" class="node"><title>Node8</title>
<g id="a_node8"><a xlink:title="STL class. ">
<polygon fill="white" stroke="#bfbfbf" points="265,-217.5 265,-247.5 362,-247.5 362,-217.5 265,-217.5"/>
<text text-anchor="start" x="273" y="-235.5" font-family="Helvetica,sans-Serif" font-size="10.00">std::basic_istream</text>
<text text-anchor="middle" x="313.5" y="-224.5" font-family="Helvetica,sans-Serif" font-size="10.00">&lt; Char &gt;</text>
</a>
</g>
</g>
<!-- Node8&#45;&gt;Node7 -->
<g id="edge7" class="edge"><title>Node8&#45;&gt;Node7</title>
<path fill="none" stroke="midnightblue" d="M372.559,-234.275C410.284,-235.428 458.911,-236.914 494.65,-238.007"/>
<polygon fill="midnightblue" stroke="midnightblue" points="372.329,-230.766 362.227,-233.959 372.116,-237.763 372.329,-230.766"/>
</g>
<!-- Node9 -->
<g id="node9" class="node"><title>Node9</title>
<g id="a_node9"><a xlink:title="STL class. ">
<polygon fill="white" stroke="#bfbfbf" points="112,-195 112,-214 228,-214 228,-195 112,-195"/>
<text text-anchor="middle" x="170" y="-202" font-family="Helvetica,sans-Serif" font-size="10.00">std::basic_ios&lt; Char &gt;</text>
</a>
</g>
</g>
<!-- Node9&#45;&gt;Node8 -->
<g id="edge8" class="edge"><title>Node9&#45;&gt;Node8</title>
<path fill="none" stroke="midnightblue" d="M229.145,-216.006C241.039,-218.359 253.424,-220.81 264.897,-223.08"/>
<polygon fill="midnightblue" stroke="midnightblue" points="229.79,-212.566 219.301,-214.058 228.431,-219.432 229.79,-212.566"/>
</g>
<!-- Node21 -->
<g id="node21" class="node"><title>Node21</title>
<g id="a_node21"><a xlink:title="STL class. ">
<polygon fill="white" stroke="#bfbfbf" points="380,-170.5 380,-200.5 477,-200.5 477,-170.5 380,-170.5"/>
<text text-anchor="start" x="388" y="-188.5" font-family="Helvetica,sans-Serif" font-size="10.00">std::basic_istream</text>
<text text-anchor="middle" x="428.5" y="-177.5" font-family="Helvetica,sans-Serif" font-size="10.00">&lt; char &gt;</text>
</a>
</g>
</g>
<!-- Node9&#45;&gt;Node21 -->
<g id="edge22" class="edge"><title>Node9&#45;&gt;Node21</title>
<path fill="none" stroke="midnightblue" d="M238.395,-199.508C282.886,-196.212 340.097,-191.974 379.885,-189.027"/>
<polygon fill="midnightblue" stroke="midnightblue" points="237.958,-196.03 228.244,-200.26 238.476,-203.011 237.958,-196.03"/>
</g>
<!-- Node10 -->
<g id="node10" class="node"><title>Node10</title>
<g id="a_node10"><a xlink:title="STL class. ">
<polygon fill="white" stroke="#bfbfbf" points="0,-195 0,-214 75,-214 75,-195 0,-195"/>
<text text-anchor="middle" x="37.5" y="-202" font-family="Helvetica,sans-Serif" font-size="10.00">std::ios_base</text>
</a>
</g>
</g>
<!-- Node10&#45;&gt;Node9 -->
<g id="edge9" class="edge"><title>Node10&#45;&gt;Node9</title>
<path fill="none" stroke="midnightblue" d="M85.3188,-204.5C93.8367,-204.5 102.811,-204.5 111.593,-204.5"/>
<polygon fill="midnightblue" stroke="midnightblue" points="85.1988,-201 75.1988,-204.5 85.1988,-208 85.1988,-201"/>
</g>
<!-- Node11 -->
<g id="node11" class="node"><title>Node11</title>
<g id="a_node11"><a xlink:href="group__smart__pointer.html" target="_top" xlink:title="smart_ptr\&lt; blfwk::Option\lContext \&gt;">
<polygon fill="white" stroke="black" points="833.5,-332.5 833.5,-362.5 956.5,-362.5 956.5,-332.5 833.5,-332.5"/>
<text text-anchor="start" x="841.5" y="-350.5" font-family="Helvetica,sans-Serif" font-size="10.00">smart_ptr&lt; blfwk::Option</text>
<text text-anchor="middle" x="895" y="-339.5" font-family="Helvetica,sans-Serif" font-size="10.00">Context &gt;</text>
</a>
</g>
</g>
<!-- Node11&#45;&gt;Node2 -->
<g id="edge10" class="edge"><title>Node11&#45;&gt;Node2</title>
<path fill="none" stroke="#9a32cd" stroke-dasharray="5,2" d="M966.869,-334.546C992.75,-329.689 1022.23,-324.009 1049,-318.5 1057.23,-316.806 1066.01,-314.917 1074.42,-313.066"/>
<polygon fill="#9a32cd" stroke="#9a32cd" points="965.955,-331.156 956.768,-336.434 967.241,-338.037 965.955,-331.156"/>
<text text-anchor="middle" x="1014" y="-335.5" font-family="Helvetica,sans-Serif" font-size="10.00"> m_options</text>
</g>
<!-- Node12 -->
<g id="node12" class="node"><title>Node12</title>
<g id="a_node12"><a xlink:href="classblfwk_1_1_option_context.html" target="_top" xlink:title="Pure abstract interface class to a table of options. ">
<polygon fill="white" stroke="black" points="637,-338 637,-357 744,-357 744,-338 637,-338"/>
<text text-anchor="middle" x="690.5" y="-345" font-family="Helvetica,sans-Serif" font-size="10.00">blfwk::OptionContext</text>
</a>
</g>
</g>
<!-- Node12&#45;&gt;Node11 -->
<g id="edge11" class="edge"><title>Node12&#45;&gt;Node11</title>
<path fill="none" stroke="#9a32cd" stroke-dasharray="5,2" d="M754.347,-347.5C779.514,-347.5 808.398,-347.5 833.343,-347.5"/>
<polygon fill="#9a32cd" stroke="#9a32cd" points="754.176,-344 744.176,-347.5 754.176,-351 754.176,-344"/>
<text text-anchor="middle" x="789.5" y="-350.5" font-family="Helvetica,sans-Serif" font-size="10.00"> _p</text>
</g>
<!-- Node13 -->
<g id="node13" class="node"><title>Node13</title>
<g id="a_node13"><a xlink:href="class_st_intel_hex_file.html#struct_st_intel_hex_file_1_1_intel_hex" target="_top" xlink:title="StIntelHexFile::IntelHex">
<polygon fill="white" stroke="black" points="631,-234 631,-253 750,-253 750,-234 631,-234"/>
<text text-anchor="middle" x="690.5" y="-241" font-family="Helvetica,sans-Serif" font-size="10.00">StIntelHexFile::IntelHex</text>
</a>
</g>
</g>
<!-- Node13&#45;&gt;Node1 -->
<g id="edge12" class="edge"><title>Node13&#45;&gt;Node1</title>
<path fill="none" stroke="#9a32cd" stroke-dasharray="5,2" d="M760.372,-249.155C762.946,-249.286 765.496,-249.402 768,-249.5 787.096,-250.248 791.89,-249.73 811,-249.5 967.956,-247.609 1152.68,-242.368 1246.9,-239.477"/>
<polygon fill="#9a32cd" stroke="#9a32cd" points="760.545,-245.659 750.362,-248.584 760.146,-252.648 760.545,-245.659"/>
<text text-anchor="middle" x="1014" y="-250.5" font-family="Helvetica,sans-Serif" font-size="10.00"> m_entryRecord</text>
</g>
<!-- Node22 -->
<g id="node22" class="node"><title>Node22</title>
<polygon fill="white" stroke="#bfbfbf" points="829.5,-204.5 829.5,-234.5 960.5,-234.5 960.5,-204.5 829.5,-204.5"/>
<text text-anchor="start" x="837.5" y="-222.5" font-family="Helvetica,sans-Serif" font-size="10.00">std::vector&lt; StIntelHexFile</text>
<text text-anchor="middle" x="895" y="-211.5" font-family="Helvetica,sans-Serif" font-size="10.00">::IntelHex &gt;</text>
</g>
<!-- Node13&#45;&gt;Node22 -->
<g id="edge24" class="edge"><title>Node13&#45;&gt;Node22</title>
<path fill="none" stroke="#9a32cd" stroke-dasharray="5,2" d="M760.141,-235.365C782.458,-232.72 807.141,-229.794 829.171,-227.183"/>
<polygon fill="#9a32cd" stroke="#9a32cd" points="759.59,-231.905 750.071,-236.558 760.414,-238.857 759.59,-231.905"/>
<text text-anchor="middle" x="789.5" y="-237.5" font-family="Helvetica,sans-Serif" font-size="10.00"> elements</text>
</g>
<!-- Node14&#45;&gt;Node1 -->
<g id="edge13" class="edge"><title>Node14&#45;&gt;Node1</title>
<path fill="none" stroke="#9a32cd" stroke-dasharray="5,2" d="M1138.24,-94.9792C1177.88,-128.057 1266.01,-201.619 1297.52,-227.92"/>
<polygon fill="#9a32cd" stroke="#9a32cd" points="1140.05,-91.9276 1130.13,-88.2068 1135.56,-97.3017 1140.05,-91.9276"/>
<text text-anchor="middle" x="1207.5" y="-171.5" font-family="Helvetica,sans-Serif" font-size="10.00"> m_image</text>
</g>
<!-- Node15 -->
<g id="node15" class="node"><title>Node15</title>
<polygon fill="white" stroke="#bfbfbf" points="832.5,-54 832.5,-73 957.5,-73 957.5,-54 832.5,-54"/>
<text text-anchor="middle" x="895" y="-61" font-family="Helvetica,sans-Serif" font-size="10.00">std::list&lt; AddressFilter &gt;</text>
</g>
<!-- Node15&#45;&gt;Node14 -->
<g id="edge14" class="edge"><title>Node15&#45;&gt;Node14</title>
<path fill="none" stroke="#9a32cd" stroke-dasharray="5,2" d="M967.656,-59.4058C993.383,-58.8917 1022.56,-59.4097 1049,-62.5 1060.24,-63.8144 1072.33,-66.3208 1083.13,-68.9666"/>
<polygon fill="#9a32cd" stroke="#9a32cd" points="967.516,-55.9081 957.608,-59.6615 967.694,-62.9059 967.516,-55.9081"/>
<text text-anchor="middle" x="1014" y="-65.5" font-family="Helvetica,sans-Serif" font-size="10.00"> m_filters</text>
</g>
<!-- Node16 -->
<g id="node16" class="node"><title>Node16</title>
<g id="a_node16"><a xlink:href="struct_st_executable_image_1_1_address_filter.html" target="_top" xlink:title="StExecutableImage::\lAddressFilter">
<polygon fill="white" stroke="black" points="637,-49.5 637,-79.5 744,-79.5 744,-49.5 637,-49.5"/>
<text text-anchor="start" x="645" y="-67.5" font-family="Helvetica,sans-Serif" font-size="10.00">StExecutableImage::</text>
<text text-anchor="middle" x="690.5" y="-56.5" font-family="Helvetica,sans-Serif" font-size="10.00">AddressFilter</text>
</a>
</g>
</g>
<!-- Node16&#45;&gt;Node15 -->
<g id="edge15" class="edge"><title>Node16&#45;&gt;Node15</title>
<path fill="none" stroke="#9a32cd" stroke-dasharray="5,2" d="M754.213,-64.1903C779.043,-64.0677 807.508,-63.9271 832.244,-63.805"/>
<polygon fill="#9a32cd" stroke="#9a32cd" points="754.158,-60.6904 744.176,-64.2399 754.193,-67.6903 754.158,-60.6904"/>
<text text-anchor="middle" x="789.5" y="-67.5" font-family="Helvetica,sans-Serif" font-size="10.00"> elements</text>
</g>
<!-- Node17 -->
<g id="node17" class="node"><title>Node17</title>
<polygon fill="white" stroke="#bfbfbf" points="829,-11 829,-30 961,-30 961,-11 829,-11"/>
<text text-anchor="middle" x="895" y="-18" font-family="Helvetica,sans-Serif" font-size="10.00">std::list&lt; MemoryRegion &gt;</text>
</g>
<!-- Node17&#45;&gt;Node14 -->
<g id="edge16" class="edge"><title>Node17&#45;&gt;Node14</title>
<path fill="none" stroke="#9a32cd" stroke-dasharray="5,2" d="M971.264,-27.5708C996.377,-31.1729 1024.25,-36.5429 1049,-44.5 1067.74,-50.5248 1087.69,-61.1623 1101,-68.9385"/>
<polygon fill="#9a32cd" stroke="#9a32cd" points="971.437,-24.0623 961.056,-26.1805 970.492,-30.9982 971.437,-24.0623"/>
<text text-anchor="middle" x="1014" y="-47.5" font-family="Helvetica,sans-Serif" font-size="10.00"> m_image</text>
</g>
<!-- Node18 -->
<g id="node18" class="node"><title>Node18</title>
<g id="a_node18"><a xlink:href="struct_st_executable_image_1_1_memory_region.html" target="_top" xlink:title="StExecutableImage::\lMemoryRegion">
<polygon fill="white" stroke="black" points="637,-0.5 637,-30.5 744,-30.5 744,-0.5 637,-0.5"/>
<text text-anchor="start" x="645" y="-18.5" font-family="Helvetica,sans-Serif" font-size="10.00">StExecutableImage::</text>
<text text-anchor="middle" x="690.5" y="-7.5" font-family="Helvetica,sans-Serif" font-size="10.00">MemoryRegion</text>
</a>
</g>
</g>
<!-- Node18&#45;&gt;Node17 -->
<g id="edge17" class="edge"><title>Node18&#45;&gt;Node17</title>
<path fill="none" stroke="#9a32cd" stroke-dasharray="5,2" d="M754.448,-17.0543C778.116,-17.6387 805.06,-18.304 828.919,-18.8931"/>
<polygon fill="#9a32cd" stroke="#9a32cd" points="754.259,-13.5486 744.176,-16.8006 754.086,-20.5465 754.259,-13.5486"/>
<text text-anchor="middle" x="789.5" y="-21.5" font-family="Helvetica,sans-Serif" font-size="10.00"> elements</text>
</g>
<!-- Node19&#45;&gt;Node1 -->
<g id="edge19" class="edge"><title>Node19&#45;&gt;Node1</title>
<path fill="none" stroke="#9a32cd" stroke-dasharray="5,2" d="M1160.34,-193.02C1195.49,-203.536 1244.97,-218.34 1277.01,-227.928"/>
<polygon fill="#9a32cd" stroke="#9a32cd" points="1160.97,-189.554 1150.39,-190.041 1158.96,-196.26 1160.97,-189.554"/>
<text text-anchor="middle" x="1207.5" y="-215.5" font-family="Helvetica,sans-Serif" font-size="10.00"> m_file</text>
</g>
<!-- Node20 -->
<g id="node20" class="node"><title>Node20</title>
<g id="a_node20"><a xlink:title="STL class. ">
<polygon fill="white" stroke="#bfbfbf" points="861,-163 861,-182 929,-182 929,-163 861,-163"/>
<text text-anchor="middle" x="895" y="-170" font-family="Helvetica,sans-Serif" font-size="10.00">std::istream</text>
</a>
</g>
</g>
<!-- Node20&#45;&gt;Node19 -->
<g id="edge20" class="edge"><title>Node20&#45;&gt;Node19</title>
<path fill="none" stroke="#9a32cd" stroke-dasharray="5,2" d="M939.184,-166.376C969.9,-162.963 1012.09,-160.185 1049,-164.5 1060.24,-165.814 1072.33,-168.321 1083.13,-170.967"/>
<polygon fill="#9a32cd" stroke="#9a32cd" points="938.754,-162.903 929.232,-167.549 939.573,-169.854 938.754,-162.903"/>
<text text-anchor="middle" x="1014" y="-167.5" font-family="Helvetica,sans-Serif" font-size="10.00"> m_stream</text>
</g>
<!-- Node21&#45;&gt;Node20 -->
<g id="edge21" class="edge"><title>Node21&#45;&gt;Node20</title>
<path fill="none" stroke="midnightblue" d="M487.079,-183.889C585.345,-181.138 782.395,-175.623 860.756,-173.43"/>
<polygon fill="midnightblue" stroke="midnightblue" points="486.925,-180.391 477.027,-184.17 487.121,-187.389 486.925,-180.391"/>
</g>
<!-- Node22&#45;&gt;Node19 -->
<g id="edge23" class="edge"><title>Node22&#45;&gt;Node19</title>
<path fill="none" stroke="#9a32cd" stroke-dasharray="5,2" d="M961.5,-202.169C967.398,-200.839 973.295,-199.591 979,-198.5 1012.58,-192.077 1051.21,-187.242 1078.96,-184.208"/>
<polygon fill="#9a32cd" stroke="#9a32cd" points="960.552,-198.796 951.607,-204.474 962.14,-205.614 960.552,-198.796"/>
<text text-anchor="middle" x="1014" y="-201.5" font-family="Helvetica,sans-Serif" font-size="10.00"> m_records</text>
</g>
</g>
</svg>
