<?xml version="1.0" encoding="UTF-8" standalone="no"?>
<!DOCTYPE svg PUBLIC "-//W3C//DTD SVG 1.1//EN"
 "http://www.w3.org/Graphics/SVG/1.1/DTD/svg11.dtd">
<!-- Generated by graphviz version 2.38.0 (20140413.2041)
 -->
<!-- Title: elftosb::BinarySourceFile Pages: 1 -->
<svg width="359pt" height="491pt"
 viewBox="0.00 0.00 358.50 491.00" xmlns="http://www.w3.org/2000/svg" xmlns:xlink="http://www.w3.org/1999/xlink">
<g id="graph0" class="graph" transform="scale(1 1) rotate(0) translate(4 487)">
<title>elftosb::BinarySourceFile</title>
<polygon fill="white" stroke="none" points="-4,4 -4,-487 354.5,-487 354.5,4 -4,4"/>
<!-- Node1 -->
<g id="node1" class="node"><title>Node1</title>
<polygon fill="#bfbfbf" stroke="black" points="110,-0.5 110,-19.5 235,-19.5 235,-0.5 110,-0.5"/>
<text text-anchor="middle" x="172.5" y="-7.5" font-family="Helvetica,sans-Serif" font-size="10.00">elftosb::BinarySourceFile</text>
</g>
<!-- Node2 -->
<g id="node2" class="node"><title>Node2</title>
<g id="a_node2"><a xlink:href="classelftosb_1_1_source_file.html" target="_top" xlink:title="Abstract base class for a source file containing executable code. ">
<polygon fill="white" stroke="black" points="123.5,-57.5 123.5,-76.5 221.5,-76.5 221.5,-57.5 123.5,-57.5"/>
<text text-anchor="middle" x="172.5" y="-64.5" font-family="Helvetica,sans-Serif" font-size="10.00">elftosb::SourceFile</text>
</a>
</g>
</g>
<!-- Node2&#45;&gt;Node1 -->
<g id="edge1" class="edge"><title>Node2&#45;&gt;Node1</title>
<path fill="none" stroke="midnightblue" d="M172.5,-47.1166C172.5,-37.8173 172.5,-27.0557 172.5,-19.7149"/>
<polygon fill="midnightblue" stroke="midnightblue" points="169,-47.4062 172.5,-57.4063 176,-47.4063 169,-47.4062"/>
</g>
<!-- Node3 -->
<g id="node3" class="node"><title>Node3</title>
<g id="a_node3"><a xlink:href="group__smart__pointer.html" target="_top" xlink:title="smart_ptr\&lt; elftosb\l::OptionContext \&gt;">
<polygon fill="white" stroke="black" points="19,-124.5 19,-154.5 114,-154.5 114,-124.5 19,-124.5"/>
<text text-anchor="start" x="27" y="-142.5" font-family="Helvetica,sans-Serif" font-size="10.00">smart_ptr&lt; elftosb</text>
<text text-anchor="middle" x="66.5" y="-131.5" font-family="Helvetica,sans-Serif" font-size="10.00">::OptionContext &gt;</text>
</a>
</g>
</g>
<!-- Node3&#45;&gt;Node2 -->
<g id="edge2" class="edge"><title>Node3&#45;&gt;Node2</title>
<path fill="none" stroke="#9a32cd" stroke-dasharray="5,2" d="M89.7759,-117.561C98.7387,-109.998 109.279,-101.685 119.5,-95 130.216,-87.991 142.986,-81.4372 153.306,-76.5421"/>
<polygon fill="#9a32cd" stroke="#9a32cd" points="87.3317,-115.047 82.0427,-124.227 91.9022,-120.349 87.3317,-115.047"/>
<text text-anchor="middle" x="144" y="-98" font-family="Helvetica,sans-Serif" font-size="10.00"> m_options</text>
</g>
<!-- Node4 -->
<g id="node4" class="node"><title>Node4</title>
<g id="a_node4"><a xlink:href="classelftosb_1_1_option_context.html" target="_top" xlink:title="Pure abstract interface class to a table of options. ">
<polygon fill="white" stroke="black" points="0,-208 0,-227 113,-227 113,-208 0,-208"/>
<text text-anchor="middle" x="56.5" y="-215" font-family="Helvetica,sans-Serif" font-size="10.00">elftosb::OptionContext</text>
</a>
</g>
</g>
<!-- Node4&#45;&gt;Node3 -->
<g id="edge3" class="edge"><title>Node4&#45;&gt;Node3</title>
<path fill="none" stroke="#9a32cd" stroke-dasharray="5,2" d="M58.963,-197.782C60.7232,-184.404 63.0542,-166.688 64.6553,-154.52"/>
<polygon fill="#9a32cd" stroke="#9a32cd" points="55.4817,-197.411 57.6471,-207.782 62.4218,-198.324 55.4817,-197.411"/>
<text text-anchor="middle" x="69.5" y="-176" font-family="Helvetica,sans-Serif" font-size="10.00"> _p</text>
</g>
<!-- Node5 -->
<g id="node5" class="node"><title>Node5</title>
<g id="a_node5"><a xlink:title="STL class. ">
<polygon fill="white" stroke="#bfbfbf" points="142.5,-130 142.5,-149 202.5,-149 202.5,-130 142.5,-130"/>
<text text-anchor="middle" x="172.5" y="-137" font-family="Helvetica,sans-Serif" font-size="10.00">std::string</text>
</a>
</g>
</g>
<!-- Node5&#45;&gt;Node2 -->
<g id="edge4" class="edge"><title>Node5&#45;&gt;Node2</title>
<path fill="none" stroke="#9a32cd" stroke-dasharray="5,2" d="M172.5,-119.442C172.5,-105.53 172.5,-87.3203 172.5,-76.7154"/>
<polygon fill="#9a32cd" stroke="#9a32cd" points="169,-119.855 172.5,-129.855 176,-119.855 169,-119.855"/>
<text text-anchor="middle" x="190.5" y="-98" font-family="Helvetica,sans-Serif" font-size="10.00"> m_path</text>
</g>
<!-- Node6 -->
<g id="node6" class="node"><title>Node6</title>
<g id="a_node6"><a xlink:title="STL class. ">
<polygon fill="white" stroke="#bfbfbf" points="131,-202.5 131,-232.5 226,-232.5 226,-202.5 131,-202.5"/>
<text text-anchor="start" x="139" y="-220.5" font-family="Helvetica,sans-Serif" font-size="10.00">std::basic_string&lt;</text>
<text text-anchor="middle" x="178.5" y="-209.5" font-family="Helvetica,sans-Serif" font-size="10.00"> char &gt;</text>
</a>
</g>
</g>
<!-- Node6&#45;&gt;Node5 -->
<g id="edge5" class="edge"><title>Node6&#45;&gt;Node5</title>
<path fill="none" stroke="midnightblue" d="M176.579,-192.165C175.413,-177.396 173.996,-159.448 173.176,-149.064"/>
<polygon fill="midnightblue" stroke="midnightblue" points="173.095,-192.511 177.371,-202.205 180.073,-191.961 173.095,-192.511"/>
</g>
<!-- Node7 -->
<g id="node7" class="node"><title>Node7</title>
<g id="a_node7"><a xlink:href="group__smart__pointer.html" target="_top" xlink:title="smart_ptr\&lt; std::ifstream \&gt;">
<polygon fill="white" stroke="black" points="220.5,-130 220.5,-149 350.5,-149 350.5,-130 220.5,-130"/>
<text text-anchor="middle" x="285.5" y="-137" font-family="Helvetica,sans-Serif" font-size="10.00">smart_ptr&lt; std::ifstream &gt;</text>
</a>
</g>
</g>
<!-- Node7&#45;&gt;Node2 -->
<g id="edge6" class="edge"><title>Node7&#45;&gt;Node2</title>
<path fill="none" stroke="#9a32cd" stroke-dasharray="5,2" d="M262.955,-124.434C240.143,-110.202 205.592,-88.6459 186.469,-76.7154"/>
<polygon fill="#9a32cd" stroke="#9a32cd" points="261.307,-127.532 271.644,-129.855 265.012,-121.593 261.307,-127.532"/>
<text text-anchor="middle" x="255" y="-98" font-family="Helvetica,sans-Serif" font-size="10.00"> m_stream</text>
</g>
<!-- Node8 -->
<g id="node8" class="node"><title>Node8</title>
<g id="a_node8"><a xlink:title="STL class. ">
<polygon fill="white" stroke="#bfbfbf" points="250,-208 250,-227 321,-227 321,-208 250,-208"/>
<text text-anchor="middle" x="285.5" y="-215" font-family="Helvetica,sans-Serif" font-size="10.00">std::ifstream</text>
</a>
</g>
</g>
<!-- Node8&#45;&gt;Node7 -->
<g id="edge7" class="edge"><title>Node8&#45;&gt;Node7</title>
<path fill="none" stroke="#9a32cd" stroke-dasharray="5,2" d="M285.5,-197.724C285.5,-182.197 285.5,-160.858 285.5,-149.116"/>
<polygon fill="#9a32cd" stroke="#9a32cd" points="282,-197.782 285.5,-207.782 289,-197.782 282,-197.782"/>
<text text-anchor="middle" x="292.5" y="-176" font-family="Helvetica,sans-Serif" font-size="10.00"> _p</text>
</g>
<!-- Node9 -->
<g id="node9" class="node"><title>Node9</title>
<g id="a_node9"><a xlink:title="STL class. ">
<polygon fill="white" stroke="#bfbfbf" points="236,-270.5 236,-300.5 335,-300.5 335,-270.5 236,-270.5"/>
<text text-anchor="start" x="244" y="-288.5" font-family="Helvetica,sans-Serif" font-size="10.00">std::basic_ifstream</text>
<text text-anchor="middle" x="285.5" y="-277.5" font-family="Helvetica,sans-Serif" font-size="10.00">&lt; char &gt;</text>
</a>
</g>
</g>
<!-- Node9&#45;&gt;Node8 -->
<g id="edge8" class="edge"><title>Node9&#45;&gt;Node8</title>
<path fill="none" stroke="midnightblue" d="M285.5,-259.876C285.5,-248.471 285.5,-235.636 285.5,-227.328"/>
<polygon fill="midnightblue" stroke="midnightblue" points="282,-260.179 285.5,-270.179 289,-260.179 282,-260.179"/>
</g>
<!-- Node10 -->
<g id="node10" class="node"><title>Node10</title>
<g id="a_node10"><a xlink:title="STL class. ">
<polygon fill="white" stroke="#bfbfbf" points="237,-338.5 237,-368.5 334,-368.5 334,-338.5 237,-338.5"/>
<text text-anchor="start" x="245" y="-356.5" font-family="Helvetica,sans-Serif" font-size="10.00">std::basic_istream</text>
<text text-anchor="middle" x="285.5" y="-345.5" font-family="Helvetica,sans-Serif" font-size="10.00">&lt; Char &gt;</text>
</a>
</g>
</g>
<!-- Node10&#45;&gt;Node9 -->
<g id="edge9" class="edge"><title>Node10&#45;&gt;Node9</title>
<path fill="none" stroke="midnightblue" d="M285.5,-328.032C285.5,-318.861 285.5,-308.745 285.5,-300.793"/>
<polygon fill="midnightblue" stroke="midnightblue" points="282,-328.179 285.5,-338.179 289,-328.179 282,-328.179"/>
</g>
<!-- Node11 -->
<g id="node11" class="node"><title>Node11</title>
<g id="a_node11"><a xlink:title="STL class. ">
<polygon fill="white" stroke="#bfbfbf" points="227.5,-406.5 227.5,-425.5 343.5,-425.5 343.5,-406.5 227.5,-406.5"/>
<text text-anchor="middle" x="285.5" y="-413.5" font-family="Helvetica,sans-Serif" font-size="10.00">std::basic_ios&lt; Char &gt;</text>
</a>
</g>
</g>
<!-- Node11&#45;&gt;Node10 -->
<g id="edge10" class="edge"><title>Node11&#45;&gt;Node10</title>
<path fill="none" stroke="midnightblue" d="M285.5,-396.215C285.5,-387.356 285.5,-376.958 285.5,-368.759"/>
<polygon fill="midnightblue" stroke="midnightblue" points="282,-396.332 285.5,-406.332 289,-396.332 282,-396.332"/>
</g>
<!-- Node12 -->
<g id="node12" class="node"><title>Node12</title>
<g id="a_node12"><a xlink:title="STL class. ">
<polygon fill="white" stroke="#bfbfbf" points="248,-463.5 248,-482.5 323,-482.5 323,-463.5 248,-463.5"/>
<text text-anchor="middle" x="285.5" y="-470.5" font-family="Helvetica,sans-Serif" font-size="10.00">std::ios_base</text>
</a>
</g>
</g>
<!-- Node12&#45;&gt;Node11 -->
<g id="edge11" class="edge"><title>Node12&#45;&gt;Node11</title>
<path fill="none" stroke="midnightblue" d="M285.5,-453.117C285.5,-443.817 285.5,-433.056 285.5,-425.715"/>
<polygon fill="midnightblue" stroke="midnightblue" points="282,-453.406 285.5,-463.406 289,-453.406 282,-453.406"/>
</g>
</g>
</svg>
