<?xml version="1.0" encoding="UTF-8" standalone="no"?>
<!DOCTYPE svg PUBLIC "-//W3C//DTD SVG 1.1//EN"
 "http://www.w3.org/Graphics/SVG/1.1/DTD/svg11.dtd">
<!-- Generated by graphviz version 2.38.0 (20140413.2041)
 -->
<!-- Title: elftosb::IVTConstASTNode Pages: 1 -->
<svg width="285pt" height="383pt"
 viewBox="0.00 0.00 284.50 383.00" xmlns="http://www.w3.org/2000/svg" xmlns:xlink="http://www.w3.org/1999/xlink">
<g id="graph0" class="graph" transform="scale(1 1) rotate(0) translate(4 379)">
<title>elftosb::IVTConstASTNode</title>
<polygon fill="white" stroke="none" points="-4,4 -4,-379 280.5,-379 280.5,4 -4,4"/>
<!-- Node1 -->
<g id="node1" class="node"><title>Node1</title>
<polygon fill="#bfbfbf" stroke="black" points="20,-0.5 20,-19.5 152,-19.5 152,-0.5 20,-0.5"/>
<text text-anchor="middle" x="86" y="-7.5" font-family="Helvetica,sans-Serif" font-size="10.00">elftosb::IVTConstASTNode</text>
</g>
<!-- Node2 -->
<g id="node2" class="node"><title>Node2</title>
<g id="a_node2"><a xlink:href="classelftosb_1_1_const_a_s_t_node.html" target="_top" xlink:title="elftosb::ConstASTNode">
<polygon fill="white" stroke="black" points="0,-183.5 0,-202.5 118,-202.5 118,-183.5 0,-183.5"/>
<text text-anchor="middle" x="59" y="-190.5" font-family="Helvetica,sans-Serif" font-size="10.00">elftosb::ConstASTNode</text>
</a>
</g>
</g>
<!-- Node2&#45;&gt;Node1 -->
<g id="edge1" class="edge"><title>Node2&#45;&gt;Node1</title>
<path fill="none" stroke="midnightblue" d="M61.7784,-173.375C67.534,-134.791 80.5685,-47.4114 84.7108,-19.6424"/>
<polygon fill="midnightblue" stroke="midnightblue" points="58.316,-172.863 60.3023,-183.27 65.2394,-173.896 58.316,-172.863"/>
</g>
<!-- Node3 -->
<g id="node3" class="node"><title>Node3</title>
<g id="a_node3"><a xlink:href="classelftosb_1_1_a_s_t_node.html" target="_top" xlink:title="The base class for all AST node classes. ">
<polygon fill="white" stroke="black" points="87,-288.5 87,-307.5 179,-307.5 179,-288.5 87,-288.5"/>
<text text-anchor="middle" x="133" y="-295.5" font-family="Helvetica,sans-Serif" font-size="10.00">elftosb::ASTNode</text>
</a>
</g>
</g>
<!-- Node3&#45;&gt;Node2 -->
<g id="edge2" class="edge"><title>Node3&#45;&gt;Node2</title>
<path fill="none" stroke="midnightblue" d="M120.825,-280.053C104.894,-257.88 77.5679,-219.844 65.2932,-202.759"/>
<polygon fill="midnightblue" stroke="midnightblue" points="118.014,-282.139 126.691,-288.218 123.698,-278.055 118.014,-282.139"/>
</g>
<!-- Node3&#45;&gt;Node3 -->
<g id="edge4" class="edge"><title>Node3&#45;&gt;Node3</title>
<path fill="none" stroke="#9a32cd" stroke-dasharray="5,2" d="M189.274,-302.66C194.034,-301.663 197,-300.109 197,-298 197,-294.625 189.406,-292.674 179.024,-292.146"/>
<polygon fill="#9a32cd" stroke="#9a32cd" points="188.552,-299.22 179.024,-303.854 189.362,-306.173 188.552,-299.22"/>
<text text-anchor="middle" x="219" y="-295.5" font-family="Helvetica,sans-Serif" font-size="10.00"> m_parent</text>
</g>
<!-- Node6 -->
<g id="node6" class="node"><title>Node6</title>
<g id="a_node6"><a xlink:href="classelftosb_1_1_list_a_s_t_node.html" target="_top" xlink:title="AST node that contains other AST nodes. ">
<polygon fill="white" stroke="black" points="87,-145.5 87,-164.5 195,-164.5 195,-145.5 87,-145.5"/>
<text text-anchor="middle" x="141" y="-152.5" font-family="Helvetica,sans-Serif" font-size="10.00">elftosb::ListASTNode</text>
</a>
</g>
</g>
<!-- Node3&#45;&gt;Node6 -->
<g id="edge7" class="edge"><title>Node3&#45;&gt;Node6</title>
<path fill="none" stroke="midnightblue" d="M134.084,-277.887C135.837,-246.99 139.226,-187.266 140.5,-164.817"/>
<polygon fill="midnightblue" stroke="midnightblue" points="130.573,-277.998 133.5,-288.18 137.561,-278.394 130.573,-277.998"/>
</g>
<!-- Node7 -->
<g id="node7" class="node"><title>Node7</title>
<polygon fill="white" stroke="#bfbfbf" points="161.5,-221.5 161.5,-240.5 276.5,-240.5 276.5,-221.5 161.5,-221.5"/>
<text text-anchor="middle" x="219" y="-228.5" font-family="Helvetica,sans-Serif" font-size="10.00">std::list&lt; ASTNode * &gt;</text>
</g>
<!-- Node3&#45;&gt;Node7 -->
<g id="edge9" class="edge"><title>Node3&#45;&gt;Node7</title>
<path fill="none" stroke="#9a32cd" stroke-dasharray="5,2" d="M152.756,-282.068C169.732,-269.238 193.616,-251.185 207.585,-240.627"/>
<polygon fill="#9a32cd" stroke="#9a32cd" points="150.466,-279.412 144.598,-288.234 154.686,-284.996 150.466,-279.412"/>
<text text-anchor="middle" x="203.5" y="-262" font-family="Helvetica,sans-Serif" font-size="10.00"> elements</text>
</g>
<!-- Node4 -->
<g id="node4" class="node"><title>Node4</title>
<g id="a_node4"><a xlink:href="structelftosb_1_1token__loc__t.html" target="_top" xlink:title="Token location in the source file. ">
<polygon fill="white" stroke="black" points="82.5,-355.5 82.5,-374.5 183.5,-374.5 183.5,-355.5 82.5,-355.5"/>
<text text-anchor="middle" x="133" y="-362.5" font-family="Helvetica,sans-Serif" font-size="10.00">elftosb::token_loc_t</text>
</a>
</g>
</g>
<!-- Node4&#45;&gt;Node3 -->
<g id="edge3" class="edge"><title>Node4&#45;&gt;Node3</title>
<path fill="none" stroke="#9a32cd" stroke-dasharray="5,2" d="M133,-345.037C133,-332.67 133,-317.12 133,-307.627"/>
<polygon fill="#9a32cd" stroke="#9a32cd" points="129.5,-345.234 133,-355.234 136.5,-345.234 129.5,-345.234"/>
<text text-anchor="middle" x="158.5" y="-329" font-family="Helvetica,sans-Serif" font-size="10.00"> m_location</text>
</g>
<!-- Node5 -->
<g id="node5" class="node"><title>Node5</title>
<g id="a_node5"><a xlink:href="group__smart__pointer.html" target="_top" xlink:title="smart_ptr\&lt; elftosb\l::ListASTNode \&gt;">
<polygon fill="white" stroke="black" points="88.5,-67.5 88.5,-97.5 183.5,-97.5 183.5,-67.5 88.5,-67.5"/>
<text text-anchor="start" x="96.5" y="-85.5" font-family="Helvetica,sans-Serif" font-size="10.00">smart_ptr&lt; elftosb</text>
<text text-anchor="middle" x="136" y="-74.5" font-family="Helvetica,sans-Serif" font-size="10.00">::ListASTNode &gt;</text>
</a>
</g>
</g>
<!-- Node5&#45;&gt;Node1 -->
<g id="edge5" class="edge"><title>Node5&#45;&gt;Node1</title>
<path fill="none" stroke="#9a32cd" stroke-dasharray="5,2" d="M120.047,-59.006C110.631,-45.7295 99.2359,-29.6626 92.3072,-19.8932"/>
<polygon fill="#9a32cd" stroke="#9a32cd" points="117.242,-61.1012 125.882,-67.2333 122.952,-57.0517 117.242,-61.1012"/>
<text text-anchor="middle" x="133" y="-41" font-family="Helvetica,sans-Serif" font-size="10.00"> m_fields</text>
</g>
<!-- Node6&#45;&gt;Node5 -->
<g id="edge6" class="edge"><title>Node6&#45;&gt;Node5</title>
<path fill="none" stroke="#9a32cd" stroke-dasharray="5,2" d="M139.669,-135.236C138.83,-123.408 137.765,-108.383 136.998,-97.5762"/>
<polygon fill="#9a32cd" stroke="#9a32cd" points="136.188,-135.628 140.387,-145.355 143.171,-135.133 136.188,-135.628"/>
<text text-anchor="middle" x="146" y="-119" font-family="Helvetica,sans-Serif" font-size="10.00"> _p</text>
</g>
<!-- Node7&#45;&gt;Node6 -->
<g id="edge8" class="edge"><title>Node7&#45;&gt;Node6</title>
<path fill="none" stroke="#9a32cd" stroke-dasharray="5,2" d="M202.199,-214.061C186.299,-198.976 163.019,-176.89 150.242,-164.768"/>
<polygon fill="#9a32cd" stroke="#9a32cd" points="200.082,-216.877 209.746,-221.221 204.9,-211.799 200.082,-216.877"/>
<text text-anchor="middle" x="205" y="-190.5" font-family="Helvetica,sans-Serif" font-size="10.00"> m_list</text>
</g>
</g>
</svg>
