<?xml version="1.0" encoding="UTF-8" standalone="no"?>
<!DOCTYPE svg PUBLIC "-//W3C//DTD SVG 1.1//EN"
 "http://www.w3.org/Graphics/SVG/1.1/DTD/svg11.dtd">
<!-- Generated by graphviz version 2.38.0 (20140413.2041)
 -->
<!-- Title: elftosb::FromStatementASTNode Pages: 1 -->
<svg width="1194pt" height="147pt"
 viewBox="0.00 0.00 1194.00 146.50" xmlns="http://www.w3.org/2000/svg" xmlns:xlink="http://www.w3.org/1999/xlink">
<g id="graph0" class="graph" transform="scale(1 1) rotate(0) translate(4 142.5)">
<title>elftosb::FromStatementASTNode</title>
<polygon fill="white" stroke="none" points="-4,4 -4,-142.5 1190,-142.5 1190,4 -4,4"/>
<!-- Node1 -->
<g id="node1" class="node"><title>Node1</title>
<polygon fill="#bfbfbf" stroke="black" points="1026,-61 1026,-80 1186,-80 1186,-61 1026,-61"/>
<text text-anchor="middle" x="1106" y="-68" font-family="Helvetica,sans-Serif" font-size="10.00">elftosb::FromStatementASTNode</text>
</g>
<!-- Node2 -->
<g id="node2" class="node"><title>Node2</title>
<g id="a_node2"><a xlink:href="classelftosb_1_1_statement_a_s_t_node.html" target="_top" xlink:title="elftosb::StatementASTNode">
<polygon fill="white" stroke="black" points="492,-119 492,-138 629,-138 629,-119 492,-119"/>
<text text-anchor="middle" x="560.5" y="-126" font-family="Helvetica,sans-Serif" font-size="10.00">elftosb::StatementASTNode</text>
</a>
</g>
</g>
<!-- Node2&#45;&gt;Node1 -->
<g id="edge1" class="edge"><title>Node2&#45;&gt;Node1</title>
<path fill="none" stroke="midnightblue" d="M639.404,-122.616C728.651,-115.5 879.184,-102.351 1008,-85.5 1020.42,-83.8754 1033.7,-81.9472 1046.33,-80.0236"/>
<polygon fill="midnightblue" stroke="midnightblue" points="639.056,-119.133 629.364,-123.412 639.609,-126.111 639.056,-119.133"/>
</g>
<!-- Node3 -->
<g id="node3" class="node"><title>Node3</title>
<g id="a_node3"><a xlink:href="classelftosb_1_1_a_s_t_node.html" target="_top" xlink:title="The base class for all AST node classes. ">
<polygon fill="white" stroke="black" points="188,-88 188,-107 280,-107 280,-88 188,-88"/>
<text text-anchor="middle" x="234" y="-95" font-family="Helvetica,sans-Serif" font-size="10.00">elftosb::ASTNode</text>
</a>
</g>
</g>
<!-- Node3&#45;&gt;Node2 -->
<g id="edge2" class="edge"><title>Node3&#45;&gt;Node2</title>
<path fill="none" stroke="midnightblue" d="M283.445,-109.05C288.343,-109.982 293.258,-110.823 298,-111.5 363.419,-120.839 438.785,-125.053 491.752,-126.951"/>
<polygon fill="midnightblue" stroke="midnightblue" points="283.971,-105.586 273.476,-107.034 282.584,-112.447 283.971,-105.586"/>
</g>
<!-- Node3&#45;&gt;Node3 -->
<g id="edge4" class="edge"><title>Node3&#45;&gt;Node3</title>
<path fill="none" stroke="#9a32cd" stroke-dasharray="5,2" d="M218.531,-117.266C219.746,-121.997 224.902,-125.5 234,-125.5 248.93,-125.5 253.245,-116.065 246.947,-107.257"/>
<polygon fill="#9a32cd" stroke="#9a32cd" points="222.003,-117.809 221.053,-107.257 215.216,-116.099 222.003,-117.809"/>
<text text-anchor="middle" x="234" y="-128.5" font-family="Helvetica,sans-Serif" font-size="10.00"> m_parent</text>
</g>
<!-- Node6 -->
<g id="node6" class="node"><title>Node6</title>
<g id="a_node6"><a xlink:href="classelftosb_1_1_list_a_s_t_node.html" target="_top" xlink:title="AST node that contains other AST nodes. ">
<polygon fill="white" stroke="black" points="647,-61 647,-80 755,-80 755,-61 647,-61"/>
<text text-anchor="middle" x="701" y="-68" font-family="Helvetica,sans-Serif" font-size="10.00">elftosb::ListASTNode</text>
</a>
</g>
</g>
<!-- Node3&#45;&gt;Node6 -->
<g id="edge7" class="edge"><title>Node3&#45;&gt;Node6</title>
<path fill="none" stroke="midnightblue" d="M290.399,-98.0655C366.817,-98.269 508.772,-96.5725 629,-83.5 636.973,-82.6331 645.397,-81.3871 653.548,-80.0058"/>
<polygon fill="midnightblue" stroke="midnightblue" points="290.073,-94.5643 280.06,-98.0252 290.046,-101.564 290.073,-94.5643"/>
</g>
<!-- Node7 -->
<g id="node7" class="node"><title>Node7</title>
<polygon fill="white" stroke="#bfbfbf" points="359,-50 359,-69 474,-69 474,-50 359,-50"/>
<text text-anchor="middle" x="416.5" y="-57" font-family="Helvetica,sans-Serif" font-size="10.00">std::list&lt; ASTNode * &gt;</text>
</g>
<!-- Node3&#45;&gt;Node7 -->
<g id="edge9" class="edge"><title>Node3&#45;&gt;Node7</title>
<path fill="none" stroke="#9a32cd" stroke-dasharray="5,2" d="M264.42,-83.9367C274.83,-79.6477 286.751,-75.3004 298,-72.5 317.518,-67.6413 339.311,-64.5975 358.778,-62.691"/>
<polygon fill="#9a32cd" stroke="#9a32cd" points="262.791,-80.8268 254.974,-87.9785 265.544,-87.2625 262.791,-80.8268"/>
<text text-anchor="middle" x="319.5" y="-75.5" font-family="Helvetica,sans-Serif" font-size="10.00"> elements</text>
</g>
<!-- Node4 -->
<g id="node4" class="node"><title>Node4</title>
<g id="a_node4"><a xlink:href="structelftosb_1_1token__loc__t.html" target="_top" xlink:title="Token location in the source file. ">
<polygon fill="white" stroke="black" points="0,-88 0,-107 101,-107 101,-88 0,-88"/>
<text text-anchor="middle" x="50.5" y="-95" font-family="Helvetica,sans-Serif" font-size="10.00">elftosb::token_loc_t</text>
</a>
</g>
</g>
<!-- Node4&#45;&gt;Node3 -->
<g id="edge3" class="edge"><title>Node4&#45;&gt;Node3</title>
<path fill="none" stroke="#9a32cd" stroke-dasharray="5,2" d="M111.183,-97.5C136.134,-97.5 164.648,-97.5 187.814,-97.5"/>
<polygon fill="#9a32cd" stroke="#9a32cd" points="111.096,-94.0001 101.096,-97.5 111.096,-101 111.096,-94.0001"/>
<text text-anchor="middle" x="144.5" y="-100.5" font-family="Helvetica,sans-Serif" font-size="10.00"> m_location</text>
</g>
<!-- Node5 -->
<g id="node5" class="node"><title>Node5</title>
<g id="a_node5"><a xlink:href="group__smart__pointer.html" target="_top" xlink:title="smart_ptr\&lt; elftosb\l::ListASTNode \&gt;">
<polygon fill="white" stroke="black" points="817,-55.5 817,-85.5 912,-85.5 912,-55.5 817,-55.5"/>
<text text-anchor="start" x="825" y="-73.5" font-family="Helvetica,sans-Serif" font-size="10.00">smart_ptr&lt; elftosb</text>
<text text-anchor="middle" x="864.5" y="-62.5" font-family="Helvetica,sans-Serif" font-size="10.00">::ListASTNode &gt;</text>
</a>
</g>
</g>
<!-- Node5&#45;&gt;Node1 -->
<g id="edge5" class="edge"><title>Node5&#45;&gt;Node1</title>
<path fill="none" stroke="#9a32cd" stroke-dasharray="5,2" d="M922.412,-70.5C953.323,-70.5 992.027,-70.5 1025.84,-70.5"/>
<polygon fill="#9a32cd" stroke="#9a32cd" points="922.247,-67.0001 912.247,-70.5 922.247,-74.0001 922.247,-67.0001"/>
<text text-anchor="middle" x="975" y="-73.5" font-family="Helvetica,sans-Serif" font-size="10.00"> m_statements</text>
</g>
<!-- Node6&#45;&gt;Node5 -->
<g id="edge6" class="edge"><title>Node6&#45;&gt;Node5</title>
<path fill="none" stroke="#9a32cd" stroke-dasharray="5,2" d="M765.755,-70.5C782.765,-70.5 800.83,-70.5 816.74,-70.5"/>
<polygon fill="#9a32cd" stroke="#9a32cd" points="765.329,-67.0001 755.329,-70.5 765.329,-74.0001 765.329,-67.0001"/>
<text text-anchor="middle" x="780" y="-73.5" font-family="Helvetica,sans-Serif" font-size="10.00"> _p</text>
</g>
<!-- Node7&#45;&gt;Node6 -->
<g id="edge8" class="edge"><title>Node7&#45;&gt;Node6</title>
<path fill="none" stroke="#9a32cd" stroke-dasharray="5,2" d="M484.628,-62.1138C534.164,-64.0427 600.67,-66.6323 646.61,-68.4211"/>
<polygon fill="#9a32cd" stroke="#9a32cd" points="484.457,-58.6046 474.328,-61.7128 484.184,-65.5993 484.457,-58.6046"/>
<text text-anchor="middle" x="560.5" y="-71.5" font-family="Helvetica,sans-Serif" font-size="10.00"> m_list</text>
</g>
<!-- Node8 -->
<g id="node8" class="node"><title>Node8</title>
<g id="a_node8"><a xlink:href="group__smart__pointer.html" target="_top" xlink:title="smart_ptr\&lt; std::string \&gt;">
<polygon fill="white" stroke="black" points="805,-16 805,-35 924,-35 924,-16 805,-16"/>
<text text-anchor="middle" x="864.5" y="-23" font-family="Helvetica,sans-Serif" font-size="10.00">smart_ptr&lt; std::string &gt;</text>
</a>
</g>
</g>
<!-- Node8&#45;&gt;Node1 -->
<g id="edge10" class="edge"><title>Node8&#45;&gt;Node1</title>
<path fill="none" stroke="#9a32cd" stroke-dasharray="5,2" d="M926.349,-36.9329C965.917,-44.3674 1016.91,-53.9486 1054.28,-60.9704"/>
<polygon fill="#9a32cd" stroke="#9a32cd" points="926.766,-33.4502 916.292,-35.0433 925.473,-40.3298 926.766,-33.4502"/>
<text text-anchor="middle" x="975" y="-55.5" font-family="Helvetica,sans-Serif" font-size="10.00"> m_source</text>
</g>
<!-- Node9 -->
<g id="node9" class="node"><title>Node9</title>
<g id="a_node9"><a xlink:title="STL class. ">
<polygon fill="white" stroke="#bfbfbf" points="671,-12 671,-31 731,-31 731,-12 671,-12"/>
<text text-anchor="middle" x="701" y="-19" font-family="Helvetica,sans-Serif" font-size="10.00">std::string</text>
</a>
</g>
</g>
<!-- Node9&#45;&gt;Node8 -->
<g id="edge11" class="edge"><title>Node9&#45;&gt;Node8</title>
<path fill="none" stroke="#9a32cd" stroke-dasharray="5,2" d="M741.347,-22.4745C760.38,-22.9459 783.62,-23.5215 804.7,-24.0436"/>
<polygon fill="#9a32cd" stroke="#9a32cd" points="741.33,-18.9731 731.246,-22.2244 741.157,-25.971 741.33,-18.9731"/>
<text text-anchor="middle" x="780" y="-26.5" font-family="Helvetica,sans-Serif" font-size="10.00"> _p</text>
</g>
<!-- Node10 -->
<g id="node10" class="node"><title>Node10</title>
<g id="a_node10"><a xlink:title="STL class. ">
<polygon fill="white" stroke="#bfbfbf" points="369,-0.5 369,-30.5 464,-30.5 464,-0.5 369,-0.5"/>
<text text-anchor="start" x="377" y="-18.5" font-family="Helvetica,sans-Serif" font-size="10.00">std::basic_string&lt;</text>
<text text-anchor="middle" x="416.5" y="-7.5" font-family="Helvetica,sans-Serif" font-size="10.00"> char &gt;</text>
</a>
</g>
</g>
<!-- Node10&#45;&gt;Node9 -->
<g id="edge12" class="edge"><title>Node10&#45;&gt;Node9</title>
<path fill="none" stroke="midnightblue" d="M474.479,-16.7102C533.796,-17.97 624.367,-19.8936 670.608,-20.8758"/>
<polygon fill="midnightblue" stroke="midnightblue" points="474.221,-13.204 464.149,-16.4908 474.073,-20.2024 474.221,-13.204"/>
</g>
</g>
</svg>
