<?xml version="1.0" encoding="UTF-8" standalone="no"?>
<!DOCTYPE svg PUBLIC "-//W3C//DTD SVG 1.1//EN"
 "http://www.w3.org/Graphics/SVG/1.1/DTD/svg11.dtd">
<!-- Generated by graphviz version 2.38.0 (20140413.2041)
 -->
<!-- Title: elftosb::ExcludesListMatcher Pages: 1 -->
<svg width="279pt" height="319pt"
 viewBox="0.00 0.00 278.50 319.00" xmlns="http://www.w3.org/2000/svg" xmlns:xlink="http://www.w3.org/1999/xlink">
<g id="graph0" class="graph" transform="scale(1 1) rotate(0) translate(4 315)">
<title>elftosb::ExcludesListMatcher</title>
<polygon fill="white" stroke="none" points="-4,4 -4,-315 274.5,-315 274.5,4 -4,4"/>
<!-- Node1 -->
<g id="node1" class="node"><title>Node1</title>
<polygon fill="#bfbfbf" stroke="black" points="44.5,-0.5 44.5,-19.5 187.5,-19.5 187.5,-0.5 44.5,-0.5"/>
<text text-anchor="middle" x="116" y="-7.5" font-family="Helvetica,sans-Serif" font-size="10.00">elftosb::ExcludesListMatcher</text>
</g>
<!-- Node2 -->
<g id="node2" class="node"><title>Node2</title>
<g id="a_node2"><a xlink:href="classelftosb_1_1_glob_matcher.html" target="_top" xlink:title="This class uses glob pattern matching to match strings. ">
<polygon fill="white" stroke="black" points="2.5,-151 2.5,-170 109.5,-170 109.5,-151 2.5,-151"/>
<text text-anchor="middle" x="56" y="-158" font-family="Helvetica,sans-Serif" font-size="10.00">elftosb::GlobMatcher</text>
</a>
</g>
</g>
<!-- Node2&#45;&gt;Node1 -->
<g id="edge1" class="edge"><title>Node2&#45;&gt;Node1</title>
<path fill="none" stroke="midnightblue" d="M63.4379,-141.091C76.4871,-108.794 103.021,-43.1226 112.52,-19.6123"/>
<polygon fill="midnightblue" stroke="midnightblue" points="60.0747,-140.072 59.5736,-150.655 66.565,-142.695 60.0747,-140.072"/>
</g>
<!-- Node3 -->
<g id="node3" class="node"><title>Node3</title>
<g id="a_node3"><a xlink:href="classelftosb_1_1_string_matcher.html" target="_top" xlink:title="Abstract interface class used to select strings by name. ">
<polygon fill="white" stroke="black" points="0,-223.5 0,-242.5 112,-242.5 112,-223.5 0,-223.5"/>
<text text-anchor="middle" x="56" y="-230.5" font-family="Helvetica,sans-Serif" font-size="10.00">elftosb::StringMatcher</text>
</a>
</g>
</g>
<!-- Node3&#45;&gt;Node2 -->
<g id="edge2" class="edge"><title>Node3&#45;&gt;Node2</title>
<path fill="none" stroke="midnightblue" d="M56,-212.942C56,-199.03 56,-180.82 56,-170.215"/>
<polygon fill="midnightblue" stroke="midnightblue" points="52.5001,-213.355 56,-223.355 59.5001,-213.355 52.5001,-213.355"/>
</g>
<!-- Node4 -->
<g id="node4" class="node"><title>Node4</title>
<g id="a_node4"><a xlink:title="STL class. ">
<polygon fill="white" stroke="#bfbfbf" points="149,-223.5 149,-242.5 209,-242.5 209,-223.5 149,-223.5"/>
<text text-anchor="middle" x="179" y="-230.5" font-family="Helvetica,sans-Serif" font-size="10.00">std::string</text>
</a>
</g>
</g>
<!-- Node4&#45;&gt;Node2 -->
<g id="edge3" class="edge"><title>Node4&#45;&gt;Node2</title>
<path fill="none" stroke="#9a32cd" stroke-dasharray="5,2" d="M155.119,-218.312C130.299,-204.086 92.2055,-182.252 71.2056,-170.215"/>
<polygon fill="#9a32cd" stroke="#9a32cd" points="153.501,-221.419 163.918,-223.355 156.982,-215.346 153.501,-221.419"/>
<text text-anchor="middle" x="152.5" y="-197" font-family="Helvetica,sans-Serif" font-size="10.00"> m_pattern</text>
</g>
<!-- Node7 -->
<g id="node7" class="node"><title>Node7</title>
<g id="a_node7"><a xlink:href="classelftosb_1_1_excludes_list_matcher.html#structelftosb_1_1_excludes_list_matcher_1_1glob__list__item__t" target="_top" xlink:title="Information about one glob pattern entry in a match list. ">
<polygon fill="white" stroke="black" points="127.5,-145.5 127.5,-175.5 270.5,-175.5 270.5,-145.5 127.5,-145.5"/>
<text text-anchor="start" x="135.5" y="-163.5" font-family="Helvetica,sans-Serif" font-size="10.00">elftosb::ExcludesListMatcher</text>
<text text-anchor="middle" x="199" y="-152.5" font-family="Helvetica,sans-Serif" font-size="10.00">::glob_list_item_t</text>
</a>
</g>
</g>
<!-- Node4&#45;&gt;Node7 -->
<g id="edge7" class="edge"><title>Node4&#45;&gt;Node7</title>
<path fill="none" stroke="#9a32cd" stroke-dasharray="5,2" d="M184.22,-213.601C187.591,-201.718 191.909,-186.494 195.007,-175.576"/>
<polygon fill="#9a32cd" stroke="#9a32cd" points="180.815,-212.78 181.452,-223.355 187.549,-214.69 180.815,-212.78"/>
<text text-anchor="middle" x="206.5" y="-197" font-family="Helvetica,sans-Serif" font-size="10.00"> m_glob</text>
</g>
<!-- Node5 -->
<g id="node5" class="node"><title>Node5</title>
<g id="a_node5"><a xlink:title="STL class. ">
<polygon fill="white" stroke="#bfbfbf" points="131.5,-280.5 131.5,-310.5 226.5,-310.5 226.5,-280.5 131.5,-280.5"/>
<text text-anchor="start" x="139.5" y="-298.5" font-family="Helvetica,sans-Serif" font-size="10.00">std::basic_string&lt;</text>
<text text-anchor="middle" x="179" y="-287.5" font-family="Helvetica,sans-Serif" font-size="10.00"> char &gt;</text>
</a>
</g>
</g>
<!-- Node5&#45;&gt;Node4 -->
<g id="edge4" class="edge"><title>Node5&#45;&gt;Node4</title>
<path fill="none" stroke="midnightblue" d="M179,-270.352C179,-260.513 179,-249.775 179,-242.54"/>
<polygon fill="midnightblue" stroke="midnightblue" points="175.5,-270.468 179,-280.468 182.5,-270.468 175.5,-270.468"/>
</g>
<!-- Node6 -->
<g id="node6" class="node"><title>Node6</title>
<polygon fill="white" stroke="#bfbfbf" points="122.5,-67.5 122.5,-97.5 229.5,-97.5 229.5,-67.5 122.5,-67.5"/>
<text text-anchor="start" x="130.5" y="-85.5" font-family="Helvetica,sans-Serif" font-size="10.00">std::vector&lt; glob_list</text>
<text text-anchor="middle" x="176" y="-74.5" font-family="Helvetica,sans-Serif" font-size="10.00">_item_t &gt;</text>
</g>
<!-- Node6&#45;&gt;Node1 -->
<g id="edge5" class="edge"><title>Node6&#45;&gt;Node1</title>
<path fill="none" stroke="#9a32cd" stroke-dasharray="5,2" d="M157.178,-59.3845C145.818,-46.0362 131.962,-29.7556 123.569,-19.8932"/>
<polygon fill="#9a32cd" stroke="#9a32cd" points="154.711,-61.8863 163.858,-67.2333 160.042,-57.3494 154.711,-61.8863"/>
<text text-anchor="middle" x="174" y="-41" font-family="Helvetica,sans-Serif" font-size="10.00"> m_patterns</text>
</g>
<!-- Node7&#45;&gt;Node6 -->
<g id="edge6" class="edge"><title>Node7&#45;&gt;Node6</title>
<path fill="none" stroke="#9a32cd" stroke-dasharray="5,2" d="M191.726,-135.463C187.969,-123.051 183.514,-108.33 180.307,-97.7309"/>
<polygon fill="#9a32cd" stroke="#9a32cd" points="188.427,-136.648 194.674,-145.205 195.127,-134.62 188.427,-136.648"/>
<text text-anchor="middle" x="209.5" y="-119" font-family="Helvetica,sans-Serif" font-size="10.00"> elements</text>
</g>
</g>
</svg>
