<?xml version="1.0" encoding="UTF-8" standalone="no"?>
<!DOCTYPE svg PUBLIC "-//W3C//DTD SVG 1.1//EN"
 "http://www.w3.org/Graphics/SVG/1.1/DTD/svg11.dtd">
<!-- Generated by graphviz version 2.38.0 (20140413.2041)
 -->
<!-- Title: blfwk::Updater Pages: 1 -->
<svg width="1459pt" height="391pt"
 viewBox="0.00 0.00 1459.00 390.50" xmlns="http://www.w3.org/2000/svg" xmlns:xlink="http://www.w3.org/1999/xlink">
<g id="graph0" class="graph" transform="scale(1 1) rotate(0) translate(4 386.5)">
<title>blfwk::Updater</title>
<polygon fill="white" stroke="none" points="-4,4 -4,-386.5 1455,-386.5 1455,4 -4,4"/>
<!-- Node1 -->
<g id="node1" class="node"><title>Node1</title>
<polygon fill="#bfbfbf" stroke="black" points="1373,-187.5 1373,-206.5 1451,-206.5 1451,-187.5 1373,-187.5"/>
<text text-anchor="middle" x="1412" y="-194.5" font-family="Helvetica,sans-Serif" font-size="10.00">blfwk::Updater</text>
</g>
<!-- Node2 -->
<g id="node2" class="node"><title>Node2</title>
<g id="a_node2"><a xlink:href="classblfwk_1_1_bootloader.html" target="_top" xlink:title="Represents the host bootloader. ">
<polygon fill="white" stroke="black" points="1137.5,-209.5 1137.5,-228.5 1228.5,-228.5 1228.5,-209.5 1137.5,-209.5"/>
<text text-anchor="middle" x="1183" y="-216.5" font-family="Helvetica,sans-Serif" font-size="10.00">blfwk::Bootloader</text>
</a>
</g>
</g>
<!-- Node2&#45;&gt;Node1 -->
<g id="edge1" class="edge"><title>Node2&#45;&gt;Node1</title>
<path fill="none" stroke="midnightblue" d="M1238.53,-213.715C1280.05,-209.691 1336.15,-204.254 1372.93,-200.689"/>
<polygon fill="midnightblue" stroke="midnightblue" points="1238.19,-210.231 1228.58,-214.68 1238.87,-217.199 1238.19,-210.231"/>
</g>
<!-- Node3 -->
<g id="node3" class="node"><title>Node3</title>
<g id="a_node3"><a xlink:href="classblfwk_1_1_packetizer.html" target="_top" xlink:title="Interface class for packetization of commands and data. ">
<polygon fill="white" stroke="black" points="889.5,-237.5 889.5,-256.5 980.5,-256.5 980.5,-237.5 889.5,-237.5"/>
<text text-anchor="middle" x="935" y="-244.5" font-family="Helvetica,sans-Serif" font-size="10.00">blfwk::Packetizer</text>
</a>
</g>
</g>
<!-- Node3&#45;&gt;Node2 -->
<g id="edge2" class="edge"><title>Node3&#45;&gt;Node2</title>
<path fill="none" stroke="#9a32cd" stroke-dasharray="5,2" d="M990.534,-240.793C1034.69,-235.768 1096.11,-228.776 1137.37,-224.08"/>
<polygon fill="#9a32cd" stroke="#9a32cd" points="990.089,-237.321 980.549,-241.929 990.88,-244.276 990.089,-237.321"/>
<text text-anchor="middle" x="1059" y="-241" font-family="Helvetica,sans-Serif" font-size="10.00"> m_hostPacketizer</text>
</g>
<!-- Node4 -->
<g id="node4" class="node"><title>Node4</title>
<g id="a_node4"><a xlink:href="classblfwk_1_1_peripheral.html" target="_top" xlink:title="Represents a peripheral. ">
<polygon fill="white" stroke="black" points="665.5,-237.5 665.5,-256.5 753.5,-256.5 753.5,-237.5 665.5,-237.5"/>
<text text-anchor="middle" x="709.5" y="-244.5" font-family="Helvetica,sans-Serif" font-size="10.00">blfwk::Peripheral</text>
</a>
</g>
</g>
<!-- Node4&#45;&gt;Node3 -->
<g id="edge3" class="edge"><title>Node4&#45;&gt;Node3</title>
<path fill="none" stroke="#9a32cd" stroke-dasharray="5,2" d="M764.013,-247C802.22,-247 853.033,-247 889.124,-247"/>
<polygon fill="#9a32cd" stroke="#9a32cd" points="763.593,-243.5 753.593,-247 763.593,-250.5 763.593,-243.5"/>
<text text-anchor="middle" x="817" y="-250" font-family="Helvetica,sans-Serif" font-size="10.00"> m_peripheral</text>
</g>
<!-- Node5 -->
<g id="node5" class="node"><title>Node5</title>
<g id="a_node5"><a xlink:href="group__qspi__driver.html#unionstandard__version__t" target="_top" xlink:title="standard_version_t">
<polygon fill="white" stroke="black" points="660.5,-275.5 660.5,-294.5 758.5,-294.5 758.5,-275.5 660.5,-275.5"/>
<text text-anchor="middle" x="709.5" y="-282.5" font-family="Helvetica,sans-Serif" font-size="10.00">standard_version_t</text>
</a>
</g>
</g>
<!-- Node5&#45;&gt;Node3 -->
<g id="edge4" class="edge"><title>Node5&#45;&gt;Node3</title>
<path fill="none" stroke="#9a32cd" stroke-dasharray="5,2" d="M768.596,-275.823C794.191,-271.711 824.611,-266.731 852,-262 864.122,-259.906 877.234,-257.549 889.343,-255.335"/>
<polygon fill="#9a32cd" stroke="#9a32cd" points="767.997,-272.374 758.677,-277.411 769.104,-279.286 767.997,-272.374"/>
<text text-anchor="middle" x="817" y="-277" font-family="Helvetica,sans-Serif" font-size="10.00"> m_version</text>
</g>
<!-- Node6 -->
<g id="node6" class="node"><title>Node6</title>
<g id="a_node6"><a xlink:href="group__logging.html#class_file_logger" target="_top" xlink:title="Simple logger that writes to a file. ">
<polygon fill="white" stroke="black" points="904,-189.5 904,-208.5 966,-208.5 966,-189.5 904,-189.5"/>
<text text-anchor="middle" x="935" y="-196.5" font-family="Helvetica,sans-Serif" font-size="10.00">FileLogger</text>
</a>
</g>
</g>
<!-- Node6&#45;&gt;Node2 -->
<g id="edge5" class="edge"><title>Node6&#45;&gt;Node2</title>
<path fill="none" stroke="#9a32cd" stroke-dasharray="5,2" d="M976.454,-202.138C1009.65,-204.73 1057.88,-208.532 1100,-212 1112.1,-212.996 1125.21,-214.103 1137.32,-215.136"/>
<polygon fill="#9a32cd" stroke="#9a32cd" points="976.473,-198.629 966.231,-201.341 975.929,-205.608 976.473,-198.629"/>
<text text-anchor="middle" x="1059" y="-215" font-family="Helvetica,sans-Serif" font-size="10.00"> m_logger</text>
</g>
<!-- Node7 -->
<g id="node7" class="node"><title>Node7</title>
<g id="a_node7"><a xlink:href="group__logging.html#class_logger" target="_top" xlink:title="Base logger class. ">
<polygon fill="white" stroke="black" points="686.5,-161.5 686.5,-180.5 732.5,-180.5 732.5,-161.5 686.5,-161.5"/>
<text text-anchor="middle" x="709.5" y="-168.5" font-family="Helvetica,sans-Serif" font-size="10.00">Logger</text>
</a>
</g>
</g>
<!-- Node7&#45;&gt;Node6 -->
<g id="edge6" class="edge"><title>Node7&#45;&gt;Node6</title>
<path fill="none" stroke="midnightblue" d="M742.699,-175.034C785.786,-180.432 861.638,-189.935 903.723,-195.207"/>
<polygon fill="midnightblue" stroke="midnightblue" points="743.105,-171.557 732.747,-173.787 742.234,-178.503 743.105,-171.557"/>
</g>
<!-- Node8 -->
<g id="node8" class="node"><title>Node8</title>
<g id="a_node8"><a xlink:title="STL class. ">
<polygon fill="white" stroke="#bfbfbf" points="285,-199.5 285,-218.5 345,-218.5 345,-199.5 285,-199.5"/>
<text text-anchor="middle" x="315" y="-206.5" font-family="Helvetica,sans-Serif" font-size="10.00">std::string</text>
</a>
</g>
</g>
<!-- Node8&#45;&gt;Node6 -->
<g id="edge7" class="edge"><title>Node8&#45;&gt;Node6</title>
<path fill="none" stroke="#9a32cd" stroke-dasharray="5,2" d="M355.486,-208.361C470.175,-206.505 801.612,-201.142 903.703,-199.49"/>
<polygon fill="#9a32cd" stroke="#9a32cd" points="355.334,-204.863 345.392,-208.524 355.447,-211.862 355.334,-204.863"/>
<text text-anchor="middle" x="610.5" y="-208" font-family="Helvetica,sans-Serif" font-size="10.00"> m_file_path</text>
</g>
<!-- Node15 -->
<g id="node15" class="node"><title>Node15</title>
<g id="a_node15"><a xlink:href="classblfwk_1_1_source_file.html" target="_top" xlink:title="Abstract base class for a source file containing executable code. ">
<polygon fill="white" stroke="black" points="1137.5,-107.5 1137.5,-126.5 1228.5,-126.5 1228.5,-107.5 1137.5,-107.5"/>
<text text-anchor="middle" x="1183" y="-114.5" font-family="Helvetica,sans-Serif" font-size="10.00">blfwk::SourceFile</text>
</a>
</g>
</g>
<!-- Node8&#45;&gt;Node15 -->
<g id="edge15" class="edge"><title>Node8&#45;&gt;Node15</title>
<path fill="none" stroke="#9a32cd" stroke-dasharray="5,2" d="M338.084,-193.668C372.653,-171.208 442.394,-132 508,-132 508,-132 508,-132 936,-132 1006.39,-132 1087.89,-125.806 1137.16,-121.379"/>
<polygon fill="#9a32cd" stroke="#9a32cd" points="336.079,-190.798 329.688,-199.248 339.953,-196.628 336.079,-190.798"/>
<text text-anchor="middle" x="709.5" y="-135" font-family="Helvetica,sans-Serif" font-size="10.00"> m_path</text>
</g>
<!-- Node26 -->
<g id="node26" class="node"><title>Node26</title>
<g id="a_node26"><a xlink:href="structblfwk_1_1updater__enum__t.html" target="_top" xlink:title="blfwk::updater_enum_t">
<polygon fill="white" stroke="black" points="452,-313.5 452,-332.5 566,-332.5 566,-313.5 452,-313.5"/>
<text text-anchor="middle" x="509" y="-320.5" font-family="Helvetica,sans-Serif" font-size="10.00">blfwk::updater_enum_t</text>
</a>
</g>
</g>
<!-- Node8&#45;&gt;Node26 -->
<g id="edge28" class="edge"><title>Node8&#45;&gt;Node26</title>
<path fill="none" stroke="#9a32cd" stroke-dasharray="5,2" d="M340.64,-223.63C380.554,-247.329 458.263,-293.469 491.871,-313.423"/>
<polygon fill="#9a32cd" stroke="#9a32cd" points="342.425,-220.619 332.04,-218.523 338.851,-226.638 342.425,-220.619"/>
<text text-anchor="middle" x="408.5" y="-280" font-family="Helvetica,sans-Serif" font-size="10.00"> description</text>
</g>
<!-- Node9 -->
<g id="node9" class="node"><title>Node9</title>
<g id="a_node9"><a xlink:title="STL class. ">
<polygon fill="white" stroke="#bfbfbf" points="122.5,-194 122.5,-224 217.5,-224 217.5,-194 122.5,-194"/>
<text text-anchor="start" x="130.5" y="-212" font-family="Helvetica,sans-Serif" font-size="10.00">std::basic_string&lt;</text>
<text text-anchor="middle" x="170" y="-201" font-family="Helvetica,sans-Serif" font-size="10.00"> char &gt;</text>
</a>
</g>
</g>
<!-- Node9&#45;&gt;Node8 -->
<g id="edge8" class="edge"><title>Node9&#45;&gt;Node8</title>
<path fill="none" stroke="midnightblue" d="M228.087,-209C247.453,-209 268.289,-209 284.592,-209"/>
<polygon fill="midnightblue" stroke="midnightblue" points="227.824,-205.5 217.824,-209 227.824,-212.5 227.824,-205.5"/>
</g>
<!-- Node10 -->
<g id="node10" class="node"><title>Node10</title>
<g id="a_node10"><a xlink:title="STL class. ">
<polygon fill="white" stroke="#bfbfbf" points="672.5,-76.5 672.5,-95.5 746.5,-95.5 746.5,-76.5 672.5,-76.5"/>
<text text-anchor="middle" x="709.5" y="-83.5" font-family="Helvetica,sans-Serif" font-size="10.00">std::ofstream</text>
</a>
</g>
</g>
<!-- Node10&#45;&gt;Node6 -->
<g id="edge9" class="edge"><title>Node10&#45;&gt;Node6</title>
<path fill="none" stroke="#9a32cd" stroke-dasharray="5,2" d="M742.049,-99.771C749.299,-103.041 756.949,-106.576 764,-110 820.341,-137.354 885.613,-172.53 916.314,-189.287"/>
<polygon fill="#9a32cd" stroke="#9a32cd" points="743.062,-96.3905 732.504,-95.5114 740.209,-102.783 743.062,-96.3905"/>
<text text-anchor="middle" x="817" y="-156" font-family="Helvetica,sans-Serif" font-size="10.00"> m_logFile</text>
</g>
<!-- Node11 -->
<g id="node11" class="node"><title>Node11</title>
<g id="a_node11"><a xlink:title="STL class. ">
<polygon fill="white" stroke="#bfbfbf" points="458,-73 458,-103 560,-103 560,-73 458,-73"/>
<text text-anchor="start" x="466" y="-91" font-family="Helvetica,sans-Serif" font-size="10.00">std::basic_ofstream</text>
<text text-anchor="middle" x="509" y="-80" font-family="Helvetica,sans-Serif" font-size="10.00">&lt; char &gt;</text>
</a>
</g>
</g>
<!-- Node11&#45;&gt;Node10 -->
<g id="edge10" class="edge"><title>Node11&#45;&gt;Node10</title>
<path fill="none" stroke="midnightblue" d="M570.175,-87.3937C603.461,-87.0583 643.725,-86.6526 672.208,-86.3657"/>
<polygon fill="midnightblue" stroke="midnightblue" points="570.054,-83.8946 560.09,-87.4953 570.125,-90.8943 570.054,-83.8946"/>
</g>
<!-- Node12 -->
<g id="node12" class="node"><title>Node12</title>
<g id="a_node12"><a xlink:title="STL class. ">
<polygon fill="white" stroke="#bfbfbf" points="265,-73 265,-103 365,-103 365,-73 265,-73"/>
<text text-anchor="start" x="273" y="-91" font-family="Helvetica,sans-Serif" font-size="10.00">std::basic_ostream</text>
<text text-anchor="middle" x="315" y="-80" font-family="Helvetica,sans-Serif" font-size="10.00">&lt; Char &gt;</text>
</a>
</g>
</g>
<!-- Node12&#45;&gt;Node11 -->
<g id="edge11" class="edge"><title>Node12&#45;&gt;Node11</title>
<path fill="none" stroke="midnightblue" d="M375.677,-88C401.995,-88 432.586,-88 457.721,-88"/>
<polygon fill="midnightblue" stroke="midnightblue" points="375.445,-84.5001 365.445,-88 375.445,-91.5001 375.445,-84.5001"/>
</g>
<!-- Node13 -->
<g id="node13" class="node"><title>Node13</title>
<g id="a_node13"><a xlink:title="STL class. ">
<polygon fill="white" stroke="#bfbfbf" points="112,-54.5 112,-73.5 228,-73.5 228,-54.5 112,-54.5"/>
<text text-anchor="middle" x="170" y="-61.5" font-family="Helvetica,sans-Serif" font-size="10.00">std::basic_ios&lt; Char &gt;</text>
</a>
</g>
</g>
<!-- Node13&#45;&gt;Node12 -->
<g id="edge12" class="edge"><title>Node13&#45;&gt;Node12</title>
<path fill="none" stroke="midnightblue" d="M237.997,-75.2442C246.977,-76.7513 256.052,-78.2745 264.653,-79.718"/>
<polygon fill="midnightblue" stroke="midnightblue" points="238.37,-71.7579 227.928,-73.5544 237.211,-78.6614 238.37,-71.7579"/>
</g>
<!-- Node19 -->
<g id="node19" class="node"><title>Node19</title>
<g id="a_node19"><a xlink:title="STL class. ">
<polygon fill="white" stroke="#bfbfbf" points="266.5,-24 266.5,-54 363.5,-54 363.5,-24 266.5,-24"/>
<text text-anchor="start" x="274.5" y="-42" font-family="Helvetica,sans-Serif" font-size="10.00">std::basic_istream</text>
<text text-anchor="middle" x="315" y="-31" font-family="Helvetica,sans-Serif" font-size="10.00">&lt; Char &gt;</text>
</a>
</g>
</g>
<!-- Node13&#45;&gt;Node19 -->
<g id="edge20" class="edge"><title>Node13&#45;&gt;Node19</title>
<path fill="none" stroke="midnightblue" d="M235.34,-52.7518C245.729,-50.9355 256.322,-49.0836 266.229,-47.3515"/>
<polygon fill="midnightblue" stroke="midnightblue" points="234.718,-49.3073 225.47,-54.4773 235.923,-56.2027 234.718,-49.3073"/>
</g>
<!-- Node14 -->
<g id="node14" class="node"><title>Node14</title>
<g id="a_node14"><a xlink:title="STL class. ">
<polygon fill="white" stroke="#bfbfbf" points="0,-54.5 0,-73.5 75,-73.5 75,-54.5 0,-54.5"/>
<text text-anchor="middle" x="37.5" y="-61.5" font-family="Helvetica,sans-Serif" font-size="10.00">std::ios_base</text>
</a>
</g>
</g>
<!-- Node14&#45;&gt;Node13 -->
<g id="edge13" class="edge"><title>Node14&#45;&gt;Node13</title>
<path fill="none" stroke="midnightblue" d="M85.3188,-64C93.8367,-64 102.811,-64 111.593,-64"/>
<polygon fill="midnightblue" stroke="midnightblue" points="85.1988,-60.5001 75.1988,-64 85.1988,-67.5001 85.1988,-60.5001"/>
</g>
<!-- Node15&#45;&gt;Node1 -->
<g id="edge14" class="edge"><title>Node15&#45;&gt;Node1</title>
<path fill="none" stroke="#9a32cd" stroke-dasharray="5,2" d="M1233.3,-129.066C1267.92,-138.174 1315,-151.845 1355,-168 1368.6,-173.494 1383.31,-181.182 1394.24,-187.262"/>
<polygon fill="#9a32cd" stroke="#9a32cd" points="1233.98,-125.629 1223.43,-126.504 1232.23,-132.404 1233.98,-125.629"/>
<text text-anchor="middle" x="1310.5" y="-171" font-family="Helvetica,sans-Serif" font-size="10.00"> m_sourceFile</text>
</g>
<!-- Node16 -->
<g id="node16" class="node"><title>Node16</title>
<g id="a_node16"><a xlink:href="group__smart__pointer.html" target="_top" xlink:title="smart_ptr\&lt; std::ifstream \&gt;">
<polygon fill="white" stroke="black" points="870,-74.5 870,-93.5 1000,-93.5 1000,-74.5 870,-74.5"/>
<text text-anchor="middle" x="935" y="-81.5" font-family="Helvetica,sans-Serif" font-size="10.00">smart_ptr&lt; std::ifstream &gt;</text>
</a>
</g>
</g>
<!-- Node16&#45;&gt;Node15 -->
<g id="edge16" class="edge"><title>Node16&#45;&gt;Node15</title>
<path fill="none" stroke="#9a32cd" stroke-dasharray="5,2" d="M1010.37,-93.9771C1051.83,-99.5386 1102.08,-106.278 1137.46,-111.024"/>
<polygon fill="#9a32cd" stroke="#9a32cd" points="1010.69,-90.488 1000.31,-92.6273 1009.76,-97.4258 1010.69,-90.488"/>
<text text-anchor="middle" x="1059" y="-109" font-family="Helvetica,sans-Serif" font-size="10.00"> m_stream</text>
</g>
<!-- Node17 -->
<g id="node17" class="node"><title>Node17</title>
<g id="a_node17"><a xlink:title="STL class. ">
<polygon fill="white" stroke="#bfbfbf" points="674,-38.5 674,-57.5 745,-57.5 745,-38.5 674,-38.5"/>
<text text-anchor="middle" x="709.5" y="-45.5" font-family="Helvetica,sans-Serif" font-size="10.00">std::ifstream</text>
</a>
</g>
</g>
<!-- Node17&#45;&gt;Node16 -->
<g id="edge17" class="edge"><title>Node17&#45;&gt;Node16</title>
<path fill="none" stroke="#9a32cd" stroke-dasharray="5,2" d="M755.438,-53.2078C783.314,-56.6428 819.826,-61.512 852,-67 864.612,-69.1513 878.243,-71.8324 890.701,-74.4248"/>
<polygon fill="#9a32cd" stroke="#9a32cd" points="755.554,-49.6962 745.204,-51.9632 754.709,-56.645 755.554,-49.6962"/>
<text text-anchor="middle" x="817" y="-70" font-family="Helvetica,sans-Serif" font-size="10.00"> _p</text>
</g>
<!-- Node18 -->
<g id="node18" class="node"><title>Node18</title>
<g id="a_node18"><a xlink:title="STL class. ">
<polygon fill="white" stroke="#bfbfbf" points="459.5,-24 459.5,-54 558.5,-54 558.5,-24 459.5,-24"/>
<text text-anchor="start" x="467.5" y="-42" font-family="Helvetica,sans-Serif" font-size="10.00">std::basic_ifstream</text>
<text text-anchor="middle" x="509" y="-31" font-family="Helvetica,sans-Serif" font-size="10.00">&lt; char &gt;</text>
</a>
</g>
</g>
<!-- Node18&#45;&gt;Node17 -->
<g id="edge18" class="edge"><title>Node18&#45;&gt;Node17</title>
<path fill="none" stroke="midnightblue" d="M568.89,-41.6701C603.051,-43.2189 644.9,-45.1164 673.822,-46.4277"/>
<polygon fill="midnightblue" stroke="midnightblue" points="568.707,-38.1583 558.559,-41.2016 568.39,-45.1511 568.707,-38.1583"/>
</g>
<!-- Node19&#45;&gt;Node18 -->
<g id="edge19" class="edge"><title>Node19&#45;&gt;Node18</title>
<path fill="none" stroke="midnightblue" d="M374.127,-39C401.346,-39 433.404,-39 459.323,-39"/>
<polygon fill="midnightblue" stroke="midnightblue" points="373.954,-35.5001 363.954,-39 373.954,-42.5001 373.954,-35.5001"/>
</g>
<!-- Node20 -->
<g id="node20" class="node"><title>Node20</title>
<g id="a_node20"><a xlink:href="group__smart__pointer.html" target="_top" xlink:title="smart_ptr\&lt; blfwk::Option\lContext \&gt;">
<polygon fill="white" stroke="black" points="873.5,-5 873.5,-35 996.5,-35 996.5,-5 873.5,-5"/>
<text text-anchor="start" x="881.5" y="-23" font-family="Helvetica,sans-Serif" font-size="10.00">smart_ptr&lt; blfwk::Option</text>
<text text-anchor="middle" x="935" y="-12" font-family="Helvetica,sans-Serif" font-size="10.00">Context &gt;</text>
</a>
</g>
</g>
<!-- Node20&#45;&gt;Node15 -->
<g id="edge21" class="edge"><title>Node20&#45;&gt;Node15</title>
<path fill="none" stroke="#9a32cd" stroke-dasharray="5,2" d="M988.102,-38.5113C1020.48,-50.2305 1062.87,-65.9605 1100,-81 1121.04,-89.5228 1144.75,-100.033 1161.24,-107.493"/>
<polygon fill="#9a32cd" stroke="#9a32cd" points="988.985,-35.1091 978.391,-35.0083 986.61,-41.6939 988.985,-35.1091"/>
<text text-anchor="middle" x="1059" y="-84" font-family="Helvetica,sans-Serif" font-size="10.00"> m_options</text>
</g>
<!-- Node21 -->
<g id="node21" class="node"><title>Node21</title>
<g id="a_node21"><a xlink:href="classblfwk_1_1_option_context.html" target="_top" xlink:title="Pure abstract interface class to a table of options. ">
<polygon fill="white" stroke="black" points="656,-0.5 656,-19.5 763,-19.5 763,-0.5 656,-0.5"/>
<text text-anchor="middle" x="709.5" y="-7.5" font-family="Helvetica,sans-Serif" font-size="10.00">blfwk::OptionContext</text>
</a>
</g>
</g>
<!-- Node21&#45;&gt;Node20 -->
<g id="edge22" class="edge"><title>Node21&#45;&gt;Node20</title>
<path fill="none" stroke="#9a32cd" stroke-dasharray="5,2" d="M773.53,-12.8201C804.811,-14.2197 842.424,-15.9026 873.37,-17.2873"/>
<polygon fill="#9a32cd" stroke="#9a32cd" points="773.33,-9.30777 763.183,-12.3572 773.017,-16.3008 773.33,-9.30777"/>
<text text-anchor="middle" x="817" y="-20" font-family="Helvetica,sans-Serif" font-size="10.00"> _p</text>
</g>
<!-- Node22 -->
<g id="node22" class="node"><title>Node22</title>
<g id="a_node22"><a xlink:href="classblfwk_1_1_progress.html" target="_top" xlink:title="Contains the callback function for progress and abort phase. ">
<polygon fill="white" stroke="black" points="1141.5,-171.5 1141.5,-190.5 1224.5,-190.5 1224.5,-171.5 1141.5,-171.5"/>
<text text-anchor="middle" x="1183" y="-178.5" font-family="Helvetica,sans-Serif" font-size="10.00">blfwk::Progress</text>
</a>
</g>
</g>
<!-- Node22&#45;&gt;Node1 -->
<g id="edge23" class="edge"><title>Node22&#45;&gt;Node1</title>
<path fill="none" stroke="#9a32cd" stroke-dasharray="5,2" d="M1234.7,-181.503C1268.78,-182.228 1314.68,-183.949 1355,-188 1360.78,-188.581 1366.87,-189.372 1372.82,-190.246"/>
<polygon fill="#9a32cd" stroke="#9a32cd" points="1234.58,-178.001 1224.52,-181.309 1234.45,-184.999 1234.58,-178.001"/>
<text text-anchor="middle" x="1310.5" y="-191" font-family="Helvetica,sans-Serif" font-size="10.00"> m_progress</text>
</g>
<!-- Node23 -->
<g id="node23" class="node"><title>Node23</title>
<g id="a_node23"><a xlink:href="structblfwk_1_1updater__operation__t.html" target="_top" xlink:title="blfwk::updater_operation_t">
<polygon fill="white" stroke="black" points="1118,-313.5 1118,-332.5 1248,-332.5 1248,-313.5 1118,-313.5"/>
<text text-anchor="middle" x="1183" y="-320.5" font-family="Helvetica,sans-Serif" font-size="10.00">blfwk::updater_operation_t</text>
</a>
</g>
</g>
<!-- Node23&#45;&gt;Node1 -->
<g id="edge24" class="edge"><title>Node23&#45;&gt;Node1</title>
<path fill="none" stroke="#9a32cd" stroke-dasharray="5,2" d="M1210.41,-308.342C1257.43,-282.24 1354.43,-228.399 1393.82,-206.538"/>
<polygon fill="#9a32cd" stroke="#9a32cd" points="1208.48,-305.409 1201.44,-313.322 1211.88,-311.529 1208.48,-305.409"/>
<text text-anchor="middle" x="1310.5" y="-289" font-family="Helvetica,sans-Serif" font-size="10.00"> m_operation</text>
<text text-anchor="middle" x="1310.5" y="-278" font-family="Helvetica,sans-Serif" font-size="10.00">m_progressCallback</text>
</g>
<!-- Node24 -->
<g id="node24" class="node"><title>Node24</title>
<polygon fill="white" stroke="#bfbfbf" points="883.5,-352 883.5,-382 986.5,-382 986.5,-352 883.5,-352"/>
<text text-anchor="start" x="891.5" y="-370" font-family="Helvetica,sans-Serif" font-size="10.00">std::vector&lt; updater</text>
<text text-anchor="middle" x="935" y="-359" font-family="Helvetica,sans-Serif" font-size="10.00">_task_t &gt;</text>
</g>
<!-- Node24&#45;&gt;Node23 -->
<g id="edge25" class="edge"><title>Node24&#45;&gt;Node23</title>
<path fill="none" stroke="#9a32cd" stroke-dasharray="5,2" d="M996.694,-356.144C1037.21,-348.898 1089.98,-339.459 1128.84,-332.508"/>
<polygon fill="#9a32cd" stroke="#9a32cd" points="995.901,-352.73 986.673,-357.937 997.133,-359.621 995.901,-352.73"/>
<text text-anchor="middle" x="1059" y="-355" font-family="Helvetica,sans-Serif" font-size="10.00"> tasks</text>
</g>
<!-- Node25 -->
<g id="node25" class="node"><title>Node25</title>
<g id="a_node25"><a xlink:href="structblfwk_1_1updater__task__t.html" target="_top" xlink:title="blfwk::updater_task_t">
<polygon fill="white" stroke="black" points="655,-352.5 655,-371.5 764,-371.5 764,-352.5 655,-352.5"/>
<text text-anchor="middle" x="709.5" y="-359.5" font-family="Helvetica,sans-Serif" font-size="10.00">blfwk::updater_task_t</text>
</a>
</g>
</g>
<!-- Node25&#45;&gt;Node24 -->
<g id="edge26" class="edge"><title>Node25&#45;&gt;Node24</title>
<path fill="none" stroke="#9a32cd" stroke-dasharray="5,2" d="M774.036,-363.421C808.622,-364.195 850.831,-365.139 883.206,-365.864"/>
<polygon fill="#9a32cd" stroke="#9a32cd" points="774.11,-359.922 764.034,-363.198 773.953,-366.921 774.11,-359.922"/>
<text text-anchor="middle" x="817" y="-369" font-family="Helvetica,sans-Serif" font-size="10.00"> elements</text>
</g>
<!-- Node26&#45;&gt;Node23 -->
<g id="edge29" class="edge"><title>Node26&#45;&gt;Node23</title>
<path fill="none" stroke="#9a32cd" stroke-dasharray="5,2" d="M576.298,-323C705.63,-323 990.074,-323 1117.75,-323"/>
<polygon fill="#9a32cd" stroke="#9a32cd" points="576.139,-319.5 566.139,-323 576.138,-326.5 576.139,-319.5"/>
<text text-anchor="middle" x="817" y="-326" font-family="Helvetica,sans-Serif" font-size="10.00"> operation_desc</text>
</g>
<!-- Node26&#45;&gt;Node25 -->
<g id="edge27" class="edge"><title>Node26&#45;&gt;Node25</title>
<path fill="none" stroke="#9a32cd" stroke-dasharray="5,2" d="M568.605,-334.514C597.733,-340.237 632.508,-347.07 660.099,-352.491"/>
<polygon fill="#9a32cd" stroke="#9a32cd" points="569.046,-331.034 558.559,-332.54 567.696,-337.903 569.046,-331.034"/>
<text text-anchor="middle" x="610.5" y="-351" font-family="Helvetica,sans-Serif" font-size="10.00"> task_desc</text>
</g>
</g>
</svg>
