<?xml version="1.0" encoding="UTF-8" standalone="no"?>
<!DOCTYPE svg PUBLIC "-//W3C//DTD SVG 1.1//EN"
 "http://www.w3.org/Graphics/SVG/1.1/DTD/svg11.dtd">
<!-- Generated by graphviz version 2.38.0 (20140413.2041)
 -->
<!-- Title: OptIterRwd Pages: 1 -->
<svg width="166pt" height="140pt"
 viewBox="0.00 0.00 165.50 140.00" xmlns="http://www.w3.org/2000/svg" xmlns:xlink="http://www.w3.org/1999/xlink">
<g id="graph0" class="graph" transform="scale(1 1) rotate(0) translate(4 136)">
<title>OptIterRwd</title>
<polygon fill="white" stroke="none" points="-4,4 -4,-136 161.5,-136 161.5,4 -4,4"/>
<!-- Node1 -->
<g id="node1" class="node"><title>Node1</title>
<polygon fill="#bfbfbf" stroke="black" points="44,-56.5 44,-75.5 109,-75.5 109,-56.5 44,-56.5"/>
<text text-anchor="middle" x="76.5" y="-63.5" font-family="Helvetica,sans-Serif" font-size="10.00">OptIterRwd</text>
</g>
<!-- Node3 -->
<g id="node3" class="node"><title>Node3</title>
<g id="a_node3"><a xlink:href="class_opt_argv_iter.html" target="_top" xlink:title="OptArgvIter">
<polygon fill="white" stroke="black" points="0,-0.5 0,-19.5 65,-19.5 65,-0.5 0,-0.5"/>
<text text-anchor="middle" x="32.5" y="-7.5" font-family="Helvetica,sans-Serif" font-size="10.00">OptArgvIter</text>
</a>
</g>
</g>
<!-- Node1&#45;&gt;Node3 -->
<g id="edge3" class="edge"><title>Node1&#45;&gt;Node3</title>
<path fill="none" stroke="midnightblue" d="M56.9796,-48.7175C48.2953,-39.1997 39.1858,-27.5608 34.4995,-19.7511"/>
<polygon fill="midnightblue" stroke="midnightblue" points="54.6118,-51.3047 64.068,-56.083 59.6556,-46.4507 54.6118,-51.3047"/>
</g>
<!-- Node1&#45;&gt;Node3 -->
<g id="edge4" class="edge"><title>Node1&#45;&gt;Node3</title>
<path fill="none" stroke="midnightblue" d="M68.6527,-47.5656C61.8741,-38.2747 52.4806,-27.2484 44.7615,-19.7511"/>
<polygon fill="midnightblue" stroke="midnightblue" points="65.9055,-49.7518 74.4006,-56.083 71.7079,-45.836 65.9055,-49.7518"/>
</g>
<!-- Node4 -->
<g id="node4" class="node"><title>Node4</title>
<g id="a_node4"><a xlink:href="class_opt_str_tok_iter.html" target="_top" xlink:title="OptStrTokIter">
<polygon fill="white" stroke="black" points="83.5,-0.5 83.5,-19.5 157.5,-19.5 157.5,-0.5 83.5,-0.5"/>
<text text-anchor="middle" x="120.5" y="-7.5" font-family="Helvetica,sans-Serif" font-size="10.00">OptStrTokIter</text>
</a>
</g>
</g>
<!-- Node1&#45;&gt;Node4 -->
<g id="edge5" class="edge"><title>Node1&#45;&gt;Node4</title>
<path fill="none" stroke="midnightblue" d="M84.3473,-47.5656C91.1259,-38.2747 100.519,-27.2484 108.238,-19.7511"/>
<polygon fill="midnightblue" stroke="midnightblue" points="81.2921,-45.836 78.5994,-56.083 87.0945,-49.7518 81.2921,-45.836"/>
</g>
<!-- Node1&#45;&gt;Node4 -->
<g id="edge6" class="edge"><title>Node1&#45;&gt;Node4</title>
<path fill="none" stroke="midnightblue" d="M96.0204,-48.7175C104.705,-39.1997 113.814,-27.5608 118.5,-19.7511"/>
<polygon fill="midnightblue" stroke="midnightblue" points="93.3444,-46.4507 88.932,-56.083 98.3882,-51.3047 93.3444,-46.4507"/>
</g>
<!-- Node2 -->
<g id="node2" class="node"><title>Node2</title>
<g id="a_node2"><a xlink:href="class_opt_iter.html" target="_top" xlink:title="OptIter">
<polygon fill="white" stroke="black" points="53.5,-112.5 53.5,-131.5 99.5,-131.5 99.5,-112.5 53.5,-112.5"/>
<text text-anchor="middle" x="76.5" y="-119.5" font-family="Helvetica,sans-Serif" font-size="10.00">OptIter</text>
</a>
</g>
</g>
<!-- Node2&#45;&gt;Node1 -->
<g id="edge1" class="edge"><title>Node2&#45;&gt;Node1</title>
<path fill="none" stroke="midnightblue" d="M70.0276,-102.101C69.3956,-93.1357 69.8427,-82.8579 71.369,-75.7511"/>
<polygon fill="midnightblue" stroke="midnightblue" points="66.5658,-102.622 71.3337,-112.083 73.5067,-101.713 66.5658,-102.622"/>
</g>
<!-- Node2&#45;&gt;Node1 -->
<g id="edge2" class="edge"><title>Node2&#45;&gt;Node1</title>
<path fill="none" stroke="midnightblue" d="M82.9724,-102.101C83.6044,-93.1357 83.1573,-82.8579 81.631,-75.7511"/>
<polygon fill="midnightblue" stroke="midnightblue" points="79.4933,-101.713 81.6663,-112.083 86.4342,-102.622 79.4933,-101.713"/>
</g>
</g>
</svg>
