<?xml version="1.0" encoding="UTF-8" standalone="no"?>
<!DOCTYPE svg PUBLIC "-//W3C//DTD SVG 1.1//EN"
 "http://www.w3.org/Graphics/SVG/1.1/DTD/svg11.dtd">
<!-- Generated by graphviz version 2.38.0 (20140413.2041)
 -->
<!-- Title: elftosb::EraseStatementASTNode Pages: 1 -->
<svg width="258pt" height="251pt"
 viewBox="0.00 0.00 258.00 251.00" xmlns="http://www.w3.org/2000/svg" xmlns:xlink="http://www.w3.org/1999/xlink">
<g id="graph0" class="graph" transform="scale(1 1) rotate(0) translate(4 247)">
<title>elftosb::EraseStatementASTNode</title>
<polygon fill="white" stroke="none" points="-4,4 -4,-247 254,-247 254,4 -4,4"/>
<!-- Node1 -->
<g id="node1" class="node"><title>Node1</title>
<polygon fill="#bfbfbf" stroke="black" points="66,-0.5 66,-19.5 229,-19.5 229,-0.5 66,-0.5"/>
<text text-anchor="middle" x="147.5" y="-7.5" font-family="Helvetica,sans-Serif" font-size="10.00">elftosb::EraseStatementASTNode</text>
</g>
<!-- Node2 -->
<g id="node2" class="node"><title>Node2</title>
<g id="a_node2"><a xlink:href="classelftosb_1_1_statement_a_s_t_node.html" target="_top" xlink:title="elftosb::StatementASTNode">
<polygon fill="white" stroke="black" points="0,-84 0,-103 137,-103 137,-84 0,-84"/>
<text text-anchor="middle" x="68.5" y="-91" font-family="Helvetica,sans-Serif" font-size="10.00">elftosb::StatementASTNode</text>
</a>
</g>
</g>
<!-- Node2&#45;&gt;Node1 -->
<g id="edge1" class="edge"><title>Node2&#45;&gt;Node1</title>
<path fill="none" stroke="midnightblue" d="M84.2604,-76.2408C100.771,-59.2081 126.077,-33.1005 139.106,-19.6592"/>
<polygon fill="midnightblue" stroke="midnightblue" points="81.4014,-74.1617 76.9544,-83.7781 86.4276,-79.0337 81.4014,-74.1617"/>
</g>
<!-- Node3 -->
<g id="node3" class="node"><title>Node3</title>
<g id="a_node3"><a xlink:href="classelftosb_1_1_a_s_t_node.html" target="_top" xlink:title="The base class for all AST node classes. ">
<polygon fill="white" stroke="black" points="63.5,-156.5 63.5,-175.5 155.5,-175.5 155.5,-156.5 63.5,-156.5"/>
<text text-anchor="middle" x="109.5" y="-163.5" font-family="Helvetica,sans-Serif" font-size="10.00">elftosb::ASTNode</text>
</a>
</g>
</g>
<!-- Node3&#45;&gt;Node2 -->
<g id="edge2" class="edge"><title>Node3&#45;&gt;Node2</title>
<path fill="none" stroke="midnightblue" d="M99.375,-147.59C91.1805,-133.499 79.9826,-114.244 73.5685,-103.215"/>
<polygon fill="midnightblue" stroke="midnightblue" points="96.4197,-149.47 104.473,-156.355 102.471,-145.951 96.4197,-149.47"/>
</g>
<!-- Node3&#45;&gt;Node3 -->
<g id="edge4" class="edge"><title>Node3&#45;&gt;Node3</title>
<path fill="none" stroke="#9a32cd" stroke-dasharray="5,2" d="M165.774,-170.66C170.534,-169.663 173.5,-168.109 173.5,-166 173.5,-162.625 165.906,-160.674 155.524,-160.146"/>
<polygon fill="#9a32cd" stroke="#9a32cd" points="165.052,-167.22 155.524,-171.854 165.862,-174.173 165.052,-167.22"/>
<text text-anchor="middle" x="195.5" y="-163.5" font-family="Helvetica,sans-Serif" font-size="10.00"> m_parent</text>
</g>
<!-- Node5 -->
<g id="node5" class="node"><title>Node5</title>
<g id="a_node5"><a xlink:href="group__smart__pointer.html" target="_top" xlink:title="smart_ptr\&lt; elftosb\l::ASTNode \&gt;">
<polygon fill="white" stroke="black" points="155,-78.5 155,-108.5 250,-108.5 250,-78.5 155,-78.5"/>
<text text-anchor="start" x="163" y="-96.5" font-family="Helvetica,sans-Serif" font-size="10.00">smart_ptr&lt; elftosb</text>
<text text-anchor="middle" x="202.5" y="-85.5" font-family="Helvetica,sans-Serif" font-size="10.00">::ASTNode &gt;</text>
</a>
</g>
</g>
<!-- Node3&#45;&gt;Node5 -->
<g id="edge6" class="edge"><title>Node3&#45;&gt;Node5</title>
<path fill="none" stroke="#9a32cd" stroke-dasharray="5,2" d="M129.121,-150.126C145.289,-137.87 168.059,-120.608 183.931,-108.576"/>
<polygon fill="#9a32cd" stroke="#9a32cd" points="126.758,-147.525 120.904,-156.355 130.987,-153.103 126.758,-147.525"/>
<text text-anchor="middle" x="165.5" y="-130" font-family="Helvetica,sans-Serif" font-size="10.00"> _p</text>
</g>
<!-- Node4 -->
<g id="node4" class="node"><title>Node4</title>
<g id="a_node4"><a xlink:href="structelftosb_1_1token__loc__t.html" target="_top" xlink:title="Token location in the source file. ">
<polygon fill="white" stroke="black" points="59,-223.5 59,-242.5 160,-242.5 160,-223.5 59,-223.5"/>
<text text-anchor="middle" x="109.5" y="-230.5" font-family="Helvetica,sans-Serif" font-size="10.00">elftosb::token_loc_t</text>
</a>
</g>
</g>
<!-- Node4&#45;&gt;Node3 -->
<g id="edge3" class="edge"><title>Node4&#45;&gt;Node3</title>
<path fill="none" stroke="#9a32cd" stroke-dasharray="5,2" d="M109.5,-213.037C109.5,-200.67 109.5,-185.12 109.5,-175.627"/>
<polygon fill="#9a32cd" stroke="#9a32cd" points="106,-213.234 109.5,-223.234 113,-213.234 106,-213.234"/>
<text text-anchor="middle" x="135" y="-197" font-family="Helvetica,sans-Serif" font-size="10.00"> m_location</text>
</g>
<!-- Node5&#45;&gt;Node1 -->
<g id="edge5" class="edge"><title>Node5&#45;&gt;Node1</title>
<path fill="none" stroke="#9a32cd" stroke-dasharray="5,2" d="M187.079,-69.6491C175.828,-52.9768 161.21,-31.3157 153.263,-19.5391"/>
<polygon fill="#9a32cd" stroke="#9a32cd" points="184.425,-71.9726 192.92,-78.3038 190.227,-68.0568 184.425,-71.9726"/>
<text text-anchor="middle" x="211.5" y="-52" font-family="Helvetica,sans-Serif" font-size="10.00"> m_rangeExpr</text>
<text text-anchor="middle" x="211.5" y="-41" font-family="Helvetica,sans-Serif" font-size="10.00">m_memOption</text>
</g>
</g>
</svg>
