<?xml version="1.0" encoding="UTF-8" standalone="no"?>
<!DOCTYPE svg PUBLIC "-//W3C//DTD SVG 1.1//EN"
 "http://www.w3.org/Graphics/SVG/1.1/DTD/svg11.dtd">
<!-- Generated by graphviz version 2.38.0 (20140413.2041)
 -->
<!-- Title: elftosb::ELFSourceFile::ELFDataSource::ProgBitsSegment Pages: 1 -->
<svg width="1064pt" height="334pt"
 viewBox="0.00 0.00 1064.00 334.00" xmlns="http://www.w3.org/2000/svg" xmlns:xlink="http://www.w3.org/1999/xlink">
<g id="graph0" class="graph" transform="scale(1 1) rotate(0) translate(4 330)">
<title>elftosb::ELFSourceFile::ELFDataSource::ProgBitsSegment</title>
<polygon fill="white" stroke="none" points="-4,4 -4,-330 1060,-330 1060,4 -4,4"/>
<!-- Node1 -->
<g id="node1" class="node"><title>Node1</title>
<polygon fill="#bfbfbf" stroke="black" points="882,-230.5 882,-260.5 1056,-260.5 1056,-230.5 882,-230.5"/>
<text text-anchor="start" x="890" y="-248.5" font-family="Helvetica,sans-Serif" font-size="10.00">elftosb::ELFSourceFile</text>
<text text-anchor="middle" x="969" y="-237.5" font-family="Helvetica,sans-Serif" font-size="10.00">::ELFDataSource::ProgBitsSegment</text>
</g>
<!-- Node2 -->
<g id="node2" class="node"><title>Node2</title>
<g id="a_node2"><a xlink:href="classelftosb_1_1_data_source_1_1_segment.html" target="_top" xlink:title="Discrete, contiguous part of the source&#39;s data. ">
<polygon fill="white" stroke="black" points="717,-295.5 717,-325.5 819,-325.5 819,-295.5 717,-295.5"/>
<text text-anchor="start" x="725" y="-313.5" font-family="Helvetica,sans-Serif" font-size="10.00">elftosb::DataSource</text>
<text text-anchor="middle" x="768" y="-302.5" font-family="Helvetica,sans-Serif" font-size="10.00">::Segment</text>
</a>
</g>
</g>
<!-- Node2&#45;&gt;Node1 -->
<g id="edge1" class="edge"><title>Node2&#45;&gt;Node1</title>
<path fill="none" stroke="midnightblue" d="M824.82,-292.267C855.392,-282.282 892.827,-270.054 921.751,-260.606"/>
<polygon fill="midnightblue" stroke="midnightblue" points="823.574,-288.992 815.155,-295.424 825.747,-295.646 823.574,-288.992"/>
</g>
<!-- Node3 -->
<g id="node3" class="node"><title>Node3</title>
<g id="a_node3"><a xlink:href="classelftosb_1_1_data_source.html" target="_top" xlink:title="Abstract base class for data sources. ">
<polygon fill="white" stroke="black" points="480,-273 480,-292 582,-292 582,-273 480,-273"/>
<text text-anchor="middle" x="531" y="-280" font-family="Helvetica,sans-Serif" font-size="10.00">elftosb::DataSource</text>
</a>
</g>
</g>
<!-- Node3&#45;&gt;Node2 -->
<g id="edge2" class="edge"><title>Node3&#45;&gt;Node2</title>
<path fill="none" stroke="#9a32cd" stroke-dasharray="5,2" d="M592.097,-293.094C595.443,-293.593 598.761,-294.066 602,-294.5 640.366,-299.642 683.964,-303.797 716.705,-306.583"/>
<polygon fill="#9a32cd" stroke="#9a32cd" points="592.441,-289.606 582.023,-291.532 591.369,-296.523 592.441,-289.606"/>
<text text-anchor="middle" x="650.5" y="-307.5" font-family="Helvetica,sans-Serif" font-size="10.00"> m_source</text>
</g>
<!-- Node4 -->
<g id="node4" class="node"><title>Node4</title>
<g id="a_node4"><a xlink:href="classelftosb_1_1_data_target.html" target="_top" xlink:title="Abstract base class for the target address or range of data. ">
<polygon fill="white" stroke="black" points="719,-245 719,-264 817,-264 817,-245 719,-245"/>
<text text-anchor="middle" x="768" y="-252" font-family="Helvetica,sans-Serif" font-size="10.00">elftosb::DataTarget</text>
</a>
</g>
</g>
<!-- Node3&#45;&gt;Node4 -->
<g id="edge4" class="edge"><title>Node3&#45;&gt;Node4</title>
<path fill="none" stroke="#9a32cd" stroke-dasharray="5,2" d="M592.133,-275.335C631.51,-270.643 682.279,-264.594 718.959,-260.224"/>
<polygon fill="#9a32cd" stroke="#9a32cd" points="591.641,-271.869 582.125,-276.528 592.469,-278.82 591.641,-271.869"/>
<text text-anchor="middle" x="650.5" y="-275.5" font-family="Helvetica,sans-Serif" font-size="10.00"> m_source</text>
</g>
<!-- Node4&#45;&gt;Node3 -->
<g id="edge3" class="edge"><title>Node4&#45;&gt;Node3</title>
<path fill="none" stroke="#9a32cd" stroke-dasharray="5,2" d="M708.696,-245.728C676.81,-242.674 636.825,-241.703 602,-249.5 581.94,-253.991 560.855,-264.901 547.135,-272.954"/>
<polygon fill="#9a32cd" stroke="#9a32cd" points="708.437,-249.22 718.748,-246.785 709.168,-242.258 708.437,-249.22"/>
<text text-anchor="middle" x="650.5" y="-252.5" font-family="Helvetica,sans-Serif" font-size="10.00"> m_target</text>
</g>
<!-- Node5 -->
<g id="node5" class="node"><title>Node5</title>
<g id="a_node5"><a xlink:href="class_st_e_l_f_file.html" target="_top" xlink:title="Parser for Executable and Linking Format (ELF) files. ">
<polygon fill="white" stroke="black" points="738,-137 738,-156 798,-156 798,-137 738,-137"/>
<text text-anchor="middle" x="768" y="-144" font-family="Helvetica,sans-Serif" font-size="10.00">StELFFile</text>
</a>
</g>
</g>
<!-- Node5&#45;&gt;Node1 -->
<g id="edge5" class="edge"><title>Node5&#45;&gt;Node1</title>
<path fill="none" stroke="#9a32cd" stroke-dasharray="5,2" d="M797.748,-160.802C835.057,-179.362 899.863,-211.602 937.847,-230.499"/>
<polygon fill="#9a32cd" stroke="#9a32cd" points="798.956,-157.493 788.443,-156.173 795.838,-163.761 798.956,-157.493"/>
<text text-anchor="middle" x="850.5" y="-196.5" font-family="Helvetica,sans-Serif" font-size="10.00"> m_elf</text>
</g>
<!-- Node6 -->
<g id="node6" class="node"><title>Node6</title>
<polygon fill="white" stroke="#bfbfbf" points="485,-213.5 485,-243.5 577,-243.5 577,-213.5 485,-213.5"/>
<text text-anchor="start" x="493" y="-231.5" font-family="Helvetica,sans-Serif" font-size="10.00">std::vector&lt; Elf32</text>
<text text-anchor="middle" x="531" y="-220.5" font-family="Helvetica,sans-Serif" font-size="10.00">_Phdr &gt;</text>
</g>
<!-- Node6&#45;&gt;Node5 -->
<g id="edge6" class="edge"><title>Node6&#45;&gt;Node5</title>
<path fill="none" stroke="#9a32cd" stroke-dasharray="5,2" d="M587.216,-220.393C620.466,-214.352 663.163,-204.51 699,-189.5 719.871,-180.758 741.558,-165.861 754.67,-156.099"/>
<polygon fill="#9a32cd" stroke="#9a32cd" points="586.462,-216.972 577.218,-222.148 587.672,-223.867 586.462,-216.972"/>
<text text-anchor="middle" x="650.5" y="-220.5" font-family="Helvetica,sans-Serif" font-size="10.00"> m_programHeaders</text>
</g>
<!-- Node7 -->
<g id="node7" class="node"><title>Node7</title>
<g id="a_node7"><a xlink:href="struct_elf32___phdr.html" target="_top" xlink:title="ELF program header. ">
<polygon fill="white" stroke="black" points="300,-219 300,-238 364,-238 364,-219 300,-219"/>
<text text-anchor="middle" x="332" y="-226" font-family="Helvetica,sans-Serif" font-size="10.00">Elf32_Phdr</text>
</a>
</g>
</g>
<!-- Node7&#45;&gt;Node6 -->
<g id="edge7" class="edge"><title>Node7&#45;&gt;Node6</title>
<path fill="none" stroke="#9a32cd" stroke-dasharray="5,2" d="M374.222,-228.5C406.498,-228.5 451.348,-228.5 484.639,-228.5"/>
<polygon fill="#9a32cd" stroke="#9a32cd" points="374.215,-225 364.215,-228.5 374.215,-232 374.215,-225"/>
<text text-anchor="middle" x="438.5" y="-231.5" font-family="Helvetica,sans-Serif" font-size="10.00"> elements</text>
</g>
<!-- Node8 -->
<g id="node8" class="node"><title>Node8</title>
<g id="a_node8"><a xlink:title="STL class. ">
<polygon fill="white" stroke="#bfbfbf" points="497,-175 497,-194 565,-194 565,-175 497,-175"/>
<text text-anchor="middle" x="531" y="-182" font-family="Helvetica,sans-Serif" font-size="10.00">std::istream</text>
</a>
</g>
</g>
<!-- Node8&#45;&gt;Node5 -->
<g id="edge8" class="edge"><title>Node8&#45;&gt;Node5</title>
<path fill="none" stroke="#9a32cd" stroke-dasharray="5,2" d="M575.291,-178.006C609.026,-172.885 657.028,-165.47 699,-158.5 711.772,-156.379 725.87,-153.912 737.902,-151.768"/>
<polygon fill="#9a32cd" stroke="#9a32cd" points="574.665,-174.56 565.301,-179.518 575.713,-181.482 574.665,-174.56"/>
<text text-anchor="middle" x="650.5" y="-177.5" font-family="Helvetica,sans-Serif" font-size="10.00"> m_stream</text>
</g>
<!-- Node9 -->
<g id="node9" class="node"><title>Node9</title>
<g id="a_node9"><a xlink:title="STL class. ">
<polygon fill="white" stroke="#bfbfbf" points="283.5,-169.5 283.5,-199.5 380.5,-199.5 380.5,-169.5 283.5,-169.5"/>
<text text-anchor="start" x="291.5" y="-187.5" font-family="Helvetica,sans-Serif" font-size="10.00">std::basic_istream</text>
<text text-anchor="middle" x="332" y="-176.5" font-family="Helvetica,sans-Serif" font-size="10.00">&lt; char &gt;</text>
</a>
</g>
</g>
<!-- Node9&#45;&gt;Node8 -->
<g id="edge9" class="edge"><title>Node9&#45;&gt;Node8</title>
<path fill="none" stroke="midnightblue" d="M391.113,-184.5C425.609,-184.5 468.097,-184.5 496.929,-184.5"/>
<polygon fill="midnightblue" stroke="midnightblue" points="390.688,-181 380.688,-184.5 390.688,-188 390.688,-181"/>
</g>
<!-- Node10 -->
<g id="node10" class="node"><title>Node10</title>
<g id="a_node10"><a xlink:title="STL class. ">
<polygon fill="white" stroke="#bfbfbf" points="112,-175 112,-194 228,-194 228,-175 112,-175"/>
<text text-anchor="middle" x="170" y="-182" font-family="Helvetica,sans-Serif" font-size="10.00">std::basic_ios&lt; Char &gt;</text>
</a>
</g>
</g>
<!-- Node10&#45;&gt;Node9 -->
<g id="edge10" class="edge"><title>Node10&#45;&gt;Node9</title>
<path fill="none" stroke="midnightblue" d="M238.6,-184.5C253.637,-184.5 269.273,-184.5 283.314,-184.5"/>
<polygon fill="midnightblue" stroke="midnightblue" points="238.312,-181 228.312,-184.5 238.312,-188 238.312,-181"/>
</g>
<!-- Node11 -->
<g id="node11" class="node"><title>Node11</title>
<g id="a_node11"><a xlink:title="STL class. ">
<polygon fill="white" stroke="#bfbfbf" points="0,-175 0,-194 75,-194 75,-175 0,-175"/>
<text text-anchor="middle" x="37.5" y="-182" font-family="Helvetica,sans-Serif" font-size="10.00">std::ios_base</text>
</a>
</g>
</g>
<!-- Node11&#45;&gt;Node10 -->
<g id="edge11" class="edge"><title>Node11&#45;&gt;Node10</title>
<path fill="none" stroke="midnightblue" d="M85.3188,-184.5C93.8367,-184.5 102.811,-184.5 111.593,-184.5"/>
<polygon fill="midnightblue" stroke="midnightblue" points="85.1988,-181 75.1988,-184.5 85.1988,-188 85.1988,-181"/>
</g>
<!-- Node12 -->
<g id="node12" class="node"><title>Node12</title>
<g id="a_node12"><a xlink:href="struct_elf32___ehdr.html" target="_top" xlink:title="ELF file header. ">
<polygon fill="white" stroke="black" points="499,-137 499,-156 563,-156 563,-137 499,-137"/>
<text text-anchor="middle" x="531" y="-144" font-family="Helvetica,sans-Serif" font-size="10.00">Elf32_Ehdr</text>
</a>
</g>
</g>
<!-- Node12&#45;&gt;Node5 -->
<g id="edge12" class="edge"><title>Node12&#45;&gt;Node5</title>
<path fill="none" stroke="#9a32cd" stroke-dasharray="5,2" d="M573.393,-146.5C620.588,-146.5 696.534,-146.5 737.884,-146.5"/>
<polygon fill="#9a32cd" stroke="#9a32cd" points="573.206,-143 563.206,-146.5 573.206,-150 573.206,-143"/>
<text text-anchor="middle" x="650.5" y="-149.5" font-family="Helvetica,sans-Serif" font-size="10.00"> m_header</text>
</g>
<!-- Node13 -->
<g id="node13" class="node"><title>Node13</title>
<g id="a_node13"><a xlink:title="STL class. ">
<polygon fill="white" stroke="#bfbfbf" points="501,-99 501,-118 561,-118 561,-99 501,-99"/>
<text text-anchor="middle" x="531" y="-106" font-family="Helvetica,sans-Serif" font-size="10.00">std::string</text>
</a>
</g>
</g>
<!-- Node13&#45;&gt;Node5 -->
<g id="edge13" class="edge"><title>Node13&#45;&gt;Node5</title>
<path fill="none" stroke="#9a32cd" stroke-dasharray="5,2" d="M571.05,-112.979C604.984,-117.085 655.399,-123.701 699,-131.5 711.853,-133.799 725.963,-136.828 737.983,-139.561"/>
<polygon fill="#9a32cd" stroke="#9a32cd" points="571.418,-109.498 561.074,-111.787 570.588,-116.449 571.418,-109.498"/>
<text text-anchor="middle" x="650.5" y="-134.5" font-family="Helvetica,sans-Serif" font-size="10.00"> m_name</text>
</g>
<!-- Node14 -->
<g id="node14" class="node"><title>Node14</title>
<g id="a_node14"><a xlink:title="STL class. ">
<polygon fill="white" stroke="#bfbfbf" points="284.5,-93.5 284.5,-123.5 379.5,-123.5 379.5,-93.5 284.5,-93.5"/>
<text text-anchor="start" x="292.5" y="-111.5" font-family="Helvetica,sans-Serif" font-size="10.00">std::basic_string&lt;</text>
<text text-anchor="middle" x="332" y="-100.5" font-family="Helvetica,sans-Serif" font-size="10.00"> char &gt;</text>
</a>
</g>
</g>
<!-- Node14&#45;&gt;Node13 -->
<g id="edge14" class="edge"><title>Node14&#45;&gt;Node13</title>
<path fill="none" stroke="midnightblue" d="M390.122,-108.5C426.345,-108.5 471.693,-108.5 500.756,-108.5"/>
<polygon fill="midnightblue" stroke="midnightblue" points="389.686,-105 379.686,-108.5 389.686,-112 389.686,-105"/>
</g>
<!-- Node15 -->
<g id="node15" class="node"><title>Node15</title>
<polygon fill="white" stroke="#bfbfbf" points="485,-49.5 485,-79.5 577,-79.5 577,-49.5 485,-49.5"/>
<text text-anchor="start" x="493" y="-67.5" font-family="Helvetica,sans-Serif" font-size="10.00">std::vector&lt; Elf32</text>
<text text-anchor="middle" x="531" y="-56.5" font-family="Helvetica,sans-Serif" font-size="10.00">_Shdr &gt;</text>
</g>
<!-- Node15&#45;&gt;Node5 -->
<g id="edge15" class="edge"><title>Node15&#45;&gt;Node5</title>
<path fill="none" stroke="#9a32cd" stroke-dasharray="5,2" d="M587.275,-72.0741C620.547,-77.8441 663.245,-87.4244 699,-102.5 719.99,-111.35 741.645,-126.619 754.718,-136.639"/>
<polygon fill="#9a32cd" stroke="#9a32cd" points="587.71,-68.5983 577.27,-70.4038 586.557,-75.5028 587.71,-68.5983"/>
<text text-anchor="middle" x="650.5" y="-105.5" font-family="Helvetica,sans-Serif" font-size="10.00"> m_sectionHeaders</text>
</g>
<!-- Node16 -->
<g id="node16" class="node"><title>Node16</title>
<g id="a_node16"><a xlink:href="struct_elf32___shdr.html" target="_top" xlink:title="ELF section header. ">
<polygon fill="white" stroke="black" points="300,-55 300,-74 364,-74 364,-55 300,-55"/>
<text text-anchor="middle" x="332" y="-62" font-family="Helvetica,sans-Serif" font-size="10.00">Elf32_Shdr</text>
</a>
</g>
</g>
<!-- Node16&#45;&gt;Node15 -->
<g id="edge16" class="edge"><title>Node16&#45;&gt;Node15</title>
<path fill="none" stroke="#9a32cd" stroke-dasharray="5,2" d="M374.222,-64.5C406.498,-64.5 451.348,-64.5 484.639,-64.5"/>
<polygon fill="#9a32cd" stroke="#9a32cd" points="374.215,-61.0001 364.215,-64.5 374.215,-68.0001 374.215,-61.0001"/>
<text text-anchor="middle" x="438.5" y="-67.5" font-family="Helvetica,sans-Serif" font-size="10.00"> elements</text>
</g>
<!-- Node17 -->
<g id="node17" class="node"><title>Node17</title>
<polygon fill="white" stroke="#bfbfbf" points="478,-0.5 478,-30.5 584,-30.5 584,-0.5 478,-0.5"/>
<text text-anchor="start" x="486" y="-18.5" font-family="Helvetica,sans-Serif" font-size="10.00">std::map&lt; unsigned,</text>
<text text-anchor="middle" x="531" y="-7.5" font-family="Helvetica,sans-Serif" font-size="10.00"> SectionDataInfo &gt;</text>
</g>
<!-- Node17&#45;&gt;Node5 -->
<g id="edge17" class="edge"><title>Node17&#45;&gt;Node5</title>
<path fill="none" stroke="#9a32cd" stroke-dasharray="5,2" d="M594.124,-22.628C627.358,-28.71 667.753,-39.9172 699,-60.5 729.519,-80.6035 752.509,-118.927 762.097,-136.832"/>
<polygon fill="#9a32cd" stroke="#9a32cd" points="594.506,-19.1424 584.058,-20.9003 593.322,-26.0416 594.506,-19.1424"/>
<text text-anchor="middle" x="650.5" y="-63.5" font-family="Helvetica,sans-Serif" font-size="10.00"> m_sectionDataCache</text>
</g>
<!-- Node18 -->
<g id="node18" class="node"><title>Node18</title>
<g id="a_node18"><a xlink:href="class_st_e_l_f_file.html#struct_st_e_l_f_file_1_1_section_data_info" target="_top" xlink:title="StELFFile::SectionDataInfo">
<polygon fill="white" stroke="black" points="265,-6 265,-25 399,-25 399,-6 265,-6"/>
<text text-anchor="middle" x="332" y="-13" font-family="Helvetica,sans-Serif" font-size="10.00">StELFFile::SectionDataInfo</text>
</a>
</g>
</g>
<!-- Node18&#45;&gt;Node17 -->
<g id="edge18" class="edge"><title>Node18&#45;&gt;Node17</title>
<path fill="none" stroke="#9a32cd" stroke-dasharray="5,2" d="M409.191,-15.5C432.109,-15.5 456.727,-15.5 477.722,-15.5"/>
<polygon fill="#9a32cd" stroke="#9a32cd" points="409.146,-12.0001 399.146,-15.5 409.146,-19.0001 409.146,-12.0001"/>
<text text-anchor="middle" x="438.5" y="-18.5" font-family="Helvetica,sans-Serif" font-size="10.00"> elements</text>
</g>
</g>
</svg>
