<?xml version="1.0" encoding="UTF-8" standalone="no"?>
<!DOCTYPE svg PUBLIC "-//W3C//DTD SVG 1.1//EN"
 "http://www.w3.org/Graphics/SVG/1.1/DTD/svg11.dtd">
<!-- Generated by graphviz version 2.38.0 (20140413.2041)
 -->
<!-- Title: elftosb::ELFSourceFile::ELFDataSource::NoBitsSegment Pages: 1 -->
<svg width="1083pt" height="390pt"
 viewBox="0.00 0.00 1083.00 390.00" xmlns="http://www.w3.org/2000/svg" xmlns:xlink="http://www.w3.org/1999/xlink">
<g id="graph0" class="graph" transform="scale(1 1) rotate(0) translate(4 386)">
<title>elftosb::ELFSourceFile::ELFDataSource::NoBitsSegment</title>
<polygon fill="white" stroke="none" points="-4,4 -4,-386 1079,-386 1079,4 -4,4"/>
<!-- Node1 -->
<g id="node1" class="node"><title>Node1</title>
<polygon fill="#bfbfbf" stroke="black" points="909,-206.5 909,-236.5 1075,-236.5 1075,-206.5 909,-206.5"/>
<text text-anchor="start" x="917" y="-224.5" font-family="Helvetica,sans-Serif" font-size="10.00">elftosb::ELFSourceFile</text>
<text text-anchor="middle" x="992" y="-213.5" font-family="Helvetica,sans-Serif" font-size="10.00">::ELFDataSource::NoBitsSegment</text>
</g>
<!-- Node2 -->
<g id="node2" class="node"><title>Node2</title>
<g id="a_node2"><a xlink:href="classelftosb_1_1_data_source_1_1_pattern_segment.html" target="_top" xlink:title="This is a special type of segment containing a repeating pattern. ">
<polygon fill="white" stroke="black" points="744,-257.5 744,-287.5 846,-287.5 846,-257.5 744,-257.5"/>
<text text-anchor="start" x="752" y="-275.5" font-family="Helvetica,sans-Serif" font-size="10.00">elftosb::DataSource</text>
<text text-anchor="middle" x="795" y="-264.5" font-family="Helvetica,sans-Serif" font-size="10.00">::PatternSegment</text>
</a>
</g>
</g>
<!-- Node2&#45;&gt;Node1 -->
<g id="edge1" class="edge"><title>Node2&#45;&gt;Node1</title>
<path fill="none" stroke="midnightblue" d="M856.145,-256.77C880.727,-250.341 909.041,-242.935 933.359,-236.575"/>
<polygon fill="midnightblue" stroke="midnightblue" points="855.006,-253.45 846.217,-259.366 856.778,-260.222 855.006,-253.45"/>
</g>
<!-- Node3 -->
<g id="node3" class="node"><title>Node3</title>
<g id="a_node3"><a xlink:href="classelftosb_1_1_data_source_1_1_segment.html" target="_top" xlink:title="Discrete, contiguous part of the source&#39;s data. ">
<polygon fill="white" stroke="black" points="495,-351.5 495,-381.5 597,-381.5 597,-351.5 495,-351.5"/>
<text text-anchor="start" x="503" y="-369.5" font-family="Helvetica,sans-Serif" font-size="10.00">elftosb::DataSource</text>
<text text-anchor="middle" x="546" y="-358.5" font-family="Helvetica,sans-Serif" font-size="10.00">::Segment</text>
</a>
</g>
</g>
<!-- Node3&#45;&gt;Node2 -->
<g id="edge2" class="edge"><title>Node3&#45;&gt;Node2</title>
<path fill="none" stroke="midnightblue" d="M596.24,-347.761C642.686,-330.085 711.421,-303.927 754.414,-287.565"/>
<polygon fill="midnightblue" stroke="midnightblue" points="594.786,-344.569 586.685,-351.397 597.276,-351.112 594.786,-344.569"/>
</g>
<!-- Node4 -->
<g id="node4" class="node"><title>Node4</title>
<g id="a_node4"><a xlink:href="classelftosb_1_1_data_source.html" target="_top" xlink:title="Abstract base class for data sources. ">
<polygon fill="white" stroke="black" points="281,-327 281,-346 383,-346 383,-327 281,-327"/>
<text text-anchor="middle" x="332" y="-334" font-family="Helvetica,sans-Serif" font-size="10.00">elftosb::DataSource</text>
</a>
</g>
</g>
<!-- Node4&#45;&gt;Node3 -->
<g id="edge3" class="edge"><title>Node4&#45;&gt;Node3</title>
<path fill="none" stroke="#9a32cd" stroke-dasharray="5,2" d="M393.387,-345.045C425.439,-349.581 464.368,-355.09 494.753,-359.39"/>
<polygon fill="#9a32cd" stroke="#9a32cd" points="393.633,-341.545 383.241,-343.61 392.652,-348.476 393.633,-341.545"/>
<text text-anchor="middle" x="440" y="-356.5" font-family="Helvetica,sans-Serif" font-size="10.00"> m_source</text>
</g>
<!-- Node5 -->
<g id="node5" class="node"><title>Node5</title>
<g id="a_node5"><a xlink:href="classelftosb_1_1_data_target.html" target="_top" xlink:title="Abstract base class for the target address or range of data. ">
<polygon fill="white" stroke="black" points="497,-309 497,-328 595,-328 595,-309 497,-309"/>
<text text-anchor="middle" x="546" y="-316" font-family="Helvetica,sans-Serif" font-size="10.00">elftosb::DataTarget</text>
</a>
</g>
</g>
<!-- Node4&#45;&gt;Node5 -->
<g id="edge5" class="edge"><title>Node4&#45;&gt;Node5</title>
<path fill="none" stroke="#9a32cd" stroke-dasharray="5,2" d="M393.614,-331.354C426.399,-328.57 466.325,-325.18 496.942,-322.58"/>
<polygon fill="#9a32cd" stroke="#9a32cd" points="392.909,-327.901 383.241,-332.234 393.501,-334.876 392.909,-327.901"/>
<text text-anchor="middle" x="440" y="-331.5" font-family="Helvetica,sans-Serif" font-size="10.00"> m_source</text>
</g>
<!-- Node5&#45;&gt;Node4 -->
<g id="edge4" class="edge"><title>Node5&#45;&gt;Node4</title>
<path fill="none" stroke="#9a32cd" stroke-dasharray="5,2" d="M501.26,-306.833C476.421,-301.838 444.823,-298.231 417,-303.5 393.446,-307.961 368.042,-318.877 351.413,-326.939"/>
<polygon fill="#9a32cd" stroke="#9a32cd" points="500.602,-310.271 511.115,-308.956 502.077,-303.428 500.602,-310.271"/>
<text text-anchor="middle" x="440" y="-306.5" font-family="Helvetica,sans-Serif" font-size="10.00"> m_target</text>
</g>
<!-- Node6 -->
<g id="node6" class="node"><title>Node6</title>
<g id="a_node6"><a xlink:href="classelftosb_1_1_sized_integer_value.html" target="_top" xlink:title="Adds a word size attribute to IntegerValue. ">
<polygon fill="white" stroke="black" points="481,-263 481,-282 611,-282 611,-263 481,-263"/>
<text text-anchor="middle" x="546" y="-270" font-family="Helvetica,sans-Serif" font-size="10.00">elftosb::SizedIntegerValue</text>
</a>
</g>
</g>
<!-- Node6&#45;&gt;Node2 -->
<g id="edge6" class="edge"><title>Node6&#45;&gt;Node2</title>
<path fill="none" stroke="#9a32cd" stroke-dasharray="5,2" d="M621.385,-272.5C660.939,-272.5 708.524,-272.5 743.705,-272.5"/>
<polygon fill="#9a32cd" stroke="#9a32cd" points="621.252,-269 611.252,-272.5 621.252,-276 621.252,-269"/>
<text text-anchor="middle" x="677.5" y="-275.5" font-family="Helvetica,sans-Serif" font-size="10.00"> m_pattern</text>
</g>
<!-- Node7 -->
<g id="node7" class="node"><title>Node7</title>
<g id="a_node7"><a xlink:href="classelftosb_1_1_integer_value.html" target="_top" xlink:title="32&#45;bit signed integer value. ">
<polygon fill="white" stroke="black" points="279.5,-260 279.5,-279 384.5,-279 384.5,-260 279.5,-260"/>
<text text-anchor="middle" x="332" y="-267" font-family="Helvetica,sans-Serif" font-size="10.00">elftosb::IntegerValue</text>
</a>
</g>
</g>
<!-- Node7&#45;&gt;Node6 -->
<g id="edge7" class="edge"><title>Node7&#45;&gt;Node6</title>
<path fill="none" stroke="midnightblue" d="M394.687,-270.373C421.677,-270.755 453.342,-271.203 480.631,-271.589"/>
<polygon fill="midnightblue" stroke="midnightblue" points="394.638,-266.872 384.59,-270.23 394.539,-273.871 394.638,-266.872"/>
</g>
<!-- Node8 -->
<g id="node8" class="node"><title>Node8</title>
<g id="a_node8"><a xlink:href="classelftosb_1_1_value.html" target="_top" xlink:title="Abstract base class for values of arbitrary types. ">
<polygon fill="white" stroke="black" points="132,-260 132,-279 208,-279 208,-260 132,-260"/>
<text text-anchor="middle" x="170" y="-267" font-family="Helvetica,sans-Serif" font-size="10.00">elftosb::Value</text>
</a>
</g>
</g>
<!-- Node8&#45;&gt;Node7 -->
<g id="edge8" class="edge"><title>Node8&#45;&gt;Node7</title>
<path fill="none" stroke="midnightblue" d="M218.133,-269.5C237.335,-269.5 259.595,-269.5 279.246,-269.5"/>
<polygon fill="midnightblue" stroke="midnightblue" points="218.109,-266 208.109,-269.5 218.109,-273 218.109,-266"/>
</g>
<!-- Node9 -->
<g id="node9" class="node"><title>Node9</title>
<g id="a_node9"><a xlink:href="class_st_e_l_f_file.html" target="_top" xlink:title="Parser for Executable and Linking Format (ELF) files. ">
<polygon fill="white" stroke="black" points="765,-137 765,-156 825,-156 825,-137 765,-137"/>
<text text-anchor="middle" x="795" y="-144" font-family="Helvetica,sans-Serif" font-size="10.00">StELFFile</text>
</a>
</g>
</g>
<!-- Node9&#45;&gt;Node1 -->
<g id="edge9" class="edge"><title>Node9&#45;&gt;Node1</title>
<path fill="none" stroke="#9a32cd" stroke-dasharray="5,2" d="M830.607,-159.81C864.598,-172.884 916.38,-192.8 951.856,-206.445"/>
<polygon fill="#9a32cd" stroke="#9a32cd" points="831.684,-156.475 821.094,-156.151 829.171,-163.008 831.684,-156.475"/>
<text text-anchor="middle" x="877.5" y="-185.5" font-family="Helvetica,sans-Serif" font-size="10.00"> m_elf</text>
</g>
<!-- Node10 -->
<g id="node10" class="node"><title>Node10</title>
<polygon fill="white" stroke="#bfbfbf" points="500,-213.5 500,-243.5 592,-243.5 592,-213.5 500,-213.5"/>
<text text-anchor="start" x="508" y="-231.5" font-family="Helvetica,sans-Serif" font-size="10.00">std::vector&lt; Elf32</text>
<text text-anchor="middle" x="546" y="-220.5" font-family="Helvetica,sans-Serif" font-size="10.00">_Phdr &gt;</text>
</g>
<!-- Node10&#45;&gt;Node9 -->
<g id="edge10" class="edge"><title>Node10&#45;&gt;Node9</title>
<path fill="none" stroke="#9a32cd" stroke-dasharray="5,2" d="M602.414,-221.538C638.556,-215.77 686.227,-205.811 726,-189.5 746.936,-180.914 768.605,-165.975 781.696,-156.162"/>
<polygon fill="#9a32cd" stroke="#9a32cd" points="601.42,-218.149 592.066,-223.125 602.481,-225.068 601.42,-218.149"/>
<text text-anchor="middle" x="677.5" y="-220.5" font-family="Helvetica,sans-Serif" font-size="10.00"> m_programHeaders</text>
</g>
<!-- Node11 -->
<g id="node11" class="node"><title>Node11</title>
<g id="a_node11"><a xlink:href="struct_elf32___phdr.html" target="_top" xlink:title="ELF program header. ">
<polygon fill="white" stroke="black" points="300,-219 300,-238 364,-238 364,-219 300,-219"/>
<text text-anchor="middle" x="332" y="-226" font-family="Helvetica,sans-Serif" font-size="10.00">Elf32_Phdr</text>
</a>
</g>
</g>
<!-- Node11&#45;&gt;Node10 -->
<g id="edge11" class="edge"><title>Node11&#45;&gt;Node10</title>
<path fill="none" stroke="#9a32cd" stroke-dasharray="5,2" d="M374.467,-228.5C410.553,-228.5 462.749,-228.5 499.874,-228.5"/>
<polygon fill="#9a32cd" stroke="#9a32cd" points="374.281,-225 364.281,-228.5 374.281,-232 374.281,-225"/>
<text text-anchor="middle" x="440" y="-231.5" font-family="Helvetica,sans-Serif" font-size="10.00"> elements</text>
</g>
<!-- Node12 -->
<g id="node12" class="node"><title>Node12</title>
<g id="a_node12"><a xlink:title="STL class. ">
<polygon fill="white" stroke="#bfbfbf" points="512,-175 512,-194 580,-194 580,-175 512,-175"/>
<text text-anchor="middle" x="546" y="-182" font-family="Helvetica,sans-Serif" font-size="10.00">std::istream</text>
</a>
</g>
</g>
<!-- Node12&#45;&gt;Node9 -->
<g id="edge12" class="edge"><title>Node12&#45;&gt;Node9</title>
<path fill="none" stroke="#9a32cd" stroke-dasharray="5,2" d="M590.339,-179.548C626.67,-175.191 679.859,-168.333 726,-160.5 738.834,-158.321 752.942,-155.489 764.964,-152.943"/>
<polygon fill="#9a32cd" stroke="#9a32cd" points="589.613,-176.109 580.096,-180.764 590.438,-183.061 589.613,-176.109"/>
<text text-anchor="middle" x="677.5" y="-177.5" font-family="Helvetica,sans-Serif" font-size="10.00"> m_stream</text>
</g>
<!-- Node13 -->
<g id="node13" class="node"><title>Node13</title>
<g id="a_node13"><a xlink:title="STL class. ">
<polygon fill="white" stroke="#bfbfbf" points="283.5,-169.5 283.5,-199.5 380.5,-199.5 380.5,-169.5 283.5,-169.5"/>
<text text-anchor="start" x="291.5" y="-187.5" font-family="Helvetica,sans-Serif" font-size="10.00">std::basic_istream</text>
<text text-anchor="middle" x="332" y="-176.5" font-family="Helvetica,sans-Serif" font-size="10.00">&lt; char &gt;</text>
</a>
</g>
</g>
<!-- Node13&#45;&gt;Node12 -->
<g id="edge13" class="edge"><title>Node13&#45;&gt;Node12</title>
<path fill="none" stroke="midnightblue" d="M390.705,-184.5C429.544,-184.5 479.386,-184.5 511.748,-184.5"/>
<polygon fill="midnightblue" stroke="midnightblue" points="390.577,-181 380.577,-184.5 390.577,-188 390.577,-181"/>
</g>
<!-- Node14 -->
<g id="node14" class="node"><title>Node14</title>
<g id="a_node14"><a xlink:title="STL class. ">
<polygon fill="white" stroke="#bfbfbf" points="112,-175 112,-194 228,-194 228,-175 112,-175"/>
<text text-anchor="middle" x="170" y="-182" font-family="Helvetica,sans-Serif" font-size="10.00">std::basic_ios&lt; Char &gt;</text>
</a>
</g>
</g>
<!-- Node14&#45;&gt;Node13 -->
<g id="edge14" class="edge"><title>Node14&#45;&gt;Node13</title>
<path fill="none" stroke="midnightblue" d="M238.6,-184.5C253.637,-184.5 269.273,-184.5 283.314,-184.5"/>
<polygon fill="midnightblue" stroke="midnightblue" points="238.312,-181 228.312,-184.5 238.312,-188 238.312,-181"/>
</g>
<!-- Node15 -->
<g id="node15" class="node"><title>Node15</title>
<g id="a_node15"><a xlink:title="STL class. ">
<polygon fill="white" stroke="#bfbfbf" points="0,-175 0,-194 75,-194 75,-175 0,-175"/>
<text text-anchor="middle" x="37.5" y="-182" font-family="Helvetica,sans-Serif" font-size="10.00">std::ios_base</text>
</a>
</g>
</g>
<!-- Node15&#45;&gt;Node14 -->
<g id="edge15" class="edge"><title>Node15&#45;&gt;Node14</title>
<path fill="none" stroke="midnightblue" d="M85.3188,-184.5C93.8367,-184.5 102.811,-184.5 111.593,-184.5"/>
<polygon fill="midnightblue" stroke="midnightblue" points="85.1988,-181 75.1988,-184.5 85.1988,-188 85.1988,-181"/>
</g>
<!-- Node16 -->
<g id="node16" class="node"><title>Node16</title>
<g id="a_node16"><a xlink:href="struct_elf32___ehdr.html" target="_top" xlink:title="ELF file header. ">
<polygon fill="white" stroke="black" points="514,-137 514,-156 578,-156 578,-137 514,-137"/>
<text text-anchor="middle" x="546" y="-144" font-family="Helvetica,sans-Serif" font-size="10.00">Elf32_Ehdr</text>
</a>
</g>
</g>
<!-- Node16&#45;&gt;Node9 -->
<g id="edge16" class="edge"><title>Node16&#45;&gt;Node9</title>
<path fill="none" stroke="#9a32cd" stroke-dasharray="5,2" d="M588.426,-146.5C638.415,-146.5 721.182,-146.5 764.888,-146.5"/>
<polygon fill="#9a32cd" stroke="#9a32cd" points="588.283,-143 578.283,-146.5 588.283,-150 588.283,-143"/>
<text text-anchor="middle" x="677.5" y="-149.5" font-family="Helvetica,sans-Serif" font-size="10.00"> m_header</text>
</g>
<!-- Node17 -->
<g id="node17" class="node"><title>Node17</title>
<g id="a_node17"><a xlink:title="STL class. ">
<polygon fill="white" stroke="#bfbfbf" points="516,-99 516,-118 576,-118 576,-99 516,-99"/>
<text text-anchor="middle" x="546" y="-106" font-family="Helvetica,sans-Serif" font-size="10.00">std::string</text>
</a>
</g>
</g>
<!-- Node17&#45;&gt;Node9 -->
<g id="edge17" class="edge"><title>Node17&#45;&gt;Node9</title>
<path fill="none" stroke="#9a32cd" stroke-dasharray="5,2" d="M586.453,-112.545C622.824,-116.516 678.24,-123.181 726,-131.5 738.863,-133.74 752.975,-136.76 764.993,-139.503"/>
<polygon fill="#9a32cd" stroke="#9a32cd" points="586.581,-109.039 576.264,-111.449 585.833,-115.998 586.581,-109.039"/>
<text text-anchor="middle" x="677.5" y="-134.5" font-family="Helvetica,sans-Serif" font-size="10.00"> m_name</text>
</g>
<!-- Node18 -->
<g id="node18" class="node"><title>Node18</title>
<g id="a_node18"><a xlink:title="STL class. ">
<polygon fill="white" stroke="#bfbfbf" points="284.5,-93.5 284.5,-123.5 379.5,-123.5 379.5,-93.5 284.5,-93.5"/>
<text text-anchor="start" x="292.5" y="-111.5" font-family="Helvetica,sans-Serif" font-size="10.00">std::basic_string&lt;</text>
<text text-anchor="middle" x="332" y="-100.5" font-family="Helvetica,sans-Serif" font-size="10.00"> char &gt;</text>
</a>
</g>
</g>
<!-- Node18&#45;&gt;Node17 -->
<g id="edge18" class="edge"><title>Node18&#45;&gt;Node17</title>
<path fill="none" stroke="midnightblue" d="M389.576,-108.5C430.251,-108.5 483.436,-108.5 515.864,-108.5"/>
<polygon fill="midnightblue" stroke="midnightblue" points="389.524,-105 379.524,-108.5 389.524,-112 389.524,-105"/>
</g>
<!-- Node19 -->
<g id="node19" class="node"><title>Node19</title>
<polygon fill="white" stroke="#bfbfbf" points="500,-49.5 500,-79.5 592,-79.5 592,-49.5 500,-49.5"/>
<text text-anchor="start" x="508" y="-67.5" font-family="Helvetica,sans-Serif" font-size="10.00">std::vector&lt; Elf32</text>
<text text-anchor="middle" x="546" y="-56.5" font-family="Helvetica,sans-Serif" font-size="10.00">_Shdr &gt;</text>
</g>
<!-- Node19&#45;&gt;Node9 -->
<g id="edge19" class="edge"><title>Node19&#45;&gt;Node9</title>
<path fill="none" stroke="#9a32cd" stroke-dasharray="5,2" d="M602.414,-71.4624C638.556,-77.2297 686.227,-87.1885 726,-103.5 746.936,-112.086 768.605,-127.025 781.696,-136.838"/>
<polygon fill="#9a32cd" stroke="#9a32cd" points="602.481,-67.9319 592.066,-69.8749 601.42,-74.8509 602.481,-67.9319"/>
<text text-anchor="middle" x="677.5" y="-106.5" font-family="Helvetica,sans-Serif" font-size="10.00"> m_sectionHeaders</text>
</g>
<!-- Node20 -->
<g id="node20" class="node"><title>Node20</title>
<g id="a_node20"><a xlink:href="struct_elf32___shdr.html" target="_top" xlink:title="ELF section header. ">
<polygon fill="white" stroke="black" points="300,-55 300,-74 364,-74 364,-55 300,-55"/>
<text text-anchor="middle" x="332" y="-62" font-family="Helvetica,sans-Serif" font-size="10.00">Elf32_Shdr</text>
</a>
</g>
</g>
<!-- Node20&#45;&gt;Node19 -->
<g id="edge20" class="edge"><title>Node20&#45;&gt;Node19</title>
<path fill="none" stroke="#9a32cd" stroke-dasharray="5,2" d="M374.467,-64.5C410.553,-64.5 462.749,-64.5 499.874,-64.5"/>
<polygon fill="#9a32cd" stroke="#9a32cd" points="374.281,-61.0001 364.281,-64.5 374.281,-68.0001 374.281,-61.0001"/>
<text text-anchor="middle" x="440" y="-67.5" font-family="Helvetica,sans-Serif" font-size="10.00"> elements</text>
</g>
<!-- Node21 -->
<g id="node21" class="node"><title>Node21</title>
<polygon fill="white" stroke="#bfbfbf" points="493,-0.5 493,-30.5 599,-30.5 599,-0.5 493,-0.5"/>
<text text-anchor="start" x="501" y="-18.5" font-family="Helvetica,sans-Serif" font-size="10.00">std::map&lt; unsigned,</text>
<text text-anchor="middle" x="546" y="-7.5" font-family="Helvetica,sans-Serif" font-size="10.00"> SectionDataInfo &gt;</text>
</g>
<!-- Node21&#45;&gt;Node9 -->
<g id="edge21" class="edge"><title>Node21&#45;&gt;Node9</title>
<path fill="none" stroke="#9a32cd" stroke-dasharray="5,2" d="M609.114,-21.5332C645.499,-27.3853 691.023,-38.8931 726,-61.5 756.473,-81.1961 779.487,-119.161 789.089,-136.912"/>
<polygon fill="#9a32cd" stroke="#9a32cd" points="609.52,-18.055 599.111,-20.0281 608.478,-24.977 609.52,-18.055"/>
<text text-anchor="middle" x="677.5" y="-64.5" font-family="Helvetica,sans-Serif" font-size="10.00"> m_sectionDataCache</text>
</g>
<!-- Node22 -->
<g id="node22" class="node"><title>Node22</title>
<g id="a_node22"><a xlink:href="class_st_e_l_f_file.html#struct_st_e_l_f_file_1_1_section_data_info" target="_top" xlink:title="StELFFile::SectionDataInfo">
<polygon fill="white" stroke="black" points="265,-6 265,-25 399,-25 399,-6 265,-6"/>
<text text-anchor="middle" x="332" y="-13" font-family="Helvetica,sans-Serif" font-size="10.00">StELFFile::SectionDataInfo</text>
</a>
</g>
</g>
<!-- Node22&#45;&gt;Node21 -->
<g id="edge22" class="edge"><title>Node22&#45;&gt;Node21</title>
<path fill="none" stroke="#9a32cd" stroke-dasharray="5,2" d="M409.257,-15.5C436.942,-15.5 467.572,-15.5 492.719,-15.5"/>
<polygon fill="#9a32cd" stroke="#9a32cd" points="409.206,-12.0001 399.206,-15.5 409.206,-19.0001 409.206,-12.0001"/>
<text text-anchor="middle" x="440" y="-18.5" font-family="Helvetica,sans-Serif" font-size="10.00"> elements</text>
</g>
</g>
</svg>
