<?xml version="1.0" encoding="UTF-8" standalone="no"?>
<!DOCTYPE svg PUBLIC "-//W3C//DTD SVG 1.1//EN"
 "http://www.w3.org/Graphics/SVG/1.1/DTD/svg11.dtd">
<!-- Generated by graphviz version 2.38.0 (20140413.2041)
 -->
<!-- Title: elftosb::AssignmentASTNode Pages: 1 -->
<svg width="296pt" height="251pt"
 viewBox="0.00 0.00 296.00 251.00" xmlns="http://www.w3.org/2000/svg" xmlns:xlink="http://www.w3.org/1999/xlink">
<g id="graph0" class="graph" transform="scale(1 1) rotate(0) translate(4 247)">
<title>elftosb::AssignmentASTNode</title>
<polygon fill="white" stroke="none" points="-4,4 -4,-247 292,-247 292,4 -4,4"/>
<!-- Node1 -->
<g id="node1" class="node"><title>Node1</title>
<polygon fill="#bfbfbf" stroke="black" points="31.5,-0.5 31.5,-19.5 175.5,-19.5 175.5,-0.5 31.5,-0.5"/>
<text text-anchor="middle" x="103.5" y="-7.5" font-family="Helvetica,sans-Serif" font-size="10.00">elftosb::AssignmentASTNode</text>
</g>
<!-- Node2 -->
<g id="node2" class="node"><title>Node2</title>
<g id="a_node2"><a xlink:href="classelftosb_1_1_a_s_t_node.html" target="_top" xlink:title="The base class for all AST node classes. ">
<polygon fill="white" stroke="black" points="4.5,-145.5 4.5,-164.5 96.5,-164.5 96.5,-145.5 4.5,-145.5"/>
<text text-anchor="middle" x="50.5" y="-152.5" font-family="Helvetica,sans-Serif" font-size="10.00">elftosb::ASTNode</text>
</a>
</g>
</g>
<!-- Node2&#45;&gt;Node1 -->
<g id="edge1" class="edge"><title>Node2&#45;&gt;Node1</title>
<path fill="none" stroke="midnightblue" d="M45.2075,-135.543C40.9967,-117.362 37.2017,-89.1701 46.5,-67 55.2457,-46.1474 75.9627,-29.1463 89.8607,-19.5459"/>
<polygon fill="midnightblue" stroke="midnightblue" points="41.8721,-136.624 47.7697,-145.426 48.6481,-134.868 41.8721,-136.624"/>
</g>
<!-- Node2&#45;&gt;Node2 -->
<g id="edge3" class="edge"><title>Node2&#45;&gt;Node2</title>
<path fill="none" stroke="#9a32cd" stroke-dasharray="5,2" d="M106.774,-159.66C111.534,-158.663 114.5,-157.109 114.5,-155 114.5,-151.625 106.906,-149.674 96.5242,-149.146"/>
<polygon fill="#9a32cd" stroke="#9a32cd" points="106.052,-156.22 96.5242,-160.854 106.862,-163.173 106.052,-156.22"/>
<text text-anchor="middle" x="136.5" y="-152.5" font-family="Helvetica,sans-Serif" font-size="10.00"> m_parent</text>
</g>
<!-- Node4 -->
<g id="node4" class="node"><title>Node4</title>
<g id="a_node4"><a xlink:href="group__smart__pointer.html" target="_top" xlink:title="smart_ptr\&lt; elftosb\l::ASTNode \&gt;">
<polygon fill="white" stroke="black" points="56,-67.5 56,-97.5 151,-97.5 151,-67.5 56,-67.5"/>
<text text-anchor="start" x="64" y="-85.5" font-family="Helvetica,sans-Serif" font-size="10.00">smart_ptr&lt; elftosb</text>
<text text-anchor="middle" x="103.5" y="-74.5" font-family="Helvetica,sans-Serif" font-size="10.00">::ASTNode &gt;</text>
</a>
</g>
</g>
<!-- Node2&#45;&gt;Node4 -->
<g id="edge5" class="edge"><title>Node2&#45;&gt;Node4</title>
<path fill="none" stroke="#9a32cd" stroke-dasharray="5,2" d="M63.2509,-137.039C72.3254,-124.968 84.3749,-108.94 92.9179,-97.5762"/>
<polygon fill="#9a32cd" stroke="#9a32cd" points="60.2103,-135.259 56.9988,-145.355 65.8056,-139.465 60.2103,-135.259"/>
<text text-anchor="middle" x="86.5" y="-119" font-family="Helvetica,sans-Serif" font-size="10.00"> _p</text>
</g>
<!-- Node3 -->
<g id="node3" class="node"><title>Node3</title>
<g id="a_node3"><a xlink:href="structelftosb_1_1token__loc__t.html" target="_top" xlink:title="Token location in the source file. ">
<polygon fill="white" stroke="black" points="0,-218 0,-237 101,-237 101,-218 0,-218"/>
<text text-anchor="middle" x="50.5" y="-225" font-family="Helvetica,sans-Serif" font-size="10.00">elftosb::token_loc_t</text>
</a>
</g>
</g>
<!-- Node3&#45;&gt;Node2 -->
<g id="edge2" class="edge"><title>Node3&#45;&gt;Node2</title>
<path fill="none" stroke="#9a32cd" stroke-dasharray="5,2" d="M50.5,-207.442C50.5,-193.53 50.5,-175.32 50.5,-164.715"/>
<polygon fill="#9a32cd" stroke="#9a32cd" points="47.0001,-207.855 50.5,-217.855 54.0001,-207.855 47.0001,-207.855"/>
<text text-anchor="middle" x="76" y="-186" font-family="Helvetica,sans-Serif" font-size="10.00"> m_location</text>
</g>
<!-- Node4&#45;&gt;Node1 -->
<g id="edge4" class="edge"><title>Node4&#45;&gt;Node1</title>
<path fill="none" stroke="#9a32cd" stroke-dasharray="5,2" d="M103.5,-57.0913C103.5,-44.2136 103.5,-29.1974 103.5,-19.8932"/>
<polygon fill="#9a32cd" stroke="#9a32cd" points="100,-57.2332 103.5,-67.2333 107,-57.2333 100,-57.2332"/>
<text text-anchor="middle" x="123" y="-41" font-family="Helvetica,sans-Serif" font-size="10.00"> m_value</text>
</g>
<!-- Node5 -->
<g id="node5" class="node"><title>Node5</title>
<g id="a_node5"><a xlink:href="group__smart__pointer.html" target="_top" xlink:title="smart_ptr\&lt; std::string \&gt;">
<polygon fill="white" stroke="black" points="169,-73 169,-92 288,-92 288,-73 169,-73"/>
<text text-anchor="middle" x="228.5" y="-80" font-family="Helvetica,sans-Serif" font-size="10.00">smart_ptr&lt; std::string &gt;</text>
</a>
</g>
</g>
<!-- Node5&#45;&gt;Node1 -->
<g id="edge6" class="edge"><title>Node5&#45;&gt;Node1</title>
<path fill="none" stroke="#9a32cd" stroke-dasharray="5,2" d="M204.23,-67.8119C179.007,-53.5859 140.294,-31.7519 118.953,-19.7154"/>
<polygon fill="#9a32cd" stroke="#9a32cd" points="202.743,-70.9913 213.173,-72.8553 206.182,-64.8942 202.743,-70.9913"/>
<text text-anchor="middle" x="189.5" y="-41" font-family="Helvetica,sans-Serif" font-size="10.00"> m_ident</text>
</g>
<!-- Node6 -->
<g id="node6" class="node"><title>Node6</title>
<g id="a_node6"><a xlink:title="STL class. ">
<polygon fill="white" stroke="#bfbfbf" points="198.5,-145.5 198.5,-164.5 258.5,-164.5 258.5,-145.5 198.5,-145.5"/>
<text text-anchor="middle" x="228.5" y="-152.5" font-family="Helvetica,sans-Serif" font-size="10.00">std::string</text>
</a>
</g>
</g>
<!-- Node6&#45;&gt;Node5 -->
<g id="edge7" class="edge"><title>Node6&#45;&gt;Node5</title>
<path fill="none" stroke="#9a32cd" stroke-dasharray="5,2" d="M228.5,-134.942C228.5,-121.03 228.5,-102.82 228.5,-92.2154"/>
<polygon fill="#9a32cd" stroke="#9a32cd" points="225,-135.355 228.5,-145.355 232,-135.355 225,-135.355"/>
<text text-anchor="middle" x="235.5" y="-119" font-family="Helvetica,sans-Serif" font-size="10.00"> _p</text>
</g>
<!-- Node7 -->
<g id="node7" class="node"><title>Node7</title>
<g id="a_node7"><a xlink:title="STL class. ">
<polygon fill="white" stroke="#bfbfbf" points="181,-212.5 181,-242.5 276,-242.5 276,-212.5 181,-212.5"/>
<text text-anchor="start" x="189" y="-230.5" font-family="Helvetica,sans-Serif" font-size="10.00">std::basic_string&lt;</text>
<text text-anchor="middle" x="228.5" y="-219.5" font-family="Helvetica,sans-Serif" font-size="10.00"> char &gt;</text>
</a>
</g>
</g>
<!-- Node7&#45;&gt;Node6 -->
<g id="edge8" class="edge"><title>Node7&#45;&gt;Node6</title>
<path fill="none" stroke="midnightblue" d="M228.5,-202.091C228.5,-189.214 228.5,-174.197 228.5,-164.893"/>
<polygon fill="midnightblue" stroke="midnightblue" points="225,-202.233 228.5,-212.233 232,-202.233 225,-202.233"/>
</g>
</g>
</svg>
