<?xml version="1.0" encoding="UTF-8" standalone="no"?>
<!DOCTYPE svg PUBLIC "-//W3C//DTD SVG 1.1//EN"
 "http://www.w3.org/Graphics/SVG/1.1/DTD/svg11.dtd">
<!-- Generated by graphviz version 2.38.0 (20140413.2041)
 -->
<!-- Title: elftosb::EncoreBootImage::BootCommand Pages: 1 -->
<svg width="628pt" height="480pt"
 viewBox="0.00 0.00 628.00 480.00" xmlns="http://www.w3.org/2000/svg" xmlns:xlink="http://www.w3.org/1999/xlink">
<g id="graph0" class="graph" transform="scale(1 1) rotate(0) translate(4 476)">
<title>elftosb::EncoreBootImage::BootCommand</title>
<polygon fill="white" stroke="none" points="-4,4 -4,-476 624,-476 624,4 -4,4"/>
<!-- Node1 -->
<g id="node1" class="node"><title>Node1</title>
<polygon fill="#bfbfbf" stroke="black" points="164,-220.5 164,-250.5 292,-250.5 292,-220.5 164,-220.5"/>
<text text-anchor="start" x="172" y="-238.5" font-family="Helvetica,sans-Serif" font-size="10.00">elftosb::EncoreBootImage</text>
<text text-anchor="middle" x="228" y="-227.5" font-family="Helvetica,sans-Serif" font-size="10.00">::BootCommand</text>
</g>
<!-- Node3 -->
<g id="node3" class="node"><title>Node3</title>
<g id="a_node3"><a xlink:href="classelftosb_1_1_encore_boot_image_1_1_erase_command.html" target="_top" xlink:title="Erase bootloader command. ">
<polygon fill="white" stroke="black" points="328,-441.5 328,-471.5 456,-471.5 456,-441.5 328,-441.5"/>
<text text-anchor="start" x="336" y="-459.5" font-family="Helvetica,sans-Serif" font-size="10.00">elftosb::EncoreBootImage</text>
<text text-anchor="middle" x="392" y="-448.5" font-family="Helvetica,sans-Serif" font-size="10.00">::EraseCommand</text>
</a>
</g>
</g>
<!-- Node1&#45;&gt;Node3 -->
<g id="edge2" class="edge"><title>Node1&#45;&gt;Node3</title>
<path fill="none" stroke="midnightblue" d="M235.278,-260.228C246.886,-301.219 275.448,-383.475 328,-431.5 332.169,-435.31 336.99,-438.571 342.071,-441.353"/>
<polygon fill="midnightblue" stroke="midnightblue" points="238.636,-259.238 232.627,-250.511 231.882,-261.08 238.636,-259.238"/>
</g>
<!-- Node4 -->
<g id="node4" class="node"><title>Node4</title>
<g id="a_node4"><a xlink:href="classelftosb_1_1_encore_boot_image_1_1_fill_command.html" target="_top" xlink:title="Pattern fill bootloader command. ">
<polygon fill="white" stroke="black" points="328,-392.5 328,-422.5 456,-422.5 456,-392.5 328,-392.5"/>
<text text-anchor="start" x="336" y="-410.5" font-family="Helvetica,sans-Serif" font-size="10.00">elftosb::EncoreBootImage</text>
<text text-anchor="middle" x="392" y="-399.5" font-family="Helvetica,sans-Serif" font-size="10.00">::FillCommand</text>
</a>
</g>
</g>
<!-- Node1&#45;&gt;Node4 -->
<g id="edge3" class="edge"><title>Node1&#45;&gt;Node4</title>
<path fill="none" stroke="midnightblue" d="M239.653,-259.747C254.912,-291.913 285.867,-348.572 328,-382.5 332.766,-386.338 338.195,-389.648 343.821,-392.486"/>
<polygon fill="midnightblue" stroke="midnightblue" points="242.8,-258.211 235.427,-250.603 236.445,-261.148 242.8,-258.211"/>
</g>
<!-- Node5 -->
<g id="node5" class="node"><title>Node5</title>
<g id="a_node5"><a xlink:href="classelftosb_1_1_encore_boot_image_1_1_jump_command.html" target="_top" xlink:title="Jump to address bootloader command. ">
<polygon fill="white" stroke="black" points="328,-343.5 328,-373.5 456,-373.5 456,-343.5 328,-343.5"/>
<text text-anchor="start" x="336" y="-361.5" font-family="Helvetica,sans-Serif" font-size="10.00">elftosb::EncoreBootImage</text>
<text text-anchor="middle" x="392" y="-350.5" font-family="Helvetica,sans-Serif" font-size="10.00">::JumpCommand</text>
</a>
</g>
</g>
<!-- Node1&#45;&gt;Node5 -->
<g id="edge4" class="edge"><title>Node1&#45;&gt;Node5</title>
<path fill="none" stroke="midnightblue" d="M247.413,-258.464C265.865,-280.228 296.051,-312.612 328,-333.5 333.712,-337.235 340.07,-340.561 346.488,-343.471"/>
<polygon fill="midnightblue" stroke="midnightblue" points="250.026,-256.132 240.937,-250.689 244.648,-260.612 250.026,-256.132"/>
</g>
<!-- Node7 -->
<g id="node7" class="node"><title>Node7</title>
<g id="a_node7"><a xlink:href="classelftosb_1_1_encore_boot_image_1_1_load_command.html" target="_top" xlink:title="Load data bootloader command. ">
<polygon fill="white" stroke="black" points="328,-294.5 328,-324.5 456,-324.5 456,-294.5 328,-294.5"/>
<text text-anchor="start" x="336" y="-312.5" font-family="Helvetica,sans-Serif" font-size="10.00">elftosb::EncoreBootImage</text>
<text text-anchor="middle" x="392" y="-301.5" font-family="Helvetica,sans-Serif" font-size="10.00">::LoadCommand</text>
</a>
</g>
</g>
<!-- Node1&#45;&gt;Node7 -->
<g id="edge6" class="edge"><title>Node1&#45;&gt;Node7</title>
<path fill="none" stroke="midnightblue" d="M267.294,-255.365C285.515,-264.582 307.708,-275.47 328,-284.5 335.526,-287.849 343.646,-291.235 351.473,-294.389"/>
<polygon fill="midnightblue" stroke="midnightblue" points="268.658,-252.132 258.158,-250.716 265.483,-258.371 268.658,-252.132"/>
</g>
<!-- Node8 -->
<g id="node8" class="node"><title>Node8</title>
<g id="a_node8"><a xlink:href="classelftosb_1_1_encore_boot_image_1_1_mem_enable_command.html" target="_top" xlink:title="Memory Enable bootloader command. ">
<polygon fill="white" stroke="black" points="328,-245.5 328,-275.5 456,-275.5 456,-245.5 328,-245.5"/>
<text text-anchor="start" x="336" y="-263.5" font-family="Helvetica,sans-Serif" font-size="10.00">elftosb::EncoreBootImage</text>
<text text-anchor="middle" x="392" y="-252.5" font-family="Helvetica,sans-Serif" font-size="10.00">::MemEnableCommand</text>
</a>
</g>
</g>
<!-- Node1&#45;&gt;Node8 -->
<g id="edge7" class="edge"><title>Node1&#45;&gt;Node8</title>
<path fill="none" stroke="midnightblue" d="M302.094,-246.78C310.676,-248.104 319.378,-249.447 327.808,-250.748"/>
<polygon fill="midnightblue" stroke="midnightblue" points="302.514,-243.303 292.097,-245.237 301.446,-250.222 302.514,-243.303"/>
</g>
<!-- Node9 -->
<g id="node9" class="node"><title>Node9</title>
<g id="a_node9"><a xlink:href="classelftosb_1_1_encore_boot_image_1_1_mode_command.html" target="_top" xlink:title="Change boot mode bootloader command. ">
<polygon fill="white" stroke="black" points="328,-196.5 328,-226.5 456,-226.5 456,-196.5 328,-196.5"/>
<text text-anchor="start" x="336" y="-214.5" font-family="Helvetica,sans-Serif" font-size="10.00">elftosb::EncoreBootImage</text>
<text text-anchor="middle" x="392" y="-203.5" font-family="Helvetica,sans-Serif" font-size="10.00">::ModeCommand</text>
</a>
</g>
</g>
<!-- Node1&#45;&gt;Node9 -->
<g id="edge8" class="edge"><title>Node1&#45;&gt;Node9</title>
<path fill="none" stroke="midnightblue" d="M302.094,-224.671C310.676,-223.4 319.378,-222.111 327.808,-220.862"/>
<polygon fill="midnightblue" stroke="midnightblue" points="301.476,-221.224 292.097,-226.152 302.502,-228.149 301.476,-221.224"/>
</g>
<!-- Node10 -->
<g id="node10" class="node"><title>Node10</title>
<g id="a_node10"><a xlink:href="classelftosb_1_1_encore_boot_image_1_1_nop_command.html" target="_top" xlink:title="No operation bootloader command. ">
<polygon fill="white" stroke="black" points="328,-147.5 328,-177.5 456,-177.5 456,-147.5 328,-147.5"/>
<text text-anchor="start" x="336" y="-165.5" font-family="Helvetica,sans-Serif" font-size="10.00">elftosb::EncoreBootImage</text>
<text text-anchor="middle" x="392" y="-154.5" font-family="Helvetica,sans-Serif" font-size="10.00">::NopCommand</text>
</a>
</g>
</g>
<!-- Node1&#45;&gt;Node10 -->
<g id="edge9" class="edge"><title>Node1&#45;&gt;Node10</title>
<path fill="none" stroke="midnightblue" d="M266.586,-215.84C284.916,-206.525 307.403,-195.496 328,-186.5 334.972,-183.455 342.465,-180.409 349.765,-177.559"/>
<polygon fill="midnightblue" stroke="midnightblue" points="264.988,-212.726 257.68,-220.397 268.177,-218.957 264.988,-212.726"/>
</g>
<!-- Node11 -->
<g id="node11" class="node"><title>Node11</title>
<g id="a_node11"><a xlink:href="classelftosb_1_1_encore_boot_image_1_1_program_command.html" target="_top" xlink:title="Program persistent bits bootloader command. ">
<polygon fill="white" stroke="black" points="328,-98.5 328,-128.5 456,-128.5 456,-98.5 328,-98.5"/>
<text text-anchor="start" x="336" y="-116.5" font-family="Helvetica,sans-Serif" font-size="10.00">elftosb::EncoreBootImage</text>
<text text-anchor="middle" x="392" y="-105.5" font-family="Helvetica,sans-Serif" font-size="10.00">::ProgramCommand</text>
</a>
</g>
</g>
<!-- Node1&#45;&gt;Node11 -->
<g id="edge10" class="edge"><title>Node1&#45;&gt;Node11</title>
<path fill="none" stroke="midnightblue" d="M247.35,-212.439C265.755,-190.603 295.908,-158.168 328,-137.5 333.215,-134.141 338.971,-131.145 344.821,-128.504"/>
<polygon fill="midnightblue" stroke="midnightblue" points="244.571,-210.307 240.892,-220.242 249.964,-214.77 244.571,-210.307"/>
</g>
<!-- Node12 -->
<g id="node12" class="node"><title>Node12</title>
<g id="a_node12"><a xlink:href="classelftosb_1_1_encore_boot_image_1_1_reset_command.html" target="_top" xlink:title="Reset target bootloader command. ">
<polygon fill="white" stroke="black" points="328,-49.5 328,-79.5 456,-79.5 456,-49.5 328,-49.5"/>
<text text-anchor="start" x="336" y="-67.5" font-family="Helvetica,sans-Serif" font-size="10.00">elftosb::EncoreBootImage</text>
<text text-anchor="middle" x="392" y="-56.5" font-family="Helvetica,sans-Serif" font-size="10.00">::ResetCommand</text>
</a>
</g>
</g>
<!-- Node1&#45;&gt;Node12 -->
<g id="edge11" class="edge"><title>Node1&#45;&gt;Node12</title>
<path fill="none" stroke="midnightblue" d="M239.585,-211.168C254.766,-178.905 285.634,-122.137 328,-88.5 332.308,-85.0795 337.158,-82.106 342.205,-79.5306"/>
<polygon fill="midnightblue" stroke="midnightblue" points="236.365,-209.792 235.382,-220.341 242.729,-212.708 236.365,-209.792"/>
</g>
<!-- Node13 -->
<g id="node13" class="node"><title>Node13</title>
<g id="a_node13"><a xlink:href="classelftosb_1_1_encore_boot_image_1_1_tag_command.html" target="_top" xlink:title="Section tag bootloader command. ">
<polygon fill="white" stroke="black" points="328,-0.5 328,-30.5 456,-30.5 456,-0.5 328,-0.5"/>
<text text-anchor="start" x="336" y="-18.5" font-family="Helvetica,sans-Serif" font-size="10.00">elftosb::EncoreBootImage</text>
<text text-anchor="middle" x="392" y="-7.5" font-family="Helvetica,sans-Serif" font-size="10.00">::TagCommand</text>
</a>
</g>
</g>
<!-- Node1&#45;&gt;Node13 -->
<g id="edge12" class="edge"><title>Node1&#45;&gt;Node13</title>
<path fill="none" stroke="midnightblue" d="M235.205,-210.692C246.707,-169.585 275.118,-87.1619 328,-39.5 331.825,-36.0522 336.197,-33.0806 340.814,-30.5233"/>
<polygon fill="midnightblue" stroke="midnightblue" points="231.802,-209.872 232.581,-220.438 238.561,-211.692 231.802,-209.872"/>
</g>
<!-- Node2 -->
<g id="node2" class="node"><title>Node2</title>
<g id="a_node2"><a xlink:href="classelftosb_1_1_encore_boot_image_1_1_cipher_block_generator.html" target="_top" xlink:title="Base class for objects that produce cipher blocks. ">
<polygon fill="white" stroke="black" points="0,-220.5 0,-250.5 128,-250.5 128,-220.5 0,-220.5"/>
<text text-anchor="start" x="8" y="-238.5" font-family="Helvetica,sans-Serif" font-size="10.00">elftosb::EncoreBootImage</text>
<text text-anchor="middle" x="64" y="-227.5" font-family="Helvetica,sans-Serif" font-size="10.00">::CipherBlockGenerator</text>
</a>
</g>
</g>
<!-- Node2&#45;&gt;Node1 -->
<g id="edge1" class="edge"><title>Node2&#45;&gt;Node1</title>
<path fill="none" stroke="midnightblue" d="M138.374,-235.5C146.865,-235.5 155.469,-235.5 163.808,-235.5"/>
<polygon fill="midnightblue" stroke="midnightblue" points="138.097,-232 128.097,-235.5 138.097,-239 138.097,-232"/>
</g>
<!-- Node6 -->
<g id="node6" class="node"><title>Node6</title>
<g id="a_node6"><a xlink:href="classelftosb_1_1_encore_boot_image_1_1_call_command.html" target="_top" xlink:title="Call function bootloader command. ">
<polygon fill="white" stroke="black" points="492,-343.5 492,-373.5 620,-373.5 620,-343.5 492,-343.5"/>
<text text-anchor="start" x="500" y="-361.5" font-family="Helvetica,sans-Serif" font-size="10.00">elftosb::EncoreBootImage</text>
<text text-anchor="middle" x="556" y="-350.5" font-family="Helvetica,sans-Serif" font-size="10.00">::CallCommand</text>
</a>
</g>
</g>
<!-- Node5&#45;&gt;Node6 -->
<g id="edge5" class="edge"><title>Node5&#45;&gt;Node6</title>
<path fill="none" stroke="midnightblue" d="M466.374,-358.5C474.865,-358.5 483.469,-358.5 491.808,-358.5"/>
<polygon fill="midnightblue" stroke="midnightblue" points="466.097,-355 456.097,-358.5 466.097,-362 466.097,-355"/>
</g>
</g>
</svg>
