<?xml version="1.0" encoding="UTF-8" standalone="no"?>
<!DOCTYPE svg PUBLIC "-//W3C//DTD SVG 1.1//EN"
 "http://www.w3.org/Graphics/SVG/1.1/DTD/svg11.dtd">
<!-- Generated by graphviz version 2.38.0 (20140413.2041)
 -->
<!-- Title: elftosb::ConstantDataTarget Pages: 1 -->
<svg width="266pt" height="95pt"
 viewBox="0.00 0.00 265.50 95.00" xmlns="http://www.w3.org/2000/svg" xmlns:xlink="http://www.w3.org/1999/xlink">
<g id="graph0" class="graph" transform="scale(1 1) rotate(0) translate(4 91)">
<title>elftosb::ConstantDataTarget</title>
<polygon fill="white" stroke="none" points="-4,4 -4,-91 261.5,-91 261.5,4 -4,4"/>
<!-- Node1 -->
<g id="node1" class="node"><title>Node1</title>
<polygon fill="#bfbfbf" stroke="black" points="0,-0.5 0,-19.5 137,-19.5 137,-0.5 0,-0.5"/>
<text text-anchor="middle" x="68.5" y="-7.5" font-family="Helvetica,sans-Serif" font-size="10.00">elftosb::ConstantDataTarget</text>
</g>
<!-- Node2 -->
<g id="node2" class="node"><title>Node2</title>
<g id="a_node2"><a xlink:href="classelftosb_1_1_data_target.html" target="_top" xlink:title="Abstract base class for the target address or range of data. ">
<polygon fill="white" stroke="black" points="92.5,-67.5 92.5,-86.5 190.5,-86.5 190.5,-67.5 92.5,-67.5"/>
<text text-anchor="middle" x="141.5" y="-74.5" font-family="Helvetica,sans-Serif" font-size="10.00">elftosb::DataTarget</text>
</a>
</g>
</g>
<!-- Node2&#45;&gt;Node1 -->
<g id="edge1" class="edge"><title>Node2&#45;&gt;Node1</title>
<path fill="none" stroke="midnightblue" d="M123.931,-60.3564C109.58,-47.5777 89.829,-29.9915 78.1891,-19.6273"/>
<polygon fill="midnightblue" stroke="midnightblue" points="121.859,-63.1978 131.655,-67.2338 126.514,-57.9698 121.859,-63.1978"/>
</g>
<!-- Node3 -->
<g id="node3" class="node"><title>Node3</title>
<g id="a_node3"><a xlink:href="classelftosb_1_1_data_source.html" target="_top" xlink:title="Abstract base class for data sources. ">
<polygon fill="white" stroke="black" points="155.5,-0.5 155.5,-19.5 257.5,-19.5 257.5,-0.5 155.5,-0.5"/>
<text text-anchor="middle" x="206.5" y="-7.5" font-family="Helvetica,sans-Serif" font-size="10.00">elftosb::DataSource</text>
</a>
</g>
</g>
<!-- Node2&#45;&gt;Node3 -->
<g id="edge3" class="edge"><title>Node2&#45;&gt;Node3</title>
<path fill="none" stroke="#9a32cd" stroke-dasharray="5,2" d="M135.41,-57.2017C134.419,-50.642 134.738,-43.542 138.5,-38 144.35,-29.3825 153.43,-23.5154 163.069,-19.5208"/>
<polygon fill="#9a32cd" stroke="#9a32cd" points="132.126,-58.5005 137.936,-67.3606 138.92,-56.8116 132.126,-58.5005"/>
<text text-anchor="middle" x="159.5" y="-41" font-family="Helvetica,sans-Serif" font-size="10.00"> m_target</text>
</g>
<!-- Node3&#45;&gt;Node2 -->
<g id="edge2" class="edge"><title>Node3&#45;&gt;Node2</title>
<path fill="none" stroke="#9a32cd" stroke-dasharray="5,2" d="M198.486,-28.8304C194.86,-35.6479 190.119,-43.1761 184.5,-49 177.278,-56.4859 167.578,-62.8072 159.219,-67.4471"/>
<polygon fill="#9a32cd" stroke="#9a32cd" points="201.735,-30.154 202.973,-19.6318 195.443,-27.0855 201.735,-30.154"/>
<text text-anchor="middle" x="216.5" y="-41" font-family="Helvetica,sans-Serif" font-size="10.00"> m_source</text>
</g>
</g>
</svg>
