<?xml version="1.0" encoding="UTF-8" standalone="no"?>
<!DOCTYPE svg PUBLIC "-//W3C//DTD SVG 1.1//EN"
 "http://www.w3.org/Graphics/SVG/1.1/DTD/svg11.dtd">
<!-- Generated by graphviz version 2.38.0 (20140413.2041)
 -->
<!-- Title: elftosb::LoadOperation Pages: 1 -->
<svg width="433pt" height="140pt"
 viewBox="0.00 0.00 432.50 140.00" xmlns="http://www.w3.org/2000/svg" xmlns:xlink="http://www.w3.org/1999/xlink">
<g id="graph0" class="graph" transform="scale(1 1) rotate(0) translate(4 136)">
<title>elftosb::LoadOperation</title>
<polygon fill="white" stroke="none" points="-4,4 -4,-136 428.5,-136 428.5,4 -4,4"/>
<!-- Node1 -->
<g id="node1" class="node"><title>Node1</title>
<polygon fill="#bfbfbf" stroke="black" points="153.5,-56.5 153.5,-75.5 267.5,-75.5 267.5,-56.5 153.5,-56.5"/>
<text text-anchor="middle" x="210.5" y="-63.5" font-family="Helvetica,sans-Serif" font-size="10.00">elftosb::LoadOperation</text>
</g>
<!-- Node3 -->
<g id="node3" class="node"><title>Node3</title>
<g id="a_node3"><a xlink:href="classelftosb_1_1_encrypt_operation.html" target="_top" xlink:title="Operation to encrypt data for OTFAD. ">
<polygon fill="white" stroke="black" points="0,-0.5 0,-19.5 127,-19.5 127,-0.5 0,-0.5"/>
<text text-anchor="middle" x="63.5" y="-7.5" font-family="Helvetica,sans-Serif" font-size="10.00">elftosb::EncryptOperation</text>
</a>
</g>
</g>
<!-- Node1&#45;&gt;Node3 -->
<g id="edge2" class="edge"><title>Node1&#45;&gt;Node3</title>
<path fill="none" stroke="midnightblue" d="M177.577,-52.9058C149.94,-42.7536 111.156,-28.5063 86.6836,-19.5164"/>
<polygon fill="midnightblue" stroke="midnightblue" points="176.614,-56.2806 187.207,-56.4435 179.028,-49.71 176.614,-56.2806"/>
</g>
<!-- Node4 -->
<g id="node4" class="node"><title>Node4</title>
<g id="a_node4"><a xlink:href="classelftosb_1_1_keywrap_operation.html" target="_top" xlink:title="Operation to wrap and program keys. ">
<polygon fill="white" stroke="black" points="145,-0.5 145,-19.5 276,-19.5 276,-0.5 145,-0.5"/>
<text text-anchor="middle" x="210.5" y="-7.5" font-family="Helvetica,sans-Serif" font-size="10.00">elftosb::KeywrapOperation</text>
</a>
</g>
</g>
<!-- Node1&#45;&gt;Node4 -->
<g id="edge3" class="edge"><title>Node1&#45;&gt;Node4</title>
<path fill="none" stroke="midnightblue" d="M210.5,-45.8045C210.5,-36.9102 210.5,-26.7798 210.5,-19.7511"/>
<polygon fill="midnightblue" stroke="midnightblue" points="207,-46.083 210.5,-56.083 214,-46.083 207,-46.083"/>
</g>
<!-- Node5 -->
<g id="node5" class="node"><title>Node5</title>
<g id="a_node5"><a xlink:href="classelftosb_1_1_program_operation.html" target="_top" xlink:title="Operation to program persistent bits. ">
<polygon fill="white" stroke="black" points="294.5,-0.5 294.5,-19.5 424.5,-19.5 424.5,-0.5 294.5,-0.5"/>
<text text-anchor="middle" x="359.5" y="-7.5" font-family="Helvetica,sans-Serif" font-size="10.00">elftosb::ProgramOperation</text>
</a>
</g>
</g>
<!-- Node1&#45;&gt;Node5 -->
<g id="edge4" class="edge"><title>Node1&#45;&gt;Node5</title>
<path fill="none" stroke="midnightblue" d="M243.871,-52.9058C271.884,-42.7536 311.196,-28.5063 336.001,-19.5164"/>
<polygon fill="midnightblue" stroke="midnightblue" points="242.319,-49.7456 234.109,-56.4435 244.704,-56.3267 242.319,-49.7456"/>
</g>
<!-- Node2 -->
<g id="node2" class="node"><title>Node2</title>
<g id="a_node2"><a xlink:href="classelftosb_1_1_operation.html" target="_top" xlink:title="Abstract base class for all boot operations. ">
<polygon fill="white" stroke="black" points="164,-112.5 164,-131.5 257,-131.5 257,-112.5 164,-112.5"/>
<text text-anchor="middle" x="210.5" y="-119.5" font-family="Helvetica,sans-Serif" font-size="10.00">elftosb::Operation</text>
</a>
</g>
</g>
<!-- Node2&#45;&gt;Node1 -->
<g id="edge1" class="edge"><title>Node2&#45;&gt;Node1</title>
<path fill="none" stroke="midnightblue" d="M210.5,-101.805C210.5,-92.9102 210.5,-82.7798 210.5,-75.7511"/>
<polygon fill="midnightblue" stroke="midnightblue" points="207,-102.083 210.5,-112.083 214,-102.083 207,-102.083"/>
</g>
</g>
</svg>
