<?xml version="1.0" encoding="UTF-8" standalone="no"?>
<!DOCTYPE svg PUBLIC "-//W3C//DTD SVG 1.1//EN"
 "http://www.w3.org/Graphics/SVG/1.1/DTD/svg11.dtd">
<!-- Generated by graphviz version 2.38.0 (20140413.2041)
 -->
<!-- Title: elftosb::ExecuteOperation Pages: 1 -->
<svg width="335pt" height="173pt"
 viewBox="0.00 0.00 334.50 173.00" xmlns="http://www.w3.org/2000/svg" xmlns:xlink="http://www.w3.org/1999/xlink">
<g id="graph0" class="graph" transform="scale(1 1) rotate(0) translate(4 169)">
<title>elftosb::ExecuteOperation</title>
<polygon fill="white" stroke="none" points="-4,4 -4,-169 330.5,-169 330.5,4 -4,4"/>
<!-- Node1 -->
<g id="node1" class="node"><title>Node1</title>
<polygon fill="#bfbfbf" stroke="black" points="18,-0.5 18,-19.5 147,-19.5 147,-0.5 18,-0.5"/>
<text text-anchor="middle" x="82.5" y="-7.5" font-family="Helvetica,sans-Serif" font-size="10.00">elftosb::ExecuteOperation</text>
</g>
<!-- Node2 -->
<g id="node2" class="node"><title>Node2</title>
<g id="a_node2"><a xlink:href="classelftosb_1_1_operation.html" target="_top" xlink:title="Abstract base class for all boot operations. ">
<polygon fill="white" stroke="black" points="0,-73 0,-92 93,-92 93,-73 0,-73"/>
<text text-anchor="middle" x="46.5" y="-80" font-family="Helvetica,sans-Serif" font-size="10.00">elftosb::Operation</text>
</a>
</g>
</g>
<!-- Node2&#45;&gt;Node1 -->
<g id="edge1" class="edge"><title>Node2&#45;&gt;Node1</title>
<path fill="none" stroke="midnightblue" d="M55.5985,-63.6821C62.7741,-49.63 72.4719,-30.6384 78.0496,-19.7154"/>
<polygon fill="midnightblue" stroke="midnightblue" points="52.345,-62.3575 50.9143,-72.8553 58.5793,-65.541 52.345,-62.3575"/>
</g>
<!-- Node3 -->
<g id="node3" class="node"><title>Node3</title>
<g id="a_node3"><a xlink:href="group__smart__pointer.html" target="_top" xlink:title="smart_ptr\&lt; elftosb\l::DataTarget \&gt;">
<polygon fill="white" stroke="black" points="111,-67.5 111,-97.5 206,-97.5 206,-67.5 111,-67.5"/>
<text text-anchor="start" x="119" y="-85.5" font-family="Helvetica,sans-Serif" font-size="10.00">smart_ptr&lt; elftosb</text>
<text text-anchor="middle" x="158.5" y="-74.5" font-family="Helvetica,sans-Serif" font-size="10.00">::DataTarget &gt;</text>
</a>
</g>
</g>
<!-- Node3&#45;&gt;Node1 -->
<g id="edge2" class="edge"><title>Node3&#45;&gt;Node1</title>
<path fill="none" stroke="#9a32cd" stroke-dasharray="5,2" d="M135.47,-60.1369C120.934,-46.6528 102.919,-29.9417 92.0869,-19.8932"/>
<polygon fill="#9a32cd" stroke="#9a32cd" points="133.409,-62.9984 143.12,-67.2333 138.169,-57.8664 133.409,-62.9984"/>
<text text-anchor="middle" x="143.5" y="-41" font-family="Helvetica,sans-Serif" font-size="10.00"> m_target</text>
</g>
<!-- Node4 -->
<g id="node4" class="node"><title>Node4</title>
<g id="a_node4"><a xlink:href="classelftosb_1_1_data_target.html" target="_top" xlink:title="Abstract base class for the target address or range of data. ">
<polygon fill="white" stroke="black" points="161.5,-145.5 161.5,-164.5 259.5,-164.5 259.5,-145.5 161.5,-145.5"/>
<text text-anchor="middle" x="210.5" y="-152.5" font-family="Helvetica,sans-Serif" font-size="10.00">elftosb::DataTarget</text>
</a>
</g>
</g>
<!-- Node4&#45;&gt;Node3 -->
<g id="edge3" class="edge"><title>Node4&#45;&gt;Node3</title>
<path fill="none" stroke="#9a32cd" stroke-dasharray="5,2" d="M186.973,-139.459C182.386,-135.822 177.94,-131.622 174.5,-127 168.062,-118.351 163.98,-106.838 161.551,-97.8286"/>
<polygon fill="#9a32cd" stroke="#9a32cd" points="185.031,-142.373 195.194,-145.368 189.116,-136.689 185.031,-142.373"/>
<text text-anchor="middle" x="181.5" y="-119" font-family="Helvetica,sans-Serif" font-size="10.00"> _p</text>
</g>
<!-- Node5 -->
<g id="node5" class="node"><title>Node5</title>
<g id="a_node5"><a xlink:href="classelftosb_1_1_data_source.html" target="_top" xlink:title="Abstract base class for data sources. ">
<polygon fill="white" stroke="black" points="224.5,-73 224.5,-92 326.5,-92 326.5,-73 224.5,-73"/>
<text text-anchor="middle" x="275.5" y="-80" font-family="Helvetica,sans-Serif" font-size="10.00">elftosb::DataSource</text>
</a>
</g>
</g>
<!-- Node4&#45;&gt;Node5 -->
<g id="edge5" class="edge"><title>Node4&#45;&gt;Node5</title>
<path fill="none" stroke="#9a32cd" stroke-dasharray="5,2" d="M204.619,-135.338C203.649,-128.793 203.928,-121.666 207.5,-116 214.757,-104.488 227.34,-96.9663 239.725,-92.092"/>
<polygon fill="#9a32cd" stroke="#9a32cd" points="201.311,-136.551 207.066,-145.446 208.114,-134.903 201.311,-136.551"/>
<text text-anchor="middle" x="228.5" y="-119" font-family="Helvetica,sans-Serif" font-size="10.00"> m_target</text>
</g>
<!-- Node5&#45;&gt;Node4 -->
<g id="edge4" class="edge"><title>Node5&#45;&gt;Node4</title>
<path fill="none" stroke="#9a32cd" stroke-dasharray="5,2" d="M268.947,-101.662C265.303,-110.035 260.147,-119.708 253.5,-127 246.611,-134.557 237.137,-140.809 228.834,-145.387"/>
<polygon fill="#9a32cd" stroke="#9a32cd" points="272.21,-102.928 272.641,-92.342 265.703,-100.349 272.21,-102.928"/>
<text text-anchor="middle" x="283.5" y="-119" font-family="Helvetica,sans-Serif" font-size="10.00"> m_source</text>
</g>
</g>
</svg>
