<?xml version="1.0" encoding="UTF-8" standalone="no"?>
<!DOCTYPE svg PUBLIC "-//W3C//DTD SVG 1.1//EN"
 "http://www.w3.org/Graphics/SVG/1.1/DTD/svg11.dtd">
<!-- Generated by graphviz version 2.38.0 (20140413.2041)
 -->
<!-- Title: elftosb::ELFSourceFile Pages: 1 -->
<svg width="1477pt" height="341pt"
 viewBox="0.00 0.00 1477.00 341.00" xmlns="http://www.w3.org/2000/svg" xmlns:xlink="http://www.w3.org/1999/xlink">
<g id="graph0" class="graph" transform="scale(1 1) rotate(0) translate(4 337)">
<title>elftosb::ELFSourceFile</title>
<polygon fill="white" stroke="none" points="-4,4 -4,-337 1473,-337 1473,4 -4,4"/>
<!-- Node1 -->
<g id="node1" class="node"><title>Node1</title>
<polygon fill="#bfbfbf" stroke="black" points="1353,-232 1353,-251 1469,-251 1469,-232 1353,-232"/>
<text text-anchor="middle" x="1411" y="-239" font-family="Helvetica,sans-Serif" font-size="10.00">elftosb::ELFSourceFile</text>
</g>
<!-- Node2 -->
<g id="node2" class="node"><title>Node2</title>
<g id="a_node2"><a xlink:href="classelftosb_1_1_source_file.html" target="_top" xlink:title="Abstract base class for a source file containing executable code. ">
<polygon fill="white" stroke="black" points="1179.5,-253 1179.5,-272 1277.5,-272 1277.5,-253 1179.5,-253"/>
<text text-anchor="middle" x="1228.5" y="-260" font-family="Helvetica,sans-Serif" font-size="10.00">elftosb::SourceFile</text>
</a>
</g>
</g>
<!-- Node2&#45;&gt;Node1 -->
<g id="edge1" class="edge"><title>Node2&#45;&gt;Node1</title>
<path fill="none" stroke="midnightblue" d="M1287.86,-255.71C1308.69,-253.287 1332.11,-250.562 1352.84,-248.151"/>
<polygon fill="midnightblue" stroke="midnightblue" points="1287.4,-252.24 1277.87,-256.872 1288.21,-259.193 1287.4,-252.24"/>
</g>
<!-- Node3 -->
<g id="node3" class="node"><title>Node3</title>
<g id="a_node3"><a xlink:href="group__smart__pointer.html" target="_top" xlink:title="smart_ptr\&lt; elftosb\l::OptionContext \&gt;">
<polygon fill="white" stroke="black" points="971.5,-302.5 971.5,-332.5 1066.5,-332.5 1066.5,-302.5 971.5,-302.5"/>
<text text-anchor="start" x="979.5" y="-320.5" font-family="Helvetica,sans-Serif" font-size="10.00">smart_ptr&lt; elftosb</text>
<text text-anchor="middle" x="1019" y="-309.5" font-family="Helvetica,sans-Serif" font-size="10.00">::OptionContext &gt;</text>
</a>
</g>
</g>
<!-- Node3&#45;&gt;Node2 -->
<g id="edge2" class="edge"><title>Node3&#45;&gt;Node2</title>
<path fill="none" stroke="#9a32cd" stroke-dasharray="5,2" d="M1076.76,-303.639C1099.84,-297.889 1126.74,-291.043 1151,-284.5 1165.54,-280.578 1181.57,-276.008 1195.18,-272.052"/>
<polygon fill="#9a32cd" stroke="#9a32cd" points="1075.64,-300.309 1066.78,-306.116 1077.33,-307.103 1075.64,-300.309"/>
<text text-anchor="middle" x="1126.5" y="-300.5" font-family="Helvetica,sans-Serif" font-size="10.00"> m_options</text>
</g>
<!-- Node4 -->
<g id="node4" class="node"><title>Node4</title>
<g id="a_node4"><a xlink:href="classelftosb_1_1_option_context.html" target="_top" xlink:title="Pure abstract interface class to a table of options. ">
<polygon fill="white" stroke="black" points="708,-308 708,-327 821,-327 821,-308 708,-308"/>
<text text-anchor="middle" x="764.5" y="-315" font-family="Helvetica,sans-Serif" font-size="10.00">elftosb::OptionContext</text>
</a>
</g>
</g>
<!-- Node4&#45;&gt;Node3 -->
<g id="edge3" class="edge"><title>Node4&#45;&gt;Node3</title>
<path fill="none" stroke="#9a32cd" stroke-dasharray="5,2" d="M831.247,-317.5C875.194,-317.5 931.951,-317.5 971.305,-317.5"/>
<polygon fill="#9a32cd" stroke="#9a32cd" points="831.225,-314 821.225,-317.5 831.225,-321 831.225,-314"/>
<text text-anchor="middle" x="887.5" y="-320.5" font-family="Helvetica,sans-Serif" font-size="10.00"> _p</text>
</g>
<!-- Node5 -->
<g id="node5" class="node"><title>Node5</title>
<g id="a_node5"><a xlink:title="STL class. ">
<polygon fill="white" stroke="#bfbfbf" points="734.5,-225 734.5,-244 794.5,-244 794.5,-225 734.5,-225"/>
<text text-anchor="middle" x="764.5" y="-232" font-family="Helvetica,sans-Serif" font-size="10.00">std::string</text>
</a>
</g>
</g>
<!-- Node5&#45;&gt;Node2 -->
<g id="edge4" class="edge"><title>Node5&#45;&gt;Node2</title>
<path fill="none" stroke="#9a32cd" stroke-dasharray="5,2" d="M804.729,-234.306C864.913,-234.302 983.607,-235.457 1084,-243.5 1115.94,-246.059 1151.66,-250.782 1179.47,-254.878"/>
<polygon fill="#9a32cd" stroke="#9a32cd" points="804.534,-230.806 794.538,-234.318 804.542,-237.806 804.534,-230.806"/>
<text text-anchor="middle" x="1019" y="-246.5" font-family="Helvetica,sans-Serif" font-size="10.00"> m_path</text>
</g>
<!-- Node14 -->
<g id="node14" class="node"><title>Node14</title>
<g id="a_node14"><a xlink:href="class_st_e_l_f_file.html" target="_top" xlink:title="Parser for Executable and Linking Format (ELF) files. ">
<polygon fill="white" stroke="black" points="989,-131 989,-150 1049,-150 1049,-131 989,-131"/>
<text text-anchor="middle" x="1019" y="-138" font-family="Helvetica,sans-Serif" font-size="10.00">StELFFile</text>
</a>
</g>
</g>
<!-- Node5&#45;&gt;Node14 -->
<g id="edge20" class="edge"><title>Node5&#45;&gt;Node14</title>
<path fill="none" stroke="#9a32cd" stroke-dasharray="5,2" d="M801.138,-221.618C813.095,-217.499 826.554,-213.084 839,-209.5 881.577,-197.241 894.724,-202.605 936,-186.5 961.091,-176.71 987.902,-160.43 1003.79,-150.094"/>
<polygon fill="#9a32cd" stroke="#9a32cd" points="799.789,-218.381 791.502,-224.982 802.097,-224.99 799.789,-218.381"/>
<text text-anchor="middle" x="887.5" y="-212.5" font-family="Helvetica,sans-Serif" font-size="10.00"> m_name</text>
</g>
<!-- Node6 -->
<g id="node6" class="node"><title>Node6</title>
<g id="a_node6"><a xlink:title="STL class. ">
<polygon fill="white" stroke="#bfbfbf" points="514.5,-218.5 514.5,-248.5 609.5,-248.5 609.5,-218.5 514.5,-218.5"/>
<text text-anchor="start" x="522.5" y="-236.5" font-family="Helvetica,sans-Serif" font-size="10.00">std::basic_string&lt;</text>
<text text-anchor="middle" x="562" y="-225.5" font-family="Helvetica,sans-Serif" font-size="10.00"> char &gt;</text>
</a>
</g>
</g>
<!-- Node6&#45;&gt;Node5 -->
<g id="edge5" class="edge"><title>Node6&#45;&gt;Node5</title>
<path fill="none" stroke="midnightblue" d="M619.745,-233.783C657.076,-233.969 704.394,-234.205 734.319,-234.354"/>
<polygon fill="midnightblue" stroke="midnightblue" points="619.52,-230.282 609.503,-233.732 619.485,-237.282 619.52,-230.282"/>
</g>
<!-- Node7 -->
<g id="node7" class="node"><title>Node7</title>
<g id="a_node7"><a xlink:href="group__smart__pointer.html" target="_top" xlink:title="smart_ptr\&lt; std::ifstream \&gt;">
<polygon fill="white" stroke="black" points="954,-264 954,-283 1084,-283 1084,-264 954,-264"/>
<text text-anchor="middle" x="1019" y="-271" font-family="Helvetica,sans-Serif" font-size="10.00">smart_ptr&lt; std::ifstream &gt;</text>
</a>
</g>
</g>
<!-- Node7&#45;&gt;Node2 -->
<g id="edge6" class="edge"><title>Node7&#45;&gt;Node2</title>
<path fill="none" stroke="#9a32cd" stroke-dasharray="5,2" d="M1094.49,-269.551C1122.75,-268.053 1154.18,-266.387 1179.38,-265.051"/>
<polygon fill="#9a32cd" stroke="#9a32cd" points="1094.03,-266.07 1084.23,-270.095 1094.4,-273.06 1094.03,-266.07"/>
<text text-anchor="middle" x="1126.5" y="-272.5" font-family="Helvetica,sans-Serif" font-size="10.00"> m_stream</text>
</g>
<!-- Node8 -->
<g id="node8" class="node"><title>Node8</title>
<g id="a_node8"><a xlink:title="STL class. ">
<polygon fill="white" stroke="#bfbfbf" points="729,-266 729,-285 800,-285 800,-266 729,-266"/>
<text text-anchor="middle" x="764.5" y="-273" font-family="Helvetica,sans-Serif" font-size="10.00">std::ifstream</text>
</a>
</g>
</g>
<!-- Node8&#45;&gt;Node7 -->
<g id="edge7" class="edge"><title>Node8&#45;&gt;Node7</title>
<path fill="none" stroke="#9a32cd" stroke-dasharray="5,2" d="M810.303,-275.145C850.219,-274.829 909.087,-274.363 953.968,-274.007"/>
<polygon fill="#9a32cd" stroke="#9a32cd" points="810.052,-271.647 800.08,-275.226 810.107,-278.647 810.052,-271.647"/>
<text text-anchor="middle" x="887.5" y="-278.5" font-family="Helvetica,sans-Serif" font-size="10.00"> _p</text>
</g>
<!-- Node9 -->
<g id="node9" class="node"><title>Node9</title>
<g id="a_node9"><a xlink:title="STL class. ">
<polygon fill="white" stroke="#bfbfbf" points="512.5,-267.5 512.5,-297.5 611.5,-297.5 611.5,-267.5 512.5,-267.5"/>
<text text-anchor="start" x="520.5" y="-285.5" font-family="Helvetica,sans-Serif" font-size="10.00">std::basic_ifstream</text>
<text text-anchor="middle" x="562" y="-274.5" font-family="Helvetica,sans-Serif" font-size="10.00">&lt; char &gt;</text>
</a>
</g>
</g>
<!-- Node9&#45;&gt;Node8 -->
<g id="edge8" class="edge"><title>Node9&#45;&gt;Node8</title>
<path fill="none" stroke="midnightblue" d="M621.593,-280.454C656.433,-279.238 699.436,-277.737 728.915,-276.707"/>
<polygon fill="midnightblue" stroke="midnightblue" points="621.407,-276.959 611.535,-280.805 621.652,-283.954 621.407,-276.959"/>
</g>
<!-- Node10 -->
<g id="node10" class="node"><title>Node10</title>
<g id="a_node10"><a xlink:title="STL class. ">
<polygon fill="white" stroke="#bfbfbf" points="265,-226.5 265,-256.5 362,-256.5 362,-226.5 265,-226.5"/>
<text text-anchor="start" x="273" y="-244.5" font-family="Helvetica,sans-Serif" font-size="10.00">std::basic_istream</text>
<text text-anchor="middle" x="313.5" y="-233.5" font-family="Helvetica,sans-Serif" font-size="10.00">&lt; Char &gt;</text>
</a>
</g>
</g>
<!-- Node10&#45;&gt;Node9 -->
<g id="edge9" class="edge"><title>Node10&#45;&gt;Node9</title>
<path fill="none" stroke="midnightblue" d="M371.972,-251.059C414.577,-258.146 472.014,-267.699 512.355,-274.409"/>
<polygon fill="midnightblue" stroke="midnightblue" points="372.466,-247.593 362.028,-249.405 371.318,-254.499 372.466,-247.593"/>
</g>
<!-- Node11 -->
<g id="node11" class="node"><title>Node11</title>
<g id="a_node11"><a xlink:title="STL class. ">
<polygon fill="white" stroke="#bfbfbf" points="112,-198 112,-217 228,-217 228,-198 112,-198"/>
<text text-anchor="middle" x="170" y="-205" font-family="Helvetica,sans-Serif" font-size="10.00">std::basic_ios&lt; Char &gt;</text>
</a>
</g>
</g>
<!-- Node11&#45;&gt;Node10 -->
<g id="edge10" class="edge"><title>Node11&#45;&gt;Node10</title>
<path fill="none" stroke="midnightblue" d="M220.538,-219.403C234.963,-222.869 250.684,-226.647 264.981,-230.082"/>
<polygon fill="midnightblue" stroke="midnightblue" points="221.333,-215.995 210.792,-217.061 219.698,-222.801 221.333,-215.995"/>
</g>
<!-- Node18 -->
<g id="node18" class="node"><title>Node18</title>
<g id="a_node18"><a xlink:title="STL class. ">
<polygon fill="white" stroke="#bfbfbf" points="380,-155.5 380,-185.5 477,-185.5 477,-155.5 380,-155.5"/>
<text text-anchor="start" x="388" y="-173.5" font-family="Helvetica,sans-Serif" font-size="10.00">std::basic_istream</text>
<text text-anchor="middle" x="428.5" y="-162.5" font-family="Helvetica,sans-Serif" font-size="10.00">&lt; char &gt;</text>
</a>
</g>
</g>
<!-- Node11&#45;&gt;Node18 -->
<g id="edge18" class="edge"><title>Node11&#45;&gt;Node18</title>
<path fill="none" stroke="midnightblue" d="M238.395,-197.778C282.886,-191.36 340.097,-183.108 379.885,-177.368"/>
<polygon fill="midnightblue" stroke="midnightblue" points="237.642,-194.351 228.244,-199.243 238.642,-201.279 237.642,-194.351"/>
</g>
<!-- Node12 -->
<g id="node12" class="node"><title>Node12</title>
<g id="a_node12"><a xlink:title="STL class. ">
<polygon fill="white" stroke="#bfbfbf" points="0,-198 0,-217 75,-217 75,-198 0,-198"/>
<text text-anchor="middle" x="37.5" y="-205" font-family="Helvetica,sans-Serif" font-size="10.00">std::ios_base</text>
</a>
</g>
</g>
<!-- Node12&#45;&gt;Node11 -->
<g id="edge11" class="edge"><title>Node12&#45;&gt;Node11</title>
<path fill="none" stroke="midnightblue" d="M85.3188,-207.5C93.8367,-207.5 102.811,-207.5 111.593,-207.5"/>
<polygon fill="midnightblue" stroke="midnightblue" points="85.1988,-204 75.1988,-207.5 85.1988,-211 85.1988,-204"/>
</g>
<!-- Node13 -->
<g id="node13" class="node"><title>Node13</title>
<g id="a_node13"><a xlink:href="group__smart__pointer.html" target="_top" xlink:title="smart_ptr\&lt; StELFFile \&gt;">
<polygon fill="white" stroke="black" points="1169,-208 1169,-227 1288,-227 1288,-208 1169,-208"/>
<text text-anchor="middle" x="1228.5" y="-215" font-family="Helvetica,sans-Serif" font-size="10.00">smart_ptr&lt; StELFFile &gt;</text>
</a>
</g>
</g>
<!-- Node13&#45;&gt;Node1 -->
<g id="edge12" class="edge"><title>Node13&#45;&gt;Node1</title>
<path fill="none" stroke="#9a32cd" stroke-dasharray="5,2" d="M1298.02,-226.61C1316.13,-229.019 1335.49,-231.592 1352.92,-233.911"/>
<polygon fill="#9a32cd" stroke="#9a32cd" points="1298.48,-223.141 1288.1,-225.292 1297.55,-230.08 1298.48,-223.141"/>
<text text-anchor="middle" x="1320.5" y="-234.5" font-family="Helvetica,sans-Serif" font-size="10.00"> m_file</text>
</g>
<!-- Node14&#45;&gt;Node13 -->
<g id="edge13" class="edge"><title>Node14&#45;&gt;Node13</title>
<path fill="none" stroke="#9a32cd" stroke-dasharray="5,2" d="M1055.31,-153.602C1096.82,-169.006 1164.73,-194.207 1201.64,-207.904"/>
<polygon fill="#9a32cd" stroke="#9a32cd" points="1056.45,-150.294 1045.86,-150.096 1054.02,-156.857 1056.45,-150.294"/>
<text text-anchor="middle" x="1126.5" y="-191.5" font-family="Helvetica,sans-Serif" font-size="10.00"> _p</text>
</g>
<!-- Node15 -->
<g id="node15" class="node"><title>Node15</title>
<polygon fill="white" stroke="#bfbfbf" points="718.5,-126.5 718.5,-156.5 810.5,-156.5 810.5,-126.5 718.5,-126.5"/>
<text text-anchor="start" x="726.5" y="-144.5" font-family="Helvetica,sans-Serif" font-size="10.00">std::vector&lt; Elf32</text>
<text text-anchor="middle" x="764.5" y="-133.5" font-family="Helvetica,sans-Serif" font-size="10.00">_Phdr &gt;</text>
</g>
<!-- Node15&#45;&gt;Node14 -->
<g id="edge14" class="edge"><title>Node15&#45;&gt;Node14</title>
<path fill="none" stroke="#9a32cd" stroke-dasharray="5,2" d="M820.674,-141.281C872.5,-141.076 948.028,-140.777 988.981,-140.615"/>
<polygon fill="#9a32cd" stroke="#9a32cd" points="820.628,-137.782 810.642,-141.321 820.656,-144.781 820.628,-137.782"/>
<text text-anchor="middle" x="887.5" y="-144.5" font-family="Helvetica,sans-Serif" font-size="10.00"> m_programHeaders</text>
</g>
<!-- Node16 -->
<g id="node16" class="node"><title>Node16</title>
<g id="a_node16"><a xlink:href="struct_elf32___phdr.html" target="_top" xlink:title="ELF program header. ">
<polygon fill="white" stroke="black" points="530,-132 530,-151 594,-151 594,-132 530,-132"/>
<text text-anchor="middle" x="562" y="-139" font-family="Helvetica,sans-Serif" font-size="10.00">Elf32_Phdr</text>
</a>
</g>
</g>
<!-- Node16&#45;&gt;Node15 -->
<g id="edge15" class="edge"><title>Node16&#45;&gt;Node15</title>
<path fill="none" stroke="#9a32cd" stroke-dasharray="5,2" d="M604.602,-141.5C637.774,-141.5 684.16,-141.5 718.254,-141.5"/>
<polygon fill="#9a32cd" stroke="#9a32cd" points="604.328,-138 594.328,-141.5 604.328,-145 604.328,-138"/>
<text text-anchor="middle" x="668.5" y="-144.5" font-family="Helvetica,sans-Serif" font-size="10.00"> elements</text>
</g>
<!-- Node17 -->
<g id="node17" class="node"><title>Node17</title>
<g id="a_node17"><a xlink:title="STL class. ">
<polygon fill="white" stroke="#bfbfbf" points="730.5,-88 730.5,-107 798.5,-107 798.5,-88 730.5,-88"/>
<text text-anchor="middle" x="764.5" y="-95" font-family="Helvetica,sans-Serif" font-size="10.00">std::istream</text>
</a>
</g>
</g>
<!-- Node17&#45;&gt;Node14 -->
<g id="edge16" class="edge"><title>Node17&#45;&gt;Node14</title>
<path fill="none" stroke="#9a32cd" stroke-dasharray="5,2" d="M808.696,-104.839C843.163,-110.698 892.679,-119.118 936,-126.5 953.511,-129.484 973.125,-132.833 988.778,-135.506"/>
<polygon fill="#9a32cd" stroke="#9a32cd" points="808.951,-101.333 798.505,-103.108 807.778,-108.234 808.951,-101.333"/>
<text text-anchor="middle" x="887.5" y="-129.5" font-family="Helvetica,sans-Serif" font-size="10.00"> m_stream</text>
</g>
<!-- Node18&#45;&gt;Node17 -->
<g id="edge17" class="edge"><title>Node18&#45;&gt;Node17</title>
<path fill="none" stroke="midnightblue" d="M452.577,-148.791C464.363,-139.027 479.471,-128.392 495,-122.5 575.321,-92.0256 678.449,-92.3941 730.419,-95.0471"/>
<polygon fill="midnightblue" stroke="midnightblue" points="450.269,-146.16 444.984,-155.343 454.842,-151.46 450.269,-146.16"/>
</g>
<!-- Node19 -->
<g id="node19" class="node"><title>Node19</title>
<g id="a_node19"><a xlink:href="struct_elf32___ehdr.html" target="_top" xlink:title="ELF file header. ">
<polygon fill="white" stroke="black" points="732.5,-50 732.5,-69 796.5,-69 796.5,-50 732.5,-50"/>
<text text-anchor="middle" x="764.5" y="-57" font-family="Helvetica,sans-Serif" font-size="10.00">Elf32_Ehdr</text>
</a>
</g>
</g>
<!-- Node19&#45;&gt;Node14 -->
<g id="edge19" class="edge"><title>Node19&#45;&gt;Node14</title>
<path fill="none" stroke="#9a32cd" stroke-dasharray="5,2" d="M806.619,-65.1262C841.728,-70.7022 893.189,-80.7227 936,-96.5 960.71,-105.606 987.197,-120.954 1003.18,-130.904"/>
<polygon fill="#9a32cd" stroke="#9a32cd" points="807.139,-61.6652 796.723,-63.6036 806.075,-68.5838 807.139,-61.6652"/>
<text text-anchor="middle" x="887.5" y="-99.5" font-family="Helvetica,sans-Serif" font-size="10.00"> m_header</text>
</g>
<!-- Node20 -->
<g id="node20" class="node"><title>Node20</title>
<polygon fill="white" stroke="#bfbfbf" points="718.5,-0.5 718.5,-30.5 810.5,-30.5 810.5,-0.5 718.5,-0.5"/>
<text text-anchor="start" x="726.5" y="-18.5" font-family="Helvetica,sans-Serif" font-size="10.00">std::vector&lt; Elf32</text>
<text text-anchor="middle" x="764.5" y="-7.5" font-family="Helvetica,sans-Serif" font-size="10.00">_Shdr &gt;</text>
</g>
<!-- Node20&#45;&gt;Node14 -->
<g id="edge21" class="edge"><title>Node20&#45;&gt;Node14</title>
<path fill="none" stroke="#9a32cd" stroke-dasharray="5,2" d="M820.755,-20.8521C855.617,-26.0889 900.585,-36.3769 936,-56.5 970.021,-75.831 999.135,-113.416 1011.57,-131"/>
<polygon fill="#9a32cd" stroke="#9a32cd" points="821.136,-17.3713 810.746,-19.4444 820.161,-24.3031 821.136,-17.3713"/>
<text text-anchor="middle" x="887.5" y="-59.5" font-family="Helvetica,sans-Serif" font-size="10.00"> m_sectionHeaders</text>
</g>
<!-- Node21 -->
<g id="node21" class="node"><title>Node21</title>
<g id="a_node21"><a xlink:href="struct_elf32___shdr.html" target="_top" xlink:title="ELF section header. ">
<polygon fill="white" stroke="black" points="530,-6 530,-25 594,-25 594,-6 530,-6"/>
<text text-anchor="middle" x="562" y="-13" font-family="Helvetica,sans-Serif" font-size="10.00">Elf32_Shdr</text>
</a>
</g>
</g>
<!-- Node21&#45;&gt;Node20 -->
<g id="edge22" class="edge"><title>Node21&#45;&gt;Node20</title>
<path fill="none" stroke="#9a32cd" stroke-dasharray="5,2" d="M604.602,-15.5C637.774,-15.5 684.16,-15.5 718.254,-15.5"/>
<polygon fill="#9a32cd" stroke="#9a32cd" points="604.328,-12.0001 594.328,-15.5 604.328,-19.0001 604.328,-12.0001"/>
<text text-anchor="middle" x="668.5" y="-18.5" font-family="Helvetica,sans-Serif" font-size="10.00"> elements</text>
</g>
<!-- Node22 -->
<g id="node22" class="node"><title>Node22</title>
<polygon fill="white" stroke="#bfbfbf" points="711.5,-175.5 711.5,-205.5 817.5,-205.5 817.5,-175.5 711.5,-175.5"/>
<text text-anchor="start" x="719.5" y="-193.5" font-family="Helvetica,sans-Serif" font-size="10.00">std::map&lt; unsigned,</text>
<text text-anchor="middle" x="764.5" y="-182.5" font-family="Helvetica,sans-Serif" font-size="10.00"> SectionDataInfo &gt;</text>
</g>
<!-- Node22&#45;&gt;Node14 -->
<g id="edge23" class="edge"><title>Node22&#45;&gt;Node14</title>
<path fill="none" stroke="#9a32cd" stroke-dasharray="5,2" d="M827.772,-177.754C831.571,-176.988 835.336,-176.232 839,-175.5 891.787,-164.953 953.401,-152.979 988.842,-146.125"/>
<polygon fill="#9a32cd" stroke="#9a32cd" points="826.795,-174.381 817.687,-179.794 828.183,-181.242 826.795,-174.381"/>
<text text-anchor="middle" x="887.5" y="-178.5" font-family="Helvetica,sans-Serif" font-size="10.00"> m_sectionDataCache</text>
</g>
<!-- Node23 -->
<g id="node23" class="node"><title>Node23</title>
<g id="a_node23"><a xlink:href="class_st_e_l_f_file.html#struct_st_e_l_f_file_1_1_section_data_info" target="_top" xlink:title="StELFFile::SectionDataInfo">
<polygon fill="white" stroke="black" points="495,-180 495,-199 629,-199 629,-180 495,-180"/>
<text text-anchor="middle" x="562" y="-187" font-family="Helvetica,sans-Serif" font-size="10.00">StELFFile::SectionDataInfo</text>
</a>
</g>
</g>
<!-- Node23&#45;&gt;Node22 -->
<g id="edge24" class="edge"><title>Node23&#45;&gt;Node22</title>
<path fill="none" stroke="#9a32cd" stroke-dasharray="5,2" d="M639.37,-189.881C663.402,-190.001 689.378,-190.13 711.326,-190.24"/>
<polygon fill="#9a32cd" stroke="#9a32cd" points="639.224,-186.38 629.207,-189.83 639.189,-193.38 639.224,-186.38"/>
<text text-anchor="middle" x="668.5" y="-193.5" font-family="Helvetica,sans-Serif" font-size="10.00"> elements</text>
</g>
</g>
</svg>
