<?xml version="1.0" encoding="UTF-8" standalone="no"?>
<!DOCTYPE svg PUBLIC "-//W3C//DTD SVG 1.1//EN"
 "http://www.w3.org/Graphics/SVG/1.1/DTD/svg11.dtd">
<!-- Generated by graphviz version 2.38.0 (20140413.2041)
 -->
<!-- Title: elftosb::AddressRangeASTNode Pages: 1 -->
<svg width="183pt" height="251pt"
 viewBox="0.00 0.00 183.00 251.00" xmlns="http://www.w3.org/2000/svg" xmlns:xlink="http://www.w3.org/1999/xlink">
<g id="graph0" class="graph" transform="scale(1 1) rotate(0) translate(4 247)">
<title>elftosb::AddressRangeASTNode</title>
<polygon fill="white" stroke="none" points="-4,4 -4,-247 179,-247 179,4 -4,4"/>
<!-- Node1 -->
<g id="node1" class="node"><title>Node1</title>
<polygon fill="#bfbfbf" stroke="black" points="0,-0.5 0,-19.5 156,-19.5 156,-0.5 0,-0.5"/>
<text text-anchor="middle" x="78" y="-7.5" font-family="Helvetica,sans-Serif" font-size="10.00">elftosb::AddressRangeASTNode</text>
</g>
<!-- Node2 -->
<g id="node2" class="node"><title>Node2</title>
<g id="a_node2"><a xlink:href="classelftosb_1_1_a_s_t_node.html" target="_top" xlink:title="The base class for all AST node classes. ">
<polygon fill="white" stroke="black" points="21,-156.5 21,-175.5 113,-175.5 113,-156.5 21,-156.5"/>
<text text-anchor="middle" x="67" y="-163.5" font-family="Helvetica,sans-Serif" font-size="10.00">elftosb::ASTNode</text>
</a>
</g>
</g>
<!-- Node2&#45;&gt;Node1 -->
<g id="edge1" class="edge"><title>Node2&#45;&gt;Node1</title>
<path fill="none" stroke="midnightblue" d="M67.19,-146.259C67.4768,-128.622 68.1961,-101.486 70,-78 71.6148,-56.9757 74.9139,-32.393 76.7304,-19.6501"/>
<polygon fill="midnightblue" stroke="midnightblue" points="63.6892,-146.297 67.0569,-156.343 70.6886,-146.39 63.6892,-146.297"/>
</g>
<!-- Node2&#45;&gt;Node2 -->
<g id="edge3" class="edge"><title>Node2&#45;&gt;Node2</title>
<path fill="none" stroke="#9a32cd" stroke-dasharray="5,2" d="M123.274,-170.66C128.034,-169.663 131,-168.109 131,-166 131,-162.625 123.406,-160.674 113.024,-160.146"/>
<polygon fill="#9a32cd" stroke="#9a32cd" points="122.552,-167.22 113.024,-171.854 123.362,-174.173 122.552,-167.22"/>
<text text-anchor="middle" x="153" y="-163.5" font-family="Helvetica,sans-Serif" font-size="10.00"> m_parent</text>
</g>
<!-- Node4 -->
<g id="node4" class="node"><title>Node4</title>
<g id="a_node4"><a xlink:href="group__smart__pointer.html" target="_top" xlink:title="smart_ptr\&lt; elftosb\l::ASTNode \&gt;">
<polygon fill="white" stroke="black" points="79.5,-78.5 79.5,-108.5 174.5,-108.5 174.5,-78.5 79.5,-78.5"/>
<text text-anchor="start" x="87.5" y="-96.5" font-family="Helvetica,sans-Serif" font-size="10.00">smart_ptr&lt; elftosb</text>
<text text-anchor="middle" x="127" y="-85.5" font-family="Helvetica,sans-Serif" font-size="10.00">::ASTNode &gt;</text>
</a>
</g>
</g>
<!-- Node2&#45;&gt;Node4 -->
<g id="edge5" class="edge"><title>Node2&#45;&gt;Node4</title>
<path fill="none" stroke="#9a32cd" stroke-dasharray="5,2" d="M81.1338,-148.393C91.4402,-136.283 105.254,-120.051 115.02,-108.576"/>
<polygon fill="#9a32cd" stroke="#9a32cd" points="78.173,-146.471 74.3572,-156.355 83.5038,-151.008 78.173,-146.471"/>
<text text-anchor="middle" x="106" y="-130" font-family="Helvetica,sans-Serif" font-size="10.00"> _p</text>
</g>
<!-- Node3 -->
<g id="node3" class="node"><title>Node3</title>
<g id="a_node3"><a xlink:href="structelftosb_1_1token__loc__t.html" target="_top" xlink:title="Token location in the source file. ">
<polygon fill="white" stroke="black" points="16.5,-223.5 16.5,-242.5 117.5,-242.5 117.5,-223.5 16.5,-223.5"/>
<text text-anchor="middle" x="67" y="-230.5" font-family="Helvetica,sans-Serif" font-size="10.00">elftosb::token_loc_t</text>
</a>
</g>
</g>
<!-- Node3&#45;&gt;Node2 -->
<g id="edge2" class="edge"><title>Node3&#45;&gt;Node2</title>
<path fill="none" stroke="#9a32cd" stroke-dasharray="5,2" d="M67,-213.037C67,-200.67 67,-185.12 67,-175.627"/>
<polygon fill="#9a32cd" stroke="#9a32cd" points="63.5001,-213.234 67,-223.234 70.5001,-213.234 63.5001,-213.234"/>
<text text-anchor="middle" x="92.5" y="-197" font-family="Helvetica,sans-Serif" font-size="10.00"> m_location</text>
</g>
<!-- Node4&#45;&gt;Node1 -->
<g id="edge4" class="edge"><title>Node4&#45;&gt;Node1</title>
<path fill="none" stroke="#9a32cd" stroke-dasharray="5,2" d="M113.261,-69.6491C103.238,-52.9768 90.2144,-31.3157 83.134,-19.5391"/>
<polygon fill="#9a32cd" stroke="#9a32cd" points="110.313,-71.5369 118.465,-78.3038 116.312,-67.93 110.313,-71.5369"/>
<text text-anchor="middle" x="124.5" y="-52" font-family="Helvetica,sans-Serif" font-size="10.00"> m_end</text>
<text text-anchor="middle" x="124.5" y="-41" font-family="Helvetica,sans-Serif" font-size="10.00">m_begin</text>
</g>
</g>
</svg>
