<?xml version="1.0" encoding="UTF-8" standalone="no"?>
<!DOCTYPE svg PUBLIC "-//W3C//DTD SVG 1.1//EN"
 "http://www.w3.org/Graphics/SVG/1.1/DTD/svg11.dtd">
<!-- Generated by graphviz version 2.38.0 (20140413.2041)
 -->
<!-- Title: blfwk::PatternSource Pages: 1 -->
<svg width="222pt" height="162pt"
 viewBox="0.00 0.00 222.00 162.00" xmlns="http://www.w3.org/2000/svg" xmlns:xlink="http://www.w3.org/1999/xlink">
<g id="graph0" class="graph" transform="scale(1 1) rotate(0) translate(4 158)">
<title>blfwk::PatternSource</title>
<polygon fill="white" stroke="none" points="-4,4 -4,-158 218,-158 218,4 -4,4"/>
<!-- Node1 -->
<g id="node1" class="node"><title>Node1</title>
<polygon fill="#bfbfbf" stroke="black" points="52,-0.5 52,-19.5 159,-19.5 159,-0.5 52,-0.5"/>
<text text-anchor="middle" x="105.5" y="-7.5" font-family="Helvetica,sans-Serif" font-size="10.00">blfwk::PatternSource</text>
</g>
<!-- Node2 -->
<g id="node2" class="node"><title>Node2</title>
<g id="a_node2"><a xlink:href="classblfwk_1_1_data_source.html" target="_top" xlink:title="Abstract base class for data sources. ">
<polygon fill="white" stroke="black" points="0,-62 0,-81 95,-81 95,-62 0,-62"/>
<text text-anchor="middle" x="47.5" y="-69" font-family="Helvetica,sans-Serif" font-size="10.00">blfwk::DataSource</text>
</a>
</g>
</g>
<!-- Node2&#45;&gt;Node1 -->
<g id="edge1" class="edge"><title>Node2&#45;&gt;Node1</title>
<path fill="none" stroke="midnightblue" d="M63.0991,-54.4975C74.0771,-43.2356 88.3394,-28.6044 97.2054,-19.5091"/>
<polygon fill="midnightblue" stroke="midnightblue" points="60.284,-52.3712 55.81,-61.9751 65.2965,-57.2574 60.284,-52.3712"/>
</g>
<!-- Node3 -->
<g id="node3" class="node"><title>Node3</title>
<g id="a_node3"><a xlink:href="classblfwk_1_1_data_source_1_1_pattern_segment.html" target="_top" xlink:title="This is a special type of segment containing a repeating pattern. ">
<polygon fill="white" stroke="black" points="113,-56.5 113,-86.5 214,-86.5 214,-56.5 113,-56.5"/>
<text text-anchor="start" x="121" y="-74.5" font-family="Helvetica,sans-Serif" font-size="10.00">blfwk::DataSource::</text>
<text text-anchor="middle" x="163.5" y="-63.5" font-family="Helvetica,sans-Serif" font-size="10.00">PatternSegment</text>
</a>
</g>
</g>
<!-- Node3&#45;&gt;Node1 -->
<g id="edge2" class="edge"><title>Node3&#45;&gt;Node1</title>
<path fill="none" stroke="midnightblue" d="M142.544,-49.0023C132.659,-38.8617 121.42,-27.3319 113.94,-19.6578"/>
<polygon fill="midnightblue" stroke="midnightblue" points="140.268,-51.6816 149.755,-56.3993 145.281,-46.7955 140.268,-51.6816"/>
</g>
<!-- Node4 -->
<g id="node4" class="node"><title>Node4</title>
<g id="a_node4"><a xlink:href="classblfwk_1_1_data_source_1_1_segment.html" target="_top" xlink:title="Discrete, contiguous part of the source&#39;s data. ">
<polygon fill="white" stroke="black" points="113,-123.5 113,-153.5 214,-153.5 214,-123.5 113,-123.5"/>
<text text-anchor="start" x="121" y="-141.5" font-family="Helvetica,sans-Serif" font-size="10.00">blfwk::DataSource::</text>
<text text-anchor="middle" x="163.5" y="-130.5" font-family="Helvetica,sans-Serif" font-size="10.00">Segment</text>
</a>
</g>
</g>
<!-- Node4&#45;&gt;Node3 -->
<g id="edge3" class="edge"><title>Node4&#45;&gt;Node3</title>
<path fill="none" stroke="midnightblue" d="M163.5,-113.108C163.5,-104.154 163.5,-94.3227 163.5,-86.5765"/>
<polygon fill="midnightblue" stroke="midnightblue" points="160,-113.396 163.5,-123.396 167,-113.396 160,-113.396"/>
</g>
</g>
</svg>
