<?xml version="1.0" encoding="UTF-8" standalone="no"?>
<!DOCTYPE svg PUBLIC "-//W3C//DTD SVG 1.1//EN"
 "http://www.w3.org/Graphics/SVG/1.1/DTD/svg11.dtd">
<!-- Generated by graphviz version 2.38.0 (20140413.2041)
 -->
<!-- Title: elftosb::BinaryDataSection Pages: 1 -->
<svg width="177pt" height="84pt"
 viewBox="0.00 0.00 176.50 84.00" xmlns="http://www.w3.org/2000/svg" xmlns:xlink="http://www.w3.org/1999/xlink">
<g id="graph0" class="graph" transform="scale(1 1) rotate(0) translate(4 80)">
<title>elftosb::BinaryDataSection</title>
<polygon fill="white" stroke="none" points="-4,4 -4,-80 172.5,-80 172.5,4 -4,4"/>
<!-- Node1 -->
<g id="node1" class="node"><title>Node1</title>
<polygon fill="#bfbfbf" stroke="black" points="36.5,-0.5 36.5,-19.5 168.5,-19.5 168.5,-0.5 36.5,-0.5"/>
<text text-anchor="middle" x="102.5" y="-7.5" font-family="Helvetica,sans-Serif" font-size="10.00">elftosb::BinaryDataSection</text>
</g>
<!-- Node2 -->
<g id="node2" class="node"><title>Node2</title>
<g id="a_node2"><a xlink:href="classelftosb_1_1_output_section.html" target="_top" xlink:title="Base class for data model of sections of the output file. ">
<polygon fill="white" stroke="black" points="0,-56.5 0,-75.5 113,-75.5 113,-56.5 0,-56.5"/>
<text text-anchor="middle" x="56.5" y="-63.5" font-family="Helvetica,sans-Serif" font-size="10.00">elftosb::OutputSection</text>
</a>
</g>
</g>
<!-- Node2&#45;&gt;Node1 -->
<g id="edge1" class="edge"><title>Node2&#45;&gt;Node1</title>
<path fill="none" stroke="midnightblue" d="M70.614,-48.4314C78.676,-38.9673 88.4592,-27.4827 95.0454,-19.7511"/>
<polygon fill="midnightblue" stroke="midnightblue" points="67.9163,-46.2009 64.096,-56.083 73.245,-50.7402 67.9163,-46.2009"/>
</g>
<!-- Node3 -->
<g id="node3" class="node"><title>Node3</title>
<g id="a_node3"><a xlink:href="class_blob.html" target="_top" xlink:title="Manages a binary object of arbitrary length. ">
<polygon fill="white" stroke="black" points="131.5,-56.5 131.5,-75.5 167.5,-75.5 167.5,-56.5 131.5,-56.5"/>
<text text-anchor="middle" x="149.5" y="-63.5" font-family="Helvetica,sans-Serif" font-size="10.00">Blob</text>
</a>
</g>
</g>
<!-- Node3&#45;&gt;Node1 -->
<g id="edge2" class="edge"><title>Node3&#45;&gt;Node1</title>
<path fill="none" stroke="midnightblue" d="M135.079,-48.4314C126.842,-38.9673 116.846,-27.4827 110.117,-19.7511"/>
<polygon fill="midnightblue" stroke="midnightblue" points="132.534,-50.8378 141.739,-56.083 137.814,-46.2421 132.534,-50.8378"/>
</g>
</g>
</svg>
