<?xml version="1.0" encoding="UTF-8" standalone="no"?>
<!DOCTYPE svg PUBLIC "-//W3C//DTD SVG 1.1//EN"
 "http://www.w3.org/Graphics/SVG/1.1/DTD/svg11.dtd">
<!-- Generated by graphviz version 2.38.0 (20140413.2041)
 -->
<!-- Title: blfwk::Bootloader Pages: 1 -->
<svg width="491pt" height="412pt"
 viewBox="0.00 0.00 491.00 412.00" xmlns="http://www.w3.org/2000/svg" xmlns:xlink="http://www.w3.org/1999/xlink">
<g id="graph0" class="graph" transform="scale(1 1) rotate(0) translate(4 408)">
<title>blfwk::Bootloader</title>
<polygon fill="white" stroke="none" points="-4,4 -4,-408 487,-408 487,4 -4,4"/>
<!-- Node1 -->
<g id="node1" class="node"><title>Node1</title>
<polygon fill="#bfbfbf" stroke="black" points="173.5,-0.5 173.5,-19.5 264.5,-19.5 264.5,-0.5 173.5,-0.5"/>
<text text-anchor="middle" x="219" y="-7.5" font-family="Helvetica,sans-Serif" font-size="10.00">blfwk::Bootloader</text>
</g>
<!-- Node2 -->
<g id="node2" class="node"><title>Node2</title>
<g id="a_node2"><a xlink:href="classblfwk_1_1_packetizer.html" target="_top" xlink:title="Interface class for packetization of commands and data. ">
<polygon fill="white" stroke="black" points="109.5,-67.5 109.5,-86.5 200.5,-86.5 200.5,-67.5 109.5,-67.5"/>
<text text-anchor="middle" x="155" y="-74.5" font-family="Helvetica,sans-Serif" font-size="10.00">blfwk::Packetizer</text>
</a>
</g>
</g>
<!-- Node2&#45;&gt;Node1 -->
<g id="edge1" class="edge"><title>Node2&#45;&gt;Node1</title>
<path fill="none" stroke="#9a32cd" stroke-dasharray="5,2" d="M159.452,-57.5152C161.759,-50.8039 165.142,-43.5213 170,-38 177.058,-29.9786 187.097,-23.8655 196.253,-19.5018"/>
<polygon fill="#9a32cd" stroke="#9a32cd" points="156.051,-56.6787 156.657,-67.2562 162.78,-58.6094 156.051,-56.6787"/>
<text text-anchor="middle" x="211" y="-41" font-family="Helvetica,sans-Serif" font-size="10.00"> m_hostPacketizer</text>
</g>
<!-- Node3 -->
<g id="node3" class="node"><title>Node3</title>
<g id="a_node3"><a xlink:href="classblfwk_1_1_peripheral.html" target="_top" xlink:title="Represents a peripheral. ">
<polygon fill="white" stroke="black" points="0,-134.5 0,-153.5 88,-153.5 88,-134.5 0,-134.5"/>
<text text-anchor="middle" x="44" y="-141.5" font-family="Helvetica,sans-Serif" font-size="10.00">blfwk::Peripheral</text>
</a>
</g>
</g>
<!-- Node3&#45;&gt;Node2 -->
<g id="edge2" class="edge"><title>Node3&#45;&gt;Node2</title>
<path fill="none" stroke="#9a32cd" stroke-dasharray="5,2" d="M61.0284,-127.698C69.8606,-120.246 81.0668,-111.513 92,-105 104.268,-97.6919 118.877,-91.3025 130.938,-86.5763"/>
<polygon fill="#9a32cd" stroke="#9a32cd" points="58.6361,-125.14 53.3742,-134.336 63.2223,-130.428 58.6361,-125.14"/>
<text text-anchor="middle" x="121.5" y="-108" font-family="Helvetica,sans-Serif" font-size="10.00"> m_peripheral</text>
</g>
<!-- Node4 -->
<g id="node4" class="node"><title>Node4</title>
<g id="a_node4"><a xlink:href="group__qspi__driver.html#unionstandard__version__t" target="_top" xlink:title="standard_version_t">
<polygon fill="white" stroke="black" points="106,-134.5 106,-153.5 204,-153.5 204,-134.5 106,-134.5"/>
<text text-anchor="middle" x="155" y="-141.5" font-family="Helvetica,sans-Serif" font-size="10.00">standard_version_t</text>
</a>
</g>
</g>
<!-- Node4&#45;&gt;Node2 -->
<g id="edge3" class="edge"><title>Node4&#45;&gt;Node2</title>
<path fill="none" stroke="#9a32cd" stroke-dasharray="5,2" d="M155,-124.037C155,-111.67 155,-96.1198 155,-86.6273"/>
<polygon fill="#9a32cd" stroke="#9a32cd" points="151.5,-124.234 155,-134.234 158.5,-124.234 151.5,-124.234"/>
<text text-anchor="middle" x="178.5" y="-108" font-family="Helvetica,sans-Serif" font-size="10.00"> m_version</text>
</g>
<!-- Node5 -->
<g id="node5" class="node"><title>Node5</title>
<g id="a_node5"><a xlink:href="group__logging.html#class_file_logger" target="_top" xlink:title="Simple logger that writes to a file. ">
<polygon fill="white" stroke="black" points="261,-67.5 261,-86.5 323,-86.5 323,-67.5 261,-67.5"/>
<text text-anchor="middle" x="292" y="-74.5" font-family="Helvetica,sans-Serif" font-size="10.00">FileLogger</text>
</a>
</g>
</g>
<!-- Node5&#45;&gt;Node1 -->
<g id="edge4" class="edge"><title>Node5&#45;&gt;Node1</title>
<path fill="none" stroke="#9a32cd" stroke-dasharray="5,2" d="M275.653,-59.9474C268.505,-53.0653 259.952,-45.0128 252,-38 244.783,-31.6348 236.386,-24.7717 229.868,-19.5577"/>
<polygon fill="#9a32cd" stroke="#9a32cd" points="273.668,-62.8982 283.279,-67.3563 278.545,-57.8776 273.668,-62.8982"/>
<text text-anchor="middle" x="285.5" y="-41" font-family="Helvetica,sans-Serif" font-size="10.00"> m_logger</text>
</g>
<!-- Node6 -->
<g id="node6" class="node"><title>Node6</title>
<g id="a_node6"><a xlink:href="group__logging.html#class_logger" target="_top" xlink:title="Base logger class. ">
<polygon fill="white" stroke="black" points="222,-134.5 222,-153.5 268,-153.5 268,-134.5 222,-134.5"/>
<text text-anchor="middle" x="245" y="-141.5" font-family="Helvetica,sans-Serif" font-size="10.00">Logger</text>
</a>
</g>
</g>
<!-- Node6&#45;&gt;Node5 -->
<g id="edge5" class="edge"><title>Node6&#45;&gt;Node5</title>
<path fill="none" stroke="midnightblue" d="M257.362,-125.904C266.495,-113.273 278.548,-96.6041 285.762,-86.6273"/>
<polygon fill="midnightblue" stroke="midnightblue" points="254.362,-124.079 251.339,-134.234 260.034,-128.181 254.362,-124.079"/>
</g>
<!-- Node7 -->
<g id="node7" class="node"><title>Node7</title>
<g id="a_node7"><a xlink:title="STL class. ">
<polygon fill="white" stroke="#bfbfbf" points="286,-134.5 286,-153.5 346,-153.5 346,-134.5 286,-134.5"/>
<text text-anchor="middle" x="316" y="-141.5" font-family="Helvetica,sans-Serif" font-size="10.00">std::string</text>
</a>
</g>
</g>
<!-- Node7&#45;&gt;Node5 -->
<g id="edge6" class="edge"><title>Node7&#45;&gt;Node5</title>
<path fill="none" stroke="#9a32cd" stroke-dasharray="5,2" d="M309.276,-124.79C304.667,-112.308 298.762,-96.3135 295.185,-86.6273"/>
<polygon fill="#9a32cd" stroke="#9a32cd" points="306.016,-126.065 312.763,-134.234 312.583,-123.641 306.016,-126.065"/>
<text text-anchor="middle" x="331.5" y="-108" font-family="Helvetica,sans-Serif" font-size="10.00"> m_file_path</text>
</g>
<!-- Node8 -->
<g id="node8" class="node"><title>Node8</title>
<g id="a_node8"><a xlink:title="STL class. ">
<polygon fill="white" stroke="#bfbfbf" points="260.5,-191.5 260.5,-221.5 355.5,-221.5 355.5,-191.5 260.5,-191.5"/>
<text text-anchor="start" x="268.5" y="-209.5" font-family="Helvetica,sans-Serif" font-size="10.00">std::basic_string&lt;</text>
<text text-anchor="middle" x="308" y="-198.5" font-family="Helvetica,sans-Serif" font-size="10.00"> char &gt;</text>
</a>
</g>
</g>
<!-- Node8&#45;&gt;Node7 -->
<g id="edge7" class="edge"><title>Node8&#45;&gt;Node7</title>
<path fill="none" stroke="midnightblue" d="M311.193,-181.352C312.494,-171.513 313.914,-160.775 314.871,-153.54"/>
<polygon fill="midnightblue" stroke="midnightblue" points="307.697,-181.095 309.855,-191.468 314.636,-182.013 307.697,-181.095"/>
</g>
<!-- Node9 -->
<g id="node9" class="node"><title>Node9</title>
<g id="a_node9"><a xlink:title="STL class. ">
<polygon fill="white" stroke="#bfbfbf" points="368,-134.5 368,-153.5 442,-153.5 442,-134.5 368,-134.5"/>
<text text-anchor="middle" x="405" y="-141.5" font-family="Helvetica,sans-Serif" font-size="10.00">std::ofstream</text>
</a>
</g>
</g>
<!-- Node9&#45;&gt;Node5 -->
<g id="edge8" class="edge"><title>Node9&#45;&gt;Node5</title>
<path fill="none" stroke="#9a32cd" stroke-dasharray="5,2" d="M389.645,-127.004C381.884,-119.582 372.004,-111.078 362,-105 349.309,-97.2901 334.04,-91.0926 321.005,-86.5895"/>
<polygon fill="#9a32cd" stroke="#9a32cd" points="387.586,-129.893 397.142,-134.468 392.525,-124.932 387.586,-129.893"/>
<text text-anchor="middle" x="399" y="-108" font-family="Helvetica,sans-Serif" font-size="10.00"> m_logFile</text>
</g>
<!-- Node10 -->
<g id="node10" class="node"><title>Node10</title>
<g id="a_node10"><a xlink:title="STL class. ">
<polygon fill="white" stroke="#bfbfbf" points="374,-191.5 374,-221.5 476,-221.5 476,-191.5 374,-191.5"/>
<text text-anchor="start" x="382" y="-209.5" font-family="Helvetica,sans-Serif" font-size="10.00">std::basic_ofstream</text>
<text text-anchor="middle" x="425" y="-198.5" font-family="Helvetica,sans-Serif" font-size="10.00">&lt; char &gt;</text>
</a>
</g>
</g>
<!-- Node10&#45;&gt;Node9 -->
<g id="edge9" class="edge"><title>Node10&#45;&gt;Node9</title>
<path fill="none" stroke="midnightblue" d="M417.121,-181.666C413.84,-171.742 410.24,-160.852 407.823,-153.54"/>
<polygon fill="midnightblue" stroke="midnightblue" points="413.899,-183.072 420.361,-191.468 420.546,-180.875 413.899,-183.072"/>
</g>
<!-- Node11 -->
<g id="node11" class="node"><title>Node11</title>
<g id="a_node11"><a xlink:title="STL class. ">
<polygon fill="white" stroke="#bfbfbf" points="375,-259.5 375,-289.5 475,-289.5 475,-259.5 375,-259.5"/>
<text text-anchor="start" x="383" y="-277.5" font-family="Helvetica,sans-Serif" font-size="10.00">std::basic_ostream</text>
<text text-anchor="middle" x="425" y="-266.5" font-family="Helvetica,sans-Serif" font-size="10.00">&lt; Char &gt;</text>
</a>
</g>
</g>
<!-- Node11&#45;&gt;Node10 -->
<g id="edge10" class="edge"><title>Node11&#45;&gt;Node10</title>
<path fill="none" stroke="midnightblue" d="M425,-249.032C425,-239.861 425,-229.745 425,-221.793"/>
<polygon fill="midnightblue" stroke="midnightblue" points="421.5,-249.179 425,-259.179 428.5,-249.179 421.5,-249.179"/>
</g>
<!-- Node12 -->
<g id="node12" class="node"><title>Node12</title>
<g id="a_node12"><a xlink:title="STL class. ">
<polygon fill="white" stroke="#bfbfbf" points="367,-327.5 367,-346.5 483,-346.5 483,-327.5 367,-327.5"/>
<text text-anchor="middle" x="425" y="-334.5" font-family="Helvetica,sans-Serif" font-size="10.00">std::basic_ios&lt; Char &gt;</text>
</a>
</g>
</g>
<!-- Node12&#45;&gt;Node11 -->
<g id="edge11" class="edge"><title>Node12&#45;&gt;Node11</title>
<path fill="none" stroke="midnightblue" d="M425,-317.215C425,-308.356 425,-297.958 425,-289.759"/>
<polygon fill="midnightblue" stroke="midnightblue" points="421.5,-317.332 425,-327.332 428.5,-317.332 421.5,-317.332"/>
</g>
<!-- Node13 -->
<g id="node13" class="node"><title>Node13</title>
<g id="a_node13"><a xlink:title="STL class. ">
<polygon fill="white" stroke="#bfbfbf" points="387.5,-384.5 387.5,-403.5 462.5,-403.5 462.5,-384.5 387.5,-384.5"/>
<text text-anchor="middle" x="425" y="-391.5" font-family="Helvetica,sans-Serif" font-size="10.00">std::ios_base</text>
</a>
</g>
</g>
<!-- Node13&#45;&gt;Node12 -->
<g id="edge12" class="edge"><title>Node13&#45;&gt;Node12</title>
<path fill="none" stroke="midnightblue" d="M425,-374.117C425,-364.817 425,-354.056 425,-346.715"/>
<polygon fill="midnightblue" stroke="midnightblue" points="421.5,-374.406 425,-384.406 428.5,-374.406 421.5,-374.406"/>
</g>
</g>
</svg>
