<?xml version="1.0" encoding="UTF-8" standalone="no"?>
<!DOCTYPE svg PUBLIC "-//W3C//DTD SVG 1.1//EN"
 "http://www.w3.org/Graphics/SVG/1.1/DTD/svg11.dtd">
<!-- Generated by graphviz version 2.38.0 (20140413.2041)
 -->
<!-- Title: elftosb::ExternSourceDefASTNode Pages: 1 -->
<svg width="1299pt" height="192pt"
 viewBox="0.00 0.00 1299.00 191.50" xmlns="http://www.w3.org/2000/svg" xmlns:xlink="http://www.w3.org/1999/xlink">
<g id="graph0" class="graph" transform="scale(1 1) rotate(0) translate(4 187.5)">
<title>elftosb::ExternSourceDefASTNode</title>
<polygon fill="white" stroke="none" points="-4,4 -4,-187.5 1295,-187.5 1295,4 -4,4"/>
<!-- Node1 -->
<g id="node1" class="node"><title>Node1</title>
<polygon fill="#bfbfbf" stroke="black" points="1166,-41 1166,-71 1291,-71 1291,-41 1166,-41"/>
<text text-anchor="start" x="1174" y="-59" font-family="Helvetica,sans-Serif" font-size="10.00">elftosb::ExternSourceDef</text>
<text text-anchor="middle" x="1228.5" y="-48" font-family="Helvetica,sans-Serif" font-size="10.00">ASTNode</text>
</g>
<!-- Node2 -->
<g id="node2" class="node"><title>Node2</title>
<g id="a_node2"><a xlink:href="classelftosb_1_1_source_def_a_s_t_node.html" target="_top" xlink:title="elftosb::SourceDefASTNode">
<polygon fill="white" stroke="black" points="992,-101.5 992,-120.5 1129,-120.5 1129,-101.5 992,-101.5"/>
<text text-anchor="middle" x="1060.5" y="-108.5" font-family="Helvetica,sans-Serif" font-size="10.00">elftosb::SourceDefASTNode</text>
</a>
</g>
</g>
<!-- Node2&#45;&gt;Node1 -->
<g id="edge1" class="edge"><title>Node2&#45;&gt;Node1</title>
<path fill="none" stroke="midnightblue" d="M1100.08,-98.2175C1124.55,-90.1088 1156.33,-79.5798 1182.03,-71.0654"/>
<polygon fill="midnightblue" stroke="midnightblue" points="1098.81,-94.9522 1090.41,-101.42 1101.01,-101.597 1098.81,-94.9522"/>
</g>
<!-- Node3 -->
<g id="node3" class="node"><title>Node3</title>
<g id="a_node3"><a xlink:href="classelftosb_1_1_a_s_t_node.html" target="_top" xlink:title="The base class for all AST node classes. ">
<polygon fill="white" stroke="black" points="188,-60.5 188,-79.5 280,-79.5 280,-60.5 188,-60.5"/>
<text text-anchor="middle" x="234" y="-67.5" font-family="Helvetica,sans-Serif" font-size="10.00">elftosb::ASTNode</text>
</a>
</g>
</g>
<!-- Node3&#45;&gt;Node2 -->
<g id="edge2" class="edge"><title>Node3&#45;&gt;Node2</title>
<path fill="none" stroke="midnightblue" d="M262.748,-83.7979C297.542,-99.7971 359.441,-124 415.5,-124 415.5,-124 415.5,-124 839.5,-124 890.579,-124 948.212,-120.465 991.673,-117.081"/>
<polygon fill="midnightblue" stroke="midnightblue" points="264.219,-80.622 253.681,-79.5298 261.238,-86.9554 264.219,-80.622"/>
</g>
<!-- Node3&#45;&gt;Node3 -->
<g id="edge4" class="edge"><title>Node3&#45;&gt;Node3</title>
<path fill="none" stroke="#9a32cd" stroke-dasharray="5,2" d="M218.531,-89.7663C219.746,-94.4965 224.902,-98 234,-98 248.93,-98 253.245,-88.5653 246.947,-79.7571"/>
<polygon fill="#9a32cd" stroke="#9a32cd" points="222.003,-90.3092 221.053,-79.7571 215.216,-88.5986 222.003,-90.3092"/>
<text text-anchor="middle" x="234" y="-101" font-family="Helvetica,sans-Serif" font-size="10.00"> m_parent</text>
</g>
<!-- Node6 -->
<g id="node6" class="node"><title>Node6</title>
<g id="a_node6"><a xlink:href="classelftosb_1_1_list_a_s_t_node.html" target="_top" xlink:title="AST node that contains other AST nodes. ">
<polygon fill="white" stroke="black" points="540,-70.5 540,-89.5 648,-89.5 648,-70.5 540,-70.5"/>
<text text-anchor="middle" x="594" y="-77.5" font-family="Helvetica,sans-Serif" font-size="10.00">elftosb::ListASTNode</text>
</a>
</g>
</g>
<!-- Node3&#45;&gt;Node6 -->
<g id="edge7" class="edge"><title>Node3&#45;&gt;Node6</title>
<path fill="none" stroke="midnightblue" d="M290.25,-71.7685C292.87,-71.8478 295.464,-71.9254 298,-72 382.628,-74.4908 480.92,-77.0994 539.974,-78.6358"/>
<polygon fill="midnightblue" stroke="midnightblue" points="290.184,-68.2649 280.081,-71.4565 289.969,-75.2617 290.184,-68.2649"/>
</g>
<!-- Node7 -->
<g id="node7" class="node"><title>Node7</title>
<polygon fill="white" stroke="#bfbfbf" points="359,-38.5 359,-57.5 474,-57.5 474,-38.5 359,-38.5"/>
<text text-anchor="middle" x="416.5" y="-45.5" font-family="Helvetica,sans-Serif" font-size="10.00">std::list&lt; ASTNode * &gt;</text>
</g>
<!-- Node3&#45;&gt;Node7 -->
<g id="edge9" class="edge"><title>Node3&#45;&gt;Node7</title>
<path fill="none" stroke="#9a32cd" stroke-dasharray="5,2" d="M290.237,-62.0072C292.86,-61.6596 295.458,-61.3221 298,-61 317.852,-58.4845 339.626,-55.9993 358.979,-53.8864"/>
<polygon fill="#9a32cd" stroke="#9a32cd" points="289.498,-58.5752 280.059,-63.3862 290.438,-65.5119 289.498,-58.5752"/>
<text text-anchor="middle" x="319.5" y="-64" font-family="Helvetica,sans-Serif" font-size="10.00"> elements</text>
</g>
<!-- Node12 -->
<g id="node12" class="node"><title>Node12</title>
<g id="a_node12"><a xlink:href="classelftosb_1_1_expr_a_s_t_node.html" target="_top" xlink:title="Abstract base class for all expression AST nodes. ">
<polygon fill="white" stroke="black" points="360,-0.5 360,-19.5 473,-19.5 473,-0.5 360,-0.5"/>
<text text-anchor="middle" x="416.5" y="-7.5" font-family="Helvetica,sans-Serif" font-size="10.00">elftosb::ExprASTNode</text>
</a>
</g>
</g>
<!-- Node3&#45;&gt;Node12 -->
<g id="edge15" class="edge"><title>Node3&#45;&gt;Node12</title>
<path fill="none" stroke="midnightblue" d="M273.184,-57.3073C307.125,-46.0249 355.999,-29.7788 386.735,-19.5618"/>
<polygon fill="midnightblue" stroke="midnightblue" points="271.986,-54.0171 263.601,-60.4928 274.194,-60.6597 271.986,-54.0171"/>
</g>
<!-- Node4 -->
<g id="node4" class="node"><title>Node4</title>
<g id="a_node4"><a xlink:href="structelftosb_1_1token__loc__t.html" target="_top" xlink:title="Token location in the source file. ">
<polygon fill="white" stroke="black" points="0,-60.5 0,-79.5 101,-79.5 101,-60.5 0,-60.5"/>
<text text-anchor="middle" x="50.5" y="-67.5" font-family="Helvetica,sans-Serif" font-size="10.00">elftosb::token_loc_t</text>
</a>
</g>
</g>
<!-- Node4&#45;&gt;Node3 -->
<g id="edge3" class="edge"><title>Node4&#45;&gt;Node3</title>
<path fill="none" stroke="#9a32cd" stroke-dasharray="5,2" d="M111.183,-70C136.134,-70 164.648,-70 187.814,-70"/>
<polygon fill="#9a32cd" stroke="#9a32cd" points="111.096,-66.5001 101.096,-70 111.096,-73.5001 111.096,-66.5001"/>
<text text-anchor="middle" x="144.5" y="-73" font-family="Helvetica,sans-Serif" font-size="10.00"> m_location</text>
</g>
<!-- Node5 -->
<g id="node5" class="node"><title>Node5</title>
<g id="a_node5"><a xlink:href="group__smart__pointer.html" target="_top" xlink:title="smart_ptr\&lt; elftosb\l::ListASTNode \&gt;">
<polygon fill="white" stroke="black" points="791,-65 791,-95 886,-95 886,-65 791,-65"/>
<text text-anchor="start" x="799" y="-83" font-family="Helvetica,sans-Serif" font-size="10.00">smart_ptr&lt; elftosb</text>
<text text-anchor="middle" x="838.5" y="-72" font-family="Helvetica,sans-Serif" font-size="10.00">::ListASTNode &gt;</text>
</a>
</g>
</g>
<!-- Node5&#45;&gt;Node2 -->
<g id="edge5" class="edge"><title>Node5&#45;&gt;Node2</title>
<path fill="none" stroke="#9a32cd" stroke-dasharray="5,2" d="M896.209,-87.9909C925.468,-92.1137 961.36,-97.1712 992.035,-101.494"/>
<polygon fill="#9a32cd" stroke="#9a32cd" points="896.547,-84.5039 886.156,-86.5743 895.57,-91.4355 896.547,-84.5039"/>
<text text-anchor="middle" x="945" y="-102" font-family="Helvetica,sans-Serif" font-size="10.00"> m_attributes</text>
</g>
<!-- Node6&#45;&gt;Node5 -->
<g id="edge6" class="edge"><title>Node6&#45;&gt;Node5</title>
<path fill="none" stroke="#9a32cd" stroke-dasharray="5,2" d="M658.241,-80C699.804,-80 753.266,-80 790.952,-80"/>
<polygon fill="#9a32cd" stroke="#9a32cd" points="658.218,-76.5001 648.218,-80 658.218,-83.5001 658.218,-76.5001"/>
<text text-anchor="middle" x="713.5" y="-83" font-family="Helvetica,sans-Serif" font-size="10.00"> _p</text>
</g>
<!-- Node7&#45;&gt;Node6 -->
<g id="edge8" class="edge"><title>Node7&#45;&gt;Node6</title>
<path fill="none" stroke="#9a32cd" stroke-dasharray="5,2" d="M484.134,-54.8957C496.759,-56.5957 509.823,-58.625 522,-61 534.9,-63.516 548.913,-67.0831 561.055,-70.4483"/>
<polygon fill="#9a32cd" stroke="#9a32cd" points="484.495,-51.4132 474.128,-53.6026 483.597,-58.3555 484.495,-51.4132"/>
<text text-anchor="middle" x="507" y="-64" font-family="Helvetica,sans-Serif" font-size="10.00"> m_list</text>
</g>
<!-- Node8 -->
<g id="node8" class="node"><title>Node8</title>
<g id="a_node8"><a xlink:href="group__smart__pointer.html" target="_top" xlink:title="smart_ptr\&lt; std::string \&gt;">
<polygon fill="white" stroke="black" points="779,-153.5 779,-172.5 898,-172.5 898,-153.5 779,-153.5"/>
<text text-anchor="middle" x="838.5" y="-160.5" font-family="Helvetica,sans-Serif" font-size="10.00">smart_ptr&lt; std::string &gt;</text>
</a>
</g>
</g>
<!-- Node8&#45;&gt;Node2 -->
<g id="edge10" class="edge"><title>Node8&#45;&gt;Node2</title>
<path fill="none" stroke="#9a32cd" stroke-dasharray="5,2" d="M908.016,-151.933C929.28,-148.053 952.716,-143.318 974,-138 993.633,-133.095 1015.37,-126.209 1032.02,-120.619"/>
<polygon fill="#9a32cd" stroke="#9a32cd" points="907.32,-148.502 898.095,-153.712 908.555,-155.392 907.32,-148.502"/>
<text text-anchor="middle" x="945" y="-153" font-family="Helvetica,sans-Serif" font-size="10.00"> m_name</text>
</g>
<!-- Node9 -->
<g id="node9" class="node"><title>Node9</title>
<g id="a_node9"><a xlink:title="STL class. ">
<polygon fill="white" stroke="#bfbfbf" points="564,-157.5 564,-176.5 624,-176.5 624,-157.5 564,-157.5"/>
<text text-anchor="middle" x="594" y="-164.5" font-family="Helvetica,sans-Serif" font-size="10.00">std::string</text>
</a>
</g>
</g>
<!-- Node9&#45;&gt;Node8 -->
<g id="edge11" class="edge"><title>Node9&#45;&gt;Node8</title>
<path fill="none" stroke="#9a32cd" stroke-dasharray="5,2" d="M634.464,-166.349C673.656,-165.703 734.204,-164.704 778.99,-163.965"/>
<polygon fill="#9a32cd" stroke="#9a32cd" points="634.192,-162.853 624.251,-166.518 634.308,-169.852 634.192,-162.853"/>
<text text-anchor="middle" x="713.5" y="-169" font-family="Helvetica,sans-Serif" font-size="10.00"> _p</text>
</g>
<!-- Node10 -->
<g id="node10" class="node"><title>Node10</title>
<g id="a_node10"><a xlink:title="STL class. ">
<polygon fill="white" stroke="#bfbfbf" points="369,-153 369,-183 464,-183 464,-153 369,-153"/>
<text text-anchor="start" x="377" y="-171" font-family="Helvetica,sans-Serif" font-size="10.00">std::basic_string&lt;</text>
<text text-anchor="middle" x="416.5" y="-160" font-family="Helvetica,sans-Serif" font-size="10.00"> char &gt;</text>
</a>
</g>
</g>
<!-- Node10&#45;&gt;Node9 -->
<g id="edge12" class="edge"><title>Node10&#45;&gt;Node9</title>
<path fill="none" stroke="midnightblue" d="M474.377,-167.676C504.237,-167.506 539.563,-167.304 563.854,-167.166"/>
<polygon fill="midnightblue" stroke="midnightblue" points="474.05,-164.178 464.07,-167.735 474.09,-171.178 474.05,-164.178"/>
</g>
<!-- Node11 -->
<g id="node11" class="node"><title>Node11</title>
<g id="a_node11"><a xlink:href="group__smart__pointer.html" target="_top" xlink:title="smart_ptr\&lt; elftosb\l::ExprASTNode \&gt;">
<polygon fill="white" stroke="black" points="666,-3 666,-33 761,-33 761,-3 666,-3"/>
<text text-anchor="start" x="674" y="-21" font-family="Helvetica,sans-Serif" font-size="10.00">smart_ptr&lt; elftosb</text>
<text text-anchor="middle" x="713.5" y="-10" font-family="Helvetica,sans-Serif" font-size="10.00">::ExprASTNode &gt;</text>
</a>
</g>
</g>
<!-- Node11&#45;&gt;Node1 -->
<g id="edge13" class="edge"><title>Node11&#45;&gt;Node1</title>
<path fill="none" stroke="#9a32cd" stroke-dasharray="5,2" d="M771.61,-22.2304C868.868,-29.4347 1065.82,-44.0238 1165.99,-51.444"/>
<polygon fill="#9a32cd" stroke="#9a32cd" points="771.617,-18.7214 761.385,-21.473 771.099,-25.7022 771.617,-18.7214"/>
<text text-anchor="middle" x="945" y="-40" font-family="Helvetica,sans-Serif" font-size="10.00"> m_expr</text>
</g>
<!-- Node12&#45;&gt;Node11 -->
<g id="edge14" class="edge"><title>Node12&#45;&gt;Node11</title>
<path fill="none" stroke="#9a32cd" stroke-dasharray="5,2" d="M483.396,-11.787C538.742,-13.2879 616.457,-15.3955 665.639,-16.7292"/>
<polygon fill="#9a32cd" stroke="#9a32cd" points="483.425,-8.28661 473.334,-11.5141 483.235,-15.284 483.425,-8.28661"/>
<text text-anchor="middle" x="507" y="-16" font-family="Helvetica,sans-Serif" font-size="10.00"> _p</text>
</g>
</g>
</svg>
