<?xml version="1.0" encoding="UTF-8" standalone="no"?>
<!DOCTYPE svg PUBLIC "-//W3C//DTD SVG 1.1//EN"
 "http://www.w3.org/Graphics/SVG/1.1/DTD/svg11.dtd">
<!-- Generated by graphviz version 2.38.0 (20140413.2041)
 -->
<!-- Title: FileLogger Pages: 1 -->
<svg width="269pt" height="345pt"
 viewBox="0.00 0.00 269.00 345.00" xmlns="http://www.w3.org/2000/svg" xmlns:xlink="http://www.w3.org/1999/xlink">
<g id="graph0" class="graph" transform="scale(1 1) rotate(0) translate(4 341)">
<title>FileLogger</title>
<polygon fill="white" stroke="none" points="-4,4 -4,-341 265,-341 265,4 -4,4"/>
<!-- Node1 -->
<g id="node1" class="node"><title>Node1</title>
<polygon fill="#bfbfbf" stroke="black" points="63,-0.5 63,-19.5 125,-19.5 125,-0.5 63,-0.5"/>
<text text-anchor="middle" x="94" y="-7.5" font-family="Helvetica,sans-Serif" font-size="10.00">FileLogger</text>
</g>
<!-- Node2 -->
<g id="node2" class="node"><title>Node2</title>
<g id="a_node2"><a xlink:href="group__logging.html#class_logger" target="_top" xlink:title="Base logger class. ">
<polygon fill="white" stroke="black" points="0,-67.5 0,-86.5 46,-86.5 46,-67.5 0,-67.5"/>
<text text-anchor="middle" x="23" y="-74.5" font-family="Helvetica,sans-Serif" font-size="10.00">Logger</text>
</a>
</g>
</g>
<!-- Node2&#45;&gt;Node1 -->
<g id="edge1" class="edge"><title>Node2&#45;&gt;Node1</title>
<path fill="none" stroke="midnightblue" d="M40.0877,-60.3564C54.0459,-47.5777 73.2554,-29.9915 84.5763,-19.6273"/>
<polygon fill="midnightblue" stroke="midnightblue" points="37.5879,-57.8997 32.5754,-67.2338 42.3147,-63.0628 37.5879,-57.8997"/>
</g>
<!-- Node3 -->
<g id="node3" class="node"><title>Node3</title>
<g id="a_node3"><a xlink:title="STL class. ">
<polygon fill="white" stroke="#bfbfbf" points="64,-67.5 64,-86.5 124,-86.5 124,-67.5 64,-67.5"/>
<text text-anchor="middle" x="94" y="-74.5" font-family="Helvetica,sans-Serif" font-size="10.00">std::string</text>
</a>
</g>
</g>
<!-- Node3&#45;&gt;Node1 -->
<g id="edge2" class="edge"><title>Node3&#45;&gt;Node1</title>
<path fill="none" stroke="#9a32cd" stroke-dasharray="5,2" d="M94,-57.037C94,-44.6703 94,-29.1198 94,-19.6273"/>
<polygon fill="#9a32cd" stroke="#9a32cd" points="90.5001,-57.2338 94,-67.2338 97.5001,-57.2338 90.5001,-57.2338"/>
<text text-anchor="middle" x="120.5" y="-41" font-family="Helvetica,sans-Serif" font-size="10.00"> m_file_path</text>
</g>
<!-- Node4 -->
<g id="node4" class="node"><title>Node4</title>
<g id="a_node4"><a xlink:title="STL class. ">
<polygon fill="white" stroke="#bfbfbf" points="38.5,-124.5 38.5,-154.5 133.5,-154.5 133.5,-124.5 38.5,-124.5"/>
<text text-anchor="start" x="46.5" y="-142.5" font-family="Helvetica,sans-Serif" font-size="10.00">std::basic_string&lt;</text>
<text text-anchor="middle" x="86" y="-131.5" font-family="Helvetica,sans-Serif" font-size="10.00"> char &gt;</text>
</a>
</g>
</g>
<!-- Node4&#45;&gt;Node3 -->
<g id="edge3" class="edge"><title>Node4&#45;&gt;Node3</title>
<path fill="none" stroke="midnightblue" d="M89.1931,-114.352C90.4941,-104.513 91.914,-93.7753 92.8708,-86.5399"/>
<polygon fill="midnightblue" stroke="midnightblue" points="85.6967,-114.095 87.8555,-124.468 92.6363,-115.013 85.6967,-114.095"/>
</g>
<!-- Node5 -->
<g id="node5" class="node"><title>Node5</title>
<g id="a_node5"><a xlink:title="STL class. ">
<polygon fill="white" stroke="#bfbfbf" points="146,-67.5 146,-86.5 220,-86.5 220,-67.5 146,-67.5"/>
<text text-anchor="middle" x="183" y="-74.5" font-family="Helvetica,sans-Serif" font-size="10.00">std::ofstream</text>
</a>
</g>
</g>
<!-- Node5&#45;&gt;Node1 -->
<g id="edge4" class="edge"><title>Node5&#45;&gt;Node1</title>
<path fill="none" stroke="#9a32cd" stroke-dasharray="5,2" d="M171.143,-58.8799C165.618,-51.778 158.589,-43.8492 151,-38 141.026,-30.3129 128.511,-24.0836 117.75,-19.5537"/>
<polygon fill="#9a32cd" stroke="#9a32cd" points="168.526,-61.2284 177.267,-67.2146 174.167,-57.0836 168.526,-61.2284"/>
<text text-anchor="middle" x="184" y="-41" font-family="Helvetica,sans-Serif" font-size="10.00"> m_logFile</text>
</g>
<!-- Node6 -->
<g id="node6" class="node"><title>Node6</title>
<g id="a_node6"><a xlink:title="STL class. ">
<polygon fill="white" stroke="#bfbfbf" points="152,-124.5 152,-154.5 254,-154.5 254,-124.5 152,-124.5"/>
<text text-anchor="start" x="160" y="-142.5" font-family="Helvetica,sans-Serif" font-size="10.00">std::basic_ofstream</text>
<text text-anchor="middle" x="203" y="-131.5" font-family="Helvetica,sans-Serif" font-size="10.00">&lt; char &gt;</text>
</a>
</g>
</g>
<!-- Node6&#45;&gt;Node5 -->
<g id="edge5" class="edge"><title>Node6&#45;&gt;Node5</title>
<path fill="none" stroke="midnightblue" d="M195.121,-114.666C191.84,-104.742 188.24,-93.8523 185.823,-86.5399"/>
<polygon fill="midnightblue" stroke="midnightblue" points="191.899,-116.072 198.361,-124.468 198.546,-113.875 191.899,-116.072"/>
</g>
<!-- Node7 -->
<g id="node7" class="node"><title>Node7</title>
<g id="a_node7"><a xlink:title="STL class. ">
<polygon fill="white" stroke="#bfbfbf" points="153,-192.5 153,-222.5 253,-222.5 253,-192.5 153,-192.5"/>
<text text-anchor="start" x="161" y="-210.5" font-family="Helvetica,sans-Serif" font-size="10.00">std::basic_ostream</text>
<text text-anchor="middle" x="203" y="-199.5" font-family="Helvetica,sans-Serif" font-size="10.00">&lt; Char &gt;</text>
</a>
</g>
</g>
<!-- Node7&#45;&gt;Node6 -->
<g id="edge6" class="edge"><title>Node7&#45;&gt;Node6</title>
<path fill="none" stroke="midnightblue" d="M203,-182.032C203,-172.861 203,-162.745 203,-154.793"/>
<polygon fill="midnightblue" stroke="midnightblue" points="199.5,-182.179 203,-192.179 206.5,-182.179 199.5,-182.179"/>
</g>
<!-- Node8 -->
<g id="node8" class="node"><title>Node8</title>
<g id="a_node8"><a xlink:title="STL class. ">
<polygon fill="white" stroke="#bfbfbf" points="145,-260.5 145,-279.5 261,-279.5 261,-260.5 145,-260.5"/>
<text text-anchor="middle" x="203" y="-267.5" font-family="Helvetica,sans-Serif" font-size="10.00">std::basic_ios&lt; Char &gt;</text>
</a>
</g>
</g>
<!-- Node8&#45;&gt;Node7 -->
<g id="edge7" class="edge"><title>Node8&#45;&gt;Node7</title>
<path fill="none" stroke="midnightblue" d="M203,-250.215C203,-241.356 203,-230.958 203,-222.759"/>
<polygon fill="midnightblue" stroke="midnightblue" points="199.5,-250.332 203,-260.332 206.5,-250.332 199.5,-250.332"/>
</g>
<!-- Node9 -->
<g id="node9" class="node"><title>Node9</title>
<g id="a_node9"><a xlink:title="STL class. ">
<polygon fill="white" stroke="#bfbfbf" points="165.5,-317.5 165.5,-336.5 240.5,-336.5 240.5,-317.5 165.5,-317.5"/>
<text text-anchor="middle" x="203" y="-324.5" font-family="Helvetica,sans-Serif" font-size="10.00">std::ios_base</text>
</a>
</g>
</g>
<!-- Node9&#45;&gt;Node8 -->
<g id="edge8" class="edge"><title>Node9&#45;&gt;Node8</title>
<path fill="none" stroke="midnightblue" d="M203,-307.117C203,-297.817 203,-287.056 203,-279.715"/>
<polygon fill="midnightblue" stroke="midnightblue" points="199.5,-307.406 203,-317.406 206.5,-307.406 199.5,-307.406"/>
</g>
</g>
</svg>
