<?xml version="1.0" encoding="UTF-8" standalone="no"?>
<!DOCTYPE svg PUBLIC "-//W3C//DTD SVG 1.1//EN"
 "http://www.w3.org/Graphics/SVG/1.1/DTD/svg11.dtd">
<!-- Generated by graphviz version 2.38.0 (20140413.2041)
 -->
<!-- Title: elftosb::EncoreBootImage::LoadCommand Pages: 1 -->
<svg width="286pt" height="185pt"
 viewBox="0.00 0.00 286.00 185.00" xmlns="http://www.w3.org/2000/svg" xmlns:xlink="http://www.w3.org/1999/xlink">
<g id="graph0" class="graph" transform="scale(1 1) rotate(0) translate(4 181)">
<title>elftosb::EncoreBootImage::LoadCommand</title>
<polygon fill="white" stroke="none" points="-4,4 -4,-181 282,-181 282,4 -4,4"/>
<!-- Node1 -->
<g id="node1" class="node"><title>Node1</title>
<polygon fill="#bfbfbf" stroke="black" points="111,-0.5 111,-30.5 239,-30.5 239,-0.5 111,-0.5"/>
<text text-anchor="start" x="119" y="-18.5" font-family="Helvetica,sans-Serif" font-size="10.00">elftosb::EncoreBootImage</text>
<text text-anchor="middle" x="175" y="-7.5" font-family="Helvetica,sans-Serif" font-size="10.00">::LoadCommand</text>
</g>
<!-- Node2 -->
<g id="node2" class="node"><title>Node2</title>
<g id="a_node2"><a xlink:href="classelftosb_1_1_encore_boot_image_1_1_boot_command.html" target="_top" xlink:title="Abstract base class for all bootloader commands. ">
<polygon fill="white" stroke="black" points="0,-78.5 0,-108.5 128,-108.5 128,-78.5 0,-78.5"/>
<text text-anchor="start" x="8" y="-96.5" font-family="Helvetica,sans-Serif" font-size="10.00">elftosb::EncoreBootImage</text>
<text text-anchor="middle" x="64" y="-85.5" font-family="Helvetica,sans-Serif" font-size="10.00">::BootCommand</text>
</a>
</g>
</g>
<!-- Node2&#45;&gt;Node1 -->
<g id="edge1" class="edge"><title>Node2&#45;&gt;Node1</title>
<path fill="none" stroke="midnightblue" d="M93.0489,-72.6106C112.355,-59.3919 137.235,-42.3569 154.492,-30.5413"/>
<polygon fill="midnightblue" stroke="midnightblue" points="90.892,-69.8456 84.6181,-78.3831 94.8467,-75.6215 90.892,-69.8456"/>
</g>
<!-- Node3 -->
<g id="node3" class="node"><title>Node3</title>
<g id="a_node3"><a xlink:href="classelftosb_1_1_encore_boot_image_1_1_cipher_block_generator.html" target="_top" xlink:title="Base class for objects that produce cipher blocks. ">
<polygon fill="white" stroke="black" points="0,-146.5 0,-176.5 128,-176.5 128,-146.5 0,-146.5"/>
<text text-anchor="start" x="8" y="-164.5" font-family="Helvetica,sans-Serif" font-size="10.00">elftosb::EncoreBootImage</text>
<text text-anchor="middle" x="64" y="-153.5" font-family="Helvetica,sans-Serif" font-size="10.00">::CipherBlockGenerator</text>
</a>
</g>
</g>
<!-- Node3&#45;&gt;Node2 -->
<g id="edge2" class="edge"><title>Node3&#45;&gt;Node2</title>
<path fill="none" stroke="midnightblue" d="M64,-136.032C64,-126.861 64,-116.745 64,-108.793"/>
<polygon fill="midnightblue" stroke="midnightblue" points="60.5001,-136.179 64,-146.179 67.5001,-136.179 60.5001,-136.179"/>
</g>
<!-- Node4 -->
<g id="node4" class="node"><title>Node4</title>
<g id="a_node4"><a xlink:href="group__smart__pointer.html" target="_top" xlink:title="smart_array_ptr\&lt; uint8_t \&gt;">
<polygon fill="white" stroke="black" points="146,-84 146,-103 278,-103 278,-84 146,-84"/>
<text text-anchor="middle" x="212" y="-91" font-family="Helvetica,sans-Serif" font-size="10.00">smart_array_ptr&lt; uint8_t &gt;</text>
</a>
</g>
</g>
<!-- Node4&#45;&gt;Node1 -->
<g id="edge3" class="edge"><title>Node4&#45;&gt;Node1</title>
<path fill="none" stroke="#9a32cd" stroke-dasharray="5,2" d="M203.275,-74.579C196.72,-61.1145 187.868,-42.9314 181.825,-30.5198"/>
<polygon fill="#9a32cd" stroke="#9a32cd" points="200.231,-76.3228 207.756,-83.7818 206.525,-73.2587 200.231,-76.3228"/>
<text text-anchor="middle" x="213" y="-52" font-family="Helvetica,sans-Serif" font-size="10.00"> m_data</text>
</g>
</g>
</svg>
