<?xml version="1.0" encoding="UTF-8" standalone="no"?>
<!DOCTYPE svg PUBLIC "-//W3C//DTD SVG 1.1//EN"
 "http://www.w3.org/Graphics/SVG/1.1/DTD/svg11.dtd">
<!-- Generated by graphviz version 2.38.0 (20140413.2041)
 -->
<!-- Title: elftosb::SourceASTNode Pages: 1 -->
<svg width="304pt" height="230pt"
 viewBox="0.00 0.00 304.00 230.00" xmlns="http://www.w3.org/2000/svg" xmlns:xlink="http://www.w3.org/1999/xlink">
<g id="graph0" class="graph" transform="scale(1 1) rotate(0) translate(4 226)">
<title>elftosb::SourceASTNode</title>
<polygon fill="white" stroke="none" points="-4,4 -4,-226 300,-226 300,4 -4,4"/>
<!-- Node1 -->
<g id="node1" class="node"><title>Node1</title>
<polygon fill="#bfbfbf" stroke="black" points="100,-0.5 100,-19.5 223,-19.5 223,-0.5 100,-0.5"/>
<text text-anchor="middle" x="161.5" y="-7.5" font-family="Helvetica,sans-Serif" font-size="10.00">elftosb::SourceASTNode</text>
</g>
<!-- Node2 -->
<g id="node2" class="node"><title>Node2</title>
<g id="a_node2"><a xlink:href="classelftosb_1_1_a_s_t_node.html" target="_top" xlink:title="The base class for all AST node classes. ">
<polygon fill="white" stroke="black" points="4.5,-67.5 4.5,-86.5 96.5,-86.5 96.5,-67.5 4.5,-67.5"/>
<text text-anchor="middle" x="50.5" y="-74.5" font-family="Helvetica,sans-Serif" font-size="10.00">elftosb::ASTNode</text>
</a>
</g>
</g>
<!-- Node2&#45;&gt;Node1 -->
<g id="edge1" class="edge"><title>Node2&#45;&gt;Node1</title>
<path fill="none" stroke="midnightblue" d="M74.2112,-62.1151C96.203,-49.237 128.241,-30.4758 146.767,-19.6273"/>
<polygon fill="midnightblue" stroke="midnightblue" points="72.3306,-59.1603 65.47,-67.2338 75.8679,-65.2008 72.3306,-59.1603"/>
</g>
<!-- Node2&#45;&gt;Node2 -->
<g id="edge3" class="edge"><title>Node2&#45;&gt;Node2</title>
<path fill="none" stroke="#9a32cd" stroke-dasharray="5,2" d="M106.774,-81.6596C111.534,-80.6626 114.5,-79.1094 114.5,-77 114.5,-73.625 106.906,-71.6738 96.5242,-71.1465"/>
<polygon fill="#9a32cd" stroke="#9a32cd" points="106.052,-78.2199 96.5242,-82.8535 106.862,-85.1729 106.052,-78.2199"/>
<text text-anchor="middle" x="136.5" y="-74.5" font-family="Helvetica,sans-Serif" font-size="10.00"> m_parent</text>
</g>
<!-- Node3 -->
<g id="node3" class="node"><title>Node3</title>
<g id="a_node3"><a xlink:href="structelftosb_1_1token__loc__t.html" target="_top" xlink:title="Token location in the source file. ">
<polygon fill="white" stroke="black" points="0,-134.5 0,-153.5 101,-153.5 101,-134.5 0,-134.5"/>
<text text-anchor="middle" x="50.5" y="-141.5" font-family="Helvetica,sans-Serif" font-size="10.00">elftosb::token_loc_t</text>
</a>
</g>
</g>
<!-- Node3&#45;&gt;Node2 -->
<g id="edge2" class="edge"><title>Node3&#45;&gt;Node2</title>
<path fill="none" stroke="#9a32cd" stroke-dasharray="5,2" d="M50.5,-124.037C50.5,-111.67 50.5,-96.1198 50.5,-86.6273"/>
<polygon fill="#9a32cd" stroke="#9a32cd" points="47.0001,-124.234 50.5,-134.234 54.0001,-124.234 47.0001,-124.234"/>
<text text-anchor="middle" x="76" y="-108" font-family="Helvetica,sans-Serif" font-size="10.00"> m_location</text>
</g>
<!-- Node4 -->
<g id="node4" class="node"><title>Node4</title>
<g id="a_node4"><a xlink:href="group__smart__pointer.html" target="_top" xlink:title="smart_ptr\&lt; std::string \&gt;">
<polygon fill="white" stroke="black" points="177,-67.5 177,-86.5 296,-86.5 296,-67.5 177,-67.5"/>
<text text-anchor="middle" x="236.5" y="-74.5" font-family="Helvetica,sans-Serif" font-size="10.00">smart_ptr&lt; std::string &gt;</text>
</a>
</g>
</g>
<!-- Node4&#45;&gt;Node1 -->
<g id="edge4" class="edge"><title>Node4&#45;&gt;Node1</title>
<path fill="none" stroke="#9a32cd" stroke-dasharray="5,2" d="M218.45,-60.3564C203.705,-47.5777 183.413,-29.9915 171.455,-19.6273"/>
<polygon fill="#9a32cd" stroke="#9a32cd" points="216.536,-63.3294 226.385,-67.2338 221.121,-58.0396 216.536,-63.3294"/>
<text text-anchor="middle" x="224" y="-41" font-family="Helvetica,sans-Serif" font-size="10.00"> m_name</text>
</g>
<!-- Node5 -->
<g id="node5" class="node"><title>Node5</title>
<g id="a_node5"><a xlink:title="STL class. ">
<polygon fill="white" stroke="#bfbfbf" points="206.5,-134.5 206.5,-153.5 266.5,-153.5 266.5,-134.5 206.5,-134.5"/>
<text text-anchor="middle" x="236.5" y="-141.5" font-family="Helvetica,sans-Serif" font-size="10.00">std::string</text>
</a>
</g>
</g>
<!-- Node5&#45;&gt;Node4 -->
<g id="edge5" class="edge"><title>Node5&#45;&gt;Node4</title>
<path fill="none" stroke="#9a32cd" stroke-dasharray="5,2" d="M236.5,-124.037C236.5,-111.67 236.5,-96.1198 236.5,-86.6273"/>
<polygon fill="#9a32cd" stroke="#9a32cd" points="233,-124.234 236.5,-134.234 240,-124.234 233,-124.234"/>
<text text-anchor="middle" x="243.5" y="-108" font-family="Helvetica,sans-Serif" font-size="10.00"> _p</text>
</g>
<!-- Node6 -->
<g id="node6" class="node"><title>Node6</title>
<g id="a_node6"><a xlink:title="STL class. ">
<polygon fill="white" stroke="#bfbfbf" points="189,-191.5 189,-221.5 284,-221.5 284,-191.5 189,-191.5"/>
<text text-anchor="start" x="197" y="-209.5" font-family="Helvetica,sans-Serif" font-size="10.00">std::basic_string&lt;</text>
<text text-anchor="middle" x="236.5" y="-198.5" font-family="Helvetica,sans-Serif" font-size="10.00"> char &gt;</text>
</a>
</g>
</g>
<!-- Node6&#45;&gt;Node5 -->
<g id="edge6" class="edge"><title>Node6&#45;&gt;Node5</title>
<path fill="none" stroke="midnightblue" d="M236.5,-181.352C236.5,-171.513 236.5,-160.775 236.5,-153.54"/>
<polygon fill="midnightblue" stroke="midnightblue" points="233,-181.468 236.5,-191.468 240,-181.468 233,-181.468"/>
</g>
</g>
</svg>
