<?xml version="1.0" encoding="UTF-8" standalone="no"?>
<!DOCTYPE svg PUBLIC "-//W3C//DTD SVG 1.1//EN"
 "http://www.w3.org/Graphics/SVG/1.1/DTD/svg11.dtd">
<!-- Generated by graphviz version 2.38.0 (20140413.2041)
 -->
<!-- Title: elftosb::BinaryValue Pages: 1 -->
<svg width="138pt" height="84pt"
 viewBox="0.00 0.00 138.00 84.00" xmlns="http://www.w3.org/2000/svg" xmlns:xlink="http://www.w3.org/1999/xlink">
<g id="graph0" class="graph" transform="scale(1 1) rotate(0) translate(4 80)">
<title>elftosb::BinaryValue</title>
<polygon fill="white" stroke="none" points="-4,4 -4,-80 134,-80 134,4 -4,4"/>
<!-- Node1 -->
<g id="node1" class="node"><title>Node1</title>
<polygon fill="#bfbfbf" stroke="black" points="23,-0.5 23,-19.5 127,-19.5 127,-0.5 23,-0.5"/>
<text text-anchor="middle" x="75" y="-7.5" font-family="Helvetica,sans-Serif" font-size="10.00">elftosb::BinaryValue</text>
</g>
<!-- Node2 -->
<g id="node2" class="node"><title>Node2</title>
<g id="a_node2"><a xlink:href="classelftosb_1_1_value.html" target="_top" xlink:title="Abstract base class for values of arbitrary types. ">
<polygon fill="white" stroke="black" points="0,-56.5 0,-75.5 76,-75.5 76,-56.5 0,-56.5"/>
<text text-anchor="middle" x="38" y="-63.5" font-family="Helvetica,sans-Serif" font-size="10.00">elftosb::Value</text>
</a>
</g>
</g>
<!-- Node2&#45;&gt;Node1 -->
<g id="edge1" class="edge"><title>Node2&#45;&gt;Node1</title>
<path fill="none" stroke="midnightblue" d="M49.9458,-47.5656C56.3117,-38.2747 63.8668,-27.2484 69.0039,-19.7511"/>
<polygon fill="midnightblue" stroke="midnightblue" points="46.8749,-45.8553 44.1098,-56.083 52.6494,-49.812 46.8749,-45.8553"/>
</g>
<!-- Node3 -->
<g id="node3" class="node"><title>Node3</title>
<g id="a_node3"><a xlink:href="class_blob.html" target="_top" xlink:title="Manages a binary object of arbitrary length. ">
<polygon fill="white" stroke="black" points="94,-56.5 94,-75.5 130,-75.5 130,-56.5 94,-56.5"/>
<text text-anchor="middle" x="112" y="-63.5" font-family="Helvetica,sans-Serif" font-size="10.00">Blob</text>
</a>
</g>
</g>
<!-- Node3&#45;&gt;Node1 -->
<g id="edge2" class="edge"><title>Node3&#45;&gt;Node1</title>
<path fill="none" stroke="midnightblue" d="M100.054,-47.5656C93.6883,-38.2747 86.1332,-27.2484 80.9961,-19.7511"/>
<polygon fill="midnightblue" stroke="midnightblue" points="97.3506,-49.812 105.89,-56.083 103.125,-45.8553 97.3506,-49.812"/>
</g>
</g>
</svg>
