<?xml version="1.0" encoding="UTF-8" standalone="no"?>
<!DOCTYPE svg PUBLIC "-//W3C//DTD SVG 1.1//EN"
 "http://www.w3.org/Graphics/SVG/1.1/DTD/svg11.dtd">
<!-- Generated by graphviz version 2.38.0 (20140413.2041)
 -->
<!-- Title: elftosb::MemoryImageDataSource::TextSegment Pages: 1 -->
<svg width="722pt" height="218pt"
 viewBox="0.00 0.00 722.00 218.00" xmlns="http://www.w3.org/2000/svg" xmlns:xlink="http://www.w3.org/1999/xlink">
<g id="graph0" class="graph" transform="scale(1 1) rotate(0) translate(4 214)">
<title>elftosb::MemoryImageDataSource::TextSegment</title>
<polygon fill="white" stroke="none" points="-4,4 -4,-214 718,-214 718,4 -4,4"/>
<!-- Node1 -->
<g id="node1" class="node"><title>Node1</title>
<polygon fill="#bfbfbf" stroke="black" points="581,-140.5 581,-170.5 714,-170.5 714,-140.5 581,-140.5"/>
<text text-anchor="start" x="589" y="-158.5" font-family="Helvetica,sans-Serif" font-size="10.00">elftosb::MemoryImageData</text>
<text text-anchor="middle" x="647.5" y="-147.5" font-family="Helvetica,sans-Serif" font-size="10.00">Source::TextSegment</text>
</g>
<!-- Node2 -->
<g id="node2" class="node"><title>Node2</title>
<g id="a_node2"><a xlink:href="classelftosb_1_1_data_source_1_1_segment.html" target="_top" xlink:title="Discrete, contiguous part of the source&#39;s data. ">
<polygon fill="white" stroke="black" points="400,-179.5 400,-209.5 502,-209.5 502,-179.5 400,-179.5"/>
<text text-anchor="start" x="408" y="-197.5" font-family="Helvetica,sans-Serif" font-size="10.00">elftosb::DataSource</text>
<text text-anchor="middle" x="451" y="-186.5" font-family="Helvetica,sans-Serif" font-size="10.00">::Segment</text>
</a>
</g>
</g>
<!-- Node2&#45;&gt;Node1 -->
<g id="edge1" class="edge"><title>Node2&#45;&gt;Node1</title>
<path fill="none" stroke="midnightblue" d="M512.183,-182.432C533.937,-178.071 558.599,-173.125 580.802,-168.673"/>
<polygon fill="midnightblue" stroke="midnightblue" points="511.205,-179.059 502.089,-184.457 512.582,-185.922 511.205,-179.059"/>
</g>
<!-- Node3 -->
<g id="node3" class="node"><title>Node3</title>
<g id="a_node3"><a xlink:href="classelftosb_1_1_data_source.html" target="_top" xlink:title="Abstract base class for data sources. ">
<polygon fill="white" stroke="black" points="201,-157 201,-176 303,-176 303,-157 201,-157"/>
<text text-anchor="middle" x="252" y="-164" font-family="Helvetica,sans-Serif" font-size="10.00">elftosb::DataSource</text>
</a>
</g>
</g>
<!-- Node3&#45;&gt;Node2 -->
<g id="edge2" class="edge"><title>Node3&#45;&gt;Node2</title>
<path fill="none" stroke="#9a32cd" stroke-dasharray="5,2" d="M313.085,-175.217C320.795,-176.327 328.584,-177.443 336,-178.5 356.874,-181.474 379.904,-184.714 399.769,-187.496"/>
<polygon fill="#9a32cd" stroke="#9a32cd" points="313.427,-171.73 303.03,-173.767 312.429,-178.659 313.427,-171.73"/>
<text text-anchor="middle" x="359" y="-187.5" font-family="Helvetica,sans-Serif" font-size="10.00"> m_source</text>
</g>
<!-- Node4 -->
<g id="node4" class="node"><title>Node4</title>
<g id="a_node4"><a xlink:href="classelftosb_1_1_data_target.html" target="_top" xlink:title="Abstract base class for the target address or range of data. ">
<polygon fill="white" stroke="black" points="402,-129 402,-148 500,-148 500,-129 402,-129"/>
<text text-anchor="middle" x="451" y="-136" font-family="Helvetica,sans-Serif" font-size="10.00">elftosb::DataTarget</text>
</a>
</g>
</g>
<!-- Node3&#45;&gt;Node4 -->
<g id="edge4" class="edge"><title>Node3&#45;&gt;Node4</title>
<path fill="none" stroke="#9a32cd" stroke-dasharray="5,2" d="M313.44,-157.91C341.85,-153.872 375.251,-149.124 401.909,-145.335"/>
<polygon fill="#9a32cd" stroke="#9a32cd" points="312.629,-154.49 303.221,-159.362 313.614,-161.42 312.629,-154.49"/>
<text text-anchor="middle" x="359" y="-156.5" font-family="Helvetica,sans-Serif" font-size="10.00"> m_source</text>
</g>
<!-- Node4&#45;&gt;Node3 -->
<g id="edge3" class="edge"><title>Node4&#45;&gt;Node3</title>
<path fill="none" stroke="#9a32cd" stroke-dasharray="5,2" d="M391.851,-130.765C373.823,-129.751 353.975,-130.058 336,-133.5 312.698,-137.962 287.602,-148.878 271.18,-156.94"/>
<polygon fill="#9a32cd" stroke="#9a32cd" points="391.719,-134.264 401.94,-131.477 392.211,-127.282 391.719,-134.264"/>
<text text-anchor="middle" x="359" y="-136.5" font-family="Helvetica,sans-Serif" font-size="10.00"> m_target</text>
</g>
<!-- Node5 -->
<g id="node5" class="node"><title>Node5</title>
<g id="a_node5"><a xlink:href="class_st_executable_image.html" target="_top" xlink:title="Used to build a representation of memory regions. ">
<polygon fill="white" stroke="black" points="400.5,-68 400.5,-87 501.5,-87 501.5,-68 400.5,-68"/>
<text text-anchor="middle" x="451" y="-75" font-family="Helvetica,sans-Serif" font-size="10.00">StExecutableImage</text>
</a>
</g>
</g>
<!-- Node5&#45;&gt;Node1 -->
<g id="edge5" class="edge"><title>Node5&#45;&gt;Node1</title>
<path fill="none" stroke="#9a32cd" stroke-dasharray="5,2" d="M485.415,-90.9002C519.705,-104.652 572.962,-126.009 608.753,-140.363"/>
<polygon fill="#9a32cd" stroke="#9a32cd" points="486.434,-87.538 475.85,-87.0643 483.828,-94.035 486.434,-87.538"/>
<text text-anchor="middle" x="541.5" y="-124.5" font-family="Helvetica,sans-Serif" font-size="10.00"> m_image</text>
</g>
<!-- Node6 -->
<g id="node6" class="node"><title>Node6</title>
<polygon fill="white" stroke="#bfbfbf" points="189.5,-99 189.5,-118 314.5,-118 314.5,-99 189.5,-99"/>
<text text-anchor="middle" x="252" y="-106" font-family="Helvetica,sans-Serif" font-size="10.00">std::list&lt; AddressFilter &gt;</text>
</g>
<!-- Node6&#45;&gt;Node5 -->
<g id="edge6" class="edge"><title>Node6&#45;&gt;Node5</title>
<path fill="none" stroke="#9a32cd" stroke-dasharray="5,2" d="M323.406,-97.4208C348.826,-93.4207 376.97,-88.992 400.254,-85.3281"/>
<polygon fill="#9a32cd" stroke="#9a32cd" points="322.78,-93.9763 313.445,-98.9883 323.868,-100.891 322.78,-93.9763"/>
<text text-anchor="middle" x="359" y="-98.5" font-family="Helvetica,sans-Serif" font-size="10.00"> m_filters</text>
</g>
<!-- Node7 -->
<g id="node7" class="node"><title>Node7</title>
<g id="a_node7"><a xlink:href="struct_st_executable_image_1_1_address_filter.html" target="_top" xlink:title="StExecutableImage::\lAddressFilter">
<polygon fill="white" stroke="black" points="0,-98.5 0,-128.5 107,-128.5 107,-98.5 0,-98.5"/>
<text text-anchor="start" x="8" y="-116.5" font-family="Helvetica,sans-Serif" font-size="10.00">StExecutableImage::</text>
<text text-anchor="middle" x="53.5" y="-105.5" font-family="Helvetica,sans-Serif" font-size="10.00">AddressFilter</text>
</a>
</g>
</g>
<!-- Node7&#45;&gt;Node6 -->
<g id="edge7" class="edge"><title>Node7&#45;&gt;Node6</title>
<path fill="none" stroke="#9a32cd" stroke-dasharray="5,2" d="M117.202,-111.905C140.318,-111.316 166.47,-110.651 189.481,-110.065"/>
<polygon fill="#9a32cd" stroke="#9a32cd" points="117.066,-108.407 107.158,-112.16 117.244,-115.404 117.066,-108.407"/>
<text text-anchor="middle" x="146.5" y="-115.5" font-family="Helvetica,sans-Serif" font-size="10.00"> elements</text>
</g>
<!-- Node8 -->
<g id="node8" class="node"><title>Node8</title>
<polygon fill="white" stroke="#bfbfbf" points="186,-55 186,-74 318,-74 318,-55 186,-55"/>
<text text-anchor="middle" x="252" y="-62" font-family="Helvetica,sans-Serif" font-size="10.00">std::list&lt; MemoryRegion &gt;</text>
</g>
<!-- Node8&#45;&gt;Node5 -->
<g id="edge8" class="edge"><title>Node8&#45;&gt;Node5</title>
<path fill="none" stroke="#9a32cd" stroke-dasharray="5,2" d="M328.314,-62.9725C345.956,-63.1991 364.661,-63.9141 382,-65.5 388.447,-66.0896 395.199,-66.9645 401.842,-67.9779"/>
<polygon fill="#9a32cd" stroke="#9a32cd" points="328.095,-59.4707 318.068,-62.8925 328.041,-66.4705 328.095,-59.4707"/>
<text text-anchor="middle" x="359" y="-68.5" font-family="Helvetica,sans-Serif" font-size="10.00"> m_image</text>
</g>
<!-- Node9 -->
<g id="node9" class="node"><title>Node9</title>
<g id="a_node9"><a xlink:href="struct_st_executable_image_1_1_memory_region.html" target="_top" xlink:title="StExecutableImage::\lMemoryRegion">
<polygon fill="white" stroke="black" points="0,-49.5 0,-79.5 107,-79.5 107,-49.5 0,-49.5"/>
<text text-anchor="start" x="8" y="-67.5" font-family="Helvetica,sans-Serif" font-size="10.00">StExecutableImage::</text>
<text text-anchor="middle" x="53.5" y="-56.5" font-family="Helvetica,sans-Serif" font-size="10.00">MemoryRegion</text>
</a>
</g>
</g>
<!-- Node9&#45;&gt;Node8 -->
<g id="edge9" class="edge"><title>Node9&#45;&gt;Node8</title>
<path fill="none" stroke="#9a32cd" stroke-dasharray="5,2" d="M117.336,-64.5C139.229,-64.5 163.83,-64.5 185.903,-64.5"/>
<polygon fill="#9a32cd" stroke="#9a32cd" points="117.158,-61.0001 107.158,-64.5 117.158,-68.0001 117.158,-61.0001"/>
<text text-anchor="middle" x="146.5" y="-67.5" font-family="Helvetica,sans-Serif" font-size="10.00"> elements</text>
</g>
<!-- Node10 -->
<g id="node10" class="node"><title>Node10</title>
<g id="a_node10"><a xlink:title="STL class. ">
<polygon fill="white" stroke="#bfbfbf" points="222,-12 222,-31 282,-31 282,-12 222,-12"/>
<text text-anchor="middle" x="252" y="-19" font-family="Helvetica,sans-Serif" font-size="10.00">std::string</text>
</a>
</g>
</g>
<!-- Node10&#45;&gt;Node5 -->
<g id="edge10" class="edge"><title>Node10&#45;&gt;Node5</title>
<path fill="none" stroke="#9a32cd" stroke-dasharray="5,2" d="M292.264,-27.6469C318.093,-32.1942 352.457,-39.2082 382,-48.5 398.773,-53.7754 417.068,-61.7098 430.453,-67.9465"/>
<polygon fill="#9a32cd" stroke="#9a32cd" points="292.556,-24.1461 282.109,-25.9083 291.375,-31.0457 292.556,-24.1461"/>
<text text-anchor="middle" x="359" y="-51.5" font-family="Helvetica,sans-Serif" font-size="10.00"> m_name</text>
</g>
<!-- Node11 -->
<g id="node11" class="node"><title>Node11</title>
<g id="a_node11"><a xlink:title="STL class. ">
<polygon fill="white" stroke="#bfbfbf" points="6,-0.5 6,-30.5 101,-30.5 101,-0.5 6,-0.5"/>
<text text-anchor="start" x="14" y="-18.5" font-family="Helvetica,sans-Serif" font-size="10.00">std::basic_string&lt;</text>
<text text-anchor="middle" x="53.5" y="-7.5" font-family="Helvetica,sans-Serif" font-size="10.00"> char &gt;</text>
</a>
</g>
</g>
<!-- Node11&#45;&gt;Node10 -->
<g id="edge11" class="edge"><title>Node11&#45;&gt;Node10</title>
<path fill="none" stroke="midnightblue" d="M111.477,-17.2398C147.608,-18.343 192.841,-19.7241 221.831,-20.6093"/>
<polygon fill="midnightblue" stroke="midnightblue" points="111.17,-13.7288 101.068,-16.9219 110.956,-20.7256 111.17,-13.7288"/>
</g>
</g>
</svg>
