<?xml version="1.0" encoding="UTF-8" standalone="no"?>
<!DOCTYPE svg PUBLIC "-//W3C//DTD SVG 1.1//EN"
 "http://www.w3.org/Graphics/SVG/1.1/DTD/svg11.dtd">
<!-- Generated by graphviz version 2.38.0 (20140413.2041)
 -->
<!-- Title: elftosb::FlashEraseOperation Pages: 1 -->
<svg width="470pt" height="127pt"
 viewBox="0.00 0.00 470.00 127.00" xmlns="http://www.w3.org/2000/svg" xmlns:xlink="http://www.w3.org/1999/xlink">
<g id="graph0" class="graph" transform="scale(1 1) rotate(0) translate(4 123)">
<title>elftosb::FlashEraseOperation</title>
<polygon fill="white" stroke="none" points="-4,4 -4,-123 466,-123 466,4 -4,4"/>
<!-- Node1 -->
<g id="node1" class="node"><title>Node1</title>
<polygon fill="#bfbfbf" stroke="black" points="129,-50 129,-69 272,-69 272,-50 129,-50"/>
<text text-anchor="middle" x="200.5" y="-57" font-family="Helvetica,sans-Serif" font-size="10.00">elftosb::FlashEraseOperation</text>
</g>
<!-- Node3 -->
<g id="node3" class="node"><title>Node3</title>
<g id="a_node3"><a xlink:href="classelftosb_1_1_flash_erase_all_external_operation.html" target="_top" xlink:title="Operation to erase the entire external flash memory array. ">
<polygon fill="white" stroke="black" points="311,-88.5 311,-118.5 459,-118.5 459,-88.5 311,-88.5"/>
<text text-anchor="start" x="319" y="-106.5" font-family="Helvetica,sans-Serif" font-size="10.00">elftosb::FlashEraseAllExternal</text>
<text text-anchor="middle" x="385" y="-95.5" font-family="Helvetica,sans-Serif" font-size="10.00">Operation</text>
</a>
</g>
</g>
<!-- Node1&#45;&gt;Node3 -->
<g id="edge2" class="edge"><title>Node1&#45;&gt;Node3</title>
<path fill="none" stroke="midnightblue" d="M251.086,-71.455C272.796,-76.6892 298.512,-82.8893 321.513,-88.4346"/>
<polygon fill="midnightblue" stroke="midnightblue" points="251.642,-67.9887 241.1,-69.0473 250.001,-74.7937 251.642,-67.9887"/>
</g>
<!-- Node4 -->
<g id="node4" class="node"><title>Node4</title>
<g id="a_node4"><a xlink:href="classelftosb_1_1_flash_erase_all_operation.html" target="_top" xlink:title="Operation to erase the entire flash memory array. ">
<polygon fill="white" stroke="black" points="308,-50 308,-69 462,-69 462,-50 308,-50"/>
<text text-anchor="middle" x="385" y="-57" font-family="Helvetica,sans-Serif" font-size="10.00">elftosb::FlashEraseAllOperation</text>
</a>
</g>
</g>
<!-- Node1&#45;&gt;Node4 -->
<g id="edge3" class="edge"><title>Node1&#45;&gt;Node4</title>
<path fill="none" stroke="midnightblue" d="M282.337,-59.5C290.829,-59.5 299.442,-59.5 307.879,-59.5"/>
<polygon fill="midnightblue" stroke="midnightblue" points="282.059,-56.0001 272.059,-59.5 282.059,-63.0001 282.059,-56.0001"/>
</g>
<!-- Node5 -->
<g id="node5" class="node"><title>Node5</title>
<g id="a_node5"><a xlink:href="classelftosb_1_1_flash_erase_all_unsecure_operation.html" target="_top" xlink:title="Operation to erase the entire flash memory array, unsecure version. ">
<polygon fill="white" stroke="black" points="308.5,-0.5 308.5,-30.5 461.5,-30.5 461.5,-0.5 308.5,-0.5"/>
<text text-anchor="start" x="316.5" y="-18.5" font-family="Helvetica,sans-Serif" font-size="10.00">elftosb::FlashEraseAllUnsecure</text>
<text text-anchor="middle" x="385" y="-7.5" font-family="Helvetica,sans-Serif" font-size="10.00">Operation</text>
</a>
</g>
</g>
<!-- Node1&#45;&gt;Node5 -->
<g id="edge4" class="edge"><title>Node1&#45;&gt;Node5</title>
<path fill="none" stroke="midnightblue" d="M251.086,-47.545C272.796,-42.3108 298.512,-36.1107 321.513,-30.5654"/>
<polygon fill="midnightblue" stroke="midnightblue" points="250.001,-44.2063 241.1,-49.9527 251.642,-51.0113 250.001,-44.2063"/>
</g>
<!-- Node2 -->
<g id="node2" class="node"><title>Node2</title>
<g id="a_node2"><a xlink:href="classelftosb_1_1_operation.html" target="_top" xlink:title="Abstract base class for all boot operations. ">
<polygon fill="white" stroke="black" points="0,-50 0,-69 93,-69 93,-50 0,-50"/>
<text text-anchor="middle" x="46.5" y="-57" font-family="Helvetica,sans-Serif" font-size="10.00">elftosb::Operation</text>
</a>
</g>
</g>
<!-- Node2&#45;&gt;Node1 -->
<g id="edge1" class="edge"><title>Node2&#45;&gt;Node1</title>
<path fill="none" stroke="midnightblue" d="M103.125,-59.5C111.51,-59.5 120.252,-59.5 128.901,-59.5"/>
<polygon fill="midnightblue" stroke="midnightblue" points="103.105,-56.0001 93.105,-59.5 103.105,-63.0001 103.105,-56.0001"/>
</g>
</g>
</svg>
