<?xml version="1.0" encoding="UTF-8" standalone="no"?>
<!DOCTYPE svg PUBLIC "-//W3C//DTD SVG 1.1//EN"
 "http://www.w3.org/Graphics/SVG/1.1/DTD/svg11.dtd">
<!-- Generated by graphviz version 2.38.0 (20140413.2041)
 -->
<!-- Title: blfwk::BusPalUartPeripheral Pages: 1 -->
<svg width="211pt" height="152pt"
 viewBox="0.00 0.00 210.50 152.00" xmlns="http://www.w3.org/2000/svg" xmlns:xlink="http://www.w3.org/1999/xlink">
<g id="graph0" class="graph" transform="scale(1 1) rotate(0) translate(4 148)">
<title>blfwk::BusPalUartPeripheral</title>
<polygon fill="white" stroke="none" points="-4,4 -4,-148 206.5,-148 206.5,4 -4,4"/>
<!-- Node1 -->
<g id="node1" class="node"><title>Node1</title>
<polygon fill="#bfbfbf" stroke="black" points="65.5,-0.5 65.5,-19.5 202.5,-19.5 202.5,-0.5 65.5,-0.5"/>
<text text-anchor="middle" x="134" y="-7.5" font-family="Helvetica,sans-Serif" font-size="10.00">blfwk::BusPalUartPeripheral</text>
</g>
<!-- Node2 -->
<g id="node2" class="node"><title>Node2</title>
<g id="a_node2"><a xlink:href="classblfwk_1_1_uart_peripheral.html" target="_top" xlink:title="Peripheral that talks to the target device over COM port hardware. ">
<polygon fill="white" stroke="black" points="0,-67.5 0,-86.5 106,-86.5 106,-67.5 0,-67.5"/>
<text text-anchor="middle" x="53" y="-74.5" font-family="Helvetica,sans-Serif" font-size="10.00">blfwk::UartPeripheral</text>
</a>
</g>
</g>
<!-- Node2&#45;&gt;Node1 -->
<g id="edge1" class="edge"><title>Node2&#45;&gt;Node1</title>
<path fill="none" stroke="midnightblue" d="M72.0495,-60.7134C88.0082,-47.907 110.213,-30.0884 123.249,-19.6273"/>
<polygon fill="midnightblue" stroke="midnightblue" points="69.5328,-58.2453 63.924,-67.2338 73.9139,-63.7048 69.5328,-58.2453"/>
</g>
<!-- Node3 -->
<g id="node3" class="node"><title>Node3</title>
<g id="a_node3"><a xlink:href="classblfwk_1_1_peripheral.html" target="_top" xlink:title="Represents a peripheral. ">
<polygon fill="white" stroke="black" points="9,-124.5 9,-143.5 97,-143.5 97,-124.5 9,-124.5"/>
<text text-anchor="middle" x="53" y="-131.5" font-family="Helvetica,sans-Serif" font-size="10.00">blfwk::Peripheral</text>
</a>
</g>
</g>
<!-- Node3&#45;&gt;Node2 -->
<g id="edge2" class="edge"><title>Node3&#45;&gt;Node2</title>
<path fill="none" stroke="midnightblue" d="M53,-114.117C53,-104.817 53,-94.0557 53,-86.7149"/>
<polygon fill="midnightblue" stroke="midnightblue" points="49.5001,-114.406 53,-124.406 56.5001,-114.406 49.5001,-114.406"/>
</g>
<!-- Node4 -->
<g id="node4" class="node"><title>Node4</title>
<g id="a_node4"><a xlink:href="classblfwk_1_1_bus_pal.html" target="_top" xlink:title="Interface with the BusPal. ">
<polygon fill="white" stroke="black" points="124,-67.5 124,-86.5 200,-86.5 200,-67.5 124,-67.5"/>
<text text-anchor="middle" x="162" y="-74.5" font-family="Helvetica,sans-Serif" font-size="10.00">blfwk::BusPal</text>
</a>
</g>
</g>
<!-- Node4&#45;&gt;Node1 -->
<g id="edge3" class="edge"><title>Node4&#45;&gt;Node1</title>
<path fill="none" stroke="#9a32cd" stroke-dasharray="5,2" d="M154.156,-57.79C148.779,-45.3076 141.889,-29.3135 137.716,-19.6273"/>
<polygon fill="#9a32cd" stroke="#9a32cd" points="151.053,-59.4344 158.224,-67.2338 157.482,-56.665 151.053,-59.4344"/>
<text text-anchor="middle" x="172.5" y="-41" font-family="Helvetica,sans-Serif" font-size="10.00"> m_busPal</text>
</g>
</g>
</svg>
