<?xml version="1.0" encoding="UTF-8" standalone="no"?>
<!DOCTYPE svg PUBLIC "-//W3C//DTD SVG 1.1//EN"
 "http://www.w3.org/Graphics/SVG/1.1/DTD/svg11.dtd">
<!-- Generated by graphviz version 2.38.0 (20140413.2041)
 -->
<!-- Title: elftosb::KeywrapStatementASTNode Pages: 1 -->
<svg width="1235pt" height="130pt"
 viewBox="0.00 0.00 1235.00 130.00" xmlns="http://www.w3.org/2000/svg" xmlns:xlink="http://www.w3.org/1999/xlink">
<g id="graph0" class="graph" transform="scale(1 1) rotate(0) translate(4 126)">
<title>elftosb::KeywrapStatementASTNode</title>
<polygon fill="white" stroke="none" points="-4,4 -4,-126 1231,-126 1231,4 -4,4"/>
<!-- Node1 -->
<g id="node1" class="node"><title>Node1</title>
<polygon fill="#bfbfbf" stroke="black" points="1093,-48 1093,-78 1227,-78 1227,-48 1093,-48"/>
<text text-anchor="start" x="1101" y="-66" font-family="Helvetica,sans-Serif" font-size="10.00">elftosb::KeywrapStatement</text>
<text text-anchor="middle" x="1160" y="-55" font-family="Helvetica,sans-Serif" font-size="10.00">ASTNode</text>
</g>
<!-- Node2 -->
<g id="node2" class="node"><title>Node2</title>
<g id="a_node2"><a xlink:href="classelftosb_1_1_statement_a_s_t_node.html" target="_top" xlink:title="elftosb::StatementASTNode">
<polygon fill="white" stroke="black" points="492,-102.5 492,-121.5 629,-121.5 629,-102.5 492,-102.5"/>
<text text-anchor="middle" x="560.5" y="-109.5" font-family="Helvetica,sans-Serif" font-size="10.00">elftosb::StatementASTNode</text>
</a>
</g>
</g>
<!-- Node2&#45;&gt;Node1 -->
<g id="edge1" class="edge"><title>Node2&#45;&gt;Node1</title>
<path fill="none" stroke="midnightblue" d="M639.482,-108.601C725.602,-104.582 868.325,-97.1362 991,-87 1028.42,-83.9082 1037.83,-83.3035 1075,-78 1080.72,-77.1839 1086.65,-76.2684 1092.58,-75.3026"/>
<polygon fill="midnightblue" stroke="midnightblue" points="639.093,-105.116 629.265,-109.074 639.417,-112.108 639.093,-105.116"/>
</g>
<!-- Node3 -->
<g id="node3" class="node"><title>Node3</title>
<g id="a_node3"><a xlink:href="classelftosb_1_1_a_s_t_node.html" target="_top" xlink:title="The base class for all AST node classes. ">
<polygon fill="white" stroke="black" points="188,-63.5 188,-82.5 280,-82.5 280,-63.5 188,-63.5"/>
<text text-anchor="middle" x="234" y="-70.5" font-family="Helvetica,sans-Serif" font-size="10.00">elftosb::ASTNode</text>
</a>
</g>
</g>
<!-- Node3&#45;&gt;Node2 -->
<g id="edge2" class="edge"><title>Node3&#45;&gt;Node2</title>
<path fill="none" stroke="midnightblue" d="M261.652,-86.9385C272.612,-91.9967 285.62,-97.1617 298,-100 362.675,-114.828 438.634,-116.646 491.971,-115.47"/>
<polygon fill="midnightblue" stroke="midnightblue" points="263.142,-83.7715 252.614,-82.5821 260.102,-90.0772 263.142,-83.7715"/>
</g>
<!-- Node3&#45;&gt;Node3 -->
<g id="edge4" class="edge"><title>Node3&#45;&gt;Node3</title>
<path fill="none" stroke="#9a32cd" stroke-dasharray="5,2" d="M218.531,-92.7663C219.746,-97.4965 224.902,-101 234,-101 248.93,-101 253.245,-91.5653 246.947,-82.7571"/>
<polygon fill="#9a32cd" stroke="#9a32cd" points="222.003,-93.3092 221.053,-82.7571 215.216,-91.5986 222.003,-93.3092"/>
<text text-anchor="middle" x="234" y="-104" font-family="Helvetica,sans-Serif" font-size="10.00"> m_parent</text>
</g>
<!-- Node6 -->
<g id="node6" class="node"><title>Node6</title>
<g id="a_node6"><a xlink:href="classelftosb_1_1_list_a_s_t_node.html" target="_top" xlink:title="AST node that contains other AST nodes. ">
<polygon fill="white" stroke="black" points="647,-53.5 647,-72.5 755,-72.5 755,-53.5 647,-53.5"/>
<text text-anchor="middle" x="701" y="-60.5" font-family="Helvetica,sans-Serif" font-size="10.00">elftosb::ListASTNode</text>
</a>
</g>
</g>
<!-- Node3&#45;&gt;Node6 -->
<g id="edge7" class="edge"><title>Node3&#45;&gt;Node6</title>
<path fill="none" stroke="midnightblue" d="M290.598,-75.0174C366.963,-77.2959 508.552,-79.7571 629,-72 634.828,-71.6247 640.909,-71.0838 646.954,-70.4508"/>
<polygon fill="midnightblue" stroke="midnightblue" points="290.368,-71.5087 280.265,-74.6982 290.152,-78.5054 290.368,-71.5087"/>
</g>
<!-- Node7 -->
<g id="node7" class="node"><title>Node7</title>
<polygon fill="white" stroke="#bfbfbf" points="359,-38.5 359,-57.5 474,-57.5 474,-38.5 359,-38.5"/>
<text text-anchor="middle" x="416.5" y="-45.5" font-family="Helvetica,sans-Serif" font-size="10.00">std::list&lt; ASTNode * &gt;</text>
</g>
<!-- Node3&#45;&gt;Node7 -->
<g id="edge9" class="edge"><title>Node3&#45;&gt;Node7</title>
<path fill="none" stroke="#9a32cd" stroke-dasharray="5,2" d="M289.927,-62.2762C292.653,-61.826 295.356,-61.3975 298,-61 317.788,-58.0254 339.547,-55.4309 358.906,-53.3584"/>
<polygon fill="#9a32cd" stroke="#9a32cd" points="289.27,-58.8378 280.009,-63.9848 290.458,-65.7361 289.27,-58.8378"/>
<text text-anchor="middle" x="319.5" y="-64" font-family="Helvetica,sans-Serif" font-size="10.00"> elements</text>
</g>
<!-- Node9 -->
<g id="node9" class="node"><title>Node9</title>
<g id="a_node9"><a xlink:href="classelftosb_1_1_expr_a_s_t_node.html" target="_top" xlink:title="Abstract base class for all expression AST nodes. ">
<polygon fill="white" stroke="black" points="360,-0.5 360,-19.5 473,-19.5 473,-0.5 360,-0.5"/>
<text text-anchor="middle" x="416.5" y="-7.5" font-family="Helvetica,sans-Serif" font-size="10.00">elftosb::ExprASTNode</text>
</a>
</g>
</g>
<!-- Node3&#45;&gt;Node9 -->
<g id="edge12" class="edge"><title>Node3&#45;&gt;Node9</title>
<path fill="none" stroke="midnightblue" d="M271.238,-59.963C295.935,-51.1221 329.398,-39.2286 359,-29 367.999,-25.8906 377.827,-22.5622 386.726,-19.5738"/>
<polygon fill="midnightblue" stroke="midnightblue" points="269.795,-56.7621 261.563,-63.431 272.157,-63.3516 269.795,-56.7621"/>
</g>
<!-- Node4 -->
<g id="node4" class="node"><title>Node4</title>
<g id="a_node4"><a xlink:href="structelftosb_1_1token__loc__t.html" target="_top" xlink:title="Token location in the source file. ">
<polygon fill="white" stroke="black" points="0,-63.5 0,-82.5 101,-82.5 101,-63.5 0,-63.5"/>
<text text-anchor="middle" x="50.5" y="-70.5" font-family="Helvetica,sans-Serif" font-size="10.00">elftosb::token_loc_t</text>
</a>
</g>
</g>
<!-- Node4&#45;&gt;Node3 -->
<g id="edge3" class="edge"><title>Node4&#45;&gt;Node3</title>
<path fill="none" stroke="#9a32cd" stroke-dasharray="5,2" d="M111.183,-73C136.134,-73 164.648,-73 187.814,-73"/>
<polygon fill="#9a32cd" stroke="#9a32cd" points="111.096,-69.5001 101.096,-73 111.096,-76.5001 111.096,-69.5001"/>
<text text-anchor="middle" x="144.5" y="-76" font-family="Helvetica,sans-Serif" font-size="10.00"> m_location</text>
</g>
<!-- Node5 -->
<g id="node5" class="node"><title>Node5</title>
<g id="a_node5"><a xlink:href="group__smart__pointer.html" target="_top" xlink:title="smart_ptr\&lt; elftosb\l::ListASTNode \&gt;">
<polygon fill="white" stroke="black" points="891,-48 891,-78 986,-78 986,-48 891,-48"/>
<text text-anchor="start" x="899" y="-66" font-family="Helvetica,sans-Serif" font-size="10.00">smart_ptr&lt; elftosb</text>
<text text-anchor="middle" x="938.5" y="-55" font-family="Helvetica,sans-Serif" font-size="10.00">::ListASTNode &gt;</text>
</a>
</g>
</g>
<!-- Node5&#45;&gt;Node1 -->
<g id="edge5" class="edge"><title>Node5&#45;&gt;Node1</title>
<path fill="none" stroke="#9a32cd" stroke-dasharray="5,2" d="M996.208,-63C1025.78,-63 1062.11,-63 1092.95,-63"/>
<polygon fill="#9a32cd" stroke="#9a32cd" points="996.05,-59.5001 986.05,-63 996.05,-66.5001 996.05,-59.5001"/>
<text text-anchor="middle" x="1042" y="-66" font-family="Helvetica,sans-Serif" font-size="10.00"> m_statements</text>
</g>
<!-- Node6&#45;&gt;Node5 -->
<g id="edge6" class="edge"><title>Node6&#45;&gt;Node5</title>
<path fill="none" stroke="#9a32cd" stroke-dasharray="5,2" d="M765.227,-63C804.815,-63 854.956,-63 890.921,-63"/>
<polygon fill="#9a32cd" stroke="#9a32cd" points="765.144,-59.5001 755.144,-63 765.144,-66.5001 765.144,-59.5001"/>
<text text-anchor="middle" x="820.5" y="-66" font-family="Helvetica,sans-Serif" font-size="10.00"> _p</text>
</g>
<!-- Node7&#45;&gt;Node6 -->
<g id="edge8" class="edge"><title>Node7&#45;&gt;Node6</title>
<path fill="none" stroke="#9a32cd" stroke-dasharray="5,2" d="M484.317,-51.5478C533.885,-54.1797 600.574,-57.7207 646.61,-60.1651"/>
<polygon fill="#9a32cd" stroke="#9a32cd" points="484.5,-48.0527 474.328,-51.0174 484.129,-55.0428 484.5,-48.0527"/>
<text text-anchor="middle" x="560.5" y="-62" font-family="Helvetica,sans-Serif" font-size="10.00"> m_list</text>
</g>
<!-- Node8 -->
<g id="node8" class="node"><title>Node8</title>
<g id="a_node8"><a xlink:href="group__smart__pointer.html" target="_top" xlink:title="smart_ptr\&lt; elftosb\l::ExprASTNode \&gt;">
<polygon fill="white" stroke="black" points="773,-1 773,-31 868,-31 868,-1 773,-1"/>
<text text-anchor="start" x="781" y="-19" font-family="Helvetica,sans-Serif" font-size="10.00">smart_ptr&lt; elftosb</text>
<text text-anchor="middle" x="820.5" y="-8" font-family="Helvetica,sans-Serif" font-size="10.00">::ExprASTNode &gt;</text>
</a>
</g>
</g>
<!-- Node8&#45;&gt;Node1 -->
<g id="edge10" class="edge"><title>Node8&#45;&gt;Node1</title>
<path fill="none" stroke="#9a32cd" stroke-dasharray="5,2" d="M878.456,-17.618C911.448,-19.0732 953.706,-21.8224 991,-27 1027.19,-32.0247 1067.22,-40.4838 1099.12,-47.9399"/>
<polygon fill="#9a32cd" stroke="#9a32cd" points="878.224,-14.1055 868.088,-17.1895 877.935,-21.0995 878.224,-14.1055"/>
<text text-anchor="middle" x="938.5" y="-30" font-family="Helvetica,sans-Serif" font-size="10.00"> m_keyblobNumberExpr</text>
</g>
<!-- Node9&#45;&gt;Node8 -->
<g id="edge11" class="edge"><title>Node9&#45;&gt;Node8</title>
<path fill="none" stroke="#9a32cd" stroke-dasharray="5,2" d="M483.539,-10.9857C565.012,-12.2017 701.472,-14.2384 772.821,-15.3033"/>
<polygon fill="#9a32cd" stroke="#9a32cd" points="483.448,-7.484 473.396,-10.8343 483.343,-14.4832 483.448,-7.484"/>
<text text-anchor="middle" x="560.5" y="-17" font-family="Helvetica,sans-Serif" font-size="10.00"> _p</text>
</g>
</g>
</svg>
