<?xml version="1.0" encoding="UTF-8" standalone="no"?>
<!DOCTYPE svg PUBLIC "-//W3C//DTD SVG 1.1//EN"
 "http://www.w3.org/Graphics/SVG/1.1/DTD/svg11.dtd">
<!-- Generated by graphviz version 2.38.0 (20140413.2041)
 -->
<!-- Title: RijndaelCBCMAC Pages: 1 -->
<svg width="140pt" height="162pt"
 viewBox="0.00 0.00 140.00 162.00" xmlns="http://www.w3.org/2000/svg" xmlns:xlink="http://www.w3.org/1999/xlink">
<g id="graph0" class="graph" transform="scale(1 1) rotate(0) translate(4 158)">
<title>RijndaelCBCMAC</title>
<polygon fill="white" stroke="none" points="-4,4 -4,-158 136,-158 136,4 -4,4"/>
<!-- Node1 -->
<g id="node1" class="node"><title>Node1</title>
<polygon fill="#bfbfbf" stroke="black" points="0,-0.5 0,-19.5 93,-19.5 93,-0.5 0,-0.5"/>
<text text-anchor="middle" x="46.5" y="-7.5" font-family="Helvetica,sans-Serif" font-size="10.00">RijndaelCBCMAC</text>
</g>
<!-- Node2 -->
<g id="node2" class="node"><title>Node2</title>
<g id="a_node2"><a xlink:href="class_a_e_s_key.html" target="_top" xlink:title="AESKey\&lt; 128 \&gt;">
<polygon fill="white" stroke="black" points="2.5,-67.5 2.5,-86.5 90.5,-86.5 90.5,-67.5 2.5,-67.5"/>
<text text-anchor="middle" x="46.5" y="-74.5" font-family="Helvetica,sans-Serif" font-size="10.00">AESKey&lt; 128 &gt;</text>
</a>
</g>
</g>
<!-- Node2&#45;&gt;Node1 -->
<g id="edge1" class="edge"><title>Node2&#45;&gt;Node1</title>
<path fill="none" stroke="#9a32cd" stroke-dasharray="5,2" d="M46.5,-57.037C46.5,-44.6703 46.5,-29.1198 46.5,-19.6273"/>
<polygon fill="#9a32cd" stroke="#9a32cd" points="43.0001,-57.2338 46.5,-67.2338 50.0001,-57.2338 43.0001,-57.2338"/>
<text text-anchor="middle" x="63" y="-41" font-family="Helvetica,sans-Serif" font-size="10.00"> m_key</text>
</g>
<!-- Node3 -->
<g id="node3" class="node"><title>Node3</title>
<g id="a_node3"><a xlink:href="class_a_e_s_key_base.html" target="_top" xlink:title="Base class for AESKey&lt;S&gt;. ">
<polygon fill="white" stroke="black" points="8,-134.5 8,-153.5 85,-153.5 85,-134.5 8,-134.5"/>
<text text-anchor="middle" x="46.5" y="-141.5" font-family="Helvetica,sans-Serif" font-size="10.00">AESKeyBase</text>
</a>
</g>
</g>
<!-- Node3&#45;&gt;Node2 -->
<g id="edge2" class="edge"><title>Node3&#45;&gt;Node2</title>
<path fill="none" stroke="midnightblue" d="M40.2999,-124.037C39.2357,-111.67 39.7161,-96.1198 41.7409,-86.6273"/>
<polygon fill="midnightblue" stroke="midnightblue" points="36.8732,-124.808 41.7115,-134.234 43.8071,-123.848 36.8732,-124.808"/>
</g>
<!-- Node3&#45;&gt;Node2 -->
<g id="edge3" class="edge"><title>Node3&#45;&gt;Node2</title>
<path fill="none" stroke="midnightblue" d="M52.7001,-124.037C53.7643,-111.67 53.2839,-96.1198 51.2591,-86.6273"/>
<polygon fill="midnightblue" stroke="midnightblue" points="49.1929,-123.848 51.2885,-134.234 56.1268,-124.808 49.1929,-123.848"/>
</g>
<!-- Node4 -->
<g id="node4" class="node"><title>Node4</title>
<polygon fill="white" stroke="#bfbfbf" points="103,-134.5 103,-153.5 132,-153.5 132,-134.5 103,-134.5"/>
<text text-anchor="middle" x="117.5" y="-141.5" font-family="Helvetica,sans-Serif" font-size="10.00">S</text>
</g>
<!-- Node4&#45;&gt;Node2 -->
<g id="edge4" class="edge"><title>Node4&#45;&gt;Node2</title>
<path fill="none" stroke="#9a32cd" stroke-dasharray="5,2" d="M100.412,-127.356C86.4541,-114.578 67.2446,-96.9915 55.9237,-86.6273"/>
<polygon fill="#9a32cd" stroke="#9a32cd" points="98.1853,-130.063 107.925,-134.234 102.912,-124.9 98.1853,-130.063"/>
<text text-anchor="middle" x="102" y="-108" font-family="Helvetica,sans-Serif" font-size="10.00"> m_key</text>
</g>
</g>
</svg>
