<?xml version="1.0" encoding="UTF-8" standalone="no"?>
<!DOCTYPE svg PUBLIC "-//W3C//DTD SVG 1.1//EN"
 "http://www.w3.org/Graphics/SVG/1.1/DTD/svg11.dtd">
<!-- Generated by graphviz version 2.38.0 (20140413.2041)
 -->
<!-- Title: blfwk::MemoryImageDataSource::FillSegment Pages: 1 -->
<svg width="855pt" height="272pt"
 viewBox="0.00 0.00 855.00 272.00" xmlns="http://www.w3.org/2000/svg" xmlns:xlink="http://www.w3.org/1999/xlink">
<g id="graph0" class="graph" transform="scale(1 1) rotate(0) translate(4 268)">
<title>blfwk::MemoryImageDataSource::FillSegment</title>
<polygon fill="white" stroke="none" points="-4,4 -4,-268 851,-268 851,4 -4,4"/>
<!-- Node1 -->
<g id="node1" class="node"><title>Node1</title>
<polygon fill="#bfbfbf" stroke="black" points="690,-110.5 690,-140.5 847,-140.5 847,-110.5 690,-110.5"/>
<text text-anchor="start" x="698" y="-128.5" font-family="Helvetica,sans-Serif" font-size="10.00">blfwk::MemoryImageDataSource</text>
<text text-anchor="middle" x="768.5" y="-117.5" font-family="Helvetica,sans-Serif" font-size="10.00">::FillSegment</text>
</g>
<!-- Node2 -->
<g id="node2" class="node"><title>Node2</title>
<g id="a_node2"><a xlink:href="classblfwk_1_1_data_source_1_1_pattern_segment.html" target="_top" xlink:title="This is a special type of segment containing a repeating pattern. ">
<polygon fill="white" stroke="black" points="510,-137.5 510,-167.5 611,-167.5 611,-137.5 510,-137.5"/>
<text text-anchor="start" x="518" y="-155.5" font-family="Helvetica,sans-Serif" font-size="10.00">blfwk::DataSource::</text>
<text text-anchor="middle" x="560.5" y="-144.5" font-family="Helvetica,sans-Serif" font-size="10.00">PatternSegment</text>
</a>
</g>
</g>
<!-- Node2&#45;&gt;Node1 -->
<g id="edge1" class="edge"><title>Node2&#45;&gt;Node1</title>
<path fill="none" stroke="midnightblue" d="M621.043,-144.696C642.489,-141.885 667.012,-138.671 689.78,-135.687"/>
<polygon fill="midnightblue" stroke="midnightblue" points="620.565,-141.228 611.104,-145.998 621.474,-148.169 620.565,-141.228"/>
</g>
<!-- Node3 -->
<g id="node3" class="node"><title>Node3</title>
<g id="a_node3"><a xlink:href="classblfwk_1_1_data_source_1_1_segment.html" target="_top" xlink:title="Discrete, contiguous part of the source&#39;s data. ">
<polygon fill="white" stroke="black" points="310.5,-233.5 310.5,-263.5 411.5,-263.5 411.5,-233.5 310.5,-233.5"/>
<text text-anchor="start" x="318.5" y="-251.5" font-family="Helvetica,sans-Serif" font-size="10.00">blfwk::DataSource::</text>
<text text-anchor="middle" x="361" y="-240.5" font-family="Helvetica,sans-Serif" font-size="10.00">Segment</text>
</a>
</g>
</g>
<!-- Node3&#45;&gt;Node2 -->
<g id="edge2" class="edge"><title>Node3&#45;&gt;Node2</title>
<path fill="none" stroke="midnightblue" d="M404.251,-229.221C411.843,-225.694 419.671,-222.016 427,-218.5 462.568,-201.438 503.12,-181.108 529.891,-167.563"/>
<polygon fill="midnightblue" stroke="midnightblue" points="402.763,-226.053 395.156,-233.428 405.702,-232.406 402.763,-226.053"/>
</g>
<!-- Node4 -->
<g id="node4" class="node"><title>Node4</title>
<g id="a_node4"><a xlink:href="classblfwk_1_1_data_source.html" target="_top" xlink:title="Abstract base class for data sources. ">
<polygon fill="white" stroke="black" points="112,-210 112,-229 207,-229 207,-210 112,-210"/>
<text text-anchor="middle" x="159.5" y="-217" font-family="Helvetica,sans-Serif" font-size="10.00">blfwk::DataSource</text>
</a>
</g>
</g>
<!-- Node4&#45;&gt;Node3 -->
<g id="edge3" class="edge"><title>Node4&#45;&gt;Node3</title>
<path fill="none" stroke="#9a32cd" stroke-dasharray="5,2" d="M217.123,-227.731C246.469,-231.997 281.983,-237.159 310.262,-241.27"/>
<polygon fill="#9a32cd" stroke="#9a32cd" points="217.422,-224.238 207.022,-226.263 216.415,-231.165 217.422,-224.238"/>
<text text-anchor="middle" x="254" y="-238.5" font-family="Helvetica,sans-Serif" font-size="10.00"> m_source</text>
</g>
<!-- Node5 -->
<g id="node5" class="node"><title>Node5</title>
<g id="a_node5"><a xlink:href="classblfwk_1_1_data_target.html" target="_top" xlink:title="Abstract base class for the target address or range of data. ">
<polygon fill="white" stroke="black" points="315,-190 315,-209 407,-209 407,-190 315,-190"/>
<text text-anchor="middle" x="361" y="-197" font-family="Helvetica,sans-Serif" font-size="10.00">blfwk::DataTarget</text>
</a>
</g>
</g>
<!-- Node4&#45;&gt;Node5 -->
<g id="edge5" class="edge"><title>Node4&#45;&gt;Node5</title>
<path fill="none" stroke="#9a32cd" stroke-dasharray="5,2" d="M217.222,-213.814C248.135,-210.715 285.869,-206.932 314.78,-204.033"/>
<polygon fill="#9a32cd" stroke="#9a32cd" points="216.623,-210.356 207.022,-214.836 217.321,-217.321 216.623,-210.356"/>
<text text-anchor="middle" x="254" y="-214.5" font-family="Helvetica,sans-Serif" font-size="10.00"> m_source</text>
</g>
<!-- Node5&#45;&gt;Node4 -->
<g id="edge4" class="edge"><title>Node5&#45;&gt;Node4</title>
<path fill="none" stroke="#9a32cd" stroke-dasharray="5,2" d="M314.955,-187.999C289.988,-183.358 258.519,-180.378 231,-186.5 210.817,-190.99 189.577,-201.9 175.752,-209.953"/>
<polygon fill="#9a32cd" stroke="#9a32cd" points="314.383,-191.454 324.877,-189.992 315.762,-184.591 314.383,-191.454"/>
<text text-anchor="middle" x="254" y="-189.5" font-family="Helvetica,sans-Serif" font-size="10.00"> m_target</text>
</g>
<!-- Node6 -->
<g id="node6" class="node"><title>Node6</title>
<g id="a_node6"><a xlink:href="classblfwk_1_1_sized_integer_value.html" target="_top" xlink:title="Adds a word size attribute to IntegerValue. ">
<polygon fill="white" stroke="black" points="299.5,-143 299.5,-162 422.5,-162 422.5,-143 299.5,-143"/>
<text text-anchor="middle" x="361" y="-150" font-family="Helvetica,sans-Serif" font-size="10.00">blfwk::SizedIntegerValue</text>
</a>
</g>
</g>
<!-- Node6&#45;&gt;Node2 -->
<g id="edge6" class="edge"><title>Node6&#45;&gt;Node2</title>
<path fill="none" stroke="#9a32cd" stroke-dasharray="5,2" d="M432.626,-152.5C458.217,-152.5 486.557,-152.5 509.95,-152.5"/>
<polygon fill="#9a32cd" stroke="#9a32cd" points="432.599,-149 422.599,-152.5 432.599,-156 432.599,-149"/>
<text text-anchor="middle" x="468.5" y="-155.5" font-family="Helvetica,sans-Serif" font-size="10.00"> m_pattern</text>
</g>
<!-- Node7 -->
<g id="node7" class="node"><title>Node7</title>
<g id="a_node7"><a xlink:href="classblfwk_1_1_integer_value.html" target="_top" xlink:title="32&#45;bit signed integer value. ">
<polygon fill="white" stroke="black" points="110.5,-148 110.5,-167 208.5,-167 208.5,-148 110.5,-148"/>
<text text-anchor="middle" x="159.5" y="-155" font-family="Helvetica,sans-Serif" font-size="10.00">blfwk::IntegerValue</text>
</a>
</g>
</g>
<!-- Node7&#45;&gt;Node6 -->
<g id="edge7" class="edge"><title>Node7&#45;&gt;Node6</title>
<path fill="none" stroke="midnightblue" d="M218.714,-156.041C243.981,-155.408 273.576,-154.666 299.134,-154.025"/>
<polygon fill="midnightblue" stroke="midnightblue" points="218.448,-152.546 208.539,-156.296 218.624,-159.544 218.448,-152.546"/>
</g>
<!-- Node8 -->
<g id="node8" class="node"><title>Node8</title>
<g id="a_node8"><a xlink:href="classblfwk_1_1_value.html" target="_top" xlink:title="Abstract base class for values of arbitrary types. ">
<polygon fill="white" stroke="black" points="0,-148 0,-167 69,-167 69,-148 0,-148"/>
<text text-anchor="middle" x="34.5" y="-155" font-family="Helvetica,sans-Serif" font-size="10.00">blfwk::Value</text>
</a>
</g>
</g>
<!-- Node8&#45;&gt;Node7 -->
<g id="edge8" class="edge"><title>Node8&#45;&gt;Node7</title>
<path fill="none" stroke="midnightblue" d="M79.2516,-157.5C89.27,-157.5 99.9756,-157.5 110.174,-157.5"/>
<polygon fill="midnightblue" stroke="midnightblue" points="79.1103,-154 69.1103,-157.5 79.1103,-161 79.1103,-154"/>
</g>
<!-- Node9 -->
<g id="node9" class="node"><title>Node9</title>
<g id="a_node9"><a xlink:href="class_st_executable_image.html" target="_top" xlink:title="Used to build a representation of memory regions. ">
<polygon fill="white" stroke="black" points="510,-69 510,-88 611,-88 611,-69 510,-69"/>
<text text-anchor="middle" x="560.5" y="-76" font-family="Helvetica,sans-Serif" font-size="10.00">StExecutableImage</text>
</a>
</g>
</g>
<!-- Node9&#45;&gt;Node1 -->
<g id="edge9" class="edge"><title>Node9&#45;&gt;Node1</title>
<path fill="none" stroke="#9a32cd" stroke-dasharray="5,2" d="M613.126,-90.2786C639.911,-96.3898 672.926,-103.922 701.541,-110.451"/>
<polygon fill="#9a32cd" stroke="#9a32cd" points="613.715,-86.8233 603.187,-88.0112 612.158,-93.6479 613.715,-86.8233"/>
<text text-anchor="middle" x="650.5" y="-106.5" font-family="Helvetica,sans-Serif" font-size="10.00"> m_image</text>
</g>
<!-- Node10 -->
<g id="node10" class="node"><title>Node10</title>
<polygon fill="white" stroke="#bfbfbf" points="298.5,-101 298.5,-120 423.5,-120 423.5,-101 298.5,-101"/>
<text text-anchor="middle" x="361" y="-108" font-family="Helvetica,sans-Serif" font-size="10.00">std::list&lt; AddressFilter &gt;</text>
</g>
<!-- Node10&#45;&gt;Node9 -->
<g id="edge10" class="edge"><title>Node10&#45;&gt;Node9</title>
<path fill="none" stroke="#9a32cd" stroke-dasharray="5,2" d="M430.874,-99.3406C456.819,-95.1369 485.801,-90.441 509.677,-86.5725"/>
<polygon fill="#9a32cd" stroke="#9a32cd" points="430.033,-95.9312 420.722,-100.986 431.153,-102.841 430.033,-95.9312"/>
<text text-anchor="middle" x="468.5" y="-99.5" font-family="Helvetica,sans-Serif" font-size="10.00"> m_filters</text>
</g>
<!-- Node11 -->
<g id="node11" class="node"><title>Node11</title>
<g id="a_node11"><a xlink:href="struct_st_executable_image_1_1_address_filter.html" target="_top" xlink:title="StExecutableImage::\lAddressFilter">
<polygon fill="white" stroke="black" points="106,-98.5 106,-128.5 213,-128.5 213,-98.5 106,-98.5"/>
<text text-anchor="start" x="114" y="-116.5" font-family="Helvetica,sans-Serif" font-size="10.00">StExecutableImage::</text>
<text text-anchor="middle" x="159.5" y="-105.5" font-family="Helvetica,sans-Serif" font-size="10.00">AddressFilter</text>
</a>
</g>
</g>
<!-- Node11&#45;&gt;Node10 -->
<g id="edge11" class="edge"><title>Node11&#45;&gt;Node10</title>
<path fill="none" stroke="#9a32cd" stroke-dasharray="5,2" d="M223.203,-112.557C247.114,-112.198 274.336,-111.788 298.165,-111.43"/>
<polygon fill="#9a32cd" stroke="#9a32cd" points="223.123,-109.058 213.177,-112.708 223.229,-116.057 223.123,-109.058"/>
<text text-anchor="middle" x="254" y="-115.5" font-family="Helvetica,sans-Serif" font-size="10.00"> elements</text>
</g>
<!-- Node12 -->
<g id="node12" class="node"><title>Node12</title>
<polygon fill="white" stroke="#bfbfbf" points="295,-60 295,-79 427,-79 427,-60 295,-60"/>
<text text-anchor="middle" x="361" y="-67" font-family="Helvetica,sans-Serif" font-size="10.00">std::list&lt; MemoryRegion &gt;</text>
</g>
<!-- Node12&#45;&gt;Node9 -->
<g id="edge12" class="edge"><title>Node12&#45;&gt;Node9</title>
<path fill="none" stroke="#9a32cd" stroke-dasharray="5,2" d="M437.487,-72.9399C461.781,-74.047 488.067,-75.2448 509.997,-76.2442"/>
<polygon fill="#9a32cd" stroke="#9a32cd" points="437.365,-69.4308 427.216,-72.4719 437.047,-76.4236 437.365,-69.4308"/>
<text text-anchor="middle" x="468.5" y="-78.5" font-family="Helvetica,sans-Serif" font-size="10.00"> m_image</text>
</g>
<!-- Node13 -->
<g id="node13" class="node"><title>Node13</title>
<g id="a_node13"><a xlink:href="struct_st_executable_image_1_1_memory_region.html" target="_top" xlink:title="StExecutableImage::\lMemoryRegion">
<polygon fill="white" stroke="black" points="106,-49.5 106,-79.5 213,-79.5 213,-49.5 106,-49.5"/>
<text text-anchor="start" x="114" y="-67.5" font-family="Helvetica,sans-Serif" font-size="10.00">StExecutableImage::</text>
<text text-anchor="middle" x="159.5" y="-56.5" font-family="Helvetica,sans-Serif" font-size="10.00">MemoryRegion</text>
</a>
</g>
</g>
<!-- Node13&#45;&gt;Node12 -->
<g id="edge13" class="edge"><title>Node13&#45;&gt;Node12</title>
<path fill="none" stroke="#9a32cd" stroke-dasharray="5,2" d="M223.41,-66.0767C246.182,-66.6474 271.934,-67.2928 294.891,-67.8682"/>
<polygon fill="#9a32cd" stroke="#9a32cd" points="223.262,-62.572 213.177,-65.8202 223.086,-69.5698 223.262,-62.572"/>
<text text-anchor="middle" x="254" y="-70.5" font-family="Helvetica,sans-Serif" font-size="10.00"> elements</text>
</g>
<!-- Node14 -->
<g id="node14" class="node"><title>Node14</title>
<g id="a_node14"><a xlink:title="STL class. ">
<polygon fill="white" stroke="#bfbfbf" points="331,-14 331,-33 391,-33 391,-14 331,-14"/>
<text text-anchor="middle" x="361" y="-21" font-family="Helvetica,sans-Serif" font-size="10.00">std::string</text>
</a>
</g>
</g>
<!-- Node14&#45;&gt;Node9 -->
<g id="edge14" class="edge"><title>Node14&#45;&gt;Node9</title>
<path fill="none" stroke="#9a32cd" stroke-dasharray="5,2" d="M401.03,-33.7349C426.884,-40.5818 461.521,-49.8832 492,-58.5 503.761,-61.8251 516.634,-65.6042 527.955,-68.9753"/>
<polygon fill="#9a32cd" stroke="#9a32cd" points="401.791,-30.3161 391.229,-31.1454 400.003,-37.0838 401.791,-30.3161"/>
<text text-anchor="middle" x="468.5" y="-61.5" font-family="Helvetica,sans-Serif" font-size="10.00"> m_name</text>
</g>
<!-- Node15 -->
<g id="node15" class="node"><title>Node15</title>
<g id="a_node15"><a xlink:title="STL class. ">
<polygon fill="white" stroke="#bfbfbf" points="112,-0.5 112,-30.5 207,-30.5 207,-0.5 112,-0.5"/>
<text text-anchor="start" x="120" y="-18.5" font-family="Helvetica,sans-Serif" font-size="10.00">std::basic_string&lt;</text>
<text text-anchor="middle" x="159.5" y="-7.5" font-family="Helvetica,sans-Serif" font-size="10.00"> char &gt;</text>
</a>
</g>
</g>
<!-- Node15&#45;&gt;Node14 -->
<g id="edge15" class="edge"><title>Node15&#45;&gt;Node14</title>
<path fill="none" stroke="midnightblue" d="M217.182,-17.7729C254.202,-19.2575 301.017,-21.1348 330.746,-22.3269"/>
<polygon fill="midnightblue" stroke="midnightblue" points="217.154,-14.2691 207.022,-17.3655 216.874,-21.2635 217.154,-14.2691"/>
</g>
</g>
</svg>
