<?xml version="1.0" encoding="UTF-8" standalone="no"?>
<!DOCTYPE svg PUBLIC "-//W3C//DTD SVG 1.1//EN"
 "http://www.w3.org/Graphics/SVG/1.1/DTD/svg11.dtd">
<!-- Generated by graphviz version 2.38.0 (20140413.2041)
 -->
<!-- Title: elftosb::OptionsBlockASTNode Pages: 1 -->
<svg width="238pt" height="374pt"
 viewBox="0.00 0.00 238.00 374.00" xmlns="http://www.w3.org/2000/svg" xmlns:xlink="http://www.w3.org/1999/xlink">
<g id="graph0" class="graph" transform="scale(1 1) rotate(0) translate(4 370)">
<title>elftosb::OptionsBlockASTNode</title>
<polygon fill="white" stroke="none" points="-4,4 -4,-370 234,-370 234,4 -4,4"/>
<!-- Node1 -->
<g id="node1" class="node"><title>Node1</title>
<polygon fill="#bfbfbf" stroke="black" points="0,-0.5 0,-19.5 151,-19.5 151,-0.5 0,-0.5"/>
<text text-anchor="middle" x="75.5" y="-7.5" font-family="Helvetica,sans-Serif" font-size="10.00">elftosb::OptionsBlockASTNode</text>
</g>
<!-- Node2 -->
<g id="node2" class="node"><title>Node2</title>
<g id="a_node2"><a xlink:href="classelftosb_1_1_a_s_t_node.html" target="_top" xlink:title="The base class for all AST node classes. ">
<polygon fill="white" stroke="black" points="40.5,-279.5 40.5,-298.5 132.5,-298.5 132.5,-279.5 40.5,-279.5"/>
<text text-anchor="middle" x="86.5" y="-286.5" font-family="Helvetica,sans-Serif" font-size="10.00">elftosb::ASTNode</text>
</a>
</g>
</g>
<!-- Node2&#45;&gt;Node1 -->
<g id="edge1" class="edge"><title>Node2&#45;&gt;Node1</title>
<path fill="none" stroke="midnightblue" d="M70.4672,-271.69C60.0891,-259.372 48.5,-241.48 48.5,-223 48.5,-223 48.5,-223 48.5,-81.5 48.5,-57.9083 61.8484,-32.6383 69.774,-19.7135"/>
<polygon fill="midnightblue" stroke="midnightblue" points="68.0042,-274.185 77.3013,-279.266 73.2019,-269.496 68.0042,-274.185"/>
</g>
<!-- Node2&#45;&gt;Node2 -->
<g id="edge3" class="edge"><title>Node2&#45;&gt;Node2</title>
<path fill="none" stroke="#9a32cd" stroke-dasharray="5,2" d="M142.774,-293.66C147.534,-292.663 150.5,-291.109 150.5,-289 150.5,-285.625 142.906,-283.674 132.524,-283.146"/>
<polygon fill="#9a32cd" stroke="#9a32cd" points="142.052,-290.22 132.524,-294.854 142.862,-297.173 142.052,-290.22"/>
<text text-anchor="middle" x="172.5" y="-286.5" font-family="Helvetica,sans-Serif" font-size="10.00"> m_parent</text>
</g>
<!-- Node5 -->
<g id="node5" class="node"><title>Node5</title>
<g id="a_node5"><a xlink:href="classelftosb_1_1_list_a_s_t_node.html" target="_top" xlink:title="AST node that contains other AST nodes. ">
<polygon fill="white" stroke="black" points="76.5,-145.5 76.5,-164.5 184.5,-164.5 184.5,-145.5 76.5,-145.5"/>
<text text-anchor="middle" x="130.5" y="-152.5" font-family="Helvetica,sans-Serif" font-size="10.00">elftosb::ListASTNode</text>
</a>
</g>
</g>
<!-- Node2&#45;&gt;Node5 -->
<g id="edge6" class="edge"><title>Node2&#45;&gt;Node5</title>
<path fill="none" stroke="midnightblue" d="M90.1724,-269.517C93.4871,-253.962 98.857,-231.242 105.5,-212 111.476,-194.69 120.707,-175.361 126.122,-164.54"/>
<polygon fill="midnightblue" stroke="midnightblue" points="86.7212,-268.924 88.1332,-279.424 93.5774,-270.335 86.7212,-268.924"/>
</g>
<!-- Node6 -->
<g id="node6" class="node"><title>Node6</title>
<polygon fill="white" stroke="#bfbfbf" points="115,-212.5 115,-231.5 230,-231.5 230,-212.5 115,-212.5"/>
<text text-anchor="middle" x="172.5" y="-219.5" font-family="Helvetica,sans-Serif" font-size="10.00">std::list&lt; ASTNode * &gt;</text>
</g>
<!-- Node2&#45;&gt;Node6 -->
<g id="edge8" class="edge"><title>Node2&#45;&gt;Node6</title>
<path fill="none" stroke="#9a32cd" stroke-dasharray="5,2" d="M106.256,-273.068C123.232,-260.238 147.116,-242.185 161.085,-231.627"/>
<polygon fill="#9a32cd" stroke="#9a32cd" points="103.966,-270.412 98.0983,-279.234 108.186,-275.996 103.966,-270.412"/>
<text text-anchor="middle" x="157" y="-253" font-family="Helvetica,sans-Serif" font-size="10.00"> elements</text>
</g>
<!-- Node3 -->
<g id="node3" class="node"><title>Node3</title>
<g id="a_node3"><a xlink:href="structelftosb_1_1token__loc__t.html" target="_top" xlink:title="Token location in the source file. ">
<polygon fill="white" stroke="black" points="36,-346.5 36,-365.5 137,-365.5 137,-346.5 36,-346.5"/>
<text text-anchor="middle" x="86.5" y="-353.5" font-family="Helvetica,sans-Serif" font-size="10.00">elftosb::token_loc_t</text>
</a>
</g>
</g>
<!-- Node3&#45;&gt;Node2 -->
<g id="edge2" class="edge"><title>Node3&#45;&gt;Node2</title>
<path fill="none" stroke="#9a32cd" stroke-dasharray="5,2" d="M86.5,-336.037C86.5,-323.67 86.5,-308.12 86.5,-298.627"/>
<polygon fill="#9a32cd" stroke="#9a32cd" points="83.0001,-336.234 86.5,-346.234 90.0001,-336.234 83.0001,-336.234"/>
<text text-anchor="middle" x="112" y="-320" font-family="Helvetica,sans-Serif" font-size="10.00"> m_location</text>
</g>
<!-- Node4 -->
<g id="node4" class="node"><title>Node4</title>
<g id="a_node4"><a xlink:href="group__smart__pointer.html" target="_top" xlink:title="smart_ptr\&lt; elftosb\l::ListASTNode \&gt;">
<polygon fill="white" stroke="black" points="78,-67.5 78,-97.5 173,-97.5 173,-67.5 78,-67.5"/>
<text text-anchor="start" x="86" y="-85.5" font-family="Helvetica,sans-Serif" font-size="10.00">smart_ptr&lt; elftosb</text>
<text text-anchor="middle" x="125.5" y="-74.5" font-family="Helvetica,sans-Serif" font-size="10.00">::ListASTNode &gt;</text>
</a>
</g>
</g>
<!-- Node4&#45;&gt;Node1 -->
<g id="edge4" class="edge"><title>Node4&#45;&gt;Node1</title>
<path fill="none" stroke="#9a32cd" stroke-dasharray="5,2" d="M109.547,-59.006C100.131,-45.7295 88.7359,-29.6626 81.8072,-19.8932"/>
<polygon fill="#9a32cd" stroke="#9a32cd" points="106.742,-61.1012 115.382,-67.2333 112.452,-57.0517 106.742,-61.1012"/>
<text text-anchor="middle" x="127" y="-41" font-family="Helvetica,sans-Serif" font-size="10.00"> m_options</text>
</g>
<!-- Node5&#45;&gt;Node4 -->
<g id="edge5" class="edge"><title>Node5&#45;&gt;Node4</title>
<path fill="none" stroke="#9a32cd" stroke-dasharray="5,2" d="M129.169,-135.236C128.33,-123.408 127.265,-108.383 126.498,-97.5762"/>
<polygon fill="#9a32cd" stroke="#9a32cd" points="125.688,-135.628 129.887,-145.355 132.671,-135.133 125.688,-135.628"/>
<text text-anchor="middle" x="135.5" y="-119" font-family="Helvetica,sans-Serif" font-size="10.00"> _p</text>
</g>
<!-- Node6&#45;&gt;Node5 -->
<g id="edge7" class="edge"><title>Node6&#45;&gt;Node5</title>
<path fill="none" stroke="#9a32cd" stroke-dasharray="5,2" d="M161.215,-203.535C153.083,-190.95 142.459,-174.507 136.075,-164.627"/>
<polygon fill="#9a32cd" stroke="#9a32cd" points="158.469,-205.734 166.836,-212.234 164.348,-201.935 158.469,-205.734"/>
<text text-anchor="middle" x="168.5" y="-186" font-family="Helvetica,sans-Serif" font-size="10.00"> m_list</text>
</g>
</g>
</svg>
