<?xml version="1.0" encoding="UTF-8" standalone="no"?>
<!DOCTYPE svg PUBLIC "-//W3C//DTD SVG 1.1//EN"
 "http://www.w3.org/Graphics/SVG/1.1/DTD/svg11.dtd">
<!-- Generated by graphviz version 2.38.0 (20140413.2041)
 -->
<!-- Title: blfwk::DataPacket Pages: 1 -->
<svg width="238pt" height="106pt"
 viewBox="0.00 0.00 237.50 106.00" xmlns="http://www.w3.org/2000/svg" xmlns:xlink="http://www.w3.org/1999/xlink">
<g id="graph0" class="graph" transform="scale(1 1) rotate(0) translate(4 102)">
<title>blfwk::DataPacket</title>
<polygon fill="white" stroke="none" points="-4,4 -4,-102 233.5,-102 233.5,4 -4,4"/>
<!-- Node1 -->
<g id="node1" class="node"><title>Node1</title>
<polygon fill="#bfbfbf" stroke="black" points="62,-0.5 62,-19.5 157,-19.5 157,-0.5 62,-0.5"/>
<text text-anchor="middle" x="109.5" y="-7.5" font-family="Helvetica,sans-Serif" font-size="10.00">blfwk::DataPacket</text>
</g>
<!-- Node2 -->
<g id="node2" class="node"><title>Node2</title>
<g id="a_node2"><a xlink:href="classblfwk_1_1_data_packet_1_1_data_consumer.html" target="_top" xlink:title="Abstract class to consume data from data phase. ">
<polygon fill="white" stroke="black" points="0,-67.5 0,-97.5 101,-97.5 101,-67.5 0,-67.5"/>
<text text-anchor="start" x="8" y="-85.5" font-family="Helvetica,sans-Serif" font-size="10.00">blfwk::DataPacket::</text>
<text text-anchor="middle" x="50.5" y="-74.5" font-family="Helvetica,sans-Serif" font-size="10.00">DataConsumer</text>
</a>
</g>
</g>
<!-- Node2&#45;&gt;Node1 -->
<g id="edge1" class="edge"><title>Node2&#45;&gt;Node1</title>
<path fill="none" stroke="#9a32cd" stroke-dasharray="5,2" d="M56.7262,-57.782C59.2981,-50.9153 62.8068,-43.7329 67.5,-38 73.7598,-30.3535 82.7732,-24.163 90.8464,-19.648"/>
<polygon fill="#9a32cd" stroke="#9a32cd" points="53.3591,-56.8189 53.5996,-67.411 60.0169,-58.9808 53.3591,-56.8189"/>
<text text-anchor="middle" x="107.5" y="-41" font-family="Helvetica,sans-Serif" font-size="10.00"> m_dataConsumer</text>
</g>
<!-- Node3 -->
<g id="node3" class="node"><title>Node3</title>
<g id="a_node3"><a xlink:href="classblfwk_1_1_data_packet_1_1_data_producer.html" target="_top" xlink:title="Abstract class to provide data for data phase. ">
<polygon fill="white" stroke="black" points="119,-67.5 119,-97.5 220,-97.5 220,-67.5 119,-67.5"/>
<text text-anchor="start" x="127" y="-85.5" font-family="Helvetica,sans-Serif" font-size="10.00">blfwk::DataPacket::</text>
<text text-anchor="middle" x="169.5" y="-74.5" font-family="Helvetica,sans-Serif" font-size="10.00">DataProducer</text>
</a>
</g>
</g>
<!-- Node3&#45;&gt;Node1 -->
<g id="edge2" class="edge"><title>Node3&#45;&gt;Node1</title>
<path fill="none" stroke="#9a32cd" stroke-dasharray="5,2" d="M160.016,-57.6382C156.666,-50.8683 152.47,-43.775 147.5,-38 141.165,-30.6392 132.419,-24.2465 124.915,-19.5317"/>
<polygon fill="#9a32cd" stroke="#9a32cd" points="157.002,-59.4666 164.313,-67.1345 163.379,-56.5809 157.002,-59.4666"/>
<text text-anchor="middle" x="192" y="-41" font-family="Helvetica,sans-Serif" font-size="10.00"> m_dataProducer</text>
</g>
</g>
</svg>
