<?xml version="1.0" encoding="UTF-8" standalone="no"?>
<!DOCTYPE svg PUBLIC "-//W3C//DTD SVG 1.1//EN"
 "http://www.w3.org/Graphics/SVG/1.1/DTD/svg11.dtd">
<!-- Generated by graphviz version 2.38.0 (20140413.2041)
 -->
<!-- Title: elftosb::HABExecuteOperation Pages: 1 -->
<svg width="335pt" height="230pt"
 viewBox="0.00 0.00 334.50 230.00" xmlns="http://www.w3.org/2000/svg" xmlns:xlink="http://www.w3.org/1999/xlink">
<g id="graph0" class="graph" transform="scale(1 1) rotate(0) translate(4 226)">
<title>elftosb::HABExecuteOperation</title>
<polygon fill="white" stroke="none" points="-4,4 -4,-226 330.5,-226 330.5,4 -4,4"/>
<!-- Node1 -->
<g id="node1" class="node"><title>Node1</title>
<polygon fill="#bfbfbf" stroke="black" points="8,-0.5 8,-19.5 157,-19.5 157,-0.5 8,-0.5"/>
<text text-anchor="middle" x="82.5" y="-7.5" font-family="Helvetica,sans-Serif" font-size="10.00">elftosb::HABExecuteOperation</text>
</g>
<!-- Node2 -->
<g id="node2" class="node"><title>Node2</title>
<g id="a_node2"><a xlink:href="classelftosb_1_1_execute_operation.html" target="_top" xlink:title="Operation to execute code at a certain address. ">
<polygon fill="white" stroke="black" points="18,-57.5 18,-76.5 147,-76.5 147,-57.5 18,-57.5"/>
<text text-anchor="middle" x="82.5" y="-64.5" font-family="Helvetica,sans-Serif" font-size="10.00">elftosb::ExecuteOperation</text>
</a>
</g>
</g>
<!-- Node2&#45;&gt;Node1 -->
<g id="edge1" class="edge"><title>Node2&#45;&gt;Node1</title>
<path fill="none" stroke="midnightblue" d="M82.5,-47.1166C82.5,-37.8173 82.5,-27.0557 82.5,-19.7149"/>
<polygon fill="midnightblue" stroke="midnightblue" points="79.0001,-47.4062 82.5,-57.4063 86.0001,-47.4063 79.0001,-47.4062"/>
</g>
<!-- Node3 -->
<g id="node3" class="node"><title>Node3</title>
<g id="a_node3"><a xlink:href="classelftosb_1_1_operation.html" target="_top" xlink:title="Abstract base class for all boot operations. ">
<polygon fill="white" stroke="black" points="0,-130 0,-149 93,-149 93,-130 0,-130"/>
<text text-anchor="middle" x="46.5" y="-137" font-family="Helvetica,sans-Serif" font-size="10.00">elftosb::Operation</text>
</a>
</g>
</g>
<!-- Node3&#45;&gt;Node2 -->
<g id="edge2" class="edge"><title>Node3&#45;&gt;Node2</title>
<path fill="none" stroke="midnightblue" d="M55.5985,-120.682C62.7741,-106.63 72.4719,-87.6384 78.0496,-76.7154"/>
<polygon fill="midnightblue" stroke="midnightblue" points="52.345,-119.358 50.9143,-129.855 58.5793,-122.541 52.345,-119.358"/>
</g>
<!-- Node4 -->
<g id="node4" class="node"><title>Node4</title>
<g id="a_node4"><a xlink:href="group__smart__pointer.html" target="_top" xlink:title="smart_ptr\&lt; elftosb\l::DataTarget \&gt;">
<polygon fill="white" stroke="black" points="111,-124.5 111,-154.5 206,-154.5 206,-124.5 111,-124.5"/>
<text text-anchor="start" x="119" y="-142.5" font-family="Helvetica,sans-Serif" font-size="10.00">smart_ptr&lt; elftosb</text>
<text text-anchor="middle" x="158.5" y="-131.5" font-family="Helvetica,sans-Serif" font-size="10.00">::DataTarget &gt;</text>
</a>
</g>
</g>
<!-- Node4&#45;&gt;Node2 -->
<g id="edge3" class="edge"><title>Node4&#45;&gt;Node2</title>
<path fill="none" stroke="#9a32cd" stroke-dasharray="5,2" d="M135.47,-117.137C120.934,-103.653 102.919,-86.9417 92.0869,-76.8932"/>
<polygon fill="#9a32cd" stroke="#9a32cd" points="133.409,-119.998 143.12,-124.233 138.169,-114.866 133.409,-119.998"/>
<text text-anchor="middle" x="143.5" y="-98" font-family="Helvetica,sans-Serif" font-size="10.00"> m_target</text>
</g>
<!-- Node5 -->
<g id="node5" class="node"><title>Node5</title>
<g id="a_node5"><a xlink:href="classelftosb_1_1_data_target.html" target="_top" xlink:title="Abstract base class for the target address or range of data. ">
<polygon fill="white" stroke="black" points="161.5,-202.5 161.5,-221.5 259.5,-221.5 259.5,-202.5 161.5,-202.5"/>
<text text-anchor="middle" x="210.5" y="-209.5" font-family="Helvetica,sans-Serif" font-size="10.00">elftosb::DataTarget</text>
</a>
</g>
</g>
<!-- Node5&#45;&gt;Node4 -->
<g id="edge4" class="edge"><title>Node5&#45;&gt;Node4</title>
<path fill="none" stroke="#9a32cd" stroke-dasharray="5,2" d="M186.973,-196.459C182.386,-192.822 177.94,-188.622 174.5,-184 168.062,-175.351 163.98,-163.838 161.551,-154.829"/>
<polygon fill="#9a32cd" stroke="#9a32cd" points="185.031,-199.373 195.194,-202.368 189.116,-193.689 185.031,-199.373"/>
<text text-anchor="middle" x="181.5" y="-176" font-family="Helvetica,sans-Serif" font-size="10.00"> _p</text>
</g>
<!-- Node6 -->
<g id="node6" class="node"><title>Node6</title>
<g id="a_node6"><a xlink:href="classelftosb_1_1_data_source.html" target="_top" xlink:title="Abstract base class for data sources. ">
<polygon fill="white" stroke="black" points="224.5,-130 224.5,-149 326.5,-149 326.5,-130 224.5,-130"/>
<text text-anchor="middle" x="275.5" y="-137" font-family="Helvetica,sans-Serif" font-size="10.00">elftosb::DataSource</text>
</a>
</g>
</g>
<!-- Node5&#45;&gt;Node6 -->
<g id="edge6" class="edge"><title>Node5&#45;&gt;Node6</title>
<path fill="none" stroke="#9a32cd" stroke-dasharray="5,2" d="M204.619,-192.338C203.649,-185.793 203.928,-178.666 207.5,-173 214.757,-161.488 227.34,-153.966 239.725,-149.092"/>
<polygon fill="#9a32cd" stroke="#9a32cd" points="201.311,-193.551 207.066,-202.446 208.114,-191.903 201.311,-193.551"/>
<text text-anchor="middle" x="228.5" y="-176" font-family="Helvetica,sans-Serif" font-size="10.00"> m_target</text>
</g>
<!-- Node6&#45;&gt;Node5 -->
<g id="edge5" class="edge"><title>Node6&#45;&gt;Node5</title>
<path fill="none" stroke="#9a32cd" stroke-dasharray="5,2" d="M268.947,-158.662C265.303,-167.035 260.147,-176.708 253.5,-184 246.611,-191.557 237.137,-197.809 228.834,-202.387"/>
<polygon fill="#9a32cd" stroke="#9a32cd" points="272.21,-159.928 272.641,-149.342 265.703,-157.349 272.21,-159.928"/>
<text text-anchor="middle" x="283.5" y="-176" font-family="Helvetica,sans-Serif" font-size="10.00"> m_source</text>
</g>
</g>
</svg>
