<?xml version="1.0" encoding="UTF-8" standalone="no"?>
<!DOCTYPE svg PUBLIC "-//W3C//DTD SVG 1.1//EN"
 "http://www.w3.org/Graphics/SVG/1.1/DTD/svg11.dtd">
<!-- Generated by graphviz version 2.38.0 (20140413.2041)
 -->
<!-- Title: blfwk::SRecordSourceFile Pages: 1 -->
<svg width="1389pt" height="338pt"
 viewBox="0.00 0.00 1389.00 337.50" xmlns="http://www.w3.org/2000/svg" xmlns:xlink="http://www.w3.org/1999/xlink">
<g id="graph0" class="graph" transform="scale(1 1) rotate(0) translate(4 333.5)">
<title>blfwk::SRecordSourceFile</title>
<polygon fill="white" stroke="none" points="-4,4 -4,-333.5 1385,-333.5 1385,4 -4,4"/>
<!-- Node1 -->
<g id="node1" class="node"><title>Node1</title>
<polygon fill="#bfbfbf" stroke="black" points="1253,-110.5 1253,-129.5 1381,-129.5 1381,-110.5 1253,-110.5"/>
<text text-anchor="middle" x="1317" y="-117.5" font-family="Helvetica,sans-Serif" font-size="10.00">blfwk::SRecordSourceFile</text>
</g>
<!-- Node2 -->
<g id="node2" class="node"><title>Node2</title>
<g id="a_node2"><a xlink:href="classblfwk_1_1_source_file.html" target="_top" xlink:title="Abstract base class for a source file containing executable code. ">
<polygon fill="white" stroke="black" points="1078,-235.5 1078,-254.5 1169,-254.5 1169,-235.5 1078,-235.5"/>
<text text-anchor="middle" x="1123.5" y="-242.5" font-family="Helvetica,sans-Serif" font-size="10.00">blfwk::SourceFile</text>
</a>
</g>
</g>
<!-- Node2&#45;&gt;Node1 -->
<g id="edge1" class="edge"><title>Node2&#45;&gt;Node1</title>
<path fill="none" stroke="midnightblue" d="M1147.76,-229.819C1187.67,-203.763 1268.12,-151.251 1301.24,-129.634"/>
<polygon fill="midnightblue" stroke="midnightblue" points="1145.67,-227.002 1139.21,-235.399 1149.5,-232.864 1145.67,-227.002"/>
</g>
<!-- Node3 -->
<g id="node3" class="node"><title>Node3</title>
<g id="a_node3"><a xlink:title="STL class. ">
<polygon fill="white" stroke="#bfbfbf" points="870,-124.5 870,-143.5 930,-143.5 930,-124.5 870,-124.5"/>
<text text-anchor="middle" x="900" y="-131.5" font-family="Helvetica,sans-Serif" font-size="10.00">std::string</text>
</a>
</g>
</g>
<!-- Node3&#45;&gt;Node2 -->
<g id="edge2" class="edge"><title>Node3&#45;&gt;Node2</title>
<path fill="none" stroke="#9a32cd" stroke-dasharray="5,2" d="M940.316,-139.516C979.317,-145.5 1035.94,-155.721 1055,-167 1084.13,-184.235 1107.04,-218.536 1117.04,-235.31"/>
<polygon fill="#9a32cd" stroke="#9a32cd" points="940.731,-136.039 930.322,-138.016 939.692,-142.962 940.731,-136.039"/>
<text text-anchor="middle" x="1020" y="-170" font-family="Helvetica,sans-Serif" font-size="10.00"> m_path</text>
</g>
<!-- Node13 -->
<g id="node13" class="node"><title>Node13</title>
<g id="a_node13"><a xlink:href="class_st_executable_image.html" target="_top" xlink:title="Used to build a representation of memory regions. ">
<polygon fill="white" stroke="black" points="1073,-148.5 1073,-167.5 1174,-167.5 1174,-148.5 1073,-148.5"/>
<text text-anchor="middle" x="1123.5" y="-155.5" font-family="Helvetica,sans-Serif" font-size="10.00">StExecutableImage</text>
</a>
</g>
</g>
<!-- Node3&#45;&gt;Node13 -->
<g id="edge17" class="edge"><title>Node3&#45;&gt;Node13</title>
<path fill="none" stroke="#9a32cd" stroke-dasharray="5,2" d="M940.26,-130.807C971.561,-129.087 1016.39,-128.474 1055,-135 1070.63,-137.641 1087.5,-143.391 1100.47,-148.481"/>
<polygon fill="#9a32cd" stroke="#9a32cd" points="939.959,-127.319 930.192,-131.424 940.387,-134.306 939.959,-127.319"/>
<text text-anchor="middle" x="1020" y="-138" font-family="Helvetica,sans-Serif" font-size="10.00"> m_name</text>
</g>
<!-- Node18 -->
<g id="node18" class="node"><title>Node18</title>
<g id="a_node18"><a xlink:href="class_st_s_record_file.html" target="_top" xlink:title="S&#45;record parser. ">
<polygon fill="white" stroke="black" points="1083.5,-73.5 1083.5,-92.5 1163.5,-92.5 1163.5,-73.5 1083.5,-73.5"/>
<text text-anchor="middle" x="1123.5" y="-80.5" font-family="Helvetica,sans-Serif" font-size="10.00">StSRecordFile</text>
</a>
</g>
</g>
<!-- Node3&#45;&gt;Node18 -->
<g id="edge24" class="edge"><title>Node3&#45;&gt;Node18</title>
<path fill="none" stroke="#9a32cd" stroke-dasharray="5,2" d="M940.413,-124.925C980.726,-115.643 1042.99,-101.307 1083.25,-92.0384"/>
<polygon fill="#9a32cd" stroke="#9a32cd" points="939.373,-121.573 930.413,-127.228 940.944,-128.395 939.373,-121.573"/>
<text text-anchor="middle" x="1020" y="-118" font-family="Helvetica,sans-Serif" font-size="10.00"> m_name</text>
</g>
<!-- Node4 -->
<g id="node4" class="node"><title>Node4</title>
<g id="a_node4"><a xlink:title="STL class. ">
<polygon fill="white" stroke="#bfbfbf" points="645,-119 645,-149 740,-149 740,-119 645,-119"/>
<text text-anchor="start" x="653" y="-137" font-family="Helvetica,sans-Serif" font-size="10.00">std::basic_string&lt;</text>
<text text-anchor="middle" x="692.5" y="-126" font-family="Helvetica,sans-Serif" font-size="10.00"> char &gt;</text>
</a>
</g>
</g>
<!-- Node4&#45;&gt;Node3 -->
<g id="edge3" class="edge"><title>Node4&#45;&gt;Node3</title>
<path fill="none" stroke="midnightblue" d="M750.26,-134C789.108,-134 839.008,-134 869.994,-134"/>
<polygon fill="midnightblue" stroke="midnightblue" points="750.131,-130.5 740.131,-134 750.131,-137.5 750.131,-130.5"/>
</g>
<!-- Node5 -->
<g id="node5" class="node"><title>Node5</title>
<g id="a_node5"><a xlink:href="group__smart__pointer.html" target="_top" xlink:title="smart_ptr\&lt; std::ifstream \&gt;">
<polygon fill="white" stroke="black" points="835,-260.5 835,-279.5 965,-279.5 965,-260.5 835,-260.5"/>
<text text-anchor="middle" x="900" y="-267.5" font-family="Helvetica,sans-Serif" font-size="10.00">smart_ptr&lt; std::ifstream &gt;</text>
</a>
</g>
</g>
<!-- Node5&#45;&gt;Node2 -->
<g id="edge4" class="edge"><title>Node5&#45;&gt;Node2</title>
<path fill="none" stroke="#9a32cd" stroke-dasharray="5,2" d="M975.434,-261.599C1009.42,-257.763 1048.55,-253.347 1077.89,-250.035"/>
<polygon fill="#9a32cd" stroke="#9a32cd" points="974.611,-258.169 965.067,-262.769 975.396,-265.125 974.611,-258.169"/>
<text text-anchor="middle" x="1020" y="-264" font-family="Helvetica,sans-Serif" font-size="10.00"> m_stream</text>
</g>
<!-- Node6 -->
<g id="node6" class="node"><title>Node6</title>
<g id="a_node6"><a xlink:title="STL class. ">
<polygon fill="white" stroke="#bfbfbf" points="657,-266.5 657,-285.5 728,-285.5 728,-266.5 657,-266.5"/>
<text text-anchor="middle" x="692.5" y="-273.5" font-family="Helvetica,sans-Serif" font-size="10.00">std::ifstream</text>
</a>
</g>
</g>
<!-- Node6&#45;&gt;Node5 -->
<g id="edge5" class="edge"><title>Node6&#45;&gt;Node5</title>
<path fill="none" stroke="#9a32cd" stroke-dasharray="5,2" d="M738.721,-274.68C766.922,-273.856 803.653,-272.784 834.837,-271.873"/>
<polygon fill="#9a32cd" stroke="#9a32cd" points="738.254,-271.192 728.36,-274.982 738.458,-278.189 738.254,-271.192"/>
<text text-anchor="middle" x="793.5" y="-277" font-family="Helvetica,sans-Serif" font-size="10.00"> _p</text>
</g>
<!-- Node7 -->
<g id="node7" class="node"><title>Node7</title>
<g id="a_node7"><a xlink:title="STL class. ">
<polygon fill="white" stroke="#bfbfbf" points="495,-151 495,-181 594,-181 594,-151 495,-151"/>
<text text-anchor="start" x="503" y="-169" font-family="Helvetica,sans-Serif" font-size="10.00">std::basic_ifstream</text>
<text text-anchor="middle" x="544.5" y="-158" font-family="Helvetica,sans-Serif" font-size="10.00">&lt; char &gt;</text>
</a>
</g>
</g>
<!-- Node7&#45;&gt;Node6 -->
<g id="edge6" class="edge"><title>Node7&#45;&gt;Node6</title>
<path fill="none" stroke="midnightblue" d="M562.323,-189.358C578.011,-209.596 603.13,-238.326 631,-256 638.848,-260.977 648.059,-264.841 656.894,-267.786"/>
<polygon fill="midnightblue" stroke="midnightblue" points="565.022,-187.125 556.196,-181.262 559.44,-191.349 565.022,-187.125"/>
</g>
<!-- Node8 -->
<g id="node8" class="node"><title>Node8</title>
<g id="a_node8"><a xlink:title="STL class. ">
<polygon fill="white" stroke="#bfbfbf" points="265,-139 265,-169 362,-169 362,-139 265,-139"/>
<text text-anchor="start" x="273" y="-157" font-family="Helvetica,sans-Serif" font-size="10.00">std::basic_istream</text>
<text text-anchor="middle" x="313.5" y="-146" font-family="Helvetica,sans-Serif" font-size="10.00">&lt; Char &gt;</text>
</a>
</g>
</g>
<!-- Node8&#45;&gt;Node7 -->
<g id="edge7" class="edge"><title>Node8&#45;&gt;Node7</title>
<path fill="none" stroke="midnightblue" d="M372.559,-157.042C410.284,-159.019 458.911,-161.567 494.65,-163.44"/>
<polygon fill="midnightblue" stroke="midnightblue" points="372.397,-153.529 362.227,-156.501 372.03,-160.52 372.397,-153.529"/>
</g>
<!-- Node9 -->
<g id="node9" class="node"><title>Node9</title>
<g id="a_node9"><a xlink:title="STL class. ">
<polygon fill="white" stroke="#bfbfbf" points="112,-115.5 112,-134.5 228,-134.5 228,-115.5 112,-115.5"/>
<text text-anchor="middle" x="170" y="-122.5" font-family="Helvetica,sans-Serif" font-size="10.00">std::basic_ios&lt; Char &gt;</text>
</a>
</g>
</g>
<!-- Node9&#45;&gt;Node8 -->
<g id="edge8" class="edge"><title>Node9&#45;&gt;Node8</title>
<path fill="none" stroke="midnightblue" d="M227.861,-136.653C240.131,-139.168 252.982,-141.802 264.857,-144.236"/>
<polygon fill="midnightblue" stroke="midnightblue" points="228.224,-133.155 217.725,-134.576 226.818,-140.013 228.224,-133.155"/>
</g>
<!-- Node22 -->
<g id="node22" class="node"><title>Node22</title>
<g id="a_node22"><a xlink:title="STL class. ">
<polygon fill="white" stroke="#bfbfbf" points="380,-89 380,-119 477,-119 477,-89 380,-89"/>
<text text-anchor="start" x="388" y="-107" font-family="Helvetica,sans-Serif" font-size="10.00">std::basic_istream</text>
<text text-anchor="middle" x="428.5" y="-96" font-family="Helvetica,sans-Serif" font-size="10.00">&lt; char &gt;</text>
</a>
</g>
</g>
<!-- Node9&#45;&gt;Node22 -->
<g id="edge23" class="edge"><title>Node9&#45;&gt;Node22</title>
<path fill="none" stroke="midnightblue" d="M238.395,-119.482C282.886,-115.84 340.097,-111.156 379.885,-107.898"/>
<polygon fill="midnightblue" stroke="midnightblue" points="237.925,-116.009 228.244,-120.313 238.497,-122.986 237.925,-116.009"/>
</g>
<!-- Node10 -->
<g id="node10" class="node"><title>Node10</title>
<g id="a_node10"><a xlink:title="STL class. ">
<polygon fill="white" stroke="#bfbfbf" points="0,-115.5 0,-134.5 75,-134.5 75,-115.5 0,-115.5"/>
<text text-anchor="middle" x="37.5" y="-122.5" font-family="Helvetica,sans-Serif" font-size="10.00">std::ios_base</text>
</a>
</g>
</g>
<!-- Node10&#45;&gt;Node9 -->
<g id="edge9" class="edge"><title>Node10&#45;&gt;Node9</title>
<path fill="none" stroke="midnightblue" d="M85.3188,-125C93.8367,-125 102.811,-125 111.593,-125"/>
<polygon fill="midnightblue" stroke="midnightblue" points="85.1988,-121.5 75.1988,-125 85.1988,-128.5 85.1988,-121.5"/>
</g>
<!-- Node11 -->
<g id="node11" class="node"><title>Node11</title>
<g id="a_node11"><a xlink:href="group__smart__pointer.html" target="_top" xlink:title="smart_ptr\&lt; blfwk::Option\lContext \&gt;">
<polygon fill="white" stroke="black" points="838.5,-299 838.5,-329 961.5,-329 961.5,-299 838.5,-299"/>
<text text-anchor="start" x="846.5" y="-317" font-family="Helvetica,sans-Serif" font-size="10.00">smart_ptr&lt; blfwk::Option</text>
<text text-anchor="middle" x="900" y="-306" font-family="Helvetica,sans-Serif" font-size="10.00">Context &gt;</text>
</a>
</g>
</g>
<!-- Node11&#45;&gt;Node2 -->
<g id="edge10" class="edge"><title>Node11&#45;&gt;Node2</title>
<path fill="none" stroke="#9a32cd" stroke-dasharray="5,2" d="M971.688,-299.507C998.147,-293.315 1028.26,-285.345 1055,-276 1072.16,-270.001 1090.9,-261.206 1104.27,-254.515"/>
<polygon fill="#9a32cd" stroke="#9a32cd" points="970.703,-296.142 961.74,-301.792 972.27,-302.964 970.703,-296.142"/>
<text text-anchor="middle" x="1020" y="-299" font-family="Helvetica,sans-Serif" font-size="10.00"> m_options</text>
</g>
<!-- Node12 -->
<g id="node12" class="node"><title>Node12</title>
<g id="a_node12"><a xlink:href="classblfwk_1_1_option_context.html" target="_top" xlink:title="Pure abstract interface class to a table of options. ">
<polygon fill="white" stroke="black" points="639,-304.5 639,-323.5 746,-323.5 746,-304.5 639,-304.5"/>
<text text-anchor="middle" x="692.5" y="-311.5" font-family="Helvetica,sans-Serif" font-size="10.00">blfwk::OptionContext</text>
</a>
</g>
</g>
<!-- Node12&#45;&gt;Node11 -->
<g id="edge11" class="edge"><title>Node12&#45;&gt;Node11</title>
<path fill="none" stroke="#9a32cd" stroke-dasharray="5,2" d="M756.318,-314C782.428,-314 812.613,-314 838.477,-314"/>
<polygon fill="#9a32cd" stroke="#9a32cd" points="756.155,-310.5 746.155,-314 756.154,-317.5 756.155,-310.5"/>
<text text-anchor="middle" x="793.5" y="-317" font-family="Helvetica,sans-Serif" font-size="10.00"> _p</text>
</g>
<!-- Node13&#45;&gt;Node1 -->
<g id="edge12" class="edge"><title>Node13&#45;&gt;Node1</title>
<path fill="none" stroke="#9a32cd" stroke-dasharray="5,2" d="M1182.65,-146.462C1209.96,-141.042 1242.13,-134.659 1268.02,-129.52"/>
<polygon fill="#9a32cd" stroke="#9a32cd" points="1181.95,-143.031 1172.82,-148.411 1183.31,-149.898 1181.95,-143.031"/>
<text text-anchor="middle" x="1213.5" y="-147" font-family="Helvetica,sans-Serif" font-size="10.00"> m_image</text>
</g>
<!-- Node14 -->
<g id="node14" class="node"><title>Node14</title>
<polygon fill="white" stroke="#bfbfbf" points="837.5,-222.5 837.5,-241.5 962.5,-241.5 962.5,-222.5 837.5,-222.5"/>
<text text-anchor="middle" x="900" y="-229.5" font-family="Helvetica,sans-Serif" font-size="10.00">std::list&lt; AddressFilter &gt;</text>
</g>
<!-- Node14&#45;&gt;Node13 -->
<g id="edge13" class="edge"><title>Node14&#45;&gt;Node13</title>
<path fill="none" stroke="#9a32cd" stroke-dasharray="5,2" d="M972.574,-224.623C999.135,-220.32 1029.09,-213.563 1055,-203 1076.65,-194.175 1098.6,-177.874 1111.37,-167.503"/>
<polygon fill="#9a32cd" stroke="#9a32cd" points="971.93,-221.181 962.576,-226.155 972.991,-228.1 971.93,-221.181"/>
<text text-anchor="middle" x="1020" y="-226" font-family="Helvetica,sans-Serif" font-size="10.00"> m_filters</text>
</g>
<!-- Node15 -->
<g id="node15" class="node"><title>Node15</title>
<g id="a_node15"><a xlink:href="struct_st_executable_image_1_1_address_filter.html" target="_top" xlink:title="StExecutableImage::\lAddressFilter">
<polygon fill="white" stroke="black" points="639,-217 639,-247 746,-247 746,-217 639,-217"/>
<text text-anchor="start" x="647" y="-235" font-family="Helvetica,sans-Serif" font-size="10.00">StExecutableImage::</text>
<text text-anchor="middle" x="692.5" y="-224" font-family="Helvetica,sans-Serif" font-size="10.00">AddressFilter</text>
</a>
</g>
</g>
<!-- Node15&#45;&gt;Node14 -->
<g id="edge14" class="edge"><title>Node15&#45;&gt;Node14</title>
<path fill="none" stroke="#9a32cd" stroke-dasharray="5,2" d="M756.186,-232C781.953,-232 811.705,-232 837.362,-232"/>
<polygon fill="#9a32cd" stroke="#9a32cd" points="756.155,-228.5 746.155,-232 756.154,-235.5 756.155,-228.5"/>
<text text-anchor="middle" x="793.5" y="-235" font-family="Helvetica,sans-Serif" font-size="10.00"> elements</text>
</g>
<!-- Node16 -->
<g id="node16" class="node"><title>Node16</title>
<polygon fill="white" stroke="#bfbfbf" points="834,-179.5 834,-198.5 966,-198.5 966,-179.5 834,-179.5"/>
<text text-anchor="middle" x="900" y="-186.5" font-family="Helvetica,sans-Serif" font-size="10.00">std::list&lt; MemoryRegion &gt;</text>
</g>
<!-- Node16&#45;&gt;Node13 -->
<g id="edge15" class="edge"><title>Node16&#45;&gt;Node13</title>
<path fill="none" stroke="#9a32cd" stroke-dasharray="5,2" d="M976.479,-188.45C1001.62,-187.244 1029.67,-184.785 1055,-180 1069.65,-177.231 1085.54,-172.165 1098.21,-167.592"/>
<polygon fill="#9a32cd" stroke="#9a32cd" points="976.11,-184.962 966.266,-188.88 976.405,-191.956 976.11,-184.962"/>
<text text-anchor="middle" x="1020" y="-191" font-family="Helvetica,sans-Serif" font-size="10.00"> m_image</text>
</g>
<!-- Node17 -->
<g id="node17" class="node"><title>Node17</title>
<g id="a_node17"><a xlink:href="struct_st_executable_image_1_1_memory_region.html" target="_top" xlink:title="StExecutableImage::\lMemoryRegion">
<polygon fill="white" stroke="black" points="639,-168 639,-198 746,-198 746,-168 639,-168"/>
<text text-anchor="start" x="647" y="-186" font-family="Helvetica,sans-Serif" font-size="10.00">StExecutableImage::</text>
<text text-anchor="middle" x="692.5" y="-175" font-family="Helvetica,sans-Serif" font-size="10.00">MemoryRegion</text>
</a>
</g>
</g>
<!-- Node17&#45;&gt;Node16 -->
<g id="edge16" class="edge"><title>Node17&#45;&gt;Node16</title>
<path fill="none" stroke="#9a32cd" stroke-dasharray="5,2" d="M756.449,-184.838C781.031,-185.556 809.208,-186.378 833.986,-187.102"/>
<polygon fill="#9a32cd" stroke="#9a32cd" points="756.252,-181.331 746.155,-184.537 756.048,-188.328 756.252,-181.331"/>
<text text-anchor="middle" x="793.5" y="-190" font-family="Helvetica,sans-Serif" font-size="10.00"> elements</text>
</g>
<!-- Node18&#45;&gt;Node1 -->
<g id="edge18" class="edge"><title>Node18&#45;&gt;Node1</title>
<path fill="none" stroke="#9a32cd" stroke-dasharray="5,2" d="M1173.86,-92.5373C1202.36,-98.0443 1238.1,-104.949 1266.61,-110.457"/>
<polygon fill="#9a32cd" stroke="#9a32cd" points="1174.2,-89.0374 1163.71,-90.5768 1172.87,-95.9103 1174.2,-89.0374"/>
<text text-anchor="middle" x="1213.5" y="-107" font-family="Helvetica,sans-Serif" font-size="10.00"> m_file</text>
</g>
<!-- Node19 -->
<g id="node19" class="node"><title>Node19</title>
<polygon fill="white" stroke="#bfbfbf" points="833,-22 833,-52 967,-52 967,-22 833,-22"/>
<text text-anchor="start" x="841" y="-40" font-family="Helvetica,sans-Serif" font-size="10.00">std::vector&lt; StSRecordFile</text>
<text text-anchor="middle" x="900" y="-29" font-family="Helvetica,sans-Serif" font-size="10.00">::SRecord &gt;</text>
</g>
<!-- Node19&#45;&gt;Node18 -->
<g id="edge19" class="edge"><title>Node19&#45;&gt;Node18</title>
<path fill="none" stroke="#9a32cd" stroke-dasharray="5,2" d="M977.334,-37.8618C1002.42,-39.615 1030.22,-43.157 1055,-50 1073.86,-55.2089 1093.79,-65.6433 1107.07,-73.3912"/>
<polygon fill="#9a32cd" stroke="#9a32cd" points="977.329,-34.355 967.133,-37.235 976.899,-41.3418 977.329,-34.355"/>
<text text-anchor="middle" x="1020" y="-53" font-family="Helvetica,sans-Serif" font-size="10.00"> m_records</text>
</g>
<!-- Node20 -->
<g id="node20" class="node"><title>Node20</title>
<g id="a_node20"><a xlink:href="class_st_s_record_file.html#struct_st_s_record_file_1_1_s_record" target="_top" xlink:title="StSRecordFile::SRecord">
<polygon fill="white" stroke="black" points="631,-0.5 631,-19.5 754,-19.5 754,-0.5 631,-0.5"/>
<text text-anchor="middle" x="692.5" y="-7.5" font-family="Helvetica,sans-Serif" font-size="10.00">StSRecordFile::SRecord</text>
</a>
</g>
</g>
<!-- Node20&#45;&gt;Node1 -->
<g id="edge25" class="edge"><title>Node20&#45;&gt;Node1</title>
<path fill="none" stroke="#9a32cd" stroke-dasharray="5,2" d="M764.336,-4.87512C837.998,-1.36399 956.145,-0.864297 1055,-24 1109.33,-36.7149 1121.59,-44.8698 1174,-64 1216.07,-79.3551 1264.48,-98.8418 1292.52,-110.313"/>
<polygon fill="#9a32cd" stroke="#9a32cd" points="764.053,-1.38488 754.244,-5.3884 764.409,-8.37585 764.053,-1.38488"/>
<text text-anchor="middle" x="1020" y="-27" font-family="Helvetica,sans-Serif" font-size="10.00"> m_entryRecord</text>
</g>
<!-- Node20&#45;&gt;Node19 -->
<g id="edge20" class="edge"><title>Node20&#45;&gt;Node19</title>
<path fill="none" stroke="#9a32cd" stroke-dasharray="5,2" d="M764.096,-19.2754C786.352,-22.1996 810.846,-25.4178 832.785,-28.3003"/>
<polygon fill="#9a32cd" stroke="#9a32cd" points="764.416,-15.7874 754.045,-17.9549 763.504,-22.7278 764.416,-15.7874"/>
<text text-anchor="middle" x="793.5" y="-29" font-family="Helvetica,sans-Serif" font-size="10.00"> elements</text>
</g>
<!-- Node21 -->
<g id="node21" class="node"><title>Node21</title>
<g id="a_node21"><a xlink:title="STL class. ">
<polygon fill="white" stroke="#bfbfbf" points="866,-73.5 866,-92.5 934,-92.5 934,-73.5 866,-73.5"/>
<text text-anchor="middle" x="900" y="-80.5" font-family="Helvetica,sans-Serif" font-size="10.00">std::istream</text>
</a>
</g>
</g>
<!-- Node21&#45;&gt;Node18 -->
<g id="edge21" class="edge"><title>Node21&#45;&gt;Node18</title>
<path fill="none" stroke="#9a32cd" stroke-dasharray="5,2" d="M944.395,-73.122C957.382,-70.6034 971.705,-68.2549 985,-67 1015.97,-64.0764 1024.1,-63.3877 1055,-67 1066.24,-68.3144 1078.33,-70.8208 1089.13,-73.4666"/>
<polygon fill="#9a32cd" stroke="#9a32cd" points="943.419,-69.7484 934.311,-75.1607 944.806,-76.6096 943.419,-69.7484"/>
<text text-anchor="middle" x="1020" y="-70" font-family="Helvetica,sans-Serif" font-size="10.00"> m_stream</text>
</g>
<!-- Node22&#45;&gt;Node21 -->
<g id="edge22" class="edge"><title>Node22&#45;&gt;Node21</title>
<path fill="none" stroke="midnightblue" d="M487.266,-101.416C586.663,-96.9703 786.965,-88.0112 865.924,-84.4795"/>
<polygon fill="midnightblue" stroke="midnightblue" points="486.935,-97.9274 477.102,-101.871 487.248,-104.92 486.935,-97.9274"/>
</g>
</g>
</svg>
