<?xml version="1.0" encoding="UTF-8" standalone="no"?>
<!DOCTYPE svg PUBLIC "-//W3C//DTD SVG 1.1//EN"
 "http://www.w3.org/Graphics/SVG/1.1/DTD/svg11.dtd">
<!-- Generated by graphviz version 2.38.0 (20140413.2041)
 -->
<!-- Title: elftosb::SizeofOperatorASTNode Pages: 1 -->
<svg width="329pt" height="395pt"
 viewBox="0.00 0.00 328.50 395.00" xmlns="http://www.w3.org/2000/svg" xmlns:xlink="http://www.w3.org/1999/xlink">
<g id="graph0" class="graph" transform="scale(1 1) rotate(0) translate(4 391)">
<title>elftosb::SizeofOperatorASTNode</title>
<polygon fill="white" stroke="none" points="-4,4 -4,-391 324.5,-391 324.5,4 -4,4"/>
<!-- Node1 -->
<g id="node1" class="node"><title>Node1</title>
<polygon fill="#bfbfbf" stroke="black" points="67,-0.5 67,-19.5 224,-19.5 224,-0.5 67,-0.5"/>
<text text-anchor="middle" x="145.5" y="-7.5" font-family="Helvetica,sans-Serif" font-size="10.00">elftosb::SizeofOperatorASTNode</text>
</g>
<!-- Node2 -->
<g id="node2" class="node"><title>Node2</title>
<g id="a_node2"><a xlink:href="classelftosb_1_1_expr_a_s_t_node.html" target="_top" xlink:title="Abstract base class for all expression AST nodes. ">
<polygon fill="white" stroke="black" points="170,-116.5 170,-135.5 283,-135.5 283,-116.5 170,-116.5"/>
<text text-anchor="middle" x="226.5" y="-123.5" font-family="Helvetica,sans-Serif" font-size="10.00">elftosb::ExprASTNode</text>
</a>
</g>
</g>
<!-- Node2&#45;&gt;Node1 -->
<g id="edge1" class="edge"><title>Node2&#45;&gt;Node1</title>
<path fill="none" stroke="midnightblue" d="M224.659,-106.132C221.904,-86.9958 215.107,-57.4979 198.5,-38 191.536,-29.824 181.483,-23.835 172.001,-19.6054"/>
<polygon fill="midnightblue" stroke="midnightblue" points="221.211,-106.776 225.881,-116.286 228.161,-105.94 221.211,-106.776"/>
</g>
<!-- Node3 -->
<g id="node3" class="node"><title>Node3</title>
<g id="a_node3"><a xlink:href="classelftosb_1_1_a_s_t_node.html" target="_top" xlink:title="The base class for all AST node classes. ">
<polygon fill="white" stroke="black" points="166.5,-232.5 166.5,-251.5 258.5,-251.5 258.5,-232.5 166.5,-232.5"/>
<text text-anchor="middle" x="212.5" y="-239.5" font-family="Helvetica,sans-Serif" font-size="10.00">elftosb::ASTNode</text>
</a>
</g>
</g>
<!-- Node3&#45;&gt;Node2 -->
<g id="edge2" class="edge"><title>Node3&#45;&gt;Node2</title>
<path fill="none" stroke="midnightblue" d="M214.783,-222.408C217.85,-197.438 223.175,-154.079 225.436,-135.668"/>
<polygon fill="midnightblue" stroke="midnightblue" points="211.297,-222.079 213.552,-232.431 218.245,-222.933 211.297,-222.079"/>
</g>
<!-- Node3&#45;&gt;Node3 -->
<g id="edge4" class="edge"><title>Node3&#45;&gt;Node3</title>
<path fill="none" stroke="#9a32cd" stroke-dasharray="5,2" d="M268.774,-246.66C273.534,-245.663 276.5,-244.109 276.5,-242 276.5,-238.625 268.906,-236.674 258.524,-236.146"/>
<polygon fill="#9a32cd" stroke="#9a32cd" points="268.052,-243.22 258.524,-247.854 268.862,-250.173 268.052,-243.22"/>
<text text-anchor="middle" x="298.5" y="-239.5" font-family="Helvetica,sans-Serif" font-size="10.00"> m_parent</text>
</g>
<!-- Node6 -->
<g id="node6" class="node"><title>Node6</title>
<g id="a_node6"><a xlink:href="classelftosb_1_1_symbol_a_s_t_node.html" target="_top" xlink:title="elftosb::SymbolASTNode">
<polygon fill="white" stroke="black" points="73,-154.5 73,-173.5 198,-173.5 198,-154.5 73,-154.5"/>
<text text-anchor="middle" x="135.5" y="-161.5" font-family="Helvetica,sans-Serif" font-size="10.00">elftosb::SymbolASTNode</text>
</a>
</g>
</g>
<!-- Node3&#45;&gt;Node6 -->
<g id="edge7" class="edge"><title>Node3&#45;&gt;Node6</title>
<path fill="none" stroke="midnightblue" d="M196.163,-224.875C180.298,-209.216 156.819,-186.042 144.23,-173.616"/>
<polygon fill="midnightblue" stroke="midnightblue" points="194.091,-227.748 203.667,-232.282 199.009,-222.766 194.091,-227.748"/>
</g>
<!-- Node4 -->
<g id="node4" class="node"><title>Node4</title>
<g id="a_node4"><a xlink:href="structelftosb_1_1token__loc__t.html" target="_top" xlink:title="Token location in the source file. ">
<polygon fill="white" stroke="black" points="162,-299.5 162,-318.5 263,-318.5 263,-299.5 162,-299.5"/>
<text text-anchor="middle" x="212.5" y="-306.5" font-family="Helvetica,sans-Serif" font-size="10.00">elftosb::token_loc_t</text>
</a>
</g>
</g>
<!-- Node4&#45;&gt;Node3 -->
<g id="edge3" class="edge"><title>Node4&#45;&gt;Node3</title>
<path fill="none" stroke="#9a32cd" stroke-dasharray="5,2" d="M212.5,-289.037C212.5,-276.67 212.5,-261.12 212.5,-251.627"/>
<polygon fill="#9a32cd" stroke="#9a32cd" points="209,-289.234 212.5,-299.234 216,-289.234 209,-289.234"/>
<text text-anchor="middle" x="238" y="-273" font-family="Helvetica,sans-Serif" font-size="10.00"> m_location</text>
</g>
<!-- Node5 -->
<g id="node5" class="node"><title>Node5</title>
<g id="a_node5"><a xlink:href="group__smart__pointer.html" target="_top" xlink:title="smart_ptr\&lt; elftosb\l::SymbolASTNode \&gt;">
<polygon fill="white" stroke="black" points="92.5,-67.5 92.5,-97.5 198.5,-97.5 198.5,-67.5 92.5,-67.5"/>
<text text-anchor="start" x="100.5" y="-85.5" font-family="Helvetica,sans-Serif" font-size="10.00">smart_ptr&lt; elftosb</text>
<text text-anchor="middle" x="145.5" y="-74.5" font-family="Helvetica,sans-Serif" font-size="10.00">::SymbolASTNode &gt;</text>
</a>
</g>
</g>
<!-- Node5&#45;&gt;Node1 -->
<g id="edge5" class="edge"><title>Node5&#45;&gt;Node1</title>
<path fill="none" stroke="#9a32cd" stroke-dasharray="5,2" d="M145.5,-57.0913C145.5,-44.2136 145.5,-29.1974 145.5,-19.8932"/>
<polygon fill="#9a32cd" stroke="#9a32cd" points="142,-57.2332 145.5,-67.2333 149,-57.2333 142,-57.2332"/>
<text text-anchor="middle" x="170" y="-41" font-family="Helvetica,sans-Serif" font-size="10.00"> m_symbol</text>
</g>
<!-- Node6&#45;&gt;Node5 -->
<g id="edge6" class="edge"><title>Node6&#45;&gt;Node5</title>
<path fill="none" stroke="#9a32cd" stroke-dasharray="5,2" d="M137.848,-144.33C139.65,-130.011 142.097,-110.556 143.734,-97.5414"/>
<polygon fill="#9a32cd" stroke="#9a32cd" points="134.346,-144.133 136.57,-154.492 141.291,-145.007 134.346,-144.133"/>
<text text-anchor="middle" x="148.5" y="-123.5" font-family="Helvetica,sans-Serif" font-size="10.00"> _p</text>
</g>
<!-- Node7 -->
<g id="node7" class="node"><title>Node7</title>
<g id="a_node7"><a xlink:href="group__smart__pointer.html" target="_top" xlink:title="smart_ptr\&lt; std::string \&gt;">
<polygon fill="white" stroke="black" points="0,-232.5 0,-251.5 119,-251.5 119,-232.5 0,-232.5"/>
<text text-anchor="middle" x="59.5" y="-239.5" font-family="Helvetica,sans-Serif" font-size="10.00">smart_ptr&lt; std::string &gt;</text>
</a>
</g>
</g>
<!-- Node7&#45;&gt;Node1 -->
<g id="edge11" class="edge"><title>Node7&#45;&gt;Node1</title>
<path fill="none" stroke="#9a32cd" stroke-dasharray="5,2" d="M55.636,-222.479C51.2084,-197.74 45.7378,-152.76 55.5,-116 67.2086,-71.9107 111.113,-35.428 132.973,-19.5471"/>
<polygon fill="#9a32cd" stroke="#9a32cd" points="52.2038,-223.166 57.5385,-232.319 59.0765,-221.837 52.2038,-223.166"/>
<text text-anchor="middle" x="95.5" y="-123.5" font-family="Helvetica,sans-Serif" font-size="10.00"> m_constantName</text>
</g>
<!-- Node7&#45;&gt;Node6 -->
<g id="edge8" class="edge"><title>Node7&#45;&gt;Node6</title>
<path fill="none" stroke="#9a32cd" stroke-dasharray="5,2" d="M75.625,-224.875C91.2839,-209.216 114.458,-186.042 126.884,-173.616"/>
<polygon fill="#9a32cd" stroke="#9a32cd" points="72.8144,-222.736 68.2182,-232.282 77.7641,-227.686 72.8144,-222.736"/>
<text text-anchor="middle" x="130.5" y="-206" font-family="Helvetica,sans-Serif" font-size="10.00"> m_source</text>
<text text-anchor="middle" x="130.5" y="-195" font-family="Helvetica,sans-Serif" font-size="10.00">m_symbol</text>
</g>
<!-- Node8 -->
<g id="node8" class="node"><title>Node8</title>
<g id="a_node8"><a xlink:title="STL class. ">
<polygon fill="white" stroke="#bfbfbf" points="29.5,-299.5 29.5,-318.5 89.5,-318.5 89.5,-299.5 29.5,-299.5"/>
<text text-anchor="middle" x="59.5" y="-306.5" font-family="Helvetica,sans-Serif" font-size="10.00">std::string</text>
</a>
</g>
</g>
<!-- Node8&#45;&gt;Node7 -->
<g id="edge9" class="edge"><title>Node8&#45;&gt;Node7</title>
<path fill="none" stroke="#9a32cd" stroke-dasharray="5,2" d="M59.5,-289.037C59.5,-276.67 59.5,-261.12 59.5,-251.627"/>
<polygon fill="#9a32cd" stroke="#9a32cd" points="56.0001,-289.234 59.5,-299.234 63.0001,-289.234 56.0001,-289.234"/>
<text text-anchor="middle" x="66.5" y="-273" font-family="Helvetica,sans-Serif" font-size="10.00"> _p</text>
</g>
<!-- Node9 -->
<g id="node9" class="node"><title>Node9</title>
<g id="a_node9"><a xlink:title="STL class. ">
<polygon fill="white" stroke="#bfbfbf" points="12,-356.5 12,-386.5 107,-386.5 107,-356.5 12,-356.5"/>
<text text-anchor="start" x="20" y="-374.5" font-family="Helvetica,sans-Serif" font-size="10.00">std::basic_string&lt;</text>
<text text-anchor="middle" x="59.5" y="-363.5" font-family="Helvetica,sans-Serif" font-size="10.00"> char &gt;</text>
</a>
</g>
</g>
<!-- Node9&#45;&gt;Node8 -->
<g id="edge10" class="edge"><title>Node9&#45;&gt;Node8</title>
<path fill="none" stroke="midnightblue" d="M59.5,-346.352C59.5,-336.513 59.5,-325.775 59.5,-318.54"/>
<polygon fill="midnightblue" stroke="midnightblue" points="56.0001,-346.468 59.5,-356.468 63.0001,-346.468 56.0001,-346.468"/>
</g>
</g>
</svg>
