<?xml version="1.0" encoding="UTF-8" standalone="no"?>
<!DOCTYPE svg PUBLIC "-//W3C//DTD SVG 1.1//EN"
 "http://www.w3.org/Graphics/SVG/1.1/DTD/svg11.dtd">
<!-- Generated by graphviz version 2.38.0 (20140413.2041)
 -->
<!-- Title: elftosb::SectionASTNode Pages: 1 -->
<svg width="304pt" height="241pt"
 viewBox="0.00 0.00 304.00 241.00" xmlns="http://www.w3.org/2000/svg" xmlns:xlink="http://www.w3.org/1999/xlink">
<g id="graph0" class="graph" transform="scale(1 1) rotate(0) translate(4 237)">
<title>elftosb::SectionASTNode</title>
<polygon fill="white" stroke="none" points="-4,4 -4,-237 300,-237 300,4 -4,4"/>
<!-- Node1 -->
<g id="node1" class="node"><title>Node1</title>
<polygon fill="#bfbfbf" stroke="black" points="99,-0.5 99,-19.5 224,-19.5 224,-0.5 99,-0.5"/>
<text text-anchor="middle" x="161.5" y="-7.5" font-family="Helvetica,sans-Serif" font-size="10.00">elftosb::SectionASTNode</text>
</g>
<!-- Node2 -->
<g id="node2" class="node"><title>Node2</title>
<g id="a_node2"><a xlink:href="classelftosb_1_1_a_s_t_node.html" target="_top" xlink:title="The base class for all AST node classes. ">
<polygon fill="white" stroke="black" points="4.5,-78.5 4.5,-97.5 96.5,-97.5 96.5,-78.5 4.5,-78.5"/>
<text text-anchor="middle" x="50.5" y="-85.5" font-family="Helvetica,sans-Serif" font-size="10.00">elftosb::ASTNode</text>
</a>
</g>
</g>
<!-- Node2&#45;&gt;Node1 -->
<g id="edge1" class="edge"><title>Node2&#45;&gt;Node1</title>
<path fill="none" stroke="midnightblue" d="M71.5788,-72.5677C94.4159,-56.9314 130.101,-32.4981 148.915,-19.6165"/>
<polygon fill="midnightblue" stroke="midnightblue" points="69.507,-69.7443 63.2331,-78.2818 73.4617,-75.5202 69.507,-69.7443"/>
</g>
<!-- Node2&#45;&gt;Node2 -->
<g id="edge3" class="edge"><title>Node2&#45;&gt;Node2</title>
<path fill="none" stroke="#9a32cd" stroke-dasharray="5,2" d="M106.774,-92.6596C111.534,-91.6626 114.5,-90.1094 114.5,-88 114.5,-84.625 106.906,-82.6738 96.5242,-82.1465"/>
<polygon fill="#9a32cd" stroke="#9a32cd" points="106.052,-89.2199 96.5242,-93.8535 106.862,-96.1729 106.052,-89.2199"/>
<text text-anchor="middle" x="136.5" y="-85.5" font-family="Helvetica,sans-Serif" font-size="10.00"> m_parent</text>
</g>
<!-- Node3 -->
<g id="node3" class="node"><title>Node3</title>
<g id="a_node3"><a xlink:href="structelftosb_1_1token__loc__t.html" target="_top" xlink:title="Token location in the source file. ">
<polygon fill="white" stroke="black" points="0,-145.5 0,-164.5 101,-164.5 101,-145.5 0,-145.5"/>
<text text-anchor="middle" x="50.5" y="-152.5" font-family="Helvetica,sans-Serif" font-size="10.00">elftosb::token_loc_t</text>
</a>
</g>
</g>
<!-- Node3&#45;&gt;Node2 -->
<g id="edge2" class="edge"><title>Node3&#45;&gt;Node2</title>
<path fill="none" stroke="#9a32cd" stroke-dasharray="5,2" d="M50.5,-135.037C50.5,-122.67 50.5,-107.12 50.5,-97.6273"/>
<polygon fill="#9a32cd" stroke="#9a32cd" points="47.0001,-135.234 50.5,-145.234 54.0001,-135.234 47.0001,-135.234"/>
<text text-anchor="middle" x="76" y="-119" font-family="Helvetica,sans-Serif" font-size="10.00"> m_location</text>
</g>
<!-- Node4 -->
<g id="node4" class="node"><title>Node4</title>
<g id="a_node4"><a xlink:href="group__smart__pointer.html" target="_top" xlink:title="smart_ptr\&lt; std::string \&gt;">
<polygon fill="white" stroke="black" points="177,-78.5 177,-97.5 296,-97.5 296,-78.5 177,-78.5"/>
<text text-anchor="middle" x="236.5" y="-85.5" font-family="Helvetica,sans-Serif" font-size="10.00">smart_ptr&lt; std::string &gt;</text>
</a>
</g>
</g>
<!-- Node4&#45;&gt;Node1 -->
<g id="edge4" class="edge"><title>Node4&#45;&gt;Node1</title>
<path fill="none" stroke="#9a32cd" stroke-dasharray="5,2" d="M220.587,-70.875C205.134,-55.2161 182.265,-32.0422 170.003,-19.6165"/>
<polygon fill="#9a32cd" stroke="#9a32cd" points="218.381,-73.6225 227.897,-78.2818 223.364,-68.7056 218.381,-73.6225"/>
<text text-anchor="middle" x="231.5" y="-52" font-family="Helvetica,sans-Serif" font-size="10.00"> m_source</text>
<text text-anchor="middle" x="231.5" y="-41" font-family="Helvetica,sans-Serif" font-size="10.00">m_name</text>
</g>
<!-- Node5 -->
<g id="node5" class="node"><title>Node5</title>
<g id="a_node5"><a xlink:title="STL class. ">
<polygon fill="white" stroke="#bfbfbf" points="206.5,-145.5 206.5,-164.5 266.5,-164.5 266.5,-145.5 206.5,-145.5"/>
<text text-anchor="middle" x="236.5" y="-152.5" font-family="Helvetica,sans-Serif" font-size="10.00">std::string</text>
</a>
</g>
</g>
<!-- Node5&#45;&gt;Node4 -->
<g id="edge5" class="edge"><title>Node5&#45;&gt;Node4</title>
<path fill="none" stroke="#9a32cd" stroke-dasharray="5,2" d="M236.5,-135.037C236.5,-122.67 236.5,-107.12 236.5,-97.6273"/>
<polygon fill="#9a32cd" stroke="#9a32cd" points="233,-135.234 236.5,-145.234 240,-135.234 233,-135.234"/>
<text text-anchor="middle" x="243.5" y="-119" font-family="Helvetica,sans-Serif" font-size="10.00"> _p</text>
</g>
<!-- Node6 -->
<g id="node6" class="node"><title>Node6</title>
<g id="a_node6"><a xlink:title="STL class. ">
<polygon fill="white" stroke="#bfbfbf" points="189,-202.5 189,-232.5 284,-232.5 284,-202.5 189,-202.5"/>
<text text-anchor="start" x="197" y="-220.5" font-family="Helvetica,sans-Serif" font-size="10.00">std::basic_string&lt;</text>
<text text-anchor="middle" x="236.5" y="-209.5" font-family="Helvetica,sans-Serif" font-size="10.00"> char &gt;</text>
</a>
</g>
</g>
<!-- Node6&#45;&gt;Node5 -->
<g id="edge6" class="edge"><title>Node6&#45;&gt;Node5</title>
<path fill="none" stroke="midnightblue" d="M236.5,-192.352C236.5,-182.513 236.5,-171.775 236.5,-164.54"/>
<polygon fill="midnightblue" stroke="midnightblue" points="233,-192.468 236.5,-202.468 240,-192.468 233,-192.468"/>
</g>
</g>
</svg>
