<?xml version="1.0" encoding="UTF-8" standalone="no"?>
<!DOCTYPE svg PUBLIC "-//W3C//DTD SVG 1.1//EN"
 "http://www.w3.org/Graphics/SVG/1.1/DTD/svg11.dtd">
<!-- Generated by graphviz version 2.38.0 (20140413.2041)
 -->
<!-- Title: elftosb::UnmappedDataSource Pages: 1 -->
<svg width="392pt" height="173pt"
 viewBox="0.00 0.00 392.20 173.00" xmlns="http://www.w3.org/2000/svg" xmlns:xlink="http://www.w3.org/1999/xlink">
<g id="graph0" class="graph" transform="scale(1 1) rotate(0) translate(4 169)">
<title>elftosb::UnmappedDataSource</title>
<polygon fill="white" stroke="none" points="-4,4 -4,-169 388.195,-169 388.195,4 -4,4"/>
<!-- Node1 -->
<g id="node1" class="node"><title>Node1</title>
<polygon fill="#bfbfbf" stroke="black" points="108.695,-0.5 108.695,-19.5 257.695,-19.5 257.695,-0.5 108.695,-0.5"/>
<text text-anchor="middle" x="183.195" y="-7.5" font-family="Helvetica,sans-Serif" font-size="10.00">elftosb::UnmappedDataSource</text>
</g>
<!-- Node2 -->
<g id="node2" class="node"><title>Node2</title>
<g id="a_node2"><a xlink:href="classelftosb_1_1_data_source.html" target="_top" xlink:title="Abstract base class for data sources. ">
<polygon fill="white" stroke="black" points="18.1951,-145.5 18.1951,-164.5 120.195,-164.5 120.195,-145.5 18.1951,-145.5"/>
<text text-anchor="middle" x="69.1951" y="-152.5" font-family="Helvetica,sans-Serif" font-size="10.00">elftosb::DataSource</text>
</a>
</g>
</g>
<!-- Node2&#45;&gt;Node1 -->
<g id="edge1" class="edge"><title>Node2&#45;&gt;Node1</title>
<path fill="none" stroke="midnightblue" d="M43.7267,-139.922C37.9611,-136.13 32.0996,-131.748 27.1951,-127 6.99941,-107.449 -9.39643,-89.6902 7.19506,-67 30.38,-35.2928 71.6762,-21.1076 108.442,-14.9356"/>
<polygon fill="midnightblue" stroke="midnightblue" points="42.2069,-143.096 52.5566,-145.362 45.8788,-137.137 42.2069,-143.096"/>
</g>
<!-- Node3 -->
<g id="node3" class="node"><title>Node3</title>
<g id="a_node3"><a xlink:href="classelftosb_1_1_data_target.html" target="_top" xlink:title="Abstract base class for the target address or range of data. ">
<polygon fill="white" stroke="black" points="16.1951,-73 16.1951,-92 114.195,-92 114.195,-73 16.1951,-73"/>
<text text-anchor="middle" x="65.1951" y="-80" font-family="Helvetica,sans-Serif" font-size="10.00">elftosb::DataTarget</text>
</a>
</g>
</g>
<!-- Node2&#45;&gt;Node3 -->
<g id="edge3" class="edge"><title>Node2&#45;&gt;Node3</title>
<path fill="none" stroke="#9a32cd" stroke-dasharray="5,2" d="M42.4245,-139.352C38.2971,-135.866 34.6101,-131.752 32.1951,-127 25.4953,-113.817 39.215,-100.548 50.9559,-92.1924"/>
<polygon fill="#9a32cd" stroke="#9a32cd" points="40.5204,-142.293 50.6855,-145.28 44.6018,-136.606 40.5204,-142.293"/>
<text text-anchor="middle" x="55.1951" y="-119" font-family="Helvetica,sans-Serif" font-size="10.00"> m_source</text>
</g>
<!-- Node4 -->
<g id="node4" class="node"><title>Node4</title>
<g id="a_node4"><a xlink:href="classelftosb_1_1_data_source_1_1_segment.html" target="_top" xlink:title="Discrete, contiguous part of the source&#39;s data. ">
<polygon fill="white" stroke="black" points="132.195,-67.5 132.195,-97.5 234.195,-97.5 234.195,-67.5 132.195,-67.5"/>
<text text-anchor="start" x="140.195" y="-85.5" font-family="Helvetica,sans-Serif" font-size="10.00">elftosb::DataSource</text>
<text text-anchor="middle" x="183.195" y="-74.5" font-family="Helvetica,sans-Serif" font-size="10.00">::Segment</text>
</a>
</g>
</g>
<!-- Node2&#45;&gt;Node4 -->
<g id="edge5" class="edge"><title>Node2&#45;&gt;Node4</title>
<path fill="none" stroke="#9a32cd" stroke-dasharray="5,2" d="M101.17,-141.422C110.46,-137.29 120.452,-132.366 129.195,-127 143.149,-118.436 157.517,-106.694 167.921,-97.5681"/>
<polygon fill="#9a32cd" stroke="#9a32cd" points="99.6392,-138.27 91.826,-145.426 102.396,-144.704 99.6392,-138.27"/>
<text text-anchor="middle" x="168.195" y="-119" font-family="Helvetica,sans-Serif" font-size="10.00"> m_source</text>
</g>
<!-- Node3&#45;&gt;Node2 -->
<g id="edge2" class="edge"><title>Node3&#45;&gt;Node2</title>
<path fill="none" stroke="#9a32cd" stroke-dasharray="5,2" d="M76.2538,-100.913C78.6967,-105.631 80.9319,-110.86 82.1951,-116 84.7243,-126.292 79.6671,-137.759 75.1406,-145.377"/>
<polygon fill="#9a32cd" stroke="#9a32cd" points="79.2211,-99.0526 71.1928,-92.139 73.1574,-102.55 79.2211,-99.0526"/>
<text text-anchor="middle" x="104.195" y="-119" font-family="Helvetica,sans-Serif" font-size="10.00"> m_target</text>
</g>
<!-- Node4&#45;&gt;Node1 -->
<g id="edge4" class="edge"><title>Node4&#45;&gt;Node1</title>
<path fill="none" stroke="midnightblue" d="M183.195,-57.0913C183.195,-44.2136 183.195,-29.1974 183.195,-19.8932"/>
<polygon fill="midnightblue" stroke="midnightblue" points="179.695,-57.2332 183.195,-67.2333 186.695,-57.2333 179.695,-57.2332"/>
</g>
<!-- Node5 -->
<g id="node5" class="node"><title>Node5</title>
<g id="a_node5"><a xlink:href="group__smart__pointer.html" target="_top" xlink:title="smart_array_ptr\&lt; uint8_t \&gt;">
<polygon fill="white" stroke="black" points="252.195,-73 252.195,-92 384.195,-92 384.195,-73 252.195,-73"/>
<text text-anchor="middle" x="318.195" y="-80" font-family="Helvetica,sans-Serif" font-size="10.00">smart_array_ptr&lt; uint8_t &gt;</text>
</a>
</g>
</g>
<!-- Node5&#45;&gt;Node1 -->
<g id="edge6" class="edge"><title>Node5&#45;&gt;Node1</title>
<path fill="none" stroke="#9a32cd" stroke-dasharray="5,2" d="M292.941,-68.3117C265.595,-54.0312 222.78,-31.6723 199.537,-19.5341"/>
<polygon fill="#9a32cd" stroke="#9a32cd" points="291.427,-71.4694 301.911,-72.9961 294.667,-65.2645 291.427,-71.4694"/>
<text text-anchor="middle" x="273.195" y="-41" font-family="Helvetica,sans-Serif" font-size="10.00"> m_data</text>
</g>
</g>
</svg>
