<?xml version="1.0" encoding="UTF-8" standalone="no"?>
<!DOCTYPE svg PUBLIC "-//W3C//DTD SVG 1.1//EN"
 "http://www.w3.org/Graphics/SVG/1.1/DTD/svg11.dtd">
<!-- Generated by graphviz version 2.38.0 (20140413.2041)
 -->
<!-- Title: elftosb::ConversionController Pages: 1 -->
<svg width="1835pt" height="655pt"
 viewBox="0.00 0.00 1835.00 655.00" xmlns="http://www.w3.org/2000/svg" xmlns:xlink="http://www.w3.org/1999/xlink">
<g id="graph0" class="graph" transform="scale(1 1) rotate(0) translate(4 651)">
<title>elftosb::ConversionController</title>
<polygon fill="white" stroke="none" points="-4,4 -4,-651 1831,-651 1831,4 -4,4"/>
<!-- Node1 -->
<g id="node1" class="node"><title>Node1</title>
<polygon fill="#bfbfbf" stroke="black" points="1687,-321 1687,-340 1827,-340 1827,-321 1687,-321"/>
<text text-anchor="middle" x="1757" y="-328" font-family="Helvetica,sans-Serif" font-size="10.00">elftosb::ConversionController</text>
</g>
<!-- Node2 -->
<g id="node2" class="node"><title>Node2</title>
<g id="a_node2"><a xlink:href="classelftosb_1_1_option_dictionary.html" target="_top" xlink:title="Concrete implementation of OptionContext. ">
<polygon fill="white" stroke="black" points="1433,-535 1433,-554 1556,-554 1556,-535 1433,-535"/>
<text text-anchor="middle" x="1494.5" y="-542" font-family="Helvetica,sans-Serif" font-size="10.00">elftosb::OptionDictionary</text>
</a>
</g>
</g>
<!-- Node2&#45;&gt;Node1 -->
<g id="edge1" class="edge"><title>Node2&#45;&gt;Node1</title>
<path fill="none" stroke="midnightblue" d="M1566.4,-541.962C1600.46,-537.525 1640.05,-527.285 1669,-504.5 1725.26,-460.213 1748,-369.949 1754.16,-340.229"/>
<polygon fill="midnightblue" stroke="midnightblue" points="1565.56,-538.536 1556.03,-543.16 1566.37,-545.489 1565.56,-538.536"/>
</g>
<!-- Node3 -->
<g id="node3" class="node"><title>Node3</title>
<g id="a_node3"><a xlink:href="classelftosb_1_1_option_context.html" target="_top" xlink:title="Pure abstract interface class to a table of options. ">
<polygon fill="white" stroke="black" points="672,-511 672,-530 785,-530 785,-511 672,-511"/>
<text text-anchor="middle" x="728.5" y="-518" font-family="Helvetica,sans-Serif" font-size="10.00">elftosb::OptionContext</text>
</a>
</g>
</g>
<!-- Node3&#45;&gt;Node2 -->
<g id="edge2" class="edge"><title>Node3&#45;&gt;Node2</title>
<path fill="none" stroke="midnightblue" d="M749.718,-536.276C763.789,-546.221 783.464,-558.159 803,-563.5 931.399,-598.602 1269.61,-577.316 1402,-563.5 1419.91,-561.631 1439.49,-557.811 1455.93,-554.082"/>
<polygon fill="midnightblue" stroke="midnightblue" points="751.469,-533.219 741.339,-530.117 747.324,-538.859 751.469,-533.219"/>
</g>
<!-- Node3&#45;&gt;Node2 -->
<g id="edge8" class="edge"><title>Node3&#45;&gt;Node2</title>
<path fill="none" stroke="#9a32cd" stroke-dasharray="5,2" d="M795.309,-528.884C797.905,-529.112 800.476,-529.318 803,-529.5 1035.32,-546.205 1312.64,-546.195 1432.91,-545.219"/>
<polygon fill="#9a32cd" stroke="#9a32cd" points="795.514,-525.388 785.226,-527.918 794.846,-532.356 795.514,-525.388"/>
<text text-anchor="middle" x="1061" y="-544.5" font-family="Helvetica,sans-Serif" font-size="10.00"> m_parent</text>
</g>
<!-- Node12 -->
<g id="node12" class="node"><title>Node12</title>
<polygon fill="white" stroke="#bfbfbf" points="864,-496 864,-515 1013,-515 1013,-496 864,-496"/>
<text text-anchor="middle" x="938.5" y="-503" font-family="Helvetica,sans-Serif" font-size="10.00">std::vector&lt; OptionContext * &gt;</text>
</g>
<!-- Node3&#45;&gt;Node12 -->
<g id="edge13" class="edge"><title>Node3&#45;&gt;Node12</title>
<path fill="none" stroke="#9a32cd" stroke-dasharray="5,2" d="M795.393,-515.748C817.213,-514.175 841.631,-512.414 863.986,-510.801"/>
<polygon fill="#9a32cd" stroke="#9a32cd" points="794.962,-512.27 785.24,-516.48 795.466,-519.252 794.962,-512.27"/>
<text text-anchor="middle" x="824.5" y="-517.5" font-family="Helvetica,sans-Serif" font-size="10.00"> elements</text>
</g>
<!-- Node15 -->
<g id="node15" class="node"><title>Node15</title>
<g id="a_node15"><a xlink:href="group__smart__pointer.html" target="_top" xlink:title="smart_ptr\&lt; elftosb\l::OptionContext \&gt;">
<polygon fill="white" stroke="black" points="891,-408.5 891,-438.5 986,-438.5 986,-408.5 891,-408.5"/>
<text text-anchor="start" x="899" y="-426.5" font-family="Helvetica,sans-Serif" font-size="10.00">smart_ptr&lt; elftosb</text>
<text text-anchor="middle" x="938.5" y="-415.5" font-family="Helvetica,sans-Serif" font-size="10.00">::OptionContext &gt;</text>
</a>
</g>
</g>
<!-- Node3&#45;&gt;Node15 -->
<g id="edge18" class="edge"><title>Node3&#45;&gt;Node15</title>
<path fill="none" stroke="#9a32cd" stroke-dasharray="5,2" d="M759.386,-506.563C798.045,-488.534 865.143,-457.243 905.025,-438.645"/>
<polygon fill="#9a32cd" stroke="#9a32cd" points="757.788,-503.446 750.204,-510.845 760.747,-509.79 757.788,-503.446"/>
<text text-anchor="middle" x="824.5" y="-487.5" font-family="Helvetica,sans-Serif" font-size="10.00"> _p</text>
</g>
<!-- Node4 -->
<g id="node4" class="node"><title>Node4</title>
<polygon fill="white" stroke="#bfbfbf" points="1130,-490.5 1130,-520.5 1240,-520.5 1240,-490.5 1130,-490.5"/>
<text text-anchor="start" x="1138" y="-508.5" font-family="Helvetica,sans-Serif" font-size="10.00">std::map&lt; std::string,</text>
<text text-anchor="middle" x="1185" y="-497.5" font-family="Helvetica,sans-Serif" font-size="10.00"> OptionValue &gt;</text>
</g>
<!-- Node4&#45;&gt;Node2 -->
<g id="edge3" class="edge"><title>Node4&#45;&gt;Node2</title>
<path fill="none" stroke="#9a32cd" stroke-dasharray="5,2" d="M1250.44,-509.013C1293.52,-511.889 1351.36,-516.77 1402,-524.5 1419.52,-527.174 1438.71,-531.197 1454.97,-534.935"/>
<polygon fill="#9a32cd" stroke="#9a32cd" points="1250.58,-505.515 1240.38,-508.359 1250.13,-512.5 1250.58,-505.515"/>
<text text-anchor="middle" x="1340.5" y="-527.5" font-family="Helvetica,sans-Serif" font-size="10.00"> m_options</text>
</g>
<!-- Node5 -->
<g id="node5" class="node"><title>Node5</title>
<g id="a_node5"><a xlink:href="structelftosb_1_1_option_dictionary_1_1_option_value.html" target="_top" xlink:title="Information about one option&#39;s value. ">
<polygon fill="white" stroke="black" points="877,-616.5 877,-646.5 1000,-646.5 1000,-616.5 877,-616.5"/>
<text text-anchor="start" x="885" y="-634.5" font-family="Helvetica,sans-Serif" font-size="10.00">elftosb::OptionDictionary</text>
<text text-anchor="middle" x="938.5" y="-623.5" font-family="Helvetica,sans-Serif" font-size="10.00">::OptionValue</text>
</a>
</g>
</g>
<!-- Node5&#45;&gt;Node4 -->
<g id="edge4" class="edge"><title>Node5&#45;&gt;Node4</title>
<path fill="none" stroke="#9a32cd" stroke-dasharray="5,2" d="M987.386,-612.476C1017.64,-599.935 1057.24,-582.543 1091,-564.5 1116.29,-550.98 1143.88,-533.048 1162.38,-520.516"/>
<polygon fill="#9a32cd" stroke="#9a32cd" points="985.83,-609.331 977.913,-616.372 988.493,-615.805 985.83,-609.331"/>
<text text-anchor="middle" x="1061" y="-594.5" font-family="Helvetica,sans-Serif" font-size="10.00"> elements</text>
</g>
<!-- Node6 -->
<g id="node6" class="node"><title>Node6</title>
<g id="a_node6"><a xlink:href="classelftosb_1_1_value.html" target="_top" xlink:title="Abstract base class for values of arbitrary types. ">
<polygon fill="white" stroke="black" points="690.5,-622 690.5,-641 766.5,-641 766.5,-622 690.5,-622"/>
<text text-anchor="middle" x="728.5" y="-629" font-family="Helvetica,sans-Serif" font-size="10.00">elftosb::Value</text>
</a>
</g>
</g>
<!-- Node6&#45;&gt;Node5 -->
<g id="edge5" class="edge"><title>Node6&#45;&gt;Node5</title>
<path fill="none" stroke="#9a32cd" stroke-dasharray="5,2" d="M776.795,-631.5C806.492,-631.5 845.076,-631.5 876.993,-631.5"/>
<polygon fill="#9a32cd" stroke="#9a32cd" points="776.686,-628 766.686,-631.5 776.686,-635 776.686,-628"/>
<text text-anchor="middle" x="824.5" y="-634.5" font-family="Helvetica,sans-Serif" font-size="10.00"> m_value</text>
</g>
<!-- Node7 -->
<g id="node7" class="node"><title>Node7</title>
<g id="a_node7"><a xlink:title="STL class. ">
<polygon fill="white" stroke="#bfbfbf" points="908.5,-257 908.5,-276 968.5,-276 968.5,-257 908.5,-257"/>
<text text-anchor="middle" x="938.5" y="-264" font-family="Helvetica,sans-Serif" font-size="10.00">std::string</text>
</a>
</g>
</g>
<!-- Node7&#45;&gt;Node4 -->
<g id="edge6" class="edge"><title>Node7&#45;&gt;Node4</title>
<path fill="none" stroke="#9a32cd" stroke-dasharray="5,2" d="M965.168,-281.754C981.538,-292.882 1001.73,-309.484 1013,-329.5 1037.09,-372.282 1000.52,-400.009 1031,-438.5 1048.94,-461.147 1066.77,-447.77 1091,-463.5 1100.23,-469.492 1099.56,-474.849 1109,-480.5 1115.48,-484.377 1122.63,-487.741 1129.88,-490.635"/>
<polygon fill="#9a32cd" stroke="#9a32cd" points="966.839,-278.666 956.548,-276.149 963.023,-284.535 966.839,-278.666"/>
<text text-anchor="middle" x="1061" y="-466.5" font-family="Helvetica,sans-Serif" font-size="10.00"> keys</text>
</g>
<!-- Node13 -->
<g id="node13" class="node"><title>Node13</title>
<polygon fill="white" stroke="#bfbfbf" points="1439.5,-224.5 1439.5,-254.5 1549.5,-254.5 1549.5,-224.5 1439.5,-224.5"/>
<text text-anchor="start" x="1447.5" y="-242.5" font-family="Helvetica,sans-Serif" font-size="10.00">std::map&lt; std::string,</text>
<text text-anchor="middle" x="1494.5" y="-231.5" font-family="Helvetica,sans-Serif" font-size="10.00"> SourceFile * &gt;</text>
</g>
<!-- Node7&#45;&gt;Node13 -->
<g id="edge15" class="edge"><title>Node7&#45;&gt;Node13</title>
<path fill="none" stroke="#9a32cd" stroke-dasharray="5,2" d="M978.77,-264.586C1075.99,-259.848 1328.03,-247.565 1439.32,-242.141"/>
<polygon fill="#9a32cd" stroke="#9a32cd" points="978.323,-261.104 968.505,-265.086 978.664,-268.095 978.323,-261.104"/>
<text text-anchor="middle" x="1185" y="-261.5" font-family="Helvetica,sans-Serif" font-size="10.00"> keys</text>
</g>
<!-- Node14 -->
<g id="node14" class="node"><title>Node14</title>
<g id="a_node14"><a xlink:href="classelftosb_1_1_source_file.html" target="_top" xlink:title="Abstract base class for a source file containing executable code. ">
<polygon fill="white" stroke="black" points="1136,-192 1136,-211 1234,-211 1234,-192 1136,-192"/>
<text text-anchor="middle" x="1185" y="-199" font-family="Helvetica,sans-Serif" font-size="10.00">elftosb::SourceFile</text>
</a>
</g>
</g>
<!-- Node7&#45;&gt;Node14 -->
<g id="edge19" class="edge"><title>Node7&#45;&gt;Node14</title>
<path fill="none" stroke="#9a32cd" stroke-dasharray="5,2" d="M964.581,-251.8C982.5,-241.965 1007.5,-229.572 1031,-222.5 1065.28,-212.185 1105.41,-206.918 1135.97,-204.238"/>
<polygon fill="#9a32cd" stroke="#9a32cd" points="962.414,-249.002 955.408,-256.95 965.841,-255.106 962.414,-249.002"/>
<text text-anchor="middle" x="1061" y="-225.5" font-family="Helvetica,sans-Serif" font-size="10.00"> m_path</text>
</g>
<!-- Node30 -->
<g id="node30" class="node"><title>Node30</title>
<polygon fill="white" stroke="#bfbfbf" points="1130,-315.5 1130,-345.5 1240,-345.5 1240,-315.5 1130,-315.5"/>
<text text-anchor="start" x="1138" y="-333.5" font-family="Helvetica,sans-Serif" font-size="10.00">std::map&lt; std::string,</text>
<text text-anchor="middle" x="1185" y="-322.5" font-family="Helvetica,sans-Serif" font-size="10.00"> variable_info_t &gt;</text>
</g>
<!-- Node7&#45;&gt;Node30 -->
<g id="edge39" class="edge"><title>Node7&#45;&gt;Node30</title>
<path fill="none" stroke="#9a32cd" stroke-dasharray="5,2" d="M973.618,-279.621C990.684,-285.878 1011.75,-293.147 1031,-298.5 1063.42,-307.518 1100.33,-315.307 1129.77,-320.943"/>
<polygon fill="#9a32cd" stroke="#9a32cd" points="974.67,-276.278 964.078,-276.076 972.232,-282.839 974.67,-276.278"/>
<text text-anchor="middle" x="1061" y="-316.5" font-family="Helvetica,sans-Serif" font-size="10.00"> keys</text>
</g>
<!-- Node32 -->
<g id="node32" class="node"><title>Node32</title>
<g id="a_node32"><a xlink:href="group__smart__pointer.html" target="_top" xlink:title="smart_ptr\&lt; std::string \&gt;">
<polygon fill="white" stroke="black" points="1281,-277 1281,-296 1400,-296 1400,-277 1281,-277"/>
<text text-anchor="middle" x="1340.5" y="-284" font-family="Helvetica,sans-Serif" font-size="10.00">smart_ptr&lt; std::string &gt;</text>
</a>
</g>
</g>
<!-- Node7&#45;&gt;Node32 -->
<g id="edge42" class="edge"><title>Node7&#45;&gt;Node32</title>
<path fill="none" stroke="#9a32cd" stroke-dasharray="5,2" d="M978.831,-268.467C1049.47,-271.998 1198.14,-279.432 1280.84,-283.567"/>
<polygon fill="#9a32cd" stroke="#9a32cd" points="978.752,-264.958 968.589,-267.954 978.402,-271.95 978.752,-264.958"/>
<text text-anchor="middle" x="1061" y="-277.5" font-family="Helvetica,sans-Serif" font-size="10.00"> _p</text>
</g>
<!-- Node35 -->
<g id="node35" class="node"><title>Node35</title>
<polygon fill="white" stroke="#bfbfbf" points="1279,-139 1279,-158 1402,-158 1402,-139 1279,-139"/>
<text text-anchor="middle" x="1340.5" y="-146" font-family="Helvetica,sans-Serif" font-size="10.00">std::vector&lt; std::string &gt;</text>
</g>
<!-- Node7&#45;&gt;Node35 -->
<g id="edge49" class="edge"><title>Node7&#45;&gt;Node35</title>
<path fill="none" stroke="#9a32cd" stroke-dasharray="5,2" d="M956.068,-249.428C973.209,-232.86 1001.56,-208.386 1031,-195.5 1111.9,-160.095 1214.85,-150.722 1278.97,-148.584"/>
<polygon fill="#9a32cd" stroke="#9a32cd" points="953.231,-247.313 948.598,-256.841 958.161,-252.282 953.231,-247.313"/>
<text text-anchor="middle" x="1061" y="-198.5" font-family="Helvetica,sans-Serif" font-size="10.00"> elements</text>
</g>
<!-- Node8 -->
<g id="node8" class="node"><title>Node8</title>
<g id="a_node8"><a xlink:title="STL class. ">
<polygon fill="white" stroke="#bfbfbf" points="681,-251.5 681,-281.5 776,-281.5 776,-251.5 681,-251.5"/>
<text text-anchor="start" x="689" y="-269.5" font-family="Helvetica,sans-Serif" font-size="10.00">std::basic_string&lt;</text>
<text text-anchor="middle" x="728.5" y="-258.5" font-family="Helvetica,sans-Serif" font-size="10.00"> char &gt;</text>
</a>
</g>
</g>
<!-- Node8&#45;&gt;Node7 -->
<g id="edge7" class="edge"><title>Node8&#45;&gt;Node7</title>
<path fill="none" stroke="midnightblue" d="M786.209,-266.5C825.699,-266.5 876.747,-266.5 908.296,-266.5"/>
<polygon fill="midnightblue" stroke="midnightblue" points="786.179,-263 776.179,-266.5 786.179,-270 786.179,-263"/>
</g>
<!-- Node9 -->
<g id="node9" class="node"><title>Node9</title>
<g id="a_node9"><a xlink:href="classelftosb_1_1_eval_context_1_1_source_file_manager.html" target="_top" xlink:title="Abstract interface for a manager of source files. ">
<polygon fill="white" stroke="black" points="1131.5,-364.5 1131.5,-394.5 1238.5,-394.5 1238.5,-364.5 1131.5,-364.5"/>
<text text-anchor="start" x="1139.5" y="-382.5" font-family="Helvetica,sans-Serif" font-size="10.00">elftosb::EvalContext</text>
<text text-anchor="middle" x="1185" y="-371.5" font-family="Helvetica,sans-Serif" font-size="10.00">::SourceFileManager</text>
</a>
</g>
</g>
<!-- Node9&#45;&gt;Node1 -->
<g id="edge9" class="edge"><title>Node9&#45;&gt;Node1</title>
<path fill="none" stroke="midnightblue" d="M1248.72,-377.188C1341.04,-373.31 1518.83,-364.027 1669,-345.5 1680.87,-344.036 1693.58,-342.072 1705.52,-340.048"/>
<polygon fill="midnightblue" stroke="midnightblue" points="1248.55,-373.692 1238.71,-377.602 1248.84,-380.686 1248.55,-373.692"/>
</g>
<!-- Node29 -->
<g id="node29" class="node"><title>Node29</title>
<g id="a_node29"><a xlink:href="classelftosb_1_1_eval_context.html" target="_top" xlink:title="Context for evaluating AST tree and expressions. ">
<polygon fill="white" stroke="black" points="1443,-321 1443,-340 1546,-340 1546,-321 1443,-321"/>
<text text-anchor="middle" x="1494.5" y="-328" font-family="Helvetica,sans-Serif" font-size="10.00">elftosb::EvalContext</text>
</a>
</g>
</g>
<!-- Node9&#45;&gt;Node29 -->
<g id="edge40" class="edge"><title>Node9&#45;&gt;Node29</title>
<path fill="none" stroke="#9a32cd" stroke-dasharray="5,2" d="M1246.19,-361.901C1257.04,-359.133 1268.31,-356.523 1279,-354.5 1334.6,-343.98 1399.23,-337.52 1442.9,-333.991"/>
<polygon fill="#9a32cd" stroke="#9a32cd" points="1245.15,-358.555 1236.36,-364.475 1246.92,-365.327 1245.15,-358.555"/>
<text text-anchor="middle" x="1340.5" y="-357.5" font-family="Helvetica,sans-Serif" font-size="10.00"> m_sourcesManager</text>
</g>
<!-- Node10 -->
<g id="node10" class="node"><title>Node10</title>
<polygon fill="white" stroke="#bfbfbf" points="1433.5,-435 1433.5,-454 1555.5,-454 1555.5,-435 1433.5,-435"/>
<text text-anchor="middle" x="1494.5" y="-442" font-family="Helvetica,sans-Serif" font-size="10.00">std::vector&lt; Keyblob * &gt;</text>
</g>
<!-- Node10&#45;&gt;Node1 -->
<g id="edge10" class="edge"><title>Node10&#45;&gt;Node1</title>
<path fill="none" stroke="#9a32cd" stroke-dasharray="5,2" d="M1565.69,-442.392C1598.52,-439.05 1637.29,-431.597 1669,-415.5 1705.34,-397.054 1736.34,-358.109 1749.39,-340.058"/>
<polygon fill="#9a32cd" stroke="#9a32cd" points="1565.34,-438.909 1555.7,-443.303 1565.98,-445.88 1565.34,-438.909"/>
<text text-anchor="middle" x="1628" y="-442.5" font-family="Helvetica,sans-Serif" font-size="10.00"> m_keyblobs</text>
</g>
<!-- Node11 -->
<g id="node11" class="node"><title>Node11</title>
<g id="a_node11"><a xlink:href="classelftosb_1_1_keyblob.html" target="_top" xlink:title="Keyblob specification. ">
<polygon fill="white" stroke="black" points="1142,-452 1142,-471 1228,-471 1228,-452 1142,-452"/>
<text text-anchor="middle" x="1185" y="-459" font-family="Helvetica,sans-Serif" font-size="10.00">elftosb::Keyblob</text>
</a>
</g>
</g>
<!-- Node11&#45;&gt;Node1 -->
<g id="edge47" class="edge"><title>Node11&#45;&gt;Node1</title>
<path fill="none" stroke="#9a32cd" stroke-dasharray="5,2" d="M1238.02,-468.087C1251.36,-469.503 1265.69,-470.786 1279,-471.5 1452.25,-480.788 1518.81,-541.365 1669,-454.5 1715.67,-427.508 1743.38,-364.23 1752.57,-340.089"/>
<polygon fill="#9a32cd" stroke="#9a32cd" points="1238.38,-464.605 1228.05,-466.987 1237.61,-471.563 1238.38,-464.605"/>
<text text-anchor="middle" x="1494.5" y="-515.5" font-family="Helvetica,sans-Serif" font-size="10.00"> m_encryptKeyblob</text>
<text text-anchor="middle" x="1494.5" y="-504.5" font-family="Helvetica,sans-Serif" font-size="10.00">m_keywrapKeyblob</text>
</g>
<!-- Node11&#45;&gt;Node10 -->
<g id="edge11" class="edge"><title>Node11&#45;&gt;Node10</title>
<path fill="none" stroke="#9a32cd" stroke-dasharray="5,2" d="M1238.17,-458.616C1292.23,-455.627 1376.62,-450.962 1433.43,-447.821"/>
<polygon fill="#9a32cd" stroke="#9a32cd" points="1237.9,-455.125 1228.11,-459.172 1238.29,-462.114 1237.9,-455.125"/>
<text text-anchor="middle" x="1340.5" y="-459.5" font-family="Helvetica,sans-Serif" font-size="10.00"> elements</text>
</g>
<!-- Node12&#45;&gt;Node11 -->
<g id="edge12" class="edge"><title>Node12&#45;&gt;Node11</title>
<path fill="none" stroke="#9a32cd" stroke-dasharray="5,2" d="M1002.54,-494.155C1046.39,-486.264 1103.64,-475.962 1142,-469.059"/>
<polygon fill="#9a32cd" stroke="#9a32cd" points="1001.77,-490.737 992.553,-495.953 1003.01,-497.626 1001.77,-490.737"/>
<text text-anchor="middle" x="1061" y="-492.5" font-family="Helvetica,sans-Serif" font-size="10.00"> m_options</text>
</g>
<!-- Node13&#45;&gt;Node1 -->
<g id="edge14" class="edge"><title>Node13&#45;&gt;Node1</title>
<path fill="none" stroke="#9a32cd" stroke-dasharray="5,2" d="M1559.84,-242.178C1593.42,-245.372 1634.57,-252.172 1669,-266.5 1700.51,-279.61 1731.19,-306.427 1746.29,-320.835"/>
<polygon fill="#9a32cd" stroke="#9a32cd" points="1559.94,-238.673 1549.68,-241.298 1559.34,-245.647 1559.94,-238.673"/>
<text text-anchor="middle" x="1628" y="-269.5" font-family="Helvetica,sans-Serif" font-size="10.00"> m_sources</text>
</g>
<!-- Node14&#45;&gt;Node1 -->
<g id="edge46" class="edge"><title>Node14&#45;&gt;Node1</title>
<path fill="none" stroke="#9a32cd" stroke-dasharray="5,2" d="M1244.27,-195.262C1319.91,-188.652 1455.62,-181.867 1569,-203.5 1615.86,-212.441 1629.14,-216.297 1669,-242.5 1703.47,-265.156 1735.17,-303.328 1748.87,-320.998"/>
<polygon fill="#9a32cd" stroke="#9a32cd" points="1243.65,-191.804 1234.01,-196.191 1244.28,-198.775 1243.65,-191.804"/>
<text text-anchor="middle" x="1494.5" y="-206.5" font-family="Helvetica,sans-Serif" font-size="10.00"> m_defaultSource</text>
</g>
<!-- Node14&#45;&gt;Node13 -->
<g id="edge16" class="edge"><title>Node14&#45;&gt;Node13</title>
<path fill="none" stroke="#9a32cd" stroke-dasharray="5,2" d="M1244.23,-207.314C1287.75,-211.818 1348.67,-218.46 1402,-225.5 1414.11,-227.098 1427.09,-228.982 1439.36,-230.84"/>
<polygon fill="#9a32cd" stroke="#9a32cd" points="1244.42,-203.815 1234.11,-206.273 1243.7,-210.778 1244.42,-203.815"/>
<text text-anchor="middle" x="1340.5" y="-228.5" font-family="Helvetica,sans-Serif" font-size="10.00"> elements</text>
</g>
<!-- Node15&#45;&gt;Node14 -->
<g id="edge17" class="edge"><title>Node15&#45;&gt;Node14</title>
<path fill="none" stroke="#9a32cd" stroke-dasharray="5,2" d="M996.031,-414.358C1028.9,-406.003 1068.21,-390.194 1091,-360.5 1127.86,-312.482 1070.15,-271.92 1109,-225.5 1115.93,-217.217 1125.73,-211.761 1135.96,-208.176"/>
<polygon fill="#9a32cd" stroke="#9a32cd" points="994.988,-411.008 986.064,-416.719 996.601,-417.82 994.988,-411.008"/>
<text text-anchor="middle" x="1061" y="-404.5" font-family="Helvetica,sans-Serif" font-size="10.00"> m_options</text>
</g>
<!-- Node34 -->
<g id="node34" class="node"><title>Node34</title>
<g id="a_node34"><a xlink:href="classelftosb_1_1_output_section.html" target="_top" xlink:title="Base class for data model of sections of the output file. ">
<polygon fill="white" stroke="black" points="1128.5,-414 1128.5,-433 1241.5,-433 1241.5,-414 1128.5,-414"/>
<text text-anchor="middle" x="1185" y="-421" font-family="Helvetica,sans-Serif" font-size="10.00">elftosb::OutputSection</text>
</a>
</g>
</g>
<!-- Node15&#45;&gt;Node34 -->
<g id="edge45" class="edge"><title>Node15&#45;&gt;Node34</title>
<path fill="none" stroke="#9a32cd" stroke-dasharray="5,2" d="M996.117,-423.5C1035.82,-423.5 1088.65,-423.5 1128.18,-423.5"/>
<polygon fill="#9a32cd" stroke="#9a32cd" points="996.064,-420 986.064,-423.5 996.064,-427 996.064,-420"/>
<text text-anchor="middle" x="1061" y="-426.5" font-family="Helvetica,sans-Serif" font-size="10.00"> m_options</text>
</g>
<!-- Node16 -->
<g id="node16" class="node"><title>Node16</title>
<g id="a_node16"><a xlink:href="group__smart__pointer.html" target="_top" xlink:title="smart_ptr\&lt; std::ifstream \&gt;">
<polygon fill="white" stroke="black" points="873.5,-120 873.5,-139 1003.5,-139 1003.5,-120 873.5,-120"/>
<text text-anchor="middle" x="938.5" y="-127" font-family="Helvetica,sans-Serif" font-size="10.00">smart_ptr&lt; std::ifstream &gt;</text>
</a>
</g>
</g>
<!-- Node16&#45;&gt;Node14 -->
<g id="edge20" class="edge"><title>Node16&#45;&gt;Node14</title>
<path fill="none" stroke="#9a32cd" stroke-dasharray="5,2" d="M1013.86,-120.639C1038.94,-120.082 1066.72,-122.201 1091,-130.5 1127.14,-142.85 1160.35,-175.352 1175.45,-191.747"/>
<polygon fill="#9a32cd" stroke="#9a32cd" points="1013.53,-117.148 1003.66,-121.012 1013.78,-124.144 1013.53,-117.148"/>
<text text-anchor="middle" x="1061" y="-133.5" font-family="Helvetica,sans-Serif" font-size="10.00"> m_stream</text>
</g>
<!-- Node17 -->
<g id="node17" class="node"><title>Node17</title>
<g id="a_node17"><a xlink:title="STL class. ">
<polygon fill="white" stroke="#bfbfbf" points="693,-120 693,-139 764,-139 764,-120 693,-120"/>
<text text-anchor="middle" x="728.5" y="-127" font-family="Helvetica,sans-Serif" font-size="10.00">std::ifstream</text>
</a>
</g>
</g>
<!-- Node17&#45;&gt;Node16 -->
<g id="edge21" class="edge"><title>Node17&#45;&gt;Node16</title>
<path fill="none" stroke="#9a32cd" stroke-dasharray="5,2" d="M774.493,-129.5C803.303,-129.5 841.143,-129.5 873.112,-129.5"/>
<polygon fill="#9a32cd" stroke="#9a32cd" points="774.315,-126 764.315,-129.5 774.314,-133 774.315,-126"/>
<text text-anchor="middle" x="824.5" y="-132.5" font-family="Helvetica,sans-Serif" font-size="10.00"> _p</text>
</g>
<!-- Node18 -->
<g id="node18" class="node"><title>Node18</title>
<g id="a_node18"><a xlink:title="STL class. ">
<polygon fill="white" stroke="#bfbfbf" points="499,-114.5 499,-144.5 598,-144.5 598,-114.5 499,-114.5"/>
<text text-anchor="start" x="507" y="-132.5" font-family="Helvetica,sans-Serif" font-size="10.00">std::basic_ifstream</text>
<text text-anchor="middle" x="548.5" y="-121.5" font-family="Helvetica,sans-Serif" font-size="10.00">&lt; char &gt;</text>
</a>
</g>
</g>
<!-- Node18&#45;&gt;Node17 -->
<g id="edge22" class="edge"><title>Node18&#45;&gt;Node17</title>
<path fill="none" stroke="midnightblue" d="M608.221,-129.5C636.21,-129.5 668.734,-129.5 692.744,-129.5"/>
<polygon fill="midnightblue" stroke="midnightblue" points="608.139,-126 598.139,-129.5 608.139,-133 608.139,-126"/>
</g>
<!-- Node19 -->
<g id="node19" class="node"><title>Node19</title>
<g id="a_node19"><a xlink:title="STL class. ">
<polygon fill="white" stroke="#bfbfbf" points="315,-114.5 315,-144.5 412,-144.5 412,-114.5 315,-114.5"/>
<text text-anchor="start" x="323" y="-132.5" font-family="Helvetica,sans-Serif" font-size="10.00">std::basic_istream</text>
<text text-anchor="middle" x="363.5" y="-121.5" font-family="Helvetica,sans-Serif" font-size="10.00">&lt; Char &gt;</text>
</a>
</g>
</g>
<!-- Node19&#45;&gt;Node18 -->
<g id="edge23" class="edge"><title>Node19&#45;&gt;Node18</title>
<path fill="none" stroke="midnightblue" d="M422.392,-129.5C446.996,-129.5 475.364,-129.5 498.861,-129.5"/>
<polygon fill="midnightblue" stroke="midnightblue" points="422.103,-126 412.103,-129.5 422.103,-133 422.103,-126"/>
</g>
<!-- Node20 -->
<g id="node20" class="node"><title>Node20</title>
<g id="a_node20"><a xlink:title="STL class. ">
<polygon fill="white" stroke="#bfbfbf" points="112,-120 112,-139 228,-139 228,-120 112,-120"/>
<text text-anchor="middle" x="170" y="-127" font-family="Helvetica,sans-Serif" font-size="10.00">std::basic_ios&lt; Char &gt;</text>
</a>
</g>
</g>
<!-- Node20&#45;&gt;Node19 -->
<g id="edge24" class="edge"><title>Node20&#45;&gt;Node19</title>
<path fill="none" stroke="midnightblue" d="M238.452,-129.5C263.712,-129.5 291.859,-129.5 314.947,-129.5"/>
<polygon fill="midnightblue" stroke="midnightblue" points="238.197,-126 228.197,-129.5 238.197,-133 238.197,-126"/>
</g>
<!-- Node21 -->
<g id="node21" class="node"><title>Node21</title>
<g id="a_node21"><a xlink:title="STL class. ">
<polygon fill="white" stroke="#bfbfbf" points="0,-120 0,-139 75,-139 75,-120 0,-120"/>
<text text-anchor="middle" x="37.5" y="-127" font-family="Helvetica,sans-Serif" font-size="10.00">std::ios_base</text>
</a>
</g>
</g>
<!-- Node21&#45;&gt;Node20 -->
<g id="edge25" class="edge"><title>Node21&#45;&gt;Node20</title>
<path fill="none" stroke="midnightblue" d="M85.3188,-129.5C93.8367,-129.5 102.811,-129.5 111.593,-129.5"/>
<polygon fill="midnightblue" stroke="midnightblue" points="85.1988,-126 75.1988,-129.5 85.1988,-133 85.1988,-126"/>
</g>
<!-- Node22 -->
<g id="node22" class="node"><title>Node22</title>
<g id="a_node22"><a xlink:href="group__smart__pointer.html" target="_top" xlink:title="smart_ptr\&lt; elftosb\l::CommandFileASTNode \&gt;">
<polygon fill="white" stroke="black" points="1428,-68.5 1428,-98.5 1561,-98.5 1561,-68.5 1428,-68.5"/>
<text text-anchor="start" x="1436" y="-86.5" font-family="Helvetica,sans-Serif" font-size="10.00">smart_ptr&lt; elftosb</text>
<text text-anchor="middle" x="1494.5" y="-75.5" font-family="Helvetica,sans-Serif" font-size="10.00">::CommandFileASTNode &gt;</text>
</a>
</g>
</g>
<!-- Node22&#45;&gt;Node1 -->
<g id="edge26" class="edge"><title>Node22&#45;&gt;Node1</title>
<path fill="none" stroke="#9a32cd" stroke-dasharray="5,2" d="M1571.21,-79.1694C1604.36,-81.05 1641.81,-88.767 1669,-110.5 1738.62,-166.147 1752.72,-285.529 1755.41,-320.612"/>
<polygon fill="#9a32cd" stroke="#9a32cd" points="1571.2,-75.6666 1561.07,-78.764 1570.92,-82.661 1571.2,-75.6666"/>
<text text-anchor="middle" x="1628" y="-113.5" font-family="Helvetica,sans-Serif" font-size="10.00"> m_ast</text>
</g>
<!-- Node23 -->
<g id="node23" class="node"><title>Node23</title>
<g id="a_node23"><a xlink:href="classelftosb_1_1_command_file_a_s_t_node.html" target="_top" xlink:title="Root node for the entire file. ">
<polygon fill="white" stroke="black" points="1109,-74 1109,-93 1261,-93 1261,-74 1109,-74"/>
<text text-anchor="middle" x="1185" y="-81" font-family="Helvetica,sans-Serif" font-size="10.00">elftosb::CommandFileASTNode</text>
</a>
</g>
</g>
<!-- Node23&#45;&gt;Node22 -->
<g id="edge27" class="edge"><title>Node23&#45;&gt;Node22</title>
<path fill="none" stroke="#9a32cd" stroke-dasharray="5,2" d="M1271.28,-83.5C1320.79,-83.5 1382.21,-83.5 1427.92,-83.5"/>
<polygon fill="#9a32cd" stroke="#9a32cd" points="1271.22,-80.0001 1261.22,-83.5 1271.22,-87.0001 1271.22,-80.0001"/>
<text text-anchor="middle" x="1340.5" y="-86.5" font-family="Helvetica,sans-Serif" font-size="10.00"> _p</text>
</g>
<!-- Node24 -->
<g id="node24" class="node"><title>Node24</title>
<g id="a_node24"><a xlink:href="classelftosb_1_1_a_s_t_node.html" target="_top" xlink:title="The base class for all AST node classes. ">
<polygon fill="white" stroke="black" points="317.5,-38 317.5,-57 409.5,-57 409.5,-38 317.5,-38"/>
<text text-anchor="middle" x="363.5" y="-45" font-family="Helvetica,sans-Serif" font-size="10.00">elftosb::ASTNode</text>
</a>
</g>
</g>
<!-- Node24&#45;&gt;Node23 -->
<g id="edge28" class="edge"><title>Node24&#45;&gt;Node23</title>
<path fill="none" stroke="midnightblue" d="M402.427,-60.1073C439.109,-71.1678 496.485,-85.5 547.5,-85.5 547.5,-85.5 547.5,-85.5 939.5,-85.5 996.276,-85.5 1060.47,-84.9541 1108.82,-84.4327"/>
<polygon fill="midnightblue" stroke="midnightblue" points="403.239,-56.6951 392.652,-57.089 401.174,-63.3835 403.239,-56.6951"/>
</g>
<!-- Node24&#45;&gt;Node24 -->
<g id="edge30" class="edge"><title>Node24&#45;&gt;Node24</title>
<path fill="none" stroke="#9a32cd" stroke-dasharray="5,2" d="M347.205,-66.9C348.293,-71.8146 353.725,-75.5 363.5,-75.5 379.141,-75.5 383.662,-66.0653 377.063,-57.2571"/>
<polygon fill="#9a32cd" stroke="#9a32cd" points="350.578,-67.8325 349.937,-57.2571 343.843,-65.9242 350.578,-67.8325"/>
<text text-anchor="middle" x="363.5" y="-78.5" font-family="Helvetica,sans-Serif" font-size="10.00"> m_parent</text>
</g>
<!-- Node27 -->
<g id="node27" class="node"><title>Node27</title>
<g id="a_node27"><a xlink:href="classelftosb_1_1_list_a_s_t_node.html" target="_top" xlink:title="AST node that contains other AST nodes. ">
<polygon fill="white" stroke="black" points="674.5,-6 674.5,-25 782.5,-25 782.5,-6 674.5,-6"/>
<text text-anchor="middle" x="728.5" y="-13" font-family="Helvetica,sans-Serif" font-size="10.00">elftosb::ListASTNode</text>
</a>
</g>
</g>
<!-- Node24&#45;&gt;Node27 -->
<g id="edge33" class="edge"><title>Node24&#45;&gt;Node27</title>
<path fill="none" stroke="midnightblue" d="M419.632,-38.0663C441.757,-34.5824 467.531,-30.9022 491,-28.5 553.793,-22.073 626.312,-18.6794 674.318,-16.9923"/>
<polygon fill="midnightblue" stroke="midnightblue" points="419.066,-34.6123 409.745,-39.648 420.172,-41.5244 419.066,-34.6123"/>
</g>
<!-- Node28 -->
<g id="node28" class="node"><title>Node28</title>
<polygon fill="white" stroke="#bfbfbf" points="491,-38 491,-57 606,-57 606,-38 491,-38"/>
<text text-anchor="middle" x="548.5" y="-45" font-family="Helvetica,sans-Serif" font-size="10.00">std::list&lt; ASTNode * &gt;</text>
</g>
<!-- Node24&#45;&gt;Node28 -->
<g id="edge35" class="edge"><title>Node24&#45;&gt;Node28</title>
<path fill="none" stroke="#9a32cd" stroke-dasharray="5,2" d="M419.814,-47.5C442.338,-47.5 468.348,-47.5 490.991,-47.5"/>
<polygon fill="#9a32cd" stroke="#9a32cd" points="419.736,-44.0001 409.736,-47.5 419.736,-51.0001 419.736,-44.0001"/>
<text text-anchor="middle" x="451.5" y="-50.5" font-family="Helvetica,sans-Serif" font-size="10.00"> elements</text>
</g>
<!-- Node25 -->
<g id="node25" class="node"><title>Node25</title>
<g id="a_node25"><a xlink:href="structelftosb_1_1token__loc__t.html" target="_top" xlink:title="Token location in the source file. ">
<polygon fill="white" stroke="black" points="119.5,-38 119.5,-57 220.5,-57 220.5,-38 119.5,-38"/>
<text text-anchor="middle" x="170" y="-45" font-family="Helvetica,sans-Serif" font-size="10.00">elftosb::token_loc_t</text>
</a>
</g>
</g>
<!-- Node25&#45;&gt;Node24 -->
<g id="edge29" class="edge"><title>Node25&#45;&gt;Node24</title>
<path fill="none" stroke="#9a32cd" stroke-dasharray="5,2" d="M230.854,-47.5C258.746,-47.5 291.391,-47.5 317.194,-47.5"/>
<polygon fill="#9a32cd" stroke="#9a32cd" points="230.814,-44.0001 220.814,-47.5 230.814,-51.0001 230.814,-44.0001"/>
<text text-anchor="middle" x="271.5" y="-50.5" font-family="Helvetica,sans-Serif" font-size="10.00"> m_location</text>
</g>
<!-- Node26 -->
<g id="node26" class="node"><title>Node26</title>
<g id="a_node26"><a xlink:href="group__smart__pointer.html" target="_top" xlink:title="smart_ptr\&lt; elftosb\l::ListASTNode \&gt;">
<polygon fill="white" stroke="black" points="891,-0.5 891,-30.5 986,-30.5 986,-0.5 891,-0.5"/>
<text text-anchor="start" x="899" y="-18.5" font-family="Helvetica,sans-Serif" font-size="10.00">smart_ptr&lt; elftosb</text>
<text text-anchor="middle" x="938.5" y="-7.5" font-family="Helvetica,sans-Serif" font-size="10.00">::ListASTNode &gt;</text>
</a>
</g>
</g>
<!-- Node26&#45;&gt;Node23 -->
<g id="edge31" class="edge"><title>Node26&#45;&gt;Node23</title>
<path fill="none" stroke="#9a32cd" stroke-dasharray="5,2" d="M996.066,-7.81343C1025.12,-5.86 1060.69,-6.60894 1091,-16.5 1126.19,-27.9832 1159.34,-58.1487 1174.83,-73.7869"/>
<polygon fill="#9a32cd" stroke="#9a32cd" points="995.771,-4.32572 986.079,-8.60652 996.325,-11.3038 995.771,-4.32572"/>
<text text-anchor="middle" x="1061" y="-63.5" font-family="Helvetica,sans-Serif" font-size="10.00"> m_constants</text>
<text text-anchor="middle" x="1061" y="-52.5" font-family="Helvetica,sans-Serif" font-size="10.00">m_sources</text>
<text text-anchor="middle" x="1061" y="-41.5" font-family="Helvetica,sans-Serif" font-size="10.00">m_options</text>
<text text-anchor="middle" x="1061" y="-30.5" font-family="Helvetica,sans-Serif" font-size="10.00">m_blocks</text>
<text text-anchor="middle" x="1061" y="-19.5" font-family="Helvetica,sans-Serif" font-size="10.00">m_sections</text>
</g>
<!-- Node27&#45;&gt;Node26 -->
<g id="edge32" class="edge"><title>Node27&#45;&gt;Node26</title>
<path fill="none" stroke="#9a32cd" stroke-dasharray="5,2" d="M792.577,-15.5C824.246,-15.5 861.938,-15.5 890.944,-15.5"/>
<polygon fill="#9a32cd" stroke="#9a32cd" points="792.525,-12.0001 782.525,-15.5 792.525,-19.0001 792.525,-12.0001"/>
<text text-anchor="middle" x="824.5" y="-18.5" font-family="Helvetica,sans-Serif" font-size="10.00"> _p</text>
</g>
<!-- Node28&#45;&gt;Node27 -->
<g id="edge34" class="edge"><title>Node28&#45;&gt;Node27</title>
<path fill="none" stroke="#9a32cd" stroke-dasharray="5,2" d="M612.503,-36.1737C632.766,-32.5308 655.001,-28.5336 674.473,-25.033"/>
<polygon fill="#9a32cd" stroke="#9a32cd" points="611.647,-32.7713 602.424,-37.9856 612.885,-39.6609 611.647,-32.7713"/>
<text text-anchor="middle" x="639" y="-36.5" font-family="Helvetica,sans-Serif" font-size="10.00"> m_list</text>
</g>
<!-- Node29&#45;&gt;Node1 -->
<g id="edge36" class="edge"><title>Node29&#45;&gt;Node1</title>
<path fill="none" stroke="#9a32cd" stroke-dasharray="5,2" d="M1556.22,-330.5C1595.32,-330.5 1646.24,-330.5 1686.89,-330.5"/>
<polygon fill="#9a32cd" stroke="#9a32cd" points="1556.04,-327 1546.04,-330.5 1556.04,-334 1556.04,-327"/>
<text text-anchor="middle" x="1628" y="-333.5" font-family="Helvetica,sans-Serif" font-size="10.00"> m_context</text>
</g>
<!-- Node30&#45;&gt;Node29 -->
<g id="edge37" class="edge"><title>Node30&#45;&gt;Node29</title>
<path fill="none" stroke="#9a32cd" stroke-dasharray="5,2" d="M1250.02,-322.707C1259.72,-321.79 1269.61,-321.003 1279,-320.5 1333.59,-317.574 1347.41,-317.526 1402,-320.5 1415.24,-321.222 1429.52,-322.526 1442.76,-323.96"/>
<polygon fill="#9a32cd" stroke="#9a32cd" points="1249.62,-319.229 1240.02,-323.703 1250.31,-326.195 1249.62,-319.229"/>
<text text-anchor="middle" x="1340.5" y="-323.5" font-family="Helvetica,sans-Serif" font-size="10.00"> m_variables</text>
</g>
<!-- Node31 -->
<g id="node31" class="node"><title>Node31</title>
<g id="a_node31"><a xlink:href="classelftosb_1_1_eval_context.html#structelftosb_1_1_eval_context_1_1variable__info__t" target="_top" xlink:title="Information about a variable&#39;s value. ">
<polygon fill="white" stroke="black" points="887,-339.5 887,-369.5 990,-369.5 990,-339.5 887,-339.5"/>
<text text-anchor="start" x="895" y="-357.5" font-family="Helvetica,sans-Serif" font-size="10.00">elftosb::EvalContext</text>
<text text-anchor="middle" x="938.5" y="-346.5" font-family="Helvetica,sans-Serif" font-size="10.00">::variable_info_t</text>
</a>
</g>
</g>
<!-- Node31&#45;&gt;Node30 -->
<g id="edge38" class="edge"><title>Node31&#45;&gt;Node30</title>
<path fill="none" stroke="#9a32cd" stroke-dasharray="5,2" d="M1000.24,-348.538C1039.9,-344.645 1091.25,-339.604 1129.58,-335.842"/>
<polygon fill="#9a32cd" stroke="#9a32cd" points="999.771,-345.067 990.161,-349.527 1000.45,-352.033 999.771,-345.067"/>
<text text-anchor="middle" x="1061" y="-348.5" font-family="Helvetica,sans-Serif" font-size="10.00"> elements</text>
</g>
<!-- Node32&#45;&gt;Node1 -->
<g id="edge41" class="edge"><title>Node32&#45;&gt;Node1</title>
<path fill="none" stroke="#9a32cd" stroke-dasharray="5,2" d="M1410.36,-288.987C1455.55,-291.05 1515.91,-294.622 1569,-300.5 1615.24,-305.62 1667.5,-314.245 1704.99,-320.937"/>
<polygon fill="#9a32cd" stroke="#9a32cd" points="1410.23,-285.478 1400.08,-288.532 1409.92,-292.471 1410.23,-285.478"/>
<text text-anchor="middle" x="1494.5" y="-303.5" font-family="Helvetica,sans-Serif" font-size="10.00"> m_commandFilePath</text>
</g>
<!-- Node33 -->
<g id="node33" class="node"><title>Node33</title>
<polygon fill="white" stroke="#bfbfbf" points="1420,-397 1420,-416 1569,-416 1569,-397 1420,-397"/>
<text text-anchor="middle" x="1494.5" y="-404" font-family="Helvetica,sans-Serif" font-size="10.00">std::vector&lt; OutputSection * &gt;</text>
</g>
<!-- Node33&#45;&gt;Node1 -->
<g id="edge43" class="edge"><title>Node33&#45;&gt;Node1</title>
<path fill="none" stroke="#9a32cd" stroke-dasharray="5,2" d="M1579.32,-401.742C1608.32,-398.318 1640.64,-392.47 1669,-382.5 1697.72,-372.403 1727.35,-352.205 1743.55,-340.17"/>
<polygon fill="#9a32cd" stroke="#9a32cd" points="1578.77,-398.282 1569.21,-402.855 1579.53,-405.24 1578.77,-398.282"/>
<text text-anchor="middle" x="1628" y="-403.5" font-family="Helvetica,sans-Serif" font-size="10.00"> m_outputSections</text>
</g>
<!-- Node34&#45;&gt;Node33 -->
<g id="edge44" class="edge"><title>Node34&#45;&gt;Node33</title>
<path fill="none" stroke="#9a32cd" stroke-dasharray="5,2" d="M1251.93,-419.855C1301.31,-417.125 1368.87,-413.39 1419.98,-410.564"/>
<polygon fill="#9a32cd" stroke="#9a32cd" points="1251.48,-416.375 1241.69,-420.421 1251.86,-423.364 1251.48,-416.375"/>
<text text-anchor="middle" x="1340.5" y="-421.5" font-family="Helvetica,sans-Serif" font-size="10.00"> elements</text>
</g>
<!-- Node35&#45;&gt;Node1 -->
<g id="edge48" class="edge"><title>Node35&#45;&gt;Node1</title>
<path fill="none" stroke="#9a32cd" stroke-dasharray="5,2" d="M1395.13,-137.285C1465.84,-125.785 1590.48,-117.32 1669,-179.5 1718.34,-218.568 1744.93,-293.834 1753.17,-320.685"/>
<polygon fill="#9a32cd" stroke="#9a32cd" points="1394.36,-133.864 1385.1,-138.996 1395.54,-140.765 1394.36,-133.864"/>
<text text-anchor="middle" x="1494.5" y="-150.5" font-family="Helvetica,sans-Serif" font-size="10.00"> m_externPaths</text>
<text text-anchor="middle" x="1494.5" y="-139.5" font-family="Helvetica,sans-Serif" font-size="10.00">m_failedSources</text>
</g>
</g>
</svg>
