<?xml version="1.0" encoding="UTF-8" standalone="no"?>
<!DOCTYPE svg PUBLIC "-//W3C//DTD SVG 1.1//EN"
 "http://www.w3.org/Graphics/SVG/1.1/DTD/svg11.dtd">
<!-- Generated by graphviz version 2.38.0 (20140413.2041)
 -->
<!-- Title: elftosb::MessageStatementASTNode Pages: 1 -->
<svg width="283pt" height="251pt"
 viewBox="0.00 0.00 283.00 251.00" xmlns="http://www.w3.org/2000/svg" xmlns:xlink="http://www.w3.org/1999/xlink">
<g id="graph0" class="graph" transform="scale(1 1) rotate(0) translate(4 247)">
<title>elftosb::MessageStatementASTNode</title>
<polygon fill="white" stroke="none" points="-4,4 -4,-247 279,-247 279,4 -4,4"/>
<!-- Node1 -->
<g id="node1" class="node"><title>Node1</title>
<polygon fill="#bfbfbf" stroke="black" points="87.5,-0.5 87.5,-30.5 223.5,-30.5 223.5,-0.5 87.5,-0.5"/>
<text text-anchor="start" x="95.5" y="-18.5" font-family="Helvetica,sans-Serif" font-size="10.00">elftosb::MessageStatement</text>
<text text-anchor="middle" x="155.5" y="-7.5" font-family="Helvetica,sans-Serif" font-size="10.00">ASTNode</text>
</g>
<!-- Node2 -->
<g id="node2" class="node"><title>Node2</title>
<g id="a_node2"><a xlink:href="classelftosb_1_1_statement_a_s_t_node.html" target="_top" xlink:title="elftosb::StatementASTNode">
<polygon fill="white" stroke="black" points="0,-78.5 0,-97.5 137,-97.5 137,-78.5 0,-78.5"/>
<text text-anchor="middle" x="68.5" y="-85.5" font-family="Helvetica,sans-Serif" font-size="10.00">elftosb::StatementASTNode</text>
</a>
</g>
</g>
<!-- Node2&#45;&gt;Node1 -->
<g id="edge1" class="edge"><title>Node2&#45;&gt;Node1</title>
<path fill="none" stroke="midnightblue" d="M87.2767,-71.7844C102.374,-59.5506 123.419,-42.497 138.129,-30.5762"/>
<polygon fill="midnightblue" stroke="midnightblue" points="84.7337,-69.3402 79.1679,-78.3553 89.1408,-74.7787 84.7337,-69.3402"/>
</g>
<!-- Node3 -->
<g id="node3" class="node"><title>Node3</title>
<g id="a_node3"><a xlink:href="classelftosb_1_1_a_s_t_node.html" target="_top" xlink:title="The base class for all AST node classes. ">
<polygon fill="white" stroke="black" points="16.5,-145.5 16.5,-164.5 108.5,-164.5 108.5,-145.5 16.5,-145.5"/>
<text text-anchor="middle" x="62.5" y="-152.5" font-family="Helvetica,sans-Serif" font-size="10.00">elftosb::ASTNode</text>
</a>
</g>
</g>
<!-- Node3&#45;&gt;Node2 -->
<g id="edge2" class="edge"><title>Node3&#45;&gt;Node2</title>
<path fill="none" stroke="midnightblue" d="M64.2504,-135.037C65.392,-122.67 66.8274,-107.12 67.7036,-97.6273"/>
<polygon fill="midnightblue" stroke="midnightblue" points="60.7433,-134.954 63.3092,-145.234 67.7136,-135.598 60.7433,-134.954"/>
</g>
<!-- Node3&#45;&gt;Node3 -->
<g id="edge4" class="edge"><title>Node3&#45;&gt;Node3</title>
<path fill="none" stroke="#9a32cd" stroke-dasharray="5,2" d="M118.774,-159.66C123.534,-158.663 126.5,-157.109 126.5,-155 126.5,-151.625 118.906,-149.674 108.524,-149.146"/>
<polygon fill="#9a32cd" stroke="#9a32cd" points="118.052,-156.22 108.524,-160.854 118.862,-163.173 118.052,-156.22"/>
<text text-anchor="middle" x="148.5" y="-152.5" font-family="Helvetica,sans-Serif" font-size="10.00"> m_parent</text>
</g>
<!-- Node4 -->
<g id="node4" class="node"><title>Node4</title>
<g id="a_node4"><a xlink:href="structelftosb_1_1token__loc__t.html" target="_top" xlink:title="Token location in the source file. ">
<polygon fill="white" stroke="black" points="12,-218 12,-237 113,-237 113,-218 12,-218"/>
<text text-anchor="middle" x="62.5" y="-225" font-family="Helvetica,sans-Serif" font-size="10.00">elftosb::token_loc_t</text>
</a>
</g>
</g>
<!-- Node4&#45;&gt;Node3 -->
<g id="edge3" class="edge"><title>Node4&#45;&gt;Node3</title>
<path fill="none" stroke="#9a32cd" stroke-dasharray="5,2" d="M62.5,-207.442C62.5,-193.53 62.5,-175.32 62.5,-164.715"/>
<polygon fill="#9a32cd" stroke="#9a32cd" points="59.0001,-207.855 62.5,-217.855 66.0001,-207.855 59.0001,-207.855"/>
<text text-anchor="middle" x="88" y="-186" font-family="Helvetica,sans-Serif" font-size="10.00"> m_location</text>
</g>
<!-- Node5 -->
<g id="node5" class="node"><title>Node5</title>
<g id="a_node5"><a xlink:href="group__smart__pointer.html" target="_top" xlink:title="smart_ptr\&lt; std::string \&gt;">
<polygon fill="white" stroke="black" points="156,-78.5 156,-97.5 275,-97.5 275,-78.5 156,-78.5"/>
<text text-anchor="middle" x="215.5" y="-85.5" font-family="Helvetica,sans-Serif" font-size="10.00">smart_ptr&lt; std::string &gt;</text>
</a>
</g>
</g>
<!-- Node5&#45;&gt;Node1 -->
<g id="edge5" class="edge"><title>Node5&#45;&gt;Node1</title>
<path fill="none" stroke="#9a32cd" stroke-dasharray="5,2" d="M201.366,-70.3927C191.06,-58.2828 177.246,-42.0514 167.48,-30.5762"/>
<polygon fill="#9a32cd" stroke="#9a32cd" points="198.996,-73.0083 208.143,-78.3553 204.327,-68.4715 198.996,-73.0083"/>
<text text-anchor="middle" x="219" y="-52" font-family="Helvetica,sans-Serif" font-size="10.00"> m_message</text>
</g>
<!-- Node6 -->
<g id="node6" class="node"><title>Node6</title>
<g id="a_node6"><a xlink:title="STL class. ">
<polygon fill="white" stroke="#bfbfbf" points="188.5,-145.5 188.5,-164.5 248.5,-164.5 248.5,-145.5 188.5,-145.5"/>
<text text-anchor="middle" x="218.5" y="-152.5" font-family="Helvetica,sans-Serif" font-size="10.00">std::string</text>
</a>
</g>
</g>
<!-- Node6&#45;&gt;Node5 -->
<g id="edge6" class="edge"><title>Node6&#45;&gt;Node5</title>
<path fill="none" stroke="#9a32cd" stroke-dasharray="5,2" d="M217.625,-135.037C217.054,-122.67 216.336,-107.12 215.898,-97.6273"/>
<polygon fill="#9a32cd" stroke="#9a32cd" points="214.138,-135.406 218.095,-145.234 221.131,-135.083 214.138,-135.406"/>
<text text-anchor="middle" x="223.5" y="-119" font-family="Helvetica,sans-Serif" font-size="10.00"> _p</text>
</g>
<!-- Node7 -->
<g id="node7" class="node"><title>Node7</title>
<g id="a_node7"><a xlink:title="STL class. ">
<polygon fill="white" stroke="#bfbfbf" points="171,-212.5 171,-242.5 266,-242.5 266,-212.5 171,-212.5"/>
<text text-anchor="start" x="179" y="-230.5" font-family="Helvetica,sans-Serif" font-size="10.00">std::basic_string&lt;</text>
<text text-anchor="middle" x="218.5" y="-219.5" font-family="Helvetica,sans-Serif" font-size="10.00"> char &gt;</text>
</a>
</g>
</g>
<!-- Node7&#45;&gt;Node6 -->
<g id="edge7" class="edge"><title>Node7&#45;&gt;Node6</title>
<path fill="none" stroke="midnightblue" d="M218.5,-202.091C218.5,-189.214 218.5,-174.197 218.5,-164.893"/>
<polygon fill="midnightblue" stroke="midnightblue" points="215,-202.233 218.5,-212.233 222,-202.233 215,-202.233"/>
</g>
</g>
</svg>
