<?xml version="1.0" encoding="UTF-8" standalone="no"?>
<!DOCTYPE svg PUBLIC "-//W3C//DTD SVG 1.1//EN"
 "http://www.w3.org/Graphics/SVG/1.1/DTD/svg11.dtd">
<!-- Generated by graphviz version 2.38.0 (20140413.2041)
 -->
<!-- Title: elftosb::KeywrapOperation Pages: 1 -->
<svg width="988pt" height="167pt"
 viewBox="0.00 0.00 988.00 167.00" xmlns="http://www.w3.org/2000/svg" xmlns:xlink="http://www.w3.org/1999/xlink">
<g id="graph0" class="graph" transform="scale(1 1) rotate(0) translate(4 163)">
<title>elftosb::KeywrapOperation</title>
<polygon fill="white" stroke="none" points="-4,4 -4,-163 984,-163 984,4 -4,4"/>
<!-- Node1 -->
<g id="node1" class="node"><title>Node1</title>
<polygon fill="#bfbfbf" stroke="black" points="849,-68.5 849,-87.5 980,-87.5 980,-68.5 849,-68.5"/>
<text text-anchor="middle" x="914.5" y="-75.5" font-family="Helvetica,sans-Serif" font-size="10.00">elftosb::KeywrapOperation</text>
</g>
<!-- Node2 -->
<g id="node2" class="node"><title>Node2</title>
<g id="a_node2"><a xlink:href="classelftosb_1_1_load_operation.html" target="_top" xlink:title="Load data into memory operation. ">
<polygon fill="white" stroke="black" points="648,-91.5 648,-110.5 762,-110.5 762,-91.5 648,-91.5"/>
<text text-anchor="middle" x="705" y="-98.5" font-family="Helvetica,sans-Serif" font-size="10.00">elftosb::LoadOperation</text>
</a>
</g>
</g>
<!-- Node2&#45;&gt;Node1 -->
<g id="edge1" class="edge"><title>Node2&#45;&gt;Node1</title>
<path fill="none" stroke="midnightblue" d="M772.096,-93.6737C796.642,-90.9529 824.443,-87.8714 848.858,-85.1652"/>
<polygon fill="midnightblue" stroke="midnightblue" points="771.706,-90.1954 762.152,-94.7759 772.477,-97.1528 771.706,-90.1954"/>
</g>
<!-- Node3 -->
<g id="node3" class="node"><title>Node3</title>
<g id="a_node3"><a xlink:href="classelftosb_1_1_operation.html" target="_top" xlink:title="Abstract base class for all boot operations. ">
<polygon fill="white" stroke="black" points="476,-139.5 476,-158.5 569,-158.5 569,-139.5 476,-139.5"/>
<text text-anchor="middle" x="522.5" y="-146.5" font-family="Helvetica,sans-Serif" font-size="10.00">elftosb::Operation</text>
</a>
</g>
</g>
<!-- Node3&#45;&gt;Node2 -->
<g id="edge2" class="edge"><title>Node3&#45;&gt;Node2</title>
<path fill="none" stroke="midnightblue" d="M576.979,-137.226C593.992,-133.272 612.844,-128.674 630,-124 644.928,-119.934 661.377,-114.879 674.968,-110.545"/>
<polygon fill="midnightblue" stroke="midnightblue" points="576.162,-133.823 567.201,-139.475 577.731,-140.644 576.162,-133.823"/>
</g>
<!-- Node4 -->
<g id="node4" class="node"><title>Node4</title>
<g id="a_node4"><a xlink:href="group__smart__pointer.html" target="_top" xlink:title="smart_ptr\&lt; elftosb\l::DataSource \&gt;">
<polygon fill="white" stroke="black" points="362,-96 362,-126 457,-126 457,-96 362,-96"/>
<text text-anchor="start" x="370" y="-114" font-family="Helvetica,sans-Serif" font-size="10.00">smart_ptr&lt; elftosb</text>
<text text-anchor="middle" x="409.5" y="-103" font-family="Helvetica,sans-Serif" font-size="10.00">::DataSource &gt;</text>
</a>
</g>
</g>
<!-- Node4&#45;&gt;Node2 -->
<g id="edge3" class="edge"><title>Node4&#45;&gt;Node2</title>
<path fill="none" stroke="#9a32cd" stroke-dasharray="5,2" d="M467.079,-109.072C519.167,-107.298 596.004,-104.68 647.93,-102.91"/>
<polygon fill="#9a32cd" stroke="#9a32cd" points="466.881,-105.577 457.006,-109.415 467.119,-112.573 466.881,-105.577"/>
<text text-anchor="middle" x="522.5" y="-111" font-family="Helvetica,sans-Serif" font-size="10.00"> m_source</text>
</g>
<!-- Node5 -->
<g id="node5" class="node"><title>Node5</title>
<g id="a_node5"><a xlink:href="classelftosb_1_1_data_source.html" target="_top" xlink:title="Abstract base class for data sources. ">
<polygon fill="white" stroke="black" points="5.5,-68.5 5.5,-87.5 107.5,-87.5 107.5,-68.5 5.5,-68.5"/>
<text text-anchor="middle" x="56.5" y="-75.5" font-family="Helvetica,sans-Serif" font-size="10.00">elftosb::DataSource</text>
</a>
</g>
</g>
<!-- Node5&#45;&gt;Node4 -->
<g id="edge4" class="edge"><title>Node5&#45;&gt;Node4</title>
<path fill="none" stroke="#9a32cd" stroke-dasharray="5,2" d="M117.981,-84.6734C122.386,-85.1317 126.761,-85.5784 131,-86 212.107,-94.0668 306.666,-102.345 361.83,-107.062"/>
<polygon fill="#9a32cd" stroke="#9a32cd" points="118.011,-81.1573 107.7,-83.5896 117.278,-88.1187 118.011,-81.1573"/>
<text text-anchor="middle" x="154" y="-94" font-family="Helvetica,sans-Serif" font-size="10.00"> _p</text>
</g>
<!-- Node6 -->
<g id="node6" class="node"><title>Node6</title>
<g id="a_node6"><a xlink:href="classelftosb_1_1_data_target.html" target="_top" xlink:title="Abstract base class for the target address or range of data. ">
<polygon fill="white" stroke="black" points="220.5,-48.5 220.5,-67.5 318.5,-67.5 318.5,-48.5 220.5,-48.5"/>
<text text-anchor="middle" x="269.5" y="-55.5" font-family="Helvetica,sans-Serif" font-size="10.00">elftosb::DataTarget</text>
</a>
</g>
</g>
<!-- Node5&#45;&gt;Node6 -->
<g id="edge6" class="edge"><title>Node5&#45;&gt;Node6</title>
<path fill="none" stroke="#9a32cd" stroke-dasharray="5,2" d="M117.79,-72.2853C150.299,-69.2039 189.871,-65.453 220.307,-62.568"/>
<polygon fill="#9a32cd" stroke="#9a32cd" points="117.129,-68.8322 107.504,-73.2603 117.79,-75.8009 117.129,-68.8322"/>
<text text-anchor="middle" x="154" y="-74" font-family="Helvetica,sans-Serif" font-size="10.00"> m_source</text>
</g>
<!-- Node6&#45;&gt;Node5 -->
<g id="edge5" class="edge"><title>Node6&#45;&gt;Node5</title>
<path fill="none" stroke="#9a32cd" stroke-dasharray="5,2" d="M221.782,-46.593C194.98,-41.7839 160.834,-38.6099 131,-45 110.074,-49.4822 87.9072,-60.3942 73.4576,-68.4493"/>
<polygon fill="#9a32cd" stroke="#9a32cd" points="221.188,-50.0429 231.669,-48.4998 222.513,-43.1695 221.188,-50.0429"/>
<text text-anchor="middle" x="154" y="-48" font-family="Helvetica,sans-Serif" font-size="10.00"> m_target</text>
</g>
<!-- Node7 -->
<g id="node7" class="node"><title>Node7</title>
<g id="a_node7"><a xlink:href="group__smart__pointer.html" target="_top" xlink:title="smart_ptr\&lt; elftosb\l::DataTarget \&gt;">
<polygon fill="white" stroke="black" points="475,-43 475,-73 570,-73 570,-43 475,-43"/>
<text text-anchor="start" x="483" y="-61" font-family="Helvetica,sans-Serif" font-size="10.00">smart_ptr&lt; elftosb</text>
<text text-anchor="middle" x="522.5" y="-50" font-family="Helvetica,sans-Serif" font-size="10.00">::DataTarget &gt;</text>
</a>
</g>
</g>
<!-- Node6&#45;&gt;Node7 -->
<g id="edge8" class="edge"><title>Node6&#45;&gt;Node7</title>
<path fill="none" stroke="#9a32cd" stroke-dasharray="5,2" d="M328.675,-58C373.111,-58 433.544,-58 474.838,-58"/>
<polygon fill="#9a32cd" stroke="#9a32cd" points="328.598,-54.5001 318.598,-58 328.598,-61.5001 328.598,-54.5001"/>
<text text-anchor="middle" x="409.5" y="-61" font-family="Helvetica,sans-Serif" font-size="10.00"> _p</text>
</g>
<!-- Node7&#45;&gt;Node2 -->
<g id="edge7" class="edge"><title>Node7&#45;&gt;Node2</title>
<path fill="none" stroke="#9a32cd" stroke-dasharray="5,2" d="M580.24,-71.5171C607.448,-77.9987 639.391,-85.6084 664.009,-91.4732"/>
<polygon fill="#9a32cd" stroke="#9a32cd" points="580.992,-68.0983 570.453,-69.1855 579.37,-74.9077 580.992,-68.0983"/>
<text text-anchor="middle" x="609" y="-87" font-family="Helvetica,sans-Serif" font-size="10.00"> m_target</text>
</g>
<!-- Node8 -->
<g id="node8" class="node"><title>Node8</title>
<g id="a_node8"><a xlink:href="group__smart__pointer.html" target="_top" xlink:title="smart_ptr\&lt; elftosb\l::Keyblob \&gt;">
<polygon fill="white" stroke="black" points="657.5,-34 657.5,-64 752.5,-64 752.5,-34 657.5,-34"/>
<text text-anchor="start" x="665.5" y="-52" font-family="Helvetica,sans-Serif" font-size="10.00">smart_ptr&lt; elftosb</text>
<text text-anchor="middle" x="705" y="-41" font-family="Helvetica,sans-Serif" font-size="10.00">::Keyblob &gt;</text>
</a>
</g>
</g>
<!-- Node8&#45;&gt;Node1 -->
<g id="edge9" class="edge"><title>Node8&#45;&gt;Node1</title>
<path fill="none" stroke="#9a32cd" stroke-dasharray="5,2" d="M762.532,-56.9009C789.265,-60.6371 821.315,-65.1163 848.994,-68.9847"/>
<polygon fill="#9a32cd" stroke="#9a32cd" points="762.955,-53.4261 752.567,-55.5082 761.986,-60.3587 762.955,-53.4261"/>
<text text-anchor="middle" x="805.5" y="-70" font-family="Helvetica,sans-Serif" font-size="10.00"> m_keyblob</text>
</g>
<!-- Node9 -->
<g id="node9" class="node"><title>Node9</title>
<g id="a_node9"><a xlink:href="classelftosb_1_1_keyblob.html" target="_top" xlink:title="Keyblob specification. ">
<polygon fill="white" stroke="black" points="479.5,-4.5 479.5,-23.5 565.5,-23.5 565.5,-4.5 479.5,-4.5"/>
<text text-anchor="middle" x="522.5" y="-11.5" font-family="Helvetica,sans-Serif" font-size="10.00">elftosb::Keyblob</text>
</a>
</g>
</g>
<!-- Node9&#45;&gt;Node8 -->
<g id="edge10" class="edge"><title>Node9&#45;&gt;Node8</title>
<path fill="none" stroke="#9a32cd" stroke-dasharray="5,2" d="M575.77,-24.1356C601.491,-29.1229 632.246,-35.0864 657.187,-39.9228"/>
<polygon fill="#9a32cd" stroke="#9a32cd" points="576.303,-20.6736 565.819,-22.2059 574.97,-27.5456 576.303,-20.6736"/>
<text text-anchor="middle" x="609" y="-38" font-family="Helvetica,sans-Serif" font-size="10.00"> _p</text>
</g>
<!-- Node10 -->
<g id="node10" class="node"><title>Node10</title>
<polygon fill="white" stroke="#bfbfbf" points="195,-1.5 195,-20.5 344,-20.5 344,-1.5 195,-1.5"/>
<text text-anchor="middle" x="269.5" y="-8.5" font-family="Helvetica,sans-Serif" font-size="10.00">std::vector&lt; OptionContext * &gt;</text>
</g>
<!-- Node10&#45;&gt;Node9 -->
<g id="edge11" class="edge"><title>Node10&#45;&gt;Node9</title>
<path fill="none" stroke="#9a32cd" stroke-dasharray="5,2" d="M354.329,-12.0019C396.257,-12.5031 445.185,-13.0879 479.232,-13.4948"/>
<polygon fill="#9a32cd" stroke="#9a32cd" points="354.153,-8.49969 344.112,-11.8798 354.07,-15.4992 354.153,-8.49969"/>
<text text-anchor="middle" x="409.5" y="-17" font-family="Helvetica,sans-Serif" font-size="10.00"> m_options</text>
</g>
<!-- Node11 -->
<g id="node11" class="node"><title>Node11</title>
<g id="a_node11"><a xlink:href="classelftosb_1_1_option_context.html" target="_top" xlink:title="Pure abstract interface class to a table of options. ">
<polygon fill="white" stroke="black" points="0,-0.5 0,-19.5 113,-19.5 113,-0.5 0,-0.5"/>
<text text-anchor="middle" x="56.5" y="-7.5" font-family="Helvetica,sans-Serif" font-size="10.00">elftosb::OptionContext</text>
</a>
</g>
</g>
<!-- Node11&#45;&gt;Node10 -->
<g id="edge12" class="edge"><title>Node11&#45;&gt;Node10</title>
<path fill="none" stroke="#9a32cd" stroke-dasharray="5,2" d="M123.425,-10.3124C146.127,-10.42 171.688,-10.5412 194.959,-10.6515"/>
<polygon fill="#9a32cd" stroke="#9a32cd" points="123.23,-6.81158 113.214,-10.264 123.197,-13.8115 123.23,-6.81158"/>
<text text-anchor="middle" x="154" y="-14" font-family="Helvetica,sans-Serif" font-size="10.00"> elements</text>
</g>
</g>
</svg>
