<?xml version="1.0" encoding="UTF-8" standalone="no"?>
<!DOCTYPE svg PUBLIC "-//W3C//DTD SVG 1.1//EN"
 "http://www.w3.org/Graphics/SVG/1.1/DTD/svg11.dtd">
<!-- Generated by graphviz version 2.38.0 (20140413.2041)
 -->
<!-- Title: elftosb::StringConstASTNode Pages: 1 -->
<svg width="267pt" height="240pt"
 viewBox="0.00 0.00 267.00 240.00" xmlns="http://www.w3.org/2000/svg" xmlns:xlink="http://www.w3.org/1999/xlink">
<g id="graph0" class="graph" transform="scale(1 1) rotate(0) translate(4 236)">
<title>elftosb::StringConstASTNode</title>
<polygon fill="white" stroke="none" points="-4,4 -4,-236 263,-236 263,4 -4,4"/>
<!-- Node1 -->
<g id="node1" class="node"><title>Node1</title>
<polygon fill="#bfbfbf" stroke="black" points="71,-0.5 71,-19.5 214,-19.5 214,-0.5 71,-0.5"/>
<text text-anchor="middle" x="142.5" y="-7.5" font-family="Helvetica,sans-Serif" font-size="10.00">elftosb::StringConstASTNode</text>
</g>
<!-- Node2 -->
<g id="node2" class="node"><title>Node2</title>
<g id="a_node2"><a xlink:href="classelftosb_1_1_const_a_s_t_node.html" target="_top" xlink:title="elftosb::ConstASTNode">
<polygon fill="white" stroke="black" points="2.5,-67.5 2.5,-86.5 120.5,-86.5 120.5,-67.5 2.5,-67.5"/>
<text text-anchor="middle" x="61.5" y="-74.5" font-family="Helvetica,sans-Serif" font-size="10.00">elftosb::ConstASTNode</text>
</a>
</g>
</g>
<!-- Node2&#45;&gt;Node1 -->
<g id="edge1" class="edge"><title>Node2&#45;&gt;Node1</title>
<path fill="none" stroke="midnightblue" d="M80.5495,-60.7134C96.5082,-47.907 118.713,-30.0884 131.749,-19.6273"/>
<polygon fill="midnightblue" stroke="midnightblue" points="78.0328,-58.2453 72.424,-67.2338 82.4139,-63.7048 78.0328,-58.2453"/>
</g>
<!-- Node3 -->
<g id="node3" class="node"><title>Node3</title>
<g id="a_node3"><a xlink:href="classelftosb_1_1_a_s_t_node.html" target="_top" xlink:title="The base class for all AST node classes. ">
<polygon fill="white" stroke="black" points="4.5,-134.5 4.5,-153.5 96.5,-153.5 96.5,-134.5 4.5,-134.5"/>
<text text-anchor="middle" x="50.5" y="-141.5" font-family="Helvetica,sans-Serif" font-size="10.00">elftosb::ASTNode</text>
</a>
</g>
</g>
<!-- Node3&#45;&gt;Node2 -->
<g id="edge2" class="edge"><title>Node3&#45;&gt;Node2</title>
<path fill="none" stroke="midnightblue" d="M53.7091,-124.037C55.8019,-111.67 58.4336,-96.1198 60.04,-86.6273"/>
<polygon fill="midnightblue" stroke="midnightblue" points="50.2012,-123.79 51.9835,-134.234 57.1031,-124.958 50.2012,-123.79"/>
</g>
<!-- Node3&#45;&gt;Node3 -->
<g id="edge4" class="edge"><title>Node3&#45;&gt;Node3</title>
<path fill="none" stroke="#9a32cd" stroke-dasharray="5,2" d="M106.774,-148.66C111.534,-147.663 114.5,-146.109 114.5,-144 114.5,-140.625 106.906,-138.674 96.5242,-138.146"/>
<polygon fill="#9a32cd" stroke="#9a32cd" points="106.052,-145.22 96.5242,-149.854 106.862,-152.173 106.052,-145.22"/>
<text text-anchor="middle" x="136.5" y="-141.5" font-family="Helvetica,sans-Serif" font-size="10.00"> m_parent</text>
</g>
<!-- Node4 -->
<g id="node4" class="node"><title>Node4</title>
<g id="a_node4"><a xlink:href="structelftosb_1_1token__loc__t.html" target="_top" xlink:title="Token location in the source file. ">
<polygon fill="white" stroke="black" points="0,-207 0,-226 101,-226 101,-207 0,-207"/>
<text text-anchor="middle" x="50.5" y="-214" font-family="Helvetica,sans-Serif" font-size="10.00">elftosb::token_loc_t</text>
</a>
</g>
</g>
<!-- Node4&#45;&gt;Node3 -->
<g id="edge3" class="edge"><title>Node4&#45;&gt;Node3</title>
<path fill="none" stroke="#9a32cd" stroke-dasharray="5,2" d="M50.5,-196.442C50.5,-182.53 50.5,-164.32 50.5,-153.715"/>
<polygon fill="#9a32cd" stroke="#9a32cd" points="47.0001,-196.855 50.5,-206.855 54.0001,-196.855 47.0001,-196.855"/>
<text text-anchor="middle" x="76" y="-175" font-family="Helvetica,sans-Serif" font-size="10.00"> m_location</text>
</g>
<!-- Node5 -->
<g id="node5" class="node"><title>Node5</title>
<g id="a_node5"><a xlink:href="group__smart__pointer.html" target="_top" xlink:title="smart_ptr\&lt; std::string \&gt;">
<polygon fill="white" stroke="black" points="140,-67.5 140,-86.5 259,-86.5 259,-67.5 140,-67.5"/>
<text text-anchor="middle" x="199.5" y="-74.5" font-family="Helvetica,sans-Serif" font-size="10.00">smart_ptr&lt; std::string &gt;</text>
</a>
</g>
</g>
<!-- Node5&#45;&gt;Node1 -->
<g id="edge5" class="edge"><title>Node5&#45;&gt;Node1</title>
<path fill="none" stroke="#9a32cd" stroke-dasharray="5,2" d="M185.149,-59.6348C174.002,-46.9228 158.984,-29.7978 150.065,-19.6273"/>
<polygon fill="#9a32cd" stroke="#9a32cd" points="182.588,-62.0228 191.813,-67.2338 187.851,-57.4075 182.588,-62.0228"/>
<text text-anchor="middle" x="194" y="-41" font-family="Helvetica,sans-Serif" font-size="10.00"> m_value</text>
</g>
<!-- Node6 -->
<g id="node6" class="node"><title>Node6</title>
<g id="a_node6"><a xlink:title="STL class. ">
<polygon fill="white" stroke="#bfbfbf" points="176.5,-134.5 176.5,-153.5 236.5,-153.5 236.5,-134.5 176.5,-134.5"/>
<text text-anchor="middle" x="206.5" y="-141.5" font-family="Helvetica,sans-Serif" font-size="10.00">std::string</text>
</a>
</g>
</g>
<!-- Node6&#45;&gt;Node5 -->
<g id="edge6" class="edge"><title>Node6&#45;&gt;Node5</title>
<path fill="none" stroke="#9a32cd" stroke-dasharray="5,2" d="M204.458,-124.037C203.126,-111.67 201.451,-96.1198 200.429,-86.6273"/>
<polygon fill="#9a32cd" stroke="#9a32cd" points="201.005,-124.666 205.556,-134.234 207.965,-123.917 201.005,-124.666"/>
<text text-anchor="middle" x="210.5" y="-108" font-family="Helvetica,sans-Serif" font-size="10.00"> _p</text>
</g>
<!-- Node7 -->
<g id="node7" class="node"><title>Node7</title>
<g id="a_node7"><a xlink:title="STL class. ">
<polygon fill="white" stroke="#bfbfbf" points="159,-201.5 159,-231.5 254,-231.5 254,-201.5 159,-201.5"/>
<text text-anchor="start" x="167" y="-219.5" font-family="Helvetica,sans-Serif" font-size="10.00">std::basic_string&lt;</text>
<text text-anchor="middle" x="206.5" y="-208.5" font-family="Helvetica,sans-Serif" font-size="10.00"> char &gt;</text>
</a>
</g>
</g>
<!-- Node7&#45;&gt;Node6 -->
<g id="edge7" class="edge"><title>Node7&#45;&gt;Node6</title>
<path fill="none" stroke="midnightblue" d="M206.5,-191.091C206.5,-178.214 206.5,-163.197 206.5,-153.893"/>
<polygon fill="midnightblue" stroke="midnightblue" points="203,-191.233 206.5,-201.233 210,-191.233 203,-191.233"/>
</g>
</g>
</svg>
