<?xml version="1.0" encoding="UTF-8" standalone="no"?>
<!DOCTYPE svg PUBLIC "-//W3C//DTD SVG 1.1//EN"
 "http://www.w3.org/Graphics/SVG/1.1/DTD/svg11.dtd">
<!-- Generated by graphviz version 2.38.0 (20140413.2041)
 -->
<!-- Title: elftosb::StringMatcher Pages: 1 -->
<svg width="387pt" height="140pt"
 viewBox="0.00 0.00 386.50 140.00" xmlns="http://www.w3.org/2000/svg" xmlns:xlink="http://www.w3.org/1999/xlink">
<g id="graph0" class="graph" transform="scale(1 1) rotate(0) translate(4 136)">
<title>elftosb::StringMatcher</title>
<polygon fill="white" stroke="none" points="-4,4 -4,-136 382.5,-136 382.5,4 -4,4"/>
<!-- Node1 -->
<g id="node1" class="node"><title>Node1</title>
<polygon fill="#bfbfbf" stroke="black" points="126,-112.5 126,-131.5 238,-131.5 238,-112.5 126,-112.5"/>
<text text-anchor="middle" x="182" y="-119.5" font-family="Helvetica,sans-Serif" font-size="10.00">elftosb::StringMatcher</text>
</g>
<!-- Node2 -->
<g id="node2" class="node"><title>Node2</title>
<g id="a_node2"><a xlink:href="classelftosb_1_1_fixed_matcher.html" target="_top" xlink:title="Simple string matcher that compares against a fixed value. ">
<polygon fill="white" stroke="black" points="0,-56.5 0,-75.5 110,-75.5 110,-56.5 0,-56.5"/>
<text text-anchor="middle" x="55" y="-63.5" font-family="Helvetica,sans-Serif" font-size="10.00">elftosb::FixedMatcher</text>
</a>
</g>
</g>
<!-- Node1&#45;&gt;Node2 -->
<g id="edge1" class="edge"><title>Node1&#45;&gt;Node2</title>
<path fill="none" stroke="midnightblue" d="M152.609,-108.503C128.8,-98.3795 95.894,-84.388 75.0294,-75.5164"/>
<polygon fill="midnightblue" stroke="midnightblue" points="151.304,-111.751 161.876,-112.444 154.043,-105.31 151.304,-111.751"/>
</g>
<!-- Node3 -->
<g id="node3" class="node"><title>Node3</title>
<g id="a_node3"><a xlink:href="classelftosb_1_1_glob_matcher.html" target="_top" xlink:title="This class uses glob pattern matching to match strings. ">
<polygon fill="white" stroke="black" points="128.5,-56.5 128.5,-75.5 235.5,-75.5 235.5,-56.5 128.5,-56.5"/>
<text text-anchor="middle" x="182" y="-63.5" font-family="Helvetica,sans-Serif" font-size="10.00">elftosb::GlobMatcher</text>
</a>
</g>
</g>
<!-- Node1&#45;&gt;Node3 -->
<g id="edge2" class="edge"><title>Node1&#45;&gt;Node3</title>
<path fill="none" stroke="midnightblue" d="M182,-101.805C182,-92.9102 182,-82.7798 182,-75.7511"/>
<polygon fill="midnightblue" stroke="midnightblue" points="178.5,-102.083 182,-112.083 185.5,-102.083 178.5,-102.083"/>
</g>
<!-- Node5 -->
<g id="node5" class="node"><title>Node5</title>
<g id="a_node5"><a xlink:href="classelftosb_1_1_wildcard_matcher.html" target="_top" xlink:title="String matcher subclass that matches all test strings. ">
<polygon fill="white" stroke="black" points="253.5,-56.5 253.5,-75.5 378.5,-75.5 378.5,-56.5 253.5,-56.5"/>
<text text-anchor="middle" x="316" y="-63.5" font-family="Helvetica,sans-Serif" font-size="10.00">elftosb::WildcardMatcher</text>
</a>
</g>
</g>
<!-- Node1&#45;&gt;Node5 -->
<g id="edge4" class="edge"><title>Node1&#45;&gt;Node5</title>
<path fill="none" stroke="midnightblue" d="M212.677,-108.638C237.823,-98.504 272.754,-84.4274 294.867,-75.5164"/>
<polygon fill="midnightblue" stroke="midnightblue" points="211.2,-105.459 203.233,-112.444 213.816,-111.952 211.2,-105.459"/>
</g>
<!-- Node4 -->
<g id="node4" class="node"><title>Node4</title>
<g id="a_node4"><a xlink:href="classelftosb_1_1_excludes_list_matcher.html" target="_top" xlink:title="Matches strings using a series of include and exclude glob patterns. ">
<polygon fill="white" stroke="black" points="110.5,-0.5 110.5,-19.5 253.5,-19.5 253.5,-0.5 110.5,-0.5"/>
<text text-anchor="middle" x="182" y="-7.5" font-family="Helvetica,sans-Serif" font-size="10.00">elftosb::ExcludesListMatcher</text>
</a>
</g>
</g>
<!-- Node3&#45;&gt;Node4 -->
<g id="edge3" class="edge"><title>Node3&#45;&gt;Node4</title>
<path fill="none" stroke="midnightblue" d="M182,-45.8045C182,-36.9102 182,-26.7798 182,-19.7511"/>
<polygon fill="midnightblue" stroke="midnightblue" points="178.5,-46.083 182,-56.083 185.5,-46.083 178.5,-46.083"/>
</g>
</g>
</svg>
