<?xml version="1.0" encoding="UTF-8" standalone="no"?>
<!DOCTYPE svg PUBLIC "-//W3C//DTD SVG 1.1//EN"
 "http://www.w3.org/Graphics/SVG/1.1/DTD/svg11.dtd">
<!-- Generated by graphviz version 2.38.0 (20140413.2041)
 -->
<!-- Title: blfwk::ELFSourceFile::ELFDataSource::ProgBitsSegment Pages: 1 -->
<svg width="1063pt" height="334pt"
 viewBox="0.00 0.00 1063.00 334.00" xmlns="http://www.w3.org/2000/svg" xmlns:xlink="http://www.w3.org/1999/xlink">
<g id="graph0" class="graph" transform="scale(1 1) rotate(0) translate(4 330)">
<title>blfwk::ELFSourceFile::ELFDataSource::ProgBitsSegment</title>
<polygon fill="white" stroke="none" points="-4,4 -4,-330 1059,-330 1059,4 -4,4"/>
<!-- Node1 -->
<g id="node1" class="node"><title>Node1</title>
<polygon fill="#bfbfbf" stroke="black" points="881,-230.5 881,-260.5 1055,-260.5 1055,-230.5 881,-230.5"/>
<text text-anchor="start" x="889" y="-248.5" font-family="Helvetica,sans-Serif" font-size="10.00">blfwk::ELFSourceFile</text>
<text text-anchor="middle" x="968" y="-237.5" font-family="Helvetica,sans-Serif" font-size="10.00">::ELFDataSource::ProgBitsSegment</text>
</g>
<!-- Node2 -->
<g id="node2" class="node"><title>Node2</title>
<g id="a_node2"><a xlink:href="classblfwk_1_1_data_source_1_1_segment.html" target="_top" xlink:title="Discrete, contiguous part of the source&#39;s data. ">
<polygon fill="white" stroke="black" points="717,-295.5 717,-325.5 818,-325.5 818,-295.5 717,-295.5"/>
<text text-anchor="start" x="725" y="-313.5" font-family="Helvetica,sans-Serif" font-size="10.00">blfwk::DataSource::</text>
<text text-anchor="middle" x="767.5" y="-302.5" font-family="Helvetica,sans-Serif" font-size="10.00">Segment</text>
</a>
</g>
</g>
<!-- Node2&#45;&gt;Node1 -->
<g id="edge1" class="edge"><title>Node2&#45;&gt;Node1</title>
<path fill="none" stroke="midnightblue" d="M824.18,-292.267C854.674,-282.282 892.016,-270.054 920.867,-260.606"/>
<polygon fill="midnightblue" stroke="midnightblue" points="822.953,-288.986 814.539,-295.424 825.131,-295.638 822.953,-288.986"/>
</g>
<!-- Node3 -->
<g id="node3" class="node"><title>Node3</title>
<g id="a_node3"><a xlink:href="classblfwk_1_1_data_source.html" target="_top" xlink:title="Abstract base class for data sources. ">
<polygon fill="white" stroke="black" points="483.5,-273 483.5,-292 578.5,-292 578.5,-273 483.5,-273"/>
<text text-anchor="middle" x="531" y="-280" font-family="Helvetica,sans-Serif" font-size="10.00">blfwk::DataSource</text>
</a>
</g>
</g>
<!-- Node3&#45;&gt;Node2 -->
<g id="edge2" class="edge"><title>Node3&#45;&gt;Node2</title>
<path fill="none" stroke="#9a32cd" stroke-dasharray="5,2" d="M588.549,-292.556C593.094,-293.254 597.62,-293.912 602,-294.5 640.393,-299.651 684.039,-303.819 716.722,-306.608"/>
<polygon fill="#9a32cd" stroke="#9a32cd" points="589.043,-289.091 578.618,-290.978 587.944,-296.004 589.043,-289.091"/>
<text text-anchor="middle" x="650.5" y="-307.5" font-family="Helvetica,sans-Serif" font-size="10.00"> m_source</text>
</g>
<!-- Node4 -->
<g id="node4" class="node"><title>Node4</title>
<g id="a_node4"><a xlink:href="classblfwk_1_1_data_target.html" target="_top" xlink:title="Abstract base class for the target address or range of data. ">
<polygon fill="white" stroke="black" points="721.5,-245 721.5,-264 813.5,-264 813.5,-245 721.5,-245"/>
<text text-anchor="middle" x="767.5" y="-252" font-family="Helvetica,sans-Serif" font-size="10.00">blfwk::DataTarget</text>
</a>
</g>
</g>
<!-- Node3&#45;&gt;Node4 -->
<g id="edge4" class="edge"><title>Node3&#45;&gt;Node4</title>
<path fill="none" stroke="#9a32cd" stroke-dasharray="5,2" d="M588.64,-275.737C629.297,-270.882 683.365,-264.427 721.174,-259.912"/>
<polygon fill="#9a32cd" stroke="#9a32cd" points="588.125,-272.274 578.61,-276.935 588.954,-279.224 588.125,-272.274"/>
<text text-anchor="middle" x="650.5" y="-275.5" font-family="Helvetica,sans-Serif" font-size="10.00"> m_source</text>
</g>
<!-- Node4&#45;&gt;Node3 -->
<g id="edge3" class="edge"><title>Node4&#45;&gt;Node3</title>
<path fill="none" stroke="#9a32cd" stroke-dasharray="5,2" d="M711.117,-246.017C678.899,-242.762 637.726,-241.501 602,-249.5 581.94,-253.991 560.855,-264.901 547.135,-272.954"/>
<polygon fill="#9a32cd" stroke="#9a32cd" points="710.921,-249.517 721.244,-247.135 711.689,-242.559 710.921,-249.517"/>
<text text-anchor="middle" x="650.5" y="-252.5" font-family="Helvetica,sans-Serif" font-size="10.00"> m_target</text>
</g>
<!-- Node5 -->
<g id="node5" class="node"><title>Node5</title>
<g id="a_node5"><a xlink:href="class_st_e_l_f_file.html" target="_top" xlink:title="Parser for Executable and Linking Format (ELF) files. ">
<polygon fill="white" stroke="black" points="737.5,-137 737.5,-156 797.5,-156 797.5,-137 737.5,-137"/>
<text text-anchor="middle" x="767.5" y="-144" font-family="Helvetica,sans-Serif" font-size="10.00">StELFFile</text>
</a>
</g>
</g>
<!-- Node5&#45;&gt;Node1 -->
<g id="edge5" class="edge"><title>Node5&#45;&gt;Node1</title>
<path fill="none" stroke="#9a32cd" stroke-dasharray="5,2" d="M797.176,-160.802C834.391,-179.362 899.034,-211.602 936.923,-230.499"/>
<polygon fill="#9a32cd" stroke="#9a32cd" points="798.405,-157.504 787.894,-156.173 795.281,-163.768 798.405,-157.504"/>
<text text-anchor="middle" x="849.5" y="-196.5" font-family="Helvetica,sans-Serif" font-size="10.00"> m_elf</text>
</g>
<!-- Node6 -->
<g id="node6" class="node"><title>Node6</title>
<polygon fill="white" stroke="#bfbfbf" points="485,-213.5 485,-243.5 577,-243.5 577,-213.5 485,-213.5"/>
<text text-anchor="start" x="493" y="-231.5" font-family="Helvetica,sans-Serif" font-size="10.00">std::vector&lt; Elf32</text>
<text text-anchor="middle" x="531" y="-220.5" font-family="Helvetica,sans-Serif" font-size="10.00">_Phdr &gt;</text>
</g>
<!-- Node6&#45;&gt;Node5 -->
<g id="edge6" class="edge"><title>Node6&#45;&gt;Node5</title>
<path fill="none" stroke="#9a32cd" stroke-dasharray="5,2" d="M587.234,-220.437C620.49,-214.41 663.188,-204.57 699,-189.5 719.747,-180.769 741.267,-165.869 754.273,-156.104"/>
<polygon fill="#9a32cd" stroke="#9a32cd" points="586.481,-217.015 577.234,-222.186 587.687,-223.91 586.481,-217.015"/>
<text text-anchor="middle" x="650.5" y="-220.5" font-family="Helvetica,sans-Serif" font-size="10.00"> m_programHeaders</text>
</g>
<!-- Node7 -->
<g id="node7" class="node"><title>Node7</title>
<g id="a_node7"><a xlink:href="struct_elf32___phdr.html" target="_top" xlink:title="ELF program header. ">
<polygon fill="white" stroke="black" points="300,-219 300,-238 364,-238 364,-219 300,-219"/>
<text text-anchor="middle" x="332" y="-226" font-family="Helvetica,sans-Serif" font-size="10.00">Elf32_Phdr</text>
</a>
</g>
</g>
<!-- Node7&#45;&gt;Node6 -->
<g id="edge7" class="edge"><title>Node7&#45;&gt;Node6</title>
<path fill="none" stroke="#9a32cd" stroke-dasharray="5,2" d="M374.222,-228.5C406.498,-228.5 451.348,-228.5 484.639,-228.5"/>
<polygon fill="#9a32cd" stroke="#9a32cd" points="374.215,-225 364.215,-228.5 374.215,-232 374.215,-225"/>
<text text-anchor="middle" x="438.5" y="-231.5" font-family="Helvetica,sans-Serif" font-size="10.00"> elements</text>
</g>
<!-- Node8 -->
<g id="node8" class="node"><title>Node8</title>
<g id="a_node8"><a xlink:title="STL class. ">
<polygon fill="white" stroke="#bfbfbf" points="497,-175 497,-194 565,-194 565,-175 497,-175"/>
<text text-anchor="middle" x="531" y="-182" font-family="Helvetica,sans-Serif" font-size="10.00">std::istream</text>
</a>
</g>
</g>
<!-- Node8&#45;&gt;Node5 -->
<g id="edge8" class="edge"><title>Node8&#45;&gt;Node5</title>
<path fill="none" stroke="#9a32cd" stroke-dasharray="5,2" d="M575.293,-178.021C609.03,-172.908 657.033,-165.496 699,-158.5 711.562,-156.406 725.415,-153.966 737.286,-151.835"/>
<polygon fill="#9a32cd" stroke="#9a32cd" points="574.668,-174.575 565.303,-179.53 575.714,-181.497 574.668,-174.575"/>
<text text-anchor="middle" x="650.5" y="-177.5" font-family="Helvetica,sans-Serif" font-size="10.00"> m_stream</text>
</g>
<!-- Node9 -->
<g id="node9" class="node"><title>Node9</title>
<g id="a_node9"><a xlink:title="STL class. ">
<polygon fill="white" stroke="#bfbfbf" points="283.5,-169.5 283.5,-199.5 380.5,-199.5 380.5,-169.5 283.5,-169.5"/>
<text text-anchor="start" x="291.5" y="-187.5" font-family="Helvetica,sans-Serif" font-size="10.00">std::basic_istream</text>
<text text-anchor="middle" x="332" y="-176.5" font-family="Helvetica,sans-Serif" font-size="10.00">&lt; char &gt;</text>
</a>
</g>
</g>
<!-- Node9&#45;&gt;Node8 -->
<g id="edge9" class="edge"><title>Node9&#45;&gt;Node8</title>
<path fill="none" stroke="midnightblue" d="M391.113,-184.5C425.609,-184.5 468.097,-184.5 496.929,-184.5"/>
<polygon fill="midnightblue" stroke="midnightblue" points="390.688,-181 380.688,-184.5 390.688,-188 390.688,-181"/>
</g>
<!-- Node10 -->
<g id="node10" class="node"><title>Node10</title>
<g id="a_node10"><a xlink:title="STL class. ">
<polygon fill="white" stroke="#bfbfbf" points="112,-175 112,-194 228,-194 228,-175 112,-175"/>
<text text-anchor="middle" x="170" y="-182" font-family="Helvetica,sans-Serif" font-size="10.00">std::basic_ios&lt; Char &gt;</text>
</a>
</g>
</g>
<!-- Node10&#45;&gt;Node9 -->
<g id="edge10" class="edge"><title>Node10&#45;&gt;Node9</title>
<path fill="none" stroke="midnightblue" d="M238.6,-184.5C253.637,-184.5 269.273,-184.5 283.314,-184.5"/>
<polygon fill="midnightblue" stroke="midnightblue" points="238.312,-181 228.312,-184.5 238.312,-188 238.312,-181"/>
</g>
<!-- Node11 -->
<g id="node11" class="node"><title>Node11</title>
<g id="a_node11"><a xlink:title="STL class. ">
<polygon fill="white" stroke="#bfbfbf" points="0,-175 0,-194 75,-194 75,-175 0,-175"/>
<text text-anchor="middle" x="37.5" y="-182" font-family="Helvetica,sans-Serif" font-size="10.00">std::ios_base</text>
</a>
</g>
</g>
<!-- Node11&#45;&gt;Node10 -->
<g id="edge11" class="edge"><title>Node11&#45;&gt;Node10</title>
<path fill="none" stroke="midnightblue" d="M85.3188,-184.5C93.8367,-184.5 102.811,-184.5 111.593,-184.5"/>
<polygon fill="midnightblue" stroke="midnightblue" points="85.1988,-181 75.1988,-184.5 85.1988,-188 85.1988,-181"/>
</g>
<!-- Node12 -->
<g id="node12" class="node"><title>Node12</title>
<g id="a_node12"><a xlink:href="struct_elf32___ehdr.html" target="_top" xlink:title="ELF file header. ">
<polygon fill="white" stroke="black" points="499,-137 499,-156 563,-156 563,-137 499,-137"/>
<text text-anchor="middle" x="531" y="-144" font-family="Helvetica,sans-Serif" font-size="10.00">Elf32_Ehdr</text>
</a>
</g>
</g>
<!-- Node12&#45;&gt;Node5 -->
<g id="edge12" class="edge"><title>Node12&#45;&gt;Node5</title>
<path fill="none" stroke="#9a32cd" stroke-dasharray="5,2" d="M573.305,-146.5C620.399,-146.5 696.183,-146.5 737.446,-146.5"/>
<polygon fill="#9a32cd" stroke="#9a32cd" points="573.14,-143 563.14,-146.5 573.14,-150 573.14,-143"/>
<text text-anchor="middle" x="650.5" y="-149.5" font-family="Helvetica,sans-Serif" font-size="10.00"> m_header</text>
</g>
<!-- Node13 -->
<g id="node13" class="node"><title>Node13</title>
<g id="a_node13"><a xlink:title="STL class. ">
<polygon fill="white" stroke="#bfbfbf" points="501,-99 501,-118 561,-118 561,-99 501,-99"/>
<text text-anchor="middle" x="531" y="-106" font-family="Helvetica,sans-Serif" font-size="10.00">std::string</text>
</a>
</g>
</g>
<!-- Node13&#45;&gt;Node5 -->
<g id="edge13" class="edge"><title>Node13&#45;&gt;Node5</title>
<path fill="none" stroke="#9a32cd" stroke-dasharray="5,2" d="M571.053,-112.962C604.989,-117.057 655.405,-123.668 699,-131.5 711.643,-133.771 725.509,-136.765 737.367,-139.479"/>
<polygon fill="#9a32cd" stroke="#9a32cd" points="571.42,-109.481 561.076,-111.773 570.592,-116.432 571.42,-109.481"/>
<text text-anchor="middle" x="650.5" y="-134.5" font-family="Helvetica,sans-Serif" font-size="10.00"> m_name</text>
</g>
<!-- Node14 -->
<g id="node14" class="node"><title>Node14</title>
<g id="a_node14"><a xlink:title="STL class. ">
<polygon fill="white" stroke="#bfbfbf" points="284.5,-93.5 284.5,-123.5 379.5,-123.5 379.5,-93.5 284.5,-93.5"/>
<text text-anchor="start" x="292.5" y="-111.5" font-family="Helvetica,sans-Serif" font-size="10.00">std::basic_string&lt;</text>
<text text-anchor="middle" x="332" y="-100.5" font-family="Helvetica,sans-Serif" font-size="10.00"> char &gt;</text>
</a>
</g>
</g>
<!-- Node14&#45;&gt;Node13 -->
<g id="edge14" class="edge"><title>Node14&#45;&gt;Node13</title>
<path fill="none" stroke="midnightblue" d="M390.122,-108.5C426.345,-108.5 471.693,-108.5 500.756,-108.5"/>
<polygon fill="midnightblue" stroke="midnightblue" points="389.686,-105 379.686,-108.5 389.686,-112 389.686,-105"/>
</g>
<!-- Node15 -->
<g id="node15" class="node"><title>Node15</title>
<polygon fill="white" stroke="#bfbfbf" points="485,-49.5 485,-79.5 577,-79.5 577,-49.5 485,-49.5"/>
<text text-anchor="start" x="493" y="-67.5" font-family="Helvetica,sans-Serif" font-size="10.00">std::vector&lt; Elf32</text>
<text text-anchor="middle" x="531" y="-56.5" font-family="Helvetica,sans-Serif" font-size="10.00">_Shdr &gt;</text>
</g>
<!-- Node15&#45;&gt;Node5 -->
<g id="edge15" class="edge"><title>Node15&#45;&gt;Node5</title>
<path fill="none" stroke="#9a32cd" stroke-dasharray="5,2" d="M587.294,-72.0306C620.572,-77.7851 663.271,-87.3641 699,-102.5 719.866,-111.34 741.354,-126.611 754.321,-136.635"/>
<polygon fill="#9a32cd" stroke="#9a32cd" points="587.725,-68.5544 577.286,-70.3657 586.576,-75.4595 587.725,-68.5544"/>
<text text-anchor="middle" x="650.5" y="-105.5" font-family="Helvetica,sans-Serif" font-size="10.00"> m_sectionHeaders</text>
</g>
<!-- Node16 -->
<g id="node16" class="node"><title>Node16</title>
<g id="a_node16"><a xlink:href="struct_elf32___shdr.html" target="_top" xlink:title="ELF section header. ">
<polygon fill="white" stroke="black" points="300,-55 300,-74 364,-74 364,-55 300,-55"/>
<text text-anchor="middle" x="332" y="-62" font-family="Helvetica,sans-Serif" font-size="10.00">Elf32_Shdr</text>
</a>
</g>
</g>
<!-- Node16&#45;&gt;Node15 -->
<g id="edge16" class="edge"><title>Node16&#45;&gt;Node15</title>
<path fill="none" stroke="#9a32cd" stroke-dasharray="5,2" d="M374.222,-64.5C406.498,-64.5 451.348,-64.5 484.639,-64.5"/>
<polygon fill="#9a32cd" stroke="#9a32cd" points="374.215,-61.0001 364.215,-64.5 374.215,-68.0001 374.215,-61.0001"/>
<text text-anchor="middle" x="438.5" y="-67.5" font-family="Helvetica,sans-Serif" font-size="10.00"> elements</text>
</g>
<!-- Node17 -->
<g id="node17" class="node"><title>Node17</title>
<polygon fill="white" stroke="#bfbfbf" points="478,-0.5 478,-30.5 584,-30.5 584,-0.5 478,-0.5"/>
<text text-anchor="start" x="486" y="-18.5" font-family="Helvetica,sans-Serif" font-size="10.00">std::map&lt; unsigned,</text>
<text text-anchor="middle" x="531" y="-7.5" font-family="Helvetica,sans-Serif" font-size="10.00"> SectionDataInfo &gt;</text>
</g>
<!-- Node17&#45;&gt;Node5 -->
<g id="edge17" class="edge"><title>Node17&#45;&gt;Node5</title>
<path fill="none" stroke="#9a32cd" stroke-dasharray="5,2" d="M594.153,-22.5837C627.396,-28.6525 667.79,-39.8611 699,-60.5 729.397,-80.6013 752.167,-118.926 761.653,-136.831"/>
<polygon fill="#9a32cd" stroke="#9a32cd" points="594.531,-19.0976 584.084,-20.8606 593.35,-25.9973 594.531,-19.0976"/>
<text text-anchor="middle" x="650.5" y="-63.5" font-family="Helvetica,sans-Serif" font-size="10.00"> m_sectionDataCache</text>
</g>
<!-- Node18 -->
<g id="node18" class="node"><title>Node18</title>
<g id="a_node18"><a xlink:href="class_st_e_l_f_file.html#struct_st_e_l_f_file_1_1_section_data_info" target="_top" xlink:title="StELFFile::SectionDataInfo">
<polygon fill="white" stroke="black" points="265,-6 265,-25 399,-25 399,-6 265,-6"/>
<text text-anchor="middle" x="332" y="-13" font-family="Helvetica,sans-Serif" font-size="10.00">StELFFile::SectionDataInfo</text>
</a>
</g>
</g>
<!-- Node18&#45;&gt;Node17 -->
<g id="edge18" class="edge"><title>Node18&#45;&gt;Node17</title>
<path fill="none" stroke="#9a32cd" stroke-dasharray="5,2" d="M409.191,-15.5C432.109,-15.5 456.727,-15.5 477.722,-15.5"/>
<polygon fill="#9a32cd" stroke="#9a32cd" points="409.146,-12.0001 399.146,-15.5 409.146,-19.0001 409.146,-12.0001"/>
<text text-anchor="middle" x="438.5" y="-18.5" font-family="Helvetica,sans-Serif" font-size="10.00"> elements</text>
</g>
</g>
</svg>
