<?xml version="1.0" encoding="UTF-8" standalone="no"?>
<!DOCTYPE svg PUBLIC "-//W3C//DTD SVG 1.1//EN"
 "http://www.w3.org/Graphics/SVG/1.1/DTD/svg11.dtd">
<!-- Generated by graphviz version 2.38.0 (20140413.2041)
 -->
<!-- Title: elftosb::SourceDefASTNode Pages: 1 -->
<svg width="310pt" height="151pt"
 viewBox="0.00 0.00 309.50 151.00" xmlns="http://www.w3.org/2000/svg" xmlns:xlink="http://www.w3.org/1999/xlink">
<g id="graph0" class="graph" transform="scale(1 1) rotate(0) translate(4 147)">
<title>elftosb::SourceDefASTNode</title>
<polygon fill="white" stroke="none" points="-4,4 -4,-147 305.5,-147 305.5,4 -4,4"/>
<!-- Node1 -->
<g id="node1" class="node"><title>Node1</title>
<polygon fill="#bfbfbf" stroke="black" points="74,-67.5 74,-86.5 211,-86.5 211,-67.5 74,-67.5"/>
<text text-anchor="middle" x="142.5" y="-74.5" font-family="Helvetica,sans-Serif" font-size="10.00">elftosb::SourceDefASTNode</text>
</g>
<!-- Node3 -->
<g id="node3" class="node"><title>Node3</title>
<g id="a_node3"><a xlink:href="classelftosb_1_1_extern_source_def_a_s_t_node.html" target="_top" xlink:title="elftosb::ExternSourceDef\lASTNode">
<polygon fill="white" stroke="black" points="0,-0.5 0,-30.5 125,-30.5 125,-0.5 0,-0.5"/>
<text text-anchor="start" x="8" y="-18.5" font-family="Helvetica,sans-Serif" font-size="10.00">elftosb::ExternSourceDef</text>
<text text-anchor="middle" x="62.5" y="-7.5" font-family="Helvetica,sans-Serif" font-size="10.00">ASTNode</text>
</a>
</g>
</g>
<!-- Node1&#45;&gt;Node3 -->
<g id="edge2" class="edge"><title>Node1&#45;&gt;Node3</title>
<path fill="none" stroke="midnightblue" d="M122.961,-61.468C110.295,-52.0474 93.8826,-39.8408 81.3544,-30.523"/>
<polygon fill="midnightblue" stroke="midnightblue" points="120.925,-64.3156 131.038,-67.4751 125.103,-58.6988 120.925,-64.3156"/>
</g>
<!-- Node4 -->
<g id="node4" class="node"><title>Node4</title>
<g id="a_node4"><a xlink:href="classelftosb_1_1_path_source_def_a_s_t_node.html" target="_top" xlink:title="elftosb::PathSourceDefASTNode">
<polygon fill="white" stroke="black" points="143.5,-6 143.5,-25 301.5,-25 301.5,-6 143.5,-6"/>
<text text-anchor="middle" x="222.5" y="-13" font-family="Helvetica,sans-Serif" font-size="10.00">elftosb::PathSourceDefASTNode</text>
</a>
</g>
</g>
<!-- Node1&#45;&gt;Node4 -->
<g id="edge3" class="edge"><title>Node1&#45;&gt;Node4</title>
<path fill="none" stroke="midnightblue" d="M162.273,-61.2938C177.619,-49.8803 198.355,-34.4577 211.059,-25.0091"/>
<polygon fill="midnightblue" stroke="midnightblue" points="159.897,-58.6988 153.962,-67.4751 164.075,-64.3156 159.897,-58.6988"/>
</g>
<!-- Node2 -->
<g id="node2" class="node"><title>Node2</title>
<g id="a_node2"><a xlink:href="classelftosb_1_1_a_s_t_node.html" target="_top" xlink:title="The base class for all AST node classes. ">
<polygon fill="white" stroke="black" points="96.5,-123.5 96.5,-142.5 188.5,-142.5 188.5,-123.5 96.5,-123.5"/>
<text text-anchor="middle" x="142.5" y="-130.5" font-family="Helvetica,sans-Serif" font-size="10.00">elftosb::ASTNode</text>
</a>
</g>
</g>
<!-- Node2&#45;&gt;Node1 -->
<g id="edge1" class="edge"><title>Node2&#45;&gt;Node1</title>
<path fill="none" stroke="midnightblue" d="M142.5,-112.805C142.5,-103.91 142.5,-93.7798 142.5,-86.7511"/>
<polygon fill="midnightblue" stroke="midnightblue" points="139,-113.083 142.5,-123.083 146,-113.083 139,-113.083"/>
</g>
</g>
</svg>
