<?xml version="1.0" encoding="UTF-8" standalone="no"?>
<!DOCTYPE svg PUBLIC "-//W3C//DTD SVG 1.1//EN"
 "http://www.w3.org/Graphics/SVG/1.1/DTD/svg11.dtd">
<!-- Generated by graphviz version 2.38.0 (20140413.2041)
 -->
<!-- Title: blfwk::FlashReadResource Pages: 1 -->
<svg width="539pt" height="287pt"
 viewBox="0.00 0.00 539.00 287.00" xmlns="http://www.w3.org/2000/svg" xmlns:xlink="http://www.w3.org/1999/xlink">
<g id="graph0" class="graph" transform="scale(1 1) rotate(0) translate(4 283)">
<title>blfwk::FlashReadResource</title>
<polygon fill="white" stroke="none" points="-4,4 -4,-283 535,-283 535,4 -4,4"/>
<!-- Node1 -->
<g id="node1" class="node"><title>Node1</title>
<polygon fill="#bfbfbf" stroke="black" points="0,-0.5 0,-19.5 132,-19.5 132,-0.5 0,-0.5"/>
<text text-anchor="middle" x="66" y="-7.5" font-family="Helvetica,sans-Serif" font-size="10.00">blfwk::FlashReadResource</text>
</g>
<!-- Node2 -->
<g id="node2" class="node"><title>Node2</title>
<g id="a_node2"><a xlink:href="classblfwk_1_1_command.html" target="_top" xlink:title="Represents a bootloader command. ">
<polygon fill="white" stroke="black" points="191.5,-57.5 191.5,-76.5 280.5,-76.5 280.5,-57.5 191.5,-57.5"/>
<text text-anchor="middle" x="236" y="-64.5" font-family="Helvetica,sans-Serif" font-size="10.00">blfwk::Command</text>
</a>
</g>
</g>
<!-- Node2&#45;&gt;Node1 -->
<g id="edge1" class="edge"><title>Node2&#45;&gt;Node1</title>
<path fill="none" stroke="midnightblue" d="M199.51,-54.1945C167.3,-43.7736 121.119,-28.8327 92.376,-19.5334"/>
<polygon fill="midnightblue" stroke="midnightblue" points="198.846,-57.658 209.438,-57.4063 201,-50.9979 198.846,-57.658"/>
</g>
<!-- Node3 -->
<g id="node3" class="node"><title>Node3</title>
<polygon fill="white" stroke="#bfbfbf" points="417,-124.5 417,-143.5 531,-143.5 531,-124.5 417,-124.5"/>
<text text-anchor="middle" x="474" y="-131.5" font-family="Helvetica,sans-Serif" font-size="10.00">std::vector&lt; uint32_t &gt;</text>
</g>
<!-- Node3&#45;&gt;Node2 -->
<g id="edge2" class="edge"><title>Node3&#45;&gt;Node2</title>
<path fill="none" stroke="#9a32cd" stroke-dasharray="5,2" d="M442.203,-120.974C420.181,-112.928 390.07,-102.482 363,-95 335.95,-87.5237 305.173,-80.9334 280.692,-76.1355"/>
<polygon fill="#9a32cd" stroke="#9a32cd" points="441.12,-124.305 451.713,-124.483 443.543,-117.738 441.12,-124.305"/>
<text text-anchor="middle" x="440.5" y="-98" font-family="Helvetica,sans-Serif" font-size="10.00"> m_responseValues</text>
</g>
<!-- Node4 -->
<g id="node4" class="node"><title>Node4</title>
<g id="a_node4"><a xlink:title="STL class. ">
<polygon fill="white" stroke="#bfbfbf" points="39,-191.5 39,-210.5 99,-210.5 99,-191.5 39,-191.5"/>
<text text-anchor="middle" x="69" y="-198.5" font-family="Helvetica,sans-Serif" font-size="10.00">std::string</text>
</a>
</g>
</g>
<!-- Node4&#45;&gt;Node1 -->
<g id="edge8" class="edge"><title>Node4&#45;&gt;Node1</title>
<path fill="none" stroke="#9a32cd" stroke-dasharray="5,2" d="M60.0119,-182.288C50.5619,-161.611 37.6227,-126.254 42,-95 45.9549,-66.7618 57.0444,-34.6967 62.6567,-19.6545"/>
<polygon fill="#9a32cd" stroke="#9a32cd" points="56.9152,-183.925 64.4025,-191.421 63.224,-180.892 56.9152,-183.925"/>
<text text-anchor="middle" x="68" y="-98" font-family="Helvetica,sans-Serif" font-size="10.00"> m_dataFile</text>
</g>
<!-- Node4&#45;&gt;Node2 -->
<g id="edge3" class="edge"><title>Node4&#45;&gt;Node2</title>
<path fill="none" stroke="#9a32cd" stroke-dasharray="5,2" d="M66.0766,-181.155C64.5633,-164.36 65.1982,-140.026 78,-124 105.246,-89.8926 154.808,-76.5288 191.18,-71.3094"/>
<polygon fill="#9a32cd" stroke="#9a32cd" points="62.6408,-181.89 67.3444,-191.383 69.5876,-181.029 62.6408,-181.89"/>
<text text-anchor="middle" x="121.5" y="-131.5" font-family="Helvetica,sans-Serif" font-size="10.00"> m_responseDetails</text>
</g>
<!-- Node7 -->
<g id="node7" class="node"><title>Node7</title>
<polygon fill="white" stroke="#bfbfbf" points="174.5,-124.5 174.5,-143.5 297.5,-143.5 297.5,-124.5 174.5,-124.5"/>
<text text-anchor="middle" x="236" y="-131.5" font-family="Helvetica,sans-Serif" font-size="10.00">std::vector&lt; std::string &gt;</text>
</g>
<!-- Node4&#45;&gt;Node7 -->
<g id="edge7" class="edge"><title>Node4&#45;&gt;Node7</title>
<path fill="none" stroke="#9a32cd" stroke-dasharray="5,2" d="M100.848,-187.604C134.006,-174.698 185.059,-154.827 213.998,-143.564"/>
<polygon fill="#9a32cd" stroke="#9a32cd" points="99.2258,-184.48 91.1763,-191.369 101.765,-191.003 99.2258,-184.48"/>
<text text-anchor="middle" x="184.5" y="-165" font-family="Helvetica,sans-Serif" font-size="10.00"> elements</text>
</g>
<!-- Node5 -->
<g id="node5" class="node"><title>Node5</title>
<g id="a_node5"><a xlink:title="STL class. ">
<polygon fill="white" stroke="#bfbfbf" points="21.5,-248.5 21.5,-278.5 116.5,-278.5 116.5,-248.5 21.5,-248.5"/>
<text text-anchor="start" x="29.5" y="-266.5" font-family="Helvetica,sans-Serif" font-size="10.00">std::basic_string&lt;</text>
<text text-anchor="middle" x="69" y="-255.5" font-family="Helvetica,sans-Serif" font-size="10.00"> char &gt;</text>
</a>
</g>
</g>
<!-- Node5&#45;&gt;Node4 -->
<g id="edge4" class="edge"><title>Node5&#45;&gt;Node4</title>
<path fill="none" stroke="midnightblue" d="M69,-238.352C69,-228.513 69,-217.775 69,-210.54"/>
<polygon fill="midnightblue" stroke="midnightblue" points="65.5001,-238.468 69,-248.468 72.5001,-238.468 65.5001,-238.468"/>
</g>
<!-- Node6 -->
<g id="node6" class="node"><title>Node6</title>
<g id="a_node6"><a xlink:href="classblfwk_1_1_progress.html" target="_top" xlink:title="Contains the callback function for progress and abort phase. ">
<polygon fill="white" stroke="black" points="315.5,-124.5 315.5,-143.5 398.5,-143.5 398.5,-124.5 315.5,-124.5"/>
<text text-anchor="middle" x="357" y="-131.5" font-family="Helvetica,sans-Serif" font-size="10.00">blfwk::Progress</text>
</a>
</g>
</g>
<!-- Node6&#45;&gt;Node2 -->
<g id="edge5" class="edge"><title>Node6&#45;&gt;Node2</title>
<path fill="none" stroke="#9a32cd" stroke-dasharray="5,2" d="M331.792,-119.459C307.804,-106.573 272.435,-87.5727 252.06,-76.6273"/>
<polygon fill="#9a32cd" stroke="#9a32cd" points="330.216,-122.585 340.681,-124.234 333.528,-116.418 330.216,-122.585"/>
<text text-anchor="middle" x="331.5" y="-98" font-family="Helvetica,sans-Serif" font-size="10.00"> m_progress</text>
</g>
<!-- Node7&#45;&gt;Node2 -->
<g id="edge6" class="edge"><title>Node7&#45;&gt;Node2</title>
<path fill="none" stroke="#9a32cd" stroke-dasharray="5,2" d="M236,-114.037C236,-101.67 236,-86.1198 236,-76.6273"/>
<polygon fill="#9a32cd" stroke="#9a32cd" points="232.5,-114.234 236,-124.234 239.5,-114.234 232.5,-114.234"/>
<text text-anchor="middle" x="253" y="-98" font-family="Helvetica,sans-Serif" font-size="10.00"> m_argv</text>
</g>
</g>
</svg>
