<?xml version="1.0" encoding="UTF-8" standalone="no"?>
<!DOCTYPE svg PUBLIC "-//W3C//DTD SVG 1.1//EN"
 "http://www.w3.org/Graphics/SVG/1.1/DTD/svg11.dtd">
<!-- Generated by graphviz version 2.38.0 (20140413.2041)
 -->
<!-- Title: elftosb::MemoryImageDataSource::FillSegment Pages: 1 -->
<svg width="839pt" height="272pt"
 viewBox="0.00 0.00 839.00 272.00" xmlns="http://www.w3.org/2000/svg" xmlns:xlink="http://www.w3.org/1999/xlink">
<g id="graph0" class="graph" transform="scale(1 1) rotate(0) translate(4 268)">
<title>elftosb::MemoryImageDataSource::FillSegment</title>
<polygon fill="white" stroke="none" points="-4,4 -4,-268 835,-268 835,4 -4,4"/>
<!-- Node1 -->
<g id="node1" class="node"><title>Node1</title>
<polygon fill="#bfbfbf" stroke="black" points="698,-110.5 698,-140.5 831,-140.5 831,-110.5 698,-110.5"/>
<text text-anchor="start" x="706" y="-128.5" font-family="Helvetica,sans-Serif" font-size="10.00">elftosb::MemoryImageData</text>
<text text-anchor="middle" x="764.5" y="-117.5" font-family="Helvetica,sans-Serif" font-size="10.00">Source::FillSegment</text>
</g>
<!-- Node2 -->
<g id="node2" class="node"><title>Node2</title>
<g id="a_node2"><a xlink:href="classelftosb_1_1_data_source_1_1_pattern_segment.html" target="_top" xlink:title="This is a special type of segment containing a repeating pattern. ">
<polygon fill="white" stroke="black" points="517,-137.5 517,-167.5 619,-167.5 619,-137.5 517,-137.5"/>
<text text-anchor="start" x="525" y="-155.5" font-family="Helvetica,sans-Serif" font-size="10.00">elftosb::DataSource</text>
<text text-anchor="middle" x="568" y="-144.5" font-family="Helvetica,sans-Serif" font-size="10.00">::PatternSegment</text>
</a>
</g>
</g>
<!-- Node2&#45;&gt;Node1 -->
<g id="edge1" class="edge"><title>Node2&#45;&gt;Node1</title>
<path fill="none" stroke="midnightblue" d="M629.183,-144.145C650.937,-141.126 675.599,-137.702 697.802,-134.62"/>
<polygon fill="midnightblue" stroke="midnightblue" points="628.512,-140.705 619.089,-145.547 629.475,-147.639 628.512,-140.705"/>
</g>
<!-- Node3 -->
<g id="node3" class="node"><title>Node3</title>
<g id="a_node3"><a xlink:href="classelftosb_1_1_data_source_1_1_segment.html" target="_top" xlink:title="Discrete, contiguous part of the source&#39;s data. ">
<polygon fill="white" stroke="black" points="317,-233.5 317,-263.5 419,-263.5 419,-233.5 317,-233.5"/>
<text text-anchor="start" x="325" y="-251.5" font-family="Helvetica,sans-Serif" font-size="10.00">elftosb::DataSource</text>
<text text-anchor="middle" x="368" y="-240.5" font-family="Helvetica,sans-Serif" font-size="10.00">::Segment</text>
</a>
</g>
</g>
<!-- Node3&#45;&gt;Node2 -->
<g id="edge2" class="edge"><title>Node3&#45;&gt;Node2</title>
<path fill="none" stroke="midnightblue" d="M411.247,-229.212C418.839,-225.685 426.668,-222.01 434,-218.5 469.688,-201.413 510.396,-181.088 537.273,-167.552"/>
<polygon fill="midnightblue" stroke="midnightblue" points="409.759,-226.044 402.152,-233.418 412.697,-232.397 409.759,-226.044"/>
</g>
<!-- Node4 -->
<g id="node4" class="node"><title>Node4</title>
<g id="a_node4"><a xlink:href="classelftosb_1_1_data_source.html" target="_top" xlink:title="Abstract base class for data sources. ">
<polygon fill="white" stroke="black" points="115.5,-210 115.5,-229 217.5,-229 217.5,-210 115.5,-210"/>
<text text-anchor="middle" x="166.5" y="-217" font-family="Helvetica,sans-Serif" font-size="10.00">elftosb::DataSource</text>
</a>
</g>
</g>
<!-- Node4&#45;&gt;Node3 -->
<g id="edge3" class="edge"><title>Node4&#45;&gt;Node3</title>
<path fill="none" stroke="#9a32cd" stroke-dasharray="5,2" d="M227.819,-228.268C256.285,-232.406 289.856,-237.286 316.895,-241.217"/>
<polygon fill="#9a32cd" stroke="#9a32cd" points="227.984,-224.755 217.585,-226.78 226.977,-231.683 227.984,-224.755"/>
<text text-anchor="middle" x="261" y="-238.5" font-family="Helvetica,sans-Serif" font-size="10.00"> m_source</text>
</g>
<!-- Node5 -->
<g id="node5" class="node"><title>Node5</title>
<g id="a_node5"><a xlink:href="classelftosb_1_1_data_target.html" target="_top" xlink:title="Abstract base class for the target address or range of data. ">
<polygon fill="white" stroke="black" points="319,-190 319,-209 417,-209 417,-190 319,-190"/>
<text text-anchor="middle" x="368" y="-197" font-family="Helvetica,sans-Serif" font-size="10.00">elftosb::DataTarget</text>
</a>
</g>
</g>
<!-- Node4&#45;&gt;Node5 -->
<g id="edge5" class="edge"><title>Node4&#45;&gt;Node5</title>
<path fill="none" stroke="#9a32cd" stroke-dasharray="5,2" d="M227.676,-213.467C256.9,-210.538 291.534,-207.066 318.959,-204.316"/>
<polygon fill="#9a32cd" stroke="#9a32cd" points="227.186,-209.999 217.585,-214.479 227.884,-216.964 227.186,-209.999"/>
<text text-anchor="middle" x="261" y="-214.5" font-family="Helvetica,sans-Serif" font-size="10.00"> m_source</text>
</g>
<!-- Node5&#45;&gt;Node4 -->
<g id="edge4" class="edge"><title>Node5&#45;&gt;Node4</title>
<path fill="none" stroke="#9a32cd" stroke-dasharray="5,2" d="M321.955,-187.999C296.988,-183.358 265.519,-180.378 238,-186.5 217.817,-190.99 196.577,-201.9 182.752,-209.953"/>
<polygon fill="#9a32cd" stroke="#9a32cd" points="321.383,-191.454 331.877,-189.992 322.762,-184.591 321.383,-191.454"/>
<text text-anchor="middle" x="261" y="-189.5" font-family="Helvetica,sans-Serif" font-size="10.00"> m_target</text>
</g>
<!-- Node6 -->
<g id="node6" class="node"><title>Node6</title>
<g id="a_node6"><a xlink:href="classelftosb_1_1_sized_integer_value.html" target="_top" xlink:title="Adds a word size attribute to IntegerValue. ">
<polygon fill="white" stroke="black" points="303,-143 303,-162 433,-162 433,-143 303,-143"/>
<text text-anchor="middle" x="368" y="-150" font-family="Helvetica,sans-Serif" font-size="10.00">elftosb::SizedIntegerValue</text>
</a>
</g>
</g>
<!-- Node6&#45;&gt;Node2 -->
<g id="edge6" class="edge"><title>Node6&#45;&gt;Node2</title>
<path fill="none" stroke="#9a32cd" stroke-dasharray="5,2" d="M443.022,-152.5C467.585,-152.5 494.343,-152.5 516.692,-152.5"/>
<polygon fill="#9a32cd" stroke="#9a32cd" points="443.012,-149 433.011,-152.5 443.011,-156 443.012,-149"/>
<text text-anchor="middle" x="475.5" y="-155.5" font-family="Helvetica,sans-Serif" font-size="10.00"> m_pattern</text>
</g>
<!-- Node7 -->
<g id="node7" class="node"><title>Node7</title>
<g id="a_node7"><a xlink:href="classelftosb_1_1_integer_value.html" target="_top" xlink:title="32&#45;bit signed integer value. ">
<polygon fill="white" stroke="black" points="114,-148 114,-167 219,-167 219,-148 114,-148"/>
<text text-anchor="middle" x="166.5" y="-155" font-family="Helvetica,sans-Serif" font-size="10.00">elftosb::IntegerValue</text>
</a>
</g>
</g>
<!-- Node7&#45;&gt;Node6 -->
<g id="edge7" class="edge"><title>Node7&#45;&gt;Node6</title>
<path fill="none" stroke="midnightblue" d="M229.258,-155.952C252.586,-155.368 279.173,-154.701 302.727,-154.111"/>
<polygon fill="midnightblue" stroke="midnightblue" points="229.045,-152.456 219.136,-156.206 229.22,-159.454 229.045,-152.456"/>
</g>
<!-- Node8 -->
<g id="node8" class="node"><title>Node8</title>
<g id="a_node8"><a xlink:href="classelftosb_1_1_value.html" target="_top" xlink:title="Abstract base class for values of arbitrary types. ">
<polygon fill="white" stroke="black" points="0,-148 0,-167 76,-167 76,-148 0,-148"/>
<text text-anchor="middle" x="38" y="-155" font-family="Helvetica,sans-Serif" font-size="10.00">elftosb::Value</text>
</a>
</g>
</g>
<!-- Node8&#45;&gt;Node7 -->
<g id="edge8" class="edge"><title>Node8&#45;&gt;Node7</title>
<path fill="none" stroke="midnightblue" d="M86.5317,-157.5C95.4888,-157.5 104.895,-157.5 113.968,-157.5"/>
<polygon fill="midnightblue" stroke="midnightblue" points="86.27,-154 76.27,-157.5 86.2699,-161 86.27,-154"/>
</g>
<!-- Node9 -->
<g id="node9" class="node"><title>Node9</title>
<g id="a_node9"><a xlink:href="class_st_executable_image.html" target="_top" xlink:title="Used to build a representation of memory regions. ">
<polygon fill="white" stroke="black" points="517.5,-69 517.5,-88 618.5,-88 618.5,-69 517.5,-69"/>
<text text-anchor="middle" x="568" y="-76" font-family="Helvetica,sans-Serif" font-size="10.00">StExecutableImage</text>
</a>
</g>
</g>
<!-- Node9&#45;&gt;Node1 -->
<g id="edge9" class="edge"><title>Node9&#45;&gt;Node1</title>
<path fill="none" stroke="#9a32cd" stroke-dasharray="5,2" d="M618.413,-90.4405C643.582,-96.5224 674.444,-103.98 701.223,-110.451"/>
<polygon fill="#9a32cd" stroke="#9a32cd" points="618.902,-86.958 608.36,-88.0112 617.258,-93.7622 618.902,-86.958"/>
<text text-anchor="middle" x="658.5" y="-108.5" font-family="Helvetica,sans-Serif" font-size="10.00"> m_image</text>
</g>
<!-- Node10 -->
<g id="node10" class="node"><title>Node10</title>
<polygon fill="white" stroke="#bfbfbf" points="305.5,-101 305.5,-120 430.5,-120 430.5,-101 305.5,-101"/>
<text text-anchor="middle" x="368" y="-108" font-family="Helvetica,sans-Serif" font-size="10.00">std::list&lt; AddressFilter &gt;</text>
</g>
<!-- Node10&#45;&gt;Node9 -->
<g id="edge10" class="edge"><title>Node10&#45;&gt;Node9</title>
<path fill="none" stroke="#9a32cd" stroke-dasharray="5,2" d="M437.744,-99.3899C463.95,-95.1545 493.286,-90.4134 517.378,-86.5198"/>
<polygon fill="#9a32cd" stroke="#9a32cd" points="437.184,-95.9349 427.87,-100.986 438.301,-102.845 437.184,-95.9349"/>
<text text-anchor="middle" x="475.5" y="-99.5" font-family="Helvetica,sans-Serif" font-size="10.00"> m_filters</text>
</g>
<!-- Node11 -->
<g id="node11" class="node"><title>Node11</title>
<g id="a_node11"><a xlink:href="struct_st_executable_image_1_1_address_filter.html" target="_top" xlink:title="StExecutableImage::\lAddressFilter">
<polygon fill="white" stroke="black" points="113,-98.5 113,-128.5 220,-128.5 220,-98.5 113,-98.5"/>
<text text-anchor="start" x="121" y="-116.5" font-family="Helvetica,sans-Serif" font-size="10.00">StExecutableImage::</text>
<text text-anchor="middle" x="166.5" y="-105.5" font-family="Helvetica,sans-Serif" font-size="10.00">AddressFilter</text>
</a>
</g>
</g>
<!-- Node11&#45;&gt;Node10 -->
<g id="edge11" class="edge"><title>Node11&#45;&gt;Node10</title>
<path fill="none" stroke="#9a32cd" stroke-dasharray="5,2" d="M230.203,-112.557C254.114,-112.198 281.336,-111.788 305.165,-111.43"/>
<polygon fill="#9a32cd" stroke="#9a32cd" points="230.123,-109.058 220.177,-112.708 230.229,-116.057 230.123,-109.058"/>
<text text-anchor="middle" x="261" y="-115.5" font-family="Helvetica,sans-Serif" font-size="10.00"> elements</text>
</g>
<!-- Node12 -->
<g id="node12" class="node"><title>Node12</title>
<polygon fill="white" stroke="#bfbfbf" points="302,-60 302,-79 434,-79 434,-60 302,-60"/>
<text text-anchor="middle" x="368" y="-67" font-family="Helvetica,sans-Serif" font-size="10.00">std::list&lt; MemoryRegion &gt;</text>
</g>
<!-- Node12&#45;&gt;Node9 -->
<g id="edge12" class="edge"><title>Node12&#45;&gt;Node9</title>
<path fill="none" stroke="#9a32cd" stroke-dasharray="5,2" d="M444.412,-72.9278C468.792,-74.036 495.197,-75.2362 517.236,-76.238"/>
<polygon fill="#9a32cd" stroke="#9a32cd" points="444.255,-69.4172 434.107,-72.4594 443.938,-76.41 444.255,-69.4172"/>
<text text-anchor="middle" x="475.5" y="-78.5" font-family="Helvetica,sans-Serif" font-size="10.00"> m_image</text>
</g>
<!-- Node13 -->
<g id="node13" class="node"><title>Node13</title>
<g id="a_node13"><a xlink:href="struct_st_executable_image_1_1_memory_region.html" target="_top" xlink:title="StExecutableImage::\lMemoryRegion">
<polygon fill="white" stroke="black" points="113,-49.5 113,-79.5 220,-79.5 220,-49.5 113,-49.5"/>
<text text-anchor="start" x="121" y="-67.5" font-family="Helvetica,sans-Serif" font-size="10.00">StExecutableImage::</text>
<text text-anchor="middle" x="166.5" y="-56.5" font-family="Helvetica,sans-Serif" font-size="10.00">MemoryRegion</text>
</a>
</g>
</g>
<!-- Node13&#45;&gt;Node12 -->
<g id="edge13" class="edge"><title>Node13&#45;&gt;Node12</title>
<path fill="none" stroke="#9a32cd" stroke-dasharray="5,2" d="M230.41,-66.0767C253.182,-66.6474 278.934,-67.2928 301.891,-67.8682"/>
<polygon fill="#9a32cd" stroke="#9a32cd" points="230.262,-62.572 220.177,-65.8202 230.086,-69.5698 230.262,-62.572"/>
<text text-anchor="middle" x="261" y="-70.5" font-family="Helvetica,sans-Serif" font-size="10.00"> elements</text>
</g>
<!-- Node14 -->
<g id="node14" class="node"><title>Node14</title>
<g id="a_node14"><a xlink:title="STL class. ">
<polygon fill="white" stroke="#bfbfbf" points="338,-14 338,-33 398,-33 398,-14 338,-14"/>
<text text-anchor="middle" x="368" y="-21" font-family="Helvetica,sans-Serif" font-size="10.00">std::string</text>
</a>
</g>
</g>
<!-- Node14&#45;&gt;Node9 -->
<g id="edge14" class="edge"><title>Node14&#45;&gt;Node9</title>
<path fill="none" stroke="#9a32cd" stroke-dasharray="5,2" d="M408.024,-33.7552C433.875,-40.6105 468.513,-49.9137 499,-58.5 510.845,-61.8359 523.812,-65.6174 535.217,-68.9873"/>
<polygon fill="#9a32cd" stroke="#9a32cd" points="408.787,-30.3367 398.224,-31.1621 406.996,-37.1038 408.787,-30.3367"/>
<text text-anchor="middle" x="475.5" y="-61.5" font-family="Helvetica,sans-Serif" font-size="10.00"> m_name</text>
</g>
<!-- Node15 -->
<g id="node15" class="node"><title>Node15</title>
<g id="a_node15"><a xlink:title="STL class. ">
<polygon fill="white" stroke="#bfbfbf" points="119,-0.5 119,-30.5 214,-30.5 214,-0.5 119,-0.5"/>
<text text-anchor="start" x="127" y="-18.5" font-family="Helvetica,sans-Serif" font-size="10.00">std::basic_string&lt;</text>
<text text-anchor="middle" x="166.5" y="-7.5" font-family="Helvetica,sans-Serif" font-size="10.00"> char &gt;</text>
</a>
</g>
</g>
<!-- Node15&#45;&gt;Node14 -->
<g id="edge15" class="edge"><title>Node15&#45;&gt;Node14</title>
<path fill="none" stroke="midnightblue" d="M224.182,-17.7729C261.202,-19.2575 308.017,-21.1348 337.746,-22.3269"/>
<polygon fill="midnightblue" stroke="midnightblue" points="224.154,-14.2691 214.022,-17.3655 223.874,-21.2635 224.154,-14.2691"/>
</g>
</g>
</svg>
