<?xml version="1.0" encoding="UTF-8" standalone="no"?>
<!DOCTYPE svg PUBLIC "-//W3C//DTD SVG 1.1//EN"
 "http://www.w3.org/Graphics/SVG/1.1/DTD/svg11.dtd">
<!-- Generated by graphviz version 2.38.0 (20140413.2041)
 -->
<!-- Title: elftosb::GlobMatcher Pages: 1 -->
<svg width="216pt" height="163pt"
 viewBox="0.00 0.00 215.50 163.00" xmlns="http://www.w3.org/2000/svg" xmlns:xlink="http://www.w3.org/1999/xlink">
<g id="graph0" class="graph" transform="scale(1 1) rotate(0) translate(4 159)">
<title>elftosb::GlobMatcher</title>
<polygon fill="white" stroke="none" points="-4,4 -4,-159 211.5,-159 211.5,4 -4,4"/>
<!-- Node1 -->
<g id="node1" class="node"><title>Node1</title>
<polygon fill="#bfbfbf" stroke="black" points="36.5,-0.5 36.5,-19.5 143.5,-19.5 143.5,-0.5 36.5,-0.5"/>
<text text-anchor="middle" x="90" y="-7.5" font-family="Helvetica,sans-Serif" font-size="10.00">elftosb::GlobMatcher</text>
</g>
<!-- Node2 -->
<g id="node2" class="node"><title>Node2</title>
<g id="a_node2"><a xlink:href="classelftosb_1_1_string_matcher.html" target="_top" xlink:title="Abstract interface class used to select strings by name. ">
<polygon fill="white" stroke="black" points="0,-67.5 0,-86.5 112,-86.5 112,-67.5 0,-67.5"/>
<text text-anchor="middle" x="56" y="-74.5" font-family="Helvetica,sans-Serif" font-size="10.00">elftosb::StringMatcher</text>
</a>
</g>
</g>
<!-- Node2&#45;&gt;Node1 -->
<g id="edge1" class="edge"><title>Node2&#45;&gt;Node1</title>
<path fill="none" stroke="midnightblue" d="M65.3299,-58.1635C71.8868,-45.6281 80.37,-29.4104 85.4873,-19.6273"/>
<polygon fill="midnightblue" stroke="midnightblue" points="62.1191,-56.7506 60.5854,-67.2338 68.3218,-59.9951 62.1191,-56.7506"/>
</g>
<!-- Node3 -->
<g id="node3" class="node"><title>Node3</title>
<g id="a_node3"><a xlink:title="STL class. ">
<polygon fill="white" stroke="#bfbfbf" points="130,-67.5 130,-86.5 190,-86.5 190,-67.5 130,-67.5"/>
<text text-anchor="middle" x="160" y="-74.5" font-family="Helvetica,sans-Serif" font-size="10.00">std::string</text>
</a>
</g>
</g>
<!-- Node3&#45;&gt;Node1 -->
<g id="edge2" class="edge"><title>Node3&#45;&gt;Node1</title>
<path fill="none" stroke="#9a32cd" stroke-dasharray="5,2" d="M143.153,-60.3564C129.391,-47.5777 110.452,-29.9915 99.2909,-19.6273"/>
<polygon fill="#9a32cd" stroke="#9a32cd" points="140.85,-62.9941 150.559,-67.2338 145.613,-57.8645 140.85,-62.9941"/>
<text text-anchor="middle" x="152.5" y="-41" font-family="Helvetica,sans-Serif" font-size="10.00"> m_pattern</text>
</g>
<!-- Node4 -->
<g id="node4" class="node"><title>Node4</title>
<g id="a_node4"><a xlink:title="STL class. ">
<polygon fill="white" stroke="#bfbfbf" points="112.5,-124.5 112.5,-154.5 207.5,-154.5 207.5,-124.5 112.5,-124.5"/>
<text text-anchor="start" x="120.5" y="-142.5" font-family="Helvetica,sans-Serif" font-size="10.00">std::basic_string&lt;</text>
<text text-anchor="middle" x="160" y="-131.5" font-family="Helvetica,sans-Serif" font-size="10.00"> char &gt;</text>
</a>
</g>
</g>
<!-- Node4&#45;&gt;Node3 -->
<g id="edge3" class="edge"><title>Node4&#45;&gt;Node3</title>
<path fill="none" stroke="midnightblue" d="M160,-114.352C160,-104.513 160,-93.7753 160,-86.5399"/>
<polygon fill="midnightblue" stroke="midnightblue" points="156.5,-114.468 160,-124.468 163.5,-114.468 156.5,-114.468"/>
</g>
</g>
</svg>
