<?xml version="1.0" encoding="UTF-8" standalone="no"?>
<!DOCTYPE svg PUBLIC "-//W3C//DTD SVG 1.1//EN"
 "http://www.w3.org/Graphics/SVG/1.1/DTD/svg11.dtd">
<!-- Generated by graphviz version 2.38.0 (20140413.2041)
 -->
<!-- Title: blfwk::BinarySourceFile Pages: 1 -->
<svg width="375pt" height="491pt"
 viewBox="0.00 0.00 375.00 491.00" xmlns="http://www.w3.org/2000/svg" xmlns:xlink="http://www.w3.org/1999/xlink">
<g id="graph0" class="graph" transform="scale(1 1) rotate(0) translate(4 487)">
<title>blfwk::BinarySourceFile</title>
<polygon fill="white" stroke="none" points="-4,4 -4,-487 371,-487 371,4 -4,4"/>
<!-- Node1 -->
<g id="node1" class="node"><title>Node1</title>
<polygon fill="#bfbfbf" stroke="black" points="101,-0.5 101,-19.5 220,-19.5 220,-0.5 101,-0.5"/>
<text text-anchor="middle" x="160.5" y="-7.5" font-family="Helvetica,sans-Serif" font-size="10.00">blfwk::BinarySourceFile</text>
</g>
<!-- Node2 -->
<g id="node2" class="node"><title>Node2</title>
<g id="a_node2"><a xlink:href="classblfwk_1_1_source_file.html" target="_top" xlink:title="Abstract base class for a source file containing executable code. ">
<polygon fill="white" stroke="black" points="115,-57.5 115,-76.5 206,-76.5 206,-57.5 115,-57.5"/>
<text text-anchor="middle" x="160.5" y="-64.5" font-family="Helvetica,sans-Serif" font-size="10.00">blfwk::SourceFile</text>
</a>
</g>
</g>
<!-- Node2&#45;&gt;Node1 -->
<g id="edge1" class="edge"><title>Node2&#45;&gt;Node1</title>
<path fill="none" stroke="midnightblue" d="M160.5,-47.1166C160.5,-37.8173 160.5,-27.0557 160.5,-19.7149"/>
<polygon fill="midnightblue" stroke="midnightblue" points="157,-47.4062 160.5,-57.4063 164,-47.4063 157,-47.4062"/>
</g>
<!-- Node3 -->
<g id="node3" class="node"><title>Node3</title>
<g id="a_node3"><a xlink:title="STL class. ">
<polygon fill="white" stroke="#bfbfbf" points="17.5,-130 17.5,-149 77.5,-149 77.5,-130 17.5,-130"/>
<text text-anchor="middle" x="47.5" y="-137" font-family="Helvetica,sans-Serif" font-size="10.00">std::string</text>
</a>
</g>
</g>
<!-- Node3&#45;&gt;Node2 -->
<g id="edge2" class="edge"><title>Node3&#45;&gt;Node2</title>
<path fill="none" stroke="#9a32cd" stroke-dasharray="5,2" d="M70.0454,-124.434C92.8573,-110.202 127.408,-88.6459 146.531,-76.7154"/>
<polygon fill="#9a32cd" stroke="#9a32cd" points="67.9876,-121.593 61.356,-129.855 71.6929,-127.532 67.9876,-121.593"/>
<text text-anchor="middle" x="132.5" y="-98" font-family="Helvetica,sans-Serif" font-size="10.00"> m_path</text>
</g>
<!-- Node4 -->
<g id="node4" class="node"><title>Node4</title>
<g id="a_node4"><a xlink:title="STL class. ">
<polygon fill="white" stroke="#bfbfbf" points="0,-202.5 0,-232.5 95,-232.5 95,-202.5 0,-202.5"/>
<text text-anchor="start" x="8" y="-220.5" font-family="Helvetica,sans-Serif" font-size="10.00">std::basic_string&lt;</text>
<text text-anchor="middle" x="47.5" y="-209.5" font-family="Helvetica,sans-Serif" font-size="10.00"> char &gt;</text>
</a>
</g>
</g>
<!-- Node4&#45;&gt;Node3 -->
<g id="edge3" class="edge"><title>Node4&#45;&gt;Node3</title>
<path fill="none" stroke="midnightblue" d="M47.5,-192.165C47.5,-177.396 47.5,-159.448 47.5,-149.064"/>
<polygon fill="midnightblue" stroke="midnightblue" points="44.0001,-192.205 47.5,-202.205 51.0001,-192.205 44.0001,-192.205"/>
</g>
<!-- Node5 -->
<g id="node5" class="node"><title>Node5</title>
<g id="a_node5"><a xlink:href="group__smart__pointer.html" target="_top" xlink:title="smart_ptr\&lt; std::ifstream \&gt;">
<polygon fill="white" stroke="black" points="95.5,-130 95.5,-149 225.5,-149 225.5,-130 95.5,-130"/>
<text text-anchor="middle" x="160.5" y="-137" font-family="Helvetica,sans-Serif" font-size="10.00">smart_ptr&lt; std::ifstream &gt;</text>
</a>
</g>
</g>
<!-- Node5&#45;&gt;Node2 -->
<g id="edge4" class="edge"><title>Node5&#45;&gt;Node2</title>
<path fill="none" stroke="#9a32cd" stroke-dasharray="5,2" d="M160.5,-119.442C160.5,-105.53 160.5,-87.3203 160.5,-76.7154"/>
<polygon fill="#9a32cd" stroke="#9a32cd" points="157,-119.855 160.5,-129.855 164,-119.855 157,-119.855"/>
<text text-anchor="middle" x="184" y="-98" font-family="Helvetica,sans-Serif" font-size="10.00"> m_stream</text>
</g>
<!-- Node6 -->
<g id="node6" class="node"><title>Node6</title>
<g id="a_node6"><a xlink:title="STL class. ">
<polygon fill="white" stroke="#bfbfbf" points="125,-208 125,-227 196,-227 196,-208 125,-208"/>
<text text-anchor="middle" x="160.5" y="-215" font-family="Helvetica,sans-Serif" font-size="10.00">std::ifstream</text>
</a>
</g>
</g>
<!-- Node6&#45;&gt;Node5 -->
<g id="edge5" class="edge"><title>Node6&#45;&gt;Node5</title>
<path fill="none" stroke="#9a32cd" stroke-dasharray="5,2" d="M160.5,-197.724C160.5,-182.197 160.5,-160.858 160.5,-149.116"/>
<polygon fill="#9a32cd" stroke="#9a32cd" points="157,-197.782 160.5,-207.782 164,-197.782 157,-197.782"/>
<text text-anchor="middle" x="167.5" y="-176" font-family="Helvetica,sans-Serif" font-size="10.00"> _p</text>
</g>
<!-- Node7 -->
<g id="node7" class="node"><title>Node7</title>
<g id="a_node7"><a xlink:title="STL class. ">
<polygon fill="white" stroke="#bfbfbf" points="111,-270.5 111,-300.5 210,-300.5 210,-270.5 111,-270.5"/>
<text text-anchor="start" x="119" y="-288.5" font-family="Helvetica,sans-Serif" font-size="10.00">std::basic_ifstream</text>
<text text-anchor="middle" x="160.5" y="-277.5" font-family="Helvetica,sans-Serif" font-size="10.00">&lt; char &gt;</text>
</a>
</g>
</g>
<!-- Node7&#45;&gt;Node6 -->
<g id="edge6" class="edge"><title>Node7&#45;&gt;Node6</title>
<path fill="none" stroke="midnightblue" d="M160.5,-259.876C160.5,-248.471 160.5,-235.636 160.5,-227.328"/>
<polygon fill="midnightblue" stroke="midnightblue" points="157,-260.179 160.5,-270.179 164,-260.179 157,-260.179"/>
</g>
<!-- Node8 -->
<g id="node8" class="node"><title>Node8</title>
<g id="a_node8"><a xlink:title="STL class. ">
<polygon fill="white" stroke="#bfbfbf" points="112,-338.5 112,-368.5 209,-368.5 209,-338.5 112,-338.5"/>
<text text-anchor="start" x="120" y="-356.5" font-family="Helvetica,sans-Serif" font-size="10.00">std::basic_istream</text>
<text text-anchor="middle" x="160.5" y="-345.5" font-family="Helvetica,sans-Serif" font-size="10.00">&lt; Char &gt;</text>
</a>
</g>
</g>
<!-- Node8&#45;&gt;Node7 -->
<g id="edge7" class="edge"><title>Node8&#45;&gt;Node7</title>
<path fill="none" stroke="midnightblue" d="M160.5,-328.032C160.5,-318.861 160.5,-308.745 160.5,-300.793"/>
<polygon fill="midnightblue" stroke="midnightblue" points="157,-328.179 160.5,-338.179 164,-328.179 157,-328.179"/>
</g>
<!-- Node9 -->
<g id="node9" class="node"><title>Node9</title>
<g id="a_node9"><a xlink:title="STL class. ">
<polygon fill="white" stroke="#bfbfbf" points="102.5,-406.5 102.5,-425.5 218.5,-425.5 218.5,-406.5 102.5,-406.5"/>
<text text-anchor="middle" x="160.5" y="-413.5" font-family="Helvetica,sans-Serif" font-size="10.00">std::basic_ios&lt; Char &gt;</text>
</a>
</g>
</g>
<!-- Node9&#45;&gt;Node8 -->
<g id="edge8" class="edge"><title>Node9&#45;&gt;Node8</title>
<path fill="none" stroke="midnightblue" d="M160.5,-396.215C160.5,-387.356 160.5,-376.958 160.5,-368.759"/>
<polygon fill="midnightblue" stroke="midnightblue" points="157,-396.332 160.5,-406.332 164,-396.332 157,-396.332"/>
</g>
<!-- Node10 -->
<g id="node10" class="node"><title>Node10</title>
<g id="a_node10"><a xlink:title="STL class. ">
<polygon fill="white" stroke="#bfbfbf" points="123,-463.5 123,-482.5 198,-482.5 198,-463.5 123,-463.5"/>
<text text-anchor="middle" x="160.5" y="-470.5" font-family="Helvetica,sans-Serif" font-size="10.00">std::ios_base</text>
</a>
</g>
</g>
<!-- Node10&#45;&gt;Node9 -->
<g id="edge9" class="edge"><title>Node10&#45;&gt;Node9</title>
<path fill="none" stroke="midnightblue" d="M160.5,-453.117C160.5,-443.817 160.5,-433.056 160.5,-425.715"/>
<polygon fill="midnightblue" stroke="midnightblue" points="157,-453.406 160.5,-463.406 164,-453.406 157,-453.406"/>
</g>
<!-- Node11 -->
<g id="node11" class="node"><title>Node11</title>
<g id="a_node11"><a xlink:href="group__smart__pointer.html" target="_top" xlink:title="smart_ptr\&lt; blfwk::Option\lContext \&gt;">
<polygon fill="white" stroke="black" points="244,-124.5 244,-154.5 367,-154.5 367,-124.5 244,-124.5"/>
<text text-anchor="start" x="252" y="-142.5" font-family="Helvetica,sans-Serif" font-size="10.00">smart_ptr&lt; blfwk::Option</text>
<text text-anchor="middle" x="305.5" y="-131.5" font-family="Helvetica,sans-Serif" font-size="10.00">Context &gt;</text>
</a>
</g>
</g>
<!-- Node11&#45;&gt;Node2 -->
<g id="edge10" class="edge"><title>Node11&#45;&gt;Node2</title>
<path fill="none" stroke="#9a32cd" stroke-dasharray="5,2" d="M267.485,-120.017C238.567,-105.957 200.106,-87.2566 178.051,-76.5336"/>
<polygon fill="#9a32cd" stroke="#9a32cd" points="265.982,-123.178 276.506,-124.403 269.043,-116.882 265.982,-123.178"/>
<text text-anchor="middle" x="262" y="-98" font-family="Helvetica,sans-Serif" font-size="10.00"> m_options</text>
</g>
<!-- Node12 -->
<g id="node12" class="node"><title>Node12</title>
<g id="a_node12"><a xlink:href="classblfwk_1_1_option_context.html" target="_top" xlink:title="Pure abstract interface class to a table of options. ">
<polygon fill="white" stroke="black" points="252,-208 252,-227 359,-227 359,-208 252,-208"/>
<text text-anchor="middle" x="305.5" y="-215" font-family="Helvetica,sans-Serif" font-size="10.00">blfwk::OptionContext</text>
</a>
</g>
</g>
<!-- Node12&#45;&gt;Node11 -->
<g id="edge11" class="edge"><title>Node12&#45;&gt;Node11</title>
<path fill="none" stroke="#9a32cd" stroke-dasharray="5,2" d="M305.5,-197.782C305.5,-184.404 305.5,-166.688 305.5,-154.52"/>
<polygon fill="#9a32cd" stroke="#9a32cd" points="302,-197.782 305.5,-207.782 309,-197.782 302,-197.782"/>
<text text-anchor="middle" x="312.5" y="-176" font-family="Helvetica,sans-Serif" font-size="10.00"> _p</text>
</g>
</g>
</svg>
