<?xml version="1.0" encoding="UTF-8" standalone="no"?>
<!DOCTYPE svg PUBLIC "-//W3C//DTD SVG 1.1//EN"
 "http://www.w3.org/Graphics/SVG/1.1/DTD/svg11.dtd">
<!-- Generated by graphviz version 2.38.0 (20140413.2041)
 -->
<!-- Title: elftosb::ElftosbLexer Pages: 1 -->
<svg width="1181pt" height="319pt"
 viewBox="0.00 0.00 1181.00 319.00" xmlns="http://www.w3.org/2000/svg" xmlns:xlink="http://www.w3.org/1999/xlink">
<g id="graph0" class="graph" transform="scale(1 1) rotate(0) translate(4 315)">
<title>elftosb::ElftosbLexer</title>
<polygon fill="white" stroke="none" points="-4,4 -4,-315 1177,-315 1177,4 -4,4"/>
<!-- Node1 -->
<g id="node1" class="node"><title>Node1</title>
<polygon fill="#bfbfbf" stroke="black" points="1068,-96.5 1068,-115.5 1173,-115.5 1173,-96.5 1068,-96.5"/>
<text text-anchor="middle" x="1120.5" y="-103.5" font-family="Helvetica,sans-Serif" font-size="10.00">elftosb::ElftosbLexer</text>
</g>
<!-- Node2 -->
<g id="node2" class="node"><title>Node2</title>
<g id="a_node2"><a xlink:href="classyy_flex_lexer.html" target="_top" xlink:title="yyFlexLexer">
<polygon fill="white" stroke="black" points="862.5,-229.5 862.5,-248.5 932.5,-248.5 932.5,-229.5 862.5,-229.5"/>
<text text-anchor="middle" x="897.5" y="-236.5" font-family="Helvetica,sans-Serif" font-size="10.00">yyFlexLexer</text>
</a>
</g>
</g>
<!-- Node2&#45;&gt;Node1 -->
<g id="edge1" class="edge"><title>Node2&#45;&gt;Node1</title>
<path fill="none" stroke="midnightblue" d="M935.895,-225.802C967.649,-213.718 1013.71,-194.078 1050,-170 1074.33,-153.858 1098.43,-129.222 1110.85,-115.708"/>
<polygon fill="midnightblue" stroke="midnightblue" points="934.26,-222.676 926.118,-229.455 936.711,-229.233 934.26,-222.676"/>
</g>
<!-- Node3 -->
<g id="node3" class="node"><title>Node3</title>
<g id="a_node3"><a xlink:href="class_flex_lexer.html" target="_top" xlink:title="FlexLexer">
<polygon fill="white" stroke="black" points="633.5,-291.5 633.5,-310.5 692.5,-310.5 692.5,-291.5 633.5,-291.5"/>
<text text-anchor="middle" x="663" y="-298.5" font-family="Helvetica,sans-Serif" font-size="10.00">FlexLexer</text>
</a>
</g>
</g>
<!-- Node3&#45;&gt;Node2 -->
<g id="edge2" class="edge"><title>Node3&#45;&gt;Node2</title>
<path fill="none" stroke="midnightblue" d="M702.81,-294.712C734.207,-289.202 779.387,-280.311 818,-269 837.322,-263.34 858.624,-255.065 874.156,-248.638"/>
<polygon fill="midnightblue" stroke="midnightblue" points="701.981,-291.303 692.72,-296.45 703.169,-298.202 701.981,-291.303"/>
</g>
<!-- Node4 -->
<g id="node4" class="node"><title>Node4</title>
<g id="a_node4"><a xlink:href="classostream.html" target="_top" xlink:title="ostream">
<polygon fill="white" stroke="black" points="637,-253.5 637,-272.5 689,-272.5 689,-253.5 637,-253.5"/>
<text text-anchor="middle" x="663" y="-260.5" font-family="Helvetica,sans-Serif" font-size="10.00">ostream</text>
</a>
</g>
</g>
<!-- Node4&#45;&gt;Node2 -->
<g id="edge3" class="edge"><title>Node4&#45;&gt;Node2</title>
<path fill="none" stroke="#9a32cd" stroke-dasharray="5,2" d="M699.313,-259.355C743.459,-254.798 818.518,-247.05 862.19,-242.542"/>
<polygon fill="#9a32cd" stroke="#9a32cd" points="698.912,-255.878 689.324,-260.386 699.631,-262.841 698.912,-255.878"/>
<text text-anchor="middle" x="782" y="-257" font-family="Helvetica,sans-Serif" font-size="10.00"> yyout</text>
</g>
<!-- Node5 -->
<g id="node5" class="node"><title>Node5</title>
<g id="a_node5"><a xlink:href="structyy__buffer__state.html" target="_top" xlink:title="YY_BUFFER_STATE">
<polygon fill="white" stroke="black" points="608,-215.5 608,-234.5 718,-234.5 718,-215.5 608,-215.5"/>
<text text-anchor="middle" x="663" y="-222.5" font-family="Helvetica,sans-Serif" font-size="10.00">YY_BUFFER_STATE</text>
</a>
</g>
</g>
<!-- Node5&#45;&gt;Node2 -->
<g id="edge4" class="edge"><title>Node5&#45;&gt;Node2</title>
<path fill="none" stroke="#9a32cd" stroke-dasharray="5,2" d="M728.535,-225.922C756.122,-226.62 788.666,-227.846 818,-230 832.502,-231.065 848.453,-232.791 862.167,-234.448"/>
<polygon fill="#9a32cd" stroke="#9a32cd" points="728.302,-222.416 718.222,-225.68 728.137,-229.414 728.302,-222.416"/>
<text text-anchor="middle" x="782" y="-233" font-family="Helvetica,sans-Serif" font-size="10.00"> yy_buffer_stack</text>
</g>
<!-- Node6 -->
<g id="node6" class="node"><title>Node6</title>
<g id="a_node6"><a xlink:title="STL class. ">
<polygon fill="white" stroke="#bfbfbf" points="417.5,-215.5 417.5,-234.5 485.5,-234.5 485.5,-215.5 417.5,-215.5"/>
<text text-anchor="middle" x="451.5" y="-222.5" font-family="Helvetica,sans-Serif" font-size="10.00">std::istream</text>
</a>
</g>
</g>
<!-- Node6&#45;&gt;Node5 -->
<g id="edge5" class="edge"><title>Node6&#45;&gt;Node5</title>
<path fill="none" stroke="#9a32cd" stroke-dasharray="5,2" d="M495.78,-225C528.243,-225 572.896,-225 607.746,-225"/>
<polygon fill="#9a32cd" stroke="#9a32cd" points="495.696,-221.5 485.696,-225 495.696,-228.5 495.696,-221.5"/>
<text text-anchor="middle" x="551" y="-228" font-family="Helvetica,sans-Serif" font-size="10.00"> yy_input_file</text>
</g>
<!-- Node7 -->
<g id="node7" class="node"><title>Node7</title>
<g id="a_node7"><a xlink:title="STL class. ">
<polygon fill="white" stroke="#bfbfbf" points="265,-210 265,-240 362,-240 362,-210 265,-210"/>
<text text-anchor="start" x="273" y="-228" font-family="Helvetica,sans-Serif" font-size="10.00">std::basic_istream</text>
<text text-anchor="middle" x="313.5" y="-217" font-family="Helvetica,sans-Serif" font-size="10.00">&lt; char &gt;</text>
</a>
</g>
</g>
<!-- Node7&#45;&gt;Node6 -->
<g id="edge6" class="edge"><title>Node7&#45;&gt;Node6</title>
<path fill="none" stroke="midnightblue" d="M372.068,-225C387.502,-225 403.671,-225 417.29,-225"/>
<polygon fill="midnightblue" stroke="midnightblue" points="372.066,-221.5 362.066,-225 372.066,-228.5 372.066,-221.5"/>
</g>
<!-- Node8 -->
<g id="node8" class="node"><title>Node8</title>
<g id="a_node8"><a xlink:title="STL class. ">
<polygon fill="white" stroke="#bfbfbf" points="112,-215.5 112,-234.5 228,-234.5 228,-215.5 112,-215.5"/>
<text text-anchor="middle" x="170" y="-222.5" font-family="Helvetica,sans-Serif" font-size="10.00">std::basic_ios&lt; Char &gt;</text>
</a>
</g>
</g>
<!-- Node8&#45;&gt;Node7 -->
<g id="edge7" class="edge"><title>Node8&#45;&gt;Node7</title>
<path fill="none" stroke="midnightblue" d="M238.18,-225C247.124,-225 256.144,-225 264.667,-225"/>
<polygon fill="midnightblue" stroke="midnightblue" points="238.146,-221.5 228.146,-225 238.146,-228.5 238.146,-221.5"/>
</g>
<!-- Node9 -->
<g id="node9" class="node"><title>Node9</title>
<g id="a_node9"><a xlink:title="STL class. ">
<polygon fill="white" stroke="#bfbfbf" points="0,-215.5 0,-234.5 75,-234.5 75,-215.5 0,-215.5"/>
<text text-anchor="middle" x="37.5" y="-222.5" font-family="Helvetica,sans-Serif" font-size="10.00">std::ios_base</text>
</a>
</g>
</g>
<!-- Node9&#45;&gt;Node8 -->
<g id="edge8" class="edge"><title>Node9&#45;&gt;Node8</title>
<path fill="none" stroke="midnightblue" d="M85.3188,-225C93.8367,-225 102.811,-225 111.593,-225"/>
<polygon fill="midnightblue" stroke="midnightblue" points="85.1988,-221.5 75.1988,-225 85.1988,-228.5 85.1988,-221.5"/>
</g>
<!-- Node10 -->
<g id="node10" class="node"><title>Node10</title>
<g id="a_node10"><a xlink:href="union_y_y_s_t_y_p_e.html" target="_top" xlink:title="YYSTYPE">
<polygon fill="white" stroke="black" points="866.5,-96.5 866.5,-115.5 928.5,-115.5 928.5,-96.5 866.5,-96.5"/>
<text text-anchor="middle" x="897.5" y="-103.5" font-family="Helvetica,sans-Serif" font-size="10.00">YYSTYPE</text>
</a>
</g>
</g>
<!-- Node10&#45;&gt;Node1 -->
<g id="edge9" class="edge"><title>Node10&#45;&gt;Node1</title>
<path fill="none" stroke="#9a32cd" stroke-dasharray="5,2" d="M938.946,-106C975.103,-106 1028.29,-106 1067.58,-106"/>
<polygon fill="#9a32cd" stroke="#9a32cd" points="938.766,-102.5 928.766,-106 938.766,-109.5 938.766,-102.5"/>
<text text-anchor="middle" x="1013.5" y="-109" font-family="Helvetica,sans-Serif" font-size="10.00"> m_symbolValue</text>
</g>
<!-- Node11 -->
<g id="node11" class="node"><title>Node11</title>
<g id="a_node11"><a xlink:href="classelftosb_1_1_sized_integer_value.html" target="_top" xlink:title="Adds a word size attribute to IntegerValue. ">
<polygon fill="white" stroke="black" points="598,-160.5 598,-179.5 728,-179.5 728,-160.5 598,-160.5"/>
<text text-anchor="middle" x="663" y="-167.5" font-family="Helvetica,sans-Serif" font-size="10.00">elftosb::SizedIntegerValue</text>
</a>
</g>
</g>
<!-- Node11&#45;&gt;Node10 -->
<g id="edge10" class="edge"><title>Node11&#45;&gt;Node10</title>
<path fill="none" stroke="#9a32cd" stroke-dasharray="5,2" d="M729.048,-158.535C756.732,-153.02 789.212,-145.704 818,-137 837.776,-131.021 859.581,-122.224 875.181,-115.527"/>
<polygon fill="#9a32cd" stroke="#9a32cd" points="728.224,-155.13 719.082,-160.484 729.567,-161.999 728.224,-155.13"/>
<text text-anchor="middle" x="782" y="-158" font-family="Helvetica,sans-Serif" font-size="10.00"> m_int</text>
</g>
<!-- Node12 -->
<g id="node12" class="node"><title>Node12</title>
<g id="a_node12"><a xlink:href="classelftosb_1_1_integer_value.html" target="_top" xlink:title="32&#45;bit signed integer value. ">
<polygon fill="white" stroke="black" points="399,-162.5 399,-181.5 504,-181.5 504,-162.5 399,-162.5"/>
<text text-anchor="middle" x="451.5" y="-169.5" font-family="Helvetica,sans-Serif" font-size="10.00">elftosb::IntegerValue</text>
</a>
</g>
</g>
<!-- Node12&#45;&gt;Node11 -->
<g id="edge11" class="edge"><title>Node12&#45;&gt;Node11</title>
<path fill="none" stroke="midnightblue" d="M514.257,-171.41C540.6,-171.159 571.333,-170.866 597.926,-170.612"/>
<polygon fill="midnightblue" stroke="midnightblue" points="513.984,-167.913 504.018,-171.508 514.051,-174.912 513.984,-167.913"/>
</g>
<!-- Node13 -->
<g id="node13" class="node"><title>Node13</title>
<g id="a_node13"><a xlink:href="classelftosb_1_1_value.html" target="_top" xlink:title="Abstract base class for values of arbitrary types. ">
<polygon fill="white" stroke="black" points="275.5,-162.5 275.5,-181.5 351.5,-181.5 351.5,-162.5 275.5,-162.5"/>
<text text-anchor="middle" x="313.5" y="-169.5" font-family="Helvetica,sans-Serif" font-size="10.00">elftosb::Value</text>
</a>
</g>
</g>
<!-- Node13&#45;&gt;Node12 -->
<g id="edge12" class="edge"><title>Node13&#45;&gt;Node12</title>
<path fill="none" stroke="midnightblue" d="M361.878,-172C373.824,-172 386.709,-172 398.854,-172"/>
<polygon fill="midnightblue" stroke="midnightblue" points="361.663,-168.5 351.663,-172 361.663,-175.5 361.663,-168.5"/>
</g>
<!-- Node14 -->
<g id="node14" class="node"><title>Node14</title>
<g id="a_node14"><a xlink:title="STL class. ">
<polygon fill="white" stroke="#bfbfbf" points="633,-121.5 633,-140.5 693,-140.5 693,-121.5 633,-121.5"/>
<text text-anchor="middle" x="663" y="-128.5" font-family="Helvetica,sans-Serif" font-size="10.00">std::string</text>
</a>
</g>
</g>
<!-- Node14&#45;&gt;Node10 -->
<g id="edge13" class="edge"><title>Node14&#45;&gt;Node10</title>
<path fill="none" stroke="#9a32cd" stroke-dasharray="5,2" d="M703.647,-126.737C749.672,-121.788 824.571,-113.734 866.189,-109.259"/>
<polygon fill="#9a32cd" stroke="#9a32cd" points="703.015,-123.285 693.446,-127.834 703.763,-130.244 703.015,-123.285"/>
<text text-anchor="middle" x="782" y="-125" font-family="Helvetica,sans-Serif" font-size="10.00"> m_str</text>
</g>
<!-- Node19 -->
<g id="node19" class="node"><title>Node19</title>
<polygon fill="white" stroke="#bfbfbf" points="836,-175.5 836,-194.5 959,-194.5 959,-175.5 836,-175.5"/>
<text text-anchor="middle" x="897.5" y="-182.5" font-family="Helvetica,sans-Serif" font-size="10.00">std::vector&lt; std::string &gt;</text>
</g>
<!-- Node14&#45;&gt;Node19 -->
<g id="edge22" class="edge"><title>Node14&#45;&gt;Node19</title>
<path fill="none" stroke="#9a32cd" stroke-dasharray="5,2" d="M702.969,-139.22C711.653,-142.102 720.5,-145.935 728,-151 738.47,-158.07 734.808,-167.14 746,-173 773.285,-187.285 807.229,-190.985 835.97,-190.807"/>
<polygon fill="#9a32cd" stroke="#9a32cd" points="703.896,-135.844 693.314,-136.354 701.905,-142.555 703.896,-135.844"/>
<text text-anchor="middle" x="782" y="-194" font-family="Helvetica,sans-Serif" font-size="10.00"> elements</text>
</g>
<!-- Node15 -->
<g id="node15" class="node"><title>Node15</title>
<g id="a_node15"><a xlink:title="STL class. ">
<polygon fill="white" stroke="#bfbfbf" points="404,-113 404,-143 499,-143 499,-113 404,-113"/>
<text text-anchor="start" x="412" y="-131" font-family="Helvetica,sans-Serif" font-size="10.00">std::basic_string&lt;</text>
<text text-anchor="middle" x="451.5" y="-120" font-family="Helvetica,sans-Serif" font-size="10.00"> char &gt;</text>
</a>
</g>
</g>
<!-- Node15&#45;&gt;Node14 -->
<g id="edge14" class="edge"><title>Node15&#45;&gt;Node14</title>
<path fill="none" stroke="midnightblue" d="M509.386,-128.815C549.29,-129.386 600.998,-130.126 632.817,-130.582"/>
<polygon fill="midnightblue" stroke="midnightblue" points="509.304,-125.313 499.255,-128.67 509.204,-132.312 509.304,-125.313"/>
</g>
<!-- Node16 -->
<g id="node16" class="node"><title>Node16</title>
<g id="a_node16"><a xlink:href="class_blob.html" target="_top" xlink:title="Manages a binary object of arbitrary length. ">
<polygon fill="white" stroke="black" points="645,-16.5 645,-35.5 681,-35.5 681,-16.5 645,-16.5"/>
<text text-anchor="middle" x="663" y="-23.5" font-family="Helvetica,sans-Serif" font-size="10.00">Blob</text>
</a>
</g>
</g>
<!-- Node16&#45;&gt;Node1 -->
<g id="edge20" class="edge"><title>Node16&#45;&gt;Node1</title>
<path fill="none" stroke="#9a32cd" stroke-dasharray="5,2" d="M691.168,-27.6955C722.03,-29.8416 773.839,-34.1125 818,-41 914.026,-55.9766 1025.44,-82.3897 1082.16,-96.4945"/>
<polygon fill="#9a32cd" stroke="#9a32cd" points="691.385,-24.2022 681.173,-27.0242 690.916,-31.1865 691.385,-24.2022"/>
<text text-anchor="middle" x="897.5" y="-71" font-family="Helvetica,sans-Serif" font-size="10.00"> m_blob</text>
</g>
<!-- Node16&#45;&gt;Node10 -->
<g id="edge15" class="edge"><title>Node16&#45;&gt;Node10</title>
<path fill="none" stroke="#9a32cd" stroke-dasharray="5,2" d="M691.104,-31.1759C722.302,-37.5578 774.799,-49.6059 818,-66 840.309,-74.4659 864.579,-87.4675 880.136,-96.3332"/>
<polygon fill="#9a32cd" stroke="#9a32cd" points="691.499,-27.6857 681.007,-29.157 690.126,-34.5498 691.499,-27.6857"/>
<text text-anchor="middle" x="782" y="-69" font-family="Helvetica,sans-Serif" font-size="10.00"> m_blob</text>
</g>
<!-- Node17 -->
<g id="node17" class="node"><title>Node17</title>
<g id="a_node17"><a xlink:href="classelftosb_1_1_a_s_t_node.html" target="_top" xlink:title="The base class for all AST node classes. ">
<polygon fill="white" stroke="black" points="617,-54.5 617,-73.5 709,-73.5 709,-54.5 617,-54.5"/>
<text text-anchor="middle" x="663" y="-61.5" font-family="Helvetica,sans-Serif" font-size="10.00">elftosb::ASTNode</text>
</a>
</g>
</g>
<!-- Node17&#45;&gt;Node10 -->
<g id="edge16" class="edge"><title>Node17&#45;&gt;Node10</title>
<path fill="none" stroke="#9a32cd" stroke-dasharray="5,2" d="M719.226,-73.9762C765.269,-82.2937 829.138,-93.8313 866.314,-100.547"/>
<polygon fill="#9a32cd" stroke="#9a32cd" points="719.567,-70.4813 709.104,-72.1478 718.323,-77.3698 719.567,-70.4813"/>
<text text-anchor="middle" x="782" y="-95" font-family="Helvetica,sans-Serif" font-size="10.00"> m_ast</text>
</g>
<!-- Node17&#45;&gt;Node17 -->
<g id="edge18" class="edge"><title>Node17&#45;&gt;Node17</title>
<path fill="none" stroke="#9a32cd" stroke-dasharray="5,2" d="M642.26,-83.4C643.645,-88.3146 650.559,-92 663,-92 682.906,-92 688.66,-82.5653 680.262,-73.7571"/>
<polygon fill="#9a32cd" stroke="#9a32cd" points="645.638,-84.3514 645.738,-73.7571 639.053,-81.9768 645.638,-84.3514"/>
<text text-anchor="middle" x="663" y="-95" font-family="Helvetica,sans-Serif" font-size="10.00"> m_parent</text>
</g>
<!-- Node18 -->
<g id="node18" class="node"><title>Node18</title>
<g id="a_node18"><a xlink:href="structelftosb_1_1token__loc__t.html" target="_top" xlink:title="Token location in the source file. ">
<polygon fill="white" stroke="black" points="401,-0.5 401,-19.5 502,-19.5 502,-0.5 401,-0.5"/>
<text text-anchor="middle" x="451.5" y="-7.5" font-family="Helvetica,sans-Serif" font-size="10.00">elftosb::token_loc_t</text>
</a>
</g>
</g>
<!-- Node18&#45;&gt;Node1 -->
<g id="edge19" class="edge"><title>Node18&#45;&gt;Node1</title>
<path fill="none" stroke="#9a32cd" stroke-dasharray="5,2" d="M512.502,-8.48489C538.746,-7.89403 569.897,-7.28969 598,-7 759.105,-5.3393 802.19,-3.01202 959,-40 1000.31,-49.7452 1010.88,-52.5144 1050,-69 1069.02,-77.0161 1089.78,-88.4486 1103.61,-96.4783"/>
<polygon fill="#9a32cd" stroke="#9a32cd" points="512.245,-4.98976 502.328,-8.7187 512.406,-11.9879 512.245,-4.98976"/>
<text text-anchor="middle" x="782" y="-16" font-family="Helvetica,sans-Serif" font-size="10.00"> m_location</text>
</g>
<!-- Node18&#45;&gt;Node17 -->
<g id="edge17" class="edge"><title>Node18&#45;&gt;Node17</title>
<path fill="none" stroke="#9a32cd" stroke-dasharray="5,2" d="M499.269,-22.055C537.224,-31.8382 590.007,-45.4432 625.046,-54.4748"/>
<polygon fill="#9a32cd" stroke="#9a32cd" points="500.029,-18.6366 489.472,-19.5298 498.282,-25.4151 500.029,-18.6366"/>
<text text-anchor="middle" x="551" y="-45" font-family="Helvetica,sans-Serif" font-size="10.00"> m_location</text>
</g>
<!-- Node19&#45;&gt;Node1 -->
<g id="edge21" class="edge"><title>Node19&#45;&gt;Node1</title>
<path fill="none" stroke="#9a32cd" stroke-dasharray="5,2" d="M934.685,-172.065C979.049,-156.206 1053.2,-129.699 1092.75,-115.563"/>
<polygon fill="#9a32cd" stroke="#9a32cd" points="933.396,-168.809 925.158,-175.471 935.752,-175.4 933.396,-168.809"/>
<text text-anchor="middle" x="1013.5" y="-158" font-family="Helvetica,sans-Serif" font-size="10.00"> m_sources</text>
</g>
</g>
</svg>
