<?xml version="1.0" encoding="UTF-8" standalone="no"?>
<!DOCTYPE svg PUBLIC "-//W3C//DTD SVG 1.1//EN"
 "http://www.w3.org/Graphics/SVG/1.1/DTD/svg11.dtd">
<!-- Generated by graphviz version 2.38.0 (20140413.2041)
 -->
<!-- Title: elftosb::ConstASTNode Pages: 1 -->
<svg width="175pt" height="152pt"
 viewBox="0.00 0.00 175.00 152.00" xmlns="http://www.w3.org/2000/svg" xmlns:xlink="http://www.w3.org/1999/xlink">
<g id="graph0" class="graph" transform="scale(1 1) rotate(0) translate(4 148)">
<title>elftosb::ConstASTNode</title>
<polygon fill="white" stroke="none" points="-4,4 -4,-148 171,-148 171,4 -4,4"/>
<!-- Node1 -->
<g id="node1" class="node"><title>Node1</title>
<polygon fill="#bfbfbf" stroke="black" points="0,-0.5 0,-19.5 118,-19.5 118,-0.5 0,-0.5"/>
<text text-anchor="middle" x="59" y="-7.5" font-family="Helvetica,sans-Serif" font-size="10.00">elftosb::ConstASTNode</text>
</g>
<!-- Node2 -->
<g id="node2" class="node"><title>Node2</title>
<g id="a_node2"><a xlink:href="classelftosb_1_1_a_s_t_node.html" target="_top" xlink:title="The base class for all AST node classes. ">
<polygon fill="white" stroke="black" points="13,-57.5 13,-76.5 105,-76.5 105,-57.5 13,-57.5"/>
<text text-anchor="middle" x="59" y="-64.5" font-family="Helvetica,sans-Serif" font-size="10.00">elftosb::ASTNode</text>
</a>
</g>
</g>
<!-- Node2&#45;&gt;Node1 -->
<g id="edge1" class="edge"><title>Node2&#45;&gt;Node1</title>
<path fill="none" stroke="midnightblue" d="M59,-47.1166C59,-37.8173 59,-27.0557 59,-19.7149"/>
<polygon fill="midnightblue" stroke="midnightblue" points="55.5001,-47.4062 59,-57.4063 62.5001,-47.4063 55.5001,-47.4062"/>
</g>
<!-- Node2&#45;&gt;Node2 -->
<g id="edge3" class="edge"><title>Node2&#45;&gt;Node2</title>
<path fill="none" stroke="#9a32cd" stroke-dasharray="5,2" d="M115.274,-71.0771C120.034,-70.2047 123,-68.8457 123,-67 123,-64.0469 115.406,-62.3396 105.024,-61.8782"/>
<polygon fill="#9a32cd" stroke="#9a32cd" points="114.618,-67.6258 105.024,-72.1218 115.328,-74.5897 114.618,-67.6258"/>
<text text-anchor="middle" x="145" y="-64.5" font-family="Helvetica,sans-Serif" font-size="10.00"> m_parent</text>
</g>
<!-- Node3 -->
<g id="node3" class="node"><title>Node3</title>
<g id="a_node3"><a xlink:href="structelftosb_1_1token__loc__t.html" target="_top" xlink:title="Token location in the source file. ">
<polygon fill="white" stroke="black" points="8.5,-124.5 8.5,-143.5 109.5,-143.5 109.5,-124.5 8.5,-124.5"/>
<text text-anchor="middle" x="59" y="-131.5" font-family="Helvetica,sans-Serif" font-size="10.00">elftosb::token_loc_t</text>
</a>
</g>
</g>
<!-- Node3&#45;&gt;Node2 -->
<g id="edge2" class="edge"><title>Node3&#45;&gt;Node2</title>
<path fill="none" stroke="#9a32cd" stroke-dasharray="5,2" d="M59,-114.037C59,-101.67 59,-86.1198 59,-76.6273"/>
<polygon fill="#9a32cd" stroke="#9a32cd" points="55.5001,-114.234 59,-124.234 62.5001,-114.234 55.5001,-114.234"/>
<text text-anchor="middle" x="84.5" y="-98" font-family="Helvetica,sans-Serif" font-size="10.00"> m_location</text>
</g>
</g>
</svg>
