<?xml version="1.0" encoding="UTF-8" standalone="no"?>
<!DOCTYPE svg PUBLIC "-//W3C//DTD SVG 1.1//EN"
 "http://www.w3.org/Graphics/SVG/1.1/DTD/svg11.dtd">
<!-- Generated by graphviz version 2.38.0 (20140413.2041)
 -->
<!-- Title: blfwk::DataPacket::FileDataProducer Pages: 1 -->
<svg width="205pt" height="185pt"
 viewBox="0.00 0.00 205.00 185.00" xmlns="http://www.w3.org/2000/svg" xmlns:xlink="http://www.w3.org/1999/xlink">
<g id="graph0" class="graph" transform="scale(1 1) rotate(0) translate(4 181)">
<title>blfwk::DataPacket::FileDataProducer</title>
<polygon fill="white" stroke="none" points="-4,4 -4,-181 201,-181 201,4 -4,4"/>
<!-- Node1 -->
<g id="node1" class="node"><title>Node1</title>
<polygon fill="#bfbfbf" stroke="black" points="33,-0.5 33,-30.5 134,-30.5 134,-0.5 33,-0.5"/>
<text text-anchor="start" x="41" y="-18.5" font-family="Helvetica,sans-Serif" font-size="10.00">blfwk::DataPacket::</text>
<text text-anchor="middle" x="83.5" y="-7.5" font-family="Helvetica,sans-Serif" font-size="10.00">FileDataProducer</text>
</g>
<!-- Node2 -->
<g id="node2" class="node"><title>Node2</title>
<g id="a_node2"><a xlink:href="classblfwk_1_1_data_packet_1_1_data_producer.html" target="_top" xlink:title="Abstract class to provide data for data phase. ">
<polygon fill="white" stroke="black" points="0,-78.5 0,-108.5 101,-108.5 101,-78.5 0,-78.5"/>
<text text-anchor="start" x="8" y="-96.5" font-family="Helvetica,sans-Serif" font-size="10.00">blfwk::DataPacket::</text>
<text text-anchor="middle" x="50.5" y="-85.5" font-family="Helvetica,sans-Serif" font-size="10.00">DataProducer</text>
</a>
</g>
</g>
<!-- Node2&#45;&gt;Node1 -->
<g id="edge1" class="edge"><title>Node2&#45;&gt;Node1</title>
<path fill="none" stroke="midnightblue" d="M60.7758,-68.8345C66.1987,-56.3454 72.6727,-41.4356 77.3208,-30.7309"/>
<polygon fill="midnightblue" stroke="midnightblue" points="57.4795,-67.6383 56.707,-78.205 63.9004,-70.4264 57.4795,-67.6383"/>
</g>
<!-- Node3 -->
<g id="node3" class="node"><title>Node3</title>
<g id="a_node3"><a xlink:title="STL class. ">
<polygon fill="white" stroke="#bfbfbf" points="119.5,-84 119.5,-103 179.5,-103 179.5,-84 119.5,-84"/>
<text text-anchor="middle" x="149.5" y="-91" font-family="Helvetica,sans-Serif" font-size="10.00">std::string</text>
</a>
</g>
</g>
<!-- Node3&#45;&gt;Node1 -->
<g id="edge2" class="edge"><title>Node3&#45;&gt;Node1</title>
<path fill="none" stroke="#9a32cd" stroke-dasharray="5,2" d="M135.293,-76.1406C123.49,-62.5495 106.876,-43.4181 95.6751,-30.5198"/>
<polygon fill="#9a32cd" stroke="#9a32cd" points="132.729,-78.5264 141.929,-83.7818 138.015,-73.9366 132.729,-78.5264"/>
<text text-anchor="middle" x="144" y="-52" font-family="Helvetica,sans-Serif" font-size="10.00"> m_filePath</text>
</g>
<!-- Node4 -->
<g id="node4" class="node"><title>Node4</title>
<g id="a_node4"><a xlink:title="STL class. ">
<polygon fill="white" stroke="#bfbfbf" points="102,-146.5 102,-176.5 197,-176.5 197,-146.5 102,-146.5"/>
<text text-anchor="start" x="110" y="-164.5" font-family="Helvetica,sans-Serif" font-size="10.00">std::basic_string&lt;</text>
<text text-anchor="middle" x="149.5" y="-153.5" font-family="Helvetica,sans-Serif" font-size="10.00"> char &gt;</text>
</a>
</g>
</g>
<!-- Node4&#45;&gt;Node3 -->
<g id="edge3" class="edge"><title>Node4&#45;&gt;Node3</title>
<path fill="none" stroke="midnightblue" d="M149.5,-135.876C149.5,-124.471 149.5,-111.636 149.5,-103.328"/>
<polygon fill="midnightblue" stroke="midnightblue" points="146,-136.179 149.5,-146.179 153,-136.179 146,-136.179"/>
</g>
</g>
</svg>
