<?xml version="1.0" encoding="UTF-8" standalone="no"?>
<!DOCTYPE svg PUBLIC "-//W3C//DTD SVG 1.1//EN"
 "http://www.w3.org/Graphics/SVG/1.1/DTD/svg11.dtd">
<!-- Generated by graphviz version 2.38.0 (20140413.2041)
 -->
<!-- Title: AESKey&lt; S &gt; Pages: 1 -->
<svg width="133pt" height="95pt"
 viewBox="0.00 0.00 133.00 95.00" xmlns="http://www.w3.org/2000/svg" xmlns:xlink="http://www.w3.org/1999/xlink">
<g id="graph0" class="graph" transform="scale(1 1) rotate(0) translate(4 91)">
<title>AESKey&lt; S &gt;</title>
<polygon fill="white" stroke="none" points="-4,4 -4,-91 129,-91 129,4 -4,4"/>
<!-- Node1 -->
<g id="node1" class="node"><title>Node1</title>
<polygon fill="#bfbfbf" stroke="black" points="0,-0.5 0,-19.5 79,-19.5 79,-0.5 0,-0.5"/>
<text text-anchor="middle" x="39.5" y="-7.5" font-family="Helvetica,sans-Serif" font-size="10.00">AESKey&lt; S &gt;</text>
</g>
<!-- Node2 -->
<g id="node2" class="node"><title>Node2</title>
<g id="a_node2"><a xlink:href="class_a_e_s_key_base.html" target="_top" xlink:title="Base class for AESKey&lt;S&gt;. ">
<polygon fill="white" stroke="black" points="1,-67.5 1,-86.5 78,-86.5 78,-67.5 1,-67.5"/>
<text text-anchor="middle" x="39.5" y="-74.5" font-family="Helvetica,sans-Serif" font-size="10.00">AESKeyBase</text>
</a>
</g>
</g>
<!-- Node2&#45;&gt;Node1 -->
<g id="edge1" class="edge"><title>Node2&#45;&gt;Node1</title>
<path fill="none" stroke="midnightblue" d="M33.2999,-57.037C32.2357,-44.6703 32.7161,-29.1198 34.7409,-19.6273"/>
<polygon fill="midnightblue" stroke="midnightblue" points="29.8732,-57.8082 34.7115,-67.2338 36.8071,-56.8483 29.8732,-57.8082"/>
</g>
<!-- Node2&#45;&gt;Node1 -->
<g id="edge2" class="edge"><title>Node2&#45;&gt;Node1</title>
<path fill="none" stroke="midnightblue" d="M45.7001,-57.037C46.7643,-44.6703 46.2839,-29.1198 44.2591,-19.6273"/>
<polygon fill="midnightblue" stroke="midnightblue" points="42.1929,-56.8483 44.2885,-67.2338 49.1268,-57.8082 42.1929,-56.8483"/>
</g>
<!-- Node3 -->
<g id="node3" class="node"><title>Node3</title>
<polygon fill="white" stroke="#bfbfbf" points="96,-67.5 96,-86.5 125,-86.5 125,-67.5 96,-67.5"/>
<text text-anchor="middle" x="110.5" y="-74.5" font-family="Helvetica,sans-Serif" font-size="10.00">S</text>
</g>
<!-- Node3&#45;&gt;Node1 -->
<g id="edge3" class="edge"><title>Node3&#45;&gt;Node1</title>
<path fill="none" stroke="#9a32cd" stroke-dasharray="5,2" d="M93.4123,-60.3564C79.4541,-47.5777 60.2446,-29.9915 48.9237,-19.6273"/>
<polygon fill="#9a32cd" stroke="#9a32cd" points="91.1853,-63.0628 100.925,-67.2338 95.9121,-57.8997 91.1853,-63.0628"/>
<text text-anchor="middle" x="95" y="-41" font-family="Helvetica,sans-Serif" font-size="10.00"> m_key</text>
</g>
</g>
</svg>
