<?xml version="1.0" encoding="UTF-8" standalone="no"?>
<!DOCTYPE svg PUBLIC "-//W3C//DTD SVG 1.1//EN"
 "http://www.w3.org/Graphics/SVG/1.1/DTD/svg11.dtd">
<!-- Generated by graphviz version 2.38.0 (20140413.2041)
 -->
<!-- Title: elftosb::ExprConstASTNode Pages: 1 -->
<svg width="208pt" height="306pt"
 viewBox="0.00 0.00 207.50 306.00" xmlns="http://www.w3.org/2000/svg" xmlns:xlink="http://www.w3.org/1999/xlink">
<g id="graph0" class="graph" transform="scale(1 1) rotate(0) translate(4 302)">
<title>elftosb::ExprConstASTNode</title>
<polygon fill="white" stroke="none" points="-4,4 -4,-302 203.5,-302 203.5,4 -4,4"/>
<!-- Node1 -->
<g id="node1" class="node"><title>Node1</title>
<polygon fill="#bfbfbf" stroke="black" points="20,-0.5 20,-19.5 158,-19.5 158,-0.5 20,-0.5"/>
<text text-anchor="middle" x="89" y="-7.5" font-family="Helvetica,sans-Serif" font-size="10.00">elftosb::ExprConstASTNode</text>
</g>
<!-- Node2 -->
<g id="node2" class="node"><title>Node2</title>
<g id="a_node2"><a xlink:href="classelftosb_1_1_const_a_s_t_node.html" target="_top" xlink:title="elftosb::ConstASTNode">
<polygon fill="white" stroke="black" points="0,-116.5 0,-135.5 118,-135.5 118,-116.5 0,-116.5"/>
<text text-anchor="middle" x="59" y="-123.5" font-family="Helvetica,sans-Serif" font-size="10.00">elftosb::ConstASTNode</text>
</a>
</g>
</g>
<!-- Node2&#45;&gt;Node1 -->
<g id="edge1" class="edge"><title>Node2&#45;&gt;Node1</title>
<path fill="none" stroke="midnightblue" d="M63.804,-106.745C70.3607,-81.8294 81.8521,-38.1619 86.719,-19.668"/>
<polygon fill="midnightblue" stroke="midnightblue" points="60.4151,-105.87 61.2549,-116.431 67.1846,-107.651 60.4151,-105.87"/>
</g>
<!-- Node3 -->
<g id="node3" class="node"><title>Node3</title>
<g id="a_node3"><a xlink:href="classelftosb_1_1_a_s_t_node.html" target="_top" xlink:title="The base class for all AST node classes. ">
<polygon fill="white" stroke="black" points="24,-211.5 24,-230.5 116,-230.5 116,-211.5 24,-211.5"/>
<text text-anchor="middle" x="70" y="-218.5" font-family="Helvetica,sans-Serif" font-size="10.00">elftosb::ASTNode</text>
</a>
</g>
</g>
<!-- Node3&#45;&gt;Node2 -->
<g id="edge2" class="edge"><title>Node3&#45;&gt;Node2</title>
<path fill="none" stroke="midnightblue" d="M67.7933,-201.343C65.4262,-181.331 61.7708,-150.426 60.0127,-135.562"/>
<polygon fill="midnightblue" stroke="midnightblue" points="64.3344,-201.898 68.9849,-211.417 71.2859,-201.076 64.3344,-201.898"/>
</g>
<!-- Node3&#45;&gt;Node3 -->
<g id="edge4" class="edge"><title>Node3&#45;&gt;Node3</title>
<path fill="none" stroke="#9a32cd" stroke-dasharray="5,2" d="M126.274,-225.077C131.034,-224.205 134,-222.846 134,-221 134,-218.047 126.406,-216.34 116.024,-215.878"/>
<polygon fill="#9a32cd" stroke="#9a32cd" points="125.618,-221.626 116.024,-226.122 126.328,-228.59 125.618,-221.626"/>
<text text-anchor="middle" x="156" y="-218.5" font-family="Helvetica,sans-Serif" font-size="10.00"> m_parent</text>
</g>
<!-- Node6 -->
<g id="node6" class="node"><title>Node6</title>
<g id="a_node6"><a xlink:href="classelftosb_1_1_expr_a_s_t_node.html" target="_top" xlink:title="Abstract base class for all expression AST nodes. ">
<polygon fill="white" stroke="black" points="86.5,-154.5 86.5,-173.5 199.5,-173.5 199.5,-154.5 86.5,-154.5"/>
<text text-anchor="middle" x="143" y="-161.5" font-family="Helvetica,sans-Serif" font-size="10.00">elftosb::ExprASTNode</text>
</a>
</g>
</g>
<!-- Node3&#45;&gt;Node6 -->
<g id="edge7" class="edge"><title>Node3&#45;&gt;Node6</title>
<path fill="none" stroke="midnightblue" d="M89.5282,-205.287C102.904,-195.21 120.191,-182.185 131.433,-173.715"/>
<polygon fill="midnightblue" stroke="midnightblue" points="87.287,-202.593 81.4063,-211.406 91.4993,-208.184 87.287,-202.593"/>
</g>
<!-- Node4 -->
<g id="node4" class="node"><title>Node4</title>
<g id="a_node4"><a xlink:href="structelftosb_1_1token__loc__t.html" target="_top" xlink:title="Token location in the source file. ">
<polygon fill="white" stroke="black" points="19.5,-278.5 19.5,-297.5 120.5,-297.5 120.5,-278.5 19.5,-278.5"/>
<text text-anchor="middle" x="70" y="-285.5" font-family="Helvetica,sans-Serif" font-size="10.00">elftosb::token_loc_t</text>
</a>
</g>
</g>
<!-- Node4&#45;&gt;Node3 -->
<g id="edge3" class="edge"><title>Node4&#45;&gt;Node3</title>
<path fill="none" stroke="#9a32cd" stroke-dasharray="5,2" d="M70,-268.037C70,-255.67 70,-240.12 70,-230.627"/>
<polygon fill="#9a32cd" stroke="#9a32cd" points="66.5001,-268.234 70,-278.234 73.5001,-268.234 66.5001,-268.234"/>
<text text-anchor="middle" x="95.5" y="-252" font-family="Helvetica,sans-Serif" font-size="10.00"> m_location</text>
</g>
<!-- Node5 -->
<g id="node5" class="node"><title>Node5</title>
<g id="a_node5"><a xlink:href="group__smart__pointer.html" target="_top" xlink:title="smart_ptr\&lt; elftosb\l::ExprASTNode \&gt;">
<polygon fill="white" stroke="black" points="92.5,-67.5 92.5,-97.5 187.5,-97.5 187.5,-67.5 92.5,-67.5"/>
<text text-anchor="start" x="100.5" y="-85.5" font-family="Helvetica,sans-Serif" font-size="10.00">smart_ptr&lt; elftosb</text>
<text text-anchor="middle" x="140" y="-74.5" font-family="Helvetica,sans-Serif" font-size="10.00">::ExprASTNode &gt;</text>
</a>
</g>
</g>
<!-- Node5&#45;&gt;Node1 -->
<g id="edge5" class="edge"><title>Node5&#45;&gt;Node1</title>
<path fill="none" stroke="#9a32cd" stroke-dasharray="5,2" d="M123.728,-59.006C114.123,-45.7295 102.501,-29.6626 95.4333,-19.8932"/>
<polygon fill="#9a32cd" stroke="#9a32cd" points="120.982,-61.1824 129.679,-67.2333 126.654,-57.0796 120.982,-61.1824"/>
<text text-anchor="middle" x="135" y="-41" font-family="Helvetica,sans-Serif" font-size="10.00"> m_expr</text>
</g>
<!-- Node6&#45;&gt;Node5 -->
<g id="edge6" class="edge"><title>Node6&#45;&gt;Node5</title>
<path fill="none" stroke="#9a32cd" stroke-dasharray="5,2" d="M142.295,-144.33C141.755,-130.011 141.021,-110.556 140.53,-97.5414"/>
<polygon fill="#9a32cd" stroke="#9a32cd" points="138.804,-144.631 142.679,-154.492 145.799,-144.367 138.804,-144.631"/>
<text text-anchor="middle" x="149" y="-123.5" font-family="Helvetica,sans-Serif" font-size="10.00"> _p</text>
</g>
</g>
</svg>
