<?xml version="1.0" encoding="UTF-8" standalone="no"?>
<!DOCTYPE svg PUBLIC "-//W3C//DTD SVG 1.1//EN"
 "http://www.w3.org/Graphics/SVG/1.1/DTD/svg11.dtd">
<!-- Generated by graphviz version 2.38.0 (20140413.2041)
 -->
<!-- Title: elftosb::ELFSourceFile::ELFDataSource Pages: 1 -->
<svg width="1062pt" height="356pt"
 viewBox="0.00 0.00 1062.00 355.88" xmlns="http://www.w3.org/2000/svg" xmlns:xlink="http://www.w3.org/1999/xlink">
<g id="graph0" class="graph" transform="scale(1 1) rotate(0) translate(4 351.879)">
<title>elftosb::ELFSourceFile::ELFDataSource</title>
<polygon fill="white" stroke="none" points="-4,4 -4,-351.879 1058,-351.879 1058,4 -4,4"/>
<!-- Node1 -->
<g id="node1" class="node"><title>Node1</title>
<polygon fill="#bfbfbf" stroke="black" points="938,-262.5 938,-292.5 1054,-292.5 1054,-262.5 938,-262.5"/>
<text text-anchor="start" x="946" y="-280.5" font-family="Helvetica,sans-Serif" font-size="10.00">elftosb::ELFSourceFile</text>
<text text-anchor="middle" x="996" y="-269.5" font-family="Helvetica,sans-Serif" font-size="10.00">::ELFDataSource</text>
</g>
<!-- Node2 -->
<g id="node2" class="node"><title>Node2</title>
<g id="a_node2"><a xlink:href="classelftosb_1_1_data_source.html" target="_top" xlink:title="Abstract base class for data sources. ">
<polygon fill="white" stroke="black" points="281,-316 281,-335 383,-335 383,-316 281,-316"/>
<text text-anchor="middle" x="332" y="-323" font-family="Helvetica,sans-Serif" font-size="10.00">elftosb::DataSource</text>
</a>
</g>
</g>
<!-- Node2&#45;&gt;Node1 -->
<g id="edge1" class="edge"><title>Node2&#45;&gt;Node1</title>
<path fill="none" stroke="midnightblue" d="M388.061,-336.886C397.678,-338.618 407.608,-340.243 417,-341.5 445.279,-345.286 452.491,-345.388 481,-346.5 677.432,-354.161 726.562,-327.516 920,-292.5 925.749,-291.459 931.738,-290.333 937.713,-289.182"/>
<polygon fill="midnightblue" stroke="midnightblue" points="388.66,-333.438 378.189,-335.055 387.383,-340.32 388.66,-333.438"/>
</g>
<!-- Node3 -->
<g id="node3" class="node"><title>Node3</title>
<g id="a_node3"><a xlink:href="classelftosb_1_1_data_target.html" target="_top" xlink:title="Abstract base class for the target address or range of data. ">
<polygon fill="white" stroke="black" points="485,-318 485,-337 583,-337 583,-318 485,-318"/>
<text text-anchor="middle" x="534" y="-325" font-family="Helvetica,sans-Serif" font-size="10.00">elftosb::DataTarget</text>
</a>
</g>
</g>
<!-- Node2&#45;&gt;Node3 -->
<g id="edge3" class="edge"><title>Node2&#45;&gt;Node3</title>
<path fill="none" stroke="#9a32cd" stroke-dasharray="5,2" d="M393.326,-326.103C422.624,-326.396 457.345,-326.743 484.839,-327.018"/>
<polygon fill="#9a32cd" stroke="#9a32cd" points="393.245,-322.602 383.21,-326.002 393.175,-329.602 393.245,-322.602"/>
<text text-anchor="middle" x="440" y="-329.5" font-family="Helvetica,sans-Serif" font-size="10.00"> m_source</text>
</g>
<!-- Node19 -->
<g id="node19" class="node"><title>Node19</title>
<g id="a_node19"><a xlink:href="classelftosb_1_1_data_source_1_1_segment.html" target="_top" xlink:title="Discrete, contiguous part of the source&#39;s data. ">
<polygon fill="white" stroke="black" points="483,-262.5 483,-292.5 585,-292.5 585,-262.5 483,-262.5"/>
<text text-anchor="start" x="491" y="-280.5" font-family="Helvetica,sans-Serif" font-size="10.00">elftosb::DataSource</text>
<text text-anchor="middle" x="534" y="-269.5" font-family="Helvetica,sans-Serif" font-size="10.00">::Segment</text>
</a>
</g>
</g>
<!-- Node2&#45;&gt;Node19 -->
<g id="edge20" class="edge"><title>Node2&#45;&gt;Node19</title>
<path fill="none" stroke="#9a32cd" stroke-dasharray="5,2" d="M362.515,-311.844C378.357,-305.045 398.4,-297.278 417,-292.5 438.241,-287.043 462.206,-283.521 482.815,-281.272"/>
<polygon fill="#9a32cd" stroke="#9a32cd" points="360.992,-308.69 353.244,-315.917 363.807,-315.099 360.992,-308.69"/>
<text text-anchor="middle" x="440" y="-295.5" font-family="Helvetica,sans-Serif" font-size="10.00"> m_source</text>
</g>
<!-- Node3&#45;&gt;Node2 -->
<g id="edge2" class="edge"><title>Node3&#45;&gt;Node2</title>
<path fill="none" stroke="#9a32cd" stroke-dasharray="5,2" d="M492.867,-315.339C483.179,-312.916 472.794,-310.739 463,-309.5 431.755,-305.547 396.267,-310.554 370.273,-315.984"/>
<polygon fill="#9a32cd" stroke="#9a32cd" points="492.095,-318.754 502.657,-317.922 493.881,-311.986 492.095,-318.754"/>
<text text-anchor="middle" x="440" y="-312.5" font-family="Helvetica,sans-Serif" font-size="10.00"> m_target</text>
</g>
<!-- Node4 -->
<g id="node4" class="node"><title>Node4</title>
<g id="a_node4"><a xlink:href="class_st_e_l_f_file.html" target="_top" xlink:title="Parser for Executable and Linking Format (ELF) files. ">
<polygon fill="white" stroke="black" points="751,-137 751,-156 811,-156 811,-137 751,-137"/>
<text text-anchor="middle" x="781" y="-144" font-family="Helvetica,sans-Serif" font-size="10.00">StELFFile</text>
</a>
</g>
</g>
<!-- Node4&#45;&gt;Node1 -->
<g id="edge4" class="edge"><title>Node4&#45;&gt;Node1</title>
<path fill="none" stroke="#9a32cd" stroke-dasharray="5,2" d="M806.185,-161.374C847.035,-186.498 929.259,-237.068 970.392,-262.366"/>
<polygon fill="#9a32cd" stroke="#9a32cd" points="808.014,-158.39 797.662,-156.133 804.347,-164.353 808.014,-158.39"/>
<text text-anchor="middle" x="890" y="-231.5" font-family="Helvetica,sans-Serif" font-size="10.00"> m_elf</text>
</g>
<!-- Node5 -->
<g id="node5" class="node"><title>Node5</title>
<polygon fill="white" stroke="#bfbfbf" points="488,-213.5 488,-243.5 580,-243.5 580,-213.5 488,-213.5"/>
<text text-anchor="start" x="496" y="-231.5" font-family="Helvetica,sans-Serif" font-size="10.00">std::vector&lt; Elf32</text>
<text text-anchor="middle" x="534" y="-220.5" font-family="Helvetica,sans-Serif" font-size="10.00">_Phdr &gt;</text>
</g>
<!-- Node5&#45;&gt;Node4 -->
<g id="edge5" class="edge"><title>Node5&#45;&gt;Node4</title>
<path fill="none" stroke="#9a32cd" stroke-dasharray="5,2" d="M590.303,-220.075C623.411,-214.019 665.93,-204.435 702,-190.5 725.64,-181.367 750.798,-166.026 765.957,-156.086"/>
<polygon fill="#9a32cd" stroke="#9a32cd" points="589.582,-216.649 580.348,-221.843 590.806,-223.541 589.582,-216.649"/>
<text text-anchor="middle" x="653.5" y="-220.5" font-family="Helvetica,sans-Serif" font-size="10.00"> m_programHeaders</text>
</g>
<!-- Node6 -->
<g id="node6" class="node"><title>Node6</title>
<g id="a_node6"><a xlink:href="struct_elf32___phdr.html" target="_top" xlink:title="ELF program header. ">
<polygon fill="white" stroke="black" points="300,-219 300,-238 364,-238 364,-219 300,-219"/>
<text text-anchor="middle" x="332" y="-226" font-family="Helvetica,sans-Serif" font-size="10.00">Elf32_Phdr</text>
</a>
</g>
</g>
<!-- Node6&#45;&gt;Node5 -->
<g id="edge6" class="edge"><title>Node6&#45;&gt;Node5</title>
<path fill="none" stroke="#9a32cd" stroke-dasharray="5,2" d="M374.498,-228.5C407.588,-228.5 453.858,-228.5 487.867,-228.5"/>
<polygon fill="#9a32cd" stroke="#9a32cd" points="374.25,-225 364.25,-228.5 374.25,-232 374.25,-225"/>
<text text-anchor="middle" x="440" y="-231.5" font-family="Helvetica,sans-Serif" font-size="10.00"> elements</text>
</g>
<!-- Node7 -->
<g id="node7" class="node"><title>Node7</title>
<g id="a_node7"><a xlink:title="STL class. ">
<polygon fill="white" stroke="#bfbfbf" points="500,-175 500,-194 568,-194 568,-175 500,-175"/>
<text text-anchor="middle" x="534" y="-182" font-family="Helvetica,sans-Serif" font-size="10.00">std::istream</text>
</a>
</g>
</g>
<!-- Node7&#45;&gt;Node4 -->
<g id="edge7" class="edge"><title>Node7&#45;&gt;Node4</title>
<path fill="none" stroke="#9a32cd" stroke-dasharray="5,2" d="M577.999,-178.74C611.764,-174.116 659.941,-167.295 702,-160.5 718.163,-157.889 736.153,-154.68 750.78,-151.994"/>
<polygon fill="#9a32cd" stroke="#9a32cd" points="577.441,-175.284 568.006,-180.102 578.387,-182.22 577.441,-175.284"/>
<text text-anchor="middle" x="653.5" y="-178.5" font-family="Helvetica,sans-Serif" font-size="10.00"> m_stream</text>
</g>
<!-- Node8 -->
<g id="node8" class="node"><title>Node8</title>
<g id="a_node8"><a xlink:title="STL class. ">
<polygon fill="white" stroke="#bfbfbf" points="283.5,-169.5 283.5,-199.5 380.5,-199.5 380.5,-169.5 283.5,-169.5"/>
<text text-anchor="start" x="291.5" y="-187.5" font-family="Helvetica,sans-Serif" font-size="10.00">std::basic_istream</text>
<text text-anchor="middle" x="332" y="-176.5" font-family="Helvetica,sans-Serif" font-size="10.00">&lt; char &gt;</text>
</a>
</g>
</g>
<!-- Node8&#45;&gt;Node7 -->
<g id="edge8" class="edge"><title>Node8&#45;&gt;Node7</title>
<path fill="none" stroke="midnightblue" d="M390.85,-184.5C426.213,-184.5 470.185,-184.5 499.782,-184.5"/>
<polygon fill="midnightblue" stroke="midnightblue" points="390.651,-181 380.651,-184.5 390.651,-188 390.651,-181"/>
</g>
<!-- Node9 -->
<g id="node9" class="node"><title>Node9</title>
<g id="a_node9"><a xlink:title="STL class. ">
<polygon fill="white" stroke="#bfbfbf" points="112,-175 112,-194 228,-194 228,-175 112,-175"/>
<text text-anchor="middle" x="170" y="-182" font-family="Helvetica,sans-Serif" font-size="10.00">std::basic_ios&lt; Char &gt;</text>
</a>
</g>
</g>
<!-- Node9&#45;&gt;Node8 -->
<g id="edge9" class="edge"><title>Node9&#45;&gt;Node8</title>
<path fill="none" stroke="midnightblue" d="M238.6,-184.5C253.637,-184.5 269.273,-184.5 283.314,-184.5"/>
<polygon fill="midnightblue" stroke="midnightblue" points="238.312,-181 228.312,-184.5 238.312,-188 238.312,-181"/>
</g>
<!-- Node10 -->
<g id="node10" class="node"><title>Node10</title>
<g id="a_node10"><a xlink:title="STL class. ">
<polygon fill="white" stroke="#bfbfbf" points="0,-175 0,-194 75,-194 75,-175 0,-175"/>
<text text-anchor="middle" x="37.5" y="-182" font-family="Helvetica,sans-Serif" font-size="10.00">std::ios_base</text>
</a>
</g>
</g>
<!-- Node10&#45;&gt;Node9 -->
<g id="edge10" class="edge"><title>Node10&#45;&gt;Node9</title>
<path fill="none" stroke="midnightblue" d="M85.3188,-184.5C93.8367,-184.5 102.811,-184.5 111.593,-184.5"/>
<polygon fill="midnightblue" stroke="midnightblue" points="85.1988,-181 75.1988,-184.5 85.1988,-188 85.1988,-181"/>
</g>
<!-- Node11 -->
<g id="node11" class="node"><title>Node11</title>
<g id="a_node11"><a xlink:href="struct_elf32___ehdr.html" target="_top" xlink:title="ELF file header. ">
<polygon fill="white" stroke="black" points="502,-137 502,-156 566,-156 566,-137 502,-137"/>
<text text-anchor="middle" x="534" y="-144" font-family="Helvetica,sans-Serif" font-size="10.00">Elf32_Ehdr</text>
</a>
</g>
</g>
<!-- Node11&#45;&gt;Node4 -->
<g id="edge11" class="edge"><title>Node11&#45;&gt;Node4</title>
<path fill="none" stroke="#9a32cd" stroke-dasharray="5,2" d="M576.062,-146.5C625.5,-146.5 707.289,-146.5 750.748,-146.5"/>
<polygon fill="#9a32cd" stroke="#9a32cd" points="576.029,-143 566.029,-146.5 576.029,-150 576.029,-143"/>
<text text-anchor="middle" x="653.5" y="-149.5" font-family="Helvetica,sans-Serif" font-size="10.00"> m_header</text>
</g>
<!-- Node12 -->
<g id="node12" class="node"><title>Node12</title>
<g id="a_node12"><a xlink:title="STL class. ">
<polygon fill="white" stroke="#bfbfbf" points="504,-99 504,-118 564,-118 564,-99 504,-99"/>
<text text-anchor="middle" x="534" y="-106" font-family="Helvetica,sans-Serif" font-size="10.00">std::string</text>
</a>
</g>
</g>
<!-- Node12&#45;&gt;Node4 -->
<g id="edge12" class="edge"><title>Node12&#45;&gt;Node4</title>
<path fill="none" stroke="#9a32cd" stroke-dasharray="5,2" d="M573.999,-113.276C607.9,-117.569 658.297,-124.293 702,-131.5 718.191,-134.17 736.184,-137.599 750.805,-140.504"/>
<polygon fill="#9a32cd" stroke="#9a32cd" points="574.391,-109.798 564.033,-112.023 573.519,-116.743 574.391,-109.798"/>
<text text-anchor="middle" x="653.5" y="-134.5" font-family="Helvetica,sans-Serif" font-size="10.00"> m_name</text>
</g>
<!-- Node13 -->
<g id="node13" class="node"><title>Node13</title>
<g id="a_node13"><a xlink:title="STL class. ">
<polygon fill="white" stroke="#bfbfbf" points="284.5,-93.5 284.5,-123.5 379.5,-123.5 379.5,-93.5 284.5,-93.5"/>
<text text-anchor="start" x="292.5" y="-111.5" font-family="Helvetica,sans-Serif" font-size="10.00">std::basic_string&lt;</text>
<text text-anchor="middle" x="332" y="-100.5" font-family="Helvetica,sans-Serif" font-size="10.00"> char &gt;</text>
</a>
</g>
</g>
<!-- Node13&#45;&gt;Node12 -->
<g id="edge13" class="edge"><title>Node13&#45;&gt;Node12</title>
<path fill="none" stroke="midnightblue" d="M389.855,-108.5C427.086,-108.5 474.187,-108.5 503.966,-108.5"/>
<polygon fill="midnightblue" stroke="midnightblue" points="389.639,-105 379.639,-108.5 389.639,-112 389.639,-105"/>
</g>
<!-- Node14 -->
<g id="node14" class="node"><title>Node14</title>
<polygon fill="white" stroke="#bfbfbf" points="488,-49.5 488,-79.5 580,-79.5 580,-49.5 488,-49.5"/>
<text text-anchor="start" x="496" y="-67.5" font-family="Helvetica,sans-Serif" font-size="10.00">std::vector&lt; Elf32</text>
<text text-anchor="middle" x="534" y="-56.5" font-family="Helvetica,sans-Serif" font-size="10.00">_Shdr &gt;</text>
</g>
<!-- Node14&#45;&gt;Node4 -->
<g id="edge14" class="edge"><title>Node14&#45;&gt;Node4</title>
<path fill="none" stroke="#9a32cd" stroke-dasharray="5,2" d="M590.248,-73.453C623.336,-79.7782 665.854,-89.6205 702,-103.5 725.385,-112.48 750.409,-127.314 765.633,-136.997"/>
<polygon fill="#9a32cd" stroke="#9a32cd" points="590.771,-69.9903 580.299,-71.6023 589.491,-76.8722 590.771,-69.9903"/>
<text text-anchor="middle" x="653.5" y="-106.5" font-family="Helvetica,sans-Serif" font-size="10.00"> m_sectionHeaders</text>
</g>
<!-- Node15 -->
<g id="node15" class="node"><title>Node15</title>
<g id="a_node15"><a xlink:href="struct_elf32___shdr.html" target="_top" xlink:title="ELF section header. ">
<polygon fill="white" stroke="black" points="300,-55 300,-74 364,-74 364,-55 300,-55"/>
<text text-anchor="middle" x="332" y="-62" font-family="Helvetica,sans-Serif" font-size="10.00">Elf32_Shdr</text>
</a>
</g>
</g>
<!-- Node15&#45;&gt;Node14 -->
<g id="edge15" class="edge"><title>Node15&#45;&gt;Node14</title>
<path fill="none" stroke="#9a32cd" stroke-dasharray="5,2" d="M374.498,-64.5C407.588,-64.5 453.858,-64.5 487.867,-64.5"/>
<polygon fill="#9a32cd" stroke="#9a32cd" points="374.25,-61.0001 364.25,-64.5 374.25,-68.0001 374.25,-61.0001"/>
<text text-anchor="middle" x="440" y="-67.5" font-family="Helvetica,sans-Serif" font-size="10.00"> elements</text>
</g>
<!-- Node16 -->
<g id="node16" class="node"><title>Node16</title>
<polygon fill="white" stroke="#bfbfbf" points="481,-0.5 481,-30.5 587,-30.5 587,-0.5 481,-0.5"/>
<text text-anchor="start" x="489" y="-18.5" font-family="Helvetica,sans-Serif" font-size="10.00">std::map&lt; unsigned,</text>
<text text-anchor="middle" x="534" y="-7.5" font-family="Helvetica,sans-Serif" font-size="10.00"> SectionDataInfo &gt;</text>
</g>
<!-- Node16&#45;&gt;Node4 -->
<g id="edge16" class="edge"><title>Node16&#45;&gt;Node4</title>
<path fill="none" stroke="#9a32cd" stroke-dasharray="5,2" d="M597.229,-24.6211C630.143,-31.4505 670.205,-43.0769 702,-62.5 734.437,-82.3153 761.891,-119.322 773.742,-136.836"/>
<polygon fill="#9a32cd" stroke="#9a32cd" points="597.749,-21.1563 587.26,-22.6523 596.392,-28.0237 597.749,-21.1563"/>
<text text-anchor="middle" x="653.5" y="-65.5" font-family="Helvetica,sans-Serif" font-size="10.00"> m_sectionDataCache</text>
</g>
<!-- Node17 -->
<g id="node17" class="node"><title>Node17</title>
<g id="a_node17"><a xlink:href="class_st_e_l_f_file.html#struct_st_e_l_f_file_1_1_section_data_info" target="_top" xlink:title="StELFFile::SectionDataInfo">
<polygon fill="white" stroke="black" points="265,-6 265,-25 399,-25 399,-6 265,-6"/>
<text text-anchor="middle" x="332" y="-13" font-family="Helvetica,sans-Serif" font-size="10.00">StELFFile::SectionDataInfo</text>
</a>
</g>
</g>
<!-- Node17&#45;&gt;Node16 -->
<g id="edge17" class="edge"><title>Node17&#45;&gt;Node16</title>
<path fill="none" stroke="#9a32cd" stroke-dasharray="5,2" d="M409.179,-15.5C433.152,-15.5 459.063,-15.5 480.956,-15.5"/>
<polygon fill="#9a32cd" stroke="#9a32cd" points="409.042,-12.0001 399.042,-15.5 409.042,-19.0001 409.042,-12.0001"/>
<text text-anchor="middle" x="440" y="-18.5" font-family="Helvetica,sans-Serif" font-size="10.00"> elements</text>
</g>
<!-- Node18 -->
<g id="node18" class="node"><title>Node18</title>
<polygon fill="white" stroke="#bfbfbf" points="720,-262.5 720,-292.5 842,-292.5 842,-262.5 720,-262.5"/>
<text text-anchor="start" x="728" y="-280.5" font-family="Helvetica,sans-Serif" font-size="10.00">std::vector&lt; DataSource</text>
<text text-anchor="middle" x="781" y="-269.5" font-family="Helvetica,sans-Serif" font-size="10.00">::Segment * &gt;</text>
</g>
<!-- Node18&#45;&gt;Node1 -->
<g id="edge18" class="edge"><title>Node18&#45;&gt;Node1</title>
<path fill="none" stroke="#9a32cd" stroke-dasharray="5,2" d="M852.235,-277.5C880.022,-277.5 911.549,-277.5 937.896,-277.5"/>
<polygon fill="#9a32cd" stroke="#9a32cd" points="852.183,-274 842.183,-277.5 852.183,-281 852.183,-274"/>
<text text-anchor="middle" x="890" y="-280.5" font-family="Helvetica,sans-Serif" font-size="10.00"> m_segments</text>
</g>
<!-- Node19&#45;&gt;Node18 -->
<g id="edge19" class="edge"><title>Node19&#45;&gt;Node18</title>
<path fill="none" stroke="#9a32cd" stroke-dasharray="5,2" d="M595.561,-277.5C633.474,-277.5 682.128,-277.5 719.945,-277.5"/>
<polygon fill="#9a32cd" stroke="#9a32cd" points="595.171,-274 585.171,-277.5 595.171,-281 595.171,-274"/>
<text text-anchor="middle" x="653.5" y="-280.5" font-family="Helvetica,sans-Serif" font-size="10.00"> elements</text>
</g>
</g>
</svg>
