<?xml version="1.0" encoding="UTF-8" standalone="no"?>
<!DOCTYPE svg PUBLIC "-//W3C//DTD SVG 1.1//EN"
 "http://www.w3.org/Graphics/SVG/1.1/DTD/svg11.dtd">
<!-- Generated by graphviz version 2.38.0 (20140413.2041)
 -->
<!-- Title: blfwk::NaturalDataTarget Pages: 1 -->
<svg width="244pt" height="95pt"
 viewBox="0.00 0.00 243.50 95.00" xmlns="http://www.w3.org/2000/svg" xmlns:xlink="http://www.w3.org/1999/xlink">
<g id="graph0" class="graph" transform="scale(1 1) rotate(0) translate(4 91)">
<title>blfwk::NaturalDataTarget</title>
<polygon fill="white" stroke="none" points="-4,4 -4,-91 239.5,-91 239.5,4 -4,4"/>
<!-- Node1 -->
<g id="node1" class="node"><title>Node1</title>
<polygon fill="#bfbfbf" stroke="black" points="0,-0.5 0,-19.5 122,-19.5 122,-0.5 0,-0.5"/>
<text text-anchor="middle" x="61" y="-7.5" font-family="Helvetica,sans-Serif" font-size="10.00">blfwk::NaturalDataTarget</text>
</g>
<!-- Node2 -->
<g id="node2" class="node"><title>Node2</title>
<g id="a_node2"><a xlink:href="classblfwk_1_1_data_target.html" target="_top" xlink:title="Abstract base class for the target address or range of data. ">
<polygon fill="white" stroke="black" points="77,-67.5 77,-86.5 169,-86.5 169,-67.5 77,-67.5"/>
<text text-anchor="middle" x="123" y="-74.5" font-family="Helvetica,sans-Serif" font-size="10.00">blfwk::DataTarget</text>
</a>
</g>
</g>
<!-- Node2&#45;&gt;Node1 -->
<g id="edge1" class="edge"><title>Node2&#45;&gt;Node1</title>
<path fill="none" stroke="midnightblue" d="M107.735,-59.9968C95.5765,-47.2496 79.0226,-29.8947 69.2291,-19.6273"/>
<polygon fill="midnightblue" stroke="midnightblue" points="105.204,-62.4134 114.638,-67.2338 110.269,-57.582 105.204,-62.4134"/>
</g>
<!-- Node3 -->
<g id="node3" class="node"><title>Node3</title>
<g id="a_node3"><a xlink:href="classblfwk_1_1_data_source.html" target="_top" xlink:title="Abstract base class for data sources. ">
<polygon fill="white" stroke="black" points="140.5,-0.5 140.5,-19.5 235.5,-19.5 235.5,-0.5 140.5,-0.5"/>
<text text-anchor="middle" x="188" y="-7.5" font-family="Helvetica,sans-Serif" font-size="10.00">blfwk::DataSource</text>
</a>
</g>
</g>
<!-- Node2&#45;&gt;Node3 -->
<g id="edge3" class="edge"><title>Node2&#45;&gt;Node3</title>
<path fill="none" stroke="#9a32cd" stroke-dasharray="5,2" d="M116.91,-57.2017C115.919,-50.642 116.238,-43.542 120,-38 125.85,-29.3825 134.93,-23.5154 144.569,-19.5208"/>
<polygon fill="#9a32cd" stroke="#9a32cd" points="113.626,-58.5005 119.436,-67.3606 120.42,-56.8116 113.626,-58.5005"/>
<text text-anchor="middle" x="141" y="-41" font-family="Helvetica,sans-Serif" font-size="10.00"> m_target</text>
</g>
<!-- Node3&#45;&gt;Node2 -->
<g id="edge2" class="edge"><title>Node3&#45;&gt;Node2</title>
<path fill="none" stroke="#9a32cd" stroke-dasharray="5,2" d="M179.986,-28.8304C176.36,-35.6479 171.619,-43.1761 166,-49 158.778,-56.4859 149.078,-62.8072 140.719,-67.4471"/>
<polygon fill="#9a32cd" stroke="#9a32cd" points="183.235,-30.154 184.473,-19.6318 176.943,-27.0855 183.235,-30.154"/>
<text text-anchor="middle" x="198" y="-41" font-family="Helvetica,sans-Serif" font-size="10.00"> m_source</text>
</g>
</g>
</svg>
