<?xml version="1.0" encoding="UTF-8" standalone="no"?>
<!DOCTYPE svg PUBLIC "-//W3C//DTD SVG 1.1//EN"
 "http://www.w3.org/Graphics/SVG/1.1/DTD/svg11.dtd">
<!-- Generated by graphviz version 2.38.0 (20140413.2041)
 -->
<!-- Title: elftosb::BootImageGenerator Pages: 1 -->
<svg width="250pt" height="307pt"
 viewBox="0.00 0.00 249.50 307.00" xmlns="http://www.w3.org/2000/svg" xmlns:xlink="http://www.w3.org/1999/xlink">
<g id="graph0" class="graph" transform="scale(1 1) rotate(0) translate(4 303)">
<title>elftosb::BootImageGenerator</title>
<polygon fill="white" stroke="none" points="-4,4 -4,-303 245.5,-303 245.5,4 -4,4"/>
<!-- Node1 -->
<g id="node1" class="node"><title>Node1</title>
<polygon fill="#bfbfbf" stroke="black" points="0,-0.5 0,-19.5 140,-19.5 140,-0.5 0,-0.5"/>
<text text-anchor="middle" x="70" y="-7.5" font-family="Helvetica,sans-Serif" font-size="10.00">elftosb::BootImageGenerator</text>
</g>
<!-- Node2 -->
<g id="node2" class="node"><title>Node2</title>
<g id="a_node2"><a xlink:href="classelftosb_1_1_option_context.html" target="_top" xlink:title="Pure abstract interface class to a table of options. ">
<polygon fill="white" stroke="black" points="27.5,-279.5 27.5,-298.5 140.5,-298.5 140.5,-279.5 27.5,-279.5"/>
<text text-anchor="middle" x="84" y="-286.5" font-family="Helvetica,sans-Serif" font-size="10.00">elftosb::OptionContext</text>
</a>
</g>
</g>
<!-- Node2&#45;&gt;Node1 -->
<g id="edge1" class="edge"><title>Node2&#45;&gt;Node1</title>
<path fill="none" stroke="#9a32cd" stroke-dasharray="5,2" d="M72.1863,-270.964C63.7911,-257.189 54,-236.954 54,-217.5 54,-217.5 54,-217.5 54,-76 54,-55.3136 61.7354,-31.9694 66.4491,-19.6644"/>
<polygon fill="#9a32cd" stroke="#9a32cd" points="69.2633,-272.889 77.6378,-279.379 75.1383,-269.084 69.2633,-272.889"/>
<text text-anchor="middle" x="78.5" y="-141.5" font-family="Helvetica,sans-Serif" font-size="10.00"> m_options</text>
</g>
<!-- Node5 -->
<g id="node5" class="node"><title>Node5</title>
<g id="a_node5"><a xlink:href="group__smart__pointer.html" target="_top" xlink:title="smart_ptr\&lt; elftosb\l::OptionContext \&gt;">
<polygon fill="white" stroke="black" points="94.5,-201.5 94.5,-231.5 189.5,-231.5 189.5,-201.5 94.5,-201.5"/>
<text text-anchor="start" x="102.5" y="-219.5" font-family="Helvetica,sans-Serif" font-size="10.00">smart_ptr&lt; elftosb</text>
<text text-anchor="middle" x="142" y="-208.5" font-family="Helvetica,sans-Serif" font-size="10.00">::OptionContext &gt;</text>
</a>
</g>
</g>
<!-- Node2&#45;&gt;Node5 -->
<g id="edge5" class="edge"><title>Node2&#45;&gt;Node5</title>
<path fill="none" stroke="#9a32cd" stroke-dasharray="5,2" d="M97.6627,-271.393C107.626,-259.283 120.979,-243.051 130.42,-231.576"/>
<polygon fill="#9a32cd" stroke="#9a32cd" points="94.7623,-269.409 91.1119,-279.355 100.168,-273.856 94.7623,-269.409"/>
<text text-anchor="middle" x="121" y="-253" font-family="Helvetica,sans-Serif" font-size="10.00"> _p</text>
</g>
<!-- Node3 -->
<g id="node3" class="node"><title>Node3</title>
<polygon fill="white" stroke="#bfbfbf" points="92.5,-67.5 92.5,-86.5 241.5,-86.5 241.5,-67.5 92.5,-67.5"/>
<text text-anchor="middle" x="167" y="-74.5" font-family="Helvetica,sans-Serif" font-size="10.00">std::vector&lt; OutputSection * &gt;</text>
</g>
<!-- Node3&#45;&gt;Node1 -->
<g id="edge2" class="edge"><title>Node3&#45;&gt;Node1</title>
<path fill="none" stroke="#9a32cd" stroke-dasharray="5,2" d="M145.503,-61.5945C126.314,-48.7359 98.8471,-30.3306 82.8746,-19.6273"/>
<polygon fill="#9a32cd" stroke="#9a32cd" points="143.662,-64.5746 153.918,-67.2338 147.559,-58.7595 143.662,-64.5746"/>
<text text-anchor="middle" x="151" y="-41" font-family="Helvetica,sans-Serif" font-size="10.00"> m_sections</text>
</g>
<!-- Node4 -->
<g id="node4" class="node"><title>Node4</title>
<g id="a_node4"><a xlink:href="classelftosb_1_1_output_section.html" target="_top" xlink:title="Base class for data model of sections of the output file. ">
<polygon fill="white" stroke="black" points="121.5,-134.5 121.5,-153.5 234.5,-153.5 234.5,-134.5 121.5,-134.5"/>
<text text-anchor="middle" x="178" y="-141.5" font-family="Helvetica,sans-Serif" font-size="10.00">elftosb::OutputSection</text>
</a>
</g>
</g>
<!-- Node4&#45;&gt;Node3 -->
<g id="edge3" class="edge"><title>Node4&#45;&gt;Node3</title>
<path fill="none" stroke="#9a32cd" stroke-dasharray="5,2" d="M174.791,-124.037C172.698,-111.67 170.066,-96.1198 168.46,-86.6273"/>
<polygon fill="#9a32cd" stroke="#9a32cd" points="171.397,-124.958 176.516,-134.234 178.299,-123.79 171.397,-124.958"/>
<text text-anchor="middle" x="194.5" y="-108" font-family="Helvetica,sans-Serif" font-size="10.00"> elements</text>
</g>
<!-- Node5&#45;&gt;Node4 -->
<g id="edge4" class="edge"><title>Node5&#45;&gt;Node4</title>
<path fill="none" stroke="#9a32cd" stroke-dasharray="5,2" d="M153.875,-192.244C160.577,-179.12 168.565,-163.477 173.459,-153.893"/>
<polygon fill="#9a32cd" stroke="#9a32cd" points="150.716,-190.735 149.285,-201.233 156.95,-193.919 150.716,-190.735"/>
<text text-anchor="middle" x="187.5" y="-175" font-family="Helvetica,sans-Serif" font-size="10.00"> m_options</text>
</g>
</g>
</svg>
