<?xml version="1.0" encoding="UTF-8" standalone="no"?>
<!DOCTYPE svg PUBLIC "-//W3C//DTD SVG 1.1//EN"
 "http://www.w3.org/Graphics/SVG/1.1/DTD/svg11.dtd">
<!-- Generated by graphviz version 2.38.0 (20140413.2041)
 -->
<!-- Title: elftosb::ResetStatementASTNode Pages: 1 -->
<svg width="198pt" height="209pt"
 viewBox="0.00 0.00 197.50 209.00" xmlns="http://www.w3.org/2000/svg" xmlns:xlink="http://www.w3.org/1999/xlink">
<g id="graph0" class="graph" transform="scale(1 1) rotate(0) translate(4 205)">
<title>elftosb::ResetStatementASTNode</title>
<polygon fill="white" stroke="none" points="-4,4 -4,-205 193.5,-205 193.5,4 -4,4"/>
<!-- Node1 -->
<g id="node1" class="node"><title>Node1</title>
<polygon fill="#bfbfbf" stroke="black" points="0,-0.5 0,-19.5 163,-19.5 163,-0.5 0,-0.5"/>
<text text-anchor="middle" x="81.5" y="-7.5" font-family="Helvetica,sans-Serif" font-size="10.00">elftosb::ResetStatementASTNode</text>
</g>
<!-- Node2 -->
<g id="node2" class="node"><title>Node2</title>
<g id="a_node2"><a xlink:href="classelftosb_1_1_statement_a_s_t_node.html" target="_top" xlink:title="elftosb::StatementASTNode">
<polygon fill="white" stroke="black" points="13,-57.5 13,-76.5 150,-76.5 150,-57.5 13,-57.5"/>
<text text-anchor="middle" x="81.5" y="-64.5" font-family="Helvetica,sans-Serif" font-size="10.00">elftosb::StatementASTNode</text>
</a>
</g>
</g>
<!-- Node2&#45;&gt;Node1 -->
<g id="edge1" class="edge"><title>Node2&#45;&gt;Node1</title>
<path fill="none" stroke="midnightblue" d="M81.5,-47.1166C81.5,-37.8173 81.5,-27.0557 81.5,-19.7149"/>
<polygon fill="midnightblue" stroke="midnightblue" points="78.0001,-47.4062 81.5,-57.4063 85.0001,-47.4063 78.0001,-47.4062"/>
</g>
<!-- Node3 -->
<g id="node3" class="node"><title>Node3</title>
<g id="a_node3"><a xlink:href="classelftosb_1_1_a_s_t_node.html" target="_top" xlink:title="The base class for all AST node classes. ">
<polygon fill="white" stroke="black" points="35.5,-114.5 35.5,-133.5 127.5,-133.5 127.5,-114.5 35.5,-114.5"/>
<text text-anchor="middle" x="81.5" y="-121.5" font-family="Helvetica,sans-Serif" font-size="10.00">elftosb::ASTNode</text>
</a>
</g>
</g>
<!-- Node3&#45;&gt;Node2 -->
<g id="edge2" class="edge"><title>Node3&#45;&gt;Node2</title>
<path fill="none" stroke="midnightblue" d="M81.5,-104.117C81.5,-94.8173 81.5,-84.0557 81.5,-76.7149"/>
<polygon fill="midnightblue" stroke="midnightblue" points="78.0001,-104.406 81.5,-114.406 85.0001,-104.406 78.0001,-104.406"/>
</g>
<!-- Node3&#45;&gt;Node3 -->
<g id="edge4" class="edge"><title>Node3&#45;&gt;Node3</title>
<path fill="none" stroke="#9a32cd" stroke-dasharray="5,2" d="M137.774,-128.077C142.534,-127.205 145.5,-125.846 145.5,-124 145.5,-121.047 137.906,-119.34 127.524,-118.878"/>
<polygon fill="#9a32cd" stroke="#9a32cd" points="137.118,-124.626 127.524,-129.122 137.828,-131.59 137.118,-124.626"/>
<text text-anchor="middle" x="167.5" y="-121.5" font-family="Helvetica,sans-Serif" font-size="10.00"> m_parent</text>
</g>
<!-- Node4 -->
<g id="node4" class="node"><title>Node4</title>
<g id="a_node4"><a xlink:href="structelftosb_1_1token__loc__t.html" target="_top" xlink:title="Token location in the source file. ">
<polygon fill="white" stroke="black" points="31,-181.5 31,-200.5 132,-200.5 132,-181.5 31,-181.5"/>
<text text-anchor="middle" x="81.5" y="-188.5" font-family="Helvetica,sans-Serif" font-size="10.00">elftosb::token_loc_t</text>
</a>
</g>
</g>
<!-- Node4&#45;&gt;Node3 -->
<g id="edge3" class="edge"><title>Node4&#45;&gt;Node3</title>
<path fill="none" stroke="#9a32cd" stroke-dasharray="5,2" d="M81.5,-171.037C81.5,-158.67 81.5,-143.12 81.5,-133.627"/>
<polygon fill="#9a32cd" stroke="#9a32cd" points="78.0001,-171.234 81.5,-181.234 85.0001,-171.234 78.0001,-171.234"/>
<text text-anchor="middle" x="107" y="-155" font-family="Helvetica,sans-Serif" font-size="10.00"> m_location</text>
</g>
</g>
</svg>
