<?xml version="1.0" encoding="UTF-8" standalone="no"?>
<!DOCTYPE svg PUBLIC "-//W3C//DTD SVG 1.1//EN"
 "http://www.w3.org/Graphics/SVG/1.1/DTD/svg11.dtd">
<!-- Generated by graphviz version 2.38.0 (20140413.2041)
 -->
<!-- Title: elftosb::DataSource::Segment Pages: 1 -->
<svg width="522pt" height="264pt"
 viewBox="0.00 0.00 522.00 263.50" xmlns="http://www.w3.org/2000/svg" xmlns:xlink="http://www.w3.org/1999/xlink">
<g id="graph0" class="graph" transform="scale(1 1) rotate(0) translate(4 259.5)">
<title>elftosb::DataSource::Segment</title>
<polygon fill="white" stroke="none" points="-4,4 -4,-259.5 518,-259.5 518,4 -4,4"/>
<!-- Node1 -->
<g id="node1" class="node"><title>Node1</title>
<polygon fill="#bfbfbf" stroke="black" points="0,-83 0,-113 102,-113 102,-83 0,-83"/>
<text text-anchor="start" x="8" y="-101" font-family="Helvetica,sans-Serif" font-size="10.00">elftosb::DataSource</text>
<text text-anchor="middle" x="51" y="-90" font-family="Helvetica,sans-Serif" font-size="10.00">::Segment</text>
</g>
<!-- Node2 -->
<g id="node2" class="node"><title>Node2</title>
<g id="a_node2"><a xlink:href="classelftosb_1_1_data_source_1_1_pattern_segment.html" target="_top" xlink:title="This is a special type of segment containing a repeating pattern. ">
<polygon fill="white" stroke="black" points="174,-176 174,-206 276,-206 276,-176 174,-176"/>
<text text-anchor="start" x="182" y="-194" font-family="Helvetica,sans-Serif" font-size="10.00">elftosb::DataSource</text>
<text text-anchor="middle" x="225" y="-183" font-family="Helvetica,sans-Serif" font-size="10.00">::PatternSegment</text>
</a>
</g>
</g>
<!-- Node1&#45;&gt;Node2 -->
<g id="edge1" class="edge"><title>Node1&#45;&gt;Node2</title>
<path fill="none" stroke="midnightblue" d="M74.2572,-120.1C90.6463,-135.253 114.144,-154.757 138,-167 149.033,-172.662 161.569,-177.129 173.59,-180.595"/>
<polygon fill="midnightblue" stroke="midnightblue" points="76.4835,-117.389 66.8123,-113.062 71.6745,-122.475 76.4835,-117.389"/>
</g>
<!-- Node6 -->
<g id="node6" class="node"><title>Node6</title>
<g id="a_node6"><a xlink:href="classelftosb_1_1_e_l_f_source_file_1_1_e_l_f_data_source_1_1_prog_bits_segment.html" target="_top" xlink:title="Represents one named #SHT_PROGBITS section within the ELF file. ">
<polygon fill="white" stroke="black" points="138,-127 138,-157 312,-157 312,-127 138,-127"/>
<text text-anchor="start" x="146" y="-145" font-family="Helvetica,sans-Serif" font-size="10.00">elftosb::ELFSourceFile</text>
<text text-anchor="middle" x="225" y="-134" font-family="Helvetica,sans-Serif" font-size="10.00">::ELFDataSource::ProgBitsSegment</text>
</a>
</g>
</g>
<!-- Node1&#45;&gt;Node6 -->
<g id="edge5" class="edge"><title>Node1&#45;&gt;Node6</title>
<path fill="none" stroke="midnightblue" d="M112.147,-113.386C129.361,-117.79 148.098,-122.583 165.227,-126.965"/>
<polygon fill="midnightblue" stroke="midnightblue" points="112.767,-109.932 102.212,-110.845 111.032,-116.714 112.767,-109.932"/>
</g>
<!-- Node7 -->
<g id="node7" class="node"><title>Node7</title>
<g id="a_node7"><a xlink:href="classelftosb_1_1_i_v_t_data_source.html" target="_top" xlink:title="Data source for an IVT structure used by HAB4. ">
<polygon fill="white" stroke="black" points="167,-88.5 167,-107.5 283,-107.5 283,-88.5 167,-88.5"/>
<text text-anchor="middle" x="225" y="-95.5" font-family="Helvetica,sans-Serif" font-size="10.00">elftosb::IVTDataSource</text>
</a>
</g>
</g>
<!-- Node1&#45;&gt;Node7 -->
<g id="edge6" class="edge"><title>Node1&#45;&gt;Node7</title>
<path fill="none" stroke="midnightblue" d="M112.402,-98C130.063,-98 149.309,-98 166.768,-98"/>
<polygon fill="midnightblue" stroke="midnightblue" points="112.212,-94.5001 102.212,-98 112.212,-101.5 112.212,-94.5001"/>
</g>
<!-- Node8 -->
<g id="node8" class="node"><title>Node8</title>
<g id="a_node8"><a xlink:href="classelftosb_1_1_memory_image_data_source_1_1_text_segment.html" target="_top" xlink:title="Segment corresponding to a text region of the executable image. ">
<polygon fill="white" stroke="black" points="158.5,-39 158.5,-69 291.5,-69 291.5,-39 158.5,-39"/>
<text text-anchor="start" x="166.5" y="-57" font-family="Helvetica,sans-Serif" font-size="10.00">elftosb::MemoryImageData</text>
<text text-anchor="middle" x="225" y="-46" font-family="Helvetica,sans-Serif" font-size="10.00">Source::TextSegment</text>
</a>
</g>
</g>
<!-- Node1&#45;&gt;Node8 -->
<g id="edge7" class="edge"><title>Node1&#45;&gt;Node8</title>
<path fill="none" stroke="midnightblue" d="M112.147,-82.6135C129.361,-78.2101 148.098,-73.4169 165.227,-69.0349"/>
<polygon fill="midnightblue" stroke="midnightblue" points="111.032,-79.2859 102.212,-85.1551 112.767,-86.0675 111.032,-79.2859"/>
</g>
<!-- Node9 -->
<g id="node9" class="node"><title>Node9</title>
<g id="a_node9"><a xlink:href="classelftosb_1_1_unmapped_data_source.html" target="_top" xlink:title="Data source for data that is not memory mapped (has no natural address). ">
<polygon fill="white" stroke="black" points="150.5,-0.5 150.5,-19.5 299.5,-19.5 299.5,-0.5 150.5,-0.5"/>
<text text-anchor="middle" x="225" y="-7.5" font-family="Helvetica,sans-Serif" font-size="10.00">elftosb::UnmappedDataSource</text>
</a>
</g>
</g>
<!-- Node1&#45;&gt;Node9 -->
<g id="edge8" class="edge"><title>Node1&#45;&gt;Node9</title>
<path fill="none" stroke="midnightblue" d="M73.7576,-75.7774C90.0632,-60.3919 113.67,-40.6568 138,-29 146.136,-25.102 155.09,-21.9916 164.052,-19.5127"/>
<polygon fill="midnightblue" stroke="midnightblue" points="71.1217,-73.4577 66.3684,-82.9264 75.989,-78.4885 71.1217,-73.4577"/>
</g>
<!-- Node3 -->
<g id="node3" class="node"><title>Node3</title>
<g id="a_node3"><a xlink:href="classelftosb_1_1_e_l_f_source_file_1_1_e_l_f_data_source_1_1_no_bits_segment.html" target="_top" xlink:title="Represents one named #SHT_NOBITS section within the ELF file. ">
<polygon fill="white" stroke="black" points="348,-225 348,-255 514,-255 514,-225 348,-225"/>
<text text-anchor="start" x="356" y="-243" font-family="Helvetica,sans-Serif" font-size="10.00">elftosb::ELFSourceFile</text>
<text text-anchor="middle" x="431" y="-232" font-family="Helvetica,sans-Serif" font-size="10.00">::ELFDataSource::NoBitsSegment</text>
</a>
</g>
</g>
<!-- Node2&#45;&gt;Node3 -->
<g id="edge2" class="edge"><title>Node2&#45;&gt;Node3</title>
<path fill="none" stroke="midnightblue" d="M286.092,-205.434C311.629,-211.568 341.409,-218.721 367.231,-224.923"/>
<polygon fill="midnightblue" stroke="midnightblue" points="286.706,-201.982 276.165,-203.05 285.071,-208.788 286.706,-201.982"/>
</g>
<!-- Node4 -->
<g id="node4" class="node"><title>Node4</title>
<g id="a_node4"><a xlink:href="classelftosb_1_1_memory_image_data_source_1_1_fill_segment.html" target="_top" xlink:title="Segment corresponding to a fill region of the executable image. ">
<polygon fill="white" stroke="black" points="364.5,-176 364.5,-206 497.5,-206 497.5,-176 364.5,-176"/>
<text text-anchor="start" x="372.5" y="-194" font-family="Helvetica,sans-Serif" font-size="10.00">elftosb::MemoryImageData</text>
<text text-anchor="middle" x="431" y="-183" font-family="Helvetica,sans-Serif" font-size="10.00">Source::FillSegment</text>
</a>
</g>
</g>
<!-- Node2&#45;&gt;Node4 -->
<g id="edge3" class="edge"><title>Node2&#45;&gt;Node4</title>
<path fill="none" stroke="midnightblue" d="M286.397,-191C310.872,-191 339.203,-191 364.201,-191"/>
<polygon fill="midnightblue" stroke="midnightblue" points="286.165,-187.5 276.165,-191 286.165,-194.5 286.165,-187.5"/>
</g>
<!-- Node5 -->
<g id="node5" class="node"><title>Node5</title>
<g id="a_node5"><a xlink:href="classelftosb_1_1_pattern_source.html" target="_top" xlink:title="Data source for a repeating pattern. ">
<polygon fill="white" stroke="black" points="374.5,-137.5 374.5,-156.5 487.5,-156.5 487.5,-137.5 374.5,-137.5"/>
<text text-anchor="middle" x="431" y="-144.5" font-family="Helvetica,sans-Serif" font-size="10.00">elftosb::PatternSource</text>
</a>
</g>
</g>
<!-- Node2&#45;&gt;Node5 -->
<g id="edge4" class="edge"><title>Node2&#45;&gt;Node5</title>
<path fill="none" stroke="midnightblue" d="M286.288,-177.997C318.243,-171.104 356.797,-162.789 385.924,-156.507"/>
<polygon fill="midnightblue" stroke="midnightblue" points="285.203,-174.65 276.165,-180.18 286.678,-181.493 285.203,-174.65"/>
</g>
</g>
</svg>
