<?xml version="1.0" encoding="UTF-8" standalone="no"?>
<!DOCTYPE svg PUBLIC "-//W3C//DTD SVG 1.1//EN"
 "http://www.w3.org/Graphics/SVG/1.1/DTD/svg11.dtd">
<!-- Generated by graphviz version 2.38.0 (20140413.2041)
 -->
<!-- Title: BlHost Pages: 1 -->
<svg width="314pt" height="241pt"
 viewBox="0.00 0.00 313.50 241.00" xmlns="http://www.w3.org/2000/svg" xmlns:xlink="http://www.w3.org/1999/xlink">
<g id="graph0" class="graph" transform="scale(1 1) rotate(0) translate(4 237)">
<title>BlHost</title>
<polygon fill="white" stroke="none" points="-4,4 -4,-237 309.5,-237 309.5,4 -4,4"/>
<!-- Node1 -->
<g id="node1" class="node"><title>Node1</title>
<polygon fill="#bfbfbf" stroke="black" points="87,-0.5 87,-19.5 133,-19.5 133,-0.5 87,-0.5"/>
<text text-anchor="middle" x="110" y="-7.5" font-family="Helvetica,sans-Serif" font-size="10.00">BlHost</text>
</g>
<!-- Node2 -->
<g id="node2" class="node"><title>Node2</title>
<g id="a_node2"><a xlink:href="group__logging.html#class_stdout_logger" target="_top" xlink:title="Simple logger that writes to stdout. ">
<polygon fill="white" stroke="black" points="0,-78.5 0,-97.5 74,-97.5 74,-78.5 0,-78.5"/>
<text text-anchor="middle" x="37" y="-85.5" font-family="Helvetica,sans-Serif" font-size="10.00">StdoutLogger</text>
</a>
</g>
</g>
<!-- Node2&#45;&gt;Node1 -->
<g id="edge1" class="edge"><title>Node2&#45;&gt;Node1</title>
<path fill="none" stroke="#9a32cd" stroke-dasharray="5,2" d="M39.4751,-68.2262C41.621,-58.2683 45.6089,-46.3929 53,-38 61.8289,-27.9745 75.1881,-21.3726 86.7546,-17.208"/>
<polygon fill="#9a32cd" stroke="#9a32cd" points="35.9768,-67.9212 37.7517,-78.3663 42.8779,-69.0942 35.9768,-67.9212"/>
<text text-anchor="middle" x="74.5" y="-46.5" font-family="Helvetica,sans-Serif" font-size="10.00"> m_logger</text>
</g>
<!-- Node3 -->
<g id="node3" class="node"><title>Node3</title>
<g id="a_node3"><a xlink:href="group__logging.html#class_logger" target="_top" xlink:title="Base logger class. ">
<polygon fill="white" stroke="black" points="14,-145.5 14,-164.5 60,-164.5 60,-145.5 14,-145.5"/>
<text text-anchor="middle" x="37" y="-152.5" font-family="Helvetica,sans-Serif" font-size="10.00">Logger</text>
</a>
</g>
</g>
<!-- Node3&#45;&gt;Node2 -->
<g id="edge2" class="edge"><title>Node3&#45;&gt;Node2</title>
<path fill="none" stroke="midnightblue" d="M30.7999,-135.037C29.7357,-122.67 30.2161,-107.12 32.2409,-97.6273"/>
<polygon fill="midnightblue" stroke="midnightblue" points="27.3732,-135.808 32.2115,-145.234 34.3071,-134.848 27.3732,-135.808"/>
</g>
<!-- Node3&#45;&gt;Node2 -->
<g id="edge3" class="edge"><title>Node3&#45;&gt;Node2</title>
<path fill="none" stroke="midnightblue" d="M43.2001,-135.037C44.2643,-122.67 43.7839,-107.12 41.7591,-97.6273"/>
<polygon fill="midnightblue" stroke="midnightblue" points="39.6929,-134.848 41.7885,-145.234 46.6268,-135.808 39.6929,-134.848"/>
</g>
<!-- Node4 -->
<g id="node4" class="node"><title>Node4</title>
<g id="a_node4"><a xlink:title="STL class. ">
<polygon fill="white" stroke="#bfbfbf" points="122,-145.5 122,-164.5 182,-164.5 182,-145.5 122,-145.5"/>
<text text-anchor="middle" x="152" y="-152.5" font-family="Helvetica,sans-Serif" font-size="10.00">std::string</text>
</a>
</g>
</g>
<!-- Node4&#45;&gt;Node1 -->
<g id="edge4" class="edge"><title>Node4&#45;&gt;Node1</title>
<path fill="none" stroke="#9a32cd" stroke-dasharray="5,2" d="M139.908,-137.072C132.903,-126.382 124.587,-111.99 120,-98 110.954,-70.4061 109.84,-35.5584 109.857,-19.6413"/>
<polygon fill="#9a32cd" stroke="#9a32cd" points="137.072,-139.125 145.6,-145.411 142.853,-135.178 137.072,-139.125"/>
<text text-anchor="middle" x="147" y="-85.5" font-family="Helvetica,sans-Serif" font-size="10.00"> m_comPort</text>
</g>
<!-- Node6 -->
<g id="node6" class="node"><title>Node6</title>
<polygon fill="white" stroke="#bfbfbf" points="182.5,-78.5 182.5,-97.5 305.5,-97.5 305.5,-78.5 182.5,-78.5"/>
<text text-anchor="middle" x="244" y="-85.5" font-family="Helvetica,sans-Serif" font-size="10.00">std::vector&lt; std::string &gt;</text>
</g>
<!-- Node4&#45;&gt;Node6 -->
<g id="edge7" class="edge"><title>Node4&#45;&gt;Node6</title>
<path fill="none" stroke="#9a32cd" stroke-dasharray="5,2" d="M172.637,-139.42C190.825,-126.569 216.708,-108.282 231.789,-97.6273"/>
<polygon fill="#9a32cd" stroke="#9a32cd" points="170.555,-136.605 164.408,-145.234 174.594,-142.322 170.555,-136.605"/>
<text text-anchor="middle" x="224.5" y="-119" font-family="Helvetica,sans-Serif" font-size="10.00"> elements</text>
</g>
<!-- Node5 -->
<g id="node5" class="node"><title>Node5</title>
<g id="a_node5"><a xlink:title="STL class. ">
<polygon fill="white" stroke="#bfbfbf" points="104.5,-202.5 104.5,-232.5 199.5,-232.5 199.5,-202.5 104.5,-202.5"/>
<text text-anchor="start" x="112.5" y="-220.5" font-family="Helvetica,sans-Serif" font-size="10.00">std::basic_string&lt;</text>
<text text-anchor="middle" x="152" y="-209.5" font-family="Helvetica,sans-Serif" font-size="10.00"> char &gt;</text>
</a>
</g>
</g>
<!-- Node5&#45;&gt;Node4 -->
<g id="edge5" class="edge"><title>Node5&#45;&gt;Node4</title>
<path fill="none" stroke="midnightblue" d="M152,-192.352C152,-182.513 152,-171.775 152,-164.54"/>
<polygon fill="midnightblue" stroke="midnightblue" points="148.5,-192.468 152,-202.468 155.5,-192.468 148.5,-192.468"/>
</g>
<!-- Node6&#45;&gt;Node1 -->
<g id="edge6" class="edge"><title>Node6&#45;&gt;Node1</title>
<path fill="none" stroke="#9a32cd" stroke-dasharray="5,2" d="M219.929,-73.348C192.465,-57.771 148.374,-32.7645 125.261,-19.6557"/>
<polygon fill="#9a32cd" stroke="#9a32cd" points="218.464,-76.5405 228.889,-78.4296 221.917,-70.4517 218.464,-76.5405"/>
<text text-anchor="middle" x="229" y="-52" font-family="Helvetica,sans-Serif" font-size="10.00"> m_busPalConfig</text>
<text text-anchor="middle" x="229" y="-41" font-family="Helvetica,sans-Serif" font-size="10.00">m_cmdv</text>
</g>
</g>
</svg>
