<?xml version="1.0" encoding="UTF-8" standalone="no"?>
<!DOCTYPE svg PUBLIC "-//W3C//DTD SVG 1.1//EN"
 "http://www.w3.org/Graphics/SVG/1.1/DTD/svg11.dtd">
<!-- Generated by graphviz version 2.38.0 (20140413.2041)
 -->
<!-- Title: elftosb::DataSectionContentsASTNode Pages: 1 -->
<svg width="1335pt" height="176pt"
 viewBox="0.00 0.00 1335.00 175.50" xmlns="http://www.w3.org/2000/svg" xmlns:xlink="http://www.w3.org/1999/xlink">
<g id="graph0" class="graph" transform="scale(1 1) rotate(0) translate(4 171.5)">
<title>elftosb::DataSectionContentsASTNode</title>
<polygon fill="white" stroke="none" points="-4,4 -4,-171.5 1331,-171.5 1331,4 -4,4"/>
<!-- Node1 -->
<g id="node1" class="node"><title>Node1</title>
<polygon fill="#bfbfbf" stroke="black" points="1184,-23.5 1184,-53.5 1327,-53.5 1327,-23.5 1184,-23.5"/>
<text text-anchor="start" x="1192" y="-41.5" font-family="Helvetica,sans-Serif" font-size="10.00">elftosb::DataSectionContents</text>
<text text-anchor="middle" x="1255.5" y="-30.5" font-family="Helvetica,sans-Serif" font-size="10.00">ASTNode</text>
</g>
<!-- Node2 -->
<g id="node2" class="node"><title>Node2</title>
<g id="a_node2"><a xlink:href="classelftosb_1_1_section_contents_a_s_t_node.html" target="_top" xlink:title="elftosb::SectionContents\lASTNode">
<polygon fill="white" stroke="black" points="1024,-69.5 1024,-99.5 1147,-99.5 1147,-69.5 1024,-69.5"/>
<text text-anchor="start" x="1032" y="-87.5" font-family="Helvetica,sans-Serif" font-size="10.00">elftosb::SectionContents</text>
<text text-anchor="middle" x="1085.5" y="-76.5" font-family="Helvetica,sans-Serif" font-size="10.00">ASTNode</text>
</a>
</g>
</g>
<!-- Node2&#45;&gt;Node1 -->
<g id="edge1" class="edge"><title>Node2&#45;&gt;Node1</title>
<path fill="none" stroke="midnightblue" d="M1151.3,-66.7566C1167.27,-62.385 1184.21,-57.7457 1199.65,-53.5174"/>
<polygon fill="midnightblue" stroke="midnightblue" points="1150.23,-63.4212 1141.51,-69.4379 1152.08,-70.1727 1150.23,-63.4212"/>
</g>
<!-- Node3 -->
<g id="node3" class="node"><title>Node3</title>
<g id="a_node3"><a xlink:href="classelftosb_1_1_a_s_t_node.html" target="_top" xlink:title="The base class for all AST node classes. ">
<polygon fill="white" stroke="black" points="188,-82 188,-101 280,-101 280,-82 188,-82"/>
<text text-anchor="middle" x="234" y="-89" font-family="Helvetica,sans-Serif" font-size="10.00">elftosb::ASTNode</text>
</a>
</g>
</g>
<!-- Node3&#45;&gt;Node2 -->
<g id="edge2" class="edge"><title>Node3&#45;&gt;Node2</title>
<path fill="none" stroke="midnightblue" d="M256.069,-106.917C288.566,-129.13 353.652,-167.5 415.5,-167.5 415.5,-167.5 415.5,-167.5 892.5,-167.5 960.227,-167.5 1031.17,-123.449 1064.71,-99.5307"/>
<polygon fill="midnightblue" stroke="midnightblue" points="257.996,-103.994 247.797,-101.125 253.982,-109.728 257.996,-103.994"/>
</g>
<!-- Node3&#45;&gt;Node3 -->
<g id="edge4" class="edge"><title>Node3&#45;&gt;Node3</title>
<path fill="none" stroke="#9a32cd" stroke-dasharray="5,2" d="M218.531,-111.266C219.746,-115.997 224.902,-119.5 234,-119.5 248.93,-119.5 253.245,-110.065 246.947,-101.257"/>
<polygon fill="#9a32cd" stroke="#9a32cd" points="222.003,-111.809 221.053,-101.257 215.216,-110.099 222.003,-111.809"/>
<text text-anchor="middle" x="234" y="-122.5" font-family="Helvetica,sans-Serif" font-size="10.00"> m_parent</text>
</g>
<!-- Node6 -->
<g id="node6" class="node"><title>Node6</title>
<g id="a_node6"><a xlink:href="classelftosb_1_1_list_a_s_t_node.html" target="_top" xlink:title="AST node that contains other AST nodes. ">
<polygon fill="white" stroke="black" points="605,-98 605,-117 713,-117 713,-98 605,-98"/>
<text text-anchor="middle" x="659" y="-105" font-family="Helvetica,sans-Serif" font-size="10.00">elftosb::ListASTNode</text>
</a>
</g>
</g>
<!-- Node3&#45;&gt;Node6 -->
<g id="edge7" class="edge"><title>Node3&#45;&gt;Node6</title>
<path fill="none" stroke="midnightblue" d="M280.282,-103.243C286.212,-104.497 292.231,-105.63 298,-106.5 425.071,-125.654 458.695,-122.706 587,-115.5 592.821,-115.173 598.898,-114.697 604.94,-114.136"/>
<polygon fill="midnightblue" stroke="midnightblue" points="280.968,-99.8096 270.445,-101.042 279.44,-106.641 280.968,-99.8096"/>
</g>
<!-- Node7 -->
<g id="node7" class="node"><title>Node7</title>
<polygon fill="white" stroke="#bfbfbf" points="359,-82 359,-101 474,-101 474,-82 359,-82"/>
<text text-anchor="middle" x="416.5" y="-89" font-family="Helvetica,sans-Serif" font-size="10.00">std::list&lt; ASTNode * &gt;</text>
</g>
<!-- Node3&#45;&gt;Node7 -->
<g id="edge9" class="edge"><title>Node3&#45;&gt;Node7</title>
<path fill="none" stroke="#9a32cd" stroke-dasharray="5,2" d="M290.139,-91.5C311.868,-91.5 336.814,-91.5 358.702,-91.5"/>
<polygon fill="#9a32cd" stroke="#9a32cd" points="290.082,-88.0001 280.082,-91.5 290.082,-95.0001 290.082,-88.0001"/>
<text text-anchor="middle" x="319.5" y="-94.5" font-family="Helvetica,sans-Serif" font-size="10.00"> elements</text>
</g>
<!-- Node9 -->
<g id="node9" class="node"><title>Node9</title>
<g id="a_node9"><a xlink:href="classelftosb_1_1_expr_a_s_t_node.html" target="_top" xlink:title="Abstract base class for all expression AST nodes. ">
<polygon fill="white" stroke="black" points="360,-44 360,-63 473,-63 473,-44 360,-44"/>
<text text-anchor="middle" x="416.5" y="-51" font-family="Helvetica,sans-Serif" font-size="10.00">elftosb::ExprASTNode</text>
</a>
</g>
</g>
<!-- Node3&#45;&gt;Node9 -->
<g id="edge12" class="edge"><title>Node3&#45;&gt;Node9</title>
<path fill="none" stroke="midnightblue" d="M290.061,-79.9081C315.781,-74.4934 346.022,-68.1268 370.367,-63.0017"/>
<polygon fill="midnightblue" stroke="midnightblue" points="289.147,-76.5239 280.082,-82.009 290.589,-83.3738 289.147,-76.5239"/>
</g>
<!-- Node10 -->
<g id="node10" class="node"><title>Node10</title>
<g id="a_node10"><a xlink:href="group__smart__pointer.html" target="_top" xlink:title="smart_ptr\&lt; elftosb\l::ASTNode \&gt;">
<polygon fill="white" stroke="black" points="492,-0.5 492,-30.5 587,-30.5 587,-0.5 492,-0.5"/>
<text text-anchor="start" x="500" y="-18.5" font-family="Helvetica,sans-Serif" font-size="10.00">smart_ptr&lt; elftosb</text>
<text text-anchor="middle" x="539.5" y="-7.5" font-family="Helvetica,sans-Serif" font-size="10.00">::ASTNode &gt;</text>
</a>
</g>
</g>
<!-- Node3&#45;&gt;Node10 -->
<g id="edge14" class="edge"><title>Node3&#45;&gt;Node10</title>
<path fill="none" stroke="#9a32cd" stroke-dasharray="5,2" d="M258.507,-76.6658C270.122,-69.7025 284.509,-61.6115 298,-55.5 324.118,-43.6685 331.009,-40.7154 359,-34.5 403.512,-24.6162 455.41,-19.8299 491.92,-17.5394"/>
<polygon fill="#9a32cd" stroke="#9a32cd" points="256.567,-73.7498 249.857,-81.9492 260.215,-79.7237 256.567,-73.7498"/>
<text text-anchor="middle" x="319.5" y="-58.5" font-family="Helvetica,sans-Serif" font-size="10.00"> _p</text>
</g>
<!-- Node4 -->
<g id="node4" class="node"><title>Node4</title>
<g id="a_node4"><a xlink:href="structelftosb_1_1token__loc__t.html" target="_top" xlink:title="Token location in the source file. ">
<polygon fill="white" stroke="black" points="0,-82 0,-101 101,-101 101,-82 0,-82"/>
<text text-anchor="middle" x="50.5" y="-89" font-family="Helvetica,sans-Serif" font-size="10.00">elftosb::token_loc_t</text>
</a>
</g>
</g>
<!-- Node4&#45;&gt;Node3 -->
<g id="edge3" class="edge"><title>Node4&#45;&gt;Node3</title>
<path fill="none" stroke="#9a32cd" stroke-dasharray="5,2" d="M111.183,-91.5C136.134,-91.5 164.648,-91.5 187.814,-91.5"/>
<polygon fill="#9a32cd" stroke="#9a32cd" points="111.096,-88.0001 101.096,-91.5 111.096,-95.0001 111.096,-88.0001"/>
<text text-anchor="middle" x="144.5" y="-94.5" font-family="Helvetica,sans-Serif" font-size="10.00"> m_location</text>
</g>
<!-- Node5 -->
<g id="node5" class="node"><title>Node5</title>
<g id="a_node5"><a xlink:href="group__smart__pointer.html" target="_top" xlink:title="smart_ptr\&lt; elftosb\l::ListASTNode \&gt;">
<polygon fill="white" stroke="black" points="844,-92.5 844,-122.5 939,-122.5 939,-92.5 844,-92.5"/>
<text text-anchor="start" x="852" y="-110.5" font-family="Helvetica,sans-Serif" font-size="10.00">smart_ptr&lt; elftosb</text>
<text text-anchor="middle" x="891.5" y="-99.5" font-family="Helvetica,sans-Serif" font-size="10.00">::ListASTNode &gt;</text>
</a>
</g>
</g>
<!-- Node5&#45;&gt;Node2 -->
<g id="edge5" class="edge"><title>Node5&#45;&gt;Node2</title>
<path fill="none" stroke="#9a32cd" stroke-dasharray="5,2" d="M949.59,-100.661C972.989,-97.858 1000.1,-94.6103 1023.86,-91.7646"/>
<polygon fill="#9a32cd" stroke="#9a32cd" points="948.981,-97.2089 939.468,-101.874 949.814,-104.159 948.981,-97.2089"/>
<text text-anchor="middle" x="981.5" y="-102.5" font-family="Helvetica,sans-Serif" font-size="10.00"> m_options</text>
</g>
<!-- Node6&#45;&gt;Node5 -->
<g id="edge6" class="edge"><title>Node6&#45;&gt;Node5</title>
<path fill="none" stroke="#9a32cd" stroke-dasharray="5,2" d="M723.639,-107.5C761.712,-107.5 809.255,-107.5 843.842,-107.5"/>
<polygon fill="#9a32cd" stroke="#9a32cd" points="723.171,-104 713.171,-107.5 723.171,-111 723.171,-104"/>
<text text-anchor="middle" x="778.5" y="-110.5" font-family="Helvetica,sans-Serif" font-size="10.00"> _p</text>
</g>
<!-- Node7&#45;&gt;Node6 -->
<g id="edge8" class="edge"><title>Node7&#45;&gt;Node6</title>
<path fill="none" stroke="#9a32cd" stroke-dasharray="5,2" d="M484.176,-95.9358C522.285,-98.4711 569.417,-101.607 604.985,-103.973"/>
<polygon fill="#9a32cd" stroke="#9a32cd" points="484.401,-92.4431 474.191,-95.2715 483.936,-99.4277 484.401,-92.4431"/>
<text text-anchor="middle" x="539.5" y="-106.5" font-family="Helvetica,sans-Serif" font-size="10.00"> m_list</text>
</g>
<!-- Node8 -->
<g id="node8" class="node"><title>Node8</title>
<g id="a_node8"><a xlink:href="group__smart__pointer.html" target="_top" xlink:title="smart_ptr\&lt; elftosb\l::ExprASTNode \&gt;">
<polygon fill="white" stroke="black" points="731,-43.5 731,-73.5 826,-73.5 826,-43.5 731,-43.5"/>
<text text-anchor="start" x="739" y="-61.5" font-family="Helvetica,sans-Serif" font-size="10.00">smart_ptr&lt; elftosb</text>
<text text-anchor="middle" x="778.5" y="-50.5" font-family="Helvetica,sans-Serif" font-size="10.00">::ExprASTNode &gt;</text>
</a>
</g>
</g>
<!-- Node8&#45;&gt;Node2 -->
<g id="edge10" class="edge"><title>Node8&#45;&gt;Node2</title>
<path fill="none" stroke="#9a32cd" stroke-dasharray="5,2" d="M836.286,-63.0203C866.747,-65.4724 904.927,-68.5894 939,-71.5 966.922,-73.8852 997.848,-76.6334 1023.98,-78.9868"/>
<polygon fill="#9a32cd" stroke="#9a32cd" points="836.517,-59.5277 826.269,-62.2155 835.956,-66.5052 836.517,-59.5277"/>
<text text-anchor="middle" x="891.5" y="-74.5" font-family="Helvetica,sans-Serif" font-size="10.00"> m_sectionExpr</text>
</g>
<!-- Node9&#45;&gt;Node8 -->
<g id="edge11" class="edge"><title>Node9&#45;&gt;Node8</title>
<path fill="none" stroke="#9a32cd" stroke-dasharray="5,2" d="M483.63,-54.4185C555.358,-55.4147 668.019,-56.9794 730.971,-57.8538"/>
<polygon fill="#9a32cd" stroke="#9a32cd" points="483.403,-50.9151 473.355,-54.2758 483.305,-57.9144 483.403,-50.9151"/>
<text text-anchor="middle" x="539.5" y="-59.5" font-family="Helvetica,sans-Serif" font-size="10.00"> _p</text>
</g>
<!-- Node10&#45;&gt;Node1 -->
<g id="edge13" class="edge"><title>Node10&#45;&gt;Node1</title>
<path fill="none" stroke="#9a32cd" stroke-dasharray="5,2" d="M597.459,-15.5C645.467,-15.5 715.975,-15.5 777.5,-15.5 777.5,-15.5 777.5,-15.5 1086.5,-15.5 1118.59,-15.5 1153.81,-19.6697 1183.68,-24.4583"/>
<polygon fill="#9a32cd" stroke="#9a32cd" points="597.267,-12.0001 587.267,-15.5 597.267,-19.0001 597.267,-12.0001"/>
<text text-anchor="middle" x="891.5" y="-18.5" font-family="Helvetica,sans-Serif" font-size="10.00"> m_contents</text>
</g>
</g>
</svg>
