<?xml version="1.0" encoding="UTF-8" standalone="no"?>
<!DOCTYPE svg PUBLIC "-//W3C//DTD SVG 1.1//EN"
 "http://www.w3.org/Graphics/SVG/1.1/DTD/svg11.dtd">
<!-- Generated by graphviz version 2.38.0 (20140413.2041)
 -->
<!-- Title: Json::Writer Pages: 1 -->
<svg width="212pt" height="84pt"
 viewBox="0.00 0.00 212.00 84.00" xmlns="http://www.w3.org/2000/svg" xmlns:xlink="http://www.w3.org/1999/xlink">
<g id="graph0" class="graph" transform="scale(1 1) rotate(0) translate(4 80)">
<title>Json::Writer</title>
<polygon fill="white" stroke="none" points="-4,4 -4,-80 208,-80 208,4 -4,4"/>
<!-- Node1 -->
<g id="node1" class="node"><title>Node1</title>
<polygon fill="#bfbfbf" stroke="black" points="65,-56.5 65,-75.5 134,-75.5 134,-56.5 65,-56.5"/>
<text text-anchor="middle" x="99.5" y="-63.5" font-family="Helvetica,sans-Serif" font-size="10.00">Json::Writer</text>
</g>
<!-- Node2 -->
<g id="node2" class="node"><title>Node2</title>
<g id="a_node2"><a xlink:href="class_json_1_1_fast_writer.html" target="_top" xlink:title="Outputs a Value in JSON format without formatting (not human friendly). ">
<polygon fill="white" stroke="black" points="0,-0.5 0,-19.5 89,-19.5 89,-0.5 0,-0.5"/>
<text text-anchor="middle" x="44.5" y="-7.5" font-family="Helvetica,sans-Serif" font-size="10.00">Json::FastWriter</text>
</a>
</g>
</g>
<!-- Node1&#45;&gt;Node2 -->
<g id="edge1" class="edge"><title>Node1&#45;&gt;Node2</title>
<path fill="none" stroke="midnightblue" d="M83.2062,-49.0024C73.4594,-39.4329 61.447,-27.6389 53.4131,-19.7511"/>
<polygon fill="midnightblue" stroke="midnightblue" points="80.8301,-51.5746 90.4179,-56.083 85.7343,-46.5796 80.8301,-51.5746"/>
</g>
<!-- Node3 -->
<g id="node3" class="node"><title>Node3</title>
<g id="a_node3"><a xlink:href="class_json_1_1_styled_writer.html" target="_top" xlink:title="Writes a Value in JSON format in a human friendly way. ">
<polygon fill="white" stroke="black" points="107,-0.5 107,-19.5 204,-19.5 204,-0.5 107,-0.5"/>
<text text-anchor="middle" x="155.5" y="-7.5" font-family="Helvetica,sans-Serif" font-size="10.00">Json::StyledWriter</text>
</a>
</g>
</g>
<!-- Node1&#45;&gt;Node3 -->
<g id="edge2" class="edge"><title>Node1&#45;&gt;Node3</title>
<path fill="none" stroke="midnightblue" d="M115.83,-49.2533C125.765,-39.6731 138.088,-27.7906 146.339,-19.8339"/>
<polygon fill="midnightblue" stroke="midnightblue" points="113.266,-46.8631 108.497,-56.324 118.125,-51.902 113.266,-46.8631"/>
</g>
</g>
</svg>
