<?xml version="1.0" encoding="UTF-8" standalone="no"?>
<!DOCTYPE svg PUBLIC "-//W3C//DTD SVG 1.1//EN"
 "http://www.w3.org/Graphics/SVG/1.1/DTD/svg11.dtd">
<!-- Generated by graphviz version 2.38.0 (20140413.2041)
 -->
<!-- Title: elftosb::EncoreBootImage Pages: 1 -->
<svg width="1109pt" height="153pt"
 viewBox="0.00 0.00 1109.00 152.50" xmlns="http://www.w3.org/2000/svg" xmlns:xlink="http://www.w3.org/1999/xlink">
<g id="graph0" class="graph" transform="scale(1 1) rotate(0) translate(4 148.5)">
<title>elftosb::EncoreBootImage</title>
<polygon fill="white" stroke="none" points="-4,4 -4,-148.5 1105,-148.5 1105,4 -4,4"/>
<!-- Node1 -->
<g id="node1" class="node"><title>Node1</title>
<polygon fill="#bfbfbf" stroke="black" points="580,-67.5 580,-86.5 708,-86.5 708,-67.5 580,-67.5"/>
<text text-anchor="middle" x="644" y="-74.5" font-family="Helvetica,sans-Serif" font-size="10.00">elftosb::EncoreBootImage</text>
</g>
<!-- Node9 -->
<g id="node9" class="node"><title>Node9</title>
<g id="a_node9"><a xlink:href="classelftosb_1_1_encore_boot_image_1_1_section.html" target="_top" xlink:title="Base class for a section of an Encore boot image. ">
<polygon fill="white" stroke="black" points="787,-100 787,-130 915,-130 915,-100 787,-100"/>
<text text-anchor="start" x="795" y="-118" font-family="Helvetica,sans-Serif" font-size="10.00">elftosb::EncoreBootImage</text>
<text text-anchor="middle" x="851" y="-107" font-family="Helvetica,sans-Serif" font-size="10.00">::Section</text>
</a>
</g>
</g>
<!-- Node1&#45;&gt;Node9 -->
<g id="edge12" class="edge"><title>Node1&#45;&gt;Node9</title>
<path fill="none" stroke="#9a32cd" stroke-dasharray="5,2" d="M706.348,-88.3718C731.747,-93.0799 761.189,-98.5374 786.781,-103.281"/>
<polygon fill="#9a32cd" stroke="#9a32cd" points="706.936,-84.9213 696.466,-86.54 705.66,-91.804 706.936,-84.9213"/>
<text text-anchor="middle" x="747.5" y="-103" font-family="Helvetica,sans-Serif" font-size="10.00"> m_image</text>
</g>
<!-- Node2 -->
<g id="node2" class="node"><title>Node2</title>
<g id="a_node2"><a xlink:href="classelftosb_1_1_boot_image.html" target="_top" xlink:title="Abstract base class for all boot image format classes. ">
<polygon fill="white" stroke="black" points="330.5,-123.5 330.5,-142.5 428.5,-142.5 428.5,-123.5 330.5,-123.5"/>
<text text-anchor="middle" x="379.5" y="-130.5" font-family="Helvetica,sans-Serif" font-size="10.00">elftosb::BootImage</text>
</a>
</g>
</g>
<!-- Node2&#45;&gt;Node1 -->
<g id="edge1" class="edge"><title>Node2&#45;&gt;Node1</title>
<path fill="none" stroke="midnightblue" d="M439.141,-128.353C475.014,-124.667 521.62,-118.362 562,-108 583.002,-102.611 606.006,-93.4756 622.114,-86.5141"/>
<polygon fill="midnightblue" stroke="midnightblue" points="438.455,-124.903 428.847,-129.369 439.143,-131.87 438.455,-124.903"/>
</g>
<!-- Node3 -->
<g id="node3" class="node"><title>Node3</title>
<g id="a_node3"><a xlink:href="class_a_e_s_key.html" target="_top" xlink:title="AESKey\&lt; 128 \&gt;">
<polygon fill="white" stroke="black" points="146,-66.5 146,-85.5 234,-85.5 234,-66.5 146,-66.5"/>
<text text-anchor="middle" x="190" y="-73.5" font-family="Helvetica,sans-Serif" font-size="10.00">AESKey&lt; 128 &gt;</text>
</a>
</g>
</g>
<!-- Node3&#45;&gt;Node1 -->
<g id="edge2" class="edge"><title>Node3&#45;&gt;Node1</title>
<path fill="none" stroke="#9a32cd" stroke-dasharray="5,2" d="M244.343,-79.7012C246.931,-79.8169 249.494,-79.9179 252,-80 389.704,-84.51 424.246,-82.5501 562,-80 567.769,-79.8932 573.767,-79.7437 579.774,-79.5678"/>
<polygon fill="#9a32cd" stroke="#9a32cd" points="244.468,-76.2032 234.304,-79.1907 244.113,-83.1941 244.468,-76.2032"/>
<text text-anchor="middle" x="379.5" y="-86" font-family="Helvetica,sans-Serif" font-size="10.00"> m_sessionKey</text>
</g>
<!-- Node7 -->
<g id="node7" class="node"><title>Node7</title>
<polygon fill="white" stroke="#bfbfbf" points="313,-38.5 313,-57.5 446,-57.5 446,-38.5 313,-38.5"/>
<text text-anchor="middle" x="379.5" y="-45.5" font-family="Helvetica,sans-Serif" font-size="10.00">std::vector&lt; AES128Key &gt;</text>
</g>
<!-- Node3&#45;&gt;Node7 -->
<g id="edge8" class="edge"><title>Node3&#45;&gt;Node7</title>
<path fill="none" stroke="#9a32cd" stroke-dasharray="5,2" d="M244.144,-68.0638C266.097,-64.7855 291.732,-60.9573 314.691,-57.5288"/>
<polygon fill="#9a32cd" stroke="#9a32cd" points="243.39,-64.6376 234.016,-69.5762 244.424,-71.5608 243.39,-64.6376"/>
<text text-anchor="middle" x="273.5" y="-70" font-family="Helvetica,sans-Serif" font-size="10.00"> elements</text>
</g>
<!-- Node4 -->
<g id="node4" class="node"><title>Node4</title>
<g id="a_node4"><a xlink:href="class_a_e_s_key_base.html" target="_top" xlink:title="Base class for AESKey&lt;S&gt;. ">
<polygon fill="white" stroke="black" points="0,-66.5 0,-85.5 77,-85.5 77,-66.5 0,-66.5"/>
<text text-anchor="middle" x="38.5" y="-73.5" font-family="Helvetica,sans-Serif" font-size="10.00">AESKeyBase</text>
</a>
</g>
</g>
<!-- Node4&#45;&gt;Node3 -->
<g id="edge3" class="edge"><title>Node4&#45;&gt;Node3</title>
<path fill="none" stroke="midnightblue" d="M87.3806,-69.6536C106.212,-69.0639 127.668,-69.1204 145.997,-69.8231"/>
<polygon fill="midnightblue" stroke="midnightblue" points="87.0819,-66.1624 77.2252,-70.0476 87.3534,-73.1571 87.0819,-66.1624"/>
</g>
<!-- Node4&#45;&gt;Node3 -->
<g id="edge4" class="edge"><title>Node4&#45;&gt;Node3</title>
<path fill="none" stroke="midnightblue" d="M87.3806,-82.3464C106.212,-82.9361 127.668,-82.8796 145.997,-82.1769"/>
<polygon fill="midnightblue" stroke="midnightblue" points="87.3534,-78.8429 77.2252,-81.9524 87.0819,-85.8376 87.3534,-78.8429"/>
</g>
<!-- Node5 -->
<g id="node5" class="node"><title>Node5</title>
<polygon fill="white" stroke="#bfbfbf" points="24,-28.5 24,-47.5 53,-47.5 53,-28.5 24,-28.5"/>
<text text-anchor="middle" x="38.5" y="-35.5" font-family="Helvetica,sans-Serif" font-size="10.00">S</text>
</g>
<!-- Node5&#45;&gt;Node3 -->
<g id="edge5" class="edge"><title>Node5&#45;&gt;Node3</title>
<path fill="none" stroke="#9a32cd" stroke-dasharray="5,2" d="M62.8922,-43.9458C86.5693,-49.9641 123.555,-59.3652 151.361,-66.4328"/>
<polygon fill="#9a32cd" stroke="#9a32cd" points="63.5849,-40.5107 53.0308,-41.4393 61.8604,-47.295 63.5849,-40.5107"/>
<text text-anchor="middle" x="111.5" y="-64" font-family="Helvetica,sans-Serif" font-size="10.00"> m_key</text>
</g>
<!-- Node6 -->
<g id="node6" class="node"><title>Node6</title>
<g id="a_node6"><a xlink:href="structelftosb_1_1version__t.html" target="_top" xlink:title="Same version struct used for 3600 boot image. ">
<polygon fill="white" stroke="black" points="335,-0.5 335,-19.5 424,-19.5 424,-0.5 335,-0.5"/>
<text text-anchor="middle" x="379.5" y="-7.5" font-family="Helvetica,sans-Serif" font-size="10.00">elftosb::version_t</text>
</a>
</g>
</g>
<!-- Node6&#45;&gt;Node1 -->
<g id="edge6" class="edge"><title>Node6&#45;&gt;Node1</title>
<path fill="none" stroke="#9a32cd" stroke-dasharray="5,2" d="M434.063,-11.0929C470.833,-13.1384 520.33,-18.4744 562,-32 587.553,-40.2942 614.237,-56.9169 629.702,-67.4724"/>
<polygon fill="#9a32cd" stroke="#9a32cd" points="434.206,-7.59579 424.046,-10.5991 433.861,-14.5873 434.206,-7.59579"/>
<text text-anchor="middle" x="513" y="-46" font-family="Helvetica,sans-Serif" font-size="10.00"> m_componentVersion</text>
<text text-anchor="middle" x="513" y="-35" font-family="Helvetica,sans-Serif" font-size="10.00">m_productVersion</text>
</g>
<!-- Node7&#45;&gt;Node1 -->
<g id="edge7" class="edge"><title>Node7&#45;&gt;Node1</title>
<path fill="none" stroke="#9a32cd" stroke-dasharray="5,2" d="M456.334,-56.3778C495.411,-60.6949 542.516,-65.8989 579.63,-69.9991"/>
<polygon fill="#9a32cd" stroke="#9a32cd" points="456.387,-52.8624 446.063,-55.2431 455.618,-59.8201 456.387,-52.8624"/>
<text text-anchor="middle" x="513" y="-71" font-family="Helvetica,sans-Serif" font-size="10.00"> m_keys</text>
</g>
<!-- Node8 -->
<g id="node8" class="node"><title>Node8</title>
<polygon fill="white" stroke="#bfbfbf" points="994,-79.5 994,-98.5 1101,-98.5 1101,-79.5 994,-79.5"/>
<text text-anchor="middle" x="1047.5" y="-86.5" font-family="Helvetica,sans-Serif" font-size="10.00">std::list&lt; Section * &gt;</text>
</g>
<!-- Node8&#45;&gt;Node1 -->
<g id="edge9" class="edge"><title>Node8&#45;&gt;Node1</title>
<path fill="none" stroke="#9a32cd" stroke-dasharray="5,2" d="M983.665,-83.3412C961.935,-81.6182 937.414,-79.9342 915,-79 844.161,-76.0476 762.78,-75.8857 708.041,-76.2476"/>
<polygon fill="#9a32cd" stroke="#9a32cd" points="983.51,-86.84 993.76,-84.1599 984.076,-79.8629 983.51,-86.84"/>
<text text-anchor="middle" x="851" y="-82" font-family="Helvetica,sans-Serif" font-size="10.00"> m_sections</text>
</g>
<!-- Node9&#45;&gt;Node8 -->
<g id="edge10" class="edge"><title>Node9&#45;&gt;Node8</title>
<path fill="none" stroke="#9a32cd" stroke-dasharray="5,2" d="M925.131,-105.224C947.937,-102.176 972.631,-98.8745 993.754,-96.0508"/>
<polygon fill="#9a32cd" stroke="#9a32cd" points="924.597,-101.764 915.149,-106.559 925.524,-108.703 924.597,-101.764"/>
<text text-anchor="middle" x="954.5" y="-107" font-family="Helvetica,sans-Serif" font-size="10.00"> elements</text>
</g>
<!-- Node10 -->
<g id="node10" class="node"><title>Node10</title>
<g id="a_node10"><a xlink:href="classelftosb_1_1_encore_boot_image_1_1_cipher_block_generator.html" target="_top" xlink:title="Base class for objects that produce cipher blocks. ">
<polygon fill="white" stroke="black" points="580,-114 580,-144 708,-144 708,-114 580,-114"/>
<text text-anchor="start" x="588" y="-132" font-family="Helvetica,sans-Serif" font-size="10.00">elftosb::EncoreBootImage</text>
<text text-anchor="middle" x="644" y="-121" font-family="Helvetica,sans-Serif" font-size="10.00">::CipherBlockGenerator</text>
</a>
</g>
</g>
<!-- Node10&#45;&gt;Node9 -->
<g id="edge11" class="edge"><title>Node10&#45;&gt;Node9</title>
<path fill="none" stroke="midnightblue" d="M718.293,-123.995C740.653,-122.468 765.036,-120.802 786.676,-119.325"/>
<polygon fill="midnightblue" stroke="midnightblue" points="717.918,-120.512 708.179,-124.685 718.395,-127.496 717.918,-120.512"/>
</g>
</g>
</svg>
