<?xml version="1.0" encoding="UTF-8" standalone="no"?>
<!DOCTYPE svg PUBLIC "-//W3C//DTD SVG 1.1//EN"
 "http://www.w3.org/Graphics/SVG/1.1/DTD/svg11.dtd">
<!-- Generated by graphviz version 2.38.0 (20140413.2041)
 -->
<!-- Title: elftosb::SourceFile Pages: 1 -->
<svg width="359pt" height="434pt"
 viewBox="0.00 0.00 358.50 434.00" xmlns="http://www.w3.org/2000/svg" xmlns:xlink="http://www.w3.org/1999/xlink">
<g id="graph0" class="graph" transform="scale(1 1) rotate(0) translate(4 430)">
<title>elftosb::SourceFile</title>
<polygon fill="white" stroke="none" points="-4,4 -4,-430 354.5,-430 354.5,4 -4,4"/>
<!-- Node1 -->
<g id="node1" class="node"><title>Node1</title>
<polygon fill="#bfbfbf" stroke="black" points="123.5,-0.5 123.5,-19.5 221.5,-19.5 221.5,-0.5 123.5,-0.5"/>
<text text-anchor="middle" x="172.5" y="-7.5" font-family="Helvetica,sans-Serif" font-size="10.00">elftosb::SourceFile</text>
</g>
<!-- Node2 -->
<g id="node2" class="node"><title>Node2</title>
<g id="a_node2"><a xlink:href="group__smart__pointer.html" target="_top" xlink:title="smart_ptr\&lt; elftosb\l::OptionContext \&gt;">
<polygon fill="white" stroke="black" points="19,-67.5 19,-97.5 114,-97.5 114,-67.5 19,-67.5"/>
<text text-anchor="start" x="27" y="-85.5" font-family="Helvetica,sans-Serif" font-size="10.00">smart_ptr&lt; elftosb</text>
<text text-anchor="middle" x="66.5" y="-74.5" font-family="Helvetica,sans-Serif" font-size="10.00">::OptionContext &gt;</text>
</a>
</g>
</g>
<!-- Node2&#45;&gt;Node1 -->
<g id="edge1" class="edge"><title>Node2&#45;&gt;Node1</title>
<path fill="none" stroke="#9a32cd" stroke-dasharray="5,2" d="M89.7759,-60.5608C98.7387,-52.998 109.279,-44.6848 119.5,-38 130.216,-30.991 142.986,-24.4372 153.306,-19.5421"/>
<polygon fill="#9a32cd" stroke="#9a32cd" points="87.3317,-58.0467 82.0427,-67.227 91.9022,-63.3487 87.3317,-58.0467"/>
<text text-anchor="middle" x="144" y="-41" font-family="Helvetica,sans-Serif" font-size="10.00"> m_options</text>
</g>
<!-- Node3 -->
<g id="node3" class="node"><title>Node3</title>
<g id="a_node3"><a xlink:href="classelftosb_1_1_option_context.html" target="_top" xlink:title="Pure abstract interface class to a table of options. ">
<polygon fill="white" stroke="black" points="0,-151 0,-170 113,-170 113,-151 0,-151"/>
<text text-anchor="middle" x="56.5" y="-158" font-family="Helvetica,sans-Serif" font-size="10.00">elftosb::OptionContext</text>
</a>
</g>
</g>
<!-- Node3&#45;&gt;Node2 -->
<g id="edge2" class="edge"><title>Node3&#45;&gt;Node2</title>
<path fill="none" stroke="#9a32cd" stroke-dasharray="5,2" d="M58.963,-140.782C60.7232,-127.404 63.0542,-109.688 64.6553,-97.5198"/>
<polygon fill="#9a32cd" stroke="#9a32cd" points="55.4817,-140.411 57.6471,-150.782 62.4218,-141.324 55.4817,-140.411"/>
<text text-anchor="middle" x="69.5" y="-119" font-family="Helvetica,sans-Serif" font-size="10.00"> _p</text>
</g>
<!-- Node4 -->
<g id="node4" class="node"><title>Node4</title>
<g id="a_node4"><a xlink:title="STL class. ">
<polygon fill="white" stroke="#bfbfbf" points="142.5,-73 142.5,-92 202.5,-92 202.5,-73 142.5,-73"/>
<text text-anchor="middle" x="172.5" y="-80" font-family="Helvetica,sans-Serif" font-size="10.00">std::string</text>
</a>
</g>
</g>
<!-- Node4&#45;&gt;Node1 -->
<g id="edge3" class="edge"><title>Node4&#45;&gt;Node1</title>
<path fill="none" stroke="#9a32cd" stroke-dasharray="5,2" d="M172.5,-62.442C172.5,-48.5305 172.5,-30.3203 172.5,-19.7154"/>
<polygon fill="#9a32cd" stroke="#9a32cd" points="169,-62.8553 172.5,-72.8553 176,-62.8553 169,-62.8553"/>
<text text-anchor="middle" x="190.5" y="-41" font-family="Helvetica,sans-Serif" font-size="10.00"> m_path</text>
</g>
<!-- Node5 -->
<g id="node5" class="node"><title>Node5</title>
<g id="a_node5"><a xlink:title="STL class. ">
<polygon fill="white" stroke="#bfbfbf" points="131,-145.5 131,-175.5 226,-175.5 226,-145.5 131,-145.5"/>
<text text-anchor="start" x="139" y="-163.5" font-family="Helvetica,sans-Serif" font-size="10.00">std::basic_string&lt;</text>
<text text-anchor="middle" x="178.5" y="-152.5" font-family="Helvetica,sans-Serif" font-size="10.00"> char &gt;</text>
</a>
</g>
</g>
<!-- Node5&#45;&gt;Node4 -->
<g id="edge4" class="edge"><title>Node5&#45;&gt;Node4</title>
<path fill="none" stroke="midnightblue" d="M176.579,-135.165C175.413,-120.396 173.996,-102.448 173.176,-92.0635"/>
<polygon fill="midnightblue" stroke="midnightblue" points="173.095,-135.511 177.371,-145.205 180.073,-134.961 173.095,-135.511"/>
</g>
<!-- Node6 -->
<g id="node6" class="node"><title>Node6</title>
<g id="a_node6"><a xlink:href="group__smart__pointer.html" target="_top" xlink:title="smart_ptr\&lt; std::ifstream \&gt;">
<polygon fill="white" stroke="black" points="220.5,-73 220.5,-92 350.5,-92 350.5,-73 220.5,-73"/>
<text text-anchor="middle" x="285.5" y="-80" font-family="Helvetica,sans-Serif" font-size="10.00">smart_ptr&lt; std::ifstream &gt;</text>
</a>
</g>
</g>
<!-- Node6&#45;&gt;Node1 -->
<g id="edge5" class="edge"><title>Node6&#45;&gt;Node1</title>
<path fill="none" stroke="#9a32cd" stroke-dasharray="5,2" d="M262.955,-67.4341C240.143,-53.2019 205.592,-31.6459 186.469,-19.7154"/>
<polygon fill="#9a32cd" stroke="#9a32cd" points="261.307,-70.5315 271.644,-72.8553 265.012,-64.5926 261.307,-70.5315"/>
<text text-anchor="middle" x="255" y="-41" font-family="Helvetica,sans-Serif" font-size="10.00"> m_stream</text>
</g>
<!-- Node7 -->
<g id="node7" class="node"><title>Node7</title>
<g id="a_node7"><a xlink:title="STL class. ">
<polygon fill="white" stroke="#bfbfbf" points="250,-151 250,-170 321,-170 321,-151 250,-151"/>
<text text-anchor="middle" x="285.5" y="-158" font-family="Helvetica,sans-Serif" font-size="10.00">std::ifstream</text>
</a>
</g>
</g>
<!-- Node7&#45;&gt;Node6 -->
<g id="edge6" class="edge"><title>Node7&#45;&gt;Node6</title>
<path fill="none" stroke="#9a32cd" stroke-dasharray="5,2" d="M285.5,-140.724C285.5,-125.197 285.5,-103.858 285.5,-92.1165"/>
<polygon fill="#9a32cd" stroke="#9a32cd" points="282,-140.782 285.5,-150.782 289,-140.782 282,-140.782"/>
<text text-anchor="middle" x="292.5" y="-119" font-family="Helvetica,sans-Serif" font-size="10.00"> _p</text>
</g>
<!-- Node8 -->
<g id="node8" class="node"><title>Node8</title>
<g id="a_node8"><a xlink:title="STL class. ">
<polygon fill="white" stroke="#bfbfbf" points="236,-213.5 236,-243.5 335,-243.5 335,-213.5 236,-213.5"/>
<text text-anchor="start" x="244" y="-231.5" font-family="Helvetica,sans-Serif" font-size="10.00">std::basic_ifstream</text>
<text text-anchor="middle" x="285.5" y="-220.5" font-family="Helvetica,sans-Serif" font-size="10.00">&lt; char &gt;</text>
</a>
</g>
</g>
<!-- Node8&#45;&gt;Node7 -->
<g id="edge7" class="edge"><title>Node8&#45;&gt;Node7</title>
<path fill="none" stroke="midnightblue" d="M285.5,-202.876C285.5,-191.471 285.5,-178.636 285.5,-170.328"/>
<polygon fill="midnightblue" stroke="midnightblue" points="282,-203.179 285.5,-213.179 289,-203.179 282,-203.179"/>
</g>
<!-- Node9 -->
<g id="node9" class="node"><title>Node9</title>
<g id="a_node9"><a xlink:title="STL class. ">
<polygon fill="white" stroke="#bfbfbf" points="237,-281.5 237,-311.5 334,-311.5 334,-281.5 237,-281.5"/>
<text text-anchor="start" x="245" y="-299.5" font-family="Helvetica,sans-Serif" font-size="10.00">std::basic_istream</text>
<text text-anchor="middle" x="285.5" y="-288.5" font-family="Helvetica,sans-Serif" font-size="10.00">&lt; Char &gt;</text>
</a>
</g>
</g>
<!-- Node9&#45;&gt;Node8 -->
<g id="edge8" class="edge"><title>Node9&#45;&gt;Node8</title>
<path fill="none" stroke="midnightblue" d="M285.5,-271.032C285.5,-261.861 285.5,-251.745 285.5,-243.793"/>
<polygon fill="midnightblue" stroke="midnightblue" points="282,-271.179 285.5,-281.179 289,-271.179 282,-271.179"/>
</g>
<!-- Node10 -->
<g id="node10" class="node"><title>Node10</title>
<g id="a_node10"><a xlink:title="STL class. ">
<polygon fill="white" stroke="#bfbfbf" points="227.5,-349.5 227.5,-368.5 343.5,-368.5 343.5,-349.5 227.5,-349.5"/>
<text text-anchor="middle" x="285.5" y="-356.5" font-family="Helvetica,sans-Serif" font-size="10.00">std::basic_ios&lt; Char &gt;</text>
</a>
</g>
</g>
<!-- Node10&#45;&gt;Node9 -->
<g id="edge9" class="edge"><title>Node10&#45;&gt;Node9</title>
<path fill="none" stroke="midnightblue" d="M285.5,-339.215C285.5,-330.356 285.5,-319.958 285.5,-311.759"/>
<polygon fill="midnightblue" stroke="midnightblue" points="282,-339.332 285.5,-349.332 289,-339.332 282,-339.332"/>
</g>
<!-- Node11 -->
<g id="node11" class="node"><title>Node11</title>
<g id="a_node11"><a xlink:title="STL class. ">
<polygon fill="white" stroke="#bfbfbf" points="248,-406.5 248,-425.5 323,-425.5 323,-406.5 248,-406.5"/>
<text text-anchor="middle" x="285.5" y="-413.5" font-family="Helvetica,sans-Serif" font-size="10.00">std::ios_base</text>
</a>
</g>
</g>
<!-- Node11&#45;&gt;Node10 -->
<g id="edge10" class="edge"><title>Node11&#45;&gt;Node10</title>
<path fill="none" stroke="midnightblue" d="M285.5,-396.117C285.5,-386.817 285.5,-376.056 285.5,-368.715"/>
<polygon fill="midnightblue" stroke="midnightblue" points="282,-396.406 285.5,-406.406 289,-396.406 282,-396.406"/>
</g>
</g>
</svg>
