<?xml version="1.0" encoding="UTF-8" standalone="no"?>
<!DOCTYPE svg PUBLIC "-//W3C//DTD SVG 1.1//EN"
 "http://www.w3.org/Graphics/SVG/1.1/DTD/svg11.dtd">
<!-- Generated by graphviz version 2.38.0 (20140413.2041)
 -->
<!-- Title: elftosb::SectionMatchListASTNode Pages: 1 -->
<svg width="315pt" height="396pt"
 viewBox="0.00 0.00 315.00 396.00" xmlns="http://www.w3.org/2000/svg" xmlns:xlink="http://www.w3.org/1999/xlink">
<g id="graph0" class="graph" transform="scale(1 1) rotate(0) translate(4 392)">
<title>elftosb::SectionMatchListASTNode</title>
<polygon fill="white" stroke="none" points="-4,4 -4,-392 311,-392 311,4 -4,4"/>
<!-- Node1 -->
<g id="node1" class="node"><title>Node1</title>
<polygon fill="#bfbfbf" stroke="black" points="51,-0.5 51,-30.5 178,-30.5 178,-0.5 51,-0.5"/>
<text text-anchor="start" x="59" y="-18.5" font-family="Helvetica,sans-Serif" font-size="10.00">elftosb::SectionMatchList</text>
<text text-anchor="middle" x="114.5" y="-7.5" font-family="Helvetica,sans-Serif" font-size="10.00">ASTNode</text>
</g>
<!-- Node2 -->
<g id="node2" class="node"><title>Node2</title>
<g id="a_node2"><a xlink:href="classelftosb_1_1_a_s_t_node.html" target="_top" xlink:title="The base class for all AST node classes. ">
<polygon fill="white" stroke="black" points="4.5,-301.5 4.5,-320.5 96.5,-320.5 96.5,-301.5 4.5,-301.5"/>
<text text-anchor="middle" x="50.5" y="-308.5" font-family="Helvetica,sans-Serif" font-size="10.00">elftosb::ASTNode</text>
</a>
</g>
</g>
<!-- Node2&#45;&gt;Node1 -->
<g id="edge1" class="edge"><title>Node2&#45;&gt;Node1</title>
<path fill="none" stroke="midnightblue" d="M35.4848,-293.385C24.8624,-279.88 12.5,-259.803 12.5,-239.5 12.5,-239.5 12.5,-239.5 12.5,-92.5 12.5,-61.9144 42.3552,-42.1784 69.7613,-30.5046"/>
<polygon fill="midnightblue" stroke="midnightblue" points="32.9635,-295.826 42.0666,-301.247 38.3308,-291.332 32.9635,-295.826"/>
</g>
<!-- Node2&#45;&gt;Node2 -->
<g id="edge3" class="edge"><title>Node2&#45;&gt;Node2</title>
<path fill="none" stroke="#9a32cd" stroke-dasharray="5,2" d="M106.774,-315.66C111.534,-314.663 114.5,-313.109 114.5,-311 114.5,-307.625 106.906,-305.674 96.5242,-305.146"/>
<polygon fill="#9a32cd" stroke="#9a32cd" points="106.052,-312.22 96.5242,-316.854 106.862,-319.173 106.052,-312.22"/>
<text text-anchor="middle" x="136.5" y="-308.5" font-family="Helvetica,sans-Serif" font-size="10.00"> m_parent</text>
</g>
<!-- Node8 -->
<g id="node8" class="node"><title>Node8</title>
<g id="a_node8"><a xlink:href="classelftosb_1_1_list_a_s_t_node.html" target="_top" xlink:title="AST node that contains other AST nodes. ">
<polygon fill="white" stroke="black" points="60.5,-156.5 60.5,-175.5 168.5,-175.5 168.5,-156.5 60.5,-156.5"/>
<text text-anchor="middle" x="114.5" y="-163.5" font-family="Helvetica,sans-Serif" font-size="10.00">elftosb::ListASTNode</text>
</a>
</g>
</g>
<!-- Node2&#45;&gt;Node8 -->
<g id="edge9" class="edge"><title>Node2&#45;&gt;Node8</title>
<path fill="none" stroke="midnightblue" d="M52.0793,-291.288C54.1807,-273.101 58.9472,-245.073 69.5,-223 78.5378,-204.096 95.0934,-185.886 105.407,-175.601"/>
<polygon fill="midnightblue" stroke="midnightblue" points="48.5778,-291.13 51.0681,-301.428 55.5432,-291.824 48.5778,-291.13"/>
</g>
<!-- Node9 -->
<g id="node9" class="node"><title>Node9</title>
<polygon fill="white" stroke="#bfbfbf" points="79,-229 79,-248 194,-248 194,-229 79,-229"/>
<text text-anchor="middle" x="136.5" y="-236" font-family="Helvetica,sans-Serif" font-size="10.00">std::list&lt; ASTNode * &gt;</text>
</g>
<!-- Node2&#45;&gt;Node9 -->
<g id="edge11" class="edge"><title>Node2&#45;&gt;Node9</title>
<path fill="none" stroke="#9a32cd" stroke-dasharray="5,2" d="M68.8289,-294.975C86.1826,-280.749 111.638,-259.881 125.868,-248.215"/>
<polygon fill="#9a32cd" stroke="#9a32cd" points="66.56,-292.309 61.0453,-301.355 70.9978,-297.722 66.56,-292.309"/>
<text text-anchor="middle" x="118" y="-275" font-family="Helvetica,sans-Serif" font-size="10.00"> elements</text>
</g>
<!-- Node3 -->
<g id="node3" class="node"><title>Node3</title>
<g id="a_node3"><a xlink:href="structelftosb_1_1token__loc__t.html" target="_top" xlink:title="Token location in the source file. ">
<polygon fill="white" stroke="black" points="0,-368.5 0,-387.5 101,-387.5 101,-368.5 0,-368.5"/>
<text text-anchor="middle" x="50.5" y="-375.5" font-family="Helvetica,sans-Serif" font-size="10.00">elftosb::token_loc_t</text>
</a>
</g>
</g>
<!-- Node3&#45;&gt;Node2 -->
<g id="edge2" class="edge"><title>Node3&#45;&gt;Node2</title>
<path fill="none" stroke="#9a32cd" stroke-dasharray="5,2" d="M50.5,-358.037C50.5,-345.67 50.5,-330.12 50.5,-320.627"/>
<polygon fill="#9a32cd" stroke="#9a32cd" points="47.0001,-358.234 50.5,-368.234 54.0001,-358.234 47.0001,-358.234"/>
<text text-anchor="middle" x="76" y="-342" font-family="Helvetica,sans-Serif" font-size="10.00"> m_location</text>
</g>
<!-- Node4 -->
<g id="node4" class="node"><title>Node4</title>
<g id="a_node4"><a xlink:href="group__smart__pointer.html" target="_top" xlink:title="smart_ptr\&lt; std::string \&gt;">
<polygon fill="white" stroke="black" points="185,-84 185,-103 304,-103 304,-84 185,-84"/>
<text text-anchor="middle" x="244.5" y="-91" font-family="Helvetica,sans-Serif" font-size="10.00">smart_ptr&lt; std::string &gt;</text>
</a>
</g>
</g>
<!-- Node4&#45;&gt;Node1 -->
<g id="edge4" class="edge"><title>Node4&#45;&gt;Node1</title>
<path fill="none" stroke="#9a32cd" stroke-dasharray="5,2" d="M221.936,-78.6086C207.803,-69.9717 189.17,-58.7026 172.5,-49 161.926,-42.8452 150.164,-36.2153 140.012,-30.559"/>
<polygon fill="#9a32cd" stroke="#9a32cd" points="220.154,-81.6209 230.509,-83.8613 223.811,-75.6523 220.154,-81.6209"/>
<text text-anchor="middle" x="213.5" y="-52" font-family="Helvetica,sans-Serif" font-size="10.00"> m_source</text>
</g>
<!-- Node5 -->
<g id="node5" class="node"><title>Node5</title>
<g id="a_node5"><a xlink:title="STL class. ">
<polygon fill="white" stroke="#bfbfbf" points="227.5,-156.5 227.5,-175.5 287.5,-175.5 287.5,-156.5 227.5,-156.5"/>
<text text-anchor="middle" x="257.5" y="-163.5" font-family="Helvetica,sans-Serif" font-size="10.00">std::string</text>
</a>
</g>
</g>
<!-- Node5&#45;&gt;Node4 -->
<g id="edge5" class="edge"><title>Node5&#45;&gt;Node4</title>
<path fill="none" stroke="#9a32cd" stroke-dasharray="5,2" d="M254.062,-146.358C251.488,-132.395 248.082,-113.926 246.107,-103.215"/>
<polygon fill="#9a32cd" stroke="#9a32cd" points="250.65,-147.156 255.906,-156.355 257.534,-145.886 250.65,-147.156"/>
<text text-anchor="middle" x="259.5" y="-130" font-family="Helvetica,sans-Serif" font-size="10.00"> _p</text>
</g>
<!-- Node6 -->
<g id="node6" class="node"><title>Node6</title>
<g id="a_node6"><a xlink:title="STL class. ">
<polygon fill="white" stroke="#bfbfbf" points="212,-223.5 212,-253.5 307,-253.5 307,-223.5 212,-223.5"/>
<text text-anchor="start" x="220" y="-241.5" font-family="Helvetica,sans-Serif" font-size="10.00">std::basic_string&lt;</text>
<text text-anchor="middle" x="259.5" y="-230.5" font-family="Helvetica,sans-Serif" font-size="10.00"> char &gt;</text>
</a>
</g>
</g>
<!-- Node6&#45;&gt;Node5 -->
<g id="edge6" class="edge"><title>Node6&#45;&gt;Node5</title>
<path fill="none" stroke="midnightblue" d="M258.808,-213.091C258.442,-200.214 258.016,-185.197 257.752,-175.893"/>
<polygon fill="midnightblue" stroke="midnightblue" points="255.313,-213.337 259.095,-223.233 262.31,-213.138 255.313,-213.337"/>
</g>
<!-- Node7 -->
<g id="node7" class="node"><title>Node7</title>
<g id="a_node7"><a xlink:href="group__smart__pointer.html" target="_top" xlink:title="smart_ptr\&lt; elftosb\l::ListASTNode \&gt;">
<polygon fill="white" stroke="black" points="67,-78.5 67,-108.5 162,-108.5 162,-78.5 67,-78.5"/>
<text text-anchor="start" x="75" y="-96.5" font-family="Helvetica,sans-Serif" font-size="10.00">smart_ptr&lt; elftosb</text>
<text text-anchor="middle" x="114.5" y="-85.5" font-family="Helvetica,sans-Serif" font-size="10.00">::ListASTNode &gt;</text>
</a>
</g>
</g>
<!-- Node7&#45;&gt;Node1 -->
<g id="edge7" class="edge"><title>Node7&#45;&gt;Node1</title>
<path fill="none" stroke="#9a32cd" stroke-dasharray="5,2" d="M114.5,-68.0898C114.5,-55.7565 114.5,-41.2237 114.5,-30.7309"/>
<polygon fill="#9a32cd" stroke="#9a32cd" points="111,-68.2049 114.5,-78.205 118,-68.205 111,-68.2049"/>
<text text-anchor="middle" x="141.5" y="-52" font-family="Helvetica,sans-Serif" font-size="10.00"> m_sections</text>
</g>
<!-- Node8&#45;&gt;Node7 -->
<g id="edge8" class="edge"><title>Node8&#45;&gt;Node7</title>
<path fill="none" stroke="#9a32cd" stroke-dasharray="5,2" d="M114.5,-146.236C114.5,-134.408 114.5,-119.383 114.5,-108.576"/>
<polygon fill="#9a32cd" stroke="#9a32cd" points="111,-146.355 114.5,-156.355 118,-146.355 111,-146.355"/>
<text text-anchor="middle" x="121.5" y="-130" font-family="Helvetica,sans-Serif" font-size="10.00"> _p</text>
</g>
<!-- Node9&#45;&gt;Node8 -->
<g id="edge10" class="edge"><title>Node9&#45;&gt;Node8</title>
<path fill="none" stroke="#9a32cd" stroke-dasharray="5,2" d="M130.812,-219.271C126.44,-205.262 120.595,-186.532 117.22,-175.715"/>
<polygon fill="#9a32cd" stroke="#9a32cd" points="127.482,-220.352 133.802,-228.855 134.165,-218.267 127.482,-220.352"/>
<text text-anchor="middle" x="141.5" y="-197" font-family="Helvetica,sans-Serif" font-size="10.00"> m_list</text>
</g>
</g>
</svg>
