<?xml version="1.0" encoding="UTF-8" standalone="no"?>
<!DOCTYPE svg PUBLIC "-//W3C//DTD SVG 1.1//EN"
 "http://www.w3.org/Graphics/SVG/1.1/DTD/svg11.dtd">
<!-- Generated by graphviz version 2.38.0 (20140413.2041)
 -->
<!-- Title: elftosb::KeyblobEntry Pages: 1 -->
<svg width="121pt" height="173pt"
 viewBox="0.00 0.00 121.00 173.00" xmlns="http://www.w3.org/2000/svg" xmlns:xlink="http://www.w3.org/1999/xlink">
<g id="graph0" class="graph" transform="scale(1 1) rotate(0) translate(4 169)">
<title>elftosb::KeyblobEntry</title>
<polygon fill="white" stroke="none" points="-4,4 -4,-169 117,-169 117,4 -4,4"/>
<!-- Node1 -->
<g id="node1" class="node"><title>Node1</title>
<polygon fill="#bfbfbf" stroke="black" points="1.5,-0.5 1.5,-19.5 111.5,-19.5 111.5,-0.5 1.5,-0.5"/>
<text text-anchor="middle" x="56.5" y="-7.5" font-family="Helvetica,sans-Serif" font-size="10.00">elftosb::KeyblobEntry</text>
</g>
<!-- Node2 -->
<g id="node2" class="node"><title>Node2</title>
<g id="a_node2"><a xlink:href="group__smart__pointer.html" target="_top" xlink:title="smart_ptr\&lt; elftosb\l::OptionContext \&gt;">
<polygon fill="white" stroke="black" points="9,-67.5 9,-97.5 104,-97.5 104,-67.5 9,-67.5"/>
<text text-anchor="start" x="17" y="-85.5" font-family="Helvetica,sans-Serif" font-size="10.00">smart_ptr&lt; elftosb</text>
<text text-anchor="middle" x="56.5" y="-74.5" font-family="Helvetica,sans-Serif" font-size="10.00">::OptionContext &gt;</text>
</a>
</g>
</g>
<!-- Node2&#45;&gt;Node1 -->
<g id="edge1" class="edge"><title>Node2&#45;&gt;Node1</title>
<path fill="none" stroke="#9a32cd" stroke-dasharray="5,2" d="M56.5,-57.0913C56.5,-44.2136 56.5,-29.1974 56.5,-19.8932"/>
<polygon fill="#9a32cd" stroke="#9a32cd" points="53.0001,-57.2332 56.5,-67.2333 60.0001,-57.2333 53.0001,-57.2332"/>
<text text-anchor="middle" x="81" y="-41" font-family="Helvetica,sans-Serif" font-size="10.00"> m_options</text>
</g>
<!-- Node3 -->
<g id="node3" class="node"><title>Node3</title>
<g id="a_node3"><a xlink:href="classelftosb_1_1_option_context.html" target="_top" xlink:title="Pure abstract interface class to a table of options. ">
<polygon fill="white" stroke="black" points="0,-145.5 0,-164.5 113,-164.5 113,-145.5 0,-145.5"/>
<text text-anchor="middle" x="56.5" y="-152.5" font-family="Helvetica,sans-Serif" font-size="10.00">elftosb::OptionContext</text>
</a>
</g>
</g>
<!-- Node3&#45;&gt;Node2 -->
<g id="edge2" class="edge"><title>Node3&#45;&gt;Node2</title>
<path fill="none" stroke="#9a32cd" stroke-dasharray="5,2" d="M56.5,-135.236C56.5,-123.408 56.5,-108.383 56.5,-97.5762"/>
<polygon fill="#9a32cd" stroke="#9a32cd" points="53.0001,-135.355 56.5,-145.355 60.0001,-135.355 53.0001,-135.355"/>
<text text-anchor="middle" x="63.5" y="-119" font-family="Helvetica,sans-Serif" font-size="10.00"> _p</text>
</g>
</g>
</svg>
