<?xml version="1.0" encoding="UTF-8" standalone="no"?>
<!DOCTYPE svg PUBLIC "-//W3C//DTD SVG 1.1//EN"
 "http://www.w3.org/Graphics/SVG/1.1/DTD/svg11.dtd">
<!-- Generated by graphviz version 2.38.0 (20140413.2041)
 -->
<!-- Title: StExecutableImage Pages: 1 -->
<svg width="506pt" height="137pt"
 viewBox="0.00 0.00 506.00 137.00" xmlns="http://www.w3.org/2000/svg" xmlns:xlink="http://www.w3.org/1999/xlink">
<g id="graph0" class="graph" transform="scale(1 1) rotate(0) translate(4 133)">
<title>StExecutableImage</title>
<polygon fill="white" stroke="none" points="-4,4 -4,-133 502,-133 502,4 -4,4"/>
<!-- Node1 -->
<g id="node1" class="node"><title>Node1</title>
<polygon fill="#bfbfbf" stroke="black" points="397,-55 397,-74 498,-74 498,-55 397,-55"/>
<text text-anchor="middle" x="447.5" y="-62" font-family="Helvetica,sans-Serif" font-size="10.00">StExecutableImage</text>
</g>
<!-- Node2 -->
<g id="node2" class="node"><title>Node2</title>
<polygon fill="white" stroke="#bfbfbf" points="189.5,-98 189.5,-117 314.5,-117 314.5,-98 189.5,-98"/>
<text text-anchor="middle" x="252" y="-105" font-family="Helvetica,sans-Serif" font-size="10.00">std::list&lt; AddressFilter &gt;</text>
</g>
<!-- Node2&#45;&gt;Node1 -->
<g id="edge1" class="edge"><title>Node2&#45;&gt;Node1</title>
<path fill="none" stroke="#9a32cd" stroke-dasharray="5,2" d="M306.048,-95.7116C336.753,-88.8883 374.893,-80.4128 403.676,-74.0164"/>
<polygon fill="#9a32cd" stroke="#9a32cd" points="304.947,-92.3709 295.944,-97.9569 306.465,-99.2042 304.947,-92.3709"/>
<text text-anchor="middle" x="357.5" y="-91.5" font-family="Helvetica,sans-Serif" font-size="10.00"> m_filters</text>
</g>
<!-- Node3 -->
<g id="node3" class="node"><title>Node3</title>
<g id="a_node3"><a xlink:href="struct_st_executable_image_1_1_address_filter.html" target="_top" xlink:title="StExecutableImage::\lAddressFilter">
<polygon fill="white" stroke="black" points="0,-98.5 0,-128.5 107,-128.5 107,-98.5 0,-98.5"/>
<text text-anchor="start" x="8" y="-116.5" font-family="Helvetica,sans-Serif" font-size="10.00">StExecutableImage::</text>
<text text-anchor="middle" x="53.5" y="-105.5" font-family="Helvetica,sans-Serif" font-size="10.00">AddressFilter</text>
</a>
</g>
</g>
<!-- Node3&#45;&gt;Node2 -->
<g id="edge2" class="edge"><title>Node3&#45;&gt;Node2</title>
<path fill="none" stroke="#9a32cd" stroke-dasharray="5,2" d="M117.202,-111.585C140.318,-110.88 166.47,-110.081 189.481,-109.378"/>
<polygon fill="#9a32cd" stroke="#9a32cd" points="117.047,-108.088 107.158,-111.892 117.261,-115.085 117.047,-108.088"/>
<text text-anchor="middle" x="146.5" y="-113.5" font-family="Helvetica,sans-Serif" font-size="10.00"> elements</text>
</g>
<!-- Node4 -->
<g id="node4" class="node"><title>Node4</title>
<polygon fill="white" stroke="#bfbfbf" points="186,-55 186,-74 318,-74 318,-55 186,-55"/>
<text text-anchor="middle" x="252" y="-62" font-family="Helvetica,sans-Serif" font-size="10.00">std::list&lt; MemoryRegion &gt;</text>
</g>
<!-- Node4&#45;&gt;Node1 -->
<g id="edge3" class="edge"><title>Node4&#45;&gt;Node1</title>
<path fill="none" stroke="#9a32cd" stroke-dasharray="5,2" d="M328.317,-64.5C351.306,-64.5 375.995,-64.5 396.831,-64.5"/>
<polygon fill="#9a32cd" stroke="#9a32cd" points="328.241,-61.0001 318.241,-64.5 328.24,-68.0001 328.241,-61.0001"/>
<text text-anchor="middle" x="357.5" y="-67.5" font-family="Helvetica,sans-Serif" font-size="10.00"> m_image</text>
</g>
<!-- Node5 -->
<g id="node5" class="node"><title>Node5</title>
<g id="a_node5"><a xlink:href="struct_st_executable_image_1_1_memory_region.html" target="_top" xlink:title="StExecutableImage::\lMemoryRegion">
<polygon fill="white" stroke="black" points="0,-49.5 0,-79.5 107,-79.5 107,-49.5 0,-49.5"/>
<text text-anchor="start" x="8" y="-67.5" font-family="Helvetica,sans-Serif" font-size="10.00">StExecutableImage::</text>
<text text-anchor="middle" x="53.5" y="-56.5" font-family="Helvetica,sans-Serif" font-size="10.00">MemoryRegion</text>
</a>
</g>
</g>
<!-- Node5&#45;&gt;Node4 -->
<g id="edge4" class="edge"><title>Node5&#45;&gt;Node4</title>
<path fill="none" stroke="#9a32cd" stroke-dasharray="5,2" d="M117.336,-64.5C139.229,-64.5 163.83,-64.5 185.903,-64.5"/>
<polygon fill="#9a32cd" stroke="#9a32cd" points="117.158,-61.0001 107.158,-64.5 117.158,-68.0001 117.158,-61.0001"/>
<text text-anchor="middle" x="146.5" y="-67.5" font-family="Helvetica,sans-Serif" font-size="10.00"> elements</text>
</g>
<!-- Node6 -->
<g id="node6" class="node"><title>Node6</title>
<g id="a_node6"><a xlink:title="STL class. ">
<polygon fill="white" stroke="#bfbfbf" points="222,-12 222,-31 282,-31 282,-12 222,-12"/>
<text text-anchor="middle" x="252" y="-19" font-family="Helvetica,sans-Serif" font-size="10.00">std::string</text>
</a>
</g>
</g>
<!-- Node6&#45;&gt;Node1 -->
<g id="edge5" class="edge"><title>Node6&#45;&gt;Node1</title>
<path fill="none" stroke="#9a32cd" stroke-dasharray="5,2" d="M292.37,-30.2489C324.658,-37.424 370.296,-47.5658 403.528,-54.9507"/>
<polygon fill="#9a32cd" stroke="#9a32cd" points="292.91,-26.7835 282.388,-28.0308 291.391,-33.6168 292.91,-26.7835"/>
<text text-anchor="middle" x="357.5" y="-51.5" font-family="Helvetica,sans-Serif" font-size="10.00"> m_name</text>
</g>
<!-- Node7 -->
<g id="node7" class="node"><title>Node7</title>
<g id="a_node7"><a xlink:title="STL class. ">
<polygon fill="white" stroke="#bfbfbf" points="6,-0.5 6,-30.5 101,-30.5 101,-0.5 6,-0.5"/>
<text text-anchor="start" x="14" y="-18.5" font-family="Helvetica,sans-Serif" font-size="10.00">std::basic_string&lt;</text>
<text text-anchor="middle" x="53.5" y="-7.5" font-family="Helvetica,sans-Serif" font-size="10.00"> char &gt;</text>
</a>
</g>
</g>
<!-- Node7&#45;&gt;Node6 -->
<g id="edge6" class="edge"><title>Node7&#45;&gt;Node6</title>
<path fill="none" stroke="midnightblue" d="M111.477,-17.2398C147.608,-18.343 192.841,-19.7241 221.831,-20.6093"/>
<polygon fill="midnightblue" stroke="midnightblue" points="111.17,-13.7288 101.068,-16.9219 110.956,-20.7256 111.17,-13.7288"/>
</g>
</g>
</svg>
