<?xml version="1.0" encoding="UTF-8" standalone="no"?>
<!DOCTYPE svg PUBLIC "-//W3C//DTD SVG 1.1//EN"
 "http://www.w3.org/Graphics/SVG/1.1/DTD/svg11.dtd">
<!-- Generated by graphviz version 2.38.0 (20140413.2041)
 -->
<!-- Title: elftosb::MemoryImageDataSource Pages: 1 -->
<svg width="759pt" height="227pt"
 viewBox="0.00 0.00 759.00 226.60" xmlns="http://www.w3.org/2000/svg" xmlns:xlink="http://www.w3.org/1999/xlink">
<g id="graph0" class="graph" transform="scale(1 1) rotate(0) translate(4 222.598)">
<title>elftosb::MemoryImageDataSource</title>
<polygon fill="white" stroke="none" points="-4,4 -4,-222.598 755,-222.598 755,4 -4,4"/>
<!-- Node1 -->
<g id="node1" class="node"><title>Node1</title>
<polygon fill="#bfbfbf" stroke="black" points="618,-131.5 618,-161.5 751,-161.5 751,-131.5 618,-131.5"/>
<text text-anchor="start" x="626" y="-149.5" font-family="Helvetica,sans-Serif" font-size="10.00">elftosb::MemoryImageData</text>
<text text-anchor="middle" x="684.5" y="-138.5" font-family="Helvetica,sans-Serif" font-size="10.00">Source</text>
</g>
<!-- Node2 -->
<g id="node2" class="node"><title>Node2</title>
<g id="a_node2"><a xlink:href="classelftosb_1_1_data_source.html" target="_top" xlink:title="Abstract base class for data sources. ">
<polygon fill="white" stroke="black" points="2.5,-188 2.5,-207 104.5,-207 104.5,-188 2.5,-188"/>
<text text-anchor="middle" x="53.5" y="-195" font-family="Helvetica,sans-Serif" font-size="10.00">elftosb::DataSource</text>
</a>
</g>
</g>
<!-- Node2&#45;&gt;Node1 -->
<g id="edge1" class="edge"><title>Node2&#45;&gt;Node1</title>
<path fill="none" stroke="midnightblue" d="M103.976,-209.086C111.003,-210.421 118.162,-211.618 125,-212.5 153.242,-216.142 160.532,-214.833 189,-215.5 247.651,-216.874 262.593,-221.009 321,-215.5 428.63,-205.348 551.878,-178.598 623.386,-161.544"/>
<polygon fill="midnightblue" stroke="midnightblue" points="104.323,-205.586 93.8296,-207.05 102.946,-212.449 104.323,-205.586"/>
</g>
<!-- Node3 -->
<g id="node3" class="node"><title>Node3</title>
<g id="a_node3"><a xlink:href="classelftosb_1_1_data_target.html" target="_top" xlink:title="Abstract base class for the target address or range of data. ">
<polygon fill="white" stroke="black" points="206,-187 206,-206 304,-206 304,-187 206,-187"/>
<text text-anchor="middle" x="255" y="-194" font-family="Helvetica,sans-Serif" font-size="10.00">elftosb::DataTarget</text>
</a>
</g>
</g>
<!-- Node2&#45;&gt;Node3 -->
<g id="edge3" class="edge"><title>Node2&#45;&gt;Node3</title>
<path fill="none" stroke="#9a32cd" stroke-dasharray="5,2" d="M114.676,-197.198C143.9,-197.052 178.534,-196.878 205.959,-196.741"/>
<polygon fill="#9a32cd" stroke="#9a32cd" points="114.567,-193.699 104.585,-197.249 114.602,-200.699 114.567,-193.699"/>
<text text-anchor="middle" x="148" y="-200.5" font-family="Helvetica,sans-Serif" font-size="10.00"> m_source</text>
</g>
<!-- Node12 -->
<g id="node12" class="node"><title>Node12</title>
<g id="a_node12"><a xlink:href="classelftosb_1_1_data_source_1_1_segment.html" target="_top" xlink:title="Discrete, contiguous part of the source&#39;s data. ">
<polygon fill="white" stroke="black" points="204,-131.5 204,-161.5 306,-161.5 306,-131.5 204,-131.5"/>
<text text-anchor="start" x="212" y="-149.5" font-family="Helvetica,sans-Serif" font-size="10.00">elftosb::DataSource</text>
<text text-anchor="middle" x="255" y="-138.5" font-family="Helvetica,sans-Serif" font-size="10.00">::Segment</text>
</a>
</g>
</g>
<!-- Node2&#45;&gt;Node12 -->
<g id="edge13" class="edge"><title>Node2&#45;&gt;Node12</title>
<path fill="none" stroke="#9a32cd" stroke-dasharray="5,2" d="M81.1574,-183.262C94.0704,-176.926 109.998,-169.914 125,-165.5 150.517,-157.992 179.787,-153.373 203.988,-150.573"/>
<polygon fill="#9a32cd" stroke="#9a32cd" points="79.2827,-180.287 71.9356,-187.921 82.4395,-186.535 79.2827,-180.287"/>
<text text-anchor="middle" x="148" y="-168.5" font-family="Helvetica,sans-Serif" font-size="10.00"> m_source</text>
</g>
<!-- Node3&#45;&gt;Node2 -->
<g id="edge2" class="edge"><title>Node3&#45;&gt;Node2</title>
<path fill="none" stroke="#9a32cd" stroke-dasharray="5,2" d="M203.197,-185.24C179.448,-181.349 150.781,-178.611 125,-181.5 113.276,-182.814 100.656,-185.32 89.3794,-187.966"/>
<polygon fill="#9a32cd" stroke="#9a32cd" points="202.598,-188.688 213.051,-186.965 203.805,-181.793 202.598,-188.688"/>
<text text-anchor="middle" x="148" y="-184.5" font-family="Helvetica,sans-Serif" font-size="10.00"> m_target</text>
</g>
<!-- Node4 -->
<g id="node4" class="node"><title>Node4</title>
<g id="a_node4"><a xlink:href="class_st_executable_image.html" target="_top" xlink:title="Used to build a representation of memory regions. ">
<polygon fill="white" stroke="black" points="410.5,-68 410.5,-87 511.5,-87 511.5,-68 410.5,-68"/>
<text text-anchor="middle" x="461" y="-75" font-family="Helvetica,sans-Serif" font-size="10.00">StExecutableImage</text>
</a>
</g>
</g>
<!-- Node4&#45;&gt;Node1 -->
<g id="edge4" class="edge"><title>Node4&#45;&gt;Node1</title>
<path fill="none" stroke="#9a32cd" stroke-dasharray="5,2" d="M502.353,-90.0706C539.716,-101.71 595.337,-119.036 635.079,-131.416"/>
<polygon fill="#9a32cd" stroke="#9a32cd" points="503.387,-86.7268 492.799,-87.0942 501.305,-93.41 503.387,-86.7268"/>
<text text-anchor="middle" x="570" y="-123.5" font-family="Helvetica,sans-Serif" font-size="10.00"> m_image</text>
</g>
<!-- Node5 -->
<g id="node5" class="node"><title>Node5</title>
<polygon fill="white" stroke="#bfbfbf" points="192.5,-93 192.5,-112 317.5,-112 317.5,-93 192.5,-93"/>
<text text-anchor="middle" x="255" y="-100" font-family="Helvetica,sans-Serif" font-size="10.00">std::list&lt; AddressFilter &gt;</text>
</g>
<!-- Node5&#45;&gt;Node4 -->
<g id="edge5" class="edge"><title>Node5&#45;&gt;Node4</title>
<path fill="none" stroke="#9a32cd" stroke-dasharray="5,2" d="M328.033,-93.6724C355.285,-90.3327 385.669,-86.6092 410.407,-83.5776"/>
<polygon fill="#9a32cd" stroke="#9a32cd" points="327.26,-90.2408 317.76,-94.9313 328.112,-97.1889 327.26,-90.2408"/>
<text text-anchor="middle" x="360.5" y="-95.5" font-family="Helvetica,sans-Serif" font-size="10.00"> m_filters</text>
</g>
<!-- Node6 -->
<g id="node6" class="node"><title>Node6</title>
<g id="a_node6"><a xlink:href="struct_st_executable_image_1_1_address_filter.html" target="_top" xlink:title="StExecutableImage::\lAddressFilter">
<polygon fill="white" stroke="black" points="0,-98.5 0,-128.5 107,-128.5 107,-98.5 0,-98.5"/>
<text text-anchor="start" x="8" y="-116.5" font-family="Helvetica,sans-Serif" font-size="10.00">StExecutableImage::</text>
<text text-anchor="middle" x="53.5" y="-105.5" font-family="Helvetica,sans-Serif" font-size="10.00">AddressFilter</text>
</a>
</g>
</g>
<!-- Node6&#45;&gt;Node5 -->
<g id="edge6" class="edge"><title>Node6&#45;&gt;Node5</title>
<path fill="none" stroke="#9a32cd" stroke-dasharray="5,2" d="M117.203,-110.043C141.114,-108.724 168.336,-107.223 192.165,-105.909"/>
<polygon fill="#9a32cd" stroke="#9a32cd" points="116.969,-106.55 107.177,-110.595 117.355,-113.54 116.969,-106.55"/>
<text text-anchor="middle" x="148" y="-112.5" font-family="Helvetica,sans-Serif" font-size="10.00"> elements</text>
</g>
<!-- Node7 -->
<g id="node7" class="node"><title>Node7</title>
<polygon fill="white" stroke="#bfbfbf" points="189,-55 189,-74 321,-74 321,-55 189,-55"/>
<text text-anchor="middle" x="255" y="-62" font-family="Helvetica,sans-Serif" font-size="10.00">std::list&lt; MemoryRegion &gt;</text>
</g>
<!-- Node7&#45;&gt;Node4 -->
<g id="edge7" class="edge"><title>Node7&#45;&gt;Node4</title>
<path fill="none" stroke="#9a32cd" stroke-dasharray="5,2" d="M331.379,-65.8696C348.062,-66.4579 365.642,-67.2987 382,-68.5 391.109,-69.1689 400.792,-70.1042 410.126,-71.1205"/>
<polygon fill="#9a32cd" stroke="#9a32cd" points="331.235,-62.3631 321.126,-65.5349 331.006,-69.3594 331.235,-62.3631"/>
<text text-anchor="middle" x="360.5" y="-71.5" font-family="Helvetica,sans-Serif" font-size="10.00"> m_image</text>
</g>
<!-- Node8 -->
<g id="node8" class="node"><title>Node8</title>
<g id="a_node8"><a xlink:href="struct_st_executable_image_1_1_memory_region.html" target="_top" xlink:title="StExecutableImage::\lMemoryRegion">
<polygon fill="white" stroke="black" points="0,-49.5 0,-79.5 107,-79.5 107,-49.5 0,-49.5"/>
<text text-anchor="start" x="8" y="-67.5" font-family="Helvetica,sans-Serif" font-size="10.00">StExecutableImage::</text>
<text text-anchor="middle" x="53.5" y="-56.5" font-family="Helvetica,sans-Serif" font-size="10.00">MemoryRegion</text>
</a>
</g>
</g>
<!-- Node8&#45;&gt;Node7 -->
<g id="edge8" class="edge"><title>Node8&#45;&gt;Node7</title>
<path fill="none" stroke="#9a32cd" stroke-dasharray="5,2" d="M117.41,-64.5C140.182,-64.5 165.934,-64.5 188.891,-64.5"/>
<polygon fill="#9a32cd" stroke="#9a32cd" points="117.177,-61.0001 107.177,-64.5 117.177,-68.0001 117.177,-61.0001"/>
<text text-anchor="middle" x="148" y="-67.5" font-family="Helvetica,sans-Serif" font-size="10.00"> elements</text>
</g>
<!-- Node9 -->
<g id="node9" class="node"><title>Node9</title>
<g id="a_node9"><a xlink:title="STL class. ">
<polygon fill="white" stroke="#bfbfbf" points="225,-12 225,-31 285,-31 285,-12 225,-12"/>
<text text-anchor="middle" x="255" y="-19" font-family="Helvetica,sans-Serif" font-size="10.00">std::string</text>
</a>
</g>
</g>
<!-- Node9&#45;&gt;Node4 -->
<g id="edge9" class="edge"><title>Node9&#45;&gt;Node4</title>
<path fill="none" stroke="#9a32cd" stroke-dasharray="5,2" d="M295.058,-29.8679C320.06,-35.4533 353.111,-43.2632 382,-51.5 399.159,-56.3923 418.158,-62.7058 433.109,-67.8863"/>
<polygon fill="#9a32cd" stroke="#9a32cd" points="295.735,-26.4329 285.215,-27.6906 294.223,-33.2677 295.735,-26.4329"/>
<text text-anchor="middle" x="360.5" y="-54.5" font-family="Helvetica,sans-Serif" font-size="10.00"> m_name</text>
</g>
<!-- Node10 -->
<g id="node10" class="node"><title>Node10</title>
<g id="a_node10"><a xlink:title="STL class. ">
<polygon fill="white" stroke="#bfbfbf" points="6,-0.5 6,-30.5 101,-30.5 101,-0.5 6,-0.5"/>
<text text-anchor="start" x="14" y="-18.5" font-family="Helvetica,sans-Serif" font-size="10.00">std::basic_string&lt;</text>
<text text-anchor="middle" x="53.5" y="-7.5" font-family="Helvetica,sans-Serif" font-size="10.00"> char &gt;</text>
</a>
</g>
</g>
<!-- Node10&#45;&gt;Node9 -->
<g id="edge10" class="edge"><title>Node10&#45;&gt;Node9</title>
<path fill="none" stroke="midnightblue" d="M111.182,-17.2047C148.202,-18.3181 195.017,-19.7261 224.746,-20.6202"/>
<polygon fill="midnightblue" stroke="midnightblue" points="111.123,-13.7015 101.022,-16.8992 110.912,-20.6983 111.123,-13.7015"/>
</g>
<!-- Node11 -->
<g id="node11" class="node"><title>Node11</title>
<polygon fill="white" stroke="#bfbfbf" points="400,-131.5 400,-161.5 522,-161.5 522,-131.5 400,-131.5"/>
<text text-anchor="start" x="408" y="-149.5" font-family="Helvetica,sans-Serif" font-size="10.00">std::vector&lt; DataSource</text>
<text text-anchor="middle" x="461" y="-138.5" font-family="Helvetica,sans-Serif" font-size="10.00">::Segment * &gt;</text>
</g>
<!-- Node11&#45;&gt;Node1 -->
<g id="edge11" class="edge"><title>Node11&#45;&gt;Node1</title>
<path fill="none" stroke="#9a32cd" stroke-dasharray="5,2" d="M532.509,-146.5C559.848,-146.5 590.974,-146.5 617.834,-146.5"/>
<polygon fill="#9a32cd" stroke="#9a32cd" points="532.233,-143 522.233,-146.5 532.233,-150 532.233,-143"/>
<text text-anchor="middle" x="570" y="-149.5" font-family="Helvetica,sans-Serif" font-size="10.00"> m_segments</text>
</g>
<!-- Node12&#45;&gt;Node11 -->
<g id="edge12" class="edge"><title>Node12&#45;&gt;Node11</title>
<path fill="none" stroke="#9a32cd" stroke-dasharray="5,2" d="M316.397,-146.5C342.737,-146.5 373.543,-146.5 399.854,-146.5"/>
<polygon fill="#9a32cd" stroke="#9a32cd" points="316.165,-143 306.165,-146.5 316.165,-150 316.165,-143"/>
<text text-anchor="middle" x="360.5" y="-149.5" font-family="Helvetica,sans-Serif" font-size="10.00"> elements</text>
</g>
</g>
</svg>
