<?xml version="1.0" encoding="UTF-8" standalone="no"?>
<!DOCTYPE svg PUBLIC "-//W3C//DTD SVG 1.1//EN"
 "http://www.w3.org/Graphics/SVG/1.1/DTD/svg11.dtd">
<!-- Generated by graphviz version 2.38.0 (20140413.2041)
 -->
<!-- Title: blfwk::StringValue Pages: 1 -->
<svg width="173pt" height="163pt"
 viewBox="0.00 0.00 173.00 163.00" xmlns="http://www.w3.org/2000/svg" xmlns:xlink="http://www.w3.org/1999/xlink">
<g id="graph0" class="graph" transform="scale(1 1) rotate(0) translate(4 159)">
<title>blfwk::StringValue</title>
<polygon fill="white" stroke="none" points="-4,4 -4,-159 169,-159 169,4 -4,4"/>
<!-- Node1 -->
<g id="node1" class="node"><title>Node1</title>
<polygon fill="#bfbfbf" stroke="black" points="16,-0.5 16,-19.5 111,-19.5 111,-0.5 16,-0.5"/>
<text text-anchor="middle" x="63.5" y="-7.5" font-family="Helvetica,sans-Serif" font-size="10.00">blfwk::StringValue</text>
</g>
<!-- Node2 -->
<g id="node2" class="node"><title>Node2</title>
<g id="a_node2"><a xlink:href="classblfwk_1_1_value.html" target="_top" xlink:title="Abstract base class for values of arbitrary types. ">
<polygon fill="white" stroke="black" points="0,-67.5 0,-86.5 69,-86.5 69,-67.5 0,-67.5"/>
<text text-anchor="middle" x="34.5" y="-74.5" font-family="Helvetica,sans-Serif" font-size="10.00">blfwk::Value</text>
</a>
</g>
</g>
<!-- Node2&#45;&gt;Node1 -->
<g id="edge1" class="edge"><title>Node2&#45;&gt;Node1</title>
<path fill="none" stroke="midnightblue" d="M42.6244,-57.79C48.1935,-45.3076 55.3294,-29.3135 59.6509,-19.6273"/>
<polygon fill="midnightblue" stroke="midnightblue" points="39.2892,-56.6754 38.4111,-67.2338 45.6819,-59.5276 39.2892,-56.6754"/>
</g>
<!-- Node3 -->
<g id="node3" class="node"><title>Node3</title>
<g id="a_node3"><a xlink:title="STL class. ">
<polygon fill="white" stroke="#bfbfbf" points="87.5,-67.5 87.5,-86.5 147.5,-86.5 147.5,-67.5 87.5,-67.5"/>
<text text-anchor="middle" x="117.5" y="-74.5" font-family="Helvetica,sans-Serif" font-size="10.00">std::string</text>
</a>
</g>
</g>
<!-- Node3&#45;&gt;Node1 -->
<g id="edge2" class="edge"><title>Node3&#45;&gt;Node1</title>
<path fill="none" stroke="#9a32cd" stroke-dasharray="5,2" d="M103.602,-59.2705C93.0731,-46.5972 79.0362,-29.701 70.6673,-19.6273"/>
<polygon fill="#9a32cd" stroke="#9a32cd" points="101.135,-61.7785 110.217,-67.2338 106.519,-57.3053 101.135,-61.7785"/>
<text text-anchor="middle" x="113" y="-41" font-family="Helvetica,sans-Serif" font-size="10.00"> m_value</text>
</g>
<!-- Node4 -->
<g id="node4" class="node"><title>Node4</title>
<g id="a_node4"><a xlink:title="STL class. ">
<polygon fill="white" stroke="#bfbfbf" points="70,-124.5 70,-154.5 165,-154.5 165,-124.5 70,-124.5"/>
<text text-anchor="start" x="78" y="-142.5" font-family="Helvetica,sans-Serif" font-size="10.00">std::basic_string&lt;</text>
<text text-anchor="middle" x="117.5" y="-131.5" font-family="Helvetica,sans-Serif" font-size="10.00"> char &gt;</text>
</a>
</g>
</g>
<!-- Node4&#45;&gt;Node3 -->
<g id="edge3" class="edge"><title>Node4&#45;&gt;Node3</title>
<path fill="none" stroke="midnightblue" d="M117.5,-114.352C117.5,-104.513 117.5,-93.7753 117.5,-86.5399"/>
<polygon fill="midnightblue" stroke="midnightblue" points="114,-114.468 117.5,-124.468 121,-114.468 114,-114.468"/>
</g>
</g>
</svg>
