<?xml version="1.0" encoding="UTF-8" standalone="no"?>
<!DOCTYPE svg PUBLIC "-//W3C//DTD SVG 1.1//EN"
 "http://www.w3.org/Graphics/SVG/1.1/DTD/svg11.dtd">
<!-- Generated by graphviz version 2.38.0 (20140413.2041)
 -->
<!-- Title: blfwk::ELFSourceFile::ELFDataSource Pages: 1 -->
<svg width="1055pt" height="355pt"
 viewBox="0.00 0.00 1055.00 355.19" xmlns="http://www.w3.org/2000/svg" xmlns:xlink="http://www.w3.org/1999/xlink">
<g id="graph0" class="graph" transform="scale(1 1) rotate(0) translate(4 351.188)">
<title>blfwk::ELFSourceFile::ELFDataSource</title>
<polygon fill="white" stroke="none" points="-4,4 -4,-351.188 1051,-351.188 1051,4 -4,4"/>
<!-- Node1 -->
<g id="node1" class="node"><title>Node1</title>
<polygon fill="#bfbfbf" stroke="black" points="938,-180.688 938,-210.688 1047,-210.688 1047,-180.688 938,-180.688"/>
<text text-anchor="start" x="946" y="-198.688" font-family="Helvetica,sans-Serif" font-size="10.00">blfwk::ELFSourceFile</text>
<text text-anchor="middle" x="992.5" y="-187.688" font-family="Helvetica,sans-Serif" font-size="10.00">::ELFDataSource</text>
</g>
<!-- Node2 -->
<g id="node2" class="node"><title>Node2</title>
<g id="a_node2"><a xlink:href="classblfwk_1_1_data_source.html" target="_top" xlink:title="Abstract base class for data sources. ">
<polygon fill="white" stroke="black" points="733.5,-245.188 733.5,-264.188 828.5,-264.188 828.5,-245.188 733.5,-245.188"/>
<text text-anchor="middle" x="781" y="-252.188" font-family="Helvetica,sans-Serif" font-size="10.00">blfwk::DataSource</text>
</a>
</g>
</g>
<!-- Node2&#45;&gt;Node1 -->
<g id="edge1" class="edge"><title>Node2&#45;&gt;Node1</title>
<path fill="none" stroke="midnightblue" d="M825.858,-242.336C858.55,-233.13 903.364,-220.509 938.136,-210.716"/>
<polygon fill="midnightblue" stroke="midnightblue" points="824.803,-238.997 816.126,-245.077 826.7,-245.735 824.803,-238.997"/>
</g>
<!-- Node3 -->
<g id="node3" class="node"><title>Node3</title>
<g id="a_node3"><a xlink:href="classblfwk_1_1_data_target.html" target="_top" xlink:title="Abstract base class for the target address or range of data. ">
<polygon fill="white" stroke="black" points="946.5,-262.188 946.5,-281.188 1038.5,-281.188 1038.5,-262.188 946.5,-262.188"/>
<text text-anchor="middle" x="992.5" y="-269.188" font-family="Helvetica,sans-Serif" font-size="10.00">blfwk::DataTarget</text>
</a>
</g>
</g>
<!-- Node2&#45;&gt;Node3 -->
<g id="edge3" class="edge"><title>Node2&#45;&gt;Node3</title>
<path fill="none" stroke="#9a32cd" stroke-dasharray="5,2" d="M839.108,-264.243C846.13,-265.19 853.219,-266.039 860,-266.688 888.656,-269.428 920.959,-270.682 946.378,-271.249"/>
<polygon fill="#9a32cd" stroke="#9a32cd" points="839.305,-260.736 828.912,-262.796 838.321,-267.666 839.305,-260.736"/>
<text text-anchor="middle" x="890" y="-272.688" font-family="Helvetica,sans-Serif" font-size="10.00"> m_source</text>
</g>
<!-- Node3&#45;&gt;Node2 -->
<g id="edge2" class="edge"><title>Node3&#45;&gt;Node2</title>
<path fill="none" stroke="#9a32cd" stroke-dasharray="5,2" d="M945.915,-259.971C937.359,-258.204 928.448,-256.653 920,-255.688 889.769,-252.236 855.569,-251.963 828.779,-252.564"/>
<polygon fill="#9a32cd" stroke="#9a32cd" points="945.23,-263.404 955.747,-262.121 946.726,-256.565 945.23,-263.404"/>
<text text-anchor="middle" x="890" y="-258.688" font-family="Helvetica,sans-Serif" font-size="10.00"> m_target</text>
</g>
<!-- Node4 -->
<g id="node4" class="node"><title>Node4</title>
<g id="a_node4"><a xlink:href="class_st_e_l_f_file.html" target="_top" xlink:title="Parser for Executable and Linking Format (ELF) files. ">
<polygon fill="white" stroke="black" points="751,-202.188 751,-221.188 811,-221.188 811,-202.188 751,-202.188"/>
<text text-anchor="middle" x="781" y="-209.188" font-family="Helvetica,sans-Serif" font-size="10.00">StELFFile</text>
</a>
</g>
</g>
<!-- Node4&#45;&gt;Node1 -->
<g id="edge4" class="edge"><title>Node4&#45;&gt;Node1</title>
<path fill="none" stroke="#9a32cd" stroke-dasharray="5,2" d="M821.088,-202.724C833.464,-200.277 847.242,-197.952 860,-196.688 885.559,-194.154 914.049,-193.655 937.958,-193.89"/>
<polygon fill="#9a32cd" stroke="#9a32cd" points="820.163,-199.341 811.076,-204.789 821.577,-206.197 820.163,-199.341"/>
<text text-anchor="middle" x="890" y="-199.688" font-family="Helvetica,sans-Serif" font-size="10.00"> m_elf</text>
</g>
<!-- Node5 -->
<g id="node5" class="node"><title>Node5</title>
<polygon fill="white" stroke="#bfbfbf" points="488,-316.688 488,-346.688 580,-346.688 580,-316.688 488,-316.688"/>
<text text-anchor="start" x="496" y="-334.688" font-family="Helvetica,sans-Serif" font-size="10.00">std::vector&lt; Elf32</text>
<text text-anchor="middle" x="534" y="-323.688" font-family="Helvetica,sans-Serif" font-size="10.00">_Phdr &gt;</text>
</g>
<!-- Node5&#45;&gt;Node4 -->
<g id="edge5" class="edge"><title>Node5&#45;&gt;Node4</title>
<path fill="none" stroke="#9a32cd" stroke-dasharray="5,2" d="M590.41,-334.696C626.486,-333.623 672.209,-326.098 702,-298.688 723.43,-278.971 700.487,-257.304 720,-235.688 728.044,-226.777 739.845,-221.122 750.858,-217.558"/>
<polygon fill="#9a32cd" stroke="#9a32cd" points="589.984,-331.201 580.033,-334.838 590.08,-338.2 589.984,-331.201"/>
<text text-anchor="middle" x="653.5" y="-336.688" font-family="Helvetica,sans-Serif" font-size="10.00"> m_programHeaders</text>
</g>
<!-- Node6 -->
<g id="node6" class="node"><title>Node6</title>
<g id="a_node6"><a xlink:href="struct_elf32___phdr.html" target="_top" xlink:title="ELF program header. ">
<polygon fill="white" stroke="black" points="300,-322.188 300,-341.188 364,-341.188 364,-322.188 300,-322.188"/>
<text text-anchor="middle" x="332" y="-329.188" font-family="Helvetica,sans-Serif" font-size="10.00">Elf32_Phdr</text>
</a>
</g>
</g>
<!-- Node6&#45;&gt;Node5 -->
<g id="edge6" class="edge"><title>Node6&#45;&gt;Node5</title>
<path fill="none" stroke="#9a32cd" stroke-dasharray="5,2" d="M374.498,-331.688C407.588,-331.688 453.858,-331.688 487.867,-331.688"/>
<polygon fill="#9a32cd" stroke="#9a32cd" points="374.25,-328.188 364.25,-331.688 374.25,-335.188 374.25,-328.188"/>
<text text-anchor="middle" x="440" y="-334.688" font-family="Helvetica,sans-Serif" font-size="10.00"> elements</text>
</g>
<!-- Node7 -->
<g id="node7" class="node"><title>Node7</title>
<g id="a_node7"><a xlink:title="STL class. ">
<polygon fill="white" stroke="#bfbfbf" points="500,-278.188 500,-297.188 568,-297.188 568,-278.188 500,-278.188"/>
<text text-anchor="middle" x="534" y="-285.188" font-family="Helvetica,sans-Serif" font-size="10.00">std::istream</text>
</a>
</g>
</g>
<!-- Node7&#45;&gt;Node4 -->
<g id="edge7" class="edge"><title>Node7&#45;&gt;Node4</title>
<path fill="none" stroke="#9a32cd" stroke-dasharray="5,2" d="M578.193,-286.908C613.531,-284.577 663.739,-277.273 702,-255.688 712.416,-249.812 710.193,-242.531 720,-235.688 729.293,-229.204 740.592,-224.1 750.868,-220.297"/>
<polygon fill="#9a32cd" stroke="#9a32cd" points="577.979,-283.415 568.188,-287.462 578.367,-290.404 577.979,-283.415"/>
<text text-anchor="middle" x="653.5" y="-286.688" font-family="Helvetica,sans-Serif" font-size="10.00"> m_stream</text>
</g>
<!-- Node8 -->
<g id="node8" class="node"><title>Node8</title>
<g id="a_node8"><a xlink:title="STL class. ">
<polygon fill="white" stroke="#bfbfbf" points="283.5,-272.688 283.5,-302.688 380.5,-302.688 380.5,-272.688 283.5,-272.688"/>
<text text-anchor="start" x="291.5" y="-290.688" font-family="Helvetica,sans-Serif" font-size="10.00">std::basic_istream</text>
<text text-anchor="middle" x="332" y="-279.688" font-family="Helvetica,sans-Serif" font-size="10.00">&lt; char &gt;</text>
</a>
</g>
</g>
<!-- Node8&#45;&gt;Node7 -->
<g id="edge8" class="edge"><title>Node8&#45;&gt;Node7</title>
<path fill="none" stroke="midnightblue" d="M390.85,-287.688C426.213,-287.688 470.185,-287.688 499.782,-287.688"/>
<polygon fill="midnightblue" stroke="midnightblue" points="390.651,-284.188 380.651,-287.688 390.651,-291.188 390.651,-284.188"/>
</g>
<!-- Node9 -->
<g id="node9" class="node"><title>Node9</title>
<g id="a_node9"><a xlink:title="STL class. ">
<polygon fill="white" stroke="#bfbfbf" points="112,-278.188 112,-297.188 228,-297.188 228,-278.188 112,-278.188"/>
<text text-anchor="middle" x="170" y="-285.188" font-family="Helvetica,sans-Serif" font-size="10.00">std::basic_ios&lt; Char &gt;</text>
</a>
</g>
</g>
<!-- Node9&#45;&gt;Node8 -->
<g id="edge9" class="edge"><title>Node9&#45;&gt;Node8</title>
<path fill="none" stroke="midnightblue" d="M238.6,-287.688C253.637,-287.688 269.273,-287.688 283.314,-287.688"/>
<polygon fill="midnightblue" stroke="midnightblue" points="238.312,-284.188 228.312,-287.688 238.312,-291.188 238.312,-284.188"/>
</g>
<!-- Node10 -->
<g id="node10" class="node"><title>Node10</title>
<g id="a_node10"><a xlink:title="STL class. ">
<polygon fill="white" stroke="#bfbfbf" points="0,-278.188 0,-297.188 75,-297.188 75,-278.188 0,-278.188"/>
<text text-anchor="middle" x="37.5" y="-285.188" font-family="Helvetica,sans-Serif" font-size="10.00">std::ios_base</text>
</a>
</g>
</g>
<!-- Node10&#45;&gt;Node9 -->
<g id="edge10" class="edge"><title>Node10&#45;&gt;Node9</title>
<path fill="none" stroke="midnightblue" d="M85.3188,-287.688C93.8367,-287.688 102.811,-287.688 111.593,-287.688"/>
<polygon fill="midnightblue" stroke="midnightblue" points="85.1988,-284.188 75.1988,-287.688 85.1988,-291.188 85.1988,-284.188"/>
</g>
<!-- Node11 -->
<g id="node11" class="node"><title>Node11</title>
<g id="a_node11"><a xlink:href="struct_elf32___ehdr.html" target="_top" xlink:title="ELF file header. ">
<polygon fill="white" stroke="black" points="502,-240.188 502,-259.188 566,-259.188 566,-240.188 502,-240.188"/>
<text text-anchor="middle" x="534" y="-247.188" font-family="Helvetica,sans-Serif" font-size="10.00">Elf32_Ehdr</text>
</a>
</g>
</g>
<!-- Node11&#45;&gt;Node4 -->
<g id="edge11" class="edge"><title>Node11&#45;&gt;Node4</title>
<path fill="none" stroke="#9a32cd" stroke-dasharray="5,2" d="M576.152,-244.639C610.01,-240.337 659.213,-233.743 702,-226.688 718.191,-224.018 736.184,-220.589 750.805,-217.684"/>
<polygon fill="#9a32cd" stroke="#9a32cd" points="575.645,-241.175 566.161,-245.899 576.52,-248.12 575.645,-241.175"/>
<text text-anchor="middle" x="653.5" y="-243.688" font-family="Helvetica,sans-Serif" font-size="10.00"> m_header</text>
</g>
<!-- Node12 -->
<g id="node12" class="node"><title>Node12</title>
<g id="a_node12"><a xlink:title="STL class. ">
<polygon fill="white" stroke="#bfbfbf" points="504,-202.188 504,-221.188 564,-221.188 564,-202.188 504,-202.188"/>
<text text-anchor="middle" x="534" y="-209.188" font-family="Helvetica,sans-Serif" font-size="10.00">std::string</text>
</a>
</g>
</g>
<!-- Node12&#45;&gt;Node4 -->
<g id="edge12" class="edge"><title>Node12&#45;&gt;Node4</title>
<path fill="none" stroke="#9a32cd" stroke-dasharray="5,2" d="M574.345,-211.688C623.67,-211.688 707.065,-211.688 750.971,-211.688"/>
<polygon fill="#9a32cd" stroke="#9a32cd" points="574.067,-208.188 564.067,-211.688 574.067,-215.188 574.067,-208.188"/>
<text text-anchor="middle" x="653.5" y="-214.688" font-family="Helvetica,sans-Serif" font-size="10.00"> m_name</text>
</g>
<!-- Node13 -->
<g id="node13" class="node"><title>Node13</title>
<g id="a_node13"><a xlink:title="STL class. ">
<polygon fill="white" stroke="#bfbfbf" points="284.5,-196.688 284.5,-226.688 379.5,-226.688 379.5,-196.688 284.5,-196.688"/>
<text text-anchor="start" x="292.5" y="-214.688" font-family="Helvetica,sans-Serif" font-size="10.00">std::basic_string&lt;</text>
<text text-anchor="middle" x="332" y="-203.688" font-family="Helvetica,sans-Serif" font-size="10.00"> char &gt;</text>
</a>
</g>
</g>
<!-- Node13&#45;&gt;Node12 -->
<g id="edge13" class="edge"><title>Node13&#45;&gt;Node12</title>
<path fill="none" stroke="midnightblue" d="M389.855,-211.688C427.086,-211.688 474.187,-211.688 503.966,-211.688"/>
<polygon fill="midnightblue" stroke="midnightblue" points="389.639,-208.188 379.639,-211.688 389.639,-215.188 389.639,-208.188"/>
</g>
<!-- Node14 -->
<g id="node14" class="node"><title>Node14</title>
<polygon fill="white" stroke="#bfbfbf" points="488,-152.688 488,-182.688 580,-182.688 580,-152.688 488,-152.688"/>
<text text-anchor="start" x="496" y="-170.688" font-family="Helvetica,sans-Serif" font-size="10.00">std::vector&lt; Elf32</text>
<text text-anchor="middle" x="534" y="-159.688" font-family="Helvetica,sans-Serif" font-size="10.00">_Shdr &gt;</text>
</g>
<!-- Node14&#45;&gt;Node4 -->
<g id="edge14" class="edge"><title>Node14&#45;&gt;Node4</title>
<path fill="none" stroke="#9a32cd" stroke-dasharray="5,2" d="M590.267,-177.028C622.818,-182.593 664.78,-189.878 702,-196.688 718.142,-199.641 736.131,-203.09 750.762,-205.936"/>
<polygon fill="#9a32cd" stroke="#9a32cd" points="590.494,-173.516 580.048,-175.284 589.317,-180.416 590.494,-173.516"/>
<text text-anchor="middle" x="653.5" y="-199.688" font-family="Helvetica,sans-Serif" font-size="10.00"> m_sectionHeaders</text>
</g>
<!-- Node15 -->
<g id="node15" class="node"><title>Node15</title>
<g id="a_node15"><a xlink:href="struct_elf32___shdr.html" target="_top" xlink:title="ELF section header. ">
<polygon fill="white" stroke="black" points="300,-158.188 300,-177.188 364,-177.188 364,-158.188 300,-158.188"/>
<text text-anchor="middle" x="332" y="-165.188" font-family="Helvetica,sans-Serif" font-size="10.00">Elf32_Shdr</text>
</a>
</g>
</g>
<!-- Node15&#45;&gt;Node14 -->
<g id="edge15" class="edge"><title>Node15&#45;&gt;Node14</title>
<path fill="none" stroke="#9a32cd" stroke-dasharray="5,2" d="M374.498,-167.688C407.588,-167.688 453.858,-167.688 487.867,-167.688"/>
<polygon fill="#9a32cd" stroke="#9a32cd" points="374.25,-164.188 364.25,-167.688 374.25,-171.188 374.25,-164.188"/>
<text text-anchor="middle" x="440" y="-170.688" font-family="Helvetica,sans-Serif" font-size="10.00"> elements</text>
</g>
<!-- Node16 -->
<g id="node16" class="node"><title>Node16</title>
<polygon fill="white" stroke="#bfbfbf" points="481,-103.688 481,-133.688 587,-133.688 587,-103.688 481,-103.688"/>
<text text-anchor="start" x="489" y="-121.688" font-family="Helvetica,sans-Serif" font-size="10.00">std::map&lt; unsigned,</text>
<text text-anchor="middle" x="534" y="-110.688" font-family="Helvetica,sans-Serif" font-size="10.00"> SectionDataInfo &gt;</text>
</g>
<!-- Node16&#45;&gt;Node4 -->
<g id="edge16" class="edge"><title>Node16&#45;&gt;Node4</title>
<path fill="none" stroke="#9a32cd" stroke-dasharray="5,2" d="M597.449,-132.19C629.398,-140.109 668.507,-151.385 702,-165.688 725.711,-175.813 751.054,-191.844 766.206,-202.058"/>
<polygon fill="#9a32cd" stroke="#9a32cd" points="597.887,-128.695 587.344,-129.737 596.236,-135.497 597.887,-128.695"/>
<text text-anchor="middle" x="653.5" y="-168.688" font-family="Helvetica,sans-Serif" font-size="10.00"> m_sectionDataCache</text>
</g>
<!-- Node17 -->
<g id="node17" class="node"><title>Node17</title>
<g id="a_node17"><a xlink:href="class_st_e_l_f_file.html#struct_st_e_l_f_file_1_1_section_data_info" target="_top" xlink:title="StELFFile::SectionDataInfo">
<polygon fill="white" stroke="black" points="265,-109.188 265,-128.188 399,-128.188 399,-109.188 265,-109.188"/>
<text text-anchor="middle" x="332" y="-116.188" font-family="Helvetica,sans-Serif" font-size="10.00">StELFFile::SectionDataInfo</text>
</a>
</g>
</g>
<!-- Node17&#45;&gt;Node16 -->
<g id="edge17" class="edge"><title>Node17&#45;&gt;Node16</title>
<path fill="none" stroke="#9a32cd" stroke-dasharray="5,2" d="M409.179,-118.688C433.152,-118.688 459.063,-118.688 480.956,-118.688"/>
<polygon fill="#9a32cd" stroke="#9a32cd" points="409.042,-115.188 399.042,-118.688 409.042,-122.188 409.042,-115.188"/>
<text text-anchor="middle" x="440" y="-121.688" font-family="Helvetica,sans-Serif" font-size="10.00"> elements</text>
</g>
<!-- Node18 -->
<g id="node18" class="node"><title>Node18</title>
<polygon fill="white" stroke="#bfbfbf" points="720,-81.6879 720,-111.688 842,-111.688 842,-81.6879 720,-81.6879"/>
<text text-anchor="start" x="728" y="-99.6879" font-family="Helvetica,sans-Serif" font-size="10.00">std::vector&lt; DataSource</text>
<text text-anchor="middle" x="781" y="-88.6879" font-family="Helvetica,sans-Serif" font-size="10.00">::Segment * &gt;</text>
</g>
<!-- Node18&#45;&gt;Node1 -->
<g id="edge18" class="edge"><title>Node18&#45;&gt;Node1</title>
<path fill="none" stroke="#9a32cd" stroke-dasharray="5,2" d="M823.043,-116.083C863.096,-135.01 923.185,-163.405 959.726,-180.673"/>
<polygon fill="#9a32cd" stroke="#9a32cd" points="824.355,-112.832 813.819,-111.724 821.364,-119.161 824.355,-112.832"/>
<text text-anchor="middle" x="890" y="-164.688" font-family="Helvetica,sans-Serif" font-size="10.00"> m_segments</text>
</g>
<!-- Node19 -->
<g id="node19" class="node"><title>Node19</title>
<g id="a_node19"><a xlink:href="classelftosb_1_1_data_source_1_1_segment.html" target="_top" xlink:title="Discrete, contiguous part of the source&#39;s data. ">
<polygon fill="white" stroke="black" points="483,-54.6879 483,-84.6879 585,-84.6879 585,-54.6879 483,-54.6879"/>
<text text-anchor="start" x="491" y="-72.6879" font-family="Helvetica,sans-Serif" font-size="10.00">elftosb::DataSource</text>
<text text-anchor="middle" x="534" y="-61.6879" font-family="Helvetica,sans-Serif" font-size="10.00">::Segment</text>
</a>
</g>
</g>
<!-- Node19&#45;&gt;Node18 -->
<g id="edge19" class="edge"><title>Node19&#45;&gt;Node18</title>
<path fill="none" stroke="#9a32cd" stroke-dasharray="5,2" d="M595.561,-76.362C633.474,-80.5401 682.128,-85.902 719.945,-90.0696"/>
<polygon fill="#9a32cd" stroke="#9a32cd" points="595.494,-72.8334 585.171,-75.2169 594.727,-79.7913 595.494,-72.8334"/>
<text text-anchor="middle" x="653.5" y="-91.6879" font-family="Helvetica,sans-Serif" font-size="10.00"> elements</text>
</g>
<!-- Node20 -->
<g id="node20" class="node"><title>Node20</title>
<g id="a_node20"><a xlink:href="classelftosb_1_1_data_source.html" target="_top" xlink:title="Abstract base class for data sources. ">
<polygon fill="white" stroke="black" points="281,-26.1879 281,-45.1879 383,-45.1879 383,-26.1879 281,-26.1879"/>
<text text-anchor="middle" x="332" y="-33.1879" font-family="Helvetica,sans-Serif" font-size="10.00">elftosb::DataSource</text>
</a>
</g>
</g>
<!-- Node20&#45;&gt;Node19 -->
<g id="edge20" class="edge"><title>Node20&#45;&gt;Node19</title>
<path fill="none" stroke="#9a32cd" stroke-dasharray="5,2" d="M393.095,-45.9041C421.712,-50.7689 455.543,-56.5202 482.769,-61.1486"/>
<polygon fill="#9a32cd" stroke="#9a32cd" points="393.655,-42.4492 383.21,-44.2236 392.482,-49.3502 393.655,-42.4492"/>
<text text-anchor="middle" x="440" y="-61.6879" font-family="Helvetica,sans-Serif" font-size="10.00"> m_source</text>
</g>
<!-- Node21 -->
<g id="node21" class="node"><title>Node21</title>
<g id="a_node21"><a xlink:href="classelftosb_1_1_data_target.html" target="_top" xlink:title="Abstract base class for the target address or range of data. ">
<polygon fill="white" stroke="black" points="485,-4.18787 485,-23.1879 583,-23.1879 583,-4.18787 485,-4.18787"/>
<text text-anchor="middle" x="534" y="-11.1879" font-family="Helvetica,sans-Serif" font-size="10.00">elftosb::DataTarget</text>
</a>
</g>
</g>
<!-- Node20&#45;&gt;Node21 -->
<g id="edge22" class="edge"><title>Node20&#45;&gt;Node21</title>
<path fill="none" stroke="#9a32cd" stroke-dasharray="5,2" d="M393.326,-29.052C422.624,-25.8292 457.345,-22.0099 484.839,-18.9856"/>
<polygon fill="#9a32cd" stroke="#9a32cd" points="392.768,-25.5922 383.21,-30.1647 393.533,-32.5503 392.768,-25.5922"/>
<text text-anchor="middle" x="440" y="-29.6879" font-family="Helvetica,sans-Serif" font-size="10.00"> m_source</text>
</g>
<!-- Node21&#45;&gt;Node20 -->
<g id="edge21" class="edge"><title>Node21&#45;&gt;Node20</title>
<path fill="none" stroke="#9a32cd" stroke-dasharray="5,2" d="M481.693,-2.64685C461.423,0.109876 437.999,1.289 417,-2.68787 393.446,-7.14859 368.042,-18.0647 351.413,-26.1267"/>
<polygon fill="#9a32cd" stroke="#9a32cd" points="481.258,-6.12082 491.67,-4.16192 482.309,0.799835 481.258,-6.12082"/>
<text text-anchor="middle" x="440" y="-5.68787" font-family="Helvetica,sans-Serif" font-size="10.00"> m_target</text>
</g>
</g>
</svg>
