<?xml version="1.0" encoding="UTF-8" standalone="no"?>
<!DOCTYPE svg PUBLIC "-//W3C//DTD SVG 1.1//EN"
 "http://www.w3.org/Graphics/SVG/1.1/DTD/svg11.dtd">
<!-- Generated by graphviz version 2.38.0 (20140413.2041)
 -->
<!-- Title: OptIter Pages: 1 -->
<svg width="218pt" height="140pt"
 viewBox="0.00 0.00 218.00 140.00" xmlns="http://www.w3.org/2000/svg" xmlns:xlink="http://www.w3.org/1999/xlink">
<g id="graph0" class="graph" transform="scale(1 1) rotate(0) translate(4 136)">
<title>OptIter</title>
<polygon fill="white" stroke="none" points="-4,4 -4,-136 214,-136 214,4 -4,4"/>
<!-- Node1 -->
<g id="node1" class="node"><title>Node1</title>
<polygon fill="#bfbfbf" stroke="black" points="61,-112.5 61,-131.5 107,-131.5 107,-112.5 61,-112.5"/>
<text text-anchor="middle" x="84" y="-119.5" font-family="Helvetica,sans-Serif" font-size="10.00">OptIter</text>
</g>
<!-- Node2 -->
<g id="node2" class="node"><title>Node2</title>
<g id="a_node2"><a xlink:href="class_opt_istream_iter.html" target="_top" xlink:title="OptIstreamIter">
<polygon fill="white" stroke="black" points="0,-56.5 0,-75.5 78,-75.5 78,-56.5 0,-56.5"/>
<text text-anchor="middle" x="39" y="-63.5" font-family="Helvetica,sans-Serif" font-size="10.00">OptIstreamIter</text>
</a>
</g>
</g>
<!-- Node1&#45;&gt;Node2 -->
<g id="edge1" class="edge"><title>Node1&#45;&gt;Node2</title>
<path fill="none" stroke="midnightblue" d="M64.4117,-104.968C55.5131,-95.4381 46.101,-83.7118 41.2129,-75.8339"/>
<polygon fill="midnightblue" stroke="midnightblue" points="62.1448,-107.654 71.6551,-112.324 67.1326,-102.743 62.1448,-107.654"/>
</g>
<!-- Node1&#45;&gt;Node2 -->
<g id="edge2" class="edge"><title>Node1&#45;&gt;Node2</title>
<path fill="none" stroke="midnightblue" d="M76.0461,-103.855C69.0794,-94.5048 59.3633,-83.3265 51.4236,-75.7511"/>
<polygon fill="midnightblue" stroke="midnightblue" points="73.1691,-105.849 81.7355,-112.083 78.9266,-101.867 73.1691,-105.849"/>
</g>
<!-- Node3 -->
<g id="node3" class="node"><title>Node3</title>
<g id="a_node3"><a xlink:href="class_opt_iter_rwd.html" target="_top" xlink:title="OptIterRwd">
<polygon fill="white" stroke="black" points="96.5,-56.5 96.5,-75.5 161.5,-75.5 161.5,-56.5 96.5,-56.5"/>
<text text-anchor="middle" x="129" y="-63.5" font-family="Helvetica,sans-Serif" font-size="10.00">OptIterRwd</text>
</a>
</g>
</g>
<!-- Node1&#45;&gt;Node3 -->
<g id="edge3" class="edge"><title>Node1&#45;&gt;Node3</title>
<path fill="none" stroke="midnightblue" d="M91.9539,-103.855C98.9206,-94.5048 108.637,-83.3265 116.576,-75.7511"/>
<polygon fill="midnightblue" stroke="midnightblue" points="89.0734,-101.867 86.2645,-112.083 94.8309,-105.849 89.0734,-101.867"/>
</g>
<!-- Node1&#45;&gt;Node3 -->
<g id="edge8" class="edge"><title>Node1&#45;&gt;Node3</title>
<path fill="none" stroke="midnightblue" d="M103.588,-104.968C112.487,-95.4381 121.899,-83.7118 126.787,-75.8339"/>
<polygon fill="midnightblue" stroke="midnightblue" points="100.867,-102.743 96.3449,-112.324 105.855,-107.654 100.867,-102.743"/>
</g>
<!-- Node4 -->
<g id="node4" class="node"><title>Node4</title>
<g id="a_node4"><a xlink:href="class_opt_argv_iter.html" target="_top" xlink:title="OptArgvIter">
<polygon fill="white" stroke="black" points="52.5,-0.5 52.5,-19.5 117.5,-19.5 117.5,-0.5 52.5,-0.5"/>
<text text-anchor="middle" x="85" y="-7.5" font-family="Helvetica,sans-Serif" font-size="10.00">OptArgvIter</text>
</a>
</g>
</g>
<!-- Node3&#45;&gt;Node4 -->
<g id="edge4" class="edge"><title>Node3&#45;&gt;Node4</title>
<path fill="none" stroke="midnightblue" d="M109.48,-48.7175C100.795,-39.1997 91.6858,-27.5608 86.9995,-19.7511"/>
<polygon fill="midnightblue" stroke="midnightblue" points="107.112,-51.3047 116.568,-56.083 112.156,-46.4507 107.112,-51.3047"/>
</g>
<!-- Node3&#45;&gt;Node4 -->
<g id="edge5" class="edge"><title>Node3&#45;&gt;Node4</title>
<path fill="none" stroke="midnightblue" d="M121.153,-47.5656C114.374,-38.2747 104.981,-27.2484 97.2615,-19.7511"/>
<polygon fill="midnightblue" stroke="midnightblue" points="118.406,-49.7518 126.901,-56.083 124.208,-45.836 118.406,-49.7518"/>
</g>
<!-- Node5 -->
<g id="node5" class="node"><title>Node5</title>
<g id="a_node5"><a xlink:href="class_opt_str_tok_iter.html" target="_top" xlink:title="OptStrTokIter">
<polygon fill="white" stroke="black" points="136,-0.5 136,-19.5 210,-19.5 210,-0.5 136,-0.5"/>
<text text-anchor="middle" x="173" y="-7.5" font-family="Helvetica,sans-Serif" font-size="10.00">OptStrTokIter</text>
</a>
</g>
</g>
<!-- Node3&#45;&gt;Node5 -->
<g id="edge6" class="edge"><title>Node3&#45;&gt;Node5</title>
<path fill="none" stroke="midnightblue" d="M136.847,-47.5656C143.626,-38.2747 153.019,-27.2484 160.738,-19.7511"/>
<polygon fill="midnightblue" stroke="midnightblue" points="133.792,-45.836 131.099,-56.083 139.594,-49.7518 133.792,-45.836"/>
</g>
<!-- Node3&#45;&gt;Node5 -->
<g id="edge7" class="edge"><title>Node3&#45;&gt;Node5</title>
<path fill="none" stroke="midnightblue" d="M148.52,-48.7175C157.205,-39.1997 166.314,-27.5608 171,-19.7511"/>
<polygon fill="midnightblue" stroke="midnightblue" points="145.844,-46.4507 141.432,-56.083 150.888,-51.3047 145.844,-46.4507"/>
</g>
</g>
</svg>
