<?xml version="1.0" encoding="UTF-8" standalone="no"?>
<!DOCTYPE svg PUBLIC "-//W3C//DTD SVG 1.1//EN"
 "http://www.w3.org/Graphics/SVG/1.1/DTD/svg11.dtd">
<!-- Generated by graphviz version 2.38.0 (20140413.2041)
 -->
<!-- Title: blfwk::SimPeripheral Pages: 1 -->
<svg width="224pt" height="117pt"
 viewBox="0.00 0.00 224.00 117.00" xmlns="http://www.w3.org/2000/svg" xmlns:xlink="http://www.w3.org/1999/xlink">
<g id="graph0" class="graph" transform="scale(1 1) rotate(0) translate(4 113)">
<title>blfwk::SimPeripheral</title>
<polygon fill="white" stroke="none" points="-4,4 -4,-113 220,-113 220,4 -4,4"/>
<!-- Node1 -->
<g id="node1" class="node"><title>Node1</title>
<polygon fill="#bfbfbf" stroke="black" points="49.5,-0.5 49.5,-19.5 154.5,-19.5 154.5,-0.5 49.5,-0.5"/>
<text text-anchor="middle" x="102" y="-7.5" font-family="Helvetica,sans-Serif" font-size="10.00">blfwk::SimPeripheral</text>
</g>
<!-- Node2 -->
<g id="node2" class="node"><title>Node2</title>
<g id="a_node2"><a xlink:href="classblfwk_1_1_peripheral.html" target="_top" xlink:title="Represents a peripheral. ">
<polygon fill="white" stroke="black" points="0,-84 0,-103 88,-103 88,-84 0,-84"/>
<text text-anchor="middle" x="44" y="-91" font-family="Helvetica,sans-Serif" font-size="10.00">blfwk::Peripheral</text>
</a>
</g>
</g>
<!-- Node2&#45;&gt;Node1 -->
<g id="edge1" class="edge"><title>Node2&#45;&gt;Node1</title>
<path fill="none" stroke="midnightblue" d="M56.2384,-75.3029C68.365,-58.2629 86.446,-32.8561 95.8376,-19.6592"/>
<polygon fill="midnightblue" stroke="midnightblue" points="53.1536,-73.6012 50.207,-83.7781 58.8569,-77.66 53.1536,-73.6012"/>
</g>
<!-- Node3 -->
<g id="node3" class="node"><title>Node3</title>
<polygon fill="white" stroke="#bfbfbf" points="106,-78.5 106,-108.5 216,-108.5 216,-78.5 106,-78.5"/>
<text text-anchor="start" x="114" y="-96.5" font-family="Helvetica,sans-Serif" font-size="10.00">std::deque&lt; unsigned</text>
<text text-anchor="middle" x="161" y="-85.5" font-family="Helvetica,sans-Serif" font-size="10.00"> char &gt;</text>
</g>
<!-- Node3&#45;&gt;Node1 -->
<g id="edge2" class="edge"><title>Node3&#45;&gt;Node1</title>
<path fill="none" stroke="#9a32cd" stroke-dasharray="5,2" d="M144.792,-70.1109C132.679,-53.3787 116.786,-31.4248 108.182,-19.5391"/>
<polygon fill="#9a32cd" stroke="#9a32cd" points="142.024,-72.2559 150.723,-78.3038 147.694,-68.1511 142.024,-72.2559"/>
<text text-anchor="middle" x="167" y="-52" font-family="Helvetica,sans-Serif" font-size="10.00"> m_outStream</text>
<text text-anchor="middle" x="167" y="-41" font-family="Helvetica,sans-Serif" font-size="10.00">m_inStream</text>
</g>
</g>
</svg>
