<?xml version="1.0" encoding="UTF-8" standalone="no"?>
<!DOCTYPE svg PUBLIC "-//W3C//DTD SVG 1.1//EN"
 "http://www.w3.org/Graphics/SVG/1.1/DTD/svg11.dtd">
<!-- Generated by graphviz version 2.38.0 (20140413.2041)
 -->
<!-- Title: elftosb::IfStatementASTNode Pages: 1 -->
<svg width="1447pt" height="130pt"
 viewBox="0.00 0.00 1447.00 130.00" xmlns="http://www.w3.org/2000/svg" xmlns:xlink="http://www.w3.org/1999/xlink">
<g id="graph0" class="graph" transform="scale(1 1) rotate(0) translate(4 126)">
<title>elftosb::IfStatementASTNode</title>
<polygon fill="white" stroke="none" points="-4,4 -4,-126 1443,-126 1443,4 -4,4"/>
<!-- Node1 -->
<g id="node1" class="node"><title>Node1</title>
<polygon fill="#bfbfbf" stroke="black" points="1099,-53.5 1099,-72.5 1241,-72.5 1241,-53.5 1099,-53.5"/>
<text text-anchor="middle" x="1170" y="-60.5" font-family="Helvetica,sans-Serif" font-size="10.00">elftosb::IfStatementASTNode</text>
</g>
<!-- Node5 -->
<g id="node5" class="node"><title>Node5</title>
<g id="a_node5"><a xlink:href="group__smart__pointer.html" target="_top" xlink:title="smart_ptr\&lt; elftosb\l::IfStatementASTNode \&gt;">
<polygon fill="white" stroke="black" points="1317,-48 1317,-78 1439,-78 1439,-48 1317,-48"/>
<text text-anchor="start" x="1325" y="-66" font-family="Helvetica,sans-Serif" font-size="10.00">smart_ptr&lt; elftosb</text>
<text text-anchor="middle" x="1378" y="-55" font-family="Helvetica,sans-Serif" font-size="10.00">::IfStatementASTNode &gt;</text>
</a>
</g>
</g>
<!-- Node1&#45;&gt;Node5 -->
<g id="edge6" class="edge"><title>Node1&#45;&gt;Node5</title>
<path fill="none" stroke="#9a32cd" stroke-dasharray="5,2" d="M1251.26,-63C1273.07,-63 1296.3,-63 1316.79,-63"/>
<polygon fill="#9a32cd" stroke="#9a32cd" points="1251.03,-59.5001 1241.03,-63 1251.03,-66.5001 1251.03,-59.5001"/>
<text text-anchor="middle" x="1279" y="-66" font-family="Helvetica,sans-Serif" font-size="10.00"> _p</text>
</g>
<!-- Node2 -->
<g id="node2" class="node"><title>Node2</title>
<g id="a_node2"><a xlink:href="classelftosb_1_1_statement_a_s_t_node.html" target="_top" xlink:title="elftosb::StatementASTNode">
<polygon fill="white" stroke="black" points="492,-102.5 492,-121.5 629,-121.5 629,-102.5 492,-102.5"/>
<text text-anchor="middle" x="560.5" y="-109.5" font-family="Helvetica,sans-Serif" font-size="10.00">elftosb::StatementASTNode</text>
</a>
</g>
</g>
<!-- Node2&#45;&gt;Node1 -->
<g id="edge1" class="edge"><title>Node2&#45;&gt;Node1</title>
<path fill="none" stroke="midnightblue" d="M639.527,-114.41C741.7,-116.231 926.046,-114.923 1081,-89 1102.21,-85.4513 1125.52,-78.415 1142.82,-72.5563"/>
<polygon fill="midnightblue" stroke="midnightblue" points="639.361,-110.906 629.295,-114.212 639.226,-117.905 639.361,-110.906"/>
</g>
<!-- Node3 -->
<g id="node3" class="node"><title>Node3</title>
<g id="a_node3"><a xlink:href="classelftosb_1_1_a_s_t_node.html" target="_top" xlink:title="The base class for all AST node classes. ">
<polygon fill="white" stroke="black" points="188,-63.5 188,-82.5 280,-82.5 280,-63.5 188,-63.5"/>
<text text-anchor="middle" x="234" y="-70.5" font-family="Helvetica,sans-Serif" font-size="10.00">elftosb::ASTNode</text>
</a>
</g>
</g>
<!-- Node3&#45;&gt;Node2 -->
<g id="edge2" class="edge"><title>Node3&#45;&gt;Node2</title>
<path fill="none" stroke="midnightblue" d="M261.652,-86.9385C272.612,-91.9967 285.62,-97.1617 298,-100 362.675,-114.828 438.634,-116.646 491.971,-115.47"/>
<polygon fill="midnightblue" stroke="midnightblue" points="263.142,-83.7715 252.614,-82.5821 260.102,-90.0772 263.142,-83.7715"/>
</g>
<!-- Node3&#45;&gt;Node3 -->
<g id="edge4" class="edge"><title>Node3&#45;&gt;Node3</title>
<path fill="none" stroke="#9a32cd" stroke-dasharray="5,2" d="M218.531,-92.7663C219.746,-97.4965 224.902,-101 234,-101 248.93,-101 253.245,-91.5653 246.947,-82.7571"/>
<polygon fill="#9a32cd" stroke="#9a32cd" points="222.003,-93.3092 221.053,-82.7571 215.216,-91.5986 222.003,-93.3092"/>
<text text-anchor="middle" x="234" y="-104" font-family="Helvetica,sans-Serif" font-size="10.00"> m_parent</text>
</g>
<!-- Node7 -->
<g id="node7" class="node"><title>Node7</title>
<g id="a_node7"><a xlink:href="classelftosb_1_1_list_a_s_t_node.html" target="_top" xlink:title="AST node that contains other AST nodes. ">
<polygon fill="white" stroke="black" points="647,-53.5 647,-72.5 755,-72.5 755,-53.5 647,-53.5"/>
<text text-anchor="middle" x="701" y="-60.5" font-family="Helvetica,sans-Serif" font-size="10.00">elftosb::ListASTNode</text>
</a>
</g>
</g>
<!-- Node3&#45;&gt;Node7 -->
<g id="edge9" class="edge"><title>Node3&#45;&gt;Node7</title>
<path fill="none" stroke="midnightblue" d="M290.598,-75.0174C366.963,-77.2959 508.552,-79.7571 629,-72 634.828,-71.6247 640.909,-71.0838 646.954,-70.4508"/>
<polygon fill="midnightblue" stroke="midnightblue" points="290.368,-71.5087 280.265,-74.6982 290.152,-78.5054 290.368,-71.5087"/>
</g>
<!-- Node8 -->
<g id="node8" class="node"><title>Node8</title>
<polygon fill="white" stroke="#bfbfbf" points="359,-38.5 359,-57.5 474,-57.5 474,-38.5 359,-38.5"/>
<text text-anchor="middle" x="416.5" y="-45.5" font-family="Helvetica,sans-Serif" font-size="10.00">std::list&lt; ASTNode * &gt;</text>
</g>
<!-- Node3&#45;&gt;Node8 -->
<g id="edge11" class="edge"><title>Node3&#45;&gt;Node8</title>
<path fill="none" stroke="#9a32cd" stroke-dasharray="5,2" d="M289.927,-62.2762C292.653,-61.826 295.356,-61.3975 298,-61 317.788,-58.0254 339.547,-55.4309 358.906,-53.3584"/>
<polygon fill="#9a32cd" stroke="#9a32cd" points="289.27,-58.8378 280.009,-63.9848 290.458,-65.7361 289.27,-58.8378"/>
<text text-anchor="middle" x="319.5" y="-64" font-family="Helvetica,sans-Serif" font-size="10.00"> elements</text>
</g>
<!-- Node10 -->
<g id="node10" class="node"><title>Node10</title>
<g id="a_node10"><a xlink:href="classelftosb_1_1_expr_a_s_t_node.html" target="_top" xlink:title="Abstract base class for all expression AST nodes. ">
<polygon fill="white" stroke="black" points="360,-0.5 360,-19.5 473,-19.5 473,-0.5 360,-0.5"/>
<text text-anchor="middle" x="416.5" y="-7.5" font-family="Helvetica,sans-Serif" font-size="10.00">elftosb::ExprASTNode</text>
</a>
</g>
</g>
<!-- Node3&#45;&gt;Node10 -->
<g id="edge14" class="edge"><title>Node3&#45;&gt;Node10</title>
<path fill="none" stroke="midnightblue" d="M271.238,-59.963C295.935,-51.1221 329.398,-39.2286 359,-29 367.999,-25.8906 377.827,-22.5622 386.726,-19.5738"/>
<polygon fill="midnightblue" stroke="midnightblue" points="269.795,-56.7621 261.563,-63.431 272.157,-63.3516 269.795,-56.7621"/>
</g>
<!-- Node4 -->
<g id="node4" class="node"><title>Node4</title>
<g id="a_node4"><a xlink:href="structelftosb_1_1token__loc__t.html" target="_top" xlink:title="Token location in the source file. ">
<polygon fill="white" stroke="black" points="0,-63.5 0,-82.5 101,-82.5 101,-63.5 0,-63.5"/>
<text text-anchor="middle" x="50.5" y="-70.5" font-family="Helvetica,sans-Serif" font-size="10.00">elftosb::token_loc_t</text>
</a>
</g>
</g>
<!-- Node4&#45;&gt;Node3 -->
<g id="edge3" class="edge"><title>Node4&#45;&gt;Node3</title>
<path fill="none" stroke="#9a32cd" stroke-dasharray="5,2" d="M111.183,-73C136.134,-73 164.648,-73 187.814,-73"/>
<polygon fill="#9a32cd" stroke="#9a32cd" points="111.096,-69.5001 101.096,-73 111.096,-76.5001 111.096,-69.5001"/>
<text text-anchor="middle" x="144.5" y="-76" font-family="Helvetica,sans-Serif" font-size="10.00"> m_location</text>
</g>
<!-- Node5&#45;&gt;Node1 -->
<g id="edge5" class="edge"><title>Node5&#45;&gt;Node1</title>
<path fill="none" stroke="#9a32cd" stroke-dasharray="5,2" d="M1306.68,-47.8985C1304.09,-47.5586 1301.53,-47.2565 1299,-47 1269.14,-43.9694 1235.47,-48.4952 1210.16,-53.4972"/>
<polygon fill="#9a32cd" stroke="#9a32cd" points="1306.31,-51.3825 1316.72,-49.3798 1307.34,-44.4575 1306.31,-51.3825"/>
<text text-anchor="middle" x="1279" y="-50" font-family="Helvetica,sans-Serif" font-size="10.00"> m_nextIf</text>
</g>
<!-- Node6 -->
<g id="node6" class="node"><title>Node6</title>
<g id="a_node6"><a xlink:href="group__smart__pointer.html" target="_top" xlink:title="smart_ptr\&lt; elftosb\l::ListASTNode \&gt;">
<polygon fill="white" stroke="black" points="886,-48 886,-78 981,-78 981,-48 886,-48"/>
<text text-anchor="start" x="894" y="-66" font-family="Helvetica,sans-Serif" font-size="10.00">smart_ptr&lt; elftosb</text>
<text text-anchor="middle" x="933.5" y="-55" font-family="Helvetica,sans-Serif" font-size="10.00">::ListASTNode &gt;</text>
</a>
</g>
</g>
<!-- Node6&#45;&gt;Node1 -->
<g id="edge7" class="edge"><title>Node6&#45;&gt;Node1</title>
<path fill="none" stroke="#9a32cd" stroke-dasharray="5,2" d="M991.306,-63C1023.69,-63 1064.53,-63 1098.89,-63"/>
<polygon fill="#9a32cd" stroke="#9a32cd" points="991.11,-59.5001 981.11,-63 991.11,-66.5001 991.11,-59.5001"/>
<text text-anchor="middle" x="1040" y="-77" font-family="Helvetica,sans-Serif" font-size="10.00"> m_ifStatements</text>
<text text-anchor="middle" x="1040" y="-66" font-family="Helvetica,sans-Serif" font-size="10.00">m_elseStatements</text>
</g>
<!-- Node7&#45;&gt;Node6 -->
<g id="edge8" class="edge"><title>Node7&#45;&gt;Node6</title>
<path fill="none" stroke="#9a32cd" stroke-dasharray="5,2" d="M765.639,-63C803.712,-63 851.255,-63 885.842,-63"/>
<polygon fill="#9a32cd" stroke="#9a32cd" points="765.171,-59.5001 755.171,-63 765.171,-66.5001 765.171,-59.5001"/>
<text text-anchor="middle" x="820.5" y="-66" font-family="Helvetica,sans-Serif" font-size="10.00"> _p</text>
</g>
<!-- Node8&#45;&gt;Node7 -->
<g id="edge10" class="edge"><title>Node8&#45;&gt;Node7</title>
<path fill="none" stroke="#9a32cd" stroke-dasharray="5,2" d="M484.317,-51.5478C533.885,-54.1797 600.574,-57.7207 646.61,-60.1651"/>
<polygon fill="#9a32cd" stroke="#9a32cd" points="484.5,-48.0527 474.328,-51.0174 484.129,-55.0428 484.5,-48.0527"/>
<text text-anchor="middle" x="560.5" y="-62" font-family="Helvetica,sans-Serif" font-size="10.00"> m_list</text>
</g>
<!-- Node9 -->
<g id="node9" class="node"><title>Node9</title>
<g id="a_node9"><a xlink:href="group__smart__pointer.html" target="_top" xlink:title="smart_ptr\&lt; elftosb\l::ExprASTNode \&gt;">
<polygon fill="white" stroke="black" points="773,-1 773,-31 868,-31 868,-1 773,-1"/>
<text text-anchor="start" x="781" y="-19" font-family="Helvetica,sans-Serif" font-size="10.00">smart_ptr&lt; elftosb</text>
<text text-anchor="middle" x="820.5" y="-8" font-family="Helvetica,sans-Serif" font-size="10.00">::ExprASTNode &gt;</text>
</a>
</g>
</g>
<!-- Node9&#45;&gt;Node1 -->
<g id="edge12" class="edge"><title>Node9&#45;&gt;Node1</title>
<path fill="none" stroke="#9a32cd" stroke-dasharray="5,2" d="M878.108,-18.2438C908.668,-19.8726 946.996,-22.588 981,-27 1031.59,-33.5636 1089.1,-45.1991 1127.05,-53.4644"/>
<polygon fill="#9a32cd" stroke="#9a32cd" points="878.224,-14.7453 868.059,-17.7322 877.868,-21.7362 878.224,-14.7453"/>
<text text-anchor="middle" x="933.5" y="-30" font-family="Helvetica,sans-Serif" font-size="10.00"> m_conditionExpr</text>
</g>
<!-- Node10&#45;&gt;Node9 -->
<g id="edge13" class="edge"><title>Node10&#45;&gt;Node9</title>
<path fill="none" stroke="#9a32cd" stroke-dasharray="5,2" d="M483.539,-10.9857C565.012,-12.2017 701.472,-14.2384 772.821,-15.3033"/>
<polygon fill="#9a32cd" stroke="#9a32cd" points="483.448,-7.484 473.396,-10.8343 483.343,-14.4832 483.448,-7.484"/>
<text text-anchor="middle" x="560.5" y="-17" font-family="Helvetica,sans-Serif" font-size="10.00"> _p</text>
</g>
</g>
</svg>
