<?xml version="1.0" encoding="UTF-8" standalone="no"?>
<!DOCTYPE svg PUBLIC "-//W3C//DTD SVG 1.1//EN"
 "http://www.w3.org/Graphics/SVG/1.1/DTD/svg11.dtd">
<!-- Generated by graphviz version 2.38.0 (20140413.2041)
 -->
<!-- Title: blfwk::DataSource Pages: 1 -->
<svg width="296pt" height="154pt"
 viewBox="0.00 0.00 296.00 153.50" xmlns="http://www.w3.org/2000/svg" xmlns:xlink="http://www.w3.org/1999/xlink">
<g id="graph0" class="graph" transform="scale(1 1) rotate(0) translate(4 149.5)">
<title>blfwk::DataSource</title>
<polygon fill="white" stroke="none" points="-4,4 -4,-149.5 292,-149.5 292,4 -4,4"/>
<!-- Node1 -->
<g id="node1" class="node"><title>Node1</title>
<polygon fill="#bfbfbf" stroke="black" points="0,-57.5 0,-76.5 95,-76.5 95,-57.5 0,-57.5"/>
<text text-anchor="middle" x="47.5" y="-64.5" font-family="Helvetica,sans-Serif" font-size="10.00">blfwk::DataSource</text>
</g>
<!-- Node2 -->
<g id="node2" class="node"><title>Node2</title>
<g id="a_node2"><a xlink:href="classblfwk_1_1_e_l_f_source_file_1_1_e_l_f_data_source.html" target="_top" xlink:title="A data source with ELF file sections as the contents. ">
<polygon fill="white" stroke="black" points="155,-115 155,-145 264,-145 264,-115 155,-115"/>
<text text-anchor="start" x="163" y="-133" font-family="Helvetica,sans-Serif" font-size="10.00">blfwk::ELFSourceFile</text>
<text text-anchor="middle" x="209.5" y="-122" font-family="Helvetica,sans-Serif" font-size="10.00">::ELFDataSource</text>
</a>
</g>
</g>
<!-- Node1&#45;&gt;Node2 -->
<g id="edge1" class="edge"><title>Node1&#45;&gt;Node2</title>
<path fill="none" stroke="midnightblue" d="M76.7556,-81.0332C92.5205,-88.6035 112.629,-97.8355 131,-105 139.825,-108.442 149.339,-111.794 158.577,-114.868"/>
<polygon fill="midnightblue" stroke="midnightblue" points="78.08,-77.7856 67.5554,-76.5678 75.0235,-84.083 78.08,-77.7856"/>
</g>
<!-- Node3 -->
<g id="node3" class="node"><title>Node3</title>
<g id="a_node3"><a xlink:href="classblfwk_1_1_memory_image_data_source.html" target="_top" xlink:title="Data source that takes its data from an executable image. ">
<polygon fill="white" stroke="black" points="131,-76.5 131,-95.5 288,-95.5 288,-76.5 131,-76.5"/>
<text text-anchor="middle" x="209.5" y="-83.5" font-family="Helvetica,sans-Serif" font-size="10.00">blfwk::MemoryImageDataSource</text>
</a>
</g>
</g>
<!-- Node1&#45;&gt;Node3 -->
<g id="edge2" class="edge"><title>Node1&#45;&gt;Node3</title>
<path fill="none" stroke="midnightblue" d="M105.398,-73.7566C113.615,-74.7324 122.188,-75.7505 130.727,-76.7645"/>
<polygon fill="midnightblue" stroke="midnightblue" points="105.552,-70.2504 95.2087,-72.5467 104.726,-77.2015 105.552,-70.2504"/>
</g>
<!-- Node4 -->
<g id="node4" class="node"><title>Node4</title>
<g id="a_node4"><a xlink:href="classblfwk_1_1_pattern_source.html" target="_top" xlink:title="Data source for a repeating pattern. ">
<polygon fill="white" stroke="black" points="156,-38.5 156,-57.5 263,-57.5 263,-38.5 156,-38.5"/>
<text text-anchor="middle" x="209.5" y="-45.5" font-family="Helvetica,sans-Serif" font-size="10.00">blfwk::PatternSource</text>
</a>
</g>
</g>
<!-- Node1&#45;&gt;Node4 -->
<g id="edge3" class="edge"><title>Node1&#45;&gt;Node4</title>
<path fill="none" stroke="midnightblue" d="M105.248,-60.2611C121.717,-58.3055 139.624,-56.179 155.831,-54.2544"/>
<polygon fill="midnightblue" stroke="midnightblue" points="104.726,-56.7985 95.2087,-61.4533 105.552,-63.7496 104.726,-56.7985"/>
</g>
<!-- Node5 -->
<g id="node5" class="node"><title>Node5</title>
<g id="a_node5"><a xlink:href="classblfwk_1_1_unmapped_data_source.html" target="_top" xlink:title="Data source for data that is not memory mapped (has no natural address). ">
<polygon fill="white" stroke="black" points="138.5,-0.5 138.5,-19.5 280.5,-19.5 280.5,-0.5 138.5,-0.5"/>
<text text-anchor="middle" x="209.5" y="-7.5" font-family="Helvetica,sans-Serif" font-size="10.00">blfwk::UnmappedDataSource</text>
</a>
</g>
</g>
<!-- Node1&#45;&gt;Node5 -->
<g id="edge4" class="edge"><title>Node1&#45;&gt;Node5</title>
<path fill="none" stroke="midnightblue" d="M75.9418,-52.7531C91.737,-44.9635 112.137,-35.5883 131,-29 141.332,-25.3913 152.668,-22.2004 163.403,-19.5132"/>
<polygon fill="midnightblue" stroke="midnightblue" points="74.1269,-49.7477 66.757,-57.3592 77.2649,-56.005 74.1269,-49.7477"/>
</g>
</g>
</svg>
