<?xml version="1.0" encoding="UTF-8" standalone="no"?>
<!DOCTYPE svg PUBLIC "-//W3C//DTD SVG 1.1//EN"
 "http://www.w3.org/Graphics/SVG/1.1/DTD/svg11.dtd">
<!-- Generated by graphviz version 2.38.0 (20140413.2041)
 -->
<!-- Title: OptIstreamIter Pages: 1 -->
<svg width="86pt" height="84pt"
 viewBox="0.00 0.00 86.00 84.00" xmlns="http://www.w3.org/2000/svg" xmlns:xlink="http://www.w3.org/1999/xlink">
<g id="graph0" class="graph" transform="scale(1 1) rotate(0) translate(4 80)">
<title>OptIstreamIter</title>
<polygon fill="white" stroke="none" points="-4,4 -4,-80 82,-80 82,4 -4,4"/>
<!-- Node1 -->
<g id="node1" class="node"><title>Node1</title>
<polygon fill="#bfbfbf" stroke="black" points="0,-0.5 0,-19.5 78,-19.5 78,-0.5 0,-0.5"/>
<text text-anchor="middle" x="39" y="-7.5" font-family="Helvetica,sans-Serif" font-size="10.00">OptIstreamIter</text>
</g>
<!-- Node2 -->
<g id="node2" class="node"><title>Node2</title>
<g id="a_node2"><a xlink:href="class_opt_iter.html" target="_top" xlink:title="OptIter">
<polygon fill="white" stroke="black" points="16,-56.5 16,-75.5 62,-75.5 62,-56.5 16,-56.5"/>
<text text-anchor="middle" x="39" y="-63.5" font-family="Helvetica,sans-Serif" font-size="10.00">OptIter</text>
</a>
</g>
</g>
<!-- Node2&#45;&gt;Node1 -->
<g id="edge1" class="edge"><title>Node2&#45;&gt;Node1</title>
<path fill="none" stroke="midnightblue" d="M32.5276,-46.1005C31.8956,-37.1357 32.3427,-26.8579 33.869,-19.7511"/>
<polygon fill="midnightblue" stroke="midnightblue" points="29.0658,-46.6216 33.8337,-56.083 36.0067,-45.7134 29.0658,-46.6216"/>
</g>
<!-- Node2&#45;&gt;Node1 -->
<g id="edge2" class="edge"><title>Node2&#45;&gt;Node1</title>
<path fill="none" stroke="midnightblue" d="M45.4724,-46.1005C46.1044,-37.1357 45.6573,-26.8579 44.131,-19.7511"/>
<polygon fill="midnightblue" stroke="midnightblue" points="41.9933,-45.7134 44.1663,-56.083 48.9342,-46.6216 41.9933,-45.7134"/>
</g>
</g>
</svg>
