<?xml version="1.0" encoding="UTF-8" standalone="no"?>
<!DOCTYPE svg PUBLIC "-//W3C//DTD SVG 1.1//EN"
 "http://www.w3.org/Graphics/SVG/1.1/DTD/svg11.dtd">
<!-- Generated by graphviz version 2.38.0 (20140413.2041)
 -->
<!-- Title: CKinetisFlashToolDlg Pages: 1 -->
<svg width="277pt" height="152pt"
 viewBox="0.00 0.00 276.81 152.00" xmlns="http://www.w3.org/2000/svg" xmlns:xlink="http://www.w3.org/1999/xlink">
<g id="graph0" class="graph" transform="scale(1 1) rotate(0) translate(4 148)">
<title>CKinetisFlashToolDlg</title>
<polygon fill="white" stroke="none" points="-4,4 -4,-148 272.808,-148 272.808,4 -4,4"/>
<!-- Node1 -->
<g id="node1" class="node"><title>Node1</title>
<polygon fill="#bfbfbf" stroke="black" points="14.8076,-0.5 14.8076,-19.5 124.808,-19.5 124.808,-0.5 14.8076,-0.5"/>
<text text-anchor="middle" x="69.8076" y="-7.5" font-family="Helvetica,sans-Serif" font-size="10.00">CKinetisFlashToolDlg</text>
</g>
<!-- Node2 -->
<g id="node2" class="node"><title>Node2</title>
<polygon fill="white" stroke="#bfbfbf" points="50.8076,-124.5 50.8076,-143.5 112.808,-143.5 112.808,-124.5 50.8076,-124.5"/>
<text text-anchor="middle" x="81.8076" y="-131.5" font-family="Helvetica,sans-Serif" font-size="10.00">CDialogEx</text>
</g>
<!-- Node2&#45;&gt;Node1 -->
<g id="edge1" class="edge"><title>Node2&#45;&gt;Node1</title>
<path fill="none" stroke="midnightblue" d="M44.0784,-120.343C28.7413,-113.125 12.5896,-102.375 3.80761,-87 -11.8808,-59.5345 27.6082,-32.9151 52.0927,-19.6751"/>
<polygon fill="midnightblue" stroke="midnightblue" points="42.8814,-123.639 53.4495,-124.391 45.6574,-117.213 42.8814,-123.639"/>
</g>
<!-- Node3 -->
<g id="node3" class="node"><title>Node3</title>
<g id="a_node3"><a xlink:href="class_update_dlg.html" target="_top" xlink:title="UpdateDlg class is the UI Dialog class for the Update tab page. ">
<polygon fill="white" stroke="black" points="12.8076,-67.5 12.8076,-86.5 74.8076,-86.5 74.8076,-67.5 12.8076,-67.5"/>
<text text-anchor="middle" x="43.8076" y="-74.5" font-family="Helvetica,sans-Serif" font-size="10.00">UpdateDlg</text>
</a>
</g>
</g>
<!-- Node2&#45;&gt;Node3 -->
<g id="edge3" class="edge"><title>Node2&#45;&gt;Node3</title>
<path fill="none" stroke="midnightblue" d="M70.0176,-115.936C63.3267,-106.251 55.235,-94.5397 49.8288,-86.7149"/>
<polygon fill="midnightblue" stroke="midnightblue" points="67.3062,-118.168 75.8701,-124.406 73.0653,-114.189 67.3062,-118.168"/>
</g>
<!-- Node4 -->
<g id="node4" class="node"><title>Node4</title>
<g id="a_node4"><a xlink:href="class_config_dlg.html" target="_top" xlink:title="ConfigDlg class is the UI Dialog class for the BCA utilities tab page. ">
<polygon fill="white" stroke="black" points="92.8076,-67.5 92.8076,-86.5 150.808,-86.5 150.808,-67.5 92.8076,-67.5"/>
<text text-anchor="middle" x="121.808" y="-74.5" font-family="Helvetica,sans-Serif" font-size="10.00">ConfigDlg</text>
</a>
</g>
</g>
<!-- Node2&#45;&gt;Node4 -->
<g id="edge5" class="edge"><title>Node2&#45;&gt;Node4</title>
<path fill="none" stroke="midnightblue" d="M94.0008,-116.234C101.085,-106.493 109.72,-94.6204 115.469,-86.7149"/>
<polygon fill="midnightblue" stroke="midnightblue" points="91.1088,-114.26 88.0576,-124.406 96.7699,-118.377 91.1088,-114.26"/>
</g>
<!-- Node5 -->
<g id="node5" class="node"><title>Node5</title>
<g id="a_node5"><a xlink:href="class_flash_dlg.html" target="_top" xlink:title="FlashDlg class is the UI Dialog class for the Flash utilities tab page. ">
<polygon fill="white" stroke="black" points="191.308,-67.5 191.308,-86.5 246.308,-86.5 246.308,-67.5 191.308,-67.5"/>
<text text-anchor="middle" x="218.808" y="-74.5" font-family="Helvetica,sans-Serif" font-size="10.00">FlashDlg</text>
</a>
</g>
</g>
<!-- Node2&#45;&gt;Node5 -->
<g id="edge7" class="edge"><title>Node2&#45;&gt;Node5</title>
<path fill="none" stroke="midnightblue" d="M112.572,-120.649C138.456,-110.258 174.789,-95.6716 197.552,-86.5334"/>
<polygon fill="midnightblue" stroke="midnightblue" points="111.19,-117.433 103.214,-124.406 113.798,-123.929 111.19,-117.433"/>
</g>
<!-- Node3&#45;&gt;Node1 -->
<g id="edge2" class="edge"><title>Node3&#45;&gt;Node1</title>
<path fill="none" stroke="#9a32cd" stroke-dasharray="5,2" d="M30.4705,-58.4854C27.1098,-51.9062 25.3266,-44.4605 28.8076,-38 33.1738,-29.8967 41.1532,-23.8252 48.92,-19.5133"/>
<polygon fill="#9a32cd" stroke="#9a32cd" points="27.7611,-60.7455 36.0938,-67.2889 33.6603,-56.9773 27.7611,-60.7455"/>
<text text-anchor="middle" x="59.3076" y="-41" font-family="Helvetica,sans-Serif" font-size="10.00"> m_updateDlg</text>
</g>
<!-- Node4&#45;&gt;Node1 -->
<g id="edge4" class="edge"><title>Node4&#45;&gt;Node1</title>
<path fill="none" stroke="#9a32cd" stroke-dasharray="5,2" d="M108.424,-59.2705C98.2854,-46.5972 84.7684,-29.701 76.7094,-19.6273"/>
<polygon fill="#9a32cd" stroke="#9a32cd" points="105.815,-61.6115 114.795,-67.2338 111.281,-57.2387 105.815,-61.6115"/>
<text text-anchor="middle" x="152.808" y="-41" font-family="Helvetica,sans-Serif" font-size="10.00"> m_bootloaderConfigDLg</text>
</g>
<!-- Node5&#45;&gt;Node1 -->
<g id="edge6" class="edge"><title>Node5&#45;&gt;Node1</title>
<path fill="none" stroke="#9a32cd" stroke-dasharray="5,2" d="M218.511,-57.3338C217.444,-50.3871 215.01,-42.9884 209.808,-38 197.613,-26.3077 158.62,-19.4079 124.874,-15.514"/>
<polygon fill="#9a32cd" stroke="#9a32cd" points="215.033,-57.7541 219.265,-67.4669 222.013,-57.2347 215.033,-57.7541"/>
<text text-anchor="middle" x="242.808" y="-41" font-family="Helvetica,sans-Serif" font-size="10.00"> m_flashDlg</text>
</g>
</g>
</svg>
