<?xml version="1.0" encoding="UTF-8" standalone="no"?>
<!DOCTYPE svg PUBLIC "-//W3C//DTD SVG 1.1//EN"
 "http://www.w3.org/Graphics/SVG/1.1/DTD/svg11.dtd">
<!-- Generated by graphviz version 2.38.0 (20140413.2041)
 -->
<!-- Title: elftosb::PatternSource Pages: 1 -->
<svg width="404pt" height="298pt"
 viewBox="0.00 0.00 403.50 298.00" xmlns="http://www.w3.org/2000/svg" xmlns:xlink="http://www.w3.org/1999/xlink">
<g id="graph0" class="graph" transform="scale(1 1) rotate(0) translate(4 294)">
<title>elftosb::PatternSource</title>
<polygon fill="white" stroke="none" points="-4,4 -4,-294 399.5,-294 399.5,4 -4,4"/>
<!-- Node1 -->
<g id="node1" class="node"><title>Node1</title>
<polygon fill="#bfbfbf" stroke="black" points="0,-0.5 0,-19.5 113,-19.5 113,-0.5 0,-0.5"/>
<text text-anchor="middle" x="56.5" y="-7.5" font-family="Helvetica,sans-Serif" font-size="10.00">elftosb::PatternSource</text>
</g>
<!-- Node2 -->
<g id="node2" class="node"><title>Node2</title>
<g id="a_node2"><a xlink:href="classelftosb_1_1_data_source.html" target="_top" xlink:title="Abstract base class for data sources. ">
<polygon fill="white" stroke="black" points="24.5,-213.5 24.5,-232.5 126.5,-232.5 126.5,-213.5 24.5,-213.5"/>
<text text-anchor="middle" x="75.5" y="-220.5" font-family="Helvetica,sans-Serif" font-size="10.00">elftosb::DataSource</text>
</a>
</g>
</g>
<!-- Node2&#45;&gt;Node1 -->
<g id="edge1" class="edge"><title>Node2&#45;&gt;Node1</title>
<path fill="none" stroke="midnightblue" d="M48.8067,-208.152C43.2615,-204.417 37.8035,-200.002 33.5,-195 24.2884,-184.292 23.4542,-179.812 20.5,-166 8.53937,-110.079 39.459,-43.25 51.7336,-19.7158"/>
<polygon fill="midnightblue" stroke="midnightblue" points="47.085,-211.201 57.4393,-213.446 50.7449,-205.234 47.085,-211.201"/>
</g>
<!-- Node3 -->
<g id="node3" class="node"><title>Node3</title>
<g id="a_node3"><a xlink:href="classelftosb_1_1_data_target.html" target="_top" xlink:title="Abstract base class for the target address or range of data. ">
<polygon fill="white" stroke="black" points="29.5,-141 29.5,-160 127.5,-160 127.5,-141 29.5,-141"/>
<text text-anchor="middle" x="78.5" y="-148" font-family="Helvetica,sans-Serif" font-size="10.00">elftosb::DataTarget</text>
</a>
</g>
</g>
<!-- Node2&#45;&gt;Node3 -->
<g id="edge3" class="edge"><title>Node2&#45;&gt;Node3</title>
<path fill="none" stroke="#9a32cd" stroke-dasharray="5,2" d="M48.6732,-207.787C40.2679,-201.316 34.1816,-193.073 38.5,-184 43.3453,-173.82 53.1109,-165.788 61.7797,-160.256"/>
<polygon fill="#9a32cd" stroke="#9a32cd" points="46.9082,-210.816 57.1785,-213.419 50.7727,-204.98 46.9082,-210.816"/>
<text text-anchor="middle" x="61.5" y="-187" font-family="Helvetica,sans-Serif" font-size="10.00"> m_source</text>
</g>
<!-- Node5 -->
<g id="node5" class="node"><title>Node5</title>
<g id="a_node5"><a xlink:href="classelftosb_1_1_data_source_1_1_segment.html" target="_top" xlink:title="Discrete, contiguous part of the source&#39;s data. ">
<polygon fill="white" stroke="black" points="145.5,-135.5 145.5,-165.5 247.5,-165.5 247.5,-135.5 145.5,-135.5"/>
<text text-anchor="start" x="153.5" y="-153.5" font-family="Helvetica,sans-Serif" font-size="10.00">elftosb::DataSource</text>
<text text-anchor="middle" x="196.5" y="-142.5" font-family="Helvetica,sans-Serif" font-size="10.00">::Segment</text>
</a>
</g>
</g>
<!-- Node2&#45;&gt;Node5 -->
<g id="edge6" class="edge"><title>Node2&#45;&gt;Node5</title>
<path fill="none" stroke="#9a32cd" stroke-dasharray="5,2" d="M106.293,-209.534C115.85,-205.299 126.287,-200.289 135.5,-195 150.729,-186.257 166.859,-174.638 178.706,-165.608"/>
<polygon fill="#9a32cd" stroke="#9a32cd" points="104.906,-206.32 97.1081,-213.492 107.677,-212.749 104.906,-206.32"/>
<text text-anchor="middle" x="176.5" y="-187" font-family="Helvetica,sans-Serif" font-size="10.00"> m_source</text>
</g>
<!-- Node3&#45;&gt;Node2 -->
<g id="edge2" class="edge"><title>Node3&#45;&gt;Node2</title>
<path fill="none" stroke="#9a32cd" stroke-dasharray="5,2" d="M86.3982,-169.699C88.8168,-177.49 90.3964,-186.69 88.5,-195 87.0184,-201.492 83.7684,-208.242 80.8888,-213.369"/>
<polygon fill="#9a32cd" stroke="#9a32cd" points="89.6125,-168.302 82.8278,-160.164 83.0571,-170.757 89.6125,-168.302"/>
<text text-anchor="middle" x="110.5" y="-187" font-family="Helvetica,sans-Serif" font-size="10.00"> m_target</text>
</g>
<!-- Node4 -->
<g id="node4" class="node"><title>Node4</title>
<g id="a_node4"><a xlink:href="classelftosb_1_1_data_source_1_1_pattern_segment.html" target="_top" xlink:title="This is a special type of segment containing a repeating pattern. ">
<polygon fill="white" stroke="black" points="145.5,-57.5 145.5,-87.5 247.5,-87.5 247.5,-57.5 145.5,-57.5"/>
<text text-anchor="start" x="153.5" y="-75.5" font-family="Helvetica,sans-Serif" font-size="10.00">elftosb::DataSource</text>
<text text-anchor="middle" x="196.5" y="-64.5" font-family="Helvetica,sans-Serif" font-size="10.00">::PatternSegment</text>
</a>
</g>
</g>
<!-- Node4&#45;&gt;Node1 -->
<g id="edge4" class="edge"><title>Node4&#45;&gt;Node1</title>
<path fill="none" stroke="midnightblue" d="M154.774,-53.4683C128.794,-42.2411 96.5673,-28.3148 76.2616,-19.5399"/>
<polygon fill="midnightblue" stroke="midnightblue" points="153.461,-56.7139 164.029,-57.468 156.238,-50.2882 153.461,-56.7139"/>
</g>
<!-- Node5&#45;&gt;Node4 -->
<g id="edge5" class="edge"><title>Node5&#45;&gt;Node4</title>
<path fill="none" stroke="midnightblue" d="M196.5,-125.09C196.5,-112.757 196.5,-98.2237 196.5,-87.7309"/>
<polygon fill="midnightblue" stroke="midnightblue" points="193,-125.205 196.5,-135.205 200,-125.205 193,-125.205"/>
</g>
<!-- Node6 -->
<g id="node6" class="node"><title>Node6</title>
<g id="a_node6"><a xlink:href="classelftosb_1_1_sized_integer_value.html" target="_top" xlink:title="Adds a word size attribute to IntegerValue. ">
<polygon fill="white" stroke="black" points="265.5,-141 265.5,-160 395.5,-160 395.5,-141 265.5,-141"/>
<text text-anchor="middle" x="330.5" y="-148" font-family="Helvetica,sans-Serif" font-size="10.00">elftosb::SizedIntegerValue</text>
</a>
</g>
</g>
<!-- Node6&#45;&gt;Node4 -->
<g id="edge7" class="edge"><title>Node6&#45;&gt;Node4</title>
<path fill="none" stroke="#9a32cd" stroke-dasharray="5,2" d="M306.556,-135.92C282.523,-122.289 245.669,-101.387 221.328,-87.5815"/>
<polygon fill="#9a32cd" stroke="#9a32cd" points="304.964,-139.041 315.389,-140.93 308.417,-132.952 304.964,-139.041"/>
<text text-anchor="middle" x="296" y="-109" font-family="Helvetica,sans-Serif" font-size="10.00"> m_pattern</text>
</g>
<!-- Node7 -->
<g id="node7" class="node"><title>Node7</title>
<g id="a_node7"><a xlink:href="classelftosb_1_1_integer_value.html" target="_top" xlink:title="32&#45;bit signed integer value. ">
<polygon fill="white" stroke="black" points="278,-213.5 278,-232.5 383,-232.5 383,-213.5 278,-213.5"/>
<text text-anchor="middle" x="330.5" y="-220.5" font-family="Helvetica,sans-Serif" font-size="10.00">elftosb::IntegerValue</text>
</a>
</g>
</g>
<!-- Node7&#45;&gt;Node6 -->
<g id="edge8" class="edge"><title>Node7&#45;&gt;Node6</title>
<path fill="none" stroke="midnightblue" d="M330.5,-202.942C330.5,-189.03 330.5,-170.82 330.5,-160.215"/>
<polygon fill="midnightblue" stroke="midnightblue" points="327,-203.355 330.5,-213.355 334,-203.355 327,-203.355"/>
</g>
<!-- Node8 -->
<g id="node8" class="node"><title>Node8</title>
<g id="a_node8"><a xlink:href="classelftosb_1_1_value.html" target="_top" xlink:title="Abstract base class for values of arbitrary types. ">
<polygon fill="white" stroke="black" points="292.5,-270.5 292.5,-289.5 368.5,-289.5 368.5,-270.5 292.5,-270.5"/>
<text text-anchor="middle" x="330.5" y="-277.5" font-family="Helvetica,sans-Serif" font-size="10.00">elftosb::Value</text>
</a>
</g>
</g>
<!-- Node8&#45;&gt;Node7 -->
<g id="edge9" class="edge"><title>Node8&#45;&gt;Node7</title>
<path fill="none" stroke="midnightblue" d="M330.5,-260.117C330.5,-250.817 330.5,-240.056 330.5,-232.715"/>
<polygon fill="midnightblue" stroke="midnightblue" points="327,-260.406 330.5,-270.406 334,-260.406 327,-260.406"/>
</g>
</g>
</svg>
