<?xml version="1.0" encoding="UTF-8" standalone="no"?>
<!DOCTYPE svg PUBLIC "-//W3C//DTD SVG 1.1//EN"
 "http://www.w3.org/Graphics/SVG/1.1/DTD/svg11.dtd">
<!-- Generated by graphviz version 2.38.0 (20140413.2041)
 -->
<!-- Title: elftosb::GHSSecInfo Pages: 1 -->
<svg width="1048pt" height="301pt"
 viewBox="0.00 0.00 1048.00 301.00" xmlns="http://www.w3.org/2000/svg" xmlns:xlink="http://www.w3.org/1999/xlink">
<g id="graph0" class="graph" transform="scale(1 1) rotate(0) translate(4 297)">
<title>elftosb::GHSSecInfo</title>
<polygon fill="white" stroke="none" points="-4,4 -4,-297 1044,-297 1044,4 -4,4"/>
<!-- Node1 -->
<g id="node1" class="node"><title>Node1</title>
<polygon fill="#bfbfbf" stroke="black" points="936,-108 936,-127 1040,-127 1040,-108 936,-108"/>
<text text-anchor="middle" x="988" y="-115" font-family="Helvetica,sans-Serif" font-size="10.00">elftosb::GHSSecInfo</text>
</g>
<!-- Node2 -->
<g id="node2" class="node"><title>Node2</title>
<g id="a_node2"><a xlink:href="class_st_e_l_f_file.html" target="_top" xlink:title="Parser for Executable and Linking Format (ELF) files. ">
<polygon fill="white" stroke="black" points="762.5,-148 762.5,-167 822.5,-167 822.5,-148 762.5,-148"/>
<text text-anchor="middle" x="792.5" y="-155" font-family="Helvetica,sans-Serif" font-size="10.00">StELFFile</text>
</a>
</g>
</g>
<!-- Node2&#45;&gt;Node1 -->
<g id="edge1" class="edge"><title>Node2&#45;&gt;Node1</title>
<path fill="none" stroke="#9a32cd" stroke-dasharray="5,2" d="M832.968,-149.341C864.193,-142.886 907.86,-133.86 940.729,-127.065"/>
<polygon fill="#9a32cd" stroke="#9a32cd" points="831.973,-145.973 822.888,-151.425 833.39,-152.828 831.973,-145.973"/>
<text text-anchor="middle" x="902" y="-140.5" font-family="Helvetica,sans-Serif" font-size="10.00"> m_elf</text>
</g>
<!-- Node3 -->
<g id="node3" class="node"><title>Node3</title>
<polygon fill="white" stroke="#bfbfbf" points="485,-262.5 485,-292.5 577,-292.5 577,-262.5 485,-262.5"/>
<text text-anchor="start" x="493" y="-280.5" font-family="Helvetica,sans-Serif" font-size="10.00">std::vector&lt; Elf32</text>
<text text-anchor="middle" x="531" y="-269.5" font-family="Helvetica,sans-Serif" font-size="10.00">_Phdr &gt;</text>
</g>
<!-- Node3&#45;&gt;Node2 -->
<g id="edge2" class="edge"><title>Node3&#45;&gt;Node2</title>
<path fill="none" stroke="#9a32cd" stroke-dasharray="5,2" d="M587.435,-271.476C621.12,-266.169 664.195,-256.369 699,-238.5 735.08,-219.976 768.557,-184.33 783.42,-167.182"/>
<polygon fill="#9a32cd" stroke="#9a32cd" points="586.679,-268.05 577.302,-272.983 587.708,-274.974 586.679,-268.05"/>
<text text-anchor="middle" x="650.5" y="-271.5" font-family="Helvetica,sans-Serif" font-size="10.00"> m_programHeaders</text>
</g>
<!-- Node4 -->
<g id="node4" class="node"><title>Node4</title>
<g id="a_node4"><a xlink:href="struct_elf32___phdr.html" target="_top" xlink:title="ELF program header. ">
<polygon fill="white" stroke="black" points="300,-268 300,-287 364,-287 364,-268 300,-268"/>
<text text-anchor="middle" x="332" y="-275" font-family="Helvetica,sans-Serif" font-size="10.00">Elf32_Phdr</text>
</a>
</g>
</g>
<!-- Node4&#45;&gt;Node3 -->
<g id="edge3" class="edge"><title>Node4&#45;&gt;Node3</title>
<path fill="none" stroke="#9a32cd" stroke-dasharray="5,2" d="M374.222,-277.5C406.498,-277.5 451.348,-277.5 484.639,-277.5"/>
<polygon fill="#9a32cd" stroke="#9a32cd" points="374.215,-274 364.215,-277.5 374.215,-281 374.215,-274"/>
<text text-anchor="middle" x="438.5" y="-280.5" font-family="Helvetica,sans-Serif" font-size="10.00"> elements</text>
</g>
<!-- Node5 -->
<g id="node5" class="node"><title>Node5</title>
<g id="a_node5"><a xlink:title="STL class. ">
<polygon fill="white" stroke="#bfbfbf" points="497,-224 497,-243 565,-243 565,-224 497,-224"/>
<text text-anchor="middle" x="531" y="-231" font-family="Helvetica,sans-Serif" font-size="10.00">std::istream</text>
</a>
</g>
</g>
<!-- Node5&#45;&gt;Node2 -->
<g id="edge4" class="edge"><title>Node5&#45;&gt;Node2</title>
<path fill="none" stroke="#9a32cd" stroke-dasharray="5,2" d="M575.383,-228.277C609.547,-223.431 658.069,-214.912 699,-201.5 726.546,-192.474 756.514,-177.104 774.653,-167.128"/>
<polygon fill="#9a32cd" stroke="#9a32cd" points="574.697,-224.838 565.265,-229.665 575.648,-231.774 574.697,-224.838"/>
<text text-anchor="middle" x="650.5" y="-226.5" font-family="Helvetica,sans-Serif" font-size="10.00"> m_stream</text>
</g>
<!-- Node6 -->
<g id="node6" class="node"><title>Node6</title>
<g id="a_node6"><a xlink:title="STL class. ">
<polygon fill="white" stroke="#bfbfbf" points="283.5,-218.5 283.5,-248.5 380.5,-248.5 380.5,-218.5 283.5,-218.5"/>
<text text-anchor="start" x="291.5" y="-236.5" font-family="Helvetica,sans-Serif" font-size="10.00">std::basic_istream</text>
<text text-anchor="middle" x="332" y="-225.5" font-family="Helvetica,sans-Serif" font-size="10.00">&lt; char &gt;</text>
</a>
</g>
</g>
<!-- Node6&#45;&gt;Node5 -->
<g id="edge5" class="edge"><title>Node6&#45;&gt;Node5</title>
<path fill="none" stroke="midnightblue" d="M391.113,-233.5C425.609,-233.5 468.097,-233.5 496.929,-233.5"/>
<polygon fill="midnightblue" stroke="midnightblue" points="390.688,-230 380.688,-233.5 390.688,-237 390.688,-230"/>
</g>
<!-- Node7 -->
<g id="node7" class="node"><title>Node7</title>
<g id="a_node7"><a xlink:title="STL class. ">
<polygon fill="white" stroke="#bfbfbf" points="112,-224 112,-243 228,-243 228,-224 112,-224"/>
<text text-anchor="middle" x="170" y="-231" font-family="Helvetica,sans-Serif" font-size="10.00">std::basic_ios&lt; Char &gt;</text>
</a>
</g>
</g>
<!-- Node7&#45;&gt;Node6 -->
<g id="edge6" class="edge"><title>Node7&#45;&gt;Node6</title>
<path fill="none" stroke="midnightblue" d="M238.6,-233.5C253.637,-233.5 269.273,-233.5 283.314,-233.5"/>
<polygon fill="midnightblue" stroke="midnightblue" points="238.312,-230 228.312,-233.5 238.312,-237 238.312,-230"/>
</g>
<!-- Node8 -->
<g id="node8" class="node"><title>Node8</title>
<g id="a_node8"><a xlink:title="STL class. ">
<polygon fill="white" stroke="#bfbfbf" points="0,-224 0,-243 75,-243 75,-224 0,-224"/>
<text text-anchor="middle" x="37.5" y="-231" font-family="Helvetica,sans-Serif" font-size="10.00">std::ios_base</text>
</a>
</g>
</g>
<!-- Node8&#45;&gt;Node7 -->
<g id="edge7" class="edge"><title>Node8&#45;&gt;Node7</title>
<path fill="none" stroke="midnightblue" d="M85.3188,-233.5C93.8367,-233.5 102.811,-233.5 111.593,-233.5"/>
<polygon fill="midnightblue" stroke="midnightblue" points="85.1988,-230 75.1988,-233.5 85.1988,-237 85.1988,-230"/>
</g>
<!-- Node9 -->
<g id="node9" class="node"><title>Node9</title>
<g id="a_node9"><a xlink:href="struct_elf32___ehdr.html" target="_top" xlink:title="ELF file header. ">
<polygon fill="white" stroke="black" points="499,-186 499,-205 563,-205 563,-186 499,-186"/>
<text text-anchor="middle" x="531" y="-193" font-family="Helvetica,sans-Serif" font-size="10.00">Elf32_Ehdr</text>
</a>
</g>
</g>
<!-- Node9&#45;&gt;Node2 -->
<g id="edge8" class="edge"><title>Node9&#45;&gt;Node2</title>
<path fill="none" stroke="#9a32cd" stroke-dasharray="5,2" d="M573.099,-190.118C606.927,-185.621 656.114,-178.93 699,-172.5 720.237,-169.316 744.167,-165.428 762.365,-162.408"/>
<polygon fill="#9a32cd" stroke="#9a32cd" points="572.572,-186.657 563.118,-191.44 573.492,-193.597 572.572,-186.657"/>
<text text-anchor="middle" x="650.5" y="-189.5" font-family="Helvetica,sans-Serif" font-size="10.00"> m_header</text>
</g>
<!-- Node10 -->
<g id="node10" class="node"><title>Node10</title>
<g id="a_node10"><a xlink:title="STL class. ">
<polygon fill="white" stroke="#bfbfbf" points="501,-148 501,-167 561,-167 561,-148 501,-148"/>
<text text-anchor="middle" x="531" y="-155" font-family="Helvetica,sans-Serif" font-size="10.00">std::string</text>
</a>
</g>
</g>
<!-- Node10&#45;&gt;Node2 -->
<g id="edge9" class="edge"><title>Node10&#45;&gt;Node2</title>
<path fill="none" stroke="#9a32cd" stroke-dasharray="5,2" d="M571.268,-157.5C623.731,-157.5 715.495,-157.5 762.277,-157.5"/>
<polygon fill="#9a32cd" stroke="#9a32cd" points="571.013,-154 561.013,-157.5 571.013,-161 571.013,-154"/>
<text text-anchor="middle" x="650.5" y="-160.5" font-family="Helvetica,sans-Serif" font-size="10.00"> m_name</text>
</g>
<!-- Node11 -->
<g id="node11" class="node"><title>Node11</title>
<g id="a_node11"><a xlink:title="STL class. ">
<polygon fill="white" stroke="#bfbfbf" points="284.5,-142.5 284.5,-172.5 379.5,-172.5 379.5,-142.5 284.5,-142.5"/>
<text text-anchor="start" x="292.5" y="-160.5" font-family="Helvetica,sans-Serif" font-size="10.00">std::basic_string&lt;</text>
<text text-anchor="middle" x="332" y="-149.5" font-family="Helvetica,sans-Serif" font-size="10.00"> char &gt;</text>
</a>
</g>
</g>
<!-- Node11&#45;&gt;Node10 -->
<g id="edge10" class="edge"><title>Node11&#45;&gt;Node10</title>
<path fill="none" stroke="midnightblue" d="M390.122,-157.5C426.345,-157.5 471.693,-157.5 500.756,-157.5"/>
<polygon fill="midnightblue" stroke="midnightblue" points="389.686,-154 379.686,-157.5 389.686,-161 389.686,-154"/>
</g>
<!-- Node12 -->
<g id="node12" class="node"><title>Node12</title>
<polygon fill="white" stroke="#bfbfbf" points="485,-98.5 485,-128.5 577,-128.5 577,-98.5 485,-98.5"/>
<text text-anchor="start" x="493" y="-116.5" font-family="Helvetica,sans-Serif" font-size="10.00">std::vector&lt; Elf32</text>
<text text-anchor="middle" x="531" y="-105.5" font-family="Helvetica,sans-Serif" font-size="10.00">_Shdr &gt;</text>
</g>
<!-- Node12&#45;&gt;Node2 -->
<g id="edge11" class="edge"><title>Node12&#45;&gt;Node2</title>
<path fill="none" stroke="#9a32cd" stroke-dasharray="5,2" d="M587.235,-122.866C640.875,-131.961 720.218,-145.414 762.495,-152.582"/>
<polygon fill="#9a32cd" stroke="#9a32cd" points="587.646,-119.385 577.201,-121.164 586.476,-126.287 587.646,-119.385"/>
<text text-anchor="middle" x="650.5" y="-144.5" font-family="Helvetica,sans-Serif" font-size="10.00"> m_sectionHeaders</text>
</g>
<!-- Node13 -->
<g id="node13" class="node"><title>Node13</title>
<g id="a_node13"><a xlink:href="struct_elf32___shdr.html" target="_top" xlink:title="ELF section header. ">
<polygon fill="white" stroke="black" points="300,-104 300,-123 364,-123 364,-104 300,-104"/>
<text text-anchor="middle" x="332" y="-111" font-family="Helvetica,sans-Serif" font-size="10.00">Elf32_Shdr</text>
</a>
</g>
</g>
<!-- Node13&#45;&gt;Node12 -->
<g id="edge12" class="edge"><title>Node13&#45;&gt;Node12</title>
<path fill="none" stroke="#9a32cd" stroke-dasharray="5,2" d="M374.222,-113.5C406.498,-113.5 451.348,-113.5 484.639,-113.5"/>
<polygon fill="#9a32cd" stroke="#9a32cd" points="374.215,-110 364.215,-113.5 374.215,-117 374.215,-110"/>
<text text-anchor="middle" x="438.5" y="-116.5" font-family="Helvetica,sans-Serif" font-size="10.00"> elements</text>
</g>
<!-- Node14 -->
<g id="node14" class="node"><title>Node14</title>
<polygon fill="white" stroke="#bfbfbf" points="478,-49.5 478,-79.5 584,-79.5 584,-49.5 478,-49.5"/>
<text text-anchor="start" x="486" y="-67.5" font-family="Helvetica,sans-Serif" font-size="10.00">std::map&lt; unsigned,</text>
<text text-anchor="middle" x="531" y="-56.5" font-family="Helvetica,sans-Serif" font-size="10.00"> SectionDataInfo &gt;</text>
</g>
<!-- Node14&#45;&gt;Node2 -->
<g id="edge13" class="edge"><title>Node14&#45;&gt;Node2</title>
<path fill="none" stroke="#9a32cd" stroke-dasharray="5,2" d="M594.335,-79.6713C626.095,-88.0885 665.071,-99.4834 699,-112.5 726.011,-122.863 755.878,-138.13 774.17,-147.946"/>
<polygon fill="#9a32cd" stroke="#9a32cd" points="594.853,-76.189 584.292,-77.0448 593.081,-82.9613 594.853,-76.189"/>
<text text-anchor="middle" x="650.5" y="-115.5" font-family="Helvetica,sans-Serif" font-size="10.00"> m_sectionDataCache</text>
</g>
<!-- Node15 -->
<g id="node15" class="node"><title>Node15</title>
<g id="a_node15"><a xlink:href="class_st_e_l_f_file.html#struct_st_e_l_f_file_1_1_section_data_info" target="_top" xlink:title="StELFFile::SectionDataInfo">
<polygon fill="white" stroke="black" points="265,-55 265,-74 399,-74 399,-55 265,-55"/>
<text text-anchor="middle" x="332" y="-62" font-family="Helvetica,sans-Serif" font-size="10.00">StELFFile::SectionDataInfo</text>
</a>
</g>
</g>
<!-- Node15&#45;&gt;Node14 -->
<g id="edge14" class="edge"><title>Node15&#45;&gt;Node14</title>
<path fill="none" stroke="#9a32cd" stroke-dasharray="5,2" d="M409.191,-64.5C432.109,-64.5 456.727,-64.5 477.722,-64.5"/>
<polygon fill="#9a32cd" stroke="#9a32cd" points="409.146,-61.0001 399.146,-64.5 409.146,-68.0001 409.146,-61.0001"/>
<text text-anchor="middle" x="438.5" y="-67.5" font-family="Helvetica,sans-Serif" font-size="10.00"> elements</text>
</g>
<!-- Node16 -->
<g id="node16" class="node"><title>Node16</title>
<g id="a_node16"><a xlink:href="group__smart__pointer.html" target="_top" xlink:title="smart_array_ptr\&lt; elftosb\l::GHSSecInfo::ghs_secinfo_t \&gt;">
<polygon fill="white" stroke="black" points="717,-49.5 717,-79.5 868,-79.5 868,-49.5 717,-49.5"/>
<text text-anchor="start" x="725" y="-67.5" font-family="Helvetica,sans-Serif" font-size="10.00">smart_array_ptr&lt; elftosb</text>
<text text-anchor="middle" x="792.5" y="-56.5" font-family="Helvetica,sans-Serif" font-size="10.00">::GHSSecInfo::ghs_secinfo_t &gt;</text>
</a>
</g>
</g>
<!-- Node16&#45;&gt;Node1 -->
<g id="edge15" class="edge"><title>Node16&#45;&gt;Node1</title>
<path fill="none" stroke="#9a32cd" stroke-dasharray="5,2" d="M858.401,-82.2766C889.709,-90.8518 926.025,-100.799 952.064,-107.931"/>
<polygon fill="#9a32cd" stroke="#9a32cd" points="859.001,-78.812 848.432,-79.5459 857.152,-85.5634 859.001,-78.812"/>
<text text-anchor="middle" x="902" y="-100.5" font-family="Helvetica,sans-Serif" font-size="10.00"> m_info</text>
</g>
<!-- Node17 -->
<g id="node17" class="node"><title>Node17</title>
<g id="a_node17"><a xlink:href="classelftosb_1_1_g_h_s_sec_info.html#structelftosb_1_1_g_h_s_sec_info_1_1ghs__secinfo__t" target="_top" xlink:title="The structure of one .secinfo entry. ">
<polygon fill="white" stroke="black" points="479,-0.5 479,-30.5 583,-30.5 583,-0.5 479,-0.5"/>
<text text-anchor="start" x="487" y="-18.5" font-family="Helvetica,sans-Serif" font-size="10.00">elftosb::GHSSecInfo</text>
<text text-anchor="middle" x="531" y="-7.5" font-family="Helvetica,sans-Serif" font-size="10.00">::ghs_secinfo_t</text>
</a>
</g>
</g>
<!-- Node17&#45;&gt;Node16 -->
<g id="edge16" class="edge"><title>Node17&#45;&gt;Node16</title>
<path fill="none" stroke="#9a32cd" stroke-dasharray="5,2" d="M593.097,-22.4752C624.845,-26.5546 664.183,-32.3208 699,-39.5 712.523,-42.2884 727,-45.8966 740.392,-49.5"/>
<polygon fill="#9a32cd" stroke="#9a32cd" points="593.431,-18.9896 583.071,-21.2103 592.554,-25.9346 593.431,-18.9896"/>
<text text-anchor="middle" x="650.5" y="-42.5" font-family="Helvetica,sans-Serif" font-size="10.00"> _p</text>
</g>
</g>
</svg>
