<?xml version="1.0" encoding="UTF-8" standalone="no"?>
<!DOCTYPE svg PUBLIC "-//W3C//DTD SVG 1.1//EN"
 "http://www.w3.org/Graphics/SVG/1.1/DTD/svg11.dtd">
<!-- Generated by graphviz version 2.38.0 (20140413.2041)
 -->
<!-- Title: blfwk::ConstantDataTarget Pages: 1 -->
<svg width="252pt" height="95pt"
 viewBox="0.00 0.00 252.00 95.00" xmlns="http://www.w3.org/2000/svg" xmlns:xlink="http://www.w3.org/1999/xlink">
<g id="graph0" class="graph" transform="scale(1 1) rotate(0) translate(4 91)">
<title>blfwk::ConstantDataTarget</title>
<polygon fill="white" stroke="none" points="-4,4 -4,-91 248,-91 248,4 -4,4"/>
<!-- Node1 -->
<g id="node1" class="node"><title>Node1</title>
<polygon fill="#bfbfbf" stroke="black" points="0,-0.5 0,-19.5 131,-19.5 131,-0.5 0,-0.5"/>
<text text-anchor="middle" x="65.5" y="-7.5" font-family="Helvetica,sans-Serif" font-size="10.00">blfwk::ConstantDataTarget</text>
</g>
<!-- Node2 -->
<g id="node2" class="node"><title>Node2</title>
<g id="a_node2"><a xlink:href="classblfwk_1_1_data_target.html" target="_top" xlink:title="Abstract base class for the target address or range of data. ">
<polygon fill="white" stroke="black" points="85.5,-67.5 85.5,-86.5 177.5,-86.5 177.5,-67.5 85.5,-67.5"/>
<text text-anchor="middle" x="131.5" y="-74.5" font-family="Helvetica,sans-Serif" font-size="10.00">blfwk::DataTarget</text>
</a>
</g>
</g>
<!-- Node2&#45;&gt;Node1 -->
<g id="edge1" class="edge"><title>Node2&#45;&gt;Node1</title>
<path fill="none" stroke="midnightblue" d="M115.251,-59.9968C102.307,-47.2496 84.6854,-29.8947 74.26,-19.6273"/>
<polygon fill="midnightblue" stroke="midnightblue" points="113.018,-62.7106 122.599,-67.2338 117.93,-57.7232 113.018,-62.7106"/>
</g>
<!-- Node3 -->
<g id="node3" class="node"><title>Node3</title>
<g id="a_node3"><a xlink:href="classblfwk_1_1_data_source.html" target="_top" xlink:title="Abstract base class for data sources. ">
<polygon fill="white" stroke="black" points="149,-0.5 149,-19.5 244,-19.5 244,-0.5 149,-0.5"/>
<text text-anchor="middle" x="196.5" y="-7.5" font-family="Helvetica,sans-Serif" font-size="10.00">blfwk::DataSource</text>
</a>
</g>
</g>
<!-- Node2&#45;&gt;Node3 -->
<g id="edge3" class="edge"><title>Node2&#45;&gt;Node3</title>
<path fill="none" stroke="#9a32cd" stroke-dasharray="5,2" d="M125.41,-57.2017C124.419,-50.642 124.738,-43.542 128.5,-38 134.35,-29.3825 143.43,-23.5154 153.069,-19.5208"/>
<polygon fill="#9a32cd" stroke="#9a32cd" points="122.126,-58.5005 127.936,-67.3606 128.92,-56.8116 122.126,-58.5005"/>
<text text-anchor="middle" x="149.5" y="-41" font-family="Helvetica,sans-Serif" font-size="10.00"> m_target</text>
</g>
<!-- Node3&#45;&gt;Node2 -->
<g id="edge2" class="edge"><title>Node3&#45;&gt;Node2</title>
<path fill="none" stroke="#9a32cd" stroke-dasharray="5,2" d="M188.486,-28.8304C184.86,-35.6479 180.119,-43.1761 174.5,-49 167.278,-56.4859 157.578,-62.8072 149.219,-67.4471"/>
<polygon fill="#9a32cd" stroke="#9a32cd" points="191.735,-30.154 192.973,-19.6318 185.443,-27.0855 191.735,-30.154"/>
<text text-anchor="middle" x="205.5" y="-41" font-family="Helvetica,sans-Serif" font-size="10.00"> m_source</text>
</g>
</g>
</svg>
