<?xml version="1.0" encoding="UTF-8" standalone="no"?>
<!DOCTYPE svg PUBLIC "-//W3C//DTD SVG 1.1//EN"
 "http://www.w3.org/Graphics/SVG/1.1/DTD/svg11.dtd">
<!-- Generated by graphviz version 2.38.0 (20140413.2041)
 -->
<!-- Title: blfwk::Simulator Pages: 1 -->
<svg width="1310pt" height="290pt"
 viewBox="0.00 0.00 1310.00 289.50" xmlns="http://www.w3.org/2000/svg" xmlns:xlink="http://www.w3.org/1999/xlink">
<g id="graph0" class="graph" transform="scale(1 1) rotate(0) translate(4 285.5)">
<title>blfwk::Simulator</title>
<polygon fill="white" stroke="none" points="-4,4 -4,-285.5 1306,-285.5 1306,4 -4,4"/>
<!-- Node1 -->
<g id="node1" class="node"><title>Node1</title>
<polygon fill="#bfbfbf" stroke="black" points="1216,-129 1216,-148 1302,-148 1302,-129 1216,-129"/>
<text text-anchor="middle" x="1259" y="-136" font-family="Helvetica,sans-Serif" font-size="10.00">blfwk::Simulator</text>
</g>
<!-- Node2 -->
<g id="node2" class="node"><title>Node2</title>
<g id="a_node2"><a xlink:href="classblfwk_1_1_bootloader.html" target="_top" xlink:title="Represents the host bootloader. ">
<polygon fill="white" stroke="black" points="988.5,-194 988.5,-213 1079.5,-213 1079.5,-194 988.5,-194"/>
<text text-anchor="middle" x="1034" y="-201" font-family="Helvetica,sans-Serif" font-size="10.00">blfwk::Bootloader</text>
</a>
</g>
</g>
<!-- Node2&#45;&gt;Node1 -->
<g id="edge1" class="edge"><title>Node2&#45;&gt;Node1</title>
<path fill="none" stroke="midnightblue" d="M1089.76,-201.042C1122.14,-198.149 1163.44,-191.909 1198,-178.5 1216.67,-171.255 1235.44,-157.441 1246.89,-148.1"/>
<polygon fill="midnightblue" stroke="midnightblue" points="1089.26,-197.571 1079.58,-201.869 1089.83,-204.548 1089.26,-197.571"/>
</g>
<!-- Node3 -->
<g id="node3" class="node"><title>Node3</title>
<g id="a_node3"><a xlink:href="classblfwk_1_1_packetizer.html" target="_top" xlink:title="Interface class for packetization of commands and data. ">
<polygon fill="white" stroke="black" points="745,-235 745,-254 836,-254 836,-235 745,-235"/>
<text text-anchor="middle" x="790.5" y="-242" font-family="Helvetica,sans-Serif" font-size="10.00">blfwk::Packetizer</text>
</a>
</g>
</g>
<!-- Node3&#45;&gt;Node2 -->
<g id="edge2" class="edge"><title>Node3&#45;&gt;Node2</title>
<path fill="none" stroke="#9a32cd" stroke-dasharray="5,2" d="M846.202,-233.082C850.864,-232.181 855.511,-231.309 860,-230.5 903.529,-222.659 953.462,-215.01 988.459,-209.866"/>
<polygon fill="#9a32cd" stroke="#9a32cd" points="845.163,-229.72 836.027,-235.085 846.515,-236.588 845.163,-229.72"/>
<text text-anchor="middle" x="910.5" y="-233.5" font-family="Helvetica,sans-Serif" font-size="10.00"> m_hostPacketizer</text>
</g>
<!-- Node17 -->
<g id="node17" class="node"><title>Node17</title>
<g id="a_node17"><a xlink:href="classblfwk_1_1_sim_packetizer.html" target="_top" xlink:title="Provides source and sink for packets in the simulator space. ">
<polygon fill="white" stroke="black" points="980,-240 980,-259 1088,-259 1088,-240 980,-240"/>
<text text-anchor="middle" x="1034" y="-247" font-family="Helvetica,sans-Serif" font-size="10.00">blfwk::SimPacketizer</text>
</a>
</g>
</g>
<!-- Node3&#45;&gt;Node17 -->
<g id="edge19" class="edge"><title>Node3&#45;&gt;Node17</title>
<path fill="none" stroke="midnightblue" d="M846.188,-245.632C886.199,-246.461 940.188,-247.578 979.837,-248.399"/>
<polygon fill="midnightblue" stroke="midnightblue" points="846.147,-242.131 836.076,-245.423 846.002,-249.129 846.147,-242.131"/>
</g>
<!-- Node4 -->
<g id="node4" class="node"><title>Node4</title>
<g id="a_node4"><a xlink:href="classblfwk_1_1_peripheral.html" target="_top" xlink:title="Represents a peripheral. ">
<polygon fill="white" stroke="black" points="546,-262 546,-281 634,-281 634,-262 546,-262"/>
<text text-anchor="middle" x="590" y="-269" font-family="Helvetica,sans-Serif" font-size="10.00">blfwk::Peripheral</text>
</a>
</g>
</g>
<!-- Node4&#45;&gt;Node3 -->
<g id="edge3" class="edge"><title>Node4&#45;&gt;Node3</title>
<path fill="none" stroke="#9a32cd" stroke-dasharray="5,2" d="M643.984,-264.293C675.449,-260.013 714.906,-254.646 744.792,-250.581"/>
<polygon fill="#9a32cd" stroke="#9a32cd" points="643.509,-260.825 634.072,-265.641 644.452,-267.762 643.509,-260.825"/>
<text text-anchor="middle" x="689" y="-264.5" font-family="Helvetica,sans-Serif" font-size="10.00"> m_peripheral</text>
</g>
<!-- Node5 -->
<g id="node5" class="node"><title>Node5</title>
<g id="a_node5"><a xlink:href="group__qspi__driver.html#unionstandard__version__t" target="_top" xlink:title="standard_version_t">
<polygon fill="white" stroke="black" points="541,-224 541,-243 639,-243 639,-224 541,-224"/>
<text text-anchor="middle" x="590" y="-231" font-family="Helvetica,sans-Serif" font-size="10.00">standard_version_t</text>
</a>
</g>
</g>
<!-- Node5&#45;&gt;Node3 -->
<g id="edge4" class="edge"><title>Node5&#45;&gt;Node3</title>
<path fill="none" stroke="#9a32cd" stroke-dasharray="5,2" d="M649.233,-235.132C671.675,-235.92 697.543,-237.022 721,-238.5 728.744,-238.988 736.972,-239.615 744.938,-240.279"/>
<polygon fill="#9a32cd" stroke="#9a32cd" points="649.296,-231.632 639.183,-234.791 649.059,-238.628 649.296,-231.632"/>
<text text-anchor="middle" x="689" y="-241.5" font-family="Helvetica,sans-Serif" font-size="10.00"> m_version</text>
</g>
<!-- Node6 -->
<g id="node6" class="node"><title>Node6</title>
<g id="a_node6"><a xlink:href="group__logging.html#class_file_logger" target="_top" xlink:title="Simple logger that writes to a file. ">
<polygon fill="white" stroke="black" points="759.5,-155 759.5,-174 821.5,-174 821.5,-155 759.5,-155"/>
<text text-anchor="middle" x="790.5" y="-162" font-family="Helvetica,sans-Serif" font-size="10.00">FileLogger</text>
</a>
</g>
</g>
<!-- Node6&#45;&gt;Node1 -->
<g id="edge16" class="edge"><title>Node6&#45;&gt;Node1</title>
<path fill="none" stroke="#9a32cd" stroke-dasharray="5,2" d="M831.88,-165.28C905.117,-166.213 1064.63,-166.029 1198,-150.5 1203.8,-149.824 1209.88,-148.885 1215.85,-147.827"/>
<polygon fill="#9a32cd" stroke="#9a32cd" points="831.762,-161.778 821.714,-165.136 831.663,-168.777 831.762,-161.778"/>
<text text-anchor="middle" x="1034" y="-167.5" font-family="Helvetica,sans-Serif" font-size="10.00"> m_logger</text>
</g>
<!-- Node6&#45;&gt;Node2 -->
<g id="edge5" class="edge"><title>Node6&#45;&gt;Node2</title>
<path fill="none" stroke="#9a32cd" stroke-dasharray="5,2" d="M831.73,-170.997C874.883,-177.966 943.242,-189.005 988.112,-196.251"/>
<polygon fill="#9a32cd" stroke="#9a32cd" points="832.028,-167.5 821.598,-169.361 830.912,-174.41 832.028,-167.5"/>
<text text-anchor="middle" x="910.5" y="-194.5" font-family="Helvetica,sans-Serif" font-size="10.00"> m_logger</text>
</g>
<!-- Node7 -->
<g id="node7" class="node"><title>Node7</title>
<g id="a_node7"><a xlink:href="group__logging.html#class_logger" target="_top" xlink:title="Base logger class. ">
<polygon fill="white" stroke="black" points="567,-176 567,-195 613,-195 613,-176 567,-176"/>
<text text-anchor="middle" x="590" y="-183" font-family="Helvetica,sans-Serif" font-size="10.00">Logger</text>
</a>
</g>
</g>
<!-- Node7&#45;&gt;Node6 -->
<g id="edge6" class="edge"><title>Node7&#45;&gt;Node6</title>
<path fill="none" stroke="midnightblue" d="M623.4,-182.072C661.04,-178.09 722.65,-171.572 759.317,-167.693"/>
<polygon fill="midnightblue" stroke="midnightblue" points="622.578,-178.64 613.001,-183.172 623.314,-185.601 622.578,-178.64"/>
</g>
<!-- Node8 -->
<g id="node8" class="node"><title>Node8</title>
<g id="a_node8"><a xlink:title="STL class. ">
<polygon fill="white" stroke="#bfbfbf" points="560,-76 560,-95 620,-95 620,-76 560,-76"/>
<text text-anchor="middle" x="590" y="-83" font-family="Helvetica,sans-Serif" font-size="10.00">std::string</text>
</a>
</g>
</g>
<!-- Node8&#45;&gt;Node6 -->
<g id="edge7" class="edge"><title>Node8&#45;&gt;Node6</title>
<path fill="none" stroke="#9a32cd" stroke-dasharray="5,2" d="M624.257,-98.7359C664.187,-114.627 730.176,-140.89 765.471,-154.937"/>
<polygon fill="#9a32cd" stroke="#9a32cd" points="625.529,-95.4751 614.944,-95.0292 622.941,-101.979 625.529,-95.4751"/>
<text text-anchor="middle" x="689" y="-140.5" font-family="Helvetica,sans-Serif" font-size="10.00"> m_file_path</text>
</g>
<!-- Node15 -->
<g id="node15" class="node"><title>Node15</title>
<g id="a_node15"><a xlink:href="classblfwk_1_1_options_store.html" target="_top" xlink:title="Holds persistent options. ">
<polygon fill="white" stroke="black" points="860,-61 860,-80 961,-80 961,-61 860,-61"/>
<text text-anchor="middle" x="910.5" y="-68" font-family="Helvetica,sans-Serif" font-size="10.00">blfwk::OptionsStore</text>
</a>
</g>
</g>
<!-- Node8&#45;&gt;Node15 -->
<g id="edge15" class="edge"><title>Node8&#45;&gt;Node15</title>
<path fill="none" stroke="#9a32cd" stroke-dasharray="5,2" d="M630.323,-83.648C688.283,-80.9184 796.608,-75.8167 859.933,-72.8344"/>
<polygon fill="#9a32cd" stroke="#9a32cd" points="629.933,-80.1624 620.109,-84.1291 630.263,-87.1547 629.933,-80.1624"/>
<text text-anchor="middle" x="689" y="-85.5" font-family="Helvetica,sans-Serif" font-size="10.00"> m_optionsFile</text>
</g>
<!-- Node9 -->
<g id="node9" class="node"><title>Node9</title>
<g id="a_node9"><a xlink:title="STL class. ">
<polygon fill="white" stroke="#bfbfbf" points="405.5,-70.5 405.5,-100.5 500.5,-100.5 500.5,-70.5 405.5,-70.5"/>
<text text-anchor="start" x="413.5" y="-88.5" font-family="Helvetica,sans-Serif" font-size="10.00">std::basic_string&lt;</text>
<text text-anchor="middle" x="453" y="-77.5" font-family="Helvetica,sans-Serif" font-size="10.00"> char &gt;</text>
</a>
</g>
</g>
<!-- Node9&#45;&gt;Node8 -->
<g id="edge8" class="edge"><title>Node9&#45;&gt;Node8</title>
<path fill="none" stroke="midnightblue" d="M511.159,-85.5C527.98,-85.5 545.679,-85.5 559.942,-85.5"/>
<polygon fill="midnightblue" stroke="midnightblue" points="510.838,-82.0001 500.838,-85.5 510.838,-89.0001 510.838,-82.0001"/>
</g>
<!-- Node10 -->
<g id="node10" class="node"><title>Node10</title>
<g id="a_node10"><a xlink:title="STL class. ">
<polygon fill="white" stroke="#bfbfbf" points="553,-138 553,-157 627,-157 627,-138 553,-138"/>
<text text-anchor="middle" x="590" y="-145" font-family="Helvetica,sans-Serif" font-size="10.00">std::ofstream</text>
</a>
</g>
</g>
<!-- Node10&#45;&gt;Node6 -->
<g id="edge9" class="edge"><title>Node10&#45;&gt;Node6</title>
<path fill="none" stroke="#9a32cd" stroke-dasharray="5,2" d="M637.623,-151.493C675.277,-154.718 727.148,-159.16 759.484,-161.929"/>
<polygon fill="#9a32cd" stroke="#9a32cd" points="637.67,-147.984 627.408,-150.618 637.073,-154.959 637.67,-147.984"/>
<text text-anchor="middle" x="689" y="-162.5" font-family="Helvetica,sans-Serif" font-size="10.00"> m_logFile</text>
</g>
<!-- Node11 -->
<g id="node11" class="node"><title>Node11</title>
<g id="a_node11"><a xlink:title="STL class. ">
<polygon fill="white" stroke="#bfbfbf" points="402,-132.5 402,-162.5 504,-162.5 504,-132.5 402,-132.5"/>
<text text-anchor="start" x="410" y="-150.5" font-family="Helvetica,sans-Serif" font-size="10.00">std::basic_ofstream</text>
<text text-anchor="middle" x="453" y="-139.5" font-family="Helvetica,sans-Serif" font-size="10.00">&lt; char &gt;</text>
</a>
</g>
</g>
<!-- Node11&#45;&gt;Node10 -->
<g id="edge10" class="edge"><title>Node11&#45;&gt;Node10</title>
<path fill="none" stroke="midnightblue" d="M514.57,-147.5C527.552,-147.5 540.881,-147.5 552.606,-147.5"/>
<polygon fill="midnightblue" stroke="midnightblue" points="514.269,-144 504.269,-147.5 514.269,-151 514.269,-144"/>
</g>
<!-- Node12 -->
<g id="node12" class="node"><title>Node12</title>
<g id="a_node12"><a xlink:title="STL class. ">
<polygon fill="white" stroke="#bfbfbf" points="265,-132.5 265,-162.5 365,-162.5 365,-132.5 265,-132.5"/>
<text text-anchor="start" x="273" y="-150.5" font-family="Helvetica,sans-Serif" font-size="10.00">std::basic_ostream</text>
<text text-anchor="middle" x="315" y="-139.5" font-family="Helvetica,sans-Serif" font-size="10.00">&lt; Char &gt;</text>
</a>
</g>
</g>
<!-- Node12&#45;&gt;Node11 -->
<g id="edge11" class="edge"><title>Node12&#45;&gt;Node11</title>
<path fill="none" stroke="midnightblue" d="M375.276,-147.5C384.053,-147.5 393.027,-147.5 401.6,-147.5"/>
<polygon fill="midnightblue" stroke="midnightblue" points="375.099,-144 365.099,-147.5 375.099,-151 375.099,-144"/>
</g>
<!-- Node13 -->
<g id="node13" class="node"><title>Node13</title>
<g id="a_node13"><a xlink:title="STL class. ">
<polygon fill="white" stroke="#bfbfbf" points="112,-138 112,-157 228,-157 228,-138 112,-138"/>
<text text-anchor="middle" x="170" y="-145" font-family="Helvetica,sans-Serif" font-size="10.00">std::basic_ios&lt; Char &gt;</text>
</a>
</g>
</g>
<!-- Node13&#45;&gt;Node12 -->
<g id="edge12" class="edge"><title>Node13&#45;&gt;Node12</title>
<path fill="none" stroke="midnightblue" d="M238.38,-147.5C247.332,-147.5 256.37,-147.5 264.931,-147.5"/>
<polygon fill="midnightblue" stroke="midnightblue" points="238.34,-144 228.34,-147.5 238.34,-151 238.34,-144"/>
</g>
<!-- Node14 -->
<g id="node14" class="node"><title>Node14</title>
<g id="a_node14"><a xlink:title="STL class. ">
<polygon fill="white" stroke="#bfbfbf" points="0,-138 0,-157 75,-157 75,-138 0,-138"/>
<text text-anchor="middle" x="37.5" y="-145" font-family="Helvetica,sans-Serif" font-size="10.00">std::ios_base</text>
</a>
</g>
</g>
<!-- Node14&#45;&gt;Node13 -->
<g id="edge13" class="edge"><title>Node14&#45;&gt;Node13</title>
<path fill="none" stroke="midnightblue" d="M85.3188,-147.5C93.8367,-147.5 102.811,-147.5 111.593,-147.5"/>
<polygon fill="midnightblue" stroke="midnightblue" points="85.1988,-144 75.1988,-147.5 85.1988,-151 85.1988,-144"/>
</g>
<!-- Node15&#45;&gt;Node1 -->
<g id="edge14" class="edge"><title>Node15&#45;&gt;Node1</title>
<path fill="none" stroke="#9a32cd" stroke-dasharray="5,2" d="M971.722,-67.9422C1006.32,-67.6127 1050.44,-69.1357 1089,-76.5 1139.54,-86.1513 1149.75,-97.6239 1198,-115.5 1209.72,-119.841 1222.67,-124.786 1233.53,-128.976"/>
<polygon fill="#9a32cd" stroke="#9a32cd" points="971.252,-64.4488 961.306,-68.0996 971.357,-71.448 971.252,-64.4488"/>
<text text-anchor="middle" x="1034" y="-79.5" font-family="Helvetica,sans-Serif" font-size="10.00"> m_optionsStore</text>
</g>
<!-- Node16 -->
<g id="node16" class="node"><title>Node16</title>
<polygon fill="white" stroke="#bfbfbf" points="979,-97.5 979,-127.5 1089,-127.5 1089,-97.5 979,-97.5"/>
<text text-anchor="start" x="987" y="-115.5" font-family="Helvetica,sans-Serif" font-size="10.00">std::deque&lt; unsigned</text>
<text text-anchor="middle" x="1034" y="-104.5" font-family="Helvetica,sans-Serif" font-size="10.00"> char &gt;</text>
</g>
<!-- Node16&#45;&gt;Node1 -->
<g id="edge17" class="edge"><title>Node16&#45;&gt;Node1</title>
<path fill="none" stroke="#9a32cd" stroke-dasharray="5,2" d="M1099.41,-117.816C1129.43,-120.552 1165.6,-124.214 1198,-128.5 1203.76,-129.262 1209.81,-130.157 1215.77,-131.095"/>
<polygon fill="#9a32cd" stroke="#9a32cd" points="1099.34,-114.296 1089.07,-116.888 1098.71,-121.268 1099.34,-114.296"/>
<text text-anchor="middle" x="1152.5" y="-142.5" font-family="Helvetica,sans-Serif" font-size="10.00"> m_responseStream</text>
<text text-anchor="middle" x="1152.5" y="-131.5" font-family="Helvetica,sans-Serif" font-size="10.00">m_commandStream</text>
</g>
<!-- Node17&#45;&gt;Node1 -->
<g id="edge18" class="edge"><title>Node17&#45;&gt;Node1</title>
<path fill="none" stroke="#9a32cd" stroke-dasharray="5,2" d="M1098.3,-240.045C1129.94,-233.297 1167.81,-222.021 1198,-203.5 1221.56,-189.046 1241.65,-162.783 1251.51,-148.463"/>
<polygon fill="#9a32cd" stroke="#9a32cd" points="1097.37,-236.663 1088.27,-242.081 1098.76,-243.523 1097.37,-236.663"/>
<text text-anchor="middle" x="1152.5" y="-240.5" font-family="Helvetica,sans-Serif" font-size="10.00"> m_devicePacketizer</text>
</g>
<!-- Node18 -->
<g id="node18" class="node"><title>Node18</title>
<polygon fill="white" stroke="#bfbfbf" points="985.5,-0.5 985.5,-30.5 1082.5,-30.5 1082.5,-0.5 985.5,-0.5"/>
<text text-anchor="start" x="993.5" y="-18.5" font-family="Helvetica,sans-Serif" font-size="10.00">std::vector&lt; blfwk</text>
<text text-anchor="middle" x="1034" y="-7.5" font-family="Helvetica,sans-Serif" font-size="10.00">::MemoryStore * &gt;</text>
</g>
<!-- Node18&#45;&gt;Node1 -->
<g id="edge20" class="edge"><title>Node18&#45;&gt;Node1</title>
<path fill="none" stroke="#9a32cd" stroke-dasharray="5,2" d="M1092.71,-13.6783C1125.98,-15.2592 1167.18,-21.9469 1198,-42.5 1230.21,-63.9828 1248.38,-109.251 1255.04,-128.976"/>
<polygon fill="#9a32cd" stroke="#9a32cd" points="1092.77,-10.1784 1082.66,-13.3419 1092.53,-17.1745 1092.77,-10.1784"/>
<text text-anchor="middle" x="1152.5" y="-45.5" font-family="Helvetica,sans-Serif" font-size="10.00"> m_memoryStore</text>
</g>
<!-- Node19 -->
<g id="node19" class="node"><title>Node19</title>
<g id="a_node19"><a xlink:href="classblfwk_1_1_memory_store.html" target="_top" xlink:title="Represents target device memory as a disk file. ">
<polygon fill="white" stroke="black" points="739,-6 739,-25 842,-25 842,-6 739,-6"/>
<text text-anchor="middle" x="790.5" y="-13" font-family="Helvetica,sans-Serif" font-size="10.00">blfwk::MemoryStore</text>
</a>
</g>
</g>
<!-- Node19&#45;&gt;Node18 -->
<g id="edge21" class="edge"><title>Node19&#45;&gt;Node18</title>
<path fill="none" stroke="#9a32cd" stroke-dasharray="5,2" d="M852.316,-15.5C893.521,-15.5 947.201,-15.5 985.316,-15.5"/>
<polygon fill="#9a32cd" stroke="#9a32cd" points="852.126,-12.0001 842.126,-15.5 852.126,-19.0001 852.126,-12.0001"/>
<text text-anchor="middle" x="910.5" y="-18.5" font-family="Helvetica,sans-Serif" font-size="10.00"> elements</text>
</g>
</g>
</svg>
