<?xml version="1.0" encoding="UTF-8" standalone="no"?>
<!DOCTYPE svg PUBLIC "-//W3C//DTD SVG 1.1//EN"
 "http://www.w3.org/Graphics/SVG/1.1/DTD/svg11.dtd">
<!-- Generated by graphviz version 2.38.0 (20140413.2041)
 -->
<!-- Title: elftosb::DataSource Pages: 1 -->
<svg width="114pt" height="95pt"
 viewBox="0.00 0.00 114.00 95.00" xmlns="http://www.w3.org/2000/svg" xmlns:xlink="http://www.w3.org/1999/xlink">
<g id="graph0" class="graph" transform="scale(1 1) rotate(0) translate(4 91)">
<title>elftosb::DataSource</title>
<polygon fill="white" stroke="none" points="-4,4 -4,-91 110,-91 110,4 -4,4"/>
<!-- Node1 -->
<g id="node1" class="node"><title>Node1</title>
<polygon fill="#bfbfbf" stroke="black" points="0,-67.5 0,-86.5 102,-86.5 102,-67.5 0,-67.5"/>
<text text-anchor="middle" x="51" y="-74.5" font-family="Helvetica,sans-Serif" font-size="10.00">elftosb::DataSource</text>
</g>
<!-- Node2 -->
<g id="node2" class="node"><title>Node2</title>
<g id="a_node2"><a xlink:href="classelftosb_1_1_data_target.html" target="_top" xlink:title="Abstract base class for the target address or range of data. ">
<polygon fill="white" stroke="black" points="2,-0.5 2,-19.5 100,-19.5 100,-0.5 2,-0.5"/>
<text text-anchor="middle" x="51" y="-7.5" font-family="Helvetica,sans-Serif" font-size="10.00">elftosb::DataTarget</text>
</a>
</g>
</g>
<!-- Node1&#45;&gt;Node2 -->
<g id="edge2" class="edge"><title>Node1&#45;&gt;Node2</title>
<path fill="none" stroke="#9a32cd" stroke-dasharray="5,2" d="M24.2294,-61.3517C20.102,-57.8665 16.415,-53.7519 14,-49 7.95093,-37.0974 20.6245,-26.4872 32.7521,-19.5239"/>
<polygon fill="#9a32cd" stroke="#9a32cd" points="22.3253,-64.2932 32.4904,-67.2802 26.4067,-58.6061 22.3253,-64.2932"/>
<text text-anchor="middle" x="37" y="-41" font-family="Helvetica,sans-Serif" font-size="10.00"> m_source</text>
</g>
<!-- Node2&#45;&gt;Node1 -->
<g id="edge1" class="edge"><title>Node2&#45;&gt;Node1</title>
<path fill="none" stroke="#9a32cd" stroke-dasharray="5,2" d="M61.3463,-28.6097C63.9152,-34.9532 65.5474,-42.2192 64,-49 62.5184,-55.4923 59.2684,-62.2423 56.3888,-67.3693"/>
<polygon fill="#9a32cd" stroke="#9a32cd" points="64.4517,-26.994 56.8608,-19.603 58.1858,-30.1146 64.4517,-26.994"/>
<text text-anchor="middle" x="85" y="-41" font-family="Helvetica,sans-Serif" font-size="10.00"> m_target</text>
</g>
</g>
</svg>
