<?xml version="1.0" encoding="UTF-8" standalone="no"?>
<!DOCTYPE svg PUBLIC "-//W3C//DTD SVG 1.1//EN"
 "http://www.w3.org/Graphics/SVG/1.1/DTD/svg11.dtd">
<!-- Generated by graphviz version 2.38.0 (20140413.2041)
 -->
<!-- Title: blfwk::DataSource::Segment Pages: 1 -->
<svg width="521pt" height="225pt"
 viewBox="0.00 0.00 521.00 224.50" xmlns="http://www.w3.org/2000/svg" xmlns:xlink="http://www.w3.org/1999/xlink">
<g id="graph0" class="graph" transform="scale(1 1) rotate(0) translate(4 220.5)">
<title>blfwk::DataSource::Segment</title>
<polygon fill="white" stroke="none" points="-4,4 -4,-220.5 517,-220.5 517,4 -4,4"/>
<!-- Node1 -->
<g id="node1" class="node"><title>Node1</title>
<polygon fill="#bfbfbf" stroke="black" points="0,-63 0,-93 101,-93 101,-63 0,-63"/>
<text text-anchor="start" x="8" y="-81" font-family="Helvetica,sans-Serif" font-size="10.00">blfwk::DataSource::</text>
<text text-anchor="middle" x="50.5" y="-70" font-family="Helvetica,sans-Serif" font-size="10.00">Segment</text>
</g>
<!-- Node2 -->
<g id="node2" class="node"><title>Node2</title>
<g id="a_node2"><a xlink:href="classblfwk_1_1_data_source_1_1_pattern_segment.html" target="_top" xlink:title="This is a special type of segment containing a repeating pattern. ">
<polygon fill="white" stroke="black" points="173.5,-137 173.5,-167 274.5,-167 274.5,-137 173.5,-137"/>
<text text-anchor="start" x="181.5" y="-155" font-family="Helvetica,sans-Serif" font-size="10.00">blfwk::DataSource::</text>
<text text-anchor="middle" x="224" y="-144" font-family="Helvetica,sans-Serif" font-size="10.00">PatternSegment</text>
</a>
</g>
</g>
<!-- Node1&#45;&gt;Node2 -->
<g id="edge1" class="edge"><title>Node1&#45;&gt;Node2</title>
<path fill="none" stroke="midnightblue" d="M82.3481,-98.6412C98.1787,-108.551 118.072,-119.983 137,-128 148.419,-132.837 161.099,-136.994 173.138,-140.425"/>
<polygon fill="midnightblue" stroke="midnightblue" points="83.848,-95.4466 73.5349,-93.0197 80.0837,-101.348 83.848,-95.4466"/>
</g>
<!-- Node6 -->
<g id="node6" class="node"><title>Node6</title>
<g id="a_node6"><a xlink:href="classblfwk_1_1_e_l_f_source_file_1_1_e_l_f_data_source_1_1_prog_bits_segment.html" target="_top" xlink:title="Represents one named #SHT_PROGBITS section within the ELF file. ">
<polygon fill="white" stroke="black" points="137,-88 137,-118 311,-118 311,-88 137,-88"/>
<text text-anchor="start" x="145" y="-106" font-family="Helvetica,sans-Serif" font-size="10.00">blfwk::ELFSourceFile</text>
<text text-anchor="middle" x="224" y="-95" font-family="Helvetica,sans-Serif" font-size="10.00">::ELFDataSource::ProgBitsSegment</text>
</a>
</g>
</g>
<!-- Node1&#45;&gt;Node6 -->
<g id="edge5" class="edge"><title>Node1&#45;&gt;Node6</title>
<path fill="none" stroke="midnightblue" d="M111.116,-86.6904C119.493,-87.9116 128.238,-89.1863 136.987,-90.4617"/>
<polygon fill="midnightblue" stroke="midnightblue" points="111.505,-83.2102 101.105,-85.231 110.495,-90.137 111.505,-83.2102"/>
</g>
<!-- Node7 -->
<g id="node7" class="node"><title>Node7</title>
<g id="a_node7"><a xlink:href="classblfwk_1_1_memory_image_data_source_1_1_text_segment.html" target="_top" xlink:title="Segment corresponding to a text region of the executable image. ">
<polygon fill="white" stroke="black" points="145.5,-39 145.5,-69 302.5,-69 302.5,-39 145.5,-39"/>
<text text-anchor="start" x="153.5" y="-57" font-family="Helvetica,sans-Serif" font-size="10.00">blfwk::MemoryImageDataSource</text>
<text text-anchor="middle" x="224" y="-46" font-family="Helvetica,sans-Serif" font-size="10.00">::TextSegment</text>
</a>
</g>
</g>
<!-- Node1&#45;&gt;Node7 -->
<g id="edge6" class="edge"><title>Node1&#45;&gt;Node7</title>
<path fill="none" stroke="midnightblue" d="M111.073,-69.6633C122.15,-68.1131 133.872,-66.4727 145.396,-64.8601"/>
<polygon fill="midnightblue" stroke="midnightblue" points="110.523,-66.206 101.105,-71.0582 111.494,-73.1384 110.523,-66.206"/>
</g>
<!-- Node8 -->
<g id="node8" class="node"><title>Node8</title>
<g id="a_node8"><a xlink:href="classblfwk_1_1_unmapped_data_source.html" target="_top" xlink:title="Data source for data that is not memory mapped (has no natural address). ">
<polygon fill="white" stroke="black" points="153,-0.5 153,-19.5 295,-19.5 295,-0.5 153,-0.5"/>
<text text-anchor="middle" x="224" y="-7.5" font-family="Helvetica,sans-Serif" font-size="10.00">blfwk::UnmappedDataSource</text>
</a>
</g>
</g>
<!-- Node1&#45;&gt;Node8 -->
<g id="edge7" class="edge"><title>Node1&#45;&gt;Node8</title>
<path fill="none" stroke="midnightblue" d="M82.2221,-57.361C98.0211,-47.5465 117.925,-36.375 137,-29 146.841,-25.1954 157.624,-22.0614 168.128,-19.5129"/>
<polygon fill="midnightblue" stroke="midnightblue" points="79.9966,-54.6281 73.4315,-62.9438 83.7494,-60.5372 79.9966,-54.6281"/>
</g>
<!-- Node3 -->
<g id="node3" class="node"><title>Node3</title>
<g id="a_node3"><a xlink:href="classblfwk_1_1_e_l_f_source_file_1_1_e_l_f_data_source_1_1_no_bits_segment.html" target="_top" xlink:title="Represents one named #SHT_NOBITS section within the ELF file. ">
<polygon fill="white" stroke="black" points="347,-186 347,-216 513,-216 513,-186 347,-186"/>
<text text-anchor="start" x="355" y="-204" font-family="Helvetica,sans-Serif" font-size="10.00">blfwk::ELFSourceFile</text>
<text text-anchor="middle" x="430" y="-193" font-family="Helvetica,sans-Serif" font-size="10.00">::ELFDataSource::NoBitsSegment</text>
</a>
</g>
</g>
<!-- Node2&#45;&gt;Node3 -->
<g id="edge2" class="edge"><title>Node2&#45;&gt;Node3</title>
<path fill="none" stroke="midnightblue" d="M284.615,-166.319C310.282,-172.484 340.306,-179.696 366.306,-185.941"/>
<polygon fill="midnightblue" stroke="midnightblue" points="285.184,-162.856 274.643,-163.924 283.549,-169.663 285.184,-162.856"/>
</g>
<!-- Node4 -->
<g id="node4" class="node"><title>Node4</title>
<g id="a_node4"><a xlink:href="classblfwk_1_1_memory_image_data_source_1_1_fill_segment.html" target="_top" xlink:title="Segment corresponding to a fill region of the executable image. ">
<polygon fill="white" stroke="black" points="351.5,-137 351.5,-167 508.5,-167 508.5,-137 351.5,-137"/>
<text text-anchor="start" x="359.5" y="-155" font-family="Helvetica,sans-Serif" font-size="10.00">blfwk::MemoryImageDataSource</text>
<text text-anchor="middle" x="430" y="-144" font-family="Helvetica,sans-Serif" font-size="10.00">::FillSegment</text>
</a>
</g>
</g>
<!-- Node2&#45;&gt;Node4 -->
<g id="edge3" class="edge"><title>Node2&#45;&gt;Node4</title>
<path fill="none" stroke="midnightblue" d="M284.899,-152C305.652,-152 329.225,-152 351.206,-152"/>
<polygon fill="midnightblue" stroke="midnightblue" points="284.643,-148.5 274.643,-152 284.643,-155.5 284.643,-148.5"/>
</g>
<!-- Node5 -->
<g id="node5" class="node"><title>Node5</title>
<g id="a_node5"><a xlink:href="classblfwk_1_1_pattern_source.html" target="_top" xlink:title="Data source for a repeating pattern. ">
<polygon fill="white" stroke="black" points="376.5,-98.5 376.5,-117.5 483.5,-117.5 483.5,-98.5 376.5,-98.5"/>
<text text-anchor="middle" x="430" y="-105.5" font-family="Helvetica,sans-Serif" font-size="10.00">blfwk::PatternSource</text>
</a>
</g>
</g>
<!-- Node2&#45;&gt;Node5 -->
<g id="edge4" class="edge"><title>Node2&#45;&gt;Node5</title>
<path fill="none" stroke="midnightblue" d="M284.768,-139.109C316.743,-132.212 355.442,-123.865 384.701,-117.555"/>
<polygon fill="midnightblue" stroke="midnightblue" points="283.68,-135.763 274.643,-141.293 285.156,-142.606 283.68,-135.763"/>
</g>
</g>
</svg>
