<?xml version="1.0" encoding="UTF-8" standalone="no"?>
<!DOCTYPE svg PUBLIC "-//W3C//DTD SVG 1.1//EN"
 "http://www.w3.org/Graphics/SVG/1.1/DTD/svg11.dtd">
<!-- Generated by graphviz version 2.38.0 (20140413.2041)
 -->
<!-- Title: elftosb::ProgramOperation Pages: 1 -->
<svg width="875pt" height="127pt"
 viewBox="0.00 0.00 875.00 127.26" xmlns="http://www.w3.org/2000/svg" xmlns:xlink="http://www.w3.org/1999/xlink">
<g id="graph0" class="graph" transform="scale(1 1) rotate(0) translate(4 123.259)">
<title>elftosb::ProgramOperation</title>
<polygon fill="white" stroke="none" points="-4,4 -4,-123.259 871,-123.259 871,4 -4,4"/>
<!-- Node1 -->
<g id="node1" class="node"><title>Node1</title>
<polygon fill="#bfbfbf" stroke="black" points="737,-60.7592 737,-79.7592 867,-79.7592 867,-60.7592 737,-60.7592"/>
<text text-anchor="middle" x="802" y="-67.7592" font-family="Helvetica,sans-Serif" font-size="10.00">elftosb::ProgramOperation</text>
</g>
<!-- Node2 -->
<g id="node2" class="node"><title>Node2</title>
<g id="a_node2"><a xlink:href="classelftosb_1_1_load_operation.html" target="_top" xlink:title="Load data into memory operation. ">
<polygon fill="white" stroke="black" points="586,-60.7592 586,-79.7592 700,-79.7592 700,-60.7592 586,-60.7592"/>
<text text-anchor="middle" x="643" y="-67.7592" font-family="Helvetica,sans-Serif" font-size="10.00">elftosb::LoadOperation</text>
</a>
</g>
</g>
<!-- Node2&#45;&gt;Node1 -->
<g id="edge1" class="edge"><title>Node2&#45;&gt;Node1</title>
<path fill="none" stroke="midnightblue" d="M710.408,-70.2592C719.176,-70.2592 728.151,-70.2592 736.879,-70.2592"/>
<polygon fill="midnightblue" stroke="midnightblue" points="710.237,-66.7593 700.237,-70.2592 710.237,-73.7593 710.237,-66.7593"/>
</g>
<!-- Node3 -->
<g id="node3" class="node"><title>Node3</title>
<g id="a_node3"><a xlink:href="classelftosb_1_1_operation.html" target="_top" xlink:title="Abstract base class for all boot operations. ">
<polygon fill="white" stroke="black" points="414,-99.7592 414,-118.759 507,-118.759 507,-99.7592 414,-99.7592"/>
<text text-anchor="middle" x="460.5" y="-106.759" font-family="Helvetica,sans-Serif" font-size="10.00">elftosb::Operation</text>
</a>
</g>
</g>
<!-- Node3&#45;&gt;Node2 -->
<g id="edge2" class="edge"><title>Node3&#45;&gt;Node2</title>
<path fill="none" stroke="midnightblue" d="M515.486,-97.5946C541.83,-91.9026 573.118,-85.1423 597.988,-79.7687"/>
<polygon fill="midnightblue" stroke="midnightblue" points="514.691,-94.1856 505.655,-99.7187 516.169,-101.028 514.691,-94.1856"/>
</g>
<!-- Node4 -->
<g id="node4" class="node"><title>Node4</title>
<g id="a_node4"><a xlink:href="group__smart__pointer.html" target="_top" xlink:title="smart_ptr\&lt; elftosb\l::DataSource \&gt;">
<polygon fill="white" stroke="black" points="300,-55.2592 300,-85.2592 395,-85.2592 395,-55.2592 300,-55.2592"/>
<text text-anchor="start" x="308" y="-73.2592" font-family="Helvetica,sans-Serif" font-size="10.00">smart_ptr&lt; elftosb</text>
<text text-anchor="middle" x="347.5" y="-62.2592" font-family="Helvetica,sans-Serif" font-size="10.00">::DataSource &gt;</text>
</a>
</g>
</g>
<!-- Node4&#45;&gt;Node2 -->
<g id="edge3" class="edge"><title>Node4&#45;&gt;Node2</title>
<path fill="none" stroke="#9a32cd" stroke-dasharray="5,2" d="M405.079,-70.2592C457.167,-70.2592 534.004,-70.2592 585.93,-70.2592"/>
<polygon fill="#9a32cd" stroke="#9a32cd" points="405.006,-66.7593 395.006,-70.2592 405.006,-73.7593 405.006,-66.7593"/>
<text text-anchor="middle" x="460.5" y="-73.2592" font-family="Helvetica,sans-Serif" font-size="10.00"> m_source</text>
</g>
<!-- Node5 -->
<g id="node5" class="node"><title>Node5</title>
<g id="a_node5"><a xlink:href="classelftosb_1_1_data_source.html" target="_top" xlink:title="Abstract base class for data sources. ">
<polygon fill="white" stroke="black" points="0,-26.7592 0,-45.7592 102,-45.7592 102,-26.7592 0,-26.7592"/>
<text text-anchor="middle" x="51" y="-33.7592" font-family="Helvetica,sans-Serif" font-size="10.00">elftosb::DataSource</text>
</a>
</g>
</g>
<!-- Node5&#45;&gt;Node4 -->
<g id="edge4" class="edge"><title>Node5&#45;&gt;Node4</title>
<path fill="none" stroke="#9a32cd" stroke-dasharray="5,2" d="M112.266,-44.3058C114.879,-44.6325 117.466,-44.9516 120,-45.2592 182.052,-52.7892 253.787,-60.5473 299.616,-65.3837"/>
<polygon fill="#9a32cd" stroke="#9a32cd" points="112.479,-40.8048 102.118,-43.0174 111.597,-47.7491 112.479,-40.8048"/>
<text text-anchor="middle" x="143" y="-54.2592" font-family="Helvetica,sans-Serif" font-size="10.00"> _p</text>
</g>
<!-- Node6 -->
<g id="node6" class="node"><title>Node6</title>
<g id="a_node6"><a xlink:href="classelftosb_1_1_data_target.html" target="_top" xlink:title="Abstract base class for the target address or range of data. ">
<polygon fill="white" stroke="black" points="184,-8.75916 184,-27.7592 282,-27.7592 282,-8.75916 184,-8.75916"/>
<text text-anchor="middle" x="233" y="-15.7592" font-family="Helvetica,sans-Serif" font-size="10.00">elftosb::DataTarget</text>
</a>
</g>
</g>
<!-- Node5&#45;&gt;Node6 -->
<g id="edge6" class="edge"><title>Node5&#45;&gt;Node6</title>
<path fill="none" stroke="#9a32cd" stroke-dasharray="5,2" d="M112.281,-30.2311C135.622,-27.897 161.967,-25.2625 183.989,-23.0603"/>
<polygon fill="#9a32cd" stroke="#9a32cd" points="111.742,-26.7674 102.14,-31.2452 112.439,-33.7327 111.742,-26.7674"/>
<text text-anchor="middle" x="143" y="-33.2592" font-family="Helvetica,sans-Serif" font-size="10.00"> m_source</text>
</g>
<!-- Node6&#45;&gt;Node5 -->
<g id="edge5" class="edge"><title>Node6&#45;&gt;Node5</title>
<path fill="none" stroke="#9a32cd" stroke-dasharray="5,2" d="M192.898,-6.20152C171.239,-1.2236 143.933,2.24138 120,-3.25916 100.433,-7.75624 79.9656,-18.6653 66.6632,-26.7156"/>
<polygon fill="#9a32cd" stroke="#9a32cd" points="192.177,-9.62902 202.727,-8.65083 193.87,-2.83671 192.177,-9.62902"/>
<text text-anchor="middle" x="143" y="-6.25916" font-family="Helvetica,sans-Serif" font-size="10.00"> m_target</text>
</g>
<!-- Node7 -->
<g id="node7" class="node"><title>Node7</title>
<g id="a_node7"><a xlink:href="group__smart__pointer.html" target="_top" xlink:title="smart_ptr\&lt; elftosb\l::DataTarget \&gt;">
<polygon fill="white" stroke="black" points="413,-3.25916 413,-33.2592 508,-33.2592 508,-3.25916 413,-3.25916"/>
<text text-anchor="start" x="421" y="-21.2592" font-family="Helvetica,sans-Serif" font-size="10.00">smart_ptr&lt; elftosb</text>
<text text-anchor="middle" x="460.5" y="-10.2592" font-family="Helvetica,sans-Serif" font-size="10.00">::DataTarget &gt;</text>
</a>
</g>
</g>
<!-- Node6&#45;&gt;Node7 -->
<g id="edge8" class="edge"><title>Node6&#45;&gt;Node7</title>
<path fill="none" stroke="#9a32cd" stroke-dasharray="5,2" d="M292.354,-18.2592C329.772,-18.2592 377.702,-18.2592 412.634,-18.2592"/>
<polygon fill="#9a32cd" stroke="#9a32cd" points="292.099,-14.7593 282.099,-18.2592 292.099,-21.7593 292.099,-14.7593"/>
<text text-anchor="middle" x="347.5" y="-21.2592" font-family="Helvetica,sans-Serif" font-size="10.00"> _p</text>
</g>
<!-- Node7&#45;&gt;Node2 -->
<g id="edge7" class="edge"><title>Node7&#45;&gt;Node2</title>
<path fill="none" stroke="#9a32cd" stroke-dasharray="5,2" d="M517.991,-31.7141C534.208,-35.8106 551.865,-40.4963 568,-45.2592 583.867,-49.9431 601.417,-55.8404 615.442,-60.7309"/>
<polygon fill="#9a32cd" stroke="#9a32cd" points="518.657,-28.273 508.107,-29.2442 516.96,-35.0642 518.657,-28.273"/>
<text text-anchor="middle" x="547" y="-48.2592" font-family="Helvetica,sans-Serif" font-size="10.00"> m_target</text>
</g>
</g>
</svg>
