<?xml version="1.0" encoding="UTF-8" standalone="no"?>
<!DOCTYPE svg PUBLIC "-//W3C//DTD SVG 1.1//EN"
 "http://www.w3.org/Graphics/SVG/1.1/DTD/svg11.dtd">
<!-- Generated by graphviz version 2.38.0 (20140413.2041)
 -->
<!-- Title: blfwk::FixedMatcher Pages: 1 -->
<svg width="209pt" height="163pt"
 viewBox="0.00 0.00 209.00 163.00" xmlns="http://www.w3.org/2000/svg" xmlns:xlink="http://www.w3.org/1999/xlink">
<g id="graph0" class="graph" transform="scale(1 1) rotate(0) translate(4 159)">
<title>blfwk::FixedMatcher</title>
<polygon fill="white" stroke="none" points="-4,4 -4,-159 205,-159 205,4 -4,4"/>
<!-- Node1 -->
<g id="node1" class="node"><title>Node1</title>
<polygon fill="#bfbfbf" stroke="black" points="33.5,-0.5 33.5,-19.5 137.5,-19.5 137.5,-0.5 33.5,-0.5"/>
<text text-anchor="middle" x="85.5" y="-7.5" font-family="Helvetica,sans-Serif" font-size="10.00">blfwk::FixedMatcher</text>
</g>
<!-- Node2 -->
<g id="node2" class="node"><title>Node2</title>
<g id="a_node2"><a xlink:href="classblfwk_1_1_string_matcher.html" target="_top" xlink:title="Abstract interface class used to select strings by name. ">
<polygon fill="white" stroke="black" points="0,-67.5 0,-86.5 105,-86.5 105,-67.5 0,-67.5"/>
<text text-anchor="middle" x="52.5" y="-74.5" font-family="Helvetica,sans-Serif" font-size="10.00">blfwk::StringMatcher</text>
</a>
</g>
</g>
<!-- Node2&#45;&gt;Node1 -->
<g id="edge1" class="edge"><title>Node2&#45;&gt;Node1</title>
<path fill="none" stroke="midnightblue" d="M61.5555,-58.1635C67.9196,-45.6281 76.1532,-29.4104 81.12,-19.6273"/>
<polygon fill="midnightblue" stroke="midnightblue" points="58.3567,-56.7327 56.9505,-67.2338 64.5983,-59.9016 58.3567,-56.7327"/>
</g>
<!-- Node3 -->
<g id="node3" class="node"><title>Node3</title>
<g id="a_node3"><a xlink:title="STL class. ">
<polygon fill="white" stroke="#bfbfbf" points="123.5,-67.5 123.5,-86.5 183.5,-86.5 183.5,-67.5 123.5,-67.5"/>
<text text-anchor="middle" x="153.5" y="-74.5" font-family="Helvetica,sans-Serif" font-size="10.00">std::string</text>
</a>
</g>
</g>
<!-- Node3&#45;&gt;Node1 -->
<g id="edge2" class="edge"><title>Node3&#45;&gt;Node1</title>
<path fill="none" stroke="#9a32cd" stroke-dasharray="5,2" d="M136.758,-59.9968C123.423,-47.2496 105.267,-29.8947 94.5255,-19.6273"/>
<polygon fill="#9a32cd" stroke="#9a32cd" points="134.682,-62.854 144.329,-67.2338 139.519,-57.7939 134.682,-62.854"/>
<text text-anchor="middle" x="143" y="-41" font-family="Helvetica,sans-Serif" font-size="10.00"> m_value</text>
</g>
<!-- Node4 -->
<g id="node4" class="node"><title>Node4</title>
<g id="a_node4"><a xlink:title="STL class. ">
<polygon fill="white" stroke="#bfbfbf" points="106,-124.5 106,-154.5 201,-154.5 201,-124.5 106,-124.5"/>
<text text-anchor="start" x="114" y="-142.5" font-family="Helvetica,sans-Serif" font-size="10.00">std::basic_string&lt;</text>
<text text-anchor="middle" x="153.5" y="-131.5" font-family="Helvetica,sans-Serif" font-size="10.00"> char &gt;</text>
</a>
</g>
</g>
<!-- Node4&#45;&gt;Node3 -->
<g id="edge3" class="edge"><title>Node4&#45;&gt;Node3</title>
<path fill="none" stroke="midnightblue" d="M153.5,-114.352C153.5,-104.513 153.5,-93.7753 153.5,-86.5399"/>
<polygon fill="midnightblue" stroke="midnightblue" points="150,-114.468 153.5,-124.468 157,-114.468 150,-114.468"/>
</g>
</g>
</svg>
