<?xml version="1.0" encoding="UTF-8" standalone="no"?>
<!DOCTYPE svg PUBLIC "-//W3C//DTD SVG 1.1//EN"
 "http://www.w3.org/Graphics/SVG/1.1/DTD/svg11.dtd">
<!-- Generated by graphviz version 2.38.0 (20140413.2041)
 -->
<!-- Title: elftosb::OutputSection Pages: 1 -->
<svg width="296pt" height="95pt"
 viewBox="0.00 0.00 295.50 95.00" xmlns="http://www.w3.org/2000/svg" xmlns:xlink="http://www.w3.org/1999/xlink">
<g id="graph0" class="graph" transform="scale(1 1) rotate(0) translate(4 91)">
<title>elftosb::OutputSection</title>
<polygon fill="white" stroke="none" points="-4,4 -4,-91 291.5,-91 291.5,4 -4,4"/>
<!-- Node1 -->
<g id="node1" class="node"><title>Node1</title>
<polygon fill="#bfbfbf" stroke="black" points="85.5,-67.5 85.5,-86.5 198.5,-86.5 198.5,-67.5 85.5,-67.5"/>
<text text-anchor="middle" x="142" y="-74.5" font-family="Helvetica,sans-Serif" font-size="10.00">elftosb::OutputSection</text>
</g>
<!-- Node2 -->
<g id="node2" class="node"><title>Node2</title>
<g id="a_node2"><a xlink:href="classelftosb_1_1_binary_data_section.html" target="_top" xlink:title="A section of the output file that contains arbitrary binary data. ">
<polygon fill="white" stroke="black" points="0,-6 0,-25 132,-25 132,-6 0,-6"/>
<text text-anchor="middle" x="66" y="-13" font-family="Helvetica,sans-Serif" font-size="10.00">elftosb::BinaryDataSection</text>
</a>
</g>
</g>
<!-- Node1&#45;&gt;Node2 -->
<g id="edge1" class="edge"><title>Node1&#45;&gt;Node2</title>
<path fill="none" stroke="midnightblue" d="M123.216,-61.2938C108.637,-49.8803 88.9375,-34.4577 76.8687,-25.0091"/>
<polygon fill="midnightblue" stroke="midnightblue" points="121.079,-64.0665 131.111,-67.4751 125.395,-58.5547 121.079,-64.0665"/>
</g>
<!-- Node3 -->
<g id="node3" class="node"><title>Node3</title>
<g id="a_node3"><a xlink:href="classelftosb_1_1_operation_sequence_section.html" target="_top" xlink:title="A section of the output that contains boot operations. ">
<polygon fill="white" stroke="black" points="150.5,-0.5 150.5,-30.5 287.5,-30.5 287.5,-0.5 150.5,-0.5"/>
<text text-anchor="start" x="158.5" y="-18.5" font-family="Helvetica,sans-Serif" font-size="10.00">elftosb::OperationSequence</text>
<text text-anchor="middle" x="219" y="-7.5" font-family="Helvetica,sans-Serif" font-size="10.00">Section</text>
</a>
</g>
</g>
<!-- Node1&#45;&gt;Node3 -->
<g id="edge2" class="edge"><title>Node1&#45;&gt;Node3</title>
<path fill="none" stroke="midnightblue" d="M161.159,-61.1955C173.301,-51.8129 188.91,-39.7512 200.853,-30.523"/>
<polygon fill="midnightblue" stroke="midnightblue" points="158.805,-58.5911 153.032,-67.4751 163.085,-64.1301 158.805,-58.5911"/>
</g>
</g>
</svg>
