<?xml version="1.0" encoding="UTF-8" standalone="no"?>
<!DOCTYPE svg PUBLIC "-//W3C//DTD SVG 1.1//EN"
 "http://www.w3.org/Graphics/SVG/1.1/DTD/svg11.dtd">
<!-- Generated by graphviz version 2.38.0 (20140413.2041)
 -->
<!-- Title: elftosb::LoadStatementASTNode Pages: 1 -->
<svg width="258pt" height="262pt"
 viewBox="0.00 0.00 258.00 262.00" xmlns="http://www.w3.org/2000/svg" xmlns:xlink="http://www.w3.org/1999/xlink">
<g id="graph0" class="graph" transform="scale(1 1) rotate(0) translate(4 258)">
<title>elftosb::LoadStatementASTNode</title>
<polygon fill="white" stroke="none" points="-4,4 -4,-258 254,-258 254,4 -4,4"/>
<!-- Node1 -->
<g id="node1" class="node"><title>Node1</title>
<polygon fill="#bfbfbf" stroke="black" points="68.5,-0.5 68.5,-19.5 226.5,-19.5 226.5,-0.5 68.5,-0.5"/>
<text text-anchor="middle" x="147.5" y="-7.5" font-family="Helvetica,sans-Serif" font-size="10.00">elftosb::LoadStatementASTNode</text>
</g>
<!-- Node2 -->
<g id="node2" class="node"><title>Node2</title>
<g id="a_node2"><a xlink:href="classelftosb_1_1_statement_a_s_t_node.html" target="_top" xlink:title="elftosb::StatementASTNode">
<polygon fill="white" stroke="black" points="0,-95 0,-114 137,-114 137,-95 0,-95"/>
<text text-anchor="middle" x="68.5" y="-102" font-family="Helvetica,sans-Serif" font-size="10.00">elftosb::StatementASTNode</text>
</a>
</g>
</g>
<!-- Node2&#45;&gt;Node1 -->
<g id="edge1" class="edge"><title>Node2&#45;&gt;Node1</title>
<path fill="none" stroke="midnightblue" d="M82.4901,-87.1192C99.3757,-67.348 127.13,-34.8505 140.227,-19.5157"/>
<polygon fill="midnightblue" stroke="midnightblue" points="79.6235,-85.0864 75.7905,-94.9636 84.9464,-89.6325 79.6235,-85.0864"/>
</g>
<!-- Node3 -->
<g id="node3" class="node"><title>Node3</title>
<g id="a_node3"><a xlink:href="classelftosb_1_1_a_s_t_node.html" target="_top" xlink:title="The base class for all AST node classes. ">
<polygon fill="white" stroke="black" points="63.5,-167.5 63.5,-186.5 155.5,-186.5 155.5,-167.5 63.5,-167.5"/>
<text text-anchor="middle" x="109.5" y="-174.5" font-family="Helvetica,sans-Serif" font-size="10.00">elftosb::ASTNode</text>
</a>
</g>
</g>
<!-- Node3&#45;&gt;Node2 -->
<g id="edge2" class="edge"><title>Node3&#45;&gt;Node2</title>
<path fill="none" stroke="midnightblue" d="M99.375,-158.59C91.1805,-144.499 79.9826,-125.244 73.5685,-114.215"/>
<polygon fill="midnightblue" stroke="midnightblue" points="96.4197,-160.47 104.473,-167.355 102.471,-156.951 96.4197,-160.47"/>
</g>
<!-- Node3&#45;&gt;Node3 -->
<g id="edge4" class="edge"><title>Node3&#45;&gt;Node3</title>
<path fill="none" stroke="#9a32cd" stroke-dasharray="5,2" d="M165.774,-181.66C170.534,-180.663 173.5,-179.109 173.5,-177 173.5,-173.625 165.906,-171.674 155.524,-171.146"/>
<polygon fill="#9a32cd" stroke="#9a32cd" points="165.052,-178.22 155.524,-182.854 165.862,-185.173 165.052,-178.22"/>
<text text-anchor="middle" x="195.5" y="-174.5" font-family="Helvetica,sans-Serif" font-size="10.00"> m_parent</text>
</g>
<!-- Node5 -->
<g id="node5" class="node"><title>Node5</title>
<g id="a_node5"><a xlink:href="group__smart__pointer.html" target="_top" xlink:title="smart_ptr\&lt; elftosb\l::ASTNode \&gt;">
<polygon fill="white" stroke="black" points="155,-89.5 155,-119.5 250,-119.5 250,-89.5 155,-89.5"/>
<text text-anchor="start" x="163" y="-107.5" font-family="Helvetica,sans-Serif" font-size="10.00">smart_ptr&lt; elftosb</text>
<text text-anchor="middle" x="202.5" y="-96.5" font-family="Helvetica,sans-Serif" font-size="10.00">::ASTNode &gt;</text>
</a>
</g>
</g>
<!-- Node3&#45;&gt;Node5 -->
<g id="edge6" class="edge"><title>Node3&#45;&gt;Node5</title>
<path fill="none" stroke="#9a32cd" stroke-dasharray="5,2" d="M129.121,-161.126C145.289,-148.87 168.059,-131.608 183.931,-119.576"/>
<polygon fill="#9a32cd" stroke="#9a32cd" points="126.758,-158.525 120.904,-167.355 130.987,-164.103 126.758,-158.525"/>
<text text-anchor="middle" x="165.5" y="-141" font-family="Helvetica,sans-Serif" font-size="10.00"> _p</text>
</g>
<!-- Node4 -->
<g id="node4" class="node"><title>Node4</title>
<g id="a_node4"><a xlink:href="structelftosb_1_1token__loc__t.html" target="_top" xlink:title="Token location in the source file. ">
<polygon fill="white" stroke="black" points="59,-234.5 59,-253.5 160,-253.5 160,-234.5 59,-234.5"/>
<text text-anchor="middle" x="109.5" y="-241.5" font-family="Helvetica,sans-Serif" font-size="10.00">elftosb::token_loc_t</text>
</a>
</g>
</g>
<!-- Node4&#45;&gt;Node3 -->
<g id="edge3" class="edge"><title>Node4&#45;&gt;Node3</title>
<path fill="none" stroke="#9a32cd" stroke-dasharray="5,2" d="M109.5,-224.037C109.5,-211.67 109.5,-196.12 109.5,-186.627"/>
<polygon fill="#9a32cd" stroke="#9a32cd" points="106,-224.234 109.5,-234.234 113,-224.234 106,-224.234"/>
<text text-anchor="middle" x="135" y="-208" font-family="Helvetica,sans-Serif" font-size="10.00"> m_location</text>
</g>
<!-- Node5&#45;&gt;Node1 -->
<g id="edge5" class="edge"><title>Node5&#45;&gt;Node1</title>
<path fill="none" stroke="#9a32cd" stroke-dasharray="5,2" d="M188.964,-80.7345C177.215,-60.9751 160.838,-33.4313 152.625,-19.6191"/>
<polygon fill="#9a32cd" stroke="#9a32cd" points="186.028,-82.6446 194.147,-89.4512 192.044,-79.0671 186.028,-82.6446"/>
<text text-anchor="middle" x="213" y="-63" font-family="Helvetica,sans-Serif" font-size="10.00"> m_target</text>
<text text-anchor="middle" x="213" y="-52" font-family="Helvetica,sans-Serif" font-size="10.00">m_data</text>
<text text-anchor="middle" x="213" y="-41" font-family="Helvetica,sans-Serif" font-size="10.00">m_loadOption</text>
</g>
</g>
</svg>
