<?xml version="1.0" encoding="UTF-8" standalone="no"?>
<!DOCTYPE svg PUBLIC "-//W3C//DTD SVG 1.1//EN"
 "http://www.w3.org/Graphics/SVG/1.1/DTD/svg11.dtd">
<!-- Generated by graphviz version 2.38.0 (20140413.2041)
 -->
<!-- Title: blfwk::ConfigureCan Pages: 1 -->
<svg width="497pt" height="287pt"
 viewBox="0.00 0.00 496.50 287.00" xmlns="http://www.w3.org/2000/svg" xmlns:xlink="http://www.w3.org/1999/xlink">
<g id="graph0" class="graph" transform="scale(1 1) rotate(0) translate(4 283)">
<title>blfwk::ConfigureCan</title>
<polygon fill="white" stroke="none" points="-4,4 -4,-283 492.5,-283 492.5,4 -4,4"/>
<!-- Node1 -->
<g id="node1" class="node"><title>Node1</title>
<polygon fill="#bfbfbf" stroke="black" points="158,-0.5 158,-19.5 260,-19.5 260,-0.5 158,-0.5"/>
<text text-anchor="middle" x="209" y="-7.5" font-family="Helvetica,sans-Serif" font-size="10.00">blfwk::ConfigureCan</text>
</g>
<!-- Node2 -->
<g id="node2" class="node"><title>Node2</title>
<g id="a_node2"><a xlink:href="classblfwk_1_1_command.html" target="_top" xlink:title="Represents a bootloader command. ">
<polygon fill="white" stroke="black" points="164.5,-57.5 164.5,-76.5 253.5,-76.5 253.5,-57.5 164.5,-57.5"/>
<text text-anchor="middle" x="209" y="-64.5" font-family="Helvetica,sans-Serif" font-size="10.00">blfwk::Command</text>
</a>
</g>
</g>
<!-- Node2&#45;&gt;Node1 -->
<g id="edge1" class="edge"><title>Node2&#45;&gt;Node1</title>
<path fill="none" stroke="midnightblue" d="M209,-47.1166C209,-37.8173 209,-27.0557 209,-19.7149"/>
<polygon fill="midnightblue" stroke="midnightblue" points="205.5,-47.4062 209,-57.4063 212.5,-47.4063 205.5,-47.4062"/>
</g>
<!-- Node3 -->
<g id="node3" class="node"><title>Node3</title>
<polygon fill="white" stroke="#bfbfbf" points="0,-124.5 0,-143.5 114,-143.5 114,-124.5 0,-124.5"/>
<text text-anchor="middle" x="57" y="-131.5" font-family="Helvetica,sans-Serif" font-size="10.00">std::vector&lt; uint32_t &gt;</text>
</g>
<!-- Node3&#45;&gt;Node2 -->
<g id="edge2" class="edge"><title>Node3&#45;&gt;Node2</title>
<path fill="none" stroke="#9a32cd" stroke-dasharray="5,2" d="M52.9184,-114.419C52.5028,-107.592 53.4827,-100.255 58,-95 71.5848,-79.1978 124.992,-72.6258 164.456,-69.9042"/>
<polygon fill="#9a32cd" stroke="#9a32cd" points="49.4643,-114.986 54.4124,-124.355 56.3865,-113.945 49.4643,-114.986"/>
<text text-anchor="middle" x="101.5" y="-98" font-family="Helvetica,sans-Serif" font-size="10.00"> m_responseValues</text>
</g>
<!-- Node4 -->
<g id="node4" class="node"><title>Node4</title>
<g id="a_node4"><a xlink:title="STL class. ">
<polygon fill="white" stroke="#bfbfbf" points="179,-191.5 179,-210.5 239,-210.5 239,-191.5 179,-191.5"/>
<text text-anchor="middle" x="209" y="-198.5" font-family="Helvetica,sans-Serif" font-size="10.00">std::string</text>
</a>
</g>
</g>
<!-- Node4&#45;&gt;Node2 -->
<g id="edge3" class="edge"><title>Node4&#45;&gt;Node2</title>
<path fill="none" stroke="#9a32cd" stroke-dasharray="5,2" d="M192.726,-183.712C183.524,-173.312 172.905,-159.001 168,-144 159.521,-118.065 183.821,-90.5938 198.578,-76.8787"/>
<polygon fill="#9a32cd" stroke="#9a32cd" points="190.285,-186.226 199.665,-191.152 195.404,-181.452 190.285,-186.226"/>
<text text-anchor="middle" x="211.5" y="-131.5" font-family="Helvetica,sans-Serif" font-size="10.00"> m_responseDetails</text>
</g>
<!-- Node7 -->
<g id="node7" class="node"><title>Node7</title>
<polygon fill="white" stroke="#bfbfbf" points="264.5,-124.5 264.5,-143.5 387.5,-143.5 387.5,-124.5 264.5,-124.5"/>
<text text-anchor="middle" x="326" y="-131.5" font-family="Helvetica,sans-Serif" font-size="10.00">std::vector&lt; std::string &gt;</text>
</g>
<!-- Node4&#45;&gt;Node7 -->
<g id="edge7" class="edge"><title>Node4&#45;&gt;Node7</title>
<path fill="none" stroke="#9a32cd" stroke-dasharray="5,2" d="M233.683,-186.287C256.872,-173.405 290.856,-154.524 310.471,-143.627"/>
<polygon fill="#9a32cd" stroke="#9a32cd" points="231.821,-183.318 224.779,-191.234 235.22,-189.437 231.821,-183.318"/>
<text text-anchor="middle" x="296.5" y="-165" font-family="Helvetica,sans-Serif" font-size="10.00"> elements</text>
</g>
<!-- Node5 -->
<g id="node5" class="node"><title>Node5</title>
<g id="a_node5"><a xlink:title="STL class. ">
<polygon fill="white" stroke="#bfbfbf" points="161.5,-248.5 161.5,-278.5 256.5,-278.5 256.5,-248.5 161.5,-248.5"/>
<text text-anchor="start" x="169.5" y="-266.5" font-family="Helvetica,sans-Serif" font-size="10.00">std::basic_string&lt;</text>
<text text-anchor="middle" x="209" y="-255.5" font-family="Helvetica,sans-Serif" font-size="10.00"> char &gt;</text>
</a>
</g>
</g>
<!-- Node5&#45;&gt;Node4 -->
<g id="edge4" class="edge"><title>Node5&#45;&gt;Node4</title>
<path fill="none" stroke="midnightblue" d="M209,-238.352C209,-228.513 209,-217.775 209,-210.54"/>
<polygon fill="midnightblue" stroke="midnightblue" points="205.5,-238.468 209,-248.468 212.5,-238.468 205.5,-238.468"/>
</g>
<!-- Node6 -->
<g id="node6" class="node"><title>Node6</title>
<g id="a_node6"><a xlink:href="classblfwk_1_1_progress.html" target="_top" xlink:title="Contains the callback function for progress and abort phase. ">
<polygon fill="white" stroke="black" points="405.5,-124.5 405.5,-143.5 488.5,-143.5 488.5,-124.5 405.5,-124.5"/>
<text text-anchor="middle" x="447" y="-131.5" font-family="Helvetica,sans-Serif" font-size="10.00">blfwk::Progress</text>
</a>
</g>
</g>
<!-- Node6&#45;&gt;Node2 -->
<g id="edge5" class="edge"><title>Node6&#45;&gt;Node2</title>
<path fill="none" stroke="#9a32cd" stroke-dasharray="5,2" d="M407.778,-121.628C381.098,-113.954 344.97,-103.682 313,-95 289.597,-88.6447 263.144,-81.7814 242.773,-76.5649"/>
<polygon fill="#9a32cd" stroke="#9a32cd" points="406.934,-125.027 417.513,-124.434 408.873,-118.301 406.934,-125.027"/>
<text text-anchor="middle" x="377.5" y="-98" font-family="Helvetica,sans-Serif" font-size="10.00"> m_progress</text>
</g>
<!-- Node7&#45;&gt;Node2 -->
<g id="edge6" class="edge"><title>Node7&#45;&gt;Node2</title>
<path fill="none" stroke="#9a32cd" stroke-dasharray="5,2" d="M301.317,-119.287C278.128,-106.405 244.144,-87.5243 224.529,-76.6273"/>
<polygon fill="#9a32cd" stroke="#9a32cd" points="299.78,-122.437 310.221,-124.234 303.179,-116.318 299.78,-122.437"/>
<text text-anchor="middle" x="292" y="-98" font-family="Helvetica,sans-Serif" font-size="10.00"> m_argv</text>
</g>
</g>
</svg>
