<?xml version="1.0" encoding="UTF-8" standalone="no"?>
<!DOCTYPE svg PUBLIC "-//W3C//DTD SVG 1.1//EN"
 "http://www.w3.org/Graphics/SVG/1.1/DTD/svg11.dtd">
<!-- Generated by graphviz version 2.38.0 (20140413.2041)
 -->
<!-- Title: elftosb::CommandFileASTNode Pages: 1 -->
<svg width="239pt" height="418pt"
 viewBox="0.00 0.00 238.50 418.00" xmlns="http://www.w3.org/2000/svg" xmlns:xlink="http://www.w3.org/1999/xlink">
<g id="graph0" class="graph" transform="scale(1 1) rotate(0) translate(4 414)">
<title>elftosb::CommandFileASTNode</title>
<polygon fill="white" stroke="none" points="-4,4 -4,-414 234.5,-414 234.5,4 -4,4"/>
<!-- Node1 -->
<g id="node1" class="node"><title>Node1</title>
<polygon fill="#bfbfbf" stroke="black" points="0,-0.5 0,-19.5 152,-19.5 152,-0.5 0,-0.5"/>
<text text-anchor="middle" x="76" y="-7.5" font-family="Helvetica,sans-Serif" font-size="10.00">elftosb::CommandFileASTNode</text>
</g>
<!-- Node2 -->
<g id="node2" class="node"><title>Node2</title>
<g id="a_node2"><a xlink:href="classelftosb_1_1_a_s_t_node.html" target="_top" xlink:title="The base class for all AST node classes. ">
<polygon fill="white" stroke="black" points="41,-323.5 41,-342.5 133,-342.5 133,-323.5 41,-323.5"/>
<text text-anchor="middle" x="87" y="-330.5" font-family="Helvetica,sans-Serif" font-size="10.00">elftosb::ASTNode</text>
</a>
</g>
</g>
<!-- Node2&#45;&gt;Node1 -->
<g id="edge1" class="edge"><title>Node2&#45;&gt;Node1</title>
<path fill="none" stroke="midnightblue" d="M70.9672,-315.69C60.5891,-303.372 49,-285.48 49,-267 49,-267 49,-267 49,-125.5 49,-85.0611 65.1516,-38.6816 72.4702,-19.7416"/>
<polygon fill="midnightblue" stroke="midnightblue" points="68.5042,-318.185 77.8013,-323.266 73.7019,-313.496 68.5042,-318.185"/>
</g>
<!-- Node2&#45;&gt;Node2 -->
<g id="edge3" class="edge"><title>Node2&#45;&gt;Node2</title>
<path fill="none" stroke="#9a32cd" stroke-dasharray="5,2" d="M143.274,-337.66C148.034,-336.663 151,-335.109 151,-333 151,-329.625 143.406,-327.674 133.024,-327.146"/>
<polygon fill="#9a32cd" stroke="#9a32cd" points="142.552,-334.22 133.024,-338.854 143.362,-341.173 142.552,-334.22"/>
<text text-anchor="middle" x="173" y="-330.5" font-family="Helvetica,sans-Serif" font-size="10.00"> m_parent</text>
</g>
<!-- Node5 -->
<g id="node5" class="node"><title>Node5</title>
<g id="a_node5"><a xlink:href="classelftosb_1_1_list_a_s_t_node.html" target="_top" xlink:title="AST node that contains other AST nodes. ">
<polygon fill="white" stroke="black" points="77,-189.5 77,-208.5 185,-208.5 185,-189.5 77,-189.5"/>
<text text-anchor="middle" x="131" y="-196.5" font-family="Helvetica,sans-Serif" font-size="10.00">elftosb::ListASTNode</text>
</a>
</g>
</g>
<!-- Node2&#45;&gt;Node5 -->
<g id="edge6" class="edge"><title>Node2&#45;&gt;Node5</title>
<path fill="none" stroke="midnightblue" d="M90.6724,-313.517C93.9871,-297.962 99.357,-275.242 106,-256 111.976,-238.69 121.207,-219.361 126.622,-208.54"/>
<polygon fill="midnightblue" stroke="midnightblue" points="87.2212,-312.924 88.6332,-323.424 94.0774,-314.335 87.2212,-312.924"/>
</g>
<!-- Node6 -->
<g id="node6" class="node"><title>Node6</title>
<polygon fill="white" stroke="#bfbfbf" points="115.5,-256.5 115.5,-275.5 230.5,-275.5 230.5,-256.5 115.5,-256.5"/>
<text text-anchor="middle" x="173" y="-263.5" font-family="Helvetica,sans-Serif" font-size="10.00">std::list&lt; ASTNode * &gt;</text>
</g>
<!-- Node2&#45;&gt;Node6 -->
<g id="edge8" class="edge"><title>Node2&#45;&gt;Node6</title>
<path fill="none" stroke="#9a32cd" stroke-dasharray="5,2" d="M106.756,-317.068C123.732,-304.238 147.616,-286.185 161.585,-275.627"/>
<polygon fill="#9a32cd" stroke="#9a32cd" points="104.466,-314.412 98.5983,-323.234 108.686,-319.996 104.466,-314.412"/>
<text text-anchor="middle" x="157.5" y="-297" font-family="Helvetica,sans-Serif" font-size="10.00"> elements</text>
</g>
<!-- Node3 -->
<g id="node3" class="node"><title>Node3</title>
<g id="a_node3"><a xlink:href="structelftosb_1_1token__loc__t.html" target="_top" xlink:title="Token location in the source file. ">
<polygon fill="white" stroke="black" points="36.5,-390.5 36.5,-409.5 137.5,-409.5 137.5,-390.5 36.5,-390.5"/>
<text text-anchor="middle" x="87" y="-397.5" font-family="Helvetica,sans-Serif" font-size="10.00">elftosb::token_loc_t</text>
</a>
</g>
</g>
<!-- Node3&#45;&gt;Node2 -->
<g id="edge2" class="edge"><title>Node3&#45;&gt;Node2</title>
<path fill="none" stroke="#9a32cd" stroke-dasharray="5,2" d="M87,-380.037C87,-367.67 87,-352.12 87,-342.627"/>
<polygon fill="#9a32cd" stroke="#9a32cd" points="83.5001,-380.234 87,-390.234 90.5001,-380.234 83.5001,-380.234"/>
<text text-anchor="middle" x="112.5" y="-364" font-family="Helvetica,sans-Serif" font-size="10.00"> m_location</text>
</g>
<!-- Node4 -->
<g id="node4" class="node"><title>Node4</title>
<g id="a_node4"><a xlink:href="group__smart__pointer.html" target="_top" xlink:title="smart_ptr\&lt; elftosb\l::ListASTNode \&gt;">
<polygon fill="white" stroke="black" points="78.5,-111.5 78.5,-141.5 173.5,-141.5 173.5,-111.5 78.5,-111.5"/>
<text text-anchor="start" x="86.5" y="-129.5" font-family="Helvetica,sans-Serif" font-size="10.00">smart_ptr&lt; elftosb</text>
<text text-anchor="middle" x="126" y="-118.5" font-family="Helvetica,sans-Serif" font-size="10.00">::ListASTNode &gt;</text>
</a>
</g>
</g>
<!-- Node4&#45;&gt;Node1 -->
<g id="edge4" class="edge"><title>Node4&#45;&gt;Node1</title>
<path fill="none" stroke="#9a32cd" stroke-dasharray="5,2" d="M115.785,-102.107C104.62,-76.5409 87.3166,-36.9151 79.753,-19.5944"/>
<polygon fill="#9a32cd" stroke="#9a32cd" points="112.66,-103.696 119.869,-111.46 119.075,-100.895 112.66,-103.696"/>
<text text-anchor="middle" x="142" y="-85" font-family="Helvetica,sans-Serif" font-size="10.00"> m_constants</text>
<text text-anchor="middle" x="142" y="-74" font-family="Helvetica,sans-Serif" font-size="10.00">m_sources</text>
<text text-anchor="middle" x="142" y="-63" font-family="Helvetica,sans-Serif" font-size="10.00">m_options</text>
<text text-anchor="middle" x="142" y="-52" font-family="Helvetica,sans-Serif" font-size="10.00">m_blocks</text>
<text text-anchor="middle" x="142" y="-41" font-family="Helvetica,sans-Serif" font-size="10.00">m_sections</text>
</g>
<!-- Node5&#45;&gt;Node4 -->
<g id="edge5" class="edge"><title>Node5&#45;&gt;Node4</title>
<path fill="none" stroke="#9a32cd" stroke-dasharray="5,2" d="M129.669,-179.236C128.83,-167.408 127.765,-152.383 126.998,-141.576"/>
<polygon fill="#9a32cd" stroke="#9a32cd" points="126.188,-179.628 130.387,-189.355 133.171,-179.133 126.188,-179.628"/>
<text text-anchor="middle" x="136" y="-163" font-family="Helvetica,sans-Serif" font-size="10.00"> _p</text>
</g>
<!-- Node6&#45;&gt;Node5 -->
<g id="edge7" class="edge"><title>Node6&#45;&gt;Node5</title>
<path fill="none" stroke="#9a32cd" stroke-dasharray="5,2" d="M161.715,-247.535C153.583,-234.95 142.959,-218.507 136.575,-208.627"/>
<polygon fill="#9a32cd" stroke="#9a32cd" points="158.969,-249.734 167.336,-256.234 164.848,-245.935 158.969,-249.734"/>
<text text-anchor="middle" x="169" y="-230" font-family="Helvetica,sans-Serif" font-size="10.00"> m_list</text>
</g>
</g>
</svg>
