<?xml version="1.0" encoding="UTF-8" standalone="no"?>
<!DOCTYPE svg PUBLIC "-//W3C//DTD SVG 1.1//EN"
 "http://www.w3.org/Graphics/SVG/1.1/DTD/svg11.dtd">
<!-- Generated by graphviz version 2.38.0 (20140413.2041)
 -->
<!-- Title: elftosb::BlobConstASTNode Pages: 1 -->
<svg width="249pt" height="229pt"
 viewBox="0.00 0.00 248.50 229.00" xmlns="http://www.w3.org/2000/svg" xmlns:xlink="http://www.w3.org/1999/xlink">
<g id="graph0" class="graph" transform="scale(1 1) rotate(0) translate(4 225)">
<title>elftosb::BlobConstASTNode</title>
<polygon fill="white" stroke="none" points="-4,4 -4,-225 244.5,-225 244.5,4 -4,4"/>
<!-- Node1 -->
<g id="node1" class="node"><title>Node1</title>
<polygon fill="#bfbfbf" stroke="black" points="69.5,-0.5 69.5,-19.5 206.5,-19.5 206.5,-0.5 69.5,-0.5"/>
<text text-anchor="middle" x="138" y="-7.5" font-family="Helvetica,sans-Serif" font-size="10.00">elftosb::BlobConstASTNode</text>
</g>
<!-- Node2 -->
<g id="node2" class="node"><title>Node2</title>
<g id="a_node2"><a xlink:href="classelftosb_1_1_const_a_s_t_node.html" target="_top" xlink:title="elftosb::ConstASTNode">
<polygon fill="white" stroke="black" points="0,-67.5 0,-86.5 118,-86.5 118,-67.5 0,-67.5"/>
<text text-anchor="middle" x="59" y="-74.5" font-family="Helvetica,sans-Serif" font-size="10.00">elftosb::ConstASTNode</text>
</a>
</g>
</g>
<!-- Node2&#45;&gt;Node1 -->
<g id="edge1" class="edge"><title>Node2&#45;&gt;Node1</title>
<path fill="none" stroke="midnightblue" d="M77.5791,-60.7134C93.1438,-47.907 114.8,-30.0884 127.515,-19.6273"/>
<polygon fill="midnightblue" stroke="midnightblue" points="75.1526,-58.1774 69.6543,-67.2338 79.6002,-63.5829 75.1526,-58.1774"/>
</g>
<!-- Node3 -->
<g id="node3" class="node"><title>Node3</title>
<g id="a_node3"><a xlink:href="classelftosb_1_1_a_s_t_node.html" target="_top" xlink:title="The base class for all AST node classes. ">
<polygon fill="white" stroke="black" points="5,-134.5 5,-153.5 97,-153.5 97,-134.5 5,-134.5"/>
<text text-anchor="middle" x="51" y="-141.5" font-family="Helvetica,sans-Serif" font-size="10.00">elftosb::ASTNode</text>
</a>
</g>
</g>
<!-- Node3&#45;&gt;Node2 -->
<g id="edge2" class="edge"><title>Node3&#45;&gt;Node2</title>
<path fill="none" stroke="midnightblue" d="M53.3339,-124.037C54.856,-111.67 56.7699,-96.1198 57.9382,-86.6273"/>
<polygon fill="midnightblue" stroke="midnightblue" points="49.8268,-123.881 52.0789,-134.234 56.7743,-124.736 49.8268,-123.881"/>
</g>
<!-- Node3&#45;&gt;Node3 -->
<g id="edge4" class="edge"><title>Node3&#45;&gt;Node3</title>
<path fill="none" stroke="#9a32cd" stroke-dasharray="5,2" d="M107.274,-148.66C112.034,-147.663 115,-146.109 115,-144 115,-140.625 107.406,-138.674 97.0242,-138.146"/>
<polygon fill="#9a32cd" stroke="#9a32cd" points="106.552,-145.22 97.0242,-149.854 107.362,-152.173 106.552,-145.22"/>
<text text-anchor="middle" x="137" y="-141.5" font-family="Helvetica,sans-Serif" font-size="10.00"> m_parent</text>
</g>
<!-- Node4 -->
<g id="node4" class="node"><title>Node4</title>
<g id="a_node4"><a xlink:href="structelftosb_1_1token__loc__t.html" target="_top" xlink:title="Token location in the source file. ">
<polygon fill="white" stroke="black" points="0.5,-201.5 0.5,-220.5 101.5,-220.5 101.5,-201.5 0.5,-201.5"/>
<text text-anchor="middle" x="51" y="-208.5" font-family="Helvetica,sans-Serif" font-size="10.00">elftosb::token_loc_t</text>
</a>
</g>
</g>
<!-- Node4&#45;&gt;Node3 -->
<g id="edge3" class="edge"><title>Node4&#45;&gt;Node3</title>
<path fill="none" stroke="#9a32cd" stroke-dasharray="5,2" d="M51,-191.037C51,-178.67 51,-163.12 51,-153.627"/>
<polygon fill="#9a32cd" stroke="#9a32cd" points="47.5001,-191.234 51,-201.234 54.5001,-191.234 47.5001,-191.234"/>
<text text-anchor="middle" x="76.5" y="-175" font-family="Helvetica,sans-Serif" font-size="10.00"> m_location</text>
</g>
<!-- Node5 -->
<g id="node5" class="node"><title>Node5</title>
<g id="a_node5"><a xlink:href="group__smart__pointer.html" target="_top" xlink:title="smart_ptr\&lt; Blob \&gt;">
<polygon fill="white" stroke="black" points="145.5,-67.5 145.5,-86.5 240.5,-86.5 240.5,-67.5 145.5,-67.5"/>
<text text-anchor="middle" x="193" y="-74.5" font-family="Helvetica,sans-Serif" font-size="10.00">smart_ptr&lt; Blob &gt;</text>
</a>
</g>
</g>
<!-- Node5&#45;&gt;Node1 -->
<g id="edge5" class="edge"><title>Node5&#45;&gt;Node1</title>
<path fill="none" stroke="#9a32cd" stroke-dasharray="5,2" d="M178.844,-59.2705C168.121,-46.5972 153.824,-29.701 145.3,-19.6273"/>
<polygon fill="#9a32cd" stroke="#9a32cd" points="176.451,-61.8607 185.582,-67.2338 181.795,-57.3391 176.451,-61.8607"/>
<text text-anchor="middle" x="186.5" y="-41" font-family="Helvetica,sans-Serif" font-size="10.00"> m_blob</text>
</g>
<!-- Node6 -->
<g id="node6" class="node"><title>Node6</title>
<g id="a_node6"><a xlink:href="class_blob.html" target="_top" xlink:title="Manages a binary object of arbitrary length. ">
<polygon fill="white" stroke="black" points="177,-134.5 177,-153.5 213,-153.5 213,-134.5 177,-134.5"/>
<text text-anchor="middle" x="195" y="-141.5" font-family="Helvetica,sans-Serif" font-size="10.00">Blob</text>
</a>
</g>
</g>
<!-- Node6&#45;&gt;Node5 -->
<g id="edge6" class="edge"><title>Node6&#45;&gt;Node5</title>
<path fill="none" stroke="#9a32cd" stroke-dasharray="5,2" d="M194.417,-124.037C194.036,-111.67 193.558,-96.1198 193.265,-86.6273"/>
<polygon fill="#9a32cd" stroke="#9a32cd" points="190.924,-124.346 194.73,-134.234 197.921,-124.131 190.924,-124.346"/>
<text text-anchor="middle" x="201" y="-108" font-family="Helvetica,sans-Serif" font-size="10.00"> _p</text>
</g>
</g>
</svg>
