<?xml version="1.0" encoding="UTF-8" standalone="no"?>
<!DOCTYPE svg PUBLIC "-//W3C//DTD SVG 1.1//EN"
 "http://www.w3.org/Graphics/SVG/1.1/DTD/svg11.dtd">
<!-- Generated by graphviz version 2.38.0 (20140413.2041)
 -->
<!-- Title: blfwk::ReceiveSbFile Pages: 1 -->
<svg width="526pt" height="287pt"
 viewBox="0.00 0.00 526.00 287.00" xmlns="http://www.w3.org/2000/svg" xmlns:xlink="http://www.w3.org/1999/xlink">
<g id="graph0" class="graph" transform="scale(1 1) rotate(0) translate(4 283)">
<title>blfwk::ReceiveSbFile</title>
<polygon fill="white" stroke="none" points="-4,4 -4,-283 522,-283 522,4 -4,4"/>
<!-- Node1 -->
<g id="node1" class="node"><title>Node1</title>
<polygon fill="#bfbfbf" stroke="black" points="0,-0.5 0,-19.5 106,-19.5 106,-0.5 0,-0.5"/>
<text text-anchor="middle" x="53" y="-7.5" font-family="Helvetica,sans-Serif" font-size="10.00">blfwk::ReceiveSbFile</text>
</g>
<!-- Node2 -->
<g id="node2" class="node"><title>Node2</title>
<g id="a_node2"><a xlink:href="classblfwk_1_1_command.html" target="_top" xlink:title="Represents a bootloader command. ">
<polygon fill="white" stroke="black" points="178.5,-57.5 178.5,-76.5 267.5,-76.5 267.5,-57.5 178.5,-57.5"/>
<text text-anchor="middle" x="223" y="-64.5" font-family="Helvetica,sans-Serif" font-size="10.00">blfwk::Command</text>
</a>
</g>
</g>
<!-- Node2&#45;&gt;Node1 -->
<g id="edge1" class="edge"><title>Node2&#45;&gt;Node1</title>
<path fill="none" stroke="midnightblue" d="M186.51,-54.1945C154.3,-43.7736 108.119,-28.8327 79.376,-19.5334"/>
<polygon fill="midnightblue" stroke="midnightblue" points="185.846,-57.658 196.438,-57.4063 188,-50.9979 185.846,-57.658"/>
</g>
<!-- Node3 -->
<g id="node3" class="node"><title>Node3</title>
<polygon fill="white" stroke="#bfbfbf" points="404,-124.5 404,-143.5 518,-143.5 518,-124.5 404,-124.5"/>
<text text-anchor="middle" x="461" y="-131.5" font-family="Helvetica,sans-Serif" font-size="10.00">std::vector&lt; uint32_t &gt;</text>
</g>
<!-- Node3&#45;&gt;Node2 -->
<g id="edge2" class="edge"><title>Node3&#45;&gt;Node2</title>
<path fill="none" stroke="#9a32cd" stroke-dasharray="5,2" d="M429.203,-120.974C407.181,-112.928 377.07,-102.482 350,-95 322.95,-87.5237 292.173,-80.9334 267.692,-76.1355"/>
<polygon fill="#9a32cd" stroke="#9a32cd" points="428.12,-124.305 438.713,-124.483 430.543,-117.738 428.12,-124.305"/>
<text text-anchor="middle" x="427.5" y="-98" font-family="Helvetica,sans-Serif" font-size="10.00"> m_responseValues</text>
</g>
<!-- Node4 -->
<g id="node4" class="node"><title>Node4</title>
<g id="a_node4"><a xlink:title="STL class. ">
<polygon fill="white" stroke="#bfbfbf" points="26,-191.5 26,-210.5 86,-210.5 86,-191.5 26,-191.5"/>
<text text-anchor="middle" x="56" y="-198.5" font-family="Helvetica,sans-Serif" font-size="10.00">std::string</text>
</a>
</g>
</g>
<!-- Node4&#45;&gt;Node1 -->
<g id="edge8" class="edge"><title>Node4&#45;&gt;Node1</title>
<path fill="none" stroke="#9a32cd" stroke-dasharray="5,2" d="M47.0119,-182.288C37.5619,-161.611 24.6227,-126.254 29,-95 32.9549,-66.7618 44.0444,-34.6967 49.6567,-19.6545"/>
<polygon fill="#9a32cd" stroke="#9a32cd" points="43.9152,-183.925 51.4025,-191.421 50.224,-180.892 43.9152,-183.925"/>
<text text-anchor="middle" x="55" y="-98" font-family="Helvetica,sans-Serif" font-size="10.00"> m_dataFile</text>
</g>
<!-- Node4&#45;&gt;Node2 -->
<g id="edge3" class="edge"><title>Node4&#45;&gt;Node2</title>
<path fill="none" stroke="#9a32cd" stroke-dasharray="5,2" d="M53.0766,-181.155C51.5633,-164.36 52.1982,-140.026 65,-124 92.2459,-89.8926 141.808,-76.5288 178.18,-71.3094"/>
<polygon fill="#9a32cd" stroke="#9a32cd" points="49.6408,-181.89 54.3444,-191.383 56.5876,-181.029 49.6408,-181.89"/>
<text text-anchor="middle" x="108.5" y="-131.5" font-family="Helvetica,sans-Serif" font-size="10.00"> m_responseDetails</text>
</g>
<!-- Node7 -->
<g id="node7" class="node"><title>Node7</title>
<polygon fill="white" stroke="#bfbfbf" points="161.5,-124.5 161.5,-143.5 284.5,-143.5 284.5,-124.5 161.5,-124.5"/>
<text text-anchor="middle" x="223" y="-131.5" font-family="Helvetica,sans-Serif" font-size="10.00">std::vector&lt; std::string &gt;</text>
</g>
<!-- Node4&#45;&gt;Node7 -->
<g id="edge7" class="edge"><title>Node4&#45;&gt;Node7</title>
<path fill="none" stroke="#9a32cd" stroke-dasharray="5,2" d="M87.8478,-187.604C121.006,-174.698 172.059,-154.827 200.998,-143.564"/>
<polygon fill="#9a32cd" stroke="#9a32cd" points="86.2258,-184.48 78.1763,-191.369 88.7648,-191.003 86.2258,-184.48"/>
<text text-anchor="middle" x="171.5" y="-165" font-family="Helvetica,sans-Serif" font-size="10.00"> elements</text>
</g>
<!-- Node5 -->
<g id="node5" class="node"><title>Node5</title>
<g id="a_node5"><a xlink:title="STL class. ">
<polygon fill="white" stroke="#bfbfbf" points="8.5,-248.5 8.5,-278.5 103.5,-278.5 103.5,-248.5 8.5,-248.5"/>
<text text-anchor="start" x="16.5" y="-266.5" font-family="Helvetica,sans-Serif" font-size="10.00">std::basic_string&lt;</text>
<text text-anchor="middle" x="56" y="-255.5" font-family="Helvetica,sans-Serif" font-size="10.00"> char &gt;</text>
</a>
</g>
</g>
<!-- Node5&#45;&gt;Node4 -->
<g id="edge4" class="edge"><title>Node5&#45;&gt;Node4</title>
<path fill="none" stroke="midnightblue" d="M56,-238.352C56,-228.513 56,-217.775 56,-210.54"/>
<polygon fill="midnightblue" stroke="midnightblue" points="52.5001,-238.468 56,-248.468 59.5001,-238.468 52.5001,-238.468"/>
</g>
<!-- Node6 -->
<g id="node6" class="node"><title>Node6</title>
<g id="a_node6"><a xlink:href="classblfwk_1_1_progress.html" target="_top" xlink:title="Contains the callback function for progress and abort phase. ">
<polygon fill="white" stroke="black" points="302.5,-124.5 302.5,-143.5 385.5,-143.5 385.5,-124.5 302.5,-124.5"/>
<text text-anchor="middle" x="344" y="-131.5" font-family="Helvetica,sans-Serif" font-size="10.00">blfwk::Progress</text>
</a>
</g>
</g>
<!-- Node6&#45;&gt;Node2 -->
<g id="edge5" class="edge"><title>Node6&#45;&gt;Node2</title>
<path fill="none" stroke="#9a32cd" stroke-dasharray="5,2" d="M318.792,-119.459C294.804,-106.573 259.435,-87.5727 239.06,-76.6273"/>
<polygon fill="#9a32cd" stroke="#9a32cd" points="317.216,-122.585 327.681,-124.234 320.528,-116.418 317.216,-122.585"/>
<text text-anchor="middle" x="318.5" y="-98" font-family="Helvetica,sans-Serif" font-size="10.00"> m_progress</text>
</g>
<!-- Node7&#45;&gt;Node2 -->
<g id="edge6" class="edge"><title>Node7&#45;&gt;Node2</title>
<path fill="none" stroke="#9a32cd" stroke-dasharray="5,2" d="M223,-114.037C223,-101.67 223,-86.1198 223,-76.6273"/>
<polygon fill="#9a32cd" stroke="#9a32cd" points="219.5,-114.234 223,-124.234 226.5,-114.234 219.5,-114.234"/>
<text text-anchor="middle" x="240" y="-98" font-family="Helvetica,sans-Serif" font-size="10.00"> m_argv</text>
</g>
</g>
</svg>
