<?xml version="1.0" encoding="UTF-8" standalone="no"?>
<!DOCTYPE svg PUBLIC "-//W3C//DTD SVG 1.1//EN"
 "http://www.w3.org/Graphics/SVG/1.1/DTD/svg11.dtd">
<!-- Generated by graphviz version 2.38.0 (20140413.2041)
 -->
<!-- Title: blfwk::DataSource::PatternSegment Pages: 1 -->
<svg width="361pt" height="241pt"
 viewBox="0.00 0.00 361.00 241.00" xmlns="http://www.w3.org/2000/svg" xmlns:xlink="http://www.w3.org/1999/xlink">
<g id="graph0" class="graph" transform="scale(1 1) rotate(0) translate(4 237)">
<title>blfwk::DataSource::PatternSegment</title>
<polygon fill="white" stroke="none" points="-4,4 -4,-237 357,-237 357,4 -4,4"/>
<!-- Node1 -->
<g id="node1" class="node"><title>Node1</title>
<polygon fill="#bfbfbf" stroke="black" points="146,-0.5 146,-30.5 247,-30.5 247,-0.5 146,-0.5"/>
<text text-anchor="start" x="154" y="-18.5" font-family="Helvetica,sans-Serif" font-size="10.00">blfwk::DataSource::</text>
<text text-anchor="middle" x="196.5" y="-7.5" font-family="Helvetica,sans-Serif" font-size="10.00">PatternSegment</text>
</g>
<!-- Node2 -->
<g id="node2" class="node"><title>Node2</title>
<g id="a_node2"><a xlink:href="classblfwk_1_1_data_source_1_1_segment.html" target="_top" xlink:title="Discrete, contiguous part of the source&#39;s data. ">
<polygon fill="white" stroke="black" points="0,-78.5 0,-108.5 101,-108.5 101,-78.5 0,-78.5"/>
<text text-anchor="start" x="8" y="-96.5" font-family="Helvetica,sans-Serif" font-size="10.00">blfwk::DataSource::</text>
<text text-anchor="middle" x="50.5" y="-85.5" font-family="Helvetica,sans-Serif" font-size="10.00">Segment</text>
</a>
</g>
</g>
<!-- Node2&#45;&gt;Node1 -->
<g id="edge1" class="edge"><title>Node2&#45;&gt;Node1</title>
<path fill="none" stroke="midnightblue" d="M86.666,-73.6739C112.326,-60.3166 146.214,-42.6762 169.526,-30.5413"/>
<polygon fill="midnightblue" stroke="midnightblue" points="84.8734,-70.6611 77.6193,-78.3831 88.1056,-76.8703 84.8734,-70.6611"/>
</g>
<!-- Node3 -->
<g id="node3" class="node"><title>Node3</title>
<g id="a_node3"><a xlink:href="classblfwk_1_1_data_source.html" target="_top" xlink:title="Abstract base class for data sources. ">
<polygon fill="white" stroke="black" points="72,-156.5 72,-175.5 167,-175.5 167,-156.5 72,-156.5"/>
<text text-anchor="middle" x="119.5" y="-163.5" font-family="Helvetica,sans-Serif" font-size="10.00">blfwk::DataSource</text>
</a>
</g>
</g>
<!-- Node3&#45;&gt;Node2 -->
<g id="edge2" class="edge"><title>Node3&#45;&gt;Node2</title>
<path fill="none" stroke="#9a32cd" stroke-dasharray="5,2" d="M82.5306,-152C75.8358,-148.31 69.4265,-143.698 64.5,-138 57.4432,-129.838 53.933,-118.071 52.1929,-108.833"/>
<polygon fill="#9a32cd" stroke="#9a32cd" points="81.2014,-155.245 91.7245,-156.476 84.2659,-148.952 81.2014,-155.245"/>
<text text-anchor="middle" x="87.5" y="-130" font-family="Helvetica,sans-Serif" font-size="10.00"> m_source</text>
</g>
<!-- Node4 -->
<g id="node4" class="node"><title>Node4</title>
<g id="a_node4"><a xlink:href="classblfwk_1_1_data_target.html" target="_top" xlink:title="Abstract base class for the target address or range of data. ">
<polygon fill="white" stroke="black" points="119.5,-84 119.5,-103 211.5,-103 211.5,-84 119.5,-84"/>
<text text-anchor="middle" x="165.5" y="-91" font-family="Helvetica,sans-Serif" font-size="10.00">blfwk::DataTarget</text>
</a>
</g>
</g>
<!-- Node3&#45;&gt;Node4 -->
<g id="edge4" class="edge"><title>Node3&#45;&gt;Node4</title>
<path fill="none" stroke="#9a32cd" stroke-dasharray="5,2" d="M114.028,-146.349C113.144,-139.896 113.372,-132.827 116.5,-127 122.341,-116.117 133.607,-108.261 143.865,-103.002"/>
<polygon fill="#9a32cd" stroke="#9a32cd" points="110.654,-147.302 116.25,-156.299 117.486,-145.776 110.654,-147.302"/>
<text text-anchor="middle" x="139.5" y="-130" font-family="Helvetica,sans-Serif" font-size="10.00"> m_source</text>
</g>
<!-- Node4&#45;&gt;Node3 -->
<g id="edge3" class="edge"><title>Node4&#45;&gt;Node3</title>
<path fill="none" stroke="#9a32cd" stroke-dasharray="5,2" d="M170.097,-113.194C171.081,-121.312 170.767,-130.628 166.5,-138 161.692,-146.307 153.254,-152.281 144.842,-156.462"/>
<polygon fill="#9a32cd" stroke="#9a32cd" points="173.497,-112.337 168.199,-103.162 166.619,-113.638 173.497,-112.337"/>
<text text-anchor="middle" x="191.5" y="-130" font-family="Helvetica,sans-Serif" font-size="10.00"> m_target</text>
</g>
<!-- Node5 -->
<g id="node5" class="node"><title>Node5</title>
<g id="a_node5"><a xlink:href="classblfwk_1_1_sized_integer_value.html" target="_top" xlink:title="Adds a word size attribute to IntegerValue. ">
<polygon fill="white" stroke="black" points="230,-84 230,-103 353,-103 353,-84 230,-84"/>
<text text-anchor="middle" x="291.5" y="-91" font-family="Helvetica,sans-Serif" font-size="10.00">blfwk::SizedIntegerValue</text>
</a>
</g>
</g>
<!-- Node5&#45;&gt;Node1 -->
<g id="edge5" class="edge"><title>Node5&#45;&gt;Node1</title>
<path fill="none" stroke="#9a32cd" stroke-dasharray="5,2" d="M272.476,-77.281C255.422,-63.6374 230.604,-43.7832 214.025,-30.5198"/>
<polygon fill="#9a32cd" stroke="#9a32cd" points="270.607,-80.2679 280.602,-83.7818 274.98,-74.8018 270.607,-80.2679"/>
<text text-anchor="middle" x="274" y="-52" font-family="Helvetica,sans-Serif" font-size="10.00"> m_pattern</text>
</g>
<!-- Node6 -->
<g id="node6" class="node"><title>Node6</title>
<g id="a_node6"><a xlink:href="classblfwk_1_1_integer_value.html" target="_top" xlink:title="32&#45;bit signed integer value. ">
<polygon fill="white" stroke="black" points="242.5,-156.5 242.5,-175.5 340.5,-175.5 340.5,-156.5 242.5,-156.5"/>
<text text-anchor="middle" x="291.5" y="-163.5" font-family="Helvetica,sans-Serif" font-size="10.00">blfwk::IntegerValue</text>
</a>
</g>
</g>
<!-- Node6&#45;&gt;Node5 -->
<g id="edge6" class="edge"><title>Node6&#45;&gt;Node5</title>
<path fill="none" stroke="midnightblue" d="M291.5,-145.942C291.5,-132.03 291.5,-113.82 291.5,-103.215"/>
<polygon fill="midnightblue" stroke="midnightblue" points="288,-146.355 291.5,-156.355 295,-146.355 288,-146.355"/>
</g>
<!-- Node7 -->
<g id="node7" class="node"><title>Node7</title>
<g id="a_node7"><a xlink:href="classblfwk_1_1_value.html" target="_top" xlink:title="Abstract base class for values of arbitrary types. ">
<polygon fill="white" stroke="black" points="257,-213.5 257,-232.5 326,-232.5 326,-213.5 257,-213.5"/>
<text text-anchor="middle" x="291.5" y="-220.5" font-family="Helvetica,sans-Serif" font-size="10.00">blfwk::Value</text>
</a>
</g>
</g>
<!-- Node7&#45;&gt;Node6 -->
<g id="edge7" class="edge"><title>Node7&#45;&gt;Node6</title>
<path fill="none" stroke="midnightblue" d="M291.5,-203.117C291.5,-193.817 291.5,-183.056 291.5,-175.715"/>
<polygon fill="midnightblue" stroke="midnightblue" points="288,-203.406 291.5,-213.406 295,-203.406 288,-203.406"/>
</g>
</g>
</svg>
