<?xml version="1.0" encoding="UTF-8" standalone="no"?>
<!DOCTYPE svg PUBLIC "-//W3C//DTD SVG 1.1//EN"
 "http://www.w3.org/Graphics/SVG/1.1/DTD/svg11.dtd">
<!-- Generated by graphviz version 2.38.0 (20140413.2041)
 -->
<!-- Title: elftosb::OptionDictionary Pages: 1 -->
<svg width="291pt" height="262pt"
 viewBox="0.00 0.00 291.00 262.00" xmlns="http://www.w3.org/2000/svg" xmlns:xlink="http://www.w3.org/1999/xlink">
<g id="graph0" class="graph" transform="scale(1 1) rotate(0) translate(4 258)">
<title>elftosb::OptionDictionary</title>
<polygon fill="white" stroke="none" points="-4,4 -4,-258 287,-258 287,4 -4,4"/>
<!-- Node1 -->
<g id="node1" class="node"><title>Node1</title>
<polygon fill="#bfbfbf" stroke="black" points="28,-0.5 28,-19.5 151,-19.5 151,-0.5 28,-0.5"/>
<text text-anchor="middle" x="89.5" y="-7.5" font-family="Helvetica,sans-Serif" font-size="10.00">elftosb::OptionDictionary</text>
</g>
<!-- Node2 -->
<g id="node2" class="node"><title>Node2</title>
<g id="a_node2"><a xlink:href="classelftosb_1_1_option_context.html" target="_top" xlink:title="Pure abstract interface class to a table of options. ">
<polygon fill="white" stroke="black" points="0,-73 0,-92 113,-92 113,-73 0,-73"/>
<text text-anchor="middle" x="56.5" y="-80" font-family="Helvetica,sans-Serif" font-size="10.00">elftosb::OptionContext</text>
</a>
</g>
</g>
<!-- Node2&#45;&gt;Node1 -->
<g id="edge1" class="edge"><title>Node2&#45;&gt;Node1</title>
<path fill="none" stroke="midnightblue" d="M61.0828,-63.1086C63.3974,-55.1692 66.5592,-45.9085 70.5,-38 73.7722,-31.4334 78.5222,-24.6834 82.4541,-19.5751"/>
<polygon fill="midnightblue" stroke="midnightblue" points="57.6762,-62.2991 58.458,-72.8651 64.4359,-64.1178 57.6762,-62.2991"/>
</g>
<!-- Node2&#45;&gt;Node1 -->
<g id="edge7" class="edge"><title>Node2&#45;&gt;Node1</title>
<path fill="none" stroke="#9a32cd" stroke-dasharray="5,2" d="M64.8403,-63.6821C71.4179,-49.63 80.3075,-30.6384 85.4205,-19.7154"/>
<polygon fill="#9a32cd" stroke="#9a32cd" points="61.616,-62.3146 60.5464,-72.8553 67.9558,-65.2822 61.616,-62.3146"/>
<text text-anchor="middle" x="98.5" y="-41" font-family="Helvetica,sans-Serif" font-size="10.00"> m_parent</text>
</g>
<!-- Node3 -->
<g id="node3" class="node"><title>Node3</title>
<polygon fill="white" stroke="#bfbfbf" points="131.5,-67.5 131.5,-97.5 241.5,-97.5 241.5,-67.5 131.5,-67.5"/>
<text text-anchor="start" x="139.5" y="-85.5" font-family="Helvetica,sans-Serif" font-size="10.00">std::map&lt; std::string,</text>
<text text-anchor="middle" x="186.5" y="-74.5" font-family="Helvetica,sans-Serif" font-size="10.00"> OptionValue &gt;</text>
</g>
<!-- Node3&#45;&gt;Node1 -->
<g id="edge2" class="edge"><title>Node3&#45;&gt;Node1</title>
<path fill="none" stroke="#9a32cd" stroke-dasharray="5,2" d="M158.593,-61.2172C139.674,-47.4665 115.62,-29.9842 101.458,-19.6911"/>
<polygon fill="#9a32cd" stroke="#9a32cd" points="156.724,-64.1852 166.871,-67.2333 160.839,-58.5228 156.724,-64.1852"/>
<text text-anchor="middle" x="166" y="-41" font-family="Helvetica,sans-Serif" font-size="10.00"> m_options</text>
</g>
<!-- Node4 -->
<g id="node4" class="node"><title>Node4</title>
<g id="a_node4"><a xlink:href="structelftosb_1_1_option_dictionary_1_1_option_value.html" target="_top" xlink:title="Information about one option&#39;s value. ">
<polygon fill="white" stroke="black" points="64,-145.5 64,-175.5 187,-175.5 187,-145.5 64,-145.5"/>
<text text-anchor="start" x="72" y="-163.5" font-family="Helvetica,sans-Serif" font-size="10.00">elftosb::OptionDictionary</text>
<text text-anchor="middle" x="125.5" y="-152.5" font-family="Helvetica,sans-Serif" font-size="10.00">::OptionValue</text>
</a>
</g>
</g>
<!-- Node4&#45;&gt;Node3 -->
<g id="edge3" class="edge"><title>Node4&#45;&gt;Node3</title>
<path fill="none" stroke="#9a32cd" stroke-dasharray="5,2" d="M143.313,-137.307C153.566,-124.533 166.146,-108.86 175.078,-97.7309"/>
<polygon fill="#9a32cd" stroke="#9a32cd" points="140.504,-135.215 136.974,-145.205 145.963,-139.597 140.504,-135.215"/>
<text text-anchor="middle" x="182" y="-119" font-family="Helvetica,sans-Serif" font-size="10.00"> elements</text>
</g>
<!-- Node5 -->
<g id="node5" class="node"><title>Node5</title>
<g id="a_node5"><a xlink:href="classelftosb_1_1_value.html" target="_top" xlink:title="Abstract base class for values of arbitrary types. ">
<polygon fill="white" stroke="black" points="87.5,-229 87.5,-248 163.5,-248 163.5,-229 87.5,-229"/>
<text text-anchor="middle" x="125.5" y="-236" font-family="Helvetica,sans-Serif" font-size="10.00">elftosb::Value</text>
</a>
</g>
</g>
<!-- Node5&#45;&gt;Node4 -->
<g id="edge4" class="edge"><title>Node5&#45;&gt;Node4</title>
<path fill="none" stroke="#9a32cd" stroke-dasharray="5,2" d="M125.5,-218.782C125.5,-205.404 125.5,-187.688 125.5,-175.52"/>
<polygon fill="#9a32cd" stroke="#9a32cd" points="122,-218.782 125.5,-228.782 129,-218.782 122,-218.782"/>
<text text-anchor="middle" x="145" y="-197" font-family="Helvetica,sans-Serif" font-size="10.00"> m_value</text>
</g>
<!-- Node6 -->
<g id="node6" class="node"><title>Node6</title>
<g id="a_node6"><a xlink:title="STL class. ">
<polygon fill="white" stroke="#bfbfbf" points="205.5,-151 205.5,-170 265.5,-170 265.5,-151 205.5,-151"/>
<text text-anchor="middle" x="235.5" y="-158" font-family="Helvetica,sans-Serif" font-size="10.00">std::string</text>
</a>
</g>
</g>
<!-- Node6&#45;&gt;Node3 -->
<g id="edge5" class="edge"><title>Node6&#45;&gt;Node3</title>
<path fill="none" stroke="#9a32cd" stroke-dasharray="5,2" d="M224.453,-142.365C215.726,-128.83 203.698,-110.175 195.539,-97.5198"/>
<polygon fill="#9a32cd" stroke="#9a32cd" points="221.519,-144.274 229.879,-150.782 227.402,-140.481 221.519,-144.274"/>
<text text-anchor="middle" x="227" y="-119" font-family="Helvetica,sans-Serif" font-size="10.00"> keys</text>
</g>
<!-- Node7 -->
<g id="node7" class="node"><title>Node7</title>
<g id="a_node7"><a xlink:title="STL class. ">
<polygon fill="white" stroke="#bfbfbf" points="188,-223.5 188,-253.5 283,-253.5 283,-223.5 188,-223.5"/>
<text text-anchor="start" x="196" y="-241.5" font-family="Helvetica,sans-Serif" font-size="10.00">std::basic_string&lt;</text>
<text text-anchor="middle" x="235.5" y="-230.5" font-family="Helvetica,sans-Serif" font-size="10.00"> char &gt;</text>
</a>
</g>
</g>
<!-- Node7&#45;&gt;Node6 -->
<g id="edge6" class="edge"><title>Node7&#45;&gt;Node6</title>
<path fill="none" stroke="midnightblue" d="M235.5,-213.165C235.5,-198.396 235.5,-180.448 235.5,-170.064"/>
<polygon fill="midnightblue" stroke="midnightblue" points="232,-213.205 235.5,-223.205 239,-213.205 232,-213.205"/>
</g>
</g>
</svg>
