<?xml version="1.0" encoding="UTF-8" standalone="no"?>
<!DOCTYPE svg PUBLIC "-//W3C//DTD SVG 1.1//EN"
 "http://www.w3.org/Graphics/SVG/1.1/DTD/svg11.dtd">
<!-- Generated by graphviz version 2.38.0 (20140413.2041)
 -->
<!-- Title: blfwk::UnmappedDataSource Pages: 1 -->
<svg width="387pt" height="173pt"
 viewBox="0.00 0.00 386.56 173.00" xmlns="http://www.w3.org/2000/svg" xmlns:xlink="http://www.w3.org/1999/xlink">
<g id="graph0" class="graph" transform="scale(1 1) rotate(0) translate(4 169)">
<title>blfwk::UnmappedDataSource</title>
<polygon fill="white" stroke="none" points="-4,4 -4,-169 382.563,-169 382.563,4 -4,4"/>
<!-- Node1 -->
<g id="node1" class="node"><title>Node1</title>
<polygon fill="#bfbfbf" stroke="black" points="106.563,-0.5 106.563,-19.5 248.563,-19.5 248.563,-0.5 106.563,-0.5"/>
<text text-anchor="middle" x="177.563" y="-7.5" font-family="Helvetica,sans-Serif" font-size="10.00">blfwk::UnmappedDataSource</text>
</g>
<!-- Node2 -->
<g id="node2" class="node"><title>Node2</title>
<g id="a_node2"><a xlink:href="classblfwk_1_1_data_source.html" target="_top" xlink:title="Abstract base class for data sources. ">
<polygon fill="white" stroke="black" points="19.0633,-145.5 19.0633,-164.5 114.063,-164.5 114.063,-145.5 19.0633,-145.5"/>
<text text-anchor="middle" x="66.5633" y="-152.5" font-family="Helvetica,sans-Serif" font-size="10.00">blfwk::DataSource</text>
</a>
</g>
</g>
<!-- Node2&#45;&gt;Node1 -->
<g id="edge1" class="edge"><title>Node2&#45;&gt;Node1</title>
<path fill="none" stroke="midnightblue" d="M40.5513,-139.986C34.8903,-136.227 29.2112,-131.843 24.5633,-127 5.37194,-107.003 -8.68244,-89.456 7.56331,-67 30.0573,-35.9072 70.4124,-21.7811 106.16,-15.4879"/>
<polygon fill="midnightblue" stroke="midnightblue" points="38.9301,-143.098 49.2817,-145.355 42.5971,-137.135 38.9301,-143.098"/>
</g>
<!-- Node3 -->
<g id="node3" class="node"><title>Node3</title>
<g id="a_node3"><a xlink:href="classblfwk_1_1_data_target.html" target="_top" xlink:title="Abstract base class for the target address or range of data. ">
<polygon fill="white" stroke="black" points="16.5633,-73 16.5633,-92 108.563,-92 108.563,-73 16.5633,-73"/>
<text text-anchor="middle" x="62.5633" y="-80" font-family="Helvetica,sans-Serif" font-size="10.00">blfwk::DataTarget</text>
</a>
</g>
</g>
<!-- Node2&#45;&gt;Node3 -->
<g id="edge3" class="edge"><title>Node2&#45;&gt;Node3</title>
<path fill="none" stroke="#9a32cd" stroke-dasharray="5,2" d="M39.7927,-139.352C35.6653,-135.866 31.9783,-131.752 29.5633,-127 22.8635,-113.817 36.5833,-100.548 48.3241,-92.1924"/>
<polygon fill="#9a32cd" stroke="#9a32cd" points="37.8886,-142.293 48.0537,-145.28 41.97,-136.606 37.8886,-142.293"/>
<text text-anchor="middle" x="52.5633" y="-119" font-family="Helvetica,sans-Serif" font-size="10.00"> m_source</text>
</g>
<!-- Node4 -->
<g id="node4" class="node"><title>Node4</title>
<g id="a_node4"><a xlink:href="classblfwk_1_1_data_source_1_1_segment.html" target="_top" xlink:title="Discrete, contiguous part of the source&#39;s data. ">
<polygon fill="white" stroke="black" points="127.063,-67.5 127.063,-97.5 228.063,-97.5 228.063,-67.5 127.063,-67.5"/>
<text text-anchor="start" x="135.063" y="-85.5" font-family="Helvetica,sans-Serif" font-size="10.00">blfwk::DataSource::</text>
<text text-anchor="middle" x="177.563" y="-74.5" font-family="Helvetica,sans-Serif" font-size="10.00">Segment</text>
</a>
</g>
</g>
<!-- Node2&#45;&gt;Node4 -->
<g id="edge5" class="edge"><title>Node2&#45;&gt;Node4</title>
<path fill="none" stroke="#9a32cd" stroke-dasharray="5,2" d="M98.8655,-141.474C108.092,-137.367 117.968,-132.443 126.563,-127 139.935,-118.532 153.492,-106.785 163.265,-97.6319"/>
<polygon fill="#9a32cd" stroke="#9a32cd" points="97.3885,-138.298 89.5672,-145.445 100.138,-144.736 97.3885,-138.298"/>
<text text-anchor="middle" x="164.563" y="-119" font-family="Helvetica,sans-Serif" font-size="10.00"> m_source</text>
</g>
<!-- Node3&#45;&gt;Node2 -->
<g id="edge2" class="edge"><title>Node3&#45;&gt;Node2</title>
<path fill="none" stroke="#9a32cd" stroke-dasharray="5,2" d="M73.6221,-100.913C76.0649,-105.631 78.3001,-110.86 79.5633,-116 82.0925,-126.292 77.0353,-137.759 72.5089,-145.377"/>
<polygon fill="#9a32cd" stroke="#9a32cd" points="76.5893,-99.0526 68.5611,-92.139 70.5257,-102.55 76.5893,-99.0526"/>
<text text-anchor="middle" x="101.563" y="-119" font-family="Helvetica,sans-Serif" font-size="10.00"> m_target</text>
</g>
<!-- Node4&#45;&gt;Node1 -->
<g id="edge4" class="edge"><title>Node4&#45;&gt;Node1</title>
<path fill="none" stroke="midnightblue" d="M177.563,-57.0913C177.563,-44.2136 177.563,-29.1974 177.563,-19.8932"/>
<polygon fill="midnightblue" stroke="midnightblue" points="174.063,-57.2332 177.563,-67.2333 181.063,-57.2333 174.063,-57.2332"/>
</g>
<!-- Node5 -->
<g id="node5" class="node"><title>Node5</title>
<g id="a_node5"><a xlink:href="group__smart__pointer.html" target="_top" xlink:title="smart_array_ptr\&lt; uint8_t \&gt;">
<polygon fill="white" stroke="black" points="246.563,-73 246.563,-92 378.563,-92 378.563,-73 246.563,-73"/>
<text text-anchor="middle" x="312.563" y="-80" font-family="Helvetica,sans-Serif" font-size="10.00">smart_array_ptr&lt; uint8_t &gt;</text>
</a>
</g>
</g>
<!-- Node5&#45;&gt;Node1 -->
<g id="edge6" class="edge"><title>Node5&#45;&gt;Node1</title>
<path fill="none" stroke="#9a32cd" stroke-dasharray="5,2" d="M287.309,-68.3117C259.963,-54.0312 217.149,-31.6723 193.905,-19.5341"/>
<polygon fill="#9a32cd" stroke="#9a32cd" points="285.795,-71.4694 296.279,-72.9961 289.035,-65.2645 285.795,-71.4694"/>
<text text-anchor="middle" x="267.563" y="-41" font-family="Helvetica,sans-Serif" font-size="10.00"> m_data</text>
</g>
</g>
</svg>
