<?xml version="1.0" encoding="UTF-8" standalone="no"?>
<!DOCTYPE svg PUBLIC "-//W3C//DTD SVG 1.1//EN"
 "http://www.w3.org/Graphics/SVG/1.1/DTD/svg11.dtd">
<!-- Generated by graphviz version 2.38.0 (20140413.2041)
 -->
<!-- Title: elftosb::EncoreBootImage::Section Pages: 1 -->
<svg width="807pt" height="219pt"
 viewBox="0.00 0.00 807.00 219.01" xmlns="http://www.w3.org/2000/svg" xmlns:xlink="http://www.w3.org/1999/xlink">
<g id="graph0" class="graph" transform="scale(1 1) rotate(0) translate(4 215.011)">
<title>elftosb::EncoreBootImage::Section</title>
<polygon fill="white" stroke="none" points="-4,4 -4,-215.011 803,-215.011 803,4 -4,4"/>
<!-- Node1 -->
<g id="node1" class="node"><title>Node1</title>
<polygon fill="#bfbfbf" stroke="black" points="197,-5.0112 197,-35.0112 325,-35.0112 325,-5.0112 197,-5.0112"/>
<text text-anchor="start" x="205" y="-23.0112" font-family="Helvetica,sans-Serif" font-size="10.00">elftosb::EncoreBootImage</text>
<text text-anchor="middle" x="261" y="-12.0112" font-family="Helvetica,sans-Serif" font-size="10.00">::Section</text>
</g>
<!-- Node10 -->
<g id="node10" class="node"><title>Node10</title>
<polygon fill="white" stroke="#bfbfbf" points="417,-30.5112 417,-49.5112 524,-49.5112 524,-30.5112 417,-30.5112"/>
<text text-anchor="middle" x="470.5" y="-37.5112" font-family="Helvetica,sans-Serif" font-size="10.00">std::list&lt; Section * &gt;</text>
</g>
<!-- Node1&#45;&gt;Node10 -->
<g id="edge12" class="edge"><title>Node1&#45;&gt;Node10</title>
<path fill="none" stroke="#9a32cd" stroke-dasharray="5,2" d="M335.251,-27.0716C362.161,-29.6653 392.075,-32.5486 416.824,-34.9339"/>
<polygon fill="#9a32cd" stroke="#9a32cd" points="335.392,-23.569 325.102,-26.0933 334.72,-30.5367 335.392,-23.569"/>
<text text-anchor="middle" x="364.5" y="-35.0112" font-family="Helvetica,sans-Serif" font-size="10.00"> elements</text>
</g>
<!-- Node2 -->
<g id="node2" class="node"><title>Node2</title>
<g id="a_node2"><a xlink:href="classelftosb_1_1_encore_boot_image_1_1_cipher_block_generator.html" target="_top" xlink:title="Base class for objects that produce cipher blocks. ">
<polygon fill="white" stroke="black" points="0,-5.0112 0,-35.0112 128,-35.0112 128,-5.0112 0,-5.0112"/>
<text text-anchor="start" x="8" y="-23.0112" font-family="Helvetica,sans-Serif" font-size="10.00">elftosb::EncoreBootImage</text>
<text text-anchor="middle" x="64" y="-12.0112" font-family="Helvetica,sans-Serif" font-size="10.00">::CipherBlockGenerator</text>
</a>
</g>
</g>
<!-- Node2&#45;&gt;Node1 -->
<g id="edge1" class="edge"><title>Node2&#45;&gt;Node1</title>
<path fill="none" stroke="midnightblue" d="M138.28,-20.0112C157.545,-20.0112 178.158,-20.0112 196.842,-20.0112"/>
<polygon fill="midnightblue" stroke="midnightblue" points="138.042,-16.5113 128.042,-20.0112 138.042,-23.5113 138.042,-16.5113"/>
</g>
<!-- Node3 -->
<g id="node3" class="node"><title>Node3</title>
<g id="a_node3"><a xlink:href="classelftosb_1_1_encore_boot_image.html" target="_top" xlink:title="Class to manage Encore boot image files. ">
<polygon fill="white" stroke="black" points="671,-90.5112 671,-109.511 799,-109.511 799,-90.5112 671,-90.5112"/>
<text text-anchor="middle" x="735" y="-97.5112" font-family="Helvetica,sans-Serif" font-size="10.00">elftosb::EncoreBootImage</text>
</a>
</g>
</g>
<!-- Node3&#45;&gt;Node1 -->
<g id="edge2" class="edge"><title>Node3&#45;&gt;Node1</title>
<path fill="none" stroke="#9a32cd" stroke-dasharray="5,2" d="M716.082,-83.5358C700.487,-70.0209 676.72,-51.3324 653,-40.0112 546.878,10.6392 405.625,1.96601 325.186,-8.98225"/>
<polygon fill="#9a32cd" stroke="#9a32cd" points="714.05,-86.4123 723.853,-90.4322 718.697,-81.1767 714.05,-86.4123"/>
<text text-anchor="middle" x="470.5" y="-10.0112" font-family="Helvetica,sans-Serif" font-size="10.00"> m_image</text>
</g>
<!-- Node4 -->
<g id="node4" class="node"><title>Node4</title>
<g id="a_node4"><a xlink:href="classelftosb_1_1_boot_image.html" target="_top" xlink:title="Abstract base class for all boot image format classes. ">
<polygon fill="white" stroke="black" points="421.5,-191.511 421.5,-210.511 519.5,-210.511 519.5,-191.511 421.5,-191.511"/>
<text text-anchor="middle" x="470.5" y="-198.511" font-family="Helvetica,sans-Serif" font-size="10.00">elftosb::BootImage</text>
</a>
</g>
</g>
<!-- Node4&#45;&gt;Node3 -->
<g id="edge3" class="edge"><title>Node4&#45;&gt;Node3</title>
<path fill="none" stroke="midnightblue" d="M529.739,-201.893C566.671,-200.348 614.558,-194.355 653,-176.011 685.893,-160.316 714.367,-126.371 727.019,-109.678"/>
<polygon fill="midnightblue" stroke="midnightblue" points="529.512,-198.398 519.629,-202.217 529.737,-205.395 529.512,-198.398"/>
</g>
<!-- Node5 -->
<g id="node5" class="node"><title>Node5</title>
<g id="a_node5"><a xlink:href="class_a_e_s_key.html" target="_top" xlink:title="AESKey\&lt; 128 \&gt;">
<polygon fill="white" stroke="black" points="217,-139.511 217,-158.511 305,-158.511 305,-139.511 217,-139.511"/>
<text text-anchor="middle" x="261" y="-146.511" font-family="Helvetica,sans-Serif" font-size="10.00">AESKey&lt; 128 &gt;</text>
</a>
</g>
</g>
<!-- Node5&#45;&gt;Node3 -->
<g id="edge4" class="edge"><title>Node5&#45;&gt;Node3</title>
<path fill="none" stroke="#9a32cd" stroke-dasharray="5,2" d="M315.253,-150.479C391.049,-151.532 534.048,-149.679 653,-126.011 672.265,-122.178 693.376,-115.31 709.214,-109.595"/>
<polygon fill="#9a32cd" stroke="#9a32cd" points="315.069,-146.975 305.014,-150.313 314.955,-153.974 315.069,-146.975"/>
<text text-anchor="middle" x="470.5" y="-153.011" font-family="Helvetica,sans-Serif" font-size="10.00"> m_sessionKey</text>
</g>
<!-- Node9 -->
<g id="node9" class="node"><title>Node9</title>
<polygon fill="white" stroke="#bfbfbf" points="404,-106.511 404,-125.511 537,-125.511 537,-106.511 404,-106.511"/>
<text text-anchor="middle" x="470.5" y="-113.511" font-family="Helvetica,sans-Serif" font-size="10.00">std::vector&lt; AES128Key &gt;</text>
</g>
<!-- Node5&#45;&gt;Node9 -->
<g id="edge10" class="edge"><title>Node5&#45;&gt;Node9</title>
<path fill="none" stroke="#9a32cd" stroke-dasharray="5,2" d="M315.498,-140.503C344.221,-135.935 379.719,-130.29 409.392,-125.571"/>
<polygon fill="#9a32cd" stroke="#9a32cd" points="314.572,-137.106 305.246,-142.133 315.672,-144.019 314.572,-137.106"/>
<text text-anchor="middle" x="364.5" y="-139.011" font-family="Helvetica,sans-Serif" font-size="10.00"> elements</text>
</g>
<!-- Node6 -->
<g id="node6" class="node"><title>Node6</title>
<g id="a_node6"><a xlink:href="class_a_e_s_key_base.html" target="_top" xlink:title="Base class for AESKey&lt;S&gt;. ">
<polygon fill="white" stroke="black" points="25.5,-139.511 25.5,-158.511 102.5,-158.511 102.5,-139.511 25.5,-139.511"/>
<text text-anchor="middle" x="64" y="-146.511" font-family="Helvetica,sans-Serif" font-size="10.00">AESKeyBase</text>
</a>
</g>
</g>
<!-- Node6&#45;&gt;Node5 -->
<g id="edge5" class="edge"><title>Node6&#45;&gt;Node5</title>
<path fill="none" stroke="midnightblue" d="M112.969,-143.104C144.715,-141.921 186.001,-141.983 216.738,-143.292"/>
<polygon fill="midnightblue" stroke="midnightblue" points="112.437,-139.624 102.598,-143.553 112.74,-146.617 112.437,-139.624"/>
</g>
<!-- Node6&#45;&gt;Node5 -->
<g id="edge6" class="edge"><title>Node6&#45;&gt;Node5</title>
<path fill="none" stroke="midnightblue" d="M112.969,-154.918C144.715,-156.102 186.001,-156.039 216.738,-154.731"/>
<polygon fill="midnightblue" stroke="midnightblue" points="112.74,-151.405 102.598,-154.469 112.437,-158.399 112.74,-151.405"/>
</g>
<!-- Node7 -->
<g id="node7" class="node"><title>Node7</title>
<polygon fill="white" stroke="#bfbfbf" points="49.5,-101.511 49.5,-120.511 78.5,-120.511 78.5,-101.511 49.5,-101.511"/>
<text text-anchor="middle" x="64" y="-108.511" font-family="Helvetica,sans-Serif" font-size="10.00">S</text>
</g>
<!-- Node7&#45;&gt;Node5 -->
<g id="edge7" class="edge"><title>Node7&#45;&gt;Node5</title>
<path fill="none" stroke="#9a32cd" stroke-dasharray="5,2" d="M88.8363,-115.656C120.605,-121.847 177.388,-132.913 216.797,-140.592"/>
<polygon fill="#9a32cd" stroke="#9a32cd" points="89.1969,-112.161 78.712,-113.683 87.8579,-119.031 89.1969,-112.161"/>
<text text-anchor="middle" x="162.5" y="-136.011" font-family="Helvetica,sans-Serif" font-size="10.00"> m_key</text>
</g>
<!-- Node8 -->
<g id="node8" class="node"><title>Node8</title>
<g id="a_node8"><a xlink:href="structelftosb_1_1version__t.html" target="_top" xlink:title="Same version struct used for 3600 boot image. ">
<polygon fill="white" stroke="black" points="426,-68.5112 426,-87.5112 515,-87.5112 515,-68.5112 426,-68.5112"/>
<text text-anchor="middle" x="470.5" y="-75.5112" font-family="Helvetica,sans-Serif" font-size="10.00">elftosb::version_t</text>
</a>
</g>
</g>
<!-- Node8&#45;&gt;Node3 -->
<g id="edge8" class="edge"><title>Node8&#45;&gt;Node3</title>
<path fill="none" stroke="#9a32cd" stroke-dasharray="5,2" d="M525.674,-75.3536C561.87,-74.3757 610.465,-74.5996 653,-80.0112 669.524,-82.1135 687.548,-86.363 702.39,-90.4063"/>
<polygon fill="#9a32cd" stroke="#9a32cd" points="525.222,-71.8659 515.336,-75.6745 525.439,-78.8625 525.222,-71.8659"/>
<text text-anchor="middle" x="604" y="-94.0112" font-family="Helvetica,sans-Serif" font-size="10.00"> m_componentVersion</text>
<text text-anchor="middle" x="604" y="-83.0112" font-family="Helvetica,sans-Serif" font-size="10.00">m_productVersion</text>
</g>
<!-- Node9&#45;&gt;Node3 -->
<g id="edge9" class="edge"><title>Node9&#45;&gt;Node3</title>
<path fill="none" stroke="#9a32cd" stroke-dasharray="5,2" d="M547.334,-111.389C586.411,-109.007 633.516,-106.136 670.63,-103.874"/>
<polygon fill="#9a32cd" stroke="#9a32cd" points="546.831,-107.913 537.063,-112.015 547.257,-114.9 546.831,-107.913"/>
<text text-anchor="middle" x="604" y="-114.011" font-family="Helvetica,sans-Serif" font-size="10.00"> m_keys</text>
</g>
<!-- Node10&#45;&gt;Node3 -->
<g id="edge11" class="edge"><title>Node10&#45;&gt;Node3</title>
<path fill="none" stroke="#9a32cd" stroke-dasharray="5,2" d="M534.285,-41.5537C569.73,-43.7499 614.503,-48.7651 653,-60.0112 677.238,-67.0918 703.026,-81.0873 718.828,-90.4994"/>
<polygon fill="#9a32cd" stroke="#9a32cd" points="534.256,-38.0467 524.076,-40.9825 533.865,-45.0358 534.256,-38.0467"/>
<text text-anchor="middle" x="604" y="-63.0112" font-family="Helvetica,sans-Serif" font-size="10.00"> m_sections</text>
</g>
</g>
</svg>
