<?xml version="1.0" encoding="UTF-8" standalone="no"?>
<!DOCTYPE svg PUBLIC "-//W3C//DTD SVG 1.1//EN"
 "http://www.w3.org/Graphics/SVG/1.1/DTD/svg11.dtd">
<!-- Generated by graphviz version 2.38.0 (20140413.2041)
 -->
<!-- Title: elftosb::ModeStatementASTNode Pages: 1 -->
<svg width="223pt" height="306pt"
 viewBox="0.00 0.00 223.00 306.00" xmlns="http://www.w3.org/2000/svg" xmlns:xlink="http://www.w3.org/1999/xlink">
<g id="graph0" class="graph" transform="scale(1 1) rotate(0) translate(4 302)">
<title>elftosb::ModeStatementASTNode</title>
<polygon fill="white" stroke="none" points="-4,4 -4,-302 219,-302 219,4 -4,4"/>
<!-- Node1 -->
<g id="node1" class="node"><title>Node1</title>
<polygon fill="#bfbfbf" stroke="black" points="24,-0.5 24,-19.5 185,-19.5 185,-0.5 24,-0.5"/>
<text text-anchor="middle" x="104.5" y="-7.5" font-family="Helvetica,sans-Serif" font-size="10.00">elftosb::ModeStatementASTNode</text>
</g>
<!-- Node2 -->
<g id="node2" class="node"><title>Node2</title>
<g id="a_node2"><a xlink:href="classelftosb_1_1_statement_a_s_t_node.html" target="_top" xlink:title="elftosb::StatementASTNode">
<polygon fill="white" stroke="black" points="0,-116.5 0,-135.5 137,-135.5 137,-116.5 0,-116.5"/>
<text text-anchor="middle" x="68.5" y="-123.5" font-family="Helvetica,sans-Serif" font-size="10.00">elftosb::StatementASTNode</text>
</a>
</g>
</g>
<!-- Node2&#45;&gt;Node1 -->
<g id="edge1" class="edge"><title>Node2&#45;&gt;Node1</title>
<path fill="none" stroke="midnightblue" d="M74.2648,-106.745C82.1328,-81.8294 95.9225,-38.1619 101.763,-19.668"/>
<polygon fill="midnightblue" stroke="midnightblue" points="70.8797,-105.842 71.2059,-116.431 77.5548,-107.95 70.8797,-105.842"/>
</g>
<!-- Node3 -->
<g id="node3" class="node"><title>Node3</title>
<g id="a_node3"><a xlink:href="classelftosb_1_1_a_s_t_node.html" target="_top" xlink:title="The base class for all AST node classes. ">
<polygon fill="white" stroke="black" points="36.5,-211.5 36.5,-230.5 128.5,-230.5 128.5,-211.5 36.5,-211.5"/>
<text text-anchor="middle" x="82.5" y="-218.5" font-family="Helvetica,sans-Serif" font-size="10.00">elftosb::ASTNode</text>
</a>
</g>
</g>
<!-- Node3&#45;&gt;Node2 -->
<g id="edge2" class="edge"><title>Node3&#45;&gt;Node2</title>
<path fill="none" stroke="midnightblue" d="M79.6915,-201.343C76.6788,-181.331 72.0265,-150.426 69.7889,-135.562"/>
<polygon fill="midnightblue" stroke="midnightblue" points="76.2583,-202.05 81.208,-211.417 83.1803,-201.008 76.2583,-202.05"/>
</g>
<!-- Node3&#45;&gt;Node3 -->
<g id="edge4" class="edge"><title>Node3&#45;&gt;Node3</title>
<path fill="none" stroke="#9a32cd" stroke-dasharray="5,2" d="M138.774,-225.077C143.534,-224.205 146.5,-222.846 146.5,-221 146.5,-218.047 138.906,-216.34 128.524,-215.878"/>
<polygon fill="#9a32cd" stroke="#9a32cd" points="138.118,-221.626 128.524,-226.122 138.828,-228.59 138.118,-221.626"/>
<text text-anchor="middle" x="168.5" y="-218.5" font-family="Helvetica,sans-Serif" font-size="10.00"> m_parent</text>
</g>
<!-- Node6 -->
<g id="node6" class="node"><title>Node6</title>
<g id="a_node6"><a xlink:href="classelftosb_1_1_expr_a_s_t_node.html" target="_top" xlink:title="Abstract base class for all expression AST nodes. ">
<polygon fill="white" stroke="black" points="102,-154.5 102,-173.5 215,-173.5 215,-154.5 102,-154.5"/>
<text text-anchor="middle" x="158.5" y="-161.5" font-family="Helvetica,sans-Serif" font-size="10.00">elftosb::ExprASTNode</text>
</a>
</g>
</g>
<!-- Node3&#45;&gt;Node6 -->
<g id="edge7" class="edge"><title>Node3&#45;&gt;Node6</title>
<path fill="none" stroke="midnightblue" d="M102.831,-205.287C116.756,-195.21 134.753,-182.185 146.458,-173.715"/>
<polygon fill="midnightblue" stroke="midnightblue" points="100.424,-202.708 94.375,-211.406 104.528,-208.379 100.424,-202.708"/>
</g>
<!-- Node4 -->
<g id="node4" class="node"><title>Node4</title>
<g id="a_node4"><a xlink:href="structelftosb_1_1token__loc__t.html" target="_top" xlink:title="Token location in the source file. ">
<polygon fill="white" stroke="black" points="32,-278.5 32,-297.5 133,-297.5 133,-278.5 32,-278.5"/>
<text text-anchor="middle" x="82.5" y="-285.5" font-family="Helvetica,sans-Serif" font-size="10.00">elftosb::token_loc_t</text>
</a>
</g>
</g>
<!-- Node4&#45;&gt;Node3 -->
<g id="edge3" class="edge"><title>Node4&#45;&gt;Node3</title>
<path fill="none" stroke="#9a32cd" stroke-dasharray="5,2" d="M82.5,-268.037C82.5,-255.67 82.5,-240.12 82.5,-230.627"/>
<polygon fill="#9a32cd" stroke="#9a32cd" points="79.0001,-268.234 82.5,-278.234 86.0001,-268.234 79.0001,-268.234"/>
<text text-anchor="middle" x="108" y="-252" font-family="Helvetica,sans-Serif" font-size="10.00"> m_location</text>
</g>
<!-- Node5 -->
<g id="node5" class="node"><title>Node5</title>
<g id="a_node5"><a xlink:href="group__smart__pointer.html" target="_top" xlink:title="smart_ptr\&lt; elftosb\l::ExprASTNode \&gt;">
<polygon fill="white" stroke="black" points="109,-67.5 109,-97.5 204,-97.5 204,-67.5 109,-67.5"/>
<text text-anchor="start" x="117" y="-85.5" font-family="Helvetica,sans-Serif" font-size="10.00">smart_ptr&lt; elftosb</text>
<text text-anchor="middle" x="156.5" y="-74.5" font-family="Helvetica,sans-Serif" font-size="10.00">::ExprASTNode &gt;</text>
</a>
</g>
</g>
<!-- Node5&#45;&gt;Node1 -->
<g id="edge5" class="edge"><title>Node5&#45;&gt;Node1</title>
<path fill="none" stroke="#9a32cd" stroke-dasharray="5,2" d="M139.909,-59.006C130.116,-45.7295 118.265,-29.6626 111.059,-19.8932"/>
<polygon fill="#9a32cd" stroke="#9a32cd" points="137.224,-61.2631 145.977,-67.2333 142.858,-57.108 137.224,-61.2631"/>
<text text-anchor="middle" x="163" y="-41" font-family="Helvetica,sans-Serif" font-size="10.00"> m_modeExpr</text>
</g>
<!-- Node6&#45;&gt;Node5 -->
<g id="edge6" class="edge"><title>Node6&#45;&gt;Node5</title>
<path fill="none" stroke="#9a32cd" stroke-dasharray="5,2" d="M158.03,-144.33C157.67,-130.011 157.181,-110.556 156.853,-97.5414"/>
<polygon fill="#9a32cd" stroke="#9a32cd" points="154.535,-144.583 158.286,-154.492 161.533,-144.407 154.535,-144.583"/>
<text text-anchor="middle" x="165.5" y="-123.5" font-family="Helvetica,sans-Serif" font-size="10.00"> _p</text>
</g>
</g>
</svg>
