<?xml version="1.0" encoding="UTF-8" standalone="no"?>
<!DOCTYPE svg PUBLIC "-//W3C//DTD SVG 1.1//EN"
 "http://www.w3.org/Graphics/SVG/1.1/DTD/svg11.dtd">
<!-- Generated by graphviz version 2.38.0 (20140413.2041)
 -->
<!-- Title: elftosb::StatementASTNode Pages: 1 -->
<svg width="472pt" height="455pt"
 viewBox="0.00 0.00 472.00 455.00" xmlns="http://www.w3.org/2000/svg" xmlns:xlink="http://www.w3.org/1999/xlink">
<g id="graph0" class="graph" transform="scale(1 1) rotate(0) translate(4 451)">
<title>elftosb::StatementASTNode</title>
<polygon fill="white" stroke="none" points="-4,4 -4,-451 468,-451 468,4 -4,4"/>
<!-- Node1 -->
<g id="node1" class="node"><title>Node1</title>
<polygon fill="#bfbfbf" stroke="black" points="128,-219.5 128,-238.5 265,-238.5 265,-219.5 128,-219.5"/>
<text text-anchor="middle" x="196.5" y="-226.5" font-family="Helvetica,sans-Serif" font-size="10.00">elftosb::StatementASTNode</text>
</g>
<!-- Node3 -->
<g id="node3" class="node"><title>Node3</title>
<g id="a_node3"><a xlink:href="classelftosb_1_1_call_statement_a_s_t_node.html" target="_top" xlink:title="AST node for a call statement. ">
<polygon fill="white" stroke="black" points="305.5,-427.5 305.5,-446.5 459.5,-446.5 459.5,-427.5 305.5,-427.5"/>
<text text-anchor="middle" x="382.5" y="-434.5" font-family="Helvetica,sans-Serif" font-size="10.00">elftosb::CallStatementASTNode</text>
</a>
</g>
</g>
<!-- Node1&#45;&gt;Node3 -->
<g id="edge2" class="edge"><title>Node1&#45;&gt;Node3</title>
<path fill="none" stroke="midnightblue" d="M202.481,-248.687C213.357,-287.479 243.028,-373.857 301,-418 306.027,-421.828 311.704,-424.901 317.659,-427.366"/>
<polygon fill="midnightblue" stroke="midnightblue" points="205.768,-247.43 199.8,-238.676 199.006,-249.241 205.768,-247.43"/>
</g>
<!-- Node4 -->
<g id="node4" class="node"><title>Node4</title>
<g id="a_node4"><a xlink:href="classelftosb_1_1_encrypt_statement_a_s_t_node.html" target="_top" xlink:title="elftosb::EncryptStatement\lASTNode">
<polygon fill="white" stroke="black" points="317.5,-378 317.5,-408 447.5,-408 447.5,-378 317.5,-378"/>
<text text-anchor="start" x="325.5" y="-396" font-family="Helvetica,sans-Serif" font-size="10.00">elftosb::EncryptStatement</text>
<text text-anchor="middle" x="382.5" y="-385" font-family="Helvetica,sans-Serif" font-size="10.00">ASTNode</text>
</a>
</g>
</g>
<!-- Node1&#45;&gt;Node4 -->
<g id="edge3" class="edge"><title>Node1&#45;&gt;Node4</title>
<path fill="none" stroke="midnightblue" d="M206.664,-248.077C222.014,-278.03 255.746,-335.97 301,-368 306.495,-371.889 312.614,-375.188 318.956,-377.982"/>
<polygon fill="midnightblue" stroke="midnightblue" points="209.604,-246.129 202.013,-238.738 203.338,-249.25 209.604,-246.129"/>
</g>
<!-- Node5 -->
<g id="node5" class="node"><title>Node5</title>
<g id="a_node5"><a xlink:href="classelftosb_1_1_erase_statement_a_s_t_node.html" target="_top" xlink:title="Statement to insert a ROM_ERASE_CMD command. ">
<polygon fill="white" stroke="black" points="301,-339.5 301,-358.5 464,-358.5 464,-339.5 301,-339.5"/>
<text text-anchor="middle" x="382.5" y="-346.5" font-family="Helvetica,sans-Serif" font-size="10.00">elftosb::EraseStatementASTNode</text>
</a>
</g>
</g>
<!-- Node1&#45;&gt;Node5 -->
<g id="edge4" class="edge"><title>Node1&#45;&gt;Node5</title>
<path fill="none" stroke="midnightblue" d="M210.525,-246.66C228.347,-269.504 262.539,-308.865 301,-330 308.047,-333.873 315.864,-336.96 323.775,-339.421"/>
<polygon fill="midnightblue" stroke="midnightblue" points="213.166,-244.351 204.322,-238.517 207.598,-248.593 213.166,-244.351"/>
</g>
<!-- Node6 -->
<g id="node6" class="node"><title>Node6</title>
<g id="a_node6"><a xlink:href="classelftosb_1_1_from_statement_a_s_t_node.html" target="_top" xlink:title="elftosb::FromStatementASTNode">
<polygon fill="white" stroke="black" points="302.5,-301.5 302.5,-320.5 462.5,-320.5 462.5,-301.5 302.5,-301.5"/>
<text text-anchor="middle" x="382.5" y="-308.5" font-family="Helvetica,sans-Serif" font-size="10.00">elftosb::FromStatementASTNode</text>
</a>
</g>
</g>
<!-- Node1&#45;&gt;Node6 -->
<g id="edge5" class="edge"><title>Node1&#45;&gt;Node6</title>
<path fill="none" stroke="midnightblue" d="M218.334,-244.41C238.522,-258.664 270.484,-279.482 301,-292 310.167,-295.76 320.24,-298.874 330.066,-301.416"/>
<polygon fill="midnightblue" stroke="midnightblue" points="220.352,-241.55 210.187,-238.561 216.269,-247.236 220.352,-241.55"/>
</g>
<!-- Node7 -->
<g id="node7" class="node"><title>Node7</title>
<g id="a_node7"><a xlink:href="classelftosb_1_1_if_statement_a_s_t_node.html" target="_top" xlink:title="elftosb::IfStatementASTNode">
<polygon fill="white" stroke="black" points="311.5,-263.5 311.5,-282.5 453.5,-282.5 453.5,-263.5 311.5,-263.5"/>
<text text-anchor="middle" x="382.5" y="-270.5" font-family="Helvetica,sans-Serif" font-size="10.00">elftosb::IfStatementASTNode</text>
</a>
</g>
</g>
<!-- Node1&#45;&gt;Node7 -->
<g id="edge6" class="edge"><title>Node1&#45;&gt;Node7</title>
<path fill="none" stroke="midnightblue" d="M246.639,-240.925C263.83,-245.082 283.264,-249.765 301,-254 313.989,-257.102 328.165,-260.457 340.951,-263.473"/>
<polygon fill="midnightblue" stroke="midnightblue" points="247.349,-237.496 236.806,-238.545 245.703,-244.299 247.349,-237.496"/>
</g>
<!-- Node8 -->
<g id="node8" class="node"><title>Node8</title>
<g id="a_node8"><a xlink:href="classelftosb_1_1_keywrap_statement_a_s_t_node.html" target="_top" xlink:title="elftosb::KeywrapStatement\lASTNode">
<polygon fill="white" stroke="black" points="315.5,-214 315.5,-244 449.5,-244 449.5,-214 315.5,-214"/>
<text text-anchor="start" x="323.5" y="-232" font-family="Helvetica,sans-Serif" font-size="10.00">elftosb::KeywrapStatement</text>
<text text-anchor="middle" x="382.5" y="-221" font-family="Helvetica,sans-Serif" font-size="10.00">ASTNode</text>
</a>
</g>
</g>
<!-- Node1&#45;&gt;Node8 -->
<g id="edge7" class="edge"><title>Node1&#45;&gt;Node8</title>
<path fill="none" stroke="midnightblue" d="M275.34,-229C288.688,-229 302.443,-229 315.445,-229"/>
<polygon fill="midnightblue" stroke="midnightblue" points="275.231,-225.5 265.231,-229 275.231,-232.5 275.231,-225.5"/>
</g>
<!-- Node9 -->
<g id="node9" class="node"><title>Node9</title>
<g id="a_node9"><a xlink:href="classelftosb_1_1_load_statement_a_s_t_node.html" target="_top" xlink:title="AST node for a load statement. ">
<polygon fill="white" stroke="black" points="303.5,-175.5 303.5,-194.5 461.5,-194.5 461.5,-175.5 303.5,-175.5"/>
<text text-anchor="middle" x="382.5" y="-182.5" font-family="Helvetica,sans-Serif" font-size="10.00">elftosb::LoadStatementASTNode</text>
</a>
</g>
</g>
<!-- Node1&#45;&gt;Node9 -->
<g id="edge8" class="edge"><title>Node1&#45;&gt;Node9</title>
<path fill="none" stroke="midnightblue" d="M246.639,-217.075C263.83,-212.918 283.264,-208.235 301,-204 313.989,-200.898 328.165,-197.543 340.951,-194.527"/>
<polygon fill="midnightblue" stroke="midnightblue" points="245.703,-213.701 236.806,-219.455 247.349,-220.504 245.703,-213.701"/>
</g>
<!-- Node10 -->
<g id="node10" class="node"><title>Node10</title>
<g id="a_node10"><a xlink:href="classelftosb_1_1_mem_enable_statement_a_s_t_node.html" target="_top" xlink:title="Statement to insert a ROM_MEM_ENABLE_CMD command. ">
<polygon fill="white" stroke="black" points="308.5,-126 308.5,-156 456.5,-156 456.5,-126 308.5,-126"/>
<text text-anchor="start" x="316.5" y="-144" font-family="Helvetica,sans-Serif" font-size="10.00">elftosb::MemEnableStatement</text>
<text text-anchor="middle" x="382.5" y="-133" font-family="Helvetica,sans-Serif" font-size="10.00">ASTNode</text>
</a>
</g>
</g>
<!-- Node1&#45;&gt;Node10 -->
<g id="edge9" class="edge"><title>Node1&#45;&gt;Node10</title>
<path fill="none" stroke="midnightblue" d="M219.22,-213.597C239.585,-199.693 271.271,-179.418 301,-166 309.137,-162.328 317.966,-158.986 326.697,-156.026"/>
<polygon fill="midnightblue" stroke="midnightblue" points="217.197,-210.74 210.965,-219.308 221.18,-216.497 217.197,-210.74"/>
</g>
<!-- Node11 -->
<g id="node11" class="node"><title>Node11</title>
<g id="a_node11"><a xlink:href="classelftosb_1_1_message_statement_a_s_t_node.html" target="_top" xlink:title="Statement to print a message to the elftosb user. ">
<polygon fill="white" stroke="black" points="314.5,-77 314.5,-107 450.5,-107 450.5,-77 314.5,-77"/>
<text text-anchor="start" x="322.5" y="-95" font-family="Helvetica,sans-Serif" font-size="10.00">elftosb::MessageStatement</text>
<text text-anchor="middle" x="382.5" y="-84" font-family="Helvetica,sans-Serif" font-size="10.00">ASTNode</text>
</a>
</g>
</g>
<!-- Node1&#45;&gt;Node11 -->
<g id="edge10" class="edge"><title>Node1&#45;&gt;Node11</title>
<path fill="none" stroke="midnightblue" d="M209.484,-210.644C226.759,-185.617 261.014,-141.041 301,-116 306.438,-112.594 312.385,-109.65 318.505,-107.11"/>
<polygon fill="midnightblue" stroke="midnightblue" points="206.405,-208.95 203.718,-219.198 212.21,-212.862 206.405,-208.95"/>
</g>
<!-- Node12 -->
<g id="node12" class="node"><title>Node12</title>
<g id="a_node12"><a xlink:href="classelftosb_1_1_mode_statement_a_s_t_node.html" target="_top" xlink:title="Statement to insert a ROM_MODE_CMD command. ">
<polygon fill="white" stroke="black" points="302,-38.5 302,-57.5 463,-57.5 463,-38.5 302,-38.5"/>
<text text-anchor="middle" x="382.5" y="-45.5" font-family="Helvetica,sans-Serif" font-size="10.00">elftosb::ModeStatementASTNode</text>
</a>
</g>
</g>
<!-- Node1&#45;&gt;Node12 -->
<g id="edge11" class="edge"><title>Node1&#45;&gt;Node12</title>
<path fill="none" stroke="midnightblue" d="M204.383,-209.289C217.491,-174.774 249.419,-103.593 301,-67 306.505,-63.0949 312.701,-59.9833 319.15,-57.5054"/>
<polygon fill="midnightblue" stroke="midnightblue" points="200.936,-208.522 200.787,-219.116 207.51,-210.928 200.936,-208.522"/>
</g>
<!-- Node13 -->
<g id="node13" class="node"><title>Node13</title>
<g id="a_node13"><a xlink:href="classelftosb_1_1_reset_statement_a_s_t_node.html" target="_top" xlink:title="Statement to insert a ROM_RESET_CMD command. ">
<polygon fill="white" stroke="black" points="301,-0.5 301,-19.5 464,-19.5 464,-0.5 301,-0.5"/>
<text text-anchor="middle" x="382.5" y="-7.5" font-family="Helvetica,sans-Serif" font-size="10.00">elftosb::ResetStatementASTNode</text>
</a>
</g>
</g>
<!-- Node1&#45;&gt;Node13 -->
<g id="edge12" class="edge"><title>Node1&#45;&gt;Node13</title>
<path fill="none" stroke="midnightblue" d="M201.854,-209.283C211.857,-168.823 240.421,-76.2602 301,-29 305.982,-25.1136 311.629,-22.0019 317.566,-19.5134"/>
<polygon fill="midnightblue" stroke="midnightblue" points="198.397,-208.696 199.514,-219.232 205.211,-210.299 198.397,-208.696"/>
</g>
<!-- Node2 -->
<g id="node2" class="node"><title>Node2</title>
<g id="a_node2"><a xlink:href="classelftosb_1_1_a_s_t_node.html" target="_top" xlink:title="The base class for all AST node classes. ">
<polygon fill="white" stroke="black" points="0,-219.5 0,-238.5 92,-238.5 92,-219.5 0,-219.5"/>
<text text-anchor="middle" x="46" y="-226.5" font-family="Helvetica,sans-Serif" font-size="10.00">elftosb::ASTNode</text>
</a>
</g>
</g>
<!-- Node2&#45;&gt;Node1 -->
<g id="edge1" class="edge"><title>Node2&#45;&gt;Node1</title>
<path fill="none" stroke="midnightblue" d="M102.633,-229C110.908,-229 119.513,-229 127.999,-229"/>
<polygon fill="midnightblue" stroke="midnightblue" points="102.362,-225.5 92.3618,-229 102.362,-232.5 102.362,-225.5"/>
</g>
</g>
</svg>
