<?xml version="1.0" encoding="UTF-8" standalone="no"?>
<!DOCTYPE svg PUBLIC "-//W3C//DTD SVG 1.1//EN"
 "http://www.w3.org/Graphics/SVG/1.1/DTD/svg11.dtd">
<!-- Generated by graphviz version 2.38.0 (20140413.2041)
 -->
<!-- Title: AESKey&lt; S &gt; Pages: 1 -->
<svg width="87pt" height="84pt"
 viewBox="0.00 0.00 87.00 84.00" xmlns="http://www.w3.org/2000/svg" xmlns:xlink="http://www.w3.org/1999/xlink">
<g id="graph0" class="graph" transform="scale(1 1) rotate(0) translate(4 80)">
<title>AESKey&lt; S &gt;</title>
<polygon fill="white" stroke="none" points="-4,4 -4,-80 83,-80 83,4 -4,4"/>
<!-- Node1 -->
<g id="node1" class="node"><title>Node1</title>
<polygon fill="#bfbfbf" stroke="black" points="0,-0.5 0,-19.5 79,-19.5 79,-0.5 0,-0.5"/>
<text text-anchor="middle" x="39.5" y="-7.5" font-family="Helvetica,sans-Serif" font-size="10.00">AESKey&lt; S &gt;</text>
</g>
<!-- Node2 -->
<g id="node2" class="node"><title>Node2</title>
<g id="a_node2"><a xlink:href="class_a_e_s_key_base.html" target="_top" xlink:title="Base class for AESKey&lt;S&gt;. ">
<polygon fill="white" stroke="black" points="1,-56.5 1,-75.5 78,-75.5 78,-56.5 1,-56.5"/>
<text text-anchor="middle" x="39.5" y="-63.5" font-family="Helvetica,sans-Serif" font-size="10.00">AESKeyBase</text>
</a>
</g>
</g>
<!-- Node2&#45;&gt;Node1 -->
<g id="edge1" class="edge"><title>Node2&#45;&gt;Node1</title>
<path fill="none" stroke="midnightblue" d="M33.0276,-46.1005C32.3956,-37.1357 32.8427,-26.8579 34.369,-19.7511"/>
<polygon fill="midnightblue" stroke="midnightblue" points="29.5658,-46.6216 34.3337,-56.083 36.5067,-45.7134 29.5658,-46.6216"/>
</g>
<!-- Node2&#45;&gt;Node1 -->
<g id="edge2" class="edge"><title>Node2&#45;&gt;Node1</title>
<path fill="none" stroke="midnightblue" d="M45.9724,-46.1005C46.6044,-37.1357 46.1573,-26.8579 44.631,-19.7511"/>
<polygon fill="midnightblue" stroke="midnightblue" points="42.4933,-45.7134 44.6663,-56.083 49.4342,-46.6216 42.4933,-45.7134"/>
</g>
</g>
</svg>
