<?xml version="1.0" encoding="UTF-8" standalone="no"?>
<!DOCTYPE svg PUBLIC "-//W3C//DTD SVG 1.1//EN"
 "http://www.w3.org/Graphics/SVG/1.1/DTD/svg11.dtd">
<!-- Generated by graphviz version 2.38.0 (20140413.2041)
 -->
<!-- Title: blfwk::StringMatcher Pages: 1 -->
<svg width="366pt" height="140pt"
 viewBox="0.00 0.00 366.00 140.00" xmlns="http://www.w3.org/2000/svg" xmlns:xlink="http://www.w3.org/1999/xlink">
<g id="graph0" class="graph" transform="scale(1 1) rotate(0) translate(4 136)">
<title>blfwk::StringMatcher</title>
<polygon fill="white" stroke="none" points="-4,4 -4,-136 362,-136 362,4 -4,4"/>
<!-- Node1 -->
<g id="node1" class="node"><title>Node1</title>
<polygon fill="#bfbfbf" stroke="black" points="119.5,-112.5 119.5,-131.5 224.5,-131.5 224.5,-112.5 119.5,-112.5"/>
<text text-anchor="middle" x="172" y="-119.5" font-family="Helvetica,sans-Serif" font-size="10.00">blfwk::StringMatcher</text>
</g>
<!-- Node2 -->
<g id="node2" class="node"><title>Node2</title>
<g id="a_node2"><a xlink:href="classblfwk_1_1_fixed_matcher.html" target="_top" xlink:title="Simple string matcher that compares against a fixed value. ">
<polygon fill="white" stroke="black" points="0,-56.5 0,-75.5 104,-75.5 104,-56.5 0,-56.5"/>
<text text-anchor="middle" x="52" y="-63.5" font-family="Helvetica,sans-Serif" font-size="10.00">blfwk::FixedMatcher</text>
</a>
</g>
</g>
<!-- Node1&#45;&gt;Node2 -->
<g id="edge1" class="edge"><title>Node1&#45;&gt;Node2</title>
<path fill="none" stroke="midnightblue" d="M143.627,-108.232C121.18,-98.1312 90.4648,-84.3091 70.9254,-75.5164"/>
<polygon fill="midnightblue" stroke="midnightblue" points="142.43,-111.532 152.986,-112.444 145.303,-105.148 142.43,-111.532"/>
</g>
<!-- Node3 -->
<g id="node3" class="node"><title>Node3</title>
<g id="a_node3"><a xlink:href="classblfwk_1_1_glob_matcher.html" target="_top" xlink:title="This class uses glob pattern matching to match strings. ">
<polygon fill="white" stroke="black" points="122,-56.5 122,-75.5 222,-75.5 222,-56.5 122,-56.5"/>
<text text-anchor="middle" x="172" y="-63.5" font-family="Helvetica,sans-Serif" font-size="10.00">blfwk::GlobMatcher</text>
</a>
</g>
</g>
<!-- Node1&#45;&gt;Node3 -->
<g id="edge2" class="edge"><title>Node1&#45;&gt;Node3</title>
<path fill="none" stroke="midnightblue" d="M172,-101.805C172,-92.9102 172,-82.7798 172,-75.7511"/>
<polygon fill="midnightblue" stroke="midnightblue" points="168.5,-102.083 172,-112.083 175.5,-102.083 168.5,-102.083"/>
</g>
<!-- Node5 -->
<g id="node5" class="node"><title>Node5</title>
<g id="a_node5"><a xlink:href="classblfwk_1_1_wildcard_matcher.html" target="_top" xlink:title="String matcher subclass that matches all test strings. ">
<polygon fill="white" stroke="black" points="240,-56.5 240,-75.5 358,-75.5 358,-56.5 240,-56.5"/>
<text text-anchor="middle" x="299" y="-63.5" font-family="Helvetica,sans-Serif" font-size="10.00">blfwk::WildcardMatcher</text>
</a>
</g>
</g>
<!-- Node1&#45;&gt;Node5 -->
<g id="edge4" class="edge"><title>Node1&#45;&gt;Node5</title>
<path fill="none" stroke="midnightblue" d="M201.391,-108.503C225.2,-98.3795 258.106,-84.388 278.971,-75.5164"/>
<polygon fill="midnightblue" stroke="midnightblue" points="199.957,-105.31 192.124,-112.444 202.696,-111.751 199.957,-105.31"/>
</g>
<!-- Node4 -->
<g id="node4" class="node"><title>Node4</title>
<g id="a_node4"><a xlink:href="classblfwk_1_1_excludes_list_matcher.html" target="_top" xlink:title="Matches strings using a series of include and exclude glob patterns. ">
<polygon fill="white" stroke="black" points="104,-0.5 104,-19.5 240,-19.5 240,-0.5 104,-0.5"/>
<text text-anchor="middle" x="172" y="-7.5" font-family="Helvetica,sans-Serif" font-size="10.00">blfwk::ExcludesListMatcher</text>
</a>
</g>
</g>
<!-- Node3&#45;&gt;Node4 -->
<g id="edge3" class="edge"><title>Node3&#45;&gt;Node4</title>
<path fill="none" stroke="midnightblue" d="M172,-45.8045C172,-36.9102 172,-26.7798 172,-19.7511"/>
<polygon fill="midnightblue" stroke="midnightblue" points="168.5,-46.083 172,-56.083 175.5,-46.083 168.5,-46.083"/>
</g>
</g>
</svg>
