<?xml version="1.0" encoding="UTF-8" standalone="no"?>
<!DOCTYPE svg PUBLIC "-//W3C//DTD SVG 1.1//EN"
 "http://www.w3.org/Graphics/SVG/1.1/DTD/svg11.dtd">
<!-- Generated by graphviz version 2.38.0 (20140413.2041)
 -->
<!-- Title: blfwk::ExcludesListMatcher Pages: 1 -->
<svg width="272pt" height="319pt"
 viewBox="0.00 0.00 272.00 319.00" xmlns="http://www.w3.org/2000/svg" xmlns:xlink="http://www.w3.org/1999/xlink">
<g id="graph0" class="graph" transform="scale(1 1) rotate(0) translate(4 315)">
<title>blfwk::ExcludesListMatcher</title>
<polygon fill="white" stroke="none" points="-4,4 -4,-315 268,-315 268,4 -4,4"/>
<!-- Node1 -->
<g id="node1" class="node"><title>Node1</title>
<polygon fill="#bfbfbf" stroke="black" points="43.5,-0.5 43.5,-19.5 179.5,-19.5 179.5,-0.5 43.5,-0.5"/>
<text text-anchor="middle" x="111.5" y="-7.5" font-family="Helvetica,sans-Serif" font-size="10.00">blfwk::ExcludesListMatcher</text>
</g>
<!-- Node2 -->
<g id="node2" class="node"><title>Node2</title>
<g id="a_node2"><a xlink:href="classblfwk_1_1_glob_matcher.html" target="_top" xlink:title="This class uses glob pattern matching to match strings. ">
<polygon fill="white" stroke="black" points="2.5,-151 2.5,-170 102.5,-170 102.5,-151 2.5,-151"/>
<text text-anchor="middle" x="52.5" y="-158" font-family="Helvetica,sans-Serif" font-size="10.00">blfwk::GlobMatcher</text>
</a>
</g>
</g>
<!-- Node2&#45;&gt;Node1 -->
<g id="edge1" class="edge"><title>Node2&#45;&gt;Node1</title>
<path fill="none" stroke="midnightblue" d="M59.8139,-141.091C72.6456,-108.794 98.7375,-43.1226 108.078,-19.6123"/>
<polygon fill="midnightblue" stroke="midnightblue" points="56.4537,-140.07 56.014,-150.655 62.9591,-142.654 56.4537,-140.07"/>
</g>
<!-- Node3 -->
<g id="node3" class="node"><title>Node3</title>
<g id="a_node3"><a xlink:href="classblfwk_1_1_string_matcher.html" target="_top" xlink:title="Abstract interface class used to select strings by name. ">
<polygon fill="white" stroke="black" points="0,-223.5 0,-242.5 105,-242.5 105,-223.5 0,-223.5"/>
<text text-anchor="middle" x="52.5" y="-230.5" font-family="Helvetica,sans-Serif" font-size="10.00">blfwk::StringMatcher</text>
</a>
</g>
</g>
<!-- Node3&#45;&gt;Node2 -->
<g id="edge2" class="edge"><title>Node3&#45;&gt;Node2</title>
<path fill="none" stroke="midnightblue" d="M52.5,-212.942C52.5,-199.03 52.5,-180.82 52.5,-170.215"/>
<polygon fill="midnightblue" stroke="midnightblue" points="49.0001,-213.355 52.5,-223.355 56.0001,-213.355 49.0001,-213.355"/>
</g>
<!-- Node4 -->
<g id="node4" class="node"><title>Node4</title>
<g id="a_node4"><a xlink:title="STL class. ">
<polygon fill="white" stroke="#bfbfbf" points="124.5,-223.5 124.5,-242.5 184.5,-242.5 184.5,-223.5 124.5,-223.5"/>
<text text-anchor="middle" x="154.5" y="-230.5" font-family="Helvetica,sans-Serif" font-size="10.00">std::string</text>
</a>
</g>
</g>
<!-- Node4&#45;&gt;Node2 -->
<g id="edge3" class="edge"><title>Node4&#45;&gt;Node2</title>
<path fill="none" stroke="#9a32cd" stroke-dasharray="5,2" d="M133.598,-217.553C113.005,-203.319 82.2172,-182.04 65.1095,-170.215"/>
<polygon fill="#9a32cd" stroke="#9a32cd" points="131.776,-220.549 141.993,-223.355 135.757,-214.79 131.776,-220.549"/>
<text text-anchor="middle" x="137" y="-197" font-family="Helvetica,sans-Serif" font-size="10.00"> m_pattern</text>
</g>
<!-- Node7 -->
<g id="node7" class="node"><title>Node7</title>
<g id="a_node7"><a xlink:href="classelftosb_1_1_excludes_list_matcher.html#structelftosb_1_1_excludes_list_matcher_1_1glob__list__item__t" target="_top" xlink:title="Information about one glob pattern entry in a match list. ">
<polygon fill="white" stroke="black" points="121,-145.5 121,-175.5 264,-175.5 264,-145.5 121,-145.5"/>
<text text-anchor="start" x="129" y="-163.5" font-family="Helvetica,sans-Serif" font-size="10.00">elftosb::ExcludesListMatcher</text>
<text text-anchor="middle" x="192.5" y="-152.5" font-family="Helvetica,sans-Serif" font-size="10.00">::glob_list_item_t</text>
</a>
</g>
</g>
<!-- Node4&#45;&gt;Node7 -->
<g id="edge7" class="edge"><title>Node4&#45;&gt;Node7</title>
<path fill="none" stroke="#9a32cd" stroke-dasharray="5,2" d="M164.027,-214.324C170.486,-202.341 178.908,-186.717 184.913,-175.576"/>
<polygon fill="#9a32cd" stroke="#9a32cd" points="160.823,-212.892 159.16,-223.355 166.985,-216.213 160.823,-212.892"/>
<text text-anchor="middle" x="192" y="-197" font-family="Helvetica,sans-Serif" font-size="10.00"> m_glob</text>
</g>
<!-- Node5 -->
<g id="node5" class="node"><title>Node5</title>
<g id="a_node5"><a xlink:title="STL class. ">
<polygon fill="white" stroke="#bfbfbf" points="107,-280.5 107,-310.5 202,-310.5 202,-280.5 107,-280.5"/>
<text text-anchor="start" x="115" y="-298.5" font-family="Helvetica,sans-Serif" font-size="10.00">std::basic_string&lt;</text>
<text text-anchor="middle" x="154.5" y="-287.5" font-family="Helvetica,sans-Serif" font-size="10.00"> char &gt;</text>
</a>
</g>
</g>
<!-- Node5&#45;&gt;Node4 -->
<g id="edge4" class="edge"><title>Node5&#45;&gt;Node4</title>
<path fill="none" stroke="midnightblue" d="M154.5,-270.352C154.5,-260.513 154.5,-249.775 154.5,-242.54"/>
<polygon fill="midnightblue" stroke="midnightblue" points="151,-270.468 154.5,-280.468 158,-270.468 151,-270.468"/>
</g>
<!-- Node6 -->
<g id="node6" class="node"><title>Node6</title>
<polygon fill="white" stroke="#bfbfbf" points="117,-67.5 117,-97.5 224,-97.5 224,-67.5 117,-67.5"/>
<text text-anchor="start" x="125" y="-85.5" font-family="Helvetica,sans-Serif" font-size="10.00">std::vector&lt; glob_list</text>
<text text-anchor="middle" x="170.5" y="-74.5" font-family="Helvetica,sans-Serif" font-size="10.00">_item_t &gt;</text>
</g>
<!-- Node6&#45;&gt;Node1 -->
<g id="edge5" class="edge"><title>Node6&#45;&gt;Node1</title>
<path fill="none" stroke="#9a32cd" stroke-dasharray="5,2" d="M151.992,-59.3845C140.821,-46.0362 127.196,-29.7556 118.942,-19.8932"/>
<polygon fill="#9a32cd" stroke="#9a32cd" points="149.458,-61.8107 158.56,-67.2333 154.827,-57.3182 149.458,-61.8107"/>
<text text-anchor="middle" x="169.5" y="-41" font-family="Helvetica,sans-Serif" font-size="10.00"> m_patterns</text>
</g>
<!-- Node7&#45;&gt;Node6 -->
<g id="edge6" class="edge"><title>Node7&#45;&gt;Node6</title>
<path fill="none" stroke="#9a32cd" stroke-dasharray="5,2" d="M185.542,-135.463C181.949,-123.051 177.688,-108.33 174.619,-97.7309"/>
<polygon fill="#9a32cd" stroke="#9a32cd" points="182.219,-136.573 188.362,-145.205 188.943,-134.626 182.219,-136.573"/>
<text text-anchor="middle" x="204" y="-119" font-family="Helvetica,sans-Serif" font-size="10.00"> elements</text>
</g>
</g>
</svg>
