<?xml version="1.0" encoding="UTF-8" standalone="no"?>
<!DOCTYPE svg PUBLIC "-//W3C//DTD SVG 1.1//EN"
 "http://www.w3.org/Graphics/SVG/1.1/DTD/svg11.dtd">
<!-- Generated by graphviz version 2.38.0 (20140413.2041)
 -->
<!-- Title: elftosb::SectionContentsASTNode Pages: 1 -->
<svg width="1090pt" height="132pt"
 viewBox="0.00 0.00 1090.00 132.00" xmlns="http://www.w3.org/2000/svg" xmlns:xlink="http://www.w3.org/1999/xlink">
<g id="graph0" class="graph" transform="scale(1 1) rotate(0) translate(4 128)">
<title>elftosb::SectionContentsASTNode</title>
<polygon fill="white" stroke="none" points="-4,4 -4,-128 1086,-128 1086,4 -4,4"/>
<!-- Node1 -->
<g id="node1" class="node"><title>Node1</title>
<polygon fill="#bfbfbf" stroke="black" points="959,-62 959,-92 1082,-92 1082,-62 959,-62"/>
<text text-anchor="start" x="967" y="-80" font-family="Helvetica,sans-Serif" font-size="10.00">elftosb::SectionContents</text>
<text text-anchor="middle" x="1020.5" y="-69" font-family="Helvetica,sans-Serif" font-size="10.00">ASTNode</text>
</g>
<!-- Node2 -->
<g id="node2" class="node"><title>Node2</title>
<g id="a_node2"><a xlink:href="classelftosb_1_1_a_s_t_node.html" target="_top" xlink:title="The base class for all AST node classes. ">
<polygon fill="white" stroke="black" points="188,-63.5 188,-82.5 280,-82.5 280,-63.5 188,-63.5"/>
<text text-anchor="middle" x="234" y="-70.5" font-family="Helvetica,sans-Serif" font-size="10.00">elftosb::ASTNode</text>
</a>
</g>
</g>
<!-- Node2&#45;&gt;Node1 -->
<g id="edge1" class="edge"><title>Node2&#45;&gt;Node1</title>
<path fill="none" stroke="midnightblue" d="M264.24,-86.6398C299.359,-101.747 360.434,-124 415.5,-124 415.5,-124 415.5,-124 827.5,-124 882.236,-124 943.298,-105.755 981.555,-92.0003"/>
<polygon fill="midnightblue" stroke="midnightblue" points="265.612,-83.4197 255.049,-82.5927 262.791,-89.8261 265.612,-83.4197"/>
</g>
<!-- Node2&#45;&gt;Node2 -->
<g id="edge3" class="edge"><title>Node2&#45;&gt;Node2</title>
<path fill="none" stroke="#9a32cd" stroke-dasharray="5,2" d="M218.531,-92.7663C219.746,-97.4965 224.902,-101 234,-101 248.93,-101 253.245,-91.5653 246.947,-82.7571"/>
<polygon fill="#9a32cd" stroke="#9a32cd" points="222.003,-93.3092 221.053,-82.7571 215.216,-91.5986 222.003,-93.3092"/>
<text text-anchor="middle" x="234" y="-104" font-family="Helvetica,sans-Serif" font-size="10.00"> m_parent</text>
</g>
<!-- Node5 -->
<g id="node5" class="node"><title>Node5</title>
<g id="a_node5"><a xlink:href="classelftosb_1_1_list_a_s_t_node.html" target="_top" xlink:title="AST node that contains other AST nodes. ">
<polygon fill="white" stroke="black" points="540,-67.5 540,-86.5 648,-86.5 648,-67.5 540,-67.5"/>
<text text-anchor="middle" x="594" y="-74.5" font-family="Helvetica,sans-Serif" font-size="10.00">elftosb::ListASTNode</text>
</a>
</g>
</g>
<!-- Node2&#45;&gt;Node5 -->
<g id="edge6" class="edge"><title>Node2&#45;&gt;Node5</title>
<path fill="none" stroke="midnightblue" d="M290.435,-73.6194C358.451,-74.3793 472.95,-75.6587 539.887,-76.4066"/>
<polygon fill="midnightblue" stroke="midnightblue" points="290.379,-70.1186 280.341,-73.5066 290.301,-77.1182 290.379,-70.1186"/>
</g>
<!-- Node6 -->
<g id="node6" class="node"><title>Node6</title>
<polygon fill="white" stroke="#bfbfbf" points="359,-38.5 359,-57.5 474,-57.5 474,-38.5 359,-38.5"/>
<text text-anchor="middle" x="416.5" y="-45.5" font-family="Helvetica,sans-Serif" font-size="10.00">std::list&lt; ASTNode * &gt;</text>
</g>
<!-- Node2&#45;&gt;Node6 -->
<g id="edge8" class="edge"><title>Node2&#45;&gt;Node6</title>
<path fill="none" stroke="#9a32cd" stroke-dasharray="5,2" d="M289.927,-62.2762C292.653,-61.826 295.356,-61.3975 298,-61 317.788,-58.0254 339.547,-55.4309 358.906,-53.3584"/>
<polygon fill="#9a32cd" stroke="#9a32cd" points="289.27,-58.8378 280.009,-63.9848 290.458,-65.7361 289.27,-58.8378"/>
<text text-anchor="middle" x="319.5" y="-64" font-family="Helvetica,sans-Serif" font-size="10.00"> elements</text>
</g>
<!-- Node8 -->
<g id="node8" class="node"><title>Node8</title>
<g id="a_node8"><a xlink:href="classelftosb_1_1_expr_a_s_t_node.html" target="_top" xlink:title="Abstract base class for all expression AST nodes. ">
<polygon fill="white" stroke="black" points="360,-0.5 360,-19.5 473,-19.5 473,-0.5 360,-0.5"/>
<text text-anchor="middle" x="416.5" y="-7.5" font-family="Helvetica,sans-Serif" font-size="10.00">elftosb::ExprASTNode</text>
</a>
</g>
</g>
<!-- Node2&#45;&gt;Node8 -->
<g id="edge11" class="edge"><title>Node2&#45;&gt;Node8</title>
<path fill="none" stroke="midnightblue" d="M271.238,-59.963C295.935,-51.1221 329.398,-39.2286 359,-29 367.999,-25.8906 377.827,-22.5622 386.726,-19.5738"/>
<polygon fill="midnightblue" stroke="midnightblue" points="269.795,-56.7621 261.563,-63.431 272.157,-63.3516 269.795,-56.7621"/>
</g>
<!-- Node3 -->
<g id="node3" class="node"><title>Node3</title>
<g id="a_node3"><a xlink:href="structelftosb_1_1token__loc__t.html" target="_top" xlink:title="Token location in the source file. ">
<polygon fill="white" stroke="black" points="0,-63.5 0,-82.5 101,-82.5 101,-63.5 0,-63.5"/>
<text text-anchor="middle" x="50.5" y="-70.5" font-family="Helvetica,sans-Serif" font-size="10.00">elftosb::token_loc_t</text>
</a>
</g>
</g>
<!-- Node3&#45;&gt;Node2 -->
<g id="edge2" class="edge"><title>Node3&#45;&gt;Node2</title>
<path fill="none" stroke="#9a32cd" stroke-dasharray="5,2" d="M111.183,-73C136.134,-73 164.648,-73 187.814,-73"/>
<polygon fill="#9a32cd" stroke="#9a32cd" points="111.096,-69.5001 101.096,-73 111.096,-76.5001 111.096,-69.5001"/>
<text text-anchor="middle" x="144.5" y="-76" font-family="Helvetica,sans-Serif" font-size="10.00"> m_location</text>
</g>
<!-- Node4 -->
<g id="node4" class="node"><title>Node4</title>
<g id="a_node4"><a xlink:href="group__smart__pointer.html" target="_top" xlink:title="smart_ptr\&lt; elftosb\l::ListASTNode \&gt;">
<polygon fill="white" stroke="black" points="779,-62 779,-92 874,-92 874,-62 779,-62"/>
<text text-anchor="start" x="787" y="-80" font-family="Helvetica,sans-Serif" font-size="10.00">smart_ptr&lt; elftosb</text>
<text text-anchor="middle" x="826.5" y="-69" font-family="Helvetica,sans-Serif" font-size="10.00">::ListASTNode &gt;</text>
</a>
</g>
</g>
<!-- Node4&#45;&gt;Node1 -->
<g id="edge4" class="edge"><title>Node4&#45;&gt;Node1</title>
<path fill="none" stroke="#9a32cd" stroke-dasharray="5,2" d="M884.59,-77C907.989,-77 935.101,-77 958.856,-77"/>
<polygon fill="#9a32cd" stroke="#9a32cd" points="884.469,-73.5001 874.468,-77 884.468,-80.5001 884.469,-73.5001"/>
<text text-anchor="middle" x="916.5" y="-80" font-family="Helvetica,sans-Serif" font-size="10.00"> m_options</text>
</g>
<!-- Node5&#45;&gt;Node4 -->
<g id="edge5" class="edge"><title>Node5&#45;&gt;Node4</title>
<path fill="none" stroke="#9a32cd" stroke-dasharray="5,2" d="M658.639,-77C696.712,-77 744.255,-77 778.842,-77"/>
<polygon fill="#9a32cd" stroke="#9a32cd" points="658.171,-73.5001 648.171,-77 658.171,-80.5001 658.171,-73.5001"/>
<text text-anchor="middle" x="713.5" y="-80" font-family="Helvetica,sans-Serif" font-size="10.00"> _p</text>
</g>
<!-- Node6&#45;&gt;Node5 -->
<g id="edge7" class="edge"><title>Node6&#45;&gt;Node5</title>
<path fill="none" stroke="#9a32cd" stroke-dasharray="5,2" d="M484.061,-55.2893C496.693,-56.9528 509.778,-58.868 522,-61 532.331,-62.8023 543.427,-65.1178 553.705,-67.4242"/>
<polygon fill="#9a32cd" stroke="#9a32cd" points="484.416,-51.8063 474.053,-54.0099 483.529,-58.7498 484.416,-51.8063"/>
<text text-anchor="middle" x="507" y="-64" font-family="Helvetica,sans-Serif" font-size="10.00"> m_list</text>
</g>
<!-- Node7 -->
<g id="node7" class="node"><title>Node7</title>
<g id="a_node7"><a xlink:href="group__smart__pointer.html" target="_top" xlink:title="smart_ptr\&lt; elftosb\l::ExprASTNode \&gt;">
<polygon fill="white" stroke="black" points="666,-2 666,-32 761,-32 761,-2 666,-2"/>
<text text-anchor="start" x="674" y="-20" font-family="Helvetica,sans-Serif" font-size="10.00">smart_ptr&lt; elftosb</text>
<text text-anchor="middle" x="713.5" y="-9" font-family="Helvetica,sans-Serif" font-size="10.00">::ExprASTNode &gt;</text>
</a>
</g>
</g>
<!-- Node7&#45;&gt;Node1 -->
<g id="edge9" class="edge"><title>Node7&#45;&gt;Node1</title>
<path fill="none" stroke="#9a32cd" stroke-dasharray="5,2" d="M771.166,-24.2176C801.744,-28.4411 840.069,-34.2647 874,-41 903.863,-46.9278 936.821,-54.9568 963.808,-61.9282"/>
<polygon fill="#9a32cd" stroke="#9a32cd" points="771.492,-20.7298 761.111,-22.8477 770.547,-27.6657 771.492,-20.7298"/>
<text text-anchor="middle" x="826.5" y="-44" font-family="Helvetica,sans-Serif" font-size="10.00"> m_sectionExpr</text>
</g>
<!-- Node8&#45;&gt;Node7 -->
<g id="edge10" class="edge"><title>Node8&#45;&gt;Node7</title>
<path fill="none" stroke="#9a32cd" stroke-dasharray="5,2" d="M483.396,-11.5636C538.742,-12.8769 616.457,-14.721 665.639,-15.888"/>
<polygon fill="#9a32cd" stroke="#9a32cd" points="483.414,-8.06318 473.334,-11.3249 483.248,-15.0612 483.414,-8.06318"/>
<text text-anchor="middle" x="507" y="-16" font-family="Helvetica,sans-Serif" font-size="10.00"> _p</text>
</g>
</g>
</svg>
