<?xml version="1.0" encoding="UTF-8" standalone="no"?>
<!DOCTYPE svg PUBLIC "-//W3C//DTD SVG 1.1//EN"
 "http://www.w3.org/Graphics/SVG/1.1/DTD/svg11.dtd">
<!-- Generated by graphviz version 2.38.0 (20140413.2041)
 -->
<!-- Title: elftosb::EncoreBootImageReader Pages: 1 -->
<svg width="904pt" height="255pt"
 viewBox="0.00 0.00 904.00 255.00" xmlns="http://www.w3.org/2000/svg" xmlns:xlink="http://www.w3.org/1999/xlink">
<g id="graph0" class="graph" transform="scale(1 1) rotate(0) translate(4 251)">
<title>elftosb::EncoreBootImageReader</title>
<polygon fill="white" stroke="none" points="-4,4 -4,-251 900,-251 900,4 -4,4"/>
<!-- Node1 -->
<g id="node1" class="node"><title>Node1</title>
<polygon fill="#bfbfbf" stroke="black" points="768,-93.5 768,-123.5 896,-123.5 896,-93.5 768,-93.5"/>
<text text-anchor="start" x="776" y="-111.5" font-family="Helvetica,sans-Serif" font-size="10.00">elftosb::EncoreBootImage</text>
<text text-anchor="middle" x="832" y="-100.5" font-family="Helvetica,sans-Serif" font-size="10.00">Reader</text>
</g>
<!-- Node2 -->
<g id="node2" class="node"><title>Node2</title>
<polygon fill="white" stroke="#bfbfbf" points="527,-206.5 527,-236.5 675,-236.5 675,-206.5 527,-206.5"/>
<text text-anchor="start" x="535" y="-224.5" font-family="Helvetica,sans-Serif" font-size="10.00">std::vector&lt; EncoreBootImage</text>
<text text-anchor="middle" x="601" y="-213.5" font-family="Helvetica,sans-Serif" font-size="10.00">::boot_command_t &gt;</text>
</g>
<!-- Node2&#45;&gt;Node1 -->
<g id="edge1" class="edge"><title>Node2&#45;&gt;Node1</title>
<path fill="none" stroke="#9a32cd" stroke-dasharray="5,2" d="M652.558,-202.721C681.604,-191.342 718.464,-175.89 750,-159.5 770.791,-148.694 793.251,-134.32 809.235,-123.587"/>
<polygon fill="#9a32cd" stroke="#9a32cd" points="651.083,-199.539 643.026,-206.419 653.615,-206.065 651.083,-199.539"/>
<text text-anchor="middle" x="721.5" y="-189.5" font-family="Helvetica,sans-Serif" font-size="10.00"> m_bootTags</text>
</g>
<!-- Node3 -->
<g id="node3" class="node"><title>Node3</title>
<g id="a_node3"><a xlink:href="classelftosb_1_1_encore_boot_image.html#structelftosb_1_1_encore_boot_image_1_1boot__command__t" target="_top" xlink:title="Structure for a Piano bootloader command. ">
<polygon fill="white" stroke="black" points="265,-216.5 265,-246.5 393,-246.5 393,-216.5 265,-216.5"/>
<text text-anchor="start" x="273" y="-234.5" font-family="Helvetica,sans-Serif" font-size="10.00">elftosb::EncoreBootImage</text>
<text text-anchor="middle" x="329" y="-223.5" font-family="Helvetica,sans-Serif" font-size="10.00">::boot_command_t</text>
</a>
</g>
</g>
<!-- Node3&#45;&gt;Node2 -->
<g id="edge2" class="edge"><title>Node3&#45;&gt;Node2</title>
<path fill="none" stroke="#9a32cd" stroke-dasharray="5,2" d="M403.348,-228.783C441.616,-227.366 488.3,-225.637 526.578,-224.219"/>
<polygon fill="#9a32cd" stroke="#9a32cd" points="403.167,-225.288 393.303,-229.155 403.426,-232.283 403.167,-225.288"/>
<text text-anchor="middle" x="460" y="-230.5" font-family="Helvetica,sans-Serif" font-size="10.00"> elements</text>
</g>
<!-- Node4 -->
<g id="node4" class="node"><title>Node4</title>
<g id="a_node4"><a xlink:href="class_a_e_s_key.html" target="_top" xlink:title="AESKey\&lt; 128 \&gt;">
<polygon fill="white" stroke="black" points="557,-159 557,-178 645,-178 645,-159 557,-159"/>
<text text-anchor="middle" x="601" y="-166" font-family="Helvetica,sans-Serif" font-size="10.00">AESKey&lt; 128 &gt;</text>
</a>
</g>
</g>
<!-- Node4&#45;&gt;Node1 -->
<g id="edge3" class="edge"><title>Node4&#45;&gt;Node1</title>
<path fill="none" stroke="#9a32cd" stroke-dasharray="5,2" d="M648.074,-156.428C684.204,-146.962 734.689,-133.734 773.472,-123.573"/>
<polygon fill="#9a32cd" stroke="#9a32cd" points="647.072,-153.072 638.286,-158.993 648.846,-159.844 647.072,-153.072"/>
<text text-anchor="middle" x="721.5" y="-147.5" font-family="Helvetica,sans-Serif" font-size="10.00"> m_dek</text>
</g>
<!-- Node5 -->
<g id="node5" class="node"><title>Node5</title>
<g id="a_node5"><a xlink:href="class_a_e_s_key_base.html" target="_top" xlink:title="Base class for AESKey&lt;S&gt;. ">
<polygon fill="white" stroke="black" points="290.5,-178 290.5,-197 367.5,-197 367.5,-178 290.5,-178"/>
<text text-anchor="middle" x="329" y="-185" font-family="Helvetica,sans-Serif" font-size="10.00">AESKeyBase</text>
</a>
</g>
</g>
<!-- Node5&#45;&gt;Node4 -->
<g id="edge4" class="edge"><title>Node5&#45;&gt;Node4</title>
<path fill="none" stroke="midnightblue" d="M377.603,-178.86C428.368,-173.279 508.05,-167.736 556.985,-166.428"/>
<polygon fill="midnightblue" stroke="midnightblue" points="377.079,-175.398 367.542,-180.013 377.876,-182.352 377.079,-175.398"/>
</g>
<!-- Node5&#45;&gt;Node4 -->
<g id="edge5" class="edge"><title>Node5&#45;&gt;Node4</title>
<path fill="none" stroke="midnightblue" d="M377.603,-189.44C428.368,-187.876 508.05,-182.205 556.985,-176.626"/>
<polygon fill="midnightblue" stroke="midnightblue" points="377.447,-185.943 367.542,-189.703 377.631,-192.94 377.447,-185.943"/>
</g>
<!-- Node6 -->
<g id="node6" class="node"><title>Node6</title>
<polygon fill="white" stroke="#bfbfbf" points="314.5,-140 314.5,-159 343.5,-159 343.5,-140 314.5,-140"/>
<text text-anchor="middle" x="329" y="-147" font-family="Helvetica,sans-Serif" font-size="10.00">S</text>
</g>
<!-- Node6&#45;&gt;Node4 -->
<g id="edge6" class="edge"><title>Node6&#45;&gt;Node4</title>
<path fill="none" stroke="#9a32cd" stroke-dasharray="5,2" d="M353.95,-150.771C388.298,-152.64 453.527,-156.358 509,-160.5 524.657,-161.669 541.814,-163.13 556.969,-164.483"/>
<polygon fill="#9a32cd" stroke="#9a32cd" points="354.108,-147.275 343.934,-150.231 353.731,-154.264 354.108,-147.275"/>
<text text-anchor="middle" x="460" y="-163.5" font-family="Helvetica,sans-Serif" font-size="10.00"> m_key</text>
</g>
<!-- Node7 -->
<g id="node7" class="node"><title>Node7</title>
<g id="a_node7"><a xlink:title="STL class. ">
<polygon fill="white" stroke="#bfbfbf" points="567,-99 567,-118 635,-118 635,-99 567,-99"/>
<text text-anchor="middle" x="601" y="-106" font-family="Helvetica,sans-Serif" font-size="10.00">std::istream</text>
</a>
</g>
</g>
<!-- Node7&#45;&gt;Node1 -->
<g id="edge7" class="edge"><title>Node7&#45;&gt;Node1</title>
<path fill="none" stroke="#9a32cd" stroke-dasharray="5,2" d="M645.543,-108.5C680.114,-108.5 728.931,-108.5 767.803,-108.5"/>
<polygon fill="#9a32cd" stroke="#9a32cd" points="645.299,-105 635.299,-108.5 645.299,-112 645.299,-105"/>
<text text-anchor="middle" x="721.5" y="-111.5" font-family="Helvetica,sans-Serif" font-size="10.00"> m_stream</text>
</g>
<!-- Node8 -->
<g id="node8" class="node"><title>Node8</title>
<g id="a_node8"><a xlink:title="STL class. ">
<polygon fill="white" stroke="#bfbfbf" points="280.5,-90.5 280.5,-120.5 377.5,-120.5 377.5,-90.5 280.5,-90.5"/>
<text text-anchor="start" x="288.5" y="-108.5" font-family="Helvetica,sans-Serif" font-size="10.00">std::basic_istream</text>
<text text-anchor="middle" x="329" y="-97.5" font-family="Helvetica,sans-Serif" font-size="10.00">&lt; char &gt;</text>
</a>
</g>
</g>
<!-- Node8&#45;&gt;Node7 -->
<g id="edge8" class="edge"><title>Node8&#45;&gt;Node7</title>
<path fill="none" stroke="midnightblue" d="M387.869,-106.143C442.441,-106.749 522.319,-107.637 566.86,-108.132"/>
<polygon fill="midnightblue" stroke="midnightblue" points="387.687,-102.641 377.649,-106.029 387.61,-109.64 387.687,-102.641"/>
</g>
<!-- Node9 -->
<g id="node9" class="node"><title>Node9</title>
<g id="a_node9"><a xlink:title="STL class. ">
<polygon fill="white" stroke="#bfbfbf" points="112,-96 112,-115 228,-115 228,-96 112,-96"/>
<text text-anchor="middle" x="170" y="-103" font-family="Helvetica,sans-Serif" font-size="10.00">std::basic_ios&lt; Char &gt;</text>
</a>
</g>
</g>
<!-- Node9&#45;&gt;Node8 -->
<g id="edge9" class="edge"><title>Node9&#45;&gt;Node8</title>
<path fill="none" stroke="midnightblue" d="M238.336,-105.5C252.517,-105.5 267.194,-105.5 280.465,-105.5"/>
<polygon fill="midnightblue" stroke="midnightblue" points="238.125,-102 228.125,-105.5 238.125,-109 238.125,-102"/>
</g>
<!-- Node10 -->
<g id="node10" class="node"><title>Node10</title>
<g id="a_node10"><a xlink:title="STL class. ">
<polygon fill="white" stroke="#bfbfbf" points="0,-96 0,-115 75,-115 75,-96 0,-96"/>
<text text-anchor="middle" x="37.5" y="-103" font-family="Helvetica,sans-Serif" font-size="10.00">std::ios_base</text>
</a>
</g>
</g>
<!-- Node10&#45;&gt;Node9 -->
<g id="edge10" class="edge"><title>Node10&#45;&gt;Node9</title>
<path fill="none" stroke="midnightblue" d="M85.3188,-105.5C93.8367,-105.5 102.811,-105.5 111.593,-105.5"/>
<polygon fill="midnightblue" stroke="midnightblue" points="85.1988,-102 75.1988,-105.5 85.1988,-109 85.1988,-102"/>
</g>
<!-- Node11 -->
<g id="node11" class="node"><title>Node11</title>
<g id="a_node11"><a xlink:href="classelftosb_1_1_encore_boot_image.html#structelftosb_1_1_encore_boot_image_1_1boot__image__header__t" target="_top" xlink:title="Header for the entire boot image. ">
<polygon fill="white" stroke="black" points="537,-49.5 537,-79.5 665,-79.5 665,-49.5 537,-49.5"/>
<text text-anchor="start" x="545" y="-67.5" font-family="Helvetica,sans-Serif" font-size="10.00">elftosb::EncoreBootImage</text>
<text text-anchor="middle" x="601" y="-56.5" font-family="Helvetica,sans-Serif" font-size="10.00">::boot_image_header_t</text>
</a>
</g>
</g>
<!-- Node11&#45;&gt;Node1 -->
<g id="edge11" class="edge"><title>Node11&#45;&gt;Node1</title>
<path fill="none" stroke="#9a32cd" stroke-dasharray="5,2" d="M675.096,-78.5447C704.86,-84.2636 738.939,-90.8113 767.628,-96.3236"/>
<polygon fill="#9a32cd" stroke="#9a32cd" points="675.662,-75.0895 665.181,-76.6397 674.341,-81.9638 675.662,-75.0895"/>
<text text-anchor="middle" x="721.5" y="-95.5" font-family="Helvetica,sans-Serif" font-size="10.00"> m_header</text>
</g>
<!-- Node12 -->
<g id="node12" class="node"><title>Node12</title>
<g id="a_node12"><a xlink:href="structelftosb_1_1version__t.html" target="_top" xlink:title="Same version struct used for 3600 boot image. ">
<polygon fill="white" stroke="black" points="284.5,-52 284.5,-71 373.5,-71 373.5,-52 284.5,-52"/>
<text text-anchor="middle" x="329" y="-59" font-family="Helvetica,sans-Serif" font-size="10.00">elftosb::version_t</text>
</a>
</g>
</g>
<!-- Node12&#45;&gt;Node11 -->
<g id="edge12" class="edge"><title>Node12&#45;&gt;Node11</title>
<path fill="none" stroke="#9a32cd" stroke-dasharray="5,2" d="M383.923,-62.0991C428.057,-62.5895 490.553,-63.2839 536.988,-63.7999"/>
<polygon fill="#9a32cd" stroke="#9a32cd" points="383.719,-58.5968 373.68,-61.9853 383.641,-65.5963 383.719,-58.5968"/>
<text text-anchor="middle" x="460" y="-77.5" font-family="Helvetica,sans-Serif" font-size="10.00"> m_componentVersion</text>
<text text-anchor="middle" x="460" y="-66.5" font-family="Helvetica,sans-Serif" font-size="10.00">m_productVersion</text>
</g>
<!-- Node13 -->
<g id="node13" class="node"><title>Node13</title>
<polygon fill="white" stroke="#bfbfbf" points="527,-0.5 527,-30.5 675,-30.5 675,-0.5 527,-0.5"/>
<text text-anchor="start" x="535" y="-18.5" font-family="Helvetica,sans-Serif" font-size="10.00">std::vector&lt; EncoreBootImage</text>
<text text-anchor="middle" x="601" y="-7.5" font-family="Helvetica,sans-Serif" font-size="10.00">::section_header_t &gt;</text>
</g>
<!-- Node13&#45;&gt;Node1 -->
<g id="edge13" class="edge"><title>Node13&#45;&gt;Node1</title>
<path fill="none" stroke="#9a32cd" stroke-dasharray="5,2" d="M658.738,-33.837C664.247,-35.7122 669.739,-37.6196 675,-39.5 708.653,-51.5293 717.278,-54.129 750,-68.5 767.519,-76.1942 786.736,-85.6393 802.054,-93.4191"/>
<polygon fill="#9a32cd" stroke="#9a32cd" points="659.448,-30.3828 648.853,-30.5091 657.214,-37.0169 659.448,-30.3828"/>
<text text-anchor="middle" x="721.5" y="-71.5" font-family="Helvetica,sans-Serif" font-size="10.00"> m_sections</text>
</g>
<!-- Node14 -->
<g id="node14" class="node"><title>Node14</title>
<g id="a_node14"><a xlink:href="classelftosb_1_1_encore_boot_image.html#structelftosb_1_1_encore_boot_image_1_1section__header__t" target="_top" xlink:title="Information about each section, held in the section table. ">
<polygon fill="white" stroke="black" points="265,-0.5 265,-30.5 393,-30.5 393,-0.5 265,-0.5"/>
<text text-anchor="start" x="273" y="-18.5" font-family="Helvetica,sans-Serif" font-size="10.00">elftosb::EncoreBootImage</text>
<text text-anchor="middle" x="329" y="-7.5" font-family="Helvetica,sans-Serif" font-size="10.00">::section_header_t</text>
</a>
</g>
</g>
<!-- Node14&#45;&gt;Node13 -->
<g id="edge14" class="edge"><title>Node14&#45;&gt;Node13</title>
<path fill="none" stroke="#9a32cd" stroke-dasharray="5,2" d="M403.348,-15.5C441.616,-15.5 488.3,-15.5 526.578,-15.5"/>
<polygon fill="#9a32cd" stroke="#9a32cd" points="403.303,-12.0001 393.303,-15.5 403.303,-19.0001 403.303,-12.0001"/>
<text text-anchor="middle" x="460" y="-18.5" font-family="Helvetica,sans-Serif" font-size="10.00"> elements</text>
</g>
</g>
</svg>
