<?xml version="1.0" encoding="UTF-8" standalone="no"?>
<!DOCTYPE svg PUBLIC "-//W3C//DTD SVG 1.1//EN"
 "http://www.w3.org/Graphics/SVG/1.1/DTD/svg11.dtd">
<!-- Generated by graphviz version 2.38.0 (20140413.2041)
 -->
<!-- Title: blfwk::FlashImage Pages: 1 -->
<svg width="1266pt" height="324pt"
 viewBox="0.00 0.00 1266.00 323.50" xmlns="http://www.w3.org/2000/svg" xmlns:xlink="http://www.w3.org/1999/xlink">
<g id="graph0" class="graph" transform="scale(1 1) rotate(0) translate(4 319.5)">
<title>blfwk::FlashImage</title>
<polygon fill="white" stroke="none" points="-4,4 -4,-319.5 1262,-319.5 1262,4 -4,4"/>
<!-- Node1 -->
<g id="node1" class="node"><title>Node1</title>
<polygon fill="#bfbfbf" stroke="black" points="1163,-161.5 1163,-180.5 1258,-180.5 1258,-161.5 1163,-161.5"/>
<text text-anchor="middle" x="1210.5" y="-168.5" font-family="Helvetica,sans-Serif" font-size="10.00">blfwk::FlashImage</text>
</g>
<!-- Node2 -->
<g id="node2" class="node"><title>Node2</title>
<g id="a_node2"><a xlink:href="classblfwk_1_1_command.html" target="_top" xlink:title="Represents a bootloader command. ">
<polygon fill="white" stroke="black" points="975,-84.5 975,-103.5 1064,-103.5 1064,-84.5 975,-84.5"/>
<text text-anchor="middle" x="1019.5" y="-91.5" font-family="Helvetica,sans-Serif" font-size="10.00">blfwk::Command</text>
</a>
</g>
</g>
<!-- Node2&#45;&gt;Node1 -->
<g id="edge1" class="edge"><title>Node2&#45;&gt;Node1</title>
<path fill="none" stroke="midnightblue" d="M1053.62,-107.494C1091.51,-122.931 1152.61,-147.822 1185.95,-161.404"/>
<polygon fill="midnightblue" stroke="midnightblue" points="1054.64,-104.128 1044.05,-103.596 1052,-110.611 1054.64,-104.128"/>
</g>
<!-- Node3 -->
<g id="node3" class="node"><title>Node3</title>
<polygon fill="white" stroke="#bfbfbf" points="729,-123.5 729,-142.5 843,-142.5 843,-123.5 729,-123.5"/>
<text text-anchor="middle" x="786" y="-130.5" font-family="Helvetica,sans-Serif" font-size="10.00">std::vector&lt; uint32_t &gt;</text>
</g>
<!-- Node3&#45;&gt;Node2 -->
<g id="edge2" class="edge"><title>Node3&#45;&gt;Node2</title>
<path fill="none" stroke="#9a32cd" stroke-dasharray="5,2" d="M853.038,-124.378C884.334,-119.999 922.187,-114.279 956,-108 963.106,-106.68 970.633,-105.128 977.909,-103.547"/>
<polygon fill="#9a32cd" stroke="#9a32cd" points="852.545,-120.913 843.12,-125.752 853.506,-127.846 852.545,-120.913"/>
<text text-anchor="middle" x="912.5" y="-125" font-family="Helvetica,sans-Serif" font-size="10.00"> m_responseValues</text>
</g>
<!-- Node4 -->
<g id="node4" class="node"><title>Node4</title>
<g id="a_node4"><a xlink:title="STL class. ">
<polygon fill="white" stroke="#bfbfbf" points="558.5,-123.5 558.5,-142.5 618.5,-142.5 618.5,-123.5 558.5,-123.5"/>
<text text-anchor="middle" x="588.5" y="-130.5" font-family="Helvetica,sans-Serif" font-size="10.00">std::string</text>
</a>
</g>
</g>
<!-- Node4&#45;&gt;Node1 -->
<g id="edge18" class="edge"><title>Node4&#45;&gt;Node1</title>
<path fill="none" stroke="#9a32cd" stroke-dasharray="5,2" d="M628.528,-139.732C654.623,-143.963 689.77,-149.144 721,-152 882.857,-166.8 1075.91,-170.09 1162.92,-170.808"/>
<polygon fill="#9a32cd" stroke="#9a32cd" points="629.08,-136.276 618.644,-138.105 627.943,-143.183 629.08,-136.276"/>
<text text-anchor="middle" x="912.5" y="-170" font-family="Helvetica,sans-Serif" font-size="10.00"> m_fileName</text>
</g>
<!-- Node4&#45;&gt;Node2 -->
<g id="edge3" class="edge"><title>Node4&#45;&gt;Node2</title>
<path fill="none" stroke="#9a32cd" stroke-dasharray="5,2" d="M628.552,-121.996C654.525,-115.197 689.525,-107.028 721,-103 810.696,-91.5223 916.783,-91.531 974.936,-92.6857"/>
<polygon fill="#9a32cd" stroke="#9a32cd" points="627.476,-118.66 618.715,-124.617 629.279,-125.424 627.476,-118.66"/>
<text text-anchor="middle" x="786" y="-106" font-family="Helvetica,sans-Serif" font-size="10.00"> m_responseDetails</text>
</g>
<!-- Node7 -->
<g id="node7" class="node"><title>Node7</title>
<polygon fill="white" stroke="#bfbfbf" points="724.5,-0.5 724.5,-19.5 847.5,-19.5 847.5,-0.5 724.5,-0.5"/>
<text text-anchor="middle" x="786" y="-7.5" font-family="Helvetica,sans-Serif" font-size="10.00">std::vector&lt; std::string &gt;</text>
</g>
<!-- Node4&#45;&gt;Node7 -->
<g id="edge7" class="edge"><title>Node4&#45;&gt;Node7</title>
<path fill="none" stroke="#9a32cd" stroke-dasharray="5,2" d="M605.591,-115.998C628.781,-92.5754 674.001,-50.8109 721,-29 728.885,-25.3408 737.643,-22.1948 746.086,-19.5755"/>
<polygon fill="#9a32cd" stroke="#9a32cd" points="602.802,-113.845 598.34,-123.455 607.821,-118.725 602.802,-113.845"/>
<text text-anchor="middle" x="681.5" y="-69" font-family="Helvetica,sans-Serif" font-size="10.00"> elements</text>
</g>
<!-- Node8 -->
<g id="node8" class="node"><title>Node8</title>
<g id="a_node8"><a xlink:href="classblfwk_1_1_source_file.html" target="_top" xlink:title="Abstract base class for a source file containing executable code. ">
<polygon fill="white" stroke="black" points="974,-225.5 974,-244.5 1065,-244.5 1065,-225.5 974,-225.5"/>
<text text-anchor="middle" x="1019.5" y="-232.5" font-family="Helvetica,sans-Serif" font-size="10.00">blfwk::SourceFile</text>
</a>
</g>
</g>
<!-- Node4&#45;&gt;Node8 -->
<g id="edge9" class="edge"><title>Node4&#45;&gt;Node8</title>
<path fill="none" stroke="#9a32cd" stroke-dasharray="5,2" d="M606.503,-149.38C619.922,-161.294 639.706,-176.728 660,-185 716.084,-207.86 890.948,-224.641 973.932,-231.538"/>
<polygon fill="#9a32cd" stroke="#9a32cd" points="608.757,-146.698 599.023,-142.513 604.023,-151.854 608.757,-146.698"/>
<text text-anchor="middle" x="786" y="-222" font-family="Helvetica,sans-Serif" font-size="10.00"> m_path</text>
</g>
<!-- Node5 -->
<g id="node5" class="node"><title>Node5</title>
<g id="a_node5"><a xlink:title="STL class. ">
<polygon fill="white" stroke="#bfbfbf" points="401,-118 401,-148 496,-148 496,-118 401,-118"/>
<text text-anchor="start" x="409" y="-136" font-family="Helvetica,sans-Serif" font-size="10.00">std::basic_string&lt;</text>
<text text-anchor="middle" x="448.5" y="-125" font-family="Helvetica,sans-Serif" font-size="10.00"> char &gt;</text>
</a>
</g>
</g>
<!-- Node5&#45;&gt;Node4 -->
<g id="edge4" class="edge"><title>Node5&#45;&gt;Node4</title>
<path fill="none" stroke="midnightblue" d="M506.504,-133C524.246,-133 543.08,-133 558.118,-133"/>
<polygon fill="midnightblue" stroke="midnightblue" points="506.221,-129.5 496.221,-133 506.22,-136.5 506.221,-129.5"/>
</g>
<!-- Node6 -->
<g id="node6" class="node"><title>Node6</title>
<g id="a_node6"><a xlink:href="classblfwk_1_1_progress.html" target="_top" xlink:title="Contains the callback function for progress and abort phase. ">
<polygon fill="white" stroke="black" points="744.5,-38.5 744.5,-57.5 827.5,-57.5 827.5,-38.5 744.5,-38.5"/>
<text text-anchor="middle" x="786" y="-45.5" font-family="Helvetica,sans-Serif" font-size="10.00">blfwk::Progress</text>
</a>
</g>
</g>
<!-- Node6&#45;&gt;Node2 -->
<g id="edge5" class="edge"><title>Node6&#45;&gt;Node2</title>
<path fill="none" stroke="#9a32cd" stroke-dasharray="5,2" d="M837.967,-50.9101C871.84,-53.6764 917.079,-58.9761 956,-69 970.599,-72.76 986.355,-79.0786 998.395,-84.4226"/>
<polygon fill="#9a32cd" stroke="#9a32cd" points="838.079,-47.4084 827.84,-50.1305 837.541,-54.3878 838.079,-47.4084"/>
<text text-anchor="middle" x="912.5" y="-72" font-family="Helvetica,sans-Serif" font-size="10.00"> m_progress</text>
</g>
<!-- Node7&#45;&gt;Node2 -->
<g id="edge6" class="edge"><title>Node7&#45;&gt;Node2</title>
<path fill="none" stroke="#9a32cd" stroke-dasharray="5,2" d="M857.671,-13.436C889.006,-17.1137 925.583,-24.4642 956,-39 978.953,-49.9687 999.886,-71.8515 1010.73,-84.4571"/>
<polygon fill="#9a32cd" stroke="#9a32cd" points="858.013,-9.95258 847.696,-12.3665 857.266,-16.9127 858.013,-9.95258"/>
<text text-anchor="middle" x="912.5" y="-42" font-family="Helvetica,sans-Serif" font-size="10.00"> m_argv</text>
</g>
<!-- Node8&#45;&gt;Node1 -->
<g id="edge8" class="edge"><title>Node8&#45;&gt;Node1</title>
<path fill="none" stroke="#9a32cd" stroke-dasharray="5,2" d="M1058.54,-222.119C1094.84,-209.825 1148.71,-191.586 1181.32,-180.542"/>
<polygon fill="#9a32cd" stroke="#9a32cd" points="1057.14,-218.896 1048.8,-225.419 1059.39,-225.526 1057.14,-218.896"/>
<text text-anchor="middle" x="1114" y="-216" font-family="Helvetica,sans-Serif" font-size="10.00"> m_sourceFile</text>
</g>
<!-- Node9 -->
<g id="node9" class="node"><title>Node9</title>
<g id="a_node9"><a xlink:href="group__smart__pointer.html" target="_top" xlink:title="smart_ptr\&lt; std::ifstream \&gt;">
<polygon fill="white" stroke="black" points="721,-246.5 721,-265.5 851,-265.5 851,-246.5 721,-246.5"/>
<text text-anchor="middle" x="786" y="-253.5" font-family="Helvetica,sans-Serif" font-size="10.00">smart_ptr&lt; std::ifstream &gt;</text>
</a>
</g>
</g>
<!-- Node9&#45;&gt;Node8 -->
<g id="edge10" class="edge"><title>Node9&#45;&gt;Node8</title>
<path fill="none" stroke="#9a32cd" stroke-dasharray="5,2" d="M861.419,-249.249C898.389,-245.896 941.835,-241.954 973.654,-239.068"/>
<polygon fill="#9a32cd" stroke="#9a32cd" points="860.821,-245.789 851.178,-250.178 861.454,-252.76 860.821,-245.789"/>
<text text-anchor="middle" x="912.5" y="-250" font-family="Helvetica,sans-Serif" font-size="10.00"> m_stream</text>
</g>
<!-- Node10 -->
<g id="node10" class="node"><title>Node10</title>
<g id="a_node10"><a xlink:title="STL class. ">
<polygon fill="white" stroke="#bfbfbf" points="553,-246.5 553,-265.5 624,-265.5 624,-246.5 553,-246.5"/>
<text text-anchor="middle" x="588.5" y="-253.5" font-family="Helvetica,sans-Serif" font-size="10.00">std::ifstream</text>
</a>
</g>
</g>
<!-- Node10&#45;&gt;Node9 -->
<g id="edge11" class="edge"><title>Node10&#45;&gt;Node9</title>
<path fill="none" stroke="#9a32cd" stroke-dasharray="5,2" d="M634.176,-256C659.826,-256 692.473,-256 720.829,-256"/>
<polygon fill="#9a32cd" stroke="#9a32cd" points="634.001,-252.5 624.001,-256 634.001,-259.5 634.001,-252.5"/>
<text text-anchor="middle" x="681.5" y="-259" font-family="Helvetica,sans-Serif" font-size="10.00"> _p</text>
</g>
<!-- Node11 -->
<g id="node11" class="node"><title>Node11</title>
<g id="a_node11"><a xlink:title="STL class. ">
<polygon fill="white" stroke="#bfbfbf" points="399,-241 399,-271 498,-271 498,-241 399,-241"/>
<text text-anchor="start" x="407" y="-259" font-family="Helvetica,sans-Serif" font-size="10.00">std::basic_ifstream</text>
<text text-anchor="middle" x="448.5" y="-248" font-family="Helvetica,sans-Serif" font-size="10.00">&lt; char &gt;</text>
</a>
</g>
</g>
<!-- Node11&#45;&gt;Node10 -->
<g id="edge12" class="edge"><title>Node11&#45;&gt;Node10</title>
<path fill="none" stroke="midnightblue" d="M508.458,-256C523.546,-256 539.288,-256 552.716,-256"/>
<polygon fill="midnightblue" stroke="midnightblue" points="508.154,-252.5 498.154,-256 508.154,-259.5 508.154,-252.5"/>
</g>
<!-- Node12 -->
<g id="node12" class="node"><title>Node12</title>
<g id="a_node12"><a xlink:title="STL class. ">
<polygon fill="white" stroke="#bfbfbf" points="265,-241 265,-271 362,-271 362,-241 265,-241"/>
<text text-anchor="start" x="273" y="-259" font-family="Helvetica,sans-Serif" font-size="10.00">std::basic_istream</text>
<text text-anchor="middle" x="313.5" y="-248" font-family="Helvetica,sans-Serif" font-size="10.00">&lt; Char &gt;</text>
</a>
</g>
</g>
<!-- Node12&#45;&gt;Node11 -->
<g id="edge13" class="edge"><title>Node12&#45;&gt;Node11</title>
<path fill="none" stroke="midnightblue" d="M372.374,-256C381.205,-256 390.242,-256 398.849,-256"/>
<polygon fill="midnightblue" stroke="midnightblue" points="372.14,-252.5 362.14,-256 372.14,-259.5 372.14,-252.5"/>
</g>
<!-- Node13 -->
<g id="node13" class="node"><title>Node13</title>
<g id="a_node13"><a xlink:title="STL class. ">
<polygon fill="white" stroke="#bfbfbf" points="112,-246.5 112,-265.5 228,-265.5 228,-246.5 112,-246.5"/>
<text text-anchor="middle" x="170" y="-253.5" font-family="Helvetica,sans-Serif" font-size="10.00">std::basic_ios&lt; Char &gt;</text>
</a>
</g>
</g>
<!-- Node13&#45;&gt;Node12 -->
<g id="edge14" class="edge"><title>Node13&#45;&gt;Node12</title>
<path fill="none" stroke="midnightblue" d="M238.18,-256C247.124,-256 256.144,-256 264.667,-256"/>
<polygon fill="midnightblue" stroke="midnightblue" points="238.146,-252.5 228.146,-256 238.146,-259.5 238.146,-252.5"/>
</g>
<!-- Node14 -->
<g id="node14" class="node"><title>Node14</title>
<g id="a_node14"><a xlink:title="STL class. ">
<polygon fill="white" stroke="#bfbfbf" points="0,-246.5 0,-265.5 75,-265.5 75,-246.5 0,-246.5"/>
<text text-anchor="middle" x="37.5" y="-253.5" font-family="Helvetica,sans-Serif" font-size="10.00">std::ios_base</text>
</a>
</g>
</g>
<!-- Node14&#45;&gt;Node13 -->
<g id="edge15" class="edge"><title>Node14&#45;&gt;Node13</title>
<path fill="none" stroke="midnightblue" d="M85.3188,-256C93.8367,-256 102.811,-256 111.593,-256"/>
<polygon fill="midnightblue" stroke="midnightblue" points="85.1988,-252.5 75.1988,-256 85.1988,-259.5 85.1988,-252.5"/>
</g>
<!-- Node15 -->
<g id="node15" class="node"><title>Node15</title>
<g id="a_node15"><a xlink:href="group__smart__pointer.html" target="_top" xlink:title="smart_ptr\&lt; blfwk::Option\lContext \&gt;">
<polygon fill="white" stroke="black" points="724.5,-285 724.5,-315 847.5,-315 847.5,-285 724.5,-285"/>
<text text-anchor="start" x="732.5" y="-303" font-family="Helvetica,sans-Serif" font-size="10.00">smart_ptr&lt; blfwk::Option</text>
<text text-anchor="middle" x="786" y="-292" font-family="Helvetica,sans-Serif" font-size="10.00">Context &gt;</text>
</a>
</g>
</g>
<!-- Node15&#45;&gt;Node8 -->
<g id="edge16" class="edge"><title>Node15&#45;&gt;Node8</title>
<path fill="none" stroke="#9a32cd" stroke-dasharray="5,2" d="M857.719,-287.167C888.296,-280.834 924.269,-272.321 956,-262 970.725,-257.21 986.746,-250.253 998.88,-244.6"/>
<polygon fill="#9a32cd" stroke="#9a32cd" points="856.672,-283.809 847.57,-289.231 858.067,-290.668 856.672,-283.809"/>
<text text-anchor="middle" x="912.5" y="-287" font-family="Helvetica,sans-Serif" font-size="10.00"> m_options</text>
</g>
<!-- Node16 -->
<g id="node16" class="node"><title>Node16</title>
<g id="a_node16"><a xlink:href="classblfwk_1_1_option_context.html" target="_top" xlink:title="Pure abstract interface class to a table of options. ">
<polygon fill="white" stroke="black" points="535,-290.5 535,-309.5 642,-309.5 642,-290.5 535,-290.5"/>
<text text-anchor="middle" x="588.5" y="-297.5" font-family="Helvetica,sans-Serif" font-size="10.00">blfwk::OptionContext</text>
</a>
</g>
</g>
<!-- Node16&#45;&gt;Node15 -->
<g id="edge17" class="edge"><title>Node16&#45;&gt;Node15</title>
<path fill="none" stroke="#9a32cd" stroke-dasharray="5,2" d="M652.182,-300C675.277,-300 701.381,-300 724.298,-300"/>
<polygon fill="#9a32cd" stroke="#9a32cd" points="652.148,-296.5 642.148,-300 652.148,-303.5 652.148,-296.5"/>
<text text-anchor="middle" x="681.5" y="-303" font-family="Helvetica,sans-Serif" font-size="10.00"> _p</text>
</g>
</g>
</svg>
