<?xml version="1.0" encoding="UTF-8" standalone="no"?>
<!DOCTYPE svg PUBLIC "-//W3C//DTD SVG 1.1//EN"
 "http://www.w3.org/Graphics/SVG/1.1/DTD/svg11.dtd">
<!-- Generated by graphviz version 2.38.0 (20140413.2041)
 -->
<!-- Title: elftosb::EncoreBootImageGenerator Pages: 1 -->
<svg width="1245pt" height="117pt"
 viewBox="0.00 0.00 1245.00 117.00" xmlns="http://www.w3.org/2000/svg" xmlns:xlink="http://www.w3.org/1999/xlink">
<g id="graph0" class="graph" transform="scale(1 1) rotate(0) translate(4 113)">
<title>elftosb::EncoreBootImageGenerator</title>
<polygon fill="white" stroke="none" points="-4,4 -4,-113 1241,-113 1241,4 -4,4"/>
<!-- Node1 -->
<g id="node1" class="node"><title>Node1</title>
<polygon fill="#bfbfbf" stroke="black" points="1109,-14 1109,-44 1237,-44 1237,-14 1109,-14"/>
<text text-anchor="start" x="1117" y="-32" font-family="Helvetica,sans-Serif" font-size="10.00">elftosb::EncoreBootImage</text>
<text text-anchor="middle" x="1173" y="-21" font-family="Helvetica,sans-Serif" font-size="10.00">Generator</text>
</g>
<!-- Node2 -->
<g id="node2" class="node"><title>Node2</title>
<g id="a_node2"><a xlink:href="classelftosb_1_1_boot_image_generator.html" target="_top" xlink:title="Abstract base class for generators of specific boot image formats. ">
<polygon fill="white" stroke="black" points="932,-42.5 932,-61.5 1072,-61.5 1072,-42.5 932,-42.5"/>
<text text-anchor="middle" x="1002" y="-49.5" font-family="Helvetica,sans-Serif" font-size="10.00">elftosb::BootImageGenerator</text>
</a>
</g>
</g>
<!-- Node2&#45;&gt;Node1 -->
<g id="edge1" class="edge"><title>Node2&#45;&gt;Node1</title>
<path fill="none" stroke="midnightblue" d="M1082.25,-41.2148C1091.17,-40.0003 1100.17,-38.775 1108.86,-37.5936"/>
<polygon fill="midnightblue" stroke="midnightblue" points="1081.66,-37.762 1072.23,-42.5787 1082.61,-44.6981 1081.66,-37.762"/>
</g>
<!-- Node3 -->
<g id="node3" class="node"><title>Node3</title>
<g id="a_node3"><a xlink:href="classelftosb_1_1_option_context.html" target="_top" xlink:title="Pure abstract interface class to a table of options. ">
<polygon fill="white" stroke="black" points="0,-44.5 0,-63.5 113,-63.5 113,-44.5 0,-44.5"/>
<text text-anchor="middle" x="56.5" y="-51.5" font-family="Helvetica,sans-Serif" font-size="10.00">elftosb::OptionContext</text>
</a>
</g>
</g>
<!-- Node3&#45;&gt;Node2 -->
<g id="edge2" class="edge"><title>Node3&#45;&gt;Node2</title>
<path fill="none" stroke="#9a32cd" stroke-dasharray="5,2" d="M94.3026,-66.6404C135.49,-79.6405 204.463,-98 265.5,-98 265.5,-98 265.5,-98 736.5,-98 820.863,-98 918.153,-75.0049 967.918,-61.5312"/>
<polygon fill="#9a32cd" stroke="#9a32cd" points="95.2927,-63.2823 84.7012,-63.5473 93.1462,-69.9451 95.2927,-63.2823"/>
<text text-anchor="middle" x="482.5" y="-101" font-family="Helvetica,sans-Serif" font-size="10.00"> m_options</text>
</g>
<!-- Node6 -->
<g id="node6" class="node"><title>Node6</title>
<g id="a_node6"><a xlink:href="group__smart__pointer.html" target="_top" xlink:title="smart_ptr\&lt; elftosb\l::OptionContext \&gt;">
<polygon fill="white" stroke="black" points="219,-39 219,-69 314,-69 314,-39 219,-39"/>
<text text-anchor="start" x="227" y="-57" font-family="Helvetica,sans-Serif" font-size="10.00">smart_ptr&lt; elftosb</text>
<text text-anchor="middle" x="266.5" y="-46" font-family="Helvetica,sans-Serif" font-size="10.00">::OptionContext &gt;</text>
</a>
</g>
</g>
<!-- Node3&#45;&gt;Node6 -->
<g id="edge6" class="edge"><title>Node3&#45;&gt;Node6</title>
<path fill="none" stroke="#9a32cd" stroke-dasharray="5,2" d="M123.524,-54C154.495,-54 190.675,-54 218.76,-54"/>
<polygon fill="#9a32cd" stroke="#9a32cd" points="123.24,-50.5001 113.24,-54 123.24,-57.5001 123.24,-50.5001"/>
<text text-anchor="middle" x="152.5" y="-57" font-family="Helvetica,sans-Serif" font-size="10.00"> _p</text>
</g>
<!-- Node8 -->
<g id="node8" class="node"><title>Node8</title>
<polygon fill="white" stroke="#bfbfbf" points="192,-0.5 192,-19.5 341,-19.5 341,-0.5 192,-0.5"/>
<text text-anchor="middle" x="266.5" y="-7.5" font-family="Helvetica,sans-Serif" font-size="10.00">std::vector&lt; OptionContext * &gt;</text>
</g>
<!-- Node3&#45;&gt;Node8 -->
<g id="edge9" class="edge"><title>Node3&#45;&gt;Node8</title>
<path fill="none" stroke="#9a32cd" stroke-dasharray="5,2" d="M112.771,-42.308C146.418,-35.1904 188.858,-26.2128 220.455,-19.5287"/>
<polygon fill="#9a32cd" stroke="#9a32cd" points="111.692,-38.9588 102.633,-44.4527 113.141,-45.8072 111.692,-38.9588"/>
<text text-anchor="middle" x="152.5" y="-41" font-family="Helvetica,sans-Serif" font-size="10.00"> elements</text>
</g>
<!-- Node4 -->
<g id="node4" class="node"><title>Node4</title>
<polygon fill="white" stroke="#bfbfbf" points="661,-42.5 661,-61.5 810,-61.5 810,-42.5 661,-42.5"/>
<text text-anchor="middle" x="735.5" y="-49.5" font-family="Helvetica,sans-Serif" font-size="10.00">std::vector&lt; OutputSection * &gt;</text>
</g>
<!-- Node4&#45;&gt;Node2 -->
<g id="edge3" class="edge"><title>Node4&#45;&gt;Node2</title>
<path fill="none" stroke="#9a32cd" stroke-dasharray="5,2" d="M820.621,-52C856.466,-52 897.772,-52 931.805,-52"/>
<polygon fill="#9a32cd" stroke="#9a32cd" points="820.178,-48.5001 810.178,-52 820.178,-55.5001 820.178,-48.5001"/>
<text text-anchor="middle" x="871" y="-55" font-family="Helvetica,sans-Serif" font-size="10.00"> m_sections</text>
</g>
<!-- Node5 -->
<g id="node5" class="node"><title>Node5</title>
<g id="a_node5"><a xlink:href="classelftosb_1_1_output_section.html" target="_top" xlink:title="Base class for data model of sections of the output file. ">
<polygon fill="white" stroke="black" points="426,-42.5 426,-61.5 539,-61.5 539,-42.5 426,-42.5"/>
<text text-anchor="middle" x="482.5" y="-49.5" font-family="Helvetica,sans-Serif" font-size="10.00">elftosb::OutputSection</text>
</a>
</g>
</g>
<!-- Node5&#45;&gt;Node4 -->
<g id="edge4" class="edge"><title>Node5&#45;&gt;Node4</title>
<path fill="none" stroke="#9a32cd" stroke-dasharray="5,2" d="M549.556,-52C583.753,-52 625.607,-52 660.845,-52"/>
<polygon fill="#9a32cd" stroke="#9a32cd" points="549.205,-48.5001 539.205,-52 549.205,-55.5001 549.205,-48.5001"/>
<text text-anchor="middle" x="600" y="-55" font-family="Helvetica,sans-Serif" font-size="10.00"> elements</text>
</g>
<!-- Node6&#45;&gt;Node5 -->
<g id="edge5" class="edge"><title>Node6&#45;&gt;Node5</title>
<path fill="none" stroke="#9a32cd" stroke-dasharray="5,2" d="M324.53,-53.467C355.893,-53.1739 394.643,-52.8118 425.794,-52.5206"/>
<polygon fill="#9a32cd" stroke="#9a32cd" points="324.166,-49.9702 314.199,-53.5636 324.231,-56.9699 324.166,-49.9702"/>
<text text-anchor="middle" x="383.5" y="-57" font-family="Helvetica,sans-Serif" font-size="10.00"> m_options</text>
</g>
<!-- Node7 -->
<g id="node7" class="node"><title>Node7</title>
<g id="a_node7"><a xlink:href="classelftosb_1_1_keyblob.html" target="_top" xlink:title="Keyblob specification. ">
<polygon fill="white" stroke="black" points="557,-1.5 557,-20.5 643,-20.5 643,-1.5 557,-1.5"/>
<text text-anchor="middle" x="600" y="-8.5" font-family="Helvetica,sans-Serif" font-size="10.00">elftosb::Keyblob</text>
</a>
</g>
</g>
<!-- Node7&#45;&gt;Node1 -->
<g id="edge7" class="edge"><title>Node7&#45;&gt;Node1</title>
<path fill="none" stroke="#9a32cd" stroke-dasharray="5,2" d="M653.527,-12.6558C758.852,-15.9761 995.454,-23.4346 1108.94,-27.0121"/>
<polygon fill="#9a32cd" stroke="#9a32cd" points="653.557,-9.15513 643.451,-12.3382 653.336,-16.1517 653.557,-9.15513"/>
<text text-anchor="middle" x="871" y="-24" font-family="Helvetica,sans-Serif" font-size="10.00"> m_encryptKeyBlob</text>
</g>
<!-- Node8&#45;&gt;Node7 -->
<g id="edge8" class="edge"><title>Node8&#45;&gt;Node7</title>
<path fill="none" stroke="#9a32cd" stroke-dasharray="5,2" d="M351.398,-10.2531C417.024,-10.4511 505.507,-10.718 556.994,-10.8733"/>
<polygon fill="#9a32cd" stroke="#9a32cd" points="351.081,-6.75221 341.071,-10.2219 351.06,-13.7522 351.081,-6.75221"/>
<text text-anchor="middle" x="383.5" y="-14" font-family="Helvetica,sans-Serif" font-size="10.00"> m_options</text>
</g>
</g>
</svg>
