<?xml version="1.0" encoding="UTF-8" standalone="no"?>
<!DOCTYPE svg PUBLIC "-//W3C//DTD SVG 1.1//EN"
 "http://www.w3.org/Graphics/SVG/1.1/DTD/svg11.dtd">
<!-- Generated by graphviz version 2.38.0 (20140413.2041)
 -->
<!-- Title: elftosb::FromStatementASTNode Pages: 1 -->
<svg width="168pt" height="140pt"
 viewBox="0.00 0.00 168.00 140.00" xmlns="http://www.w3.org/2000/svg" xmlns:xlink="http://www.w3.org/1999/xlink">
<g id="graph0" class="graph" transform="scale(1 1) rotate(0) translate(4 136)">
<title>elftosb::FromStatementASTNode</title>
<polygon fill="white" stroke="none" points="-4,4 -4,-136 164,-136 164,4 -4,4"/>
<!-- Node1 -->
<g id="node1" class="node"><title>Node1</title>
<polygon fill="#bfbfbf" stroke="black" points="0,-0.5 0,-19.5 160,-19.5 160,-0.5 0,-0.5"/>
<text text-anchor="middle" x="80" y="-7.5" font-family="Helvetica,sans-Serif" font-size="10.00">elftosb::FromStatementASTNode</text>
</g>
<!-- Node2 -->
<g id="node2" class="node"><title>Node2</title>
<g id="a_node2"><a xlink:href="classelftosb_1_1_statement_a_s_t_node.html" target="_top" xlink:title="elftosb::StatementASTNode">
<polygon fill="white" stroke="black" points="11.5,-56.5 11.5,-75.5 148.5,-75.5 148.5,-56.5 11.5,-56.5"/>
<text text-anchor="middle" x="80" y="-63.5" font-family="Helvetica,sans-Serif" font-size="10.00">elftosb::StatementASTNode</text>
</a>
</g>
</g>
<!-- Node2&#45;&gt;Node1 -->
<g id="edge1" class="edge"><title>Node2&#45;&gt;Node1</title>
<path fill="none" stroke="midnightblue" d="M80,-45.8045C80,-36.9102 80,-26.7798 80,-19.7511"/>
<polygon fill="midnightblue" stroke="midnightblue" points="76.5001,-46.083 80,-56.083 83.5001,-46.083 76.5001,-46.083"/>
</g>
<!-- Node3 -->
<g id="node3" class="node"><title>Node3</title>
<g id="a_node3"><a xlink:href="classelftosb_1_1_a_s_t_node.html" target="_top" xlink:title="The base class for all AST node classes. ">
<polygon fill="white" stroke="black" points="34,-112.5 34,-131.5 126,-131.5 126,-112.5 34,-112.5"/>
<text text-anchor="middle" x="80" y="-119.5" font-family="Helvetica,sans-Serif" font-size="10.00">elftosb::ASTNode</text>
</a>
</g>
</g>
<!-- Node3&#45;&gt;Node2 -->
<g id="edge2" class="edge"><title>Node3&#45;&gt;Node2</title>
<path fill="none" stroke="midnightblue" d="M80,-101.805C80,-92.9102 80,-82.7798 80,-75.7511"/>
<polygon fill="midnightblue" stroke="midnightblue" points="76.5001,-102.083 80,-112.083 83.5001,-102.083 76.5001,-102.083"/>
</g>
</g>
</svg>
