<?xml version="1.0" encoding="UTF-8" standalone="no"?>
<!DOCTYPE svg PUBLIC "-//W3C//DTD SVG 1.1//EN"
 "http://www.w3.org/Graphics/SVG/1.1/DTD/svg11.dtd">
<!-- Generated by graphviz version 2.38.0 (20140413.2041)
 -->
<!-- Title: blfwk::DataPacket::DataConsumer Pages: 1 -->
<svg width="240pt" height="106pt"
 viewBox="0.00 0.00 239.50 106.00" xmlns="http://www.w3.org/2000/svg" xmlns:xlink="http://www.w3.org/1999/xlink">
<g id="graph0" class="graph" transform="scale(1 1) rotate(0) translate(4 102)">
<title>blfwk::DataPacket::DataConsumer</title>
<polygon fill="white" stroke="none" points="-4,4 -4,-102 235.5,-102 235.5,4 -4,4"/>
<!-- Node1 -->
<g id="node1" class="node"><title>Node1</title>
<polygon fill="#bfbfbf" stroke="black" points="62,-67.5 62,-97.5 163,-97.5 163,-67.5 62,-67.5"/>
<text text-anchor="start" x="70" y="-85.5" font-family="Helvetica,sans-Serif" font-size="10.00">blfwk::DataPacket::</text>
<text text-anchor="middle" x="112.5" y="-74.5" font-family="Helvetica,sans-Serif" font-size="10.00">DataConsumer</text>
</g>
<!-- Node2 -->
<g id="node2" class="node"><title>Node2</title>
<g id="a_node2"><a xlink:href="classblfwk_1_1_data_packet_1_1_file_data_consumer.html" target="_top" xlink:title="Write file data for data phase receive. ">
<polygon fill="white" stroke="black" points="0,-0.5 0,-30.5 101,-30.5 101,-0.5 0,-0.5"/>
<text text-anchor="start" x="8" y="-18.5" font-family="Helvetica,sans-Serif" font-size="10.00">blfwk::DataPacket::</text>
<text text-anchor="middle" x="50.5" y="-7.5" font-family="Helvetica,sans-Serif" font-size="10.00">FileDataConsumer</text>
</a>
</g>
</g>
<!-- Node1&#45;&gt;Node2 -->
<g id="edge1" class="edge"><title>Node1&#45;&gt;Node2</title>
<path fill="none" stroke="midnightblue" d="M92.0154,-60.0243C82.778,-50.3398 72.1274,-39.1739 63.9268,-30.5765"/>
<polygon fill="midnightblue" stroke="midnightblue" points="89.6121,-62.5756 99.0469,-67.396 94.6774,-57.7441 89.6121,-62.5756"/>
</g>
<!-- Node3 -->
<g id="node3" class="node"><title>Node3</title>
<g id="a_node3"><a xlink:href="classblfwk_1_1_data_packet_1_1_std_out_data_consumer.html" target="_top" xlink:title="Print data for data phase receive. ">
<polygon fill="white" stroke="black" points="119.5,-0.5 119.5,-30.5 231.5,-30.5 231.5,-0.5 119.5,-0.5"/>
<text text-anchor="start" x="127.5" y="-18.5" font-family="Helvetica,sans-Serif" font-size="10.00">blfwk::DataPacket::</text>
<text text-anchor="middle" x="175.5" y="-7.5" font-family="Helvetica,sans-Serif" font-size="10.00">StdOutDataConsumer</text>
</a>
</g>
</g>
<!-- Node1&#45;&gt;Node3 -->
<g id="edge2" class="edge"><title>Node1&#45;&gt;Node3</title>
<path fill="none" stroke="midnightblue" d="M133.315,-60.0243C142.701,-50.3398 153.524,-39.1739 161.857,-30.5765"/>
<polygon fill="midnightblue" stroke="midnightblue" points="130.617,-57.7793 126.17,-67.396 135.643,-62.6512 130.617,-57.7793"/>
</g>
</g>
</svg>
