<?xml version="1.0" encoding="UTF-8" standalone="no"?>
<!DOCTYPE svg PUBLIC "-//W3C//DTD SVG 1.1//EN"
 "http://www.w3.org/Graphics/SVG/1.1/DTD/svg11.dtd">
<!-- Generated by graphviz version 2.38.0 (20140413.2041)
 -->
<!-- Title: elftosb::EncoreBootImage::DataSection Pages: 1 -->
<svg width="811pt" height="306pt"
 viewBox="0.00 0.00 811.00 306.00" xmlns="http://www.w3.org/2000/svg" xmlns:xlink="http://www.w3.org/1999/xlink">
<g id="graph0" class="graph" transform="scale(1 1) rotate(0) translate(4 302)">
<title>elftosb::EncoreBootImage::DataSection</title>
<polygon fill="white" stroke="none" points="-4,4 -4,-302 807,-302 807,4 -4,4"/>
<!-- Node1 -->
<g id="node1" class="node"><title>Node1</title>
<polygon fill="#bfbfbf" stroke="black" points="410.5,-266 410.5,-296 538.5,-296 538.5,-266 410.5,-266"/>
<text text-anchor="start" x="418.5" y="-284" font-family="Helvetica,sans-Serif" font-size="10.00">elftosb::EncoreBootImage</text>
<text text-anchor="middle" x="474.5" y="-273" font-family="Helvetica,sans-Serif" font-size="10.00">::DataSection</text>
</g>
<!-- Node2 -->
<g id="node2" class="node"><title>Node2</title>
<g id="a_node2"><a xlink:href="classelftosb_1_1_encore_boot_image_1_1_section.html" target="_top" xlink:title="Base class for a section of an Encore boot image. ">
<polygon fill="white" stroke="black" points="199,-215 199,-245 327,-245 327,-215 199,-215"/>
<text text-anchor="start" x="207" y="-233" font-family="Helvetica,sans-Serif" font-size="10.00">elftosb::EncoreBootImage</text>
<text text-anchor="middle" x="263" y="-222" font-family="Helvetica,sans-Serif" font-size="10.00">::Section</text>
</a>
</g>
</g>
<!-- Node2&#45;&gt;Node1 -->
<g id="edge1" class="edge"><title>Node2&#45;&gt;Node1</title>
<path fill="none" stroke="midnightblue" d="M335.449,-247.393C360.276,-253.437 387.889,-260.159 411.856,-265.994"/>
<polygon fill="midnightblue" stroke="midnightblue" points="336.268,-243.991 325.724,-245.026 334.612,-250.792 336.268,-243.991"/>
</g>
<!-- Node11 -->
<g id="node11" class="node"><title>Node11</title>
<polygon fill="white" stroke="#bfbfbf" points="421,-136.5 421,-155.5 528,-155.5 528,-136.5 421,-136.5"/>
<text text-anchor="middle" x="474.5" y="-143.5" font-family="Helvetica,sans-Serif" font-size="10.00">std::list&lt; Section * &gt;</text>
</g>
<!-- Node2&#45;&gt;Node11 -->
<g id="edge13" class="edge"><title>Node2&#45;&gt;Node11</title>
<path fill="none" stroke="#9a32cd" stroke-dasharray="5,2" d="M303.341,-210.416C331.938,-196.634 371.814,-178.339 408,-165 417.332,-161.56 427.592,-158.332 437.166,-155.547"/>
<polygon fill="#9a32cd" stroke="#9a32cd" points="301.565,-207.388 294.097,-214.904 304.622,-213.685 301.565,-207.388"/>
<text text-anchor="middle" x="368.5" y="-193" font-family="Helvetica,sans-Serif" font-size="10.00"> elements</text>
</g>
<!-- Node3 -->
<g id="node3" class="node"><title>Node3</title>
<g id="a_node3"><a xlink:href="classelftosb_1_1_encore_boot_image_1_1_cipher_block_generator.html" target="_top" xlink:title="Base class for objects that produce cipher blocks. ">
<polygon fill="white" stroke="black" points="0,-215 0,-245 128,-245 128,-215 0,-215"/>
<text text-anchor="start" x="8" y="-233" font-family="Helvetica,sans-Serif" font-size="10.00">elftosb::EncoreBootImage</text>
<text text-anchor="middle" x="64" y="-222" font-family="Helvetica,sans-Serif" font-size="10.00">::CipherBlockGenerator</text>
</a>
</g>
</g>
<!-- Node3&#45;&gt;Node2 -->
<g id="edge2" class="edge"><title>Node3&#45;&gt;Node2</title>
<path fill="none" stroke="midnightblue" d="M138.389,-230C158.27,-230 179.613,-230 198.875,-230"/>
<polygon fill="midnightblue" stroke="midnightblue" points="138.145,-226.5 128.145,-230 138.145,-233.5 138.145,-226.5"/>
</g>
<!-- Node4 -->
<g id="node4" class="node"><title>Node4</title>
<g id="a_node4"><a xlink:href="classelftosb_1_1_encore_boot_image.html" target="_top" xlink:title="Class to manage Encore boot image files. ">
<polygon fill="white" stroke="black" points="675,-120.5 675,-139.5 803,-139.5 803,-120.5 675,-120.5"/>
<text text-anchor="middle" x="739" y="-127.5" font-family="Helvetica,sans-Serif" font-size="10.00">elftosb::EncoreBootImage</text>
</a>
</g>
</g>
<!-- Node4&#45;&gt;Node2 -->
<g id="edge3" class="edge"><title>Node4&#45;&gt;Node2</title>
<path fill="none" stroke="#9a32cd" stroke-dasharray="5,2" d="M716.8,-145.591C701.04,-156.474 678.614,-170.517 657,-179 546.683,-222.3 406.898,-230.42 327.243,-231.099"/>
<polygon fill="#9a32cd" stroke="#9a32cd" points="719.108,-148.246 725.252,-139.615 715.066,-142.53 719.108,-148.246"/>
<text text-anchor="middle" x="474.5" y="-231" font-family="Helvetica,sans-Serif" font-size="10.00"> m_image</text>
</g>
<!-- Node5 -->
<g id="node5" class="node"><title>Node5</title>
<g id="a_node5"><a xlink:href="classelftosb_1_1_boot_image.html" target="_top" xlink:title="Abstract base class for all boot image format classes. ">
<polygon fill="white" stroke="black" points="425.5,-174.5 425.5,-193.5 523.5,-193.5 523.5,-174.5 425.5,-174.5"/>
<text text-anchor="middle" x="474.5" y="-181.5" font-family="Helvetica,sans-Serif" font-size="10.00">elftosb::BootImage</text>
</a>
</g>
</g>
<!-- Node5&#45;&gt;Node4 -->
<g id="edge4" class="edge"><title>Node5&#45;&gt;Node4</title>
<path fill="none" stroke="midnightblue" d="M533.934,-177.363C569.732,-172.71 616.331,-165.601 657,-156 675.543,-151.623 695.965,-145.055 711.665,-139.616"/>
<polygon fill="midnightblue" stroke="midnightblue" points="533.143,-173.935 523.665,-178.669 534.027,-180.879 533.143,-173.935"/>
</g>
<!-- Node6 -->
<g id="node6" class="node"><title>Node6</title>
<g id="a_node6"><a xlink:href="class_a_e_s_key.html" target="_top" xlink:title="AESKey\&lt; 128 \&gt;">
<polygon fill="white" stroke="black" points="219,-38.5 219,-57.5 307,-57.5 307,-38.5 219,-38.5"/>
<text text-anchor="middle" x="263" y="-45.5" font-family="Helvetica,sans-Serif" font-size="10.00">AESKey&lt; 128 &gt;</text>
</a>
</g>
</g>
<!-- Node6&#45;&gt;Node4 -->
<g id="edge5" class="edge"><title>Node6&#45;&gt;Node4</title>
<path fill="none" stroke="#9a32cd" stroke-dasharray="5,2" d="M317.157,-38.7739C395.734,-27.7413 545.597,-16.8287 657,-70 685.113,-83.4178 713.291,-107.184 727.853,-120.421"/>
<polygon fill="#9a32cd" stroke="#9a32cd" points="316.403,-35.3467 307.014,-40.2548 317.414,-42.2733 316.403,-35.3467"/>
<text text-anchor="middle" x="474.5" y="-39" font-family="Helvetica,sans-Serif" font-size="10.00"> m_sessionKey</text>
</g>
<!-- Node10 -->
<g id="node10" class="node"><title>Node10</title>
<polygon fill="white" stroke="#bfbfbf" points="408,-60.5 408,-79.5 541,-79.5 541,-60.5 408,-60.5"/>
<text text-anchor="middle" x="474.5" y="-67.5" font-family="Helvetica,sans-Serif" font-size="10.00">std::vector&lt; AES128Key &gt;</text>
</g>
<!-- Node6&#45;&gt;Node10 -->
<g id="edge11" class="edge"><title>Node6&#45;&gt;Node10</title>
<path fill="none" stroke="#9a32cd" stroke-dasharray="5,2" d="M317.359,-53.6033C344.844,-56.4896 378.605,-60.0349 407.695,-63.0896"/>
<polygon fill="#9a32cd" stroke="#9a32cd" points="317.465,-50.0953 307.155,-52.5317 316.734,-57.0571 317.465,-50.0953"/>
<text text-anchor="middle" x="368.5" y="-64" font-family="Helvetica,sans-Serif" font-size="10.00"> elements</text>
</g>
<!-- Node7 -->
<g id="node7" class="node"><title>Node7</title>
<g id="a_node7"><a xlink:href="class_a_e_s_key_base.html" target="_top" xlink:title="Base class for AESKey&lt;S&gt;. ">
<polygon fill="white" stroke="black" points="25.5,-38.5 25.5,-57.5 102.5,-57.5 102.5,-38.5 25.5,-38.5"/>
<text text-anchor="middle" x="64" y="-45.5" font-family="Helvetica,sans-Serif" font-size="10.00">AESKeyBase</text>
</a>
</g>
</g>
<!-- Node7&#45;&gt;Node6 -->
<g id="edge6" class="edge"><title>Node7&#45;&gt;Node6</title>
<path fill="none" stroke="midnightblue" d="M112.64,-42.1236C144.988,-40.9022 187.423,-40.9616 218.791,-42.3017"/>
<polygon fill="midnightblue" stroke="midnightblue" points="112.356,-38.6326 102.518,-42.5652 112.661,-45.6259 112.356,-38.6326"/>
</g>
<!-- Node7&#45;&gt;Node6 -->
<g id="edge7" class="edge"><title>Node7&#45;&gt;Node6</title>
<path fill="none" stroke="midnightblue" d="M112.64,-53.8764C144.988,-55.0978 187.423,-55.0384 218.791,-53.6983"/>
<polygon fill="midnightblue" stroke="midnightblue" points="112.661,-50.3741 102.518,-53.4348 112.356,-57.3674 112.661,-50.3741"/>
</g>
<!-- Node8 -->
<g id="node8" class="node"><title>Node8</title>
<polygon fill="white" stroke="#bfbfbf" points="49.5,-0.5 49.5,-19.5 78.5,-19.5 78.5,-0.5 49.5,-0.5"/>
<text text-anchor="middle" x="64" y="-7.5" font-family="Helvetica,sans-Serif" font-size="10.00">S</text>
</g>
<!-- Node8&#45;&gt;Node6 -->
<g id="edge8" class="edge"><title>Node8&#45;&gt;Node6</title>
<path fill="none" stroke="#9a32cd" stroke-dasharray="5,2" d="M88.3633,-14.5066C120.485,-20.7027 178.863,-31.9634 218.996,-39.7048"/>
<polygon fill="#9a32cd" stroke="#9a32cd" points="89.0225,-11.0693 78.5406,-12.6119 87.6967,-17.9426 89.0225,-11.0693"/>
<text text-anchor="middle" x="162.5" y="-35" font-family="Helvetica,sans-Serif" font-size="10.00"> m_key</text>
</g>
<!-- Node9 -->
<g id="node9" class="node"><title>Node9</title>
<g id="a_node9"><a xlink:href="structelftosb_1_1version__t.html" target="_top" xlink:title="Same version struct used for 3600 boot image. ">
<polygon fill="white" stroke="black" points="430,-98.5 430,-117.5 519,-117.5 519,-98.5 430,-98.5"/>
<text text-anchor="middle" x="474.5" y="-105.5" font-family="Helvetica,sans-Serif" font-size="10.00">elftosb::version_t</text>
</a>
</g>
</g>
<!-- Node9&#45;&gt;Node4 -->
<g id="edge9" class="edge"><title>Node9&#45;&gt;Node4</title>
<path fill="none" stroke="#9a32cd" stroke-dasharray="5,2" d="M529.674,-105.342C565.87,-104.365 614.465,-104.588 657,-110 673.524,-112.102 691.548,-116.352 706.39,-120.395"/>
<polygon fill="#9a32cd" stroke="#9a32cd" points="529.222,-101.855 519.336,-105.663 529.439,-108.851 529.222,-101.855"/>
<text text-anchor="middle" x="608" y="-124" font-family="Helvetica,sans-Serif" font-size="10.00"> m_componentVersion</text>
<text text-anchor="middle" x="608" y="-113" font-family="Helvetica,sans-Serif" font-size="10.00">m_productVersion</text>
</g>
<!-- Node10&#45;&gt;Node4 -->
<g id="edge10" class="edge"><title>Node10&#45;&gt;Node4</title>
<path fill="none" stroke="#9a32cd" stroke-dasharray="5,2" d="M551.298,-72.4512C584.289,-75.0195 623.081,-80.0911 657,-90 681.238,-97.0806 707.026,-111.076 722.828,-120.488"/>
<polygon fill="#9a32cd" stroke="#9a32cd" points="551.482,-68.9556 541.258,-71.732 550.982,-75.9377 551.482,-68.9556"/>
<text text-anchor="middle" x="608" y="-93" font-family="Helvetica,sans-Serif" font-size="10.00"> m_keys</text>
</g>
<!-- Node11&#45;&gt;Node4 -->
<g id="edge12" class="edge"><title>Node11&#45;&gt;Node4</title>
<path fill="none" stroke="#9a32cd" stroke-dasharray="5,2" d="M538.498,-142.16C579.706,-139.648 633.348,-136.379 674.63,-133.863"/>
<polygon fill="#9a32cd" stroke="#9a32cd" points="538.074,-138.679 528.305,-142.781 538.499,-145.666 538.074,-138.679"/>
<text text-anchor="middle" x="608" y="-144" font-family="Helvetica,sans-Serif" font-size="10.00"> m_sections</text>
</g>
<!-- Node12 -->
<g id="node12" class="node"><title>Node12</title>
<g id="a_node12"><a xlink:href="group__smart__pointer.html" target="_top" xlink:title="smart_array_ptr\&lt; uint8_t \&gt;">
<polygon fill="white" stroke="black" points="197,-278.5 197,-297.5 329,-297.5 329,-278.5 197,-278.5"/>
<text text-anchor="middle" x="263" y="-285.5" font-family="Helvetica,sans-Serif" font-size="10.00">smart_array_ptr&lt; uint8_t &gt;</text>
</a>
</g>
</g>
<!-- Node12&#45;&gt;Node1 -->
<g id="edge14" class="edge"><title>Node12&#45;&gt;Node1</title>
<path fill="none" stroke="#9a32cd" stroke-dasharray="5,2" d="M339.297,-285.484C362.527,-284.708 387.861,-283.861 410.197,-283.115"/>
<polygon fill="#9a32cd" stroke="#9a32cd" points="339.016,-281.991 329.139,-285.824 339.25,-288.988 339.016,-281.991"/>
<text text-anchor="middle" x="368.5" y="-289" font-family="Helvetica,sans-Serif" font-size="10.00"> m_data</text>
</g>
</g>
</svg>
