<?xml version="1.0" encoding="UTF-8" standalone="no"?>
<!DOCTYPE svg PUBLIC "-//W3C//DTD SVG 1.1//EN"
 "http://www.w3.org/Graphics/SVG/1.1/DTD/svg11.dtd">
<!-- Generated by graphviz version 2.38.0 (20140413.2041)
 -->
<!-- Title: elftosb::ExprASTNode Pages: 1 -->
<svg width="173pt" height="152pt"
 viewBox="0.00 0.00 172.50 152.00" xmlns="http://www.w3.org/2000/svg" xmlns:xlink="http://www.w3.org/1999/xlink">
<g id="graph0" class="graph" transform="scale(1 1) rotate(0) translate(4 148)">
<title>elftosb::ExprASTNode</title>
<polygon fill="white" stroke="none" points="-4,4 -4,-148 168.5,-148 168.5,4 -4,4"/>
<!-- Node1 -->
<g id="node1" class="node"><title>Node1</title>
<polygon fill="#bfbfbf" stroke="black" points="0,-0.5 0,-19.5 113,-19.5 113,-0.5 0,-0.5"/>
<text text-anchor="middle" x="56.5" y="-7.5" font-family="Helvetica,sans-Serif" font-size="10.00">elftosb::ExprASTNode</text>
</g>
<!-- Node2 -->
<g id="node2" class="node"><title>Node2</title>
<g id="a_node2"><a xlink:href="classelftosb_1_1_a_s_t_node.html" target="_top" xlink:title="The base class for all AST node classes. ">
<polygon fill="white" stroke="black" points="10.5,-57.5 10.5,-76.5 102.5,-76.5 102.5,-57.5 10.5,-57.5"/>
<text text-anchor="middle" x="56.5" y="-64.5" font-family="Helvetica,sans-Serif" font-size="10.00">elftosb::ASTNode</text>
</a>
</g>
</g>
<!-- Node2&#45;&gt;Node1 -->
<g id="edge1" class="edge"><title>Node2&#45;&gt;Node1</title>
<path fill="none" stroke="midnightblue" d="M56.5,-47.1166C56.5,-37.8173 56.5,-27.0557 56.5,-19.7149"/>
<polygon fill="midnightblue" stroke="midnightblue" points="53.0001,-47.4062 56.5,-57.4063 60.0001,-47.4063 53.0001,-47.4062"/>
</g>
<!-- Node2&#45;&gt;Node2 -->
<g id="edge3" class="edge"><title>Node2&#45;&gt;Node2</title>
<path fill="none" stroke="#9a32cd" stroke-dasharray="5,2" d="M112.774,-71.0771C117.534,-70.2047 120.5,-68.8457 120.5,-67 120.5,-64.0469 112.906,-62.3396 102.524,-61.8782"/>
<polygon fill="#9a32cd" stroke="#9a32cd" points="112.118,-67.6258 102.524,-72.1218 112.828,-74.5897 112.118,-67.6258"/>
<text text-anchor="middle" x="142.5" y="-64.5" font-family="Helvetica,sans-Serif" font-size="10.00"> m_parent</text>
</g>
<!-- Node3 -->
<g id="node3" class="node"><title>Node3</title>
<g id="a_node3"><a xlink:href="structelftosb_1_1token__loc__t.html" target="_top" xlink:title="Token location in the source file. ">
<polygon fill="white" stroke="black" points="6,-124.5 6,-143.5 107,-143.5 107,-124.5 6,-124.5"/>
<text text-anchor="middle" x="56.5" y="-131.5" font-family="Helvetica,sans-Serif" font-size="10.00">elftosb::token_loc_t</text>
</a>
</g>
</g>
<!-- Node3&#45;&gt;Node2 -->
<g id="edge2" class="edge"><title>Node3&#45;&gt;Node2</title>
<path fill="none" stroke="#9a32cd" stroke-dasharray="5,2" d="M56.5,-114.037C56.5,-101.67 56.5,-86.1198 56.5,-76.6273"/>
<polygon fill="#9a32cd" stroke="#9a32cd" points="53.0001,-114.234 56.5,-124.234 60.0001,-114.234 53.0001,-114.234"/>
<text text-anchor="middle" x="82" y="-98" font-family="Helvetica,sans-Serif" font-size="10.00"> m_location</text>
</g>
</g>
</svg>
