<?xml version="1.0" encoding="UTF-8" standalone="no"?>
<!DOCTYPE svg PUBLIC "-//W3C//DTD SVG 1.1//EN"
 "http://www.w3.org/Graphics/SVG/1.1/DTD/svg11.dtd">
<!-- Generated by graphviz version 2.38.0 (20140413.2041)
 -->
<!-- Title: elftosb::ConstantsBlockASTNode Pages: 1 -->
<svg width="243pt" height="374pt"
 viewBox="0.00 0.00 243.00 374.00" xmlns="http://www.w3.org/2000/svg" xmlns:xlink="http://www.w3.org/1999/xlink">
<g id="graph0" class="graph" transform="scale(1 1) rotate(0) translate(4 370)">
<title>elftosb::ConstantsBlockASTNode</title>
<polygon fill="white" stroke="none" points="-4,4 -4,-370 239,-370 239,4 -4,4"/>
<!-- Node1 -->
<g id="node1" class="node"><title>Node1</title>
<polygon fill="#bfbfbf" stroke="black" points="0,-0.5 0,-19.5 161,-19.5 161,-0.5 0,-0.5"/>
<text text-anchor="middle" x="80.5" y="-7.5" font-family="Helvetica,sans-Serif" font-size="10.00">elftosb::ConstantsBlockASTNode</text>
</g>
<!-- Node2 -->
<g id="node2" class="node"><title>Node2</title>
<g id="a_node2"><a xlink:href="classelftosb_1_1_a_s_t_node.html" target="_top" xlink:title="The base class for all AST node classes. ">
<polygon fill="white" stroke="black" points="45.5,-279.5 45.5,-298.5 137.5,-298.5 137.5,-279.5 45.5,-279.5"/>
<text text-anchor="middle" x="91.5" y="-286.5" font-family="Helvetica,sans-Serif" font-size="10.00">elftosb::ASTNode</text>
</a>
</g>
</g>
<!-- Node2&#45;&gt;Node1 -->
<g id="edge1" class="edge"><title>Node2&#45;&gt;Node1</title>
<path fill="none" stroke="midnightblue" d="M75.4672,-271.69C65.0891,-259.372 53.5,-241.48 53.5,-223 53.5,-223 53.5,-223 53.5,-81.5 53.5,-57.9083 66.8484,-32.6383 74.774,-19.7135"/>
<polygon fill="midnightblue" stroke="midnightblue" points="73.0042,-274.185 82.3013,-279.266 78.2019,-269.496 73.0042,-274.185"/>
</g>
<!-- Node2&#45;&gt;Node2 -->
<g id="edge3" class="edge"><title>Node2&#45;&gt;Node2</title>
<path fill="none" stroke="#9a32cd" stroke-dasharray="5,2" d="M147.774,-293.66C152.534,-292.663 155.5,-291.109 155.5,-289 155.5,-285.625 147.906,-283.674 137.524,-283.146"/>
<polygon fill="#9a32cd" stroke="#9a32cd" points="147.052,-290.22 137.524,-294.854 147.862,-297.173 147.052,-290.22"/>
<text text-anchor="middle" x="177.5" y="-286.5" font-family="Helvetica,sans-Serif" font-size="10.00"> m_parent</text>
</g>
<!-- Node5 -->
<g id="node5" class="node"><title>Node5</title>
<g id="a_node5"><a xlink:href="classelftosb_1_1_list_a_s_t_node.html" target="_top" xlink:title="AST node that contains other AST nodes. ">
<polygon fill="white" stroke="black" points="81.5,-145.5 81.5,-164.5 189.5,-164.5 189.5,-145.5 81.5,-145.5"/>
<text text-anchor="middle" x="135.5" y="-152.5" font-family="Helvetica,sans-Serif" font-size="10.00">elftosb::ListASTNode</text>
</a>
</g>
</g>
<!-- Node2&#45;&gt;Node5 -->
<g id="edge6" class="edge"><title>Node2&#45;&gt;Node5</title>
<path fill="none" stroke="midnightblue" d="M95.1724,-269.517C98.4871,-253.962 103.857,-231.242 110.5,-212 116.476,-194.69 125.707,-175.361 131.122,-164.54"/>
<polygon fill="midnightblue" stroke="midnightblue" points="91.7212,-268.924 93.1332,-279.424 98.5774,-270.335 91.7212,-268.924"/>
</g>
<!-- Node6 -->
<g id="node6" class="node"><title>Node6</title>
<polygon fill="white" stroke="#bfbfbf" points="120,-212.5 120,-231.5 235,-231.5 235,-212.5 120,-212.5"/>
<text text-anchor="middle" x="177.5" y="-219.5" font-family="Helvetica,sans-Serif" font-size="10.00">std::list&lt; ASTNode * &gt;</text>
</g>
<!-- Node2&#45;&gt;Node6 -->
<g id="edge8" class="edge"><title>Node2&#45;&gt;Node6</title>
<path fill="none" stroke="#9a32cd" stroke-dasharray="5,2" d="M111.256,-273.068C128.232,-260.238 152.116,-242.185 166.085,-231.627"/>
<polygon fill="#9a32cd" stroke="#9a32cd" points="108.966,-270.412 103.098,-279.234 113.186,-275.996 108.966,-270.412"/>
<text text-anchor="middle" x="162" y="-253" font-family="Helvetica,sans-Serif" font-size="10.00"> elements</text>
</g>
<!-- Node3 -->
<g id="node3" class="node"><title>Node3</title>
<g id="a_node3"><a xlink:href="structelftosb_1_1token__loc__t.html" target="_top" xlink:title="Token location in the source file. ">
<polygon fill="white" stroke="black" points="41,-346.5 41,-365.5 142,-365.5 142,-346.5 41,-346.5"/>
<text text-anchor="middle" x="91.5" y="-353.5" font-family="Helvetica,sans-Serif" font-size="10.00">elftosb::token_loc_t</text>
</a>
</g>
</g>
<!-- Node3&#45;&gt;Node2 -->
<g id="edge2" class="edge"><title>Node3&#45;&gt;Node2</title>
<path fill="none" stroke="#9a32cd" stroke-dasharray="5,2" d="M91.5,-336.037C91.5,-323.67 91.5,-308.12 91.5,-298.627"/>
<polygon fill="#9a32cd" stroke="#9a32cd" points="88.0001,-336.234 91.5,-346.234 95.0001,-336.234 88.0001,-336.234"/>
<text text-anchor="middle" x="117" y="-320" font-family="Helvetica,sans-Serif" font-size="10.00"> m_location</text>
</g>
<!-- Node4 -->
<g id="node4" class="node"><title>Node4</title>
<g id="a_node4"><a xlink:href="group__smart__pointer.html" target="_top" xlink:title="smart_ptr\&lt; elftosb\l::ListASTNode \&gt;">
<polygon fill="white" stroke="black" points="83,-67.5 83,-97.5 178,-97.5 178,-67.5 83,-67.5"/>
<text text-anchor="start" x="91" y="-85.5" font-family="Helvetica,sans-Serif" font-size="10.00">smart_ptr&lt; elftosb</text>
<text text-anchor="middle" x="130.5" y="-74.5" font-family="Helvetica,sans-Serif" font-size="10.00">::ListASTNode &gt;</text>
</a>
</g>
</g>
<!-- Node4&#45;&gt;Node1 -->
<g id="edge4" class="edge"><title>Node4&#45;&gt;Node1</title>
<path fill="none" stroke="#9a32cd" stroke-dasharray="5,2" d="M114.547,-59.006C105.131,-45.7295 93.7359,-29.6626 86.8072,-19.8932"/>
<polygon fill="#9a32cd" stroke="#9a32cd" points="111.742,-61.1012 120.382,-67.2333 117.452,-57.0517 111.742,-61.1012"/>
<text text-anchor="middle" x="137.5" y="-41" font-family="Helvetica,sans-Serif" font-size="10.00"> m_constants</text>
</g>
<!-- Node5&#45;&gt;Node4 -->
<g id="edge5" class="edge"><title>Node5&#45;&gt;Node4</title>
<path fill="none" stroke="#9a32cd" stroke-dasharray="5,2" d="M134.169,-135.236C133.33,-123.408 132.265,-108.383 131.498,-97.5762"/>
<polygon fill="#9a32cd" stroke="#9a32cd" points="130.688,-135.628 134.887,-145.355 137.671,-135.133 130.688,-135.628"/>
<text text-anchor="middle" x="140.5" y="-119" font-family="Helvetica,sans-Serif" font-size="10.00"> _p</text>
</g>
<!-- Node6&#45;&gt;Node5 -->
<g id="edge7" class="edge"><title>Node6&#45;&gt;Node5</title>
<path fill="none" stroke="#9a32cd" stroke-dasharray="5,2" d="M166.215,-203.535C158.083,-190.95 147.459,-174.507 141.075,-164.627"/>
<polygon fill="#9a32cd" stroke="#9a32cd" points="163.469,-205.734 171.836,-212.234 169.348,-201.935 163.469,-205.734"/>
<text text-anchor="middle" x="173.5" y="-186" font-family="Helvetica,sans-Serif" font-size="10.00"> m_list</text>
</g>
</g>
</svg>
