<?xml version="1.0" encoding="UTF-8" standalone="no"?>
<!DOCTYPE svg PUBLIC "-//W3C//DTD SVG 1.1//EN"
 "http://www.w3.org/Graphics/SVG/1.1/DTD/svg11.dtd">
<!-- Generated by graphviz version 2.38.0 (20140413.2041)
 -->
<!-- Title: AESKeyBase Pages: 1 -->
<svg width="194pt" height="84pt"
 viewBox="0.00 0.00 193.50 84.00" xmlns="http://www.w3.org/2000/svg" xmlns:xlink="http://www.w3.org/1999/xlink">
<g id="graph0" class="graph" transform="scale(1 1) rotate(0) translate(4 80)">
<title>AESKeyBase</title>
<polygon fill="white" stroke="none" points="-4,4 -4,-80 189.5,-80 189.5,4 -4,4"/>
<!-- Node1 -->
<g id="node1" class="node"><title>Node1</title>
<polygon fill="#bfbfbf" stroke="black" points="52,-56.5 52,-75.5 129,-75.5 129,-56.5 52,-56.5"/>
<text text-anchor="middle" x="90.5" y="-63.5" font-family="Helvetica,sans-Serif" font-size="10.00">AESKeyBase</text>
</g>
<!-- Node2 -->
<g id="node2" class="node"><title>Node2</title>
<g id="a_node2"><a xlink:href="class_a_e_s_key.html" target="_top" xlink:title="Generic AES key class. ">
<polygon fill="white" stroke="black" points="0,-0.5 0,-19.5 79,-19.5 79,-0.5 0,-0.5"/>
<text text-anchor="middle" x="39.5" y="-7.5" font-family="Helvetica,sans-Serif" font-size="10.00">AESKey&lt; S &gt;</text>
</a>
</g>
</g>
<!-- Node1&#45;&gt;Node2 -->
<g id="edge1" class="edge"><title>Node1&#45;&gt;Node2</title>
<path fill="none" stroke="midnightblue" d="M69.7268,-49.5372C59.6034,-39.9087 48.5731,-27.8694 42.6944,-19.8339"/>
<polygon fill="midnightblue" stroke="midnightblue" points="67.4377,-52.1863 77.1911,-56.324 72.1468,-47.007 67.4377,-52.1863"/>
</g>
<!-- Node1&#45;&gt;Node2 -->
<g id="edge2" class="edge"><title>Node1&#45;&gt;Node2</title>
<path fill="none" stroke="midnightblue" d="M80.8878,-48.144C72.8616,-38.7357 61.7679,-27.4046 52.8959,-19.7511"/>
<polygon fill="midnightblue" stroke="midnightblue" points="78.2622,-50.4646 87.2447,-56.083 83.7264,-46.0894 78.2622,-50.4646"/>
</g>
<!-- Node3 -->
<g id="node3" class="node"><title>Node3</title>
<g id="a_node3"><a xlink:href="class_a_e_s_key.html" target="_top" xlink:title="AESKey\&lt; 128 \&gt;">
<polygon fill="white" stroke="black" points="97.5,-0.5 97.5,-19.5 185.5,-19.5 185.5,-0.5 97.5,-0.5"/>
<text text-anchor="middle" x="141.5" y="-7.5" font-family="Helvetica,sans-Serif" font-size="10.00">AESKey&lt; 128 &gt;</text>
</a>
</g>
</g>
<!-- Node1&#45;&gt;Node3 -->
<g id="edge3" class="edge"><title>Node1&#45;&gt;Node3</title>
<path fill="none" stroke="midnightblue" d="M100.112,-48.144C108.138,-38.7357 119.232,-27.4046 128.104,-19.7511"/>
<polygon fill="midnightblue" stroke="midnightblue" points="97.2736,-46.0894 93.7553,-56.083 102.738,-50.4646 97.2736,-46.0894"/>
</g>
<!-- Node1&#45;&gt;Node3 -->
<g id="edge4" class="edge"><title>Node1&#45;&gt;Node3</title>
<path fill="none" stroke="midnightblue" d="M111.273,-49.5372C121.397,-39.9087 132.427,-27.8694 138.306,-19.8339"/>
<polygon fill="midnightblue" stroke="midnightblue" points="108.853,-47.007 103.809,-56.324 113.562,-52.1863 108.853,-47.007"/>
</g>
</g>
</svg>
