<?xml version="1.0" encoding="UTF-8" standalone="no"?>
<!DOCTYPE svg PUBLIC "-//W3C//DTD SVG 1.1//EN"
 "http://www.w3.org/Graphics/SVG/1.1/DTD/svg11.dtd">
<!-- Generated by graphviz version 2.38.0 (20140413.2041)
 -->
<!-- Title: blfwk::SourceFile Pages: 1 -->
<svg width="375pt" height="434pt"
 viewBox="0.00 0.00 375.00 434.00" xmlns="http://www.w3.org/2000/svg" xmlns:xlink="http://www.w3.org/1999/xlink">
<g id="graph0" class="graph" transform="scale(1 1) rotate(0) translate(4 430)">
<title>blfwk::SourceFile</title>
<polygon fill="white" stroke="none" points="-4,4 -4,-430 371,-430 371,4 -4,4"/>
<!-- Node1 -->
<g id="node1" class="node"><title>Node1</title>
<polygon fill="#bfbfbf" stroke="black" points="115,-0.5 115,-19.5 206,-19.5 206,-0.5 115,-0.5"/>
<text text-anchor="middle" x="160.5" y="-7.5" font-family="Helvetica,sans-Serif" font-size="10.00">blfwk::SourceFile</text>
</g>
<!-- Node2 -->
<g id="node2" class="node"><title>Node2</title>
<g id="a_node2"><a xlink:title="STL class. ">
<polygon fill="white" stroke="#bfbfbf" points="17.5,-73 17.5,-92 77.5,-92 77.5,-73 17.5,-73"/>
<text text-anchor="middle" x="47.5" y="-80" font-family="Helvetica,sans-Serif" font-size="10.00">std::string</text>
</a>
</g>
</g>
<!-- Node2&#45;&gt;Node1 -->
<g id="edge1" class="edge"><title>Node2&#45;&gt;Node1</title>
<path fill="none" stroke="#9a32cd" stroke-dasharray="5,2" d="M70.0454,-67.4341C92.8573,-53.2019 127.408,-31.6459 146.531,-19.7154"/>
<polygon fill="#9a32cd" stroke="#9a32cd" points="67.9876,-64.5926 61.356,-72.8553 71.6929,-70.5315 67.9876,-64.5926"/>
<text text-anchor="middle" x="132.5" y="-41" font-family="Helvetica,sans-Serif" font-size="10.00"> m_path</text>
</g>
<!-- Node3 -->
<g id="node3" class="node"><title>Node3</title>
<g id="a_node3"><a xlink:title="STL class. ">
<polygon fill="white" stroke="#bfbfbf" points="0,-145.5 0,-175.5 95,-175.5 95,-145.5 0,-145.5"/>
<text text-anchor="start" x="8" y="-163.5" font-family="Helvetica,sans-Serif" font-size="10.00">std::basic_string&lt;</text>
<text text-anchor="middle" x="47.5" y="-152.5" font-family="Helvetica,sans-Serif" font-size="10.00"> char &gt;</text>
</a>
</g>
</g>
<!-- Node3&#45;&gt;Node2 -->
<g id="edge2" class="edge"><title>Node3&#45;&gt;Node2</title>
<path fill="none" stroke="midnightblue" d="M47.5,-135.165C47.5,-120.396 47.5,-102.448 47.5,-92.0635"/>
<polygon fill="midnightblue" stroke="midnightblue" points="44.0001,-135.205 47.5,-145.205 51.0001,-135.205 44.0001,-135.205"/>
</g>
<!-- Node4 -->
<g id="node4" class="node"><title>Node4</title>
<g id="a_node4"><a xlink:href="group__smart__pointer.html" target="_top" xlink:title="smart_ptr\&lt; std::ifstream \&gt;">
<polygon fill="white" stroke="black" points="95.5,-73 95.5,-92 225.5,-92 225.5,-73 95.5,-73"/>
<text text-anchor="middle" x="160.5" y="-80" font-family="Helvetica,sans-Serif" font-size="10.00">smart_ptr&lt; std::ifstream &gt;</text>
</a>
</g>
</g>
<!-- Node4&#45;&gt;Node1 -->
<g id="edge3" class="edge"><title>Node4&#45;&gt;Node1</title>
<path fill="none" stroke="#9a32cd" stroke-dasharray="5,2" d="M160.5,-62.442C160.5,-48.5305 160.5,-30.3203 160.5,-19.7154"/>
<polygon fill="#9a32cd" stroke="#9a32cd" points="157,-62.8553 160.5,-72.8553 164,-62.8553 157,-62.8553"/>
<text text-anchor="middle" x="184" y="-41" font-family="Helvetica,sans-Serif" font-size="10.00"> m_stream</text>
</g>
<!-- Node5 -->
<g id="node5" class="node"><title>Node5</title>
<g id="a_node5"><a xlink:title="STL class. ">
<polygon fill="white" stroke="#bfbfbf" points="125,-151 125,-170 196,-170 196,-151 125,-151"/>
<text text-anchor="middle" x="160.5" y="-158" font-family="Helvetica,sans-Serif" font-size="10.00">std::ifstream</text>
</a>
</g>
</g>
<!-- Node5&#45;&gt;Node4 -->
<g id="edge4" class="edge"><title>Node5&#45;&gt;Node4</title>
<path fill="none" stroke="#9a32cd" stroke-dasharray="5,2" d="M160.5,-140.724C160.5,-125.197 160.5,-103.858 160.5,-92.1165"/>
<polygon fill="#9a32cd" stroke="#9a32cd" points="157,-140.782 160.5,-150.782 164,-140.782 157,-140.782"/>
<text text-anchor="middle" x="167.5" y="-119" font-family="Helvetica,sans-Serif" font-size="10.00"> _p</text>
</g>
<!-- Node6 -->
<g id="node6" class="node"><title>Node6</title>
<g id="a_node6"><a xlink:title="STL class. ">
<polygon fill="white" stroke="#bfbfbf" points="111,-213.5 111,-243.5 210,-243.5 210,-213.5 111,-213.5"/>
<text text-anchor="start" x="119" y="-231.5" font-family="Helvetica,sans-Serif" font-size="10.00">std::basic_ifstream</text>
<text text-anchor="middle" x="160.5" y="-220.5" font-family="Helvetica,sans-Serif" font-size="10.00">&lt; char &gt;</text>
</a>
</g>
</g>
<!-- Node6&#45;&gt;Node5 -->
<g id="edge5" class="edge"><title>Node6&#45;&gt;Node5</title>
<path fill="none" stroke="midnightblue" d="M160.5,-202.876C160.5,-191.471 160.5,-178.636 160.5,-170.328"/>
<polygon fill="midnightblue" stroke="midnightblue" points="157,-203.179 160.5,-213.179 164,-203.179 157,-203.179"/>
</g>
<!-- Node7 -->
<g id="node7" class="node"><title>Node7</title>
<g id="a_node7"><a xlink:title="STL class. ">
<polygon fill="white" stroke="#bfbfbf" points="112,-281.5 112,-311.5 209,-311.5 209,-281.5 112,-281.5"/>
<text text-anchor="start" x="120" y="-299.5" font-family="Helvetica,sans-Serif" font-size="10.00">std::basic_istream</text>
<text text-anchor="middle" x="160.5" y="-288.5" font-family="Helvetica,sans-Serif" font-size="10.00">&lt; Char &gt;</text>
</a>
</g>
</g>
<!-- Node7&#45;&gt;Node6 -->
<g id="edge6" class="edge"><title>Node7&#45;&gt;Node6</title>
<path fill="none" stroke="midnightblue" d="M160.5,-271.032C160.5,-261.861 160.5,-251.745 160.5,-243.793"/>
<polygon fill="midnightblue" stroke="midnightblue" points="157,-271.179 160.5,-281.179 164,-271.179 157,-271.179"/>
</g>
<!-- Node8 -->
<g id="node8" class="node"><title>Node8</title>
<g id="a_node8"><a xlink:title="STL class. ">
<polygon fill="white" stroke="#bfbfbf" points="102.5,-349.5 102.5,-368.5 218.5,-368.5 218.5,-349.5 102.5,-349.5"/>
<text text-anchor="middle" x="160.5" y="-356.5" font-family="Helvetica,sans-Serif" font-size="10.00">std::basic_ios&lt; Char &gt;</text>
</a>
</g>
</g>
<!-- Node8&#45;&gt;Node7 -->
<g id="edge7" class="edge"><title>Node8&#45;&gt;Node7</title>
<path fill="none" stroke="midnightblue" d="M160.5,-339.215C160.5,-330.356 160.5,-319.958 160.5,-311.759"/>
<polygon fill="midnightblue" stroke="midnightblue" points="157,-339.332 160.5,-349.332 164,-339.332 157,-339.332"/>
</g>
<!-- Node9 -->
<g id="node9" class="node"><title>Node9</title>
<g id="a_node9"><a xlink:title="STL class. ">
<polygon fill="white" stroke="#bfbfbf" points="123,-406.5 123,-425.5 198,-425.5 198,-406.5 123,-406.5"/>
<text text-anchor="middle" x="160.5" y="-413.5" font-family="Helvetica,sans-Serif" font-size="10.00">std::ios_base</text>
</a>
</g>
</g>
<!-- Node9&#45;&gt;Node8 -->
<g id="edge8" class="edge"><title>Node9&#45;&gt;Node8</title>
<path fill="none" stroke="midnightblue" d="M160.5,-396.117C160.5,-386.817 160.5,-376.056 160.5,-368.715"/>
<polygon fill="midnightblue" stroke="midnightblue" points="157,-396.406 160.5,-406.406 164,-396.406 157,-396.406"/>
</g>
<!-- Node10 -->
<g id="node10" class="node"><title>Node10</title>
<g id="a_node10"><a xlink:href="group__smart__pointer.html" target="_top" xlink:title="smart_ptr\&lt; blfwk::Option\lContext \&gt;">
<polygon fill="white" stroke="black" points="244,-67.5 244,-97.5 367,-97.5 367,-67.5 244,-67.5"/>
<text text-anchor="start" x="252" y="-85.5" font-family="Helvetica,sans-Serif" font-size="10.00">smart_ptr&lt; blfwk::Option</text>
<text text-anchor="middle" x="305.5" y="-74.5" font-family="Helvetica,sans-Serif" font-size="10.00">Context &gt;</text>
</a>
</g>
</g>
<!-- Node10&#45;&gt;Node1 -->
<g id="edge9" class="edge"><title>Node10&#45;&gt;Node1</title>
<path fill="none" stroke="#9a32cd" stroke-dasharray="5,2" d="M267.485,-63.0167C238.567,-48.9565 200.106,-30.2566 178.051,-19.5336"/>
<polygon fill="#9a32cd" stroke="#9a32cd" points="265.982,-66.1777 276.506,-67.4027 269.043,-59.8824 265.982,-66.1777"/>
<text text-anchor="middle" x="262" y="-41" font-family="Helvetica,sans-Serif" font-size="10.00"> m_options</text>
</g>
<!-- Node11 -->
<g id="node11" class="node"><title>Node11</title>
<g id="a_node11"><a xlink:href="classblfwk_1_1_option_context.html" target="_top" xlink:title="Pure abstract interface class to a table of options. ">
<polygon fill="white" stroke="black" points="252,-151 252,-170 359,-170 359,-151 252,-151"/>
<text text-anchor="middle" x="305.5" y="-158" font-family="Helvetica,sans-Serif" font-size="10.00">blfwk::OptionContext</text>
</a>
</g>
</g>
<!-- Node11&#45;&gt;Node10 -->
<g id="edge10" class="edge"><title>Node11&#45;&gt;Node10</title>
<path fill="none" stroke="#9a32cd" stroke-dasharray="5,2" d="M305.5,-140.782C305.5,-127.404 305.5,-109.688 305.5,-97.5198"/>
<polygon fill="#9a32cd" stroke="#9a32cd" points="302,-140.782 305.5,-150.782 309,-140.782 302,-140.782"/>
<text text-anchor="middle" x="312.5" y="-119" font-family="Helvetica,sans-Serif" font-size="10.00"> _p</text>
</g>
</g>
</svg>
