<?xml version="1.0" encoding="UTF-8" standalone="no"?>
<!DOCTYPE svg PUBLIC "-//W3C//DTD SVG 1.1//EN"
 "http://www.w3.org/Graphics/SVG/1.1/DTD/svg11.dtd">
<!-- Generated by graphviz version 2.38.0 (20140413.2041)
 -->
<!-- Title: blfwk::DataSource Pages: 1 -->
<svg width="111pt" height="95pt"
 viewBox="0.00 0.00 110.50 95.00" xmlns="http://www.w3.org/2000/svg" xmlns:xlink="http://www.w3.org/1999/xlink">
<g id="graph0" class="graph" transform="scale(1 1) rotate(0) translate(4 91)">
<title>blfwk::DataSource</title>
<polygon fill="white" stroke="none" points="-4,4 -4,-91 106.5,-91 106.5,4 -4,4"/>
<!-- Node1 -->
<g id="node1" class="node"><title>Node1</title>
<polygon fill="#bfbfbf" stroke="black" points="0,-67.5 0,-86.5 95,-86.5 95,-67.5 0,-67.5"/>
<text text-anchor="middle" x="47.5" y="-74.5" font-family="Helvetica,sans-Serif" font-size="10.00">blfwk::DataSource</text>
</g>
<!-- Node2 -->
<g id="node2" class="node"><title>Node2</title>
<g id="a_node2"><a xlink:href="classblfwk_1_1_data_target.html" target="_top" xlink:title="Abstract base class for the target address or range of data. ">
<polygon fill="white" stroke="black" points="1.5,-0.5 1.5,-19.5 93.5,-19.5 93.5,-0.5 1.5,-0.5"/>
<text text-anchor="middle" x="47.5" y="-7.5" font-family="Helvetica,sans-Serif" font-size="10.00">blfwk::DataTarget</text>
</a>
</g>
</g>
<!-- Node1&#45;&gt;Node2 -->
<g id="edge2" class="edge"><title>Node1&#45;&gt;Node2</title>
<path fill="none" stroke="#9a32cd" stroke-dasharray="5,2" d="M20.7294,-61.3517C16.602,-57.8665 12.915,-53.7519 10.5,-49 4.45093,-37.0974 17.1245,-26.4872 29.2521,-19.5239"/>
<polygon fill="#9a32cd" stroke="#9a32cd" points="18.8253,-64.2932 28.9904,-67.2802 22.9067,-58.6061 18.8253,-64.2932"/>
<text text-anchor="middle" x="33.5" y="-41" font-family="Helvetica,sans-Serif" font-size="10.00"> m_source</text>
</g>
<!-- Node2&#45;&gt;Node1 -->
<g id="edge1" class="edge"><title>Node2&#45;&gt;Node1</title>
<path fill="none" stroke="#9a32cd" stroke-dasharray="5,2" d="M57.8463,-28.6097C60.4152,-34.9532 62.0474,-42.2192 60.5,-49 59.0184,-55.4923 55.7684,-62.2423 52.8888,-67.3693"/>
<polygon fill="#9a32cd" stroke="#9a32cd" points="60.9517,-26.994 53.3608,-19.603 54.6858,-30.1146 60.9517,-26.994"/>
<text text-anchor="middle" x="81.5" y="-41" font-family="Helvetica,sans-Serif" font-size="10.00"> m_target</text>
</g>
</g>
</svg>
