<?xml version="1.0" encoding="UTF-8" standalone="no"?>
<!DOCTYPE svg PUBLIC "-//W3C//DTD SVG 1.1//EN"
 "http://www.w3.org/Graphics/SVG/1.1/DTD/svg11.dtd">
<!-- Generated by graphviz version 2.38.0 (20140413.2041)
 -->
<!-- Title: elftosb::DataSource::PatternSegment Pages: 1 -->
<svg width="450pt" height="127pt"
 viewBox="0.00 0.00 450.00 126.50" xmlns="http://www.w3.org/2000/svg" xmlns:xlink="http://www.w3.org/1999/xlink">
<g id="graph0" class="graph" transform="scale(1 1) rotate(0) translate(4 122.5)">
<title>elftosb::DataSource::PatternSegment</title>
<polygon fill="white" stroke="none" points="-4,4 -4,-122.5 446,-122.5 446,4 -4,4"/>
<!-- Node1 -->
<g id="node1" class="node"><title>Node1</title>
<polygon fill="#bfbfbf" stroke="black" points="138,-39 138,-69 240,-69 240,-39 138,-39"/>
<text text-anchor="start" x="146" y="-57" font-family="Helvetica,sans-Serif" font-size="10.00">elftosb::DataSource</text>
<text text-anchor="middle" x="189" y="-46" font-family="Helvetica,sans-Serif" font-size="10.00">::PatternSegment</text>
</g>
<!-- Node3 -->
<g id="node3" class="node"><title>Node3</title>
<g id="a_node3"><a xlink:href="classelftosb_1_1_e_l_f_source_file_1_1_e_l_f_data_source_1_1_no_bits_segment.html" target="_top" xlink:title="Represents one named #SHT_NOBITS section within the ELF file. ">
<polygon fill="white" stroke="black" points="276,-88 276,-118 442,-118 442,-88 276,-88"/>
<text text-anchor="start" x="284" y="-106" font-family="Helvetica,sans-Serif" font-size="10.00">elftosb::ELFSourceFile</text>
<text text-anchor="middle" x="359" y="-95" font-family="Helvetica,sans-Serif" font-size="10.00">::ELFDataSource::NoBitsSegment</text>
</a>
</g>
</g>
<!-- Node1&#45;&gt;Node3 -->
<g id="edge2" class="edge"><title>Node1&#45;&gt;Node3</title>
<path fill="none" stroke="midnightblue" d="M250.155,-71.5451C268.579,-76.9188 288.672,-82.7793 306.467,-87.9696"/>
<polygon fill="midnightblue" stroke="midnightblue" points="250.986,-68.1417 240.406,-68.7016 249.026,-74.8617 250.986,-68.1417"/>
</g>
<!-- Node4 -->
<g id="node4" class="node"><title>Node4</title>
<g id="a_node4"><a xlink:href="classelftosb_1_1_memory_image_data_source_1_1_fill_segment.html" target="_top" xlink:title="Segment corresponding to a fill region of the executable image. ">
<polygon fill="white" stroke="black" points="292.5,-39 292.5,-69 425.5,-69 425.5,-39 292.5,-39"/>
<text text-anchor="start" x="300.5" y="-57" font-family="Helvetica,sans-Serif" font-size="10.00">elftosb::MemoryImageData</text>
<text text-anchor="middle" x="359" y="-46" font-family="Helvetica,sans-Serif" font-size="10.00">Source::FillSegment</text>
</a>
</g>
</g>
<!-- Node1&#45;&gt;Node4 -->
<g id="edge3" class="edge"><title>Node1&#45;&gt;Node4</title>
<path fill="none" stroke="midnightblue" d="M250.584,-54C264.155,-54 278.611,-54 292.376,-54"/>
<polygon fill="midnightblue" stroke="midnightblue" points="250.406,-50.5001 240.406,-54 250.406,-57.5001 250.406,-50.5001"/>
</g>
<!-- Node5 -->
<g id="node5" class="node"><title>Node5</title>
<g id="a_node5"><a xlink:href="classelftosb_1_1_pattern_source.html" target="_top" xlink:title="Data source for a repeating pattern. ">
<polygon fill="white" stroke="black" points="302.5,-0.5 302.5,-19.5 415.5,-19.5 415.5,-0.5 302.5,-0.5"/>
<text text-anchor="middle" x="359" y="-7.5" font-family="Helvetica,sans-Serif" font-size="10.00">elftosb::PatternSource</text>
</a>
</g>
</g>
<!-- Node1&#45;&gt;Node5 -->
<g id="edge4" class="edge"><title>Node1&#45;&gt;Node5</title>
<path fill="none" stroke="midnightblue" d="M249.715,-36.1802C258.508,-33.6904 267.474,-31.2252 276,-29 288.584,-25.7156 302.329,-22.4185 314.907,-19.5144"/>
<polygon fill="midnightblue" stroke="midnightblue" points="248.545,-32.8745 239.894,-38.9903 250.471,-39.6044 248.545,-32.8745"/>
</g>
<!-- Node2 -->
<g id="node2" class="node"><title>Node2</title>
<g id="a_node2"><a xlink:href="classelftosb_1_1_data_source_1_1_segment.html" target="_top" xlink:title="Discrete, contiguous part of the source&#39;s data. ">
<polygon fill="white" stroke="black" points="0,-39 0,-69 102,-69 102,-39 0,-39"/>
<text text-anchor="start" x="8" y="-57" font-family="Helvetica,sans-Serif" font-size="10.00">elftosb::DataSource</text>
<text text-anchor="middle" x="51" y="-46" font-family="Helvetica,sans-Serif" font-size="10.00">::Segment</text>
</a>
</g>
</g>
<!-- Node2&#45;&gt;Node1 -->
<g id="edge1" class="edge"><title>Node2&#45;&gt;Node1</title>
<path fill="none" stroke="midnightblue" d="M112.511,-54C121.013,-54 129.674,-54 137.952,-54"/>
<polygon fill="midnightblue" stroke="midnightblue" points="112.255,-50.5001 102.255,-54 112.255,-57.5001 112.255,-50.5001"/>
</g>
</g>
</svg>
