<?xml version="1.0" encoding="UTF-8" standalone="no"?>
<!DOCTYPE svg PUBLIC "-//W3C//DTD SVG 1.1//EN"
 "http://www.w3.org/Graphics/SVG/1.1/DTD/svg11.dtd">
<!-- Generated by graphviz version 2.38.0 (20140413.2041)
 -->
<!-- Title: elftosb::SourcesBlockASTNode Pages: 1 -->
<svg width="239pt" height="374pt"
 viewBox="0.00 0.00 239.00 374.00" xmlns="http://www.w3.org/2000/svg" xmlns:xlink="http://www.w3.org/1999/xlink">
<g id="graph0" class="graph" transform="scale(1 1) rotate(0) translate(4 370)">
<title>elftosb::SourcesBlockASTNode</title>
<polygon fill="white" stroke="none" points="-4,4 -4,-370 235,-370 235,4 -4,4"/>
<!-- Node1 -->
<g id="node1" class="node"><title>Node1</title>
<polygon fill="#bfbfbf" stroke="black" points="0,-0.5 0,-19.5 153,-19.5 153,-0.5 0,-0.5"/>
<text text-anchor="middle" x="76.5" y="-7.5" font-family="Helvetica,sans-Serif" font-size="10.00">elftosb::SourcesBlockASTNode</text>
</g>
<!-- Node2 -->
<g id="node2" class="node"><title>Node2</title>
<g id="a_node2"><a xlink:href="classelftosb_1_1_a_s_t_node.html" target="_top" xlink:title="The base class for all AST node classes. ">
<polygon fill="white" stroke="black" points="41.5,-279.5 41.5,-298.5 133.5,-298.5 133.5,-279.5 41.5,-279.5"/>
<text text-anchor="middle" x="87.5" y="-286.5" font-family="Helvetica,sans-Serif" font-size="10.00">elftosb::ASTNode</text>
</a>
</g>
</g>
<!-- Node2&#45;&gt;Node1 -->
<g id="edge1" class="edge"><title>Node2&#45;&gt;Node1</title>
<path fill="none" stroke="midnightblue" d="M71.4672,-271.69C61.0891,-259.372 49.5,-241.48 49.5,-223 49.5,-223 49.5,-223 49.5,-81.5 49.5,-57.9083 62.8484,-32.6383 70.774,-19.7135"/>
<polygon fill="midnightblue" stroke="midnightblue" points="69.0042,-274.185 78.3013,-279.266 74.2019,-269.496 69.0042,-274.185"/>
</g>
<!-- Node2&#45;&gt;Node2 -->
<g id="edge3" class="edge"><title>Node2&#45;&gt;Node2</title>
<path fill="none" stroke="#9a32cd" stroke-dasharray="5,2" d="M143.774,-293.66C148.534,-292.663 151.5,-291.109 151.5,-289 151.5,-285.625 143.906,-283.674 133.524,-283.146"/>
<polygon fill="#9a32cd" stroke="#9a32cd" points="143.052,-290.22 133.524,-294.854 143.862,-297.173 143.052,-290.22"/>
<text text-anchor="middle" x="173.5" y="-286.5" font-family="Helvetica,sans-Serif" font-size="10.00"> m_parent</text>
</g>
<!-- Node5 -->
<g id="node5" class="node"><title>Node5</title>
<g id="a_node5"><a xlink:href="classelftosb_1_1_list_a_s_t_node.html" target="_top" xlink:title="AST node that contains other AST nodes. ">
<polygon fill="white" stroke="black" points="77.5,-145.5 77.5,-164.5 185.5,-164.5 185.5,-145.5 77.5,-145.5"/>
<text text-anchor="middle" x="131.5" y="-152.5" font-family="Helvetica,sans-Serif" font-size="10.00">elftosb::ListASTNode</text>
</a>
</g>
</g>
<!-- Node2&#45;&gt;Node5 -->
<g id="edge6" class="edge"><title>Node2&#45;&gt;Node5</title>
<path fill="none" stroke="midnightblue" d="M91.1724,-269.517C94.4871,-253.962 99.857,-231.242 106.5,-212 112.476,-194.69 121.707,-175.361 127.122,-164.54"/>
<polygon fill="midnightblue" stroke="midnightblue" points="87.7212,-268.924 89.1332,-279.424 94.5774,-270.335 87.7212,-268.924"/>
</g>
<!-- Node6 -->
<g id="node6" class="node"><title>Node6</title>
<polygon fill="white" stroke="#bfbfbf" points="116,-212.5 116,-231.5 231,-231.5 231,-212.5 116,-212.5"/>
<text text-anchor="middle" x="173.5" y="-219.5" font-family="Helvetica,sans-Serif" font-size="10.00">std::list&lt; ASTNode * &gt;</text>
</g>
<!-- Node2&#45;&gt;Node6 -->
<g id="edge8" class="edge"><title>Node2&#45;&gt;Node6</title>
<path fill="none" stroke="#9a32cd" stroke-dasharray="5,2" d="M107.256,-273.068C124.232,-260.238 148.116,-242.185 162.085,-231.627"/>
<polygon fill="#9a32cd" stroke="#9a32cd" points="104.966,-270.412 99.0983,-279.234 109.186,-275.996 104.966,-270.412"/>
<text text-anchor="middle" x="158" y="-253" font-family="Helvetica,sans-Serif" font-size="10.00"> elements</text>
</g>
<!-- Node3 -->
<g id="node3" class="node"><title>Node3</title>
<g id="a_node3"><a xlink:href="structelftosb_1_1token__loc__t.html" target="_top" xlink:title="Token location in the source file. ">
<polygon fill="white" stroke="black" points="37,-346.5 37,-365.5 138,-365.5 138,-346.5 37,-346.5"/>
<text text-anchor="middle" x="87.5" y="-353.5" font-family="Helvetica,sans-Serif" font-size="10.00">elftosb::token_loc_t</text>
</a>
</g>
</g>
<!-- Node3&#45;&gt;Node2 -->
<g id="edge2" class="edge"><title>Node3&#45;&gt;Node2</title>
<path fill="none" stroke="#9a32cd" stroke-dasharray="5,2" d="M87.5,-336.037C87.5,-323.67 87.5,-308.12 87.5,-298.627"/>
<polygon fill="#9a32cd" stroke="#9a32cd" points="84.0001,-336.234 87.5,-346.234 91.0001,-336.234 84.0001,-336.234"/>
<text text-anchor="middle" x="113" y="-320" font-family="Helvetica,sans-Serif" font-size="10.00"> m_location</text>
</g>
<!-- Node4 -->
<g id="node4" class="node"><title>Node4</title>
<g id="a_node4"><a xlink:href="group__smart__pointer.html" target="_top" xlink:title="smart_ptr\&lt; elftosb\l::ListASTNode \&gt;">
<polygon fill="white" stroke="black" points="79,-67.5 79,-97.5 174,-97.5 174,-67.5 79,-67.5"/>
<text text-anchor="start" x="87" y="-85.5" font-family="Helvetica,sans-Serif" font-size="10.00">smart_ptr&lt; elftosb</text>
<text text-anchor="middle" x="126.5" y="-74.5" font-family="Helvetica,sans-Serif" font-size="10.00">::ListASTNode &gt;</text>
</a>
</g>
</g>
<!-- Node4&#45;&gt;Node1 -->
<g id="edge4" class="edge"><title>Node4&#45;&gt;Node1</title>
<path fill="none" stroke="#9a32cd" stroke-dasharray="5,2" d="M110.547,-59.006C101.131,-45.7295 89.7359,-29.6626 82.8072,-19.8932"/>
<polygon fill="#9a32cd" stroke="#9a32cd" points="107.742,-61.1012 116.382,-67.2333 113.452,-57.0517 107.742,-61.1012"/>
<text text-anchor="middle" x="129.5" y="-41" font-family="Helvetica,sans-Serif" font-size="10.00"> m_sources</text>
</g>
<!-- Node5&#45;&gt;Node4 -->
<g id="edge5" class="edge"><title>Node5&#45;&gt;Node4</title>
<path fill="none" stroke="#9a32cd" stroke-dasharray="5,2" d="M130.169,-135.236C129.33,-123.408 128.265,-108.383 127.498,-97.5762"/>
<polygon fill="#9a32cd" stroke="#9a32cd" points="126.688,-135.628 130.887,-145.355 133.671,-135.133 126.688,-135.628"/>
<text text-anchor="middle" x="136.5" y="-119" font-family="Helvetica,sans-Serif" font-size="10.00"> _p</text>
</g>
<!-- Node6&#45;&gt;Node5 -->
<g id="edge7" class="edge"><title>Node6&#45;&gt;Node5</title>
<path fill="none" stroke="#9a32cd" stroke-dasharray="5,2" d="M162.215,-203.535C154.083,-190.95 143.459,-174.507 137.075,-164.627"/>
<polygon fill="#9a32cd" stroke="#9a32cd" points="159.469,-205.734 167.836,-212.234 165.348,-201.935 159.469,-205.734"/>
<text text-anchor="middle" x="169.5" y="-186" font-family="Helvetica,sans-Serif" font-size="10.00"> m_list</text>
</g>
</g>
</svg>
