<?xml version="1.0" encoding="UTF-8" standalone="no"?>
<!DOCTYPE svg PUBLIC "-//W3C//DTD SVG 1.1//EN"
 "http://www.w3.org/Graphics/SVG/1.1/DTD/svg11.dtd">
<!-- Generated by graphviz version 2.38.0 (20140413.2041)
 -->
<!-- Title: elftosb::SectionContentsASTNode Pages: 1 -->
<svg width="292pt" height="162pt"
 viewBox="0.00 0.00 291.50 162.00" xmlns="http://www.w3.org/2000/svg" xmlns:xlink="http://www.w3.org/1999/xlink">
<g id="graph0" class="graph" transform="scale(1 1) rotate(0) translate(4 158)">
<title>elftosb::SectionContentsASTNode</title>
<polygon fill="white" stroke="none" points="-4,4 -4,-158 287.5,-158 287.5,4 -4,4"/>
<!-- Node1 -->
<g id="node1" class="node"><title>Node1</title>
<polygon fill="#bfbfbf" stroke="black" points="74.5,-67.5 74.5,-97.5 197.5,-97.5 197.5,-67.5 74.5,-67.5"/>
<text text-anchor="start" x="82.5" y="-85.5" font-family="Helvetica,sans-Serif" font-size="10.00">elftosb::SectionContents</text>
<text text-anchor="middle" x="136" y="-74.5" font-family="Helvetica,sans-Serif" font-size="10.00">ASTNode</text>
</g>
<!-- Node3 -->
<g id="node3" class="node"><title>Node3</title>
<g id="a_node3"><a xlink:href="classelftosb_1_1_bootable_section_contents_a_s_t_node.html" target="_top" xlink:title="elftosb::BootableSection\lContentsASTNode">
<polygon fill="white" stroke="black" points="0,-0.5 0,-30.5 122,-30.5 122,-0.5 0,-0.5"/>
<text text-anchor="start" x="8" y="-18.5" font-family="Helvetica,sans-Serif" font-size="10.00">elftosb::BootableSection</text>
<text text-anchor="middle" x="61" y="-7.5" font-family="Helvetica,sans-Serif" font-size="10.00">ContentsASTNode</text>
</a>
</g>
</g>
<!-- Node1&#45;&gt;Node3 -->
<g id="edge2" class="edge"><title>Node1&#45;&gt;Node3</title>
<path fill="none" stroke="midnightblue" d="M111.882,-60.5978C100.557,-50.7831 87.3587,-39.3442 77.2421,-30.5765"/>
<polygon fill="midnightblue" stroke="midnightblue" points="109.877,-63.4915 119.726,-67.396 114.461,-58.2017 109.877,-63.4915"/>
</g>
<!-- Node4 -->
<g id="node4" class="node"><title>Node4</title>
<g id="a_node4"><a xlink:href="classelftosb_1_1_data_section_contents_a_s_t_node.html" target="_top" xlink:title="Node representing a raw binary section definition. ">
<polygon fill="white" stroke="black" points="140.5,-0.5 140.5,-30.5 283.5,-30.5 283.5,-0.5 140.5,-0.5"/>
<text text-anchor="start" x="148.5" y="-18.5" font-family="Helvetica,sans-Serif" font-size="10.00">elftosb::DataSectionContents</text>
<text text-anchor="middle" x="212" y="-7.5" font-family="Helvetica,sans-Serif" font-size="10.00">ASTNode</text>
</a>
</g>
</g>
<!-- Node1&#45;&gt;Node4 -->
<g id="edge3" class="edge"><title>Node1&#45;&gt;Node4</title>
<path fill="none" stroke="midnightblue" d="M160.106,-60.8832C171.655,-51.0054 185.19,-39.4293 195.541,-30.5765"/>
<polygon fill="midnightblue" stroke="midnightblue" points="157.816,-58.2364 152.491,-67.396 162.365,-63.5561 157.816,-58.2364"/>
</g>
<!-- Node2 -->
<g id="node2" class="node"><title>Node2</title>
<g id="a_node2"><a xlink:href="classelftosb_1_1_a_s_t_node.html" target="_top" xlink:title="The base class for all AST node classes. ">
<polygon fill="white" stroke="black" points="90,-134.5 90,-153.5 182,-153.5 182,-134.5 90,-134.5"/>
<text text-anchor="middle" x="136" y="-141.5" font-family="Helvetica,sans-Serif" font-size="10.00">elftosb::ASTNode</text>
</a>
</g>
</g>
<!-- Node2&#45;&gt;Node1 -->
<g id="edge1" class="edge"><title>Node2&#45;&gt;Node1</title>
<path fill="none" stroke="midnightblue" d="M136,-124.235C136,-115.586 136,-105.497 136,-97.523"/>
<polygon fill="midnightblue" stroke="midnightblue" points="132.5,-124.475 136,-134.475 139.5,-124.475 132.5,-124.475"/>
</g>
</g>
</svg>
