<?xml version="1.0" encoding="UTF-8" standalone="no"?>
<!DOCTYPE svg PUBLIC "-//W3C//DTD SVG 1.1//EN"
 "http://www.w3.org/Graphics/SVG/1.1/DTD/svg11.dtd">
<!-- Generated by graphviz version 2.38.0 (20140413.2041)
 -->
<!-- Title: blfwk::DataPacket::StdOutDataConsumer Pages: 1 -->
<svg width="120pt" height="106pt"
 viewBox="0.00 0.00 120.00 106.00" xmlns="http://www.w3.org/2000/svg" xmlns:xlink="http://www.w3.org/1999/xlink">
<g id="graph0" class="graph" transform="scale(1 1) rotate(0) translate(4 102)">
<title>blfwk::DataPacket::StdOutDataConsumer</title>
<polygon fill="white" stroke="none" points="-4,4 -4,-102 116,-102 116,4 -4,4"/>
<!-- Node1 -->
<g id="node1" class="node"><title>Node1</title>
<polygon fill="#bfbfbf" stroke="black" points="0,-0.5 0,-30.5 112,-30.5 112,-0.5 0,-0.5"/>
<text text-anchor="start" x="8" y="-18.5" font-family="Helvetica,sans-Serif" font-size="10.00">blfwk::DataPacket::</text>
<text text-anchor="middle" x="56" y="-7.5" font-family="Helvetica,sans-Serif" font-size="10.00">StdOutDataConsumer</text>
</g>
<!-- Node2 -->
<g id="node2" class="node"><title>Node2</title>
<g id="a_node2"><a xlink:href="classblfwk_1_1_data_packet_1_1_data_consumer.html" target="_top" xlink:title="Abstract class to consume data from data phase. ">
<polygon fill="white" stroke="black" points="5.5,-67.5 5.5,-97.5 106.5,-97.5 106.5,-67.5 5.5,-67.5"/>
<text text-anchor="start" x="13.5" y="-85.5" font-family="Helvetica,sans-Serif" font-size="10.00">blfwk::DataPacket::</text>
<text text-anchor="middle" x="56" y="-74.5" font-family="Helvetica,sans-Serif" font-size="10.00">DataConsumer</text>
</a>
</g>
</g>
<!-- Node2&#45;&gt;Node1 -->
<g id="edge1" class="edge"><title>Node2&#45;&gt;Node1</title>
<path fill="none" stroke="midnightblue" d="M56,-57.1081C56,-48.1539 56,-38.3227 56,-30.5765"/>
<polygon fill="midnightblue" stroke="midnightblue" points="52.5001,-57.3959 56,-67.396 59.5001,-57.396 52.5001,-57.3959"/>
</g>
</g>
</svg>
