<?xml version="1.0" encoding="UTF-8" standalone="no"?>
<!DOCTYPE svg PUBLIC "-//W3C//DTD SVG 1.1//EN"
 "http://www.w3.org/Graphics/SVG/1.1/DTD/svg11.dtd">
<!-- Generated by graphviz version 2.38.0 (20140413.2041)
 -->
<!-- Title: blfwk::SourceFile Pages: 1 -->
<svg width="403pt" height="142pt"
 viewBox="0.00 0.00 403.00 142.00" xmlns="http://www.w3.org/2000/svg" xmlns:xlink="http://www.w3.org/1999/xlink">
<g id="graph0" class="graph" transform="scale(1 1) rotate(0) translate(4 138)">
<title>blfwk::SourceFile</title>
<polygon fill="white" stroke="none" points="-4,4 -4,-138 399,-138 399,4 -4,4"/>
<!-- Node1 -->
<g id="node1" class="node"><title>Node1</title>
<polygon fill="#bfbfbf" stroke="black" points="0,-57.5 0,-76.5 91,-76.5 91,-57.5 0,-57.5"/>
<text text-anchor="middle" x="45.5" y="-64.5" font-family="Helvetica,sans-Serif" font-size="10.00">blfwk::SourceFile</text>
</g>
<!-- Node2 -->
<g id="node2" class="node"><title>Node2</title>
<g id="a_node2"><a xlink:href="classblfwk_1_1_binary_source_file.html" target="_top" xlink:title="Binary data file. ">
<polygon fill="white" stroke="black" points="131.5,-114.5 131.5,-133.5 250.5,-133.5 250.5,-114.5 131.5,-114.5"/>
<text text-anchor="middle" x="191" y="-121.5" font-family="Helvetica,sans-Serif" font-size="10.00">blfwk::BinarySourceFile</text>
</a>
</g>
</g>
<!-- Node1&#45;&gt;Node2 -->
<g id="edge1" class="edge"><title>Node1&#45;&gt;Node2</title>
<path fill="none" stroke="midnightblue" d="M73.6777,-81.063C89.0781,-88.7172 108.842,-98.0202 127,-105 135.957,-108.443 145.819,-111.672 155.028,-114.457"/>
<polygon fill="midnightblue" stroke="midnightblue" points="75.2118,-77.9169 64.706,-76.5458 72.0638,-84.1691 75.2118,-77.9169"/>
</g>
<!-- Node4 -->
<g id="node4" class="node"><title>Node4</title>
<g id="a_node4"><a xlink:href="classblfwk_1_1_e_l_f_source_file.html" target="_top" xlink:title="Executable and Loading Format (ELF) source file. ">
<polygon fill="white" stroke="black" points="136.5,-76.5 136.5,-95.5 245.5,-95.5 245.5,-76.5 136.5,-76.5"/>
<text text-anchor="middle" x="191" y="-83.5" font-family="Helvetica,sans-Serif" font-size="10.00">blfwk::ELFSourceFile</text>
</a>
</g>
</g>
<!-- Node1&#45;&gt;Node4 -->
<g id="edge3" class="edge"><title>Node1&#45;&gt;Node4</title>
<path fill="none" stroke="midnightblue" d="M101.076,-74.226C112.629,-75.7558 124.814,-77.3691 136.333,-78.8943"/>
<polygon fill="midnightblue" stroke="midnightblue" points="101.491,-70.7505 91.1177,-72.9076 100.572,-77.69 101.491,-70.7505"/>
</g>
<!-- Node5 -->
<g id="node5" class="node"><title>Node5</title>
<g id="a_node5"><a xlink:href="classblfwk_1_1_intel_hex_source_file.html" target="_top" xlink:title="Executable file in the Intel Hex format. ">
<polygon fill="white" stroke="black" points="128,-38.5 128,-57.5 254,-57.5 254,-38.5 128,-38.5"/>
<text text-anchor="middle" x="191" y="-45.5" font-family="Helvetica,sans-Serif" font-size="10.00">blfwk::IntelHexSourceFile</text>
</a>
</g>
</g>
<!-- Node1&#45;&gt;Node5 -->
<g id="edge4" class="edge"><title>Node1&#45;&gt;Node5</title>
<path fill="none" stroke="midnightblue" d="M101.136,-59.766C109.838,-58.6138 118.897,-57.4144 127.758,-56.2411"/>
<polygon fill="midnightblue" stroke="midnightblue" points="100.572,-56.31 91.1177,-61.0924 101.491,-63.2495 100.572,-56.31"/>
</g>
<!-- Node6 -->
<g id="node6" class="node"><title>Node6</title>
<g id="a_node6"><a xlink:href="classblfwk_1_1_s_record_source_file.html" target="_top" xlink:title="Executable file in the Motorola S&#45;record format. ">
<polygon fill="white" stroke="black" points="127,-0.5 127,-19.5 255,-19.5 255,-0.5 127,-0.5"/>
<text text-anchor="middle" x="191" y="-7.5" font-family="Helvetica,sans-Serif" font-size="10.00">blfwk::SRecordSourceFile</text>
</a>
</g>
</g>
<!-- Node1&#45;&gt;Node6 -->
<g id="edge5" class="edge"><title>Node1&#45;&gt;Node6</title>
<path fill="none" stroke="midnightblue" d="M73.6777,-52.937C89.0781,-45.2828 108.842,-35.9798 127,-29 135.957,-25.5569 145.819,-22.3277 155.028,-19.5427"/>
<polygon fill="midnightblue" stroke="midnightblue" points="72.0638,-49.8309 64.706,-57.4542 75.2118,-56.0831 72.0638,-49.8309"/>
</g>
<!-- Node3 -->
<g id="node3" class="node"><title>Node3</title>
<g id="a_node3"><a xlink:href="classblfwk_1_1_s_b_source_file.html" target="_top" xlink:title="SB Format (SB) source file. ">
<polygon fill="white" stroke="black" points="291,-114.5 291,-133.5 395,-133.5 395,-114.5 291,-114.5"/>
<text text-anchor="middle" x="343" y="-121.5" font-family="Helvetica,sans-Serif" font-size="10.00">blfwk::SBSourceFile</text>
</a>
</g>
</g>
<!-- Node2&#45;&gt;Node3 -->
<g id="edge2" class="edge"><title>Node2&#45;&gt;Node3</title>
<path fill="none" stroke="midnightblue" d="M261.119,-124C271.047,-124 281.112,-124 290.615,-124"/>
<polygon fill="midnightblue" stroke="midnightblue" points="260.853,-120.5 250.853,-124 260.853,-127.5 260.853,-120.5"/>
</g>
</g>
</svg>
