<?xml version="1.0" encoding="UTF-8" standalone="no"?>
<!DOCTYPE svg PUBLIC "-//W3C//DTD SVG 1.1//EN"
 "http://www.w3.org/Graphics/SVG/1.1/DTD/svg11.dtd">
<!-- Generated by graphviz version 2.38.0 (20140413.2041)
 -->
<!-- Title: elftosb::BootableSectionContentsASTNode Pages: 1 -->
<svg width="328pt" height="473pt"
 viewBox="0.00 0.00 327.50 473.00" xmlns="http://www.w3.org/2000/svg" xmlns:xlink="http://www.w3.org/1999/xlink">
<g id="graph0" class="graph" transform="scale(1 1) rotate(0) translate(4 469)">
<title>elftosb::BootableSectionContentsASTNode</title>
<polygon fill="white" stroke="none" points="-4,4 -4,-469 323.5,-469 323.5,4 -4,4"/>
<!-- Node1 -->
<g id="node1" class="node"><title>Node1</title>
<polygon fill="#bfbfbf" stroke="black" points="70.5,-0.5 70.5,-30.5 192.5,-30.5 192.5,-0.5 70.5,-0.5"/>
<text text-anchor="start" x="78.5" y="-18.5" font-family="Helvetica,sans-Serif" font-size="10.00">elftosb::BootableSection</text>
<text text-anchor="middle" x="131.5" y="-7.5" font-family="Helvetica,sans-Serif" font-size="10.00">ContentsASTNode</text>
</g>
<!-- Node2 -->
<g id="node2" class="node"><title>Node2</title>
<g id="a_node2"><a xlink:href="classelftosb_1_1_section_contents_a_s_t_node.html" target="_top" xlink:title="elftosb::SectionContents\lASTNode">
<polygon fill="white" stroke="black" points="174,-68.5 174,-98.5 297,-98.5 297,-68.5 174,-68.5"/>
<text text-anchor="start" x="182" y="-86.5" font-family="Helvetica,sans-Serif" font-size="10.00">elftosb::SectionContents</text>
<text text-anchor="middle" x="235.5" y="-75.5" font-family="Helvetica,sans-Serif" font-size="10.00">ASTNode</text>
</a>
</g>
</g>
<!-- Node2&#45;&gt;Node1 -->
<g id="edge1" class="edge"><title>Node2&#45;&gt;Node1</title>
<path fill="none" stroke="midnightblue" d="M204.519,-62.839C188.205,-52.4856 168.571,-40.026 153.774,-30.6352"/>
<polygon fill="midnightblue" stroke="midnightblue" points="202.871,-65.9382 213.189,-68.3413 206.621,-60.0279 202.871,-65.9382"/>
</g>
<!-- Node3 -->
<g id="node3" class="node"><title>Node3</title>
<g id="a_node3"><a xlink:href="classelftosb_1_1_a_s_t_node.html" target="_top" xlink:title="The base class for all AST node classes. ">
<polygon fill="white" stroke="black" points="139.5,-378.5 139.5,-397.5 231.5,-397.5 231.5,-378.5 139.5,-378.5"/>
<text text-anchor="middle" x="185.5" y="-385.5" font-family="Helvetica,sans-Serif" font-size="10.00">elftosb::ASTNode</text>
</a>
</g>
</g>
<!-- Node3&#45;&gt;Node2 -->
<g id="edge2" class="edge"><title>Node3&#45;&gt;Node2</title>
<path fill="none" stroke="midnightblue" d="M241.8,-381.606C278.457,-374.627 319.5,-358.633 319.5,-322 319.5,-322 319.5,-322 319.5,-160.5 319.5,-131.787 292.178,-111.105 268.699,-98.6333"/>
<polygon fill="midnightblue" stroke="midnightblue" points="240.883,-378.212 231.615,-383.345 242.062,-385.112 240.883,-378.212"/>
</g>
<!-- Node3&#45;&gt;Node3 -->
<g id="edge4" class="edge"><title>Node3&#45;&gt;Node3</title>
<path fill="none" stroke="#9a32cd" stroke-dasharray="5,2" d="M241.774,-392.66C246.534,-391.663 249.5,-390.109 249.5,-388 249.5,-384.625 241.906,-382.674 231.524,-382.146"/>
<polygon fill="#9a32cd" stroke="#9a32cd" points="241.052,-389.22 231.524,-393.854 241.862,-396.173 241.052,-389.22"/>
<text text-anchor="middle" x="271.5" y="-385.5" font-family="Helvetica,sans-Serif" font-size="10.00"> m_parent</text>
</g>
<!-- Node6 -->
<g id="node6" class="node"><title>Node6</title>
<g id="a_node6"><a xlink:href="classelftosb_1_1_list_a_s_t_node.html" target="_top" xlink:title="AST node that contains other AST nodes. ">
<polygon fill="white" stroke="black" points="41.5,-244.5 41.5,-263.5 149.5,-263.5 149.5,-244.5 41.5,-244.5"/>
<text text-anchor="middle" x="95.5" y="-251.5" font-family="Helvetica,sans-Serif" font-size="10.00">elftosb::ListASTNode</text>
</a>
</g>
</g>
<!-- Node3&#45;&gt;Node6 -->
<g id="edge7" class="edge"><title>Node3&#45;&gt;Node6</title>
<path fill="none" stroke="midnightblue" d="M173.767,-369.792C154.268,-341.193 115.893,-284.91 101.31,-263.521"/>
<polygon fill="midnightblue" stroke="midnightblue" points="171.07,-372.049 179.595,-378.339 176.853,-368.105 171.07,-372.049"/>
</g>
<!-- Node7 -->
<g id="node7" class="node"><title>Node7</title>
<polygon fill="white" stroke="#bfbfbf" points="0,-311.5 0,-330.5 115,-330.5 115,-311.5 0,-311.5"/>
<text text-anchor="middle" x="57.5" y="-318.5" font-family="Helvetica,sans-Serif" font-size="10.00">std::list&lt; ASTNode * &gt;</text>
</g>
<!-- Node3&#45;&gt;Node7 -->
<g id="edge9" class="edge"><title>Node3&#45;&gt;Node7</title>
<path fill="none" stroke="#9a32cd" stroke-dasharray="5,2" d="M129.388,-378.432C114.596,-374.429 99.2273,-368.569 86.5,-360 75.3481,-352.491 66.6972,-339.269 61.8478,-330.571"/>
<polygon fill="#9a32cd" stroke="#9a32cd" points="128.951,-381.928 139.498,-380.917 130.622,-375.131 128.951,-381.928"/>
<text text-anchor="middle" x="108" y="-352" font-family="Helvetica,sans-Serif" font-size="10.00"> elements</text>
</g>
<!-- Node9 -->
<g id="node9" class="node"><title>Node9</title>
<g id="a_node9"><a xlink:href="classelftosb_1_1_expr_a_s_t_node.html" target="_top" xlink:title="Abstract base class for all expression AST nodes. ">
<polygon fill="white" stroke="black" points="172,-311.5 172,-330.5 285,-330.5 285,-311.5 172,-311.5"/>
<text text-anchor="middle" x="228.5" y="-318.5" font-family="Helvetica,sans-Serif" font-size="10.00">elftosb::ExprASTNode</text>
</a>
</g>
</g>
<!-- Node3&#45;&gt;Node9 -->
<g id="edge12" class="edge"><title>Node3&#45;&gt;Node9</title>
<path fill="none" stroke="midnightblue" d="M197.054,-369.535C205.379,-356.95 216.257,-340.507 222.793,-330.627"/>
<polygon fill="midnightblue" stroke="midnightblue" points="193.897,-367.963 191.299,-378.234 199.736,-371.825 193.897,-367.963"/>
</g>
<!-- Node4 -->
<g id="node4" class="node"><title>Node4</title>
<g id="a_node4"><a xlink:href="structelftosb_1_1token__loc__t.html" target="_top" xlink:title="Token location in the source file. ">
<polygon fill="white" stroke="black" points="135,-445.5 135,-464.5 236,-464.5 236,-445.5 135,-445.5"/>
<text text-anchor="middle" x="185.5" y="-452.5" font-family="Helvetica,sans-Serif" font-size="10.00">elftosb::token_loc_t</text>
</a>
</g>
</g>
<!-- Node4&#45;&gt;Node3 -->
<g id="edge3" class="edge"><title>Node4&#45;&gt;Node3</title>
<path fill="none" stroke="#9a32cd" stroke-dasharray="5,2" d="M185.5,-435.037C185.5,-422.67 185.5,-407.12 185.5,-397.627"/>
<polygon fill="#9a32cd" stroke="#9a32cd" points="182,-435.234 185.5,-445.234 189,-435.234 182,-435.234"/>
<text text-anchor="middle" x="211" y="-419" font-family="Helvetica,sans-Serif" font-size="10.00"> m_location</text>
</g>
<!-- Node5 -->
<g id="node5" class="node"><title>Node5</title>
<g id="a_node5"><a xlink:href="group__smart__pointer.html" target="_top" xlink:title="smart_ptr\&lt; elftosb\l::ListASTNode \&gt;">
<polygon fill="white" stroke="black" points="48,-146.5 48,-176.5 143,-176.5 143,-146.5 48,-146.5"/>
<text text-anchor="start" x="56" y="-164.5" font-family="Helvetica,sans-Serif" font-size="10.00">smart_ptr&lt; elftosb</text>
<text text-anchor="middle" x="95.5" y="-153.5" font-family="Helvetica,sans-Serif" font-size="10.00">::ListASTNode &gt;</text>
</a>
</g>
</g>
<!-- Node5&#45;&gt;Node1 -->
<g id="edge13" class="edge"><title>Node5&#45;&gt;Node1</title>
<path fill="none" stroke="#9a32cd" stroke-dasharray="5,2" d="M92.8172,-136.136C91.5447,-117.137 91.568,-90.3189 98.5,-68 102.784,-54.208 111.829,-40.5353 119.369,-30.7477"/>
<polygon fill="#9a32cd" stroke="#9a32cd" points="89.3484,-136.655 93.6738,-146.326 96.3238,-136.068 89.3484,-136.655"/>
<text text-anchor="middle" x="131.5" y="-81" font-family="Helvetica,sans-Serif" font-size="10.00"> m_statements</text>
</g>
<!-- Node5&#45;&gt;Node2 -->
<g id="edge5" class="edge"><title>Node5&#45;&gt;Node2</title>
<path fill="none" stroke="#9a32cd" stroke-dasharray="5,2" d="M122.636,-140.352C133.757,-132.552 146.944,-123.868 159.5,-117 171.838,-110.251 185.867,-103.907 198.485,-98.646"/>
<polygon fill="#9a32cd" stroke="#9a32cd" points="120.318,-137.706 114.213,-146.366 124.386,-143.403 120.318,-137.706"/>
<text text-anchor="middle" x="184" y="-120" font-family="Helvetica,sans-Serif" font-size="10.00"> m_options</text>
</g>
<!-- Node6&#45;&gt;Node5 -->
<g id="edge6" class="edge"><title>Node6&#45;&gt;Node5</title>
<path fill="none" stroke="#9a32cd" stroke-dasharray="5,2" d="M95.5,-233.88C95.5,-216.74 95.5,-191.989 95.5,-176.592"/>
<polygon fill="#9a32cd" stroke="#9a32cd" points="92.0001,-234.322 95.5,-244.322 99.0001,-234.323 92.0001,-234.322"/>
<text text-anchor="middle" x="102.5" y="-208" font-family="Helvetica,sans-Serif" font-size="10.00"> _p</text>
</g>
<!-- Node7&#45;&gt;Node6 -->
<g id="edge8" class="edge"><title>Node7&#45;&gt;Node6</title>
<path fill="none" stroke="#9a32cd" stroke-dasharray="5,2" d="M67.7105,-302.535C75.0678,-289.95 84.6804,-273.507 90.4563,-263.627"/>
<polygon fill="#9a32cd" stroke="#9a32cd" points="64.6503,-300.834 62.6248,-311.234 70.6934,-304.367 64.6503,-300.834"/>
<text text-anchor="middle" x="94.5" y="-285" font-family="Helvetica,sans-Serif" font-size="10.00"> m_list</text>
</g>
<!-- Node8 -->
<g id="node8" class="node"><title>Node8</title>
<g id="a_node8"><a xlink:href="group__smart__pointer.html" target="_top" xlink:title="smart_ptr\&lt; elftosb\l::ExprASTNode \&gt;">
<polygon fill="white" stroke="black" points="176,-195.5 176,-225.5 271,-225.5 271,-195.5 176,-195.5"/>
<text text-anchor="start" x="184" y="-213.5" font-family="Helvetica,sans-Serif" font-size="10.00">smart_ptr&lt; elftosb</text>
<text text-anchor="middle" x="223.5" y="-202.5" font-family="Helvetica,sans-Serif" font-size="10.00">::ExprASTNode &gt;</text>
</a>
</g>
</g>
<!-- Node8&#45;&gt;Node2 -->
<g id="edge10" class="edge"><title>Node8&#45;&gt;Node2</title>
<path fill="none" stroke="#9a32cd" stroke-dasharray="5,2" d="M225.845,-185.076C228.316,-159.335 232.124,-119.671 234.14,-98.6719"/>
<polygon fill="#9a32cd" stroke="#9a32cd" points="222.348,-184.872 224.877,-195.161 229.316,-185.541 222.348,-184.872"/>
<text text-anchor="middle" x="264" y="-159" font-family="Helvetica,sans-Serif" font-size="10.00"> m_sectionExpr</text>
</g>
<!-- Node9&#45;&gt;Node8 -->
<g id="edge11" class="edge"><title>Node9&#45;&gt;Node8</title>
<path fill="none" stroke="#9a32cd" stroke-dasharray="5,2" d="M227.641,-301.365C226.651,-279.885 225.046,-245.057 224.153,-225.671"/>
<polygon fill="#9a32cd" stroke="#9a32cd" points="224.151,-301.658 228.108,-311.486 231.144,-301.336 224.151,-301.658"/>
<text text-anchor="middle" x="234.5" y="-285" font-family="Helvetica,sans-Serif" font-size="10.00"> _p</text>
</g>
</g>
</svg>
