<?xml version="1.0" encoding="UTF-8" standalone="no"?>
<!DOCTYPE svg PUBLIC "-//W3C//DTD SVG 1.1//EN"
 "http://www.w3.org/Graphics/SVG/1.1/DTD/svg11.dtd">
<!-- Generated by graphviz version 2.38.0 (20140413.2041)
 -->
<!-- Title: elftosb::ListASTNode Pages: 1 -->
<svg width="186pt" height="229pt"
 viewBox="0.00 0.00 186.00 229.00" xmlns="http://www.w3.org/2000/svg" xmlns:xlink="http://www.w3.org/1999/xlink">
<g id="graph0" class="graph" transform="scale(1 1) rotate(0) translate(4 225)">
<title>elftosb::ListASTNode</title>
<polygon fill="white" stroke="none" points="-4,4 -4,-225 182,-225 182,4 -4,4"/>
<!-- Node1 -->
<g id="node1" class="node"><title>Node1</title>
<polygon fill="#bfbfbf" stroke="black" points="9.5,-0.5 9.5,-19.5 117.5,-19.5 117.5,-0.5 9.5,-0.5"/>
<text text-anchor="middle" x="63.5" y="-7.5" font-family="Helvetica,sans-Serif" font-size="10.00">elftosb::ListASTNode</text>
</g>
<!-- Node2 -->
<g id="node2" class="node"><title>Node2</title>
<g id="a_node2"><a xlink:href="classelftosb_1_1_a_s_t_node.html" target="_top" xlink:title="The base class for all AST node classes. ">
<polygon fill="white" stroke="black" points="4.5,-134.5 4.5,-153.5 96.5,-153.5 96.5,-134.5 4.5,-134.5"/>
<text text-anchor="middle" x="50.5" y="-141.5" font-family="Helvetica,sans-Serif" font-size="10.00">elftosb::ASTNode</text>
</a>
</g>
</g>
<!-- Node2&#45;&gt;Node1 -->
<g id="edge1" class="edge"><title>Node2&#45;&gt;Node1</title>
<path fill="none" stroke="midnightblue" d="M50.5312,-123.776C50.7312,-108.379 51.4115,-86.2484 53.5,-67 55.3324,-50.1124 59.2167,-30.6382 61.5684,-19.6765"/>
<polygon fill="midnightblue" stroke="midnightblue" points="47.0292,-124.053 50.4565,-134.079 54.029,-124.104 47.0292,-124.053"/>
</g>
<!-- Node2&#45;&gt;Node2 -->
<g id="edge3" class="edge"><title>Node2&#45;&gt;Node2</title>
<path fill="none" stroke="#9a32cd" stroke-dasharray="5,2" d="M106.774,-148.66C111.534,-147.663 114.5,-146.109 114.5,-144 114.5,-140.625 106.906,-138.674 96.5242,-138.146"/>
<polygon fill="#9a32cd" stroke="#9a32cd" points="106.052,-145.22 96.5242,-149.854 106.862,-152.173 106.052,-145.22"/>
<text text-anchor="middle" x="136.5" y="-141.5" font-family="Helvetica,sans-Serif" font-size="10.00"> m_parent</text>
</g>
<!-- Node4 -->
<g id="node4" class="node"><title>Node4</title>
<polygon fill="white" stroke="#bfbfbf" points="63,-67.5 63,-86.5 178,-86.5 178,-67.5 63,-67.5"/>
<text text-anchor="middle" x="120.5" y="-74.5" font-family="Helvetica,sans-Serif" font-size="10.00">std::list&lt; ASTNode * &gt;</text>
</g>
<!-- Node2&#45;&gt;Node4 -->
<g id="edge5" class="edge"><title>Node2&#45;&gt;Node4</title>
<path fill="none" stroke="#9a32cd" stroke-dasharray="5,2" d="M67.347,-127.356C81.1087,-114.578 100.048,-96.9915 111.209,-86.6273"/>
<polygon fill="#9a32cd" stroke="#9a32cd" points="64.8869,-124.864 59.9405,-134.234 69.6501,-129.994 64.8869,-124.864"/>
<text text-anchor="middle" x="111" y="-108" font-family="Helvetica,sans-Serif" font-size="10.00"> elements</text>
</g>
<!-- Node3 -->
<g id="node3" class="node"><title>Node3</title>
<g id="a_node3"><a xlink:href="structelftosb_1_1token__loc__t.html" target="_top" xlink:title="Token location in the source file. ">
<polygon fill="white" stroke="black" points="0,-201.5 0,-220.5 101,-220.5 101,-201.5 0,-201.5"/>
<text text-anchor="middle" x="50.5" y="-208.5" font-family="Helvetica,sans-Serif" font-size="10.00">elftosb::token_loc_t</text>
</a>
</g>
</g>
<!-- Node3&#45;&gt;Node2 -->
<g id="edge2" class="edge"><title>Node3&#45;&gt;Node2</title>
<path fill="none" stroke="#9a32cd" stroke-dasharray="5,2" d="M50.5,-191.037C50.5,-178.67 50.5,-163.12 50.5,-153.627"/>
<polygon fill="#9a32cd" stroke="#9a32cd" points="47.0001,-191.234 50.5,-201.234 54.0001,-191.234 47.0001,-191.234"/>
<text text-anchor="middle" x="76" y="-175" font-family="Helvetica,sans-Serif" font-size="10.00"> m_location</text>
</g>
<!-- Node4&#45;&gt;Node1 -->
<g id="edge4" class="edge"><title>Node4&#45;&gt;Node1</title>
<path fill="none" stroke="#9a32cd" stroke-dasharray="5,2" d="M106.149,-59.6348C95.0015,-46.9228 79.9842,-29.7978 71.0655,-19.6273"/>
<polygon fill="#9a32cd" stroke="#9a32cd" points="103.588,-62.0228 112.813,-67.2338 108.851,-57.4075 103.588,-62.0228"/>
<text text-anchor="middle" x="109.5" y="-41" font-family="Helvetica,sans-Serif" font-size="10.00"> m_list</text>
</g>
</g>
</svg>
