<?xml version="1.0" encoding="UTF-8" standalone="no"?>
<!DOCTYPE svg PUBLIC "-//W3C//DTD SVG 1.1//EN"
 "http://www.w3.org/Graphics/SVG/1.1/DTD/svg11.dtd">
<!-- Generated by graphviz version 2.38.0 (20140413.2041)
 -->
<!-- Title: blfwk::DataPacket::DataProducer Pages: 1 -->
<svg width="260pt" height="137pt"
 viewBox="0.00 0.00 260.00 137.00" xmlns="http://www.w3.org/2000/svg" xmlns:xlink="http://www.w3.org/1999/xlink">
<g id="graph0" class="graph" transform="scale(1 1) rotate(0) translate(4 133)">
<title>blfwk::DataPacket::DataProducer</title>
<polygon fill="white" stroke="none" points="-4,4 -4,-133 256,-133 256,4 -4,4"/>
<!-- Node1 -->
<g id="node1" class="node"><title>Node1</title>
<polygon fill="#bfbfbf" stroke="black" points="0,-49.5 0,-79.5 101,-79.5 101,-49.5 0,-49.5"/>
<text text-anchor="start" x="8" y="-67.5" font-family="Helvetica,sans-Serif" font-size="10.00">blfwk::DataPacket::</text>
<text text-anchor="middle" x="50.5" y="-56.5" font-family="Helvetica,sans-Serif" font-size="10.00">DataProducer</text>
</g>
<!-- Node2 -->
<g id="node2" class="node"><title>Node2</title>
<g id="a_node2"><a xlink:href="classblfwk_1_1_data_packet_1_1_file_data_producer.html" target="_top" xlink:title="Provide file data for data phase. ">
<polygon fill="white" stroke="black" points="144,-98.5 144,-128.5 245,-128.5 245,-98.5 144,-98.5"/>
<text text-anchor="start" x="152" y="-116.5" font-family="Helvetica,sans-Serif" font-size="10.00">blfwk::DataPacket::</text>
<text text-anchor="middle" x="194.5" y="-105.5" font-family="Helvetica,sans-Serif" font-size="10.00">FileDataProducer</text>
</a>
</g>
</g>
<!-- Node1&#45;&gt;Node2 -->
<g id="edge1" class="edge"><title>Node1&#45;&gt;Node2</title>
<path fill="none" stroke="midnightblue" d="M104.792,-82.8896C119.578,-87.9916 135.457,-93.4711 149.637,-98.3641"/>
<polygon fill="midnightblue" stroke="midnightblue" points="105.858,-79.5549 95.2634,-79.6014 103.575,-86.172 105.858,-79.5549"/>
</g>
<!-- Node3 -->
<g id="node3" class="node"><title>Node3</title>
<g id="a_node3"><a xlink:href="classblfwk_1_1_data_packet_1_1_hex_data_producer.html" target="_top" xlink:title="Provide data from hex string for data phase. ">
<polygon fill="white" stroke="black" points="144,-49.5 144,-79.5 245,-79.5 245,-49.5 144,-49.5"/>
<text text-anchor="start" x="152" y="-67.5" font-family="Helvetica,sans-Serif" font-size="10.00">blfwk::DataPacket::</text>
<text text-anchor="middle" x="194.5" y="-56.5" font-family="Helvetica,sans-Serif" font-size="10.00">HexDataProducer</text>
</a>
</g>
</g>
<!-- Node1&#45;&gt;Node3 -->
<g id="edge2" class="edge"><title>Node1&#45;&gt;Node3</title>
<path fill="none" stroke="midnightblue" d="M111.333,-64.5C122.086,-64.5 133.19,-64.5 143.623,-64.5"/>
<polygon fill="midnightblue" stroke="midnightblue" points="111.165,-61.0001 101.165,-64.5 111.165,-68.0001 111.165,-61.0001"/>
</g>
<!-- Node4 -->
<g id="node4" class="node"><title>Node4</title>
<g id="a_node4"><a xlink:href="classblfwk_1_1_data_packet_1_1_segment_data_producer.html" target="_top" xlink:title="Provide DataSource::Segment data for data phase. ">
<polygon fill="white" stroke="black" points="137,-0.5 137,-30.5 252,-30.5 252,-0.5 137,-0.5"/>
<text text-anchor="start" x="145" y="-18.5" font-family="Helvetica,sans-Serif" font-size="10.00">blfwk::DataPacket::</text>
<text text-anchor="middle" x="194.5" y="-7.5" font-family="Helvetica,sans-Serif" font-size="10.00">SegmentDataProducer</text>
</a>
</g>
</g>
<!-- Node1&#45;&gt;Node4 -->
<g id="edge3" class="edge"><title>Node1&#45;&gt;Node4</title>
<path fill="none" stroke="midnightblue" d="M104.792,-46.1104C119.578,-41.0084 135.457,-35.5289 149.637,-30.6359"/>
<polygon fill="midnightblue" stroke="midnightblue" points="103.575,-42.828 95.2634,-49.3986 105.858,-49.4451 103.575,-42.828"/>
</g>
</g>
</svg>
