<?xml version="1.0" encoding="UTF-8" standalone="no"?>
<!DOCTYPE svg PUBLIC "-//W3C//DTD SVG 1.1//EN"
 "http://www.w3.org/Graphics/SVG/1.1/DTD/svg11.dtd">
<!-- Generated by graphviz version 2.38.0 (20140413.2041)
 -->
<!-- Title: elftosb::DefinedOperatorASTNode Pages: 1 -->
<svg width="267pt" height="251pt"
 viewBox="0.00 0.00 267.00 251.00" xmlns="http://www.w3.org/2000/svg" xmlns:xlink="http://www.w3.org/1999/xlink">
<g id="graph0" class="graph" transform="scale(1 1) rotate(0) translate(4 247)">
<title>elftosb::DefinedOperatorASTNode</title>
<polygon fill="white" stroke="none" points="-4,4 -4,-247 263,-247 263,4 -4,4"/>
<!-- Node1 -->
<g id="node1" class="node"><title>Node1</title>
<polygon fill="#bfbfbf" stroke="black" points="84,-0.5 84,-30.5 205,-30.5 205,-0.5 84,-0.5"/>
<text text-anchor="start" x="92" y="-18.5" font-family="Helvetica,sans-Serif" font-size="10.00">elftosb::DefinedOperator</text>
<text text-anchor="middle" x="144.5" y="-7.5" font-family="Helvetica,sans-Serif" font-size="10.00">ASTNode</text>
</g>
<!-- Node2 -->
<g id="node2" class="node"><title>Node2</title>
<g id="a_node2"><a xlink:href="classelftosb_1_1_expr_a_s_t_node.html" target="_top" xlink:title="Abstract base class for all expression AST nodes. ">
<polygon fill="white" stroke="black" points="8,-78.5 8,-97.5 121,-97.5 121,-78.5 8,-78.5"/>
<text text-anchor="middle" x="64.5" y="-85.5" font-family="Helvetica,sans-Serif" font-size="10.00">elftosb::ExprASTNode</text>
</a>
</g>
</g>
<!-- Node2&#45;&gt;Node1 -->
<g id="edge1" class="edge"><title>Node2&#45;&gt;Node1</title>
<path fill="none" stroke="midnightblue" d="M82.1565,-71.4402C96.0094,-59.2323 115.126,-42.3856 128.527,-30.5762"/>
<polygon fill="midnightblue" stroke="midnightblue" points="79.498,-69.1178 74.3096,-78.3553 84.1261,-74.3696 79.498,-69.1178"/>
</g>
<!-- Node3 -->
<g id="node3" class="node"><title>Node3</title>
<g id="a_node3"><a xlink:href="classelftosb_1_1_a_s_t_node.html" target="_top" xlink:title="The base class for all AST node classes. ">
<polygon fill="white" stroke="black" points="4.5,-145.5 4.5,-164.5 96.5,-164.5 96.5,-145.5 4.5,-145.5"/>
<text text-anchor="middle" x="50.5" y="-152.5" font-family="Helvetica,sans-Serif" font-size="10.00">elftosb::ASTNode</text>
</a>
</g>
</g>
<!-- Node3&#45;&gt;Node2 -->
<g id="edge2" class="edge"><title>Node3&#45;&gt;Node2</title>
<path fill="none" stroke="midnightblue" d="M54.503,-135.415C57.1794,-122.988 60.5764,-107.217 62.6418,-97.6273"/>
<polygon fill="midnightblue" stroke="midnightblue" points="51.0722,-134.721 52.3881,-145.234 57.9153,-136.195 51.0722,-134.721"/>
</g>
<!-- Node3&#45;&gt;Node3 -->
<g id="edge4" class="edge"><title>Node3&#45;&gt;Node3</title>
<path fill="none" stroke="#9a32cd" stroke-dasharray="5,2" d="M106.774,-159.66C111.534,-158.663 114.5,-157.109 114.5,-155 114.5,-151.625 106.906,-149.674 96.5242,-149.146"/>
<polygon fill="#9a32cd" stroke="#9a32cd" points="106.052,-156.22 96.5242,-160.854 106.862,-163.173 106.052,-156.22"/>
<text text-anchor="middle" x="136.5" y="-152.5" font-family="Helvetica,sans-Serif" font-size="10.00"> m_parent</text>
</g>
<!-- Node4 -->
<g id="node4" class="node"><title>Node4</title>
<g id="a_node4"><a xlink:href="structelftosb_1_1token__loc__t.html" target="_top" xlink:title="Token location in the source file. ">
<polygon fill="white" stroke="black" points="0,-218 0,-237 101,-237 101,-218 0,-218"/>
<text text-anchor="middle" x="50.5" y="-225" font-family="Helvetica,sans-Serif" font-size="10.00">elftosb::token_loc_t</text>
</a>
</g>
</g>
<!-- Node4&#45;&gt;Node3 -->
<g id="edge3" class="edge"><title>Node4&#45;&gt;Node3</title>
<path fill="none" stroke="#9a32cd" stroke-dasharray="5,2" d="M50.5,-207.442C50.5,-193.53 50.5,-175.32 50.5,-164.715"/>
<polygon fill="#9a32cd" stroke="#9a32cd" points="47.0001,-207.855 50.5,-217.855 54.0001,-207.855 47.0001,-207.855"/>
<text text-anchor="middle" x="76" y="-186" font-family="Helvetica,sans-Serif" font-size="10.00"> m_location</text>
</g>
<!-- Node5 -->
<g id="node5" class="node"><title>Node5</title>
<g id="a_node5"><a xlink:href="group__smart__pointer.html" target="_top" xlink:title="smart_ptr\&lt; std::string \&gt;">
<polygon fill="white" stroke="black" points="140,-78.5 140,-97.5 259,-97.5 259,-78.5 140,-78.5"/>
<text text-anchor="middle" x="199.5" y="-85.5" font-family="Helvetica,sans-Serif" font-size="10.00">smart_ptr&lt; std::string &gt;</text>
</a>
</g>
</g>
<!-- Node5&#45;&gt;Node1 -->
<g id="edge5" class="edge"><title>Node5&#45;&gt;Node1</title>
<path fill="none" stroke="#9a32cd" stroke-dasharray="5,2" d="M186.544,-70.3927C177.096,-58.2828 164.434,-42.0514 155.481,-30.5762"/>
<polygon fill="#9a32cd" stroke="#9a32cd" points="183.845,-72.6237 192.756,-78.3553 189.364,-68.3179 183.845,-72.6237"/>
<text text-anchor="middle" x="216.5" y="-52" font-family="Helvetica,sans-Serif" font-size="10.00"> m_constantName</text>
</g>
<!-- Node6 -->
<g id="node6" class="node"><title>Node6</title>
<g id="a_node6"><a xlink:title="STL class. ">
<polygon fill="white" stroke="#bfbfbf" points="176.5,-145.5 176.5,-164.5 236.5,-164.5 236.5,-145.5 176.5,-145.5"/>
<text text-anchor="middle" x="206.5" y="-152.5" font-family="Helvetica,sans-Serif" font-size="10.00">std::string</text>
</a>
</g>
</g>
<!-- Node6&#45;&gt;Node5 -->
<g id="edge6" class="edge"><title>Node6&#45;&gt;Node5</title>
<path fill="none" stroke="#9a32cd" stroke-dasharray="5,2" d="M204.458,-135.037C203.126,-122.67 201.451,-107.12 200.429,-97.6273"/>
<polygon fill="#9a32cd" stroke="#9a32cd" points="201.005,-135.666 205.556,-145.234 207.965,-134.917 201.005,-135.666"/>
<text text-anchor="middle" x="209.5" y="-119" font-family="Helvetica,sans-Serif" font-size="10.00"> _p</text>
</g>
<!-- Node7 -->
<g id="node7" class="node"><title>Node7</title>
<g id="a_node7"><a xlink:title="STL class. ">
<polygon fill="white" stroke="#bfbfbf" points="159,-212.5 159,-242.5 254,-242.5 254,-212.5 159,-212.5"/>
<text text-anchor="start" x="167" y="-230.5" font-family="Helvetica,sans-Serif" font-size="10.00">std::basic_string&lt;</text>
<text text-anchor="middle" x="206.5" y="-219.5" font-family="Helvetica,sans-Serif" font-size="10.00"> char &gt;</text>
</a>
</g>
</g>
<!-- Node7&#45;&gt;Node6 -->
<g id="edge7" class="edge"><title>Node7&#45;&gt;Node6</title>
<path fill="none" stroke="midnightblue" d="M206.5,-202.091C206.5,-189.214 206.5,-174.197 206.5,-164.893"/>
<polygon fill="midnightblue" stroke="midnightblue" points="203,-202.233 206.5,-212.233 210,-202.233 203,-202.233"/>
</g>
</g>
</svg>
