<?xml version="1.0" encoding="UTF-8" standalone="no"?>
<!DOCTYPE svg PUBLIC "-//W3C//DTD SVG 1.1//EN"
 "http://www.w3.org/Graphics/SVG/1.1/DTD/svg11.dtd">
<!-- Generated by graphviz version 2.38.0 (20140413.2041)
 -->
<!-- Title: elftosb::EncoreBootImage::BootSection Pages: 1 -->
<svg width="812pt" height="312pt"
 viewBox="0.00 0.00 812.00 312.00" xmlns="http://www.w3.org/2000/svg" xmlns:xlink="http://www.w3.org/1999/xlink">
<g id="graph0" class="graph" transform="scale(1 1) rotate(0) translate(4 308)">
<title>elftosb::EncoreBootImage::BootSection</title>
<polygon fill="white" stroke="none" points="-4,4 -4,-308 808,-308 808,4 -4,4"/>
<!-- Node1 -->
<g id="node1" class="node"><title>Node1</title>
<polygon fill="#bfbfbf" stroke="black" points="676,-258 676,-288 804,-288 804,-258 676,-258"/>
<text text-anchor="start" x="684" y="-276" font-family="Helvetica,sans-Serif" font-size="10.00">elftosb::EncoreBootImage</text>
<text text-anchor="middle" x="740" y="-265" font-family="Helvetica,sans-Serif" font-size="10.00">::BootSection</text>
</g>
<!-- Node2 -->
<g id="node2" class="node"><title>Node2</title>
<g id="a_node2"><a xlink:href="classelftosb_1_1_encore_boot_image_1_1_section.html" target="_top" xlink:title="Base class for a section of an Encore boot image. ">
<polygon fill="white" stroke="black" points="197,-208 197,-238 325,-238 325,-208 197,-208"/>
<text text-anchor="start" x="205" y="-226" font-family="Helvetica,sans-Serif" font-size="10.00">elftosb::EncoreBootImage</text>
<text text-anchor="middle" x="261" y="-215" font-family="Helvetica,sans-Serif" font-size="10.00">::Section</text>
</a>
</g>
</g>
<!-- Node2&#45;&gt;Node1 -->
<g id="edge1" class="edge"><title>Node2&#45;&gt;Node1</title>
<path fill="none" stroke="midnightblue" d="M335.537,-230.708C428.726,-240.477 587.782,-257.149 675.776,-266.373"/>
<polygon fill="midnightblue" stroke="midnightblue" points="335.652,-227.201 325.342,-229.64 334.923,-234.163 335.652,-227.201"/>
</g>
<!-- Node11 -->
<g id="node11" class="node"><title>Node11</title>
<polygon fill="white" stroke="#bfbfbf" points="419.5,-161.5 419.5,-180.5 526.5,-180.5 526.5,-161.5 419.5,-161.5"/>
<text text-anchor="middle" x="473" y="-168.5" font-family="Helvetica,sans-Serif" font-size="10.00">std::list&lt; Section * &gt;</text>
</g>
<!-- Node2&#45;&gt;Node11 -->
<g id="edge13" class="edge"><title>Node2&#45;&gt;Node11</title>
<path fill="none" stroke="#9a32cd" stroke-dasharray="5,2" d="M306.195,-204.217C317.995,-199.72 330.847,-195.278 343,-192 367.756,-185.323 395.791,-180.449 419.387,-177.087"/>
<polygon fill="#9a32cd" stroke="#9a32cd" points="304.606,-201.081 296.569,-207.984 307.157,-207.599 304.606,-201.081"/>
<text text-anchor="middle" x="364.5" y="-195" font-family="Helvetica,sans-Serif" font-size="10.00"> elements</text>
</g>
<!-- Node3 -->
<g id="node3" class="node"><title>Node3</title>
<g id="a_node3"><a xlink:href="classelftosb_1_1_encore_boot_image_1_1_cipher_block_generator.html" target="_top" xlink:title="Base class for objects that produce cipher blocks. ">
<polygon fill="white" stroke="black" points="0,-238 0,-268 128,-268 128,-238 0,-238"/>
<text text-anchor="start" x="8" y="-256" font-family="Helvetica,sans-Serif" font-size="10.00">elftosb::EncoreBootImage</text>
<text text-anchor="middle" x="64" y="-245" font-family="Helvetica,sans-Serif" font-size="10.00">::CipherBlockGenerator</text>
</a>
</g>
</g>
<!-- Node3&#45;&gt;Node2 -->
<g id="edge2" class="edge"><title>Node3&#45;&gt;Node2</title>
<path fill="none" stroke="midnightblue" d="M138.013,-241.767C157.355,-238.792 178.072,-235.604 196.842,-232.717"/>
<polygon fill="midnightblue" stroke="midnightblue" points="137.393,-238.321 128.042,-243.301 138.458,-245.24 137.393,-238.321"/>
</g>
<!-- Node13 -->
<g id="node13" class="node"><title>Node13</title>
<g id="a_node13"><a xlink:href="classelftosb_1_1_encore_boot_image_1_1_boot_command.html" target="_top" xlink:title="Abstract base class for all bootloader commands. ">
<polygon fill="white" stroke="black" points="197,-269 197,-299 325,-299 325,-269 197,-269"/>
<text text-anchor="start" x="205" y="-287" font-family="Helvetica,sans-Serif" font-size="10.00">elftosb::EncoreBootImage</text>
<text text-anchor="middle" x="261" y="-276" font-family="Helvetica,sans-Serif" font-size="10.00">::BootCommand</text>
</a>
</g>
</g>
<!-- Node3&#45;&gt;Node13 -->
<g id="edge16" class="edge"><title>Node3&#45;&gt;Node13</title>
<path fill="none" stroke="midnightblue" d="M138.013,-264.607C157.355,-267.682 178.072,-270.976 196.842,-273.959"/>
<polygon fill="midnightblue" stroke="midnightblue" points="138.467,-261.136 128.042,-263.022 137.368,-268.049 138.467,-261.136"/>
</g>
<!-- Node4 -->
<g id="node4" class="node"><title>Node4</title>
<g id="a_node4"><a xlink:href="classelftosb_1_1_encore_boot_image.html" target="_top" xlink:title="Class to manage Encore boot image files. ">
<polygon fill="white" stroke="black" points="676,-104.5 676,-123.5 804,-123.5 804,-104.5 676,-104.5"/>
<text text-anchor="middle" x="740" y="-111.5" font-family="Helvetica,sans-Serif" font-size="10.00">elftosb::EncoreBootImage</text>
</a>
</g>
</g>
<!-- Node4&#45;&gt;Node2 -->
<g id="edge3" class="edge"><title>Node4&#45;&gt;Node2</title>
<path fill="none" stroke="#9a32cd" stroke-dasharray="5,2" d="M722.485,-130.991C707.214,-145.557 683.14,-165.763 658,-176 599.17,-199.956 421.214,-213.717 325.138,-219.591"/>
<polygon fill="#9a32cd" stroke="#9a32cd" points="724.95,-133.476 729.628,-123.97 720.043,-128.484 724.95,-133.476"/>
<text text-anchor="middle" x="473" y="-217" font-family="Helvetica,sans-Serif" font-size="10.00"> m_image</text>
</g>
<!-- Node5 -->
<g id="node5" class="node"><title>Node5</title>
<g id="a_node5"><a xlink:href="classelftosb_1_1_boot_image.html" target="_top" xlink:title="Abstract base class for all boot image format classes. ">
<polygon fill="white" stroke="black" points="424,-85.5 424,-104.5 522,-104.5 522,-85.5 424,-85.5"/>
<text text-anchor="middle" x="473" y="-92.5" font-family="Helvetica,sans-Serif" font-size="10.00">elftosb::BootImage</text>
</a>
</g>
</g>
<!-- Node5&#45;&gt;Node4 -->
<g id="edge4" class="edge"><title>Node5&#45;&gt;Node4</title>
<path fill="none" stroke="midnightblue" d="M532.457,-99.1913C574.825,-102.229 632.068,-106.333 675.547,-109.451"/>
<polygon fill="midnightblue" stroke="midnightblue" points="532.522,-95.687 522.297,-98.4628 532.021,-102.669 532.522,-95.687"/>
</g>
<!-- Node6 -->
<g id="node6" class="node"><title>Node6</title>
<g id="a_node6"><a xlink:href="class_a_e_s_key.html" target="_top" xlink:title="AESKey\&lt; 128 \&gt;">
<polygon fill="white" stroke="black" points="217,-66.5 217,-85.5 305,-85.5 305,-66.5 217,-66.5"/>
<text text-anchor="middle" x="261" y="-73.5" font-family="Helvetica,sans-Serif" font-size="10.00">AESKey&lt; 128 &gt;</text>
</a>
</g>
</g>
<!-- Node6&#45;&gt;Node4 -->
<g id="edge5" class="edge"><title>Node6&#45;&gt;Node4</title>
<path fill="none" stroke="#9a32cd" stroke-dasharray="5,2" d="M315.39,-70.8827C341.991,-68.5832 374.662,-66.1346 404,-65 465.288,-62.6297 481.122,-57.5425 542,-65 602.869,-72.4564 672.003,-92.4135 710.047,-104.434"/>
<polygon fill="#9a32cd" stroke="#9a32cd" points="314.793,-67.4216 305.139,-71.7871 315.408,-74.3946 314.793,-67.4216"/>
<text text-anchor="middle" x="473" y="-68" font-family="Helvetica,sans-Serif" font-size="10.00"> m_sessionKey</text>
</g>
<!-- Node10 -->
<g id="node10" class="node"><title>Node10</title>
<polygon fill="white" stroke="#bfbfbf" points="406.5,-123.5 406.5,-142.5 539.5,-142.5 539.5,-123.5 406.5,-123.5"/>
<text text-anchor="middle" x="473" y="-130.5" font-family="Helvetica,sans-Serif" font-size="10.00">std::vector&lt; AES128Key &gt;</text>
</g>
<!-- Node6&#45;&gt;Node10 -->
<g id="edge11" class="edge"><title>Node6&#45;&gt;Node10</title>
<path fill="none" stroke="#9a32cd" stroke-dasharray="5,2" d="M307.133,-88.2503C345.932,-98.7815 401.109,-113.758 436.736,-123.428"/>
<polygon fill="#9a32cd" stroke="#9a32cd" points="307.717,-84.7823 297.149,-85.5405 305.883,-91.5379 307.717,-84.7823"/>
<text text-anchor="middle" x="364.5" y="-113" font-family="Helvetica,sans-Serif" font-size="10.00"> elements</text>
</g>
<!-- Node7 -->
<g id="node7" class="node"><title>Node7</title>
<g id="a_node7"><a xlink:href="class_a_e_s_key_base.html" target="_top" xlink:title="Base class for AESKey&lt;S&gt;. ">
<polygon fill="white" stroke="black" points="25.5,-66.5 25.5,-85.5 102.5,-85.5 102.5,-66.5 25.5,-66.5"/>
<text text-anchor="middle" x="64" y="-73.5" font-family="Helvetica,sans-Serif" font-size="10.00">AESKeyBase</text>
</a>
</g>
</g>
<!-- Node7&#45;&gt;Node6 -->
<g id="edge6" class="edge"><title>Node7&#45;&gt;Node6</title>
<path fill="none" stroke="midnightblue" d="M112.969,-70.0929C144.715,-68.9096 186.001,-68.9722 216.738,-70.2806"/>
<polygon fill="midnightblue" stroke="midnightblue" points="112.437,-66.6126 102.598,-70.542 112.74,-73.606 112.437,-66.6126"/>
</g>
<!-- Node7&#45;&gt;Node6 -->
<g id="edge7" class="edge"><title>Node7&#45;&gt;Node6</title>
<path fill="none" stroke="midnightblue" d="M112.969,-81.9071C144.715,-83.0904 186.001,-83.0278 216.738,-81.7194"/>
<polygon fill="midnightblue" stroke="midnightblue" points="112.74,-78.394 102.598,-81.458 112.437,-85.3874 112.74,-78.394"/>
</g>
<!-- Node8 -->
<g id="node8" class="node"><title>Node8</title>
<polygon fill="white" stroke="#bfbfbf" points="49.5,-28.5 49.5,-47.5 78.5,-47.5 78.5,-28.5 49.5,-28.5"/>
<text text-anchor="middle" x="64" y="-35.5" font-family="Helvetica,sans-Serif" font-size="10.00">S</text>
</g>
<!-- Node8&#45;&gt;Node6 -->
<g id="edge8" class="edge"><title>Node8&#45;&gt;Node6</title>
<path fill="none" stroke="#9a32cd" stroke-dasharray="5,2" d="M88.8363,-42.645C120.605,-48.8358 177.388,-59.9013 216.797,-67.5809"/>
<polygon fill="#9a32cd" stroke="#9a32cd" points="89.1969,-39.1495 78.712,-40.6721 87.8579,-46.0203 89.1969,-39.1495"/>
<text text-anchor="middle" x="162.5" y="-63" font-family="Helvetica,sans-Serif" font-size="10.00"> m_key</text>
</g>
<!-- Node9 -->
<g id="node9" class="node"><title>Node9</title>
<g id="a_node9"><a xlink:href="structelftosb_1_1version__t.html" target="_top" xlink:title="Same version struct used for 3600 boot image. ">
<polygon fill="white" stroke="black" points="428.5,-0.5 428.5,-19.5 517.5,-19.5 517.5,-0.5 428.5,-0.5"/>
<text text-anchor="middle" x="473" y="-7.5" font-family="Helvetica,sans-Serif" font-size="10.00">elftosb::version_t</text>
</a>
</g>
</g>
<!-- Node9&#45;&gt;Node4 -->
<g id="edge9" class="edge"><title>Node9&#45;&gt;Node4</title>
<path fill="none" stroke="#9a32cd" stroke-dasharray="5,2" d="M528.09,-2.14751C566.319,0.903137 617.718,-0.196459 658,-20 696.085,-38.7234 723.521,-84.2951 734.145,-104.306"/>
<polygon fill="#9a32cd" stroke="#9a32cd" points="527.314,1.29595 517.677,-3.10591 527.956,-5.67459 527.314,1.29595"/>
<text text-anchor="middle" x="609" y="-34" font-family="Helvetica,sans-Serif" font-size="10.00"> m_componentVersion</text>
<text text-anchor="middle" x="609" y="-23" font-family="Helvetica,sans-Serif" font-size="10.00">m_productVersion</text>
</g>
<!-- Node10&#45;&gt;Node4 -->
<g id="edge10" class="edge"><title>Node10&#45;&gt;Node4</title>
<path fill="none" stroke="#9a32cd" stroke-dasharray="5,2" d="M549.701,-127.572C589.524,-124.717 637.79,-121.257 675.618,-118.544"/>
<polygon fill="#9a32cd" stroke="#9a32cd" points="549.23,-124.097 539.506,-128.303 549.73,-131.079 549.23,-124.097"/>
<text text-anchor="middle" x="609" y="-130" font-family="Helvetica,sans-Serif" font-size="10.00"> m_keys</text>
</g>
<!-- Node11&#45;&gt;Node4 -->
<g id="edge12" class="edge"><title>Node11&#45;&gt;Node4</title>
<path fill="none" stroke="#9a32cd" stroke-dasharray="5,2" d="M537.137,-163.851C572.907,-159.104 618.305,-151.907 658,-142 677.489,-137.136 698.948,-129.616 714.881,-123.593"/>
<polygon fill="#9a32cd" stroke="#9a32cd" points="536.308,-160.429 526.84,-165.185 537.207,-167.371 536.308,-160.429"/>
<text text-anchor="middle" x="609" y="-164" font-family="Helvetica,sans-Serif" font-size="10.00"> m_sections</text>
</g>
<!-- Node12 -->
<g id="node12" class="node"><title>Node12</title>
<polygon fill="white" stroke="#bfbfbf" points="404,-284.5 404,-303.5 542,-303.5 542,-284.5 404,-284.5"/>
<text text-anchor="middle" x="473" y="-291.5" font-family="Helvetica,sans-Serif" font-size="10.00">std::list&lt; BootCommand * &gt;</text>
</g>
<!-- Node12&#45;&gt;Node1 -->
<g id="edge14" class="edge"><title>Node12&#45;&gt;Node1</title>
<path fill="none" stroke="#9a32cd" stroke-dasharray="5,2" d="M552.353,-287.791C591.783,-284.666 638.938,-280.929 675.986,-277.994"/>
<polygon fill="#9a32cd" stroke="#9a32cd" points="551.936,-284.313 542.244,-288.592 552.489,-291.291 551.936,-284.313"/>
<text text-anchor="middle" x="609" y="-290" font-family="Helvetica,sans-Serif" font-size="10.00"> m_commands</text>
</g>
<!-- Node13&#45;&gt;Node12 -->
<g id="edge15" class="edge"><title>Node13&#45;&gt;Node12</title>
<path fill="none" stroke="#9a32cd" stroke-dasharray="5,2" d="M335.106,-287.481C357.448,-288.545 381.919,-289.71 403.914,-290.758"/>
<polygon fill="#9a32cd" stroke="#9a32cd" points="335.162,-283.98 325.007,-287 334.829,-290.972 335.162,-283.98"/>
<text text-anchor="middle" x="364.5" y="-293" font-family="Helvetica,sans-Serif" font-size="10.00"> elements</text>
</g>
</g>
</svg>
