<?xml version="1.0" encoding="UTF-8" standalone="no"?>
<!DOCTYPE svg PUBLIC "-//W3C//DTD SVG 1.1//EN"
 "http://www.w3.org/Graphics/SVG/1.1/DTD/svg11.dtd">
<!-- Generated by graphviz version 2.38.0 (20140413.2041)
 -->
<!-- Title: blfwk::MemoryImageDataSource::TextSegment Pages: 1 -->
<svg width="745pt" height="218pt"
 viewBox="0.00 0.00 745.00 218.00" xmlns="http://www.w3.org/2000/svg" xmlns:xlink="http://www.w3.org/1999/xlink">
<g id="graph0" class="graph" transform="scale(1 1) rotate(0) translate(4 214)">
<title>blfwk::MemoryImageDataSource::TextSegment</title>
<polygon fill="white" stroke="none" points="-4,4 -4,-214 741,-214 741,4 -4,4"/>
<!-- Node1 -->
<g id="node1" class="node"><title>Node1</title>
<polygon fill="#bfbfbf" stroke="black" points="580,-140.5 580,-170.5 737,-170.5 737,-140.5 580,-140.5"/>
<text text-anchor="start" x="588" y="-158.5" font-family="Helvetica,sans-Serif" font-size="10.00">blfwk::MemoryImageDataSource</text>
<text text-anchor="middle" x="658.5" y="-147.5" font-family="Helvetica,sans-Serif" font-size="10.00">::TextSegment</text>
</g>
<!-- Node2 -->
<g id="node2" class="node"><title>Node2</title>
<g id="a_node2"><a xlink:href="classblfwk_1_1_data_source_1_1_segment.html" target="_top" xlink:title="Discrete, contiguous part of the source&#39;s data. ">
<polygon fill="white" stroke="black" points="400,-179.5 400,-209.5 501,-209.5 501,-179.5 400,-179.5"/>
<text text-anchor="start" x="408" y="-197.5" font-family="Helvetica,sans-Serif" font-size="10.00">blfwk::DataSource::</text>
<text text-anchor="middle" x="450.5" y="-186.5" font-family="Helvetica,sans-Serif" font-size="10.00">Segment</text>
</a>
</g>
</g>
<!-- Node2&#45;&gt;Node1 -->
<g id="edge1" class="edge"><title>Node2&#45;&gt;Node1</title>
<path fill="none" stroke="midnightblue" d="M511.043,-183.227C532.489,-179.167 557.012,-174.524 579.78,-170.214"/>
<polygon fill="midnightblue" stroke="midnightblue" points="510.279,-179.81 501.104,-185.109 511.581,-186.688 510.279,-179.81"/>
</g>
<!-- Node3 -->
<g id="node3" class="node"><title>Node3</title>
<g id="a_node3"><a xlink:href="classblfwk_1_1_data_source.html" target="_top" xlink:title="Abstract base class for data sources. ">
<polygon fill="white" stroke="black" points="204.5,-157 204.5,-176 299.5,-176 299.5,-157 204.5,-157"/>
<text text-anchor="middle" x="252" y="-164" font-family="Helvetica,sans-Serif" font-size="10.00">blfwk::DataSource</text>
</a>
</g>
</g>
<!-- Node3&#45;&gt;Node2 -->
<g id="edge2" class="edge"><title>Node3&#45;&gt;Node2</title>
<path fill="none" stroke="#9a32cd" stroke-dasharray="5,2" d="M309.44,-174.687C318.327,-175.969 327.413,-177.274 336,-178.5 356.882,-181.481 379.93,-184.737 399.771,-187.529"/>
<polygon fill="#9a32cd" stroke="#9a32cd" points="309.925,-171.221 299.528,-173.256 308.925,-178.149 309.925,-171.221"/>
<text text-anchor="middle" x="359" y="-187.5" font-family="Helvetica,sans-Serif" font-size="10.00"> m_source</text>
</g>
<!-- Node4 -->
<g id="node4" class="node"><title>Node4</title>
<g id="a_node4"><a xlink:href="classblfwk_1_1_data_target.html" target="_top" xlink:title="Abstract base class for the target address or range of data. ">
<polygon fill="white" stroke="black" points="404.5,-129 404.5,-148 496.5,-148 496.5,-129 404.5,-129"/>
<text text-anchor="middle" x="450.5" y="-136" font-family="Helvetica,sans-Serif" font-size="10.00">blfwk::DataTarget</text>
</a>
</g>
</g>
<!-- Node3&#45;&gt;Node4 -->
<g id="edge4" class="edge"><title>Node3&#45;&gt;Node4</title>
<path fill="none" stroke="#9a32cd" stroke-dasharray="5,2" d="M309.504,-158.449C339.591,-154.161 376.094,-148.96 404.282,-144.943"/>
<polygon fill="#9a32cd" stroke="#9a32cd" points="308.974,-154.989 299.568,-159.864 309.962,-161.919 308.974,-154.989"/>
<text text-anchor="middle" x="359" y="-156.5" font-family="Helvetica,sans-Serif" font-size="10.00"> m_source</text>
</g>
<!-- Node4&#45;&gt;Node3 -->
<g id="edge3" class="edge"><title>Node4&#45;&gt;Node3</title>
<path fill="none" stroke="#9a32cd" stroke-dasharray="5,2" d="M394.301,-130.946C375.65,-129.748 354.797,-129.9 336,-133.5 312.698,-137.962 287.602,-148.878 271.18,-156.94"/>
<polygon fill="#9a32cd" stroke="#9a32cd" points="394.166,-134.446 404.409,-131.738 394.713,-127.468 394.166,-134.446"/>
<text text-anchor="middle" x="359" y="-136.5" font-family="Helvetica,sans-Serif" font-size="10.00"> m_target</text>
</g>
<!-- Node5 -->
<g id="node5" class="node"><title>Node5</title>
<g id="a_node5"><a xlink:href="class_st_executable_image.html" target="_top" xlink:title="Used to build a representation of memory regions. ">
<polygon fill="white" stroke="black" points="400,-68 400,-87 501,-87 501,-68 400,-68"/>
<text text-anchor="middle" x="450.5" y="-75" font-family="Helvetica,sans-Serif" font-size="10.00">StExecutableImage</text>
</a>
</g>
</g>
<!-- Node5&#45;&gt;Node1 -->
<g id="edge5" class="edge"><title>Node5&#45;&gt;Node1</title>
<path fill="none" stroke="#9a32cd" stroke-dasharray="5,2" d="M486.424,-90.7236C522.723,-104.468 579.452,-125.948 617.522,-140.363"/>
<polygon fill="#9a32cd" stroke="#9a32cd" points="487.351,-87.3322 476.76,-87.0643 484.872,-93.8787 487.351,-87.3322"/>
<text text-anchor="middle" x="540.5" y="-122.5" font-family="Helvetica,sans-Serif" font-size="10.00"> m_image</text>
</g>
<!-- Node6 -->
<g id="node6" class="node"><title>Node6</title>
<polygon fill="white" stroke="#bfbfbf" points="189.5,-99 189.5,-118 314.5,-118 314.5,-99 189.5,-99"/>
<text text-anchor="middle" x="252" y="-106" font-family="Helvetica,sans-Serif" font-size="10.00">std::list&lt; AddressFilter &gt;</text>
</g>
<!-- Node6&#45;&gt;Node5 -->
<g id="edge6" class="edge"><title>Node6&#45;&gt;Node5</title>
<path fill="none" stroke="#9a32cd" stroke-dasharray="5,2" d="M323.228,-97.4208C348.583,-93.4207 376.655,-88.992 399.88,-85.3281"/>
<polygon fill="#9a32cd" stroke="#9a32cd" points="322.624,-93.9726 313.292,-98.9883 323.715,-100.887 322.624,-93.9726"/>
<text text-anchor="middle" x="359" y="-98.5" font-family="Helvetica,sans-Serif" font-size="10.00"> m_filters</text>
</g>
<!-- Node7 -->
<g id="node7" class="node"><title>Node7</title>
<g id="a_node7"><a xlink:href="struct_st_executable_image_1_1_address_filter.html" target="_top" xlink:title="StExecutableImage::\lAddressFilter">
<polygon fill="white" stroke="black" points="0,-98.5 0,-128.5 107,-128.5 107,-98.5 0,-98.5"/>
<text text-anchor="start" x="8" y="-116.5" font-family="Helvetica,sans-Serif" font-size="10.00">StExecutableImage::</text>
<text text-anchor="middle" x="53.5" y="-105.5" font-family="Helvetica,sans-Serif" font-size="10.00">AddressFilter</text>
</a>
</g>
</g>
<!-- Node7&#45;&gt;Node6 -->
<g id="edge7" class="edge"><title>Node7&#45;&gt;Node6</title>
<path fill="none" stroke="#9a32cd" stroke-dasharray="5,2" d="M117.202,-111.905C140.318,-111.316 166.47,-110.651 189.481,-110.065"/>
<polygon fill="#9a32cd" stroke="#9a32cd" points="117.066,-108.407 107.158,-112.16 117.244,-115.404 117.066,-108.407"/>
<text text-anchor="middle" x="146.5" y="-115.5" font-family="Helvetica,sans-Serif" font-size="10.00"> elements</text>
</g>
<!-- Node8 -->
<g id="node8" class="node"><title>Node8</title>
<polygon fill="white" stroke="#bfbfbf" points="186,-55 186,-74 318,-74 318,-55 186,-55"/>
<text text-anchor="middle" x="252" y="-62" font-family="Helvetica,sans-Serif" font-size="10.00">std::list&lt; MemoryRegion &gt;</text>
</g>
<!-- Node8&#45;&gt;Node5 -->
<g id="edge8" class="edge"><title>Node8&#45;&gt;Node5</title>
<path fill="none" stroke="#9a32cd" stroke-dasharray="5,2" d="M328.316,-62.9565C345.958,-63.1838 364.662,-63.9031 382,-65.5 388.4,-66.0895 395.104,-66.9642 401.698,-67.9776"/>
<polygon fill="#9a32cd" stroke="#9a32cd" points="328.097,-59.4548 318.07,-62.8765 328.042,-66.4546 328.097,-59.4548"/>
<text text-anchor="middle" x="359" y="-68.5" font-family="Helvetica,sans-Serif" font-size="10.00"> m_image</text>
</g>
<!-- Node9 -->
<g id="node9" class="node"><title>Node9</title>
<g id="a_node9"><a xlink:href="struct_st_executable_image_1_1_memory_region.html" target="_top" xlink:title="StExecutableImage::\lMemoryRegion">
<polygon fill="white" stroke="black" points="0,-49.5 0,-79.5 107,-79.5 107,-49.5 0,-49.5"/>
<text text-anchor="start" x="8" y="-67.5" font-family="Helvetica,sans-Serif" font-size="10.00">StExecutableImage::</text>
<text text-anchor="middle" x="53.5" y="-56.5" font-family="Helvetica,sans-Serif" font-size="10.00">MemoryRegion</text>
</a>
</g>
</g>
<!-- Node9&#45;&gt;Node8 -->
<g id="edge9" class="edge"><title>Node9&#45;&gt;Node8</title>
<path fill="none" stroke="#9a32cd" stroke-dasharray="5,2" d="M117.336,-64.5C139.229,-64.5 163.83,-64.5 185.903,-64.5"/>
<polygon fill="#9a32cd" stroke="#9a32cd" points="117.158,-61.0001 107.158,-64.5 117.158,-68.0001 117.158,-61.0001"/>
<text text-anchor="middle" x="146.5" y="-67.5" font-family="Helvetica,sans-Serif" font-size="10.00"> elements</text>
</g>
<!-- Node10 -->
<g id="node10" class="node"><title>Node10</title>
<g id="a_node10"><a xlink:title="STL class. ">
<polygon fill="white" stroke="#bfbfbf" points="222,-12 222,-31 282,-31 282,-12 222,-12"/>
<text text-anchor="middle" x="252" y="-19" font-family="Helvetica,sans-Serif" font-size="10.00">std::string</text>
</a>
</g>
</g>
<!-- Node10&#45;&gt;Node5 -->
<g id="edge10" class="edge"><title>Node10&#45;&gt;Node5</title>
<path fill="none" stroke="#9a32cd" stroke-dasharray="5,2" d="M292.272,-27.6206C318.104,-32.1571 352.469,-39.1688 382,-48.5 398.662,-53.7648 416.822,-61.7 430.104,-67.9396"/>
<polygon fill="#9a32cd" stroke="#9a32cd" points="292.562,-24.1196 282.116,-25.8869 291.384,-31.0198 292.562,-24.1196"/>
<text text-anchor="middle" x="359" y="-51.5" font-family="Helvetica,sans-Serif" font-size="10.00"> m_name</text>
</g>
<!-- Node11 -->
<g id="node11" class="node"><title>Node11</title>
<g id="a_node11"><a xlink:title="STL class. ">
<polygon fill="white" stroke="#bfbfbf" points="6,-0.5 6,-30.5 101,-30.5 101,-0.5 6,-0.5"/>
<text text-anchor="start" x="14" y="-18.5" font-family="Helvetica,sans-Serif" font-size="10.00">std::basic_string&lt;</text>
<text text-anchor="middle" x="53.5" y="-7.5" font-family="Helvetica,sans-Serif" font-size="10.00"> char &gt;</text>
</a>
</g>
</g>
<!-- Node11&#45;&gt;Node10 -->
<g id="edge11" class="edge"><title>Node11&#45;&gt;Node10</title>
<path fill="none" stroke="midnightblue" d="M111.477,-17.2398C147.608,-18.343 192.841,-19.7241 221.831,-20.6093"/>
<polygon fill="midnightblue" stroke="midnightblue" points="111.17,-13.7288 101.068,-16.9219 110.956,-20.7256 111.17,-13.7288"/>
</g>
</g>
</svg>
