<?xml version="1.0" encoding="UTF-8" standalone="no"?>
<!DOCTYPE svg PUBLIC "-//W3C//DTD SVG 1.1//EN"
 "http://www.w3.org/Graphics/SVG/1.1/DTD/svg11.dtd">
<!-- Generated by graphviz version 2.38.0 (20140413.2041)
 -->
<!-- Title: Blob Pages: 1 -->
<svg width="212pt" height="180pt"
 viewBox="0.00 0.00 212.00 180.00" xmlns="http://www.w3.org/2000/svg" xmlns:xlink="http://www.w3.org/1999/xlink">
<g id="graph0" class="graph" transform="scale(1 1) rotate(0) translate(4 176)">
<title>Blob</title>
<polygon fill="white" stroke="none" points="-4,4 -4,-176 208,-176 208,4 -4,4"/>
<!-- Node1 -->
<g id="node1" class="node"><title>Node1</title>
<polygon fill="#bfbfbf" stroke="black" points="0,-76.5 0,-95.5 36,-95.5 36,-76.5 0,-76.5"/>
<text text-anchor="middle" x="18" y="-83.5" font-family="Helvetica,sans-Serif" font-size="10.00">Blob</text>
</g>
<!-- Node2 -->
<g id="node2" class="node"><title>Node2</title>
<g id="a_node2"><a xlink:href="classblfwk_1_1_binary_value.html" target="_top" xlink:title="Binary object value of arbitrary size. ">
<polygon fill="white" stroke="black" points="89.5,-152.5 89.5,-171.5 186.5,-171.5 186.5,-152.5 89.5,-152.5"/>
<text text-anchor="middle" x="138" y="-159.5" font-family="Helvetica,sans-Serif" font-size="10.00">blfwk::BinaryValue</text>
</a>
</g>
</g>
<!-- Node1&#45;&gt;Node2 -->
<g id="edge1" class="edge"><title>Node1&#45;&gt;Node2</title>
<path fill="none" stroke="midnightblue" d="M31.5332,-103.947C41.2281,-116.572 55.7157,-132.947 72,-143 78.2026,-146.829 85.2134,-149.918 92.2771,-152.4"/>
<polygon fill="midnightblue" stroke="midnightblue" points="34.1088,-101.541 25.3637,-95.5602 28.4702,-105.689 34.1088,-101.541"/>
</g>
<!-- Node3 -->
<g id="node3" class="node"><title>Node3</title>
<g id="a_node3"><a xlink:href="classblfwk_1_1_data_source_imager.html" target="_top" xlink:title="Converts a DataSource into a single binary buffer. ">
<polygon fill="white" stroke="black" points="75.5,-114.5 75.5,-133.5 200.5,-133.5 200.5,-114.5 75.5,-114.5"/>
<text text-anchor="middle" x="138" y="-121.5" font-family="Helvetica,sans-Serif" font-size="10.00">blfwk::DataSourceImager</text>
</a>
</g>
</g>
<!-- Node1&#45;&gt;Node3 -->
<g id="edge2" class="edge"><title>Node1&#45;&gt;Node3</title>
<path fill="none" stroke="midnightblue" d="M45.7406,-95.9379C54.1126,-98.9544 63.4085,-102.207 72,-105 81.9511,-108.235 92.8393,-111.517 102.81,-114.422"/>
<polygon fill="midnightblue" stroke="midnightblue" points="46.6904,-92.5589 36.0964,-92.4224 44.293,-99.1356 46.6904,-92.5589"/>
</g>
<!-- Node4 -->
<g id="node4" class="node"><title>Node4</title>
<g id="a_node4"><a xlink:href="classelftosb_1_1_binary_data_section.html" target="_top" xlink:title="A section of the output file that contains arbitrary binary data. ">
<polygon fill="white" stroke="black" points="72,-76.5 72,-95.5 204,-95.5 204,-76.5 72,-76.5"/>
<text text-anchor="middle" x="138" y="-83.5" font-family="Helvetica,sans-Serif" font-size="10.00">elftosb::BinaryDataSection</text>
</a>
</g>
</g>
<!-- Node1&#45;&gt;Node4 -->
<g id="edge3" class="edge"><title>Node1&#45;&gt;Node4</title>
<path fill="none" stroke="midnightblue" d="M46.3655,-86C54.1384,-86 62.9515,-86 71.9542,-86"/>
<polygon fill="midnightblue" stroke="midnightblue" points="46.1582,-82.5001 36.1582,-86 46.1582,-89.5001 46.1582,-82.5001"/>
</g>
<!-- Node5 -->
<g id="node5" class="node"><title>Node5</title>
<g id="a_node5"><a xlink:href="classelftosb_1_1_binary_value.html" target="_top" xlink:title="Binary object value of arbitrary size. ">
<polygon fill="white" stroke="black" points="86,-38.5 86,-57.5 190,-57.5 190,-38.5 86,-38.5"/>
<text text-anchor="middle" x="138" y="-45.5" font-family="Helvetica,sans-Serif" font-size="10.00">elftosb::BinaryValue</text>
</a>
</g>
</g>
<!-- Node1&#45;&gt;Node5 -->
<g id="edge4" class="edge"><title>Node1&#45;&gt;Node5</title>
<path fill="none" stroke="midnightblue" d="M45.7406,-76.0621C54.1126,-73.0456 63.4085,-69.7929 72,-67 81.9511,-63.7651 92.8393,-60.4831 102.81,-57.5776"/>
<polygon fill="midnightblue" stroke="midnightblue" points="44.293,-72.8644 36.0964,-79.5776 46.6904,-79.4411 44.293,-72.8644"/>
</g>
<!-- Node6 -->
<g id="node6" class="node"><title>Node6</title>
<g id="a_node6"><a xlink:href="classelftosb_1_1_data_source_imager.html" target="_top" xlink:title="Converts a DataSource into a single binary buffer. ">
<polygon fill="white" stroke="black" points="72.5,-0.5 72.5,-19.5 203.5,-19.5 203.5,-0.5 72.5,-0.5"/>
<text text-anchor="middle" x="138" y="-7.5" font-family="Helvetica,sans-Serif" font-size="10.00">elftosb::DataSourceImager</text>
</a>
</g>
</g>
<!-- Node1&#45;&gt;Node6 -->
<g id="edge5" class="edge"><title>Node1&#45;&gt;Node6</title>
<path fill="none" stroke="midnightblue" d="M31.5332,-68.0533C41.2281,-55.4279 55.7157,-39.0528 72,-29 78.2026,-25.1709 85.2134,-22.0821 92.2771,-19.5996"/>
<polygon fill="midnightblue" stroke="midnightblue" points="28.4702,-66.3106 25.3637,-76.4398 34.1088,-70.4586 28.4702,-66.3106"/>
</g>
</g>
</svg>
