<?xml version="1.0" encoding="UTF-8" standalone="no"?>
<!DOCTYPE svg PUBLIC "-//W3C//DTD SVG 1.1//EN"
 "http://www.w3.org/Graphics/SVG/1.1/DTD/svg11.dtd">
<!-- Generated by graphviz version 2.38.0 (20140413.2041)
 -->
<!-- Title: blfwk::DataSource::Segment Pages: 1 -->
<svg width="231pt" height="106pt"
 viewBox="0.00 0.00 230.50 106.00" xmlns="http://www.w3.org/2000/svg" xmlns:xlink="http://www.w3.org/1999/xlink">
<g id="graph0" class="graph" transform="scale(1 1) rotate(0) translate(4 102)">
<title>blfwk::DataSource::Segment</title>
<polygon fill="white" stroke="none" points="-4,4 -4,-102 226.5,-102 226.5,4 -4,4"/>
<!-- Node1 -->
<g id="node1" class="node"><title>Node1</title>
<polygon fill="#bfbfbf" stroke="black" points="0,-0.5 0,-30.5 101,-30.5 101,-0.5 0,-0.5"/>
<text text-anchor="start" x="8" y="-18.5" font-family="Helvetica,sans-Serif" font-size="10.00">blfwk::DataSource::</text>
<text text-anchor="middle" x="50.5" y="-7.5" font-family="Helvetica,sans-Serif" font-size="10.00">Segment</text>
</g>
<!-- Node2 -->
<g id="node2" class="node"><title>Node2</title>
<g id="a_node2"><a xlink:href="classblfwk_1_1_data_source.html" target="_top" xlink:title="Abstract base class for data sources. ">
<polygon fill="white" stroke="black" points="72,-78.5 72,-97.5 167,-97.5 167,-78.5 72,-78.5"/>
<text text-anchor="middle" x="119.5" y="-85.5" font-family="Helvetica,sans-Serif" font-size="10.00">blfwk::DataSource</text>
</a>
</g>
</g>
<!-- Node2&#45;&gt;Node1 -->
<g id="edge1" class="edge"><title>Node2&#45;&gt;Node1</title>
<path fill="none" stroke="#9a32cd" stroke-dasharray="5,2" d="M81.3719,-73.9685C74.7068,-70.299 68.3623,-65.7032 63.5,-60 56.5454,-51.8425 53.3111,-40.0755 51.8071,-30.8363"/>
<polygon fill="#9a32cd" stroke="#9a32cd" points="80.0246,-77.2048 90.5501,-78.4152 83.0767,-70.9052 80.0246,-77.2048"/>
<text text-anchor="middle" x="86.5" y="-52" font-family="Helvetica,sans-Serif" font-size="10.00"> m_source</text>
</g>
<!-- Node3 -->
<g id="node3" class="node"><title>Node3</title>
<g id="a_node3"><a xlink:href="classblfwk_1_1_data_target.html" target="_top" xlink:title="Abstract base class for the target address or range of data. ">
<polygon fill="white" stroke="black" points="130.5,-6 130.5,-25 222.5,-25 222.5,-6 130.5,-6"/>
<text text-anchor="middle" x="176.5" y="-13" font-family="Helvetica,sans-Serif" font-size="10.00">blfwk::DataTarget</text>
</a>
</g>
</g>
<!-- Node2&#45;&gt;Node3 -->
<g id="edge3" class="edge"><title>Node2&#45;&gt;Node3</title>
<path fill="none" stroke="#9a32cd" stroke-dasharray="5,2" d="M113.741,-68.1868C112.831,-61.7189 113.116,-54.6821 116.5,-49 123.229,-37.7023 135.403,-30.0918 147.035,-25.0949"/>
<polygon fill="#9a32cd" stroke="#9a32cd" points="110.394,-69.2463 116.066,-78.1951 117.213,-67.6625 110.394,-69.2463"/>
<text text-anchor="middle" x="139.5" y="-52" font-family="Helvetica,sans-Serif" font-size="10.00"> m_source</text>
</g>
<!-- Node3&#45;&gt;Node2 -->
<g id="edge2" class="edge"><title>Node3&#45;&gt;Node2</title>
<path fill="none" stroke="#9a32cd" stroke-dasharray="5,2" d="M175.541,-35.2253C174.323,-43.4789 171.765,-52.8942 166.5,-60 160.562,-68.0148 151.483,-74.0214 142.883,-78.3087"/>
<polygon fill="#9a32cd" stroke="#9a32cd" points="179.049,-35.3003 176.501,-25.0167 172.08,-34.6453 179.049,-35.3003"/>
<text text-anchor="middle" x="193.5" y="-52" font-family="Helvetica,sans-Serif" font-size="10.00"> m_target</text>
</g>
</g>
</svg>
