<?xml version="1.0" encoding="UTF-8" standalone="no"?>
<!DOCTYPE svg PUBLIC "-//W3C//DTD SVG 1.1//EN"
 "http://www.w3.org/Graphics/SVG/1.1/DTD/svg11.dtd">
<!-- Generated by graphviz version 2.38.0 (20140413.2041)
 -->
<!-- Title: elftosb::DataTarget Pages: 1 -->
<svg width="292pt" height="84pt"
 viewBox="0.00 0.00 292.00 84.00" xmlns="http://www.w3.org/2000/svg" xmlns:xlink="http://www.w3.org/1999/xlink">
<g id="graph0" class="graph" transform="scale(1 1) rotate(0) translate(4 80)">
<title>elftosb::DataTarget</title>
<polygon fill="white" stroke="none" points="-4,4 -4,-80 288,-80 288,4 -4,4"/>
<!-- Node1 -->
<g id="node1" class="node"><title>Node1</title>
<polygon fill="#bfbfbf" stroke="black" points="94.5,-56.5 94.5,-75.5 192.5,-75.5 192.5,-56.5 94.5,-56.5"/>
<text text-anchor="middle" x="143.5" y="-63.5" font-family="Helvetica,sans-Serif" font-size="10.00">elftosb::DataTarget</text>
</g>
<!-- Node2 -->
<g id="node2" class="node"><title>Node2</title>
<g id="a_node2"><a xlink:href="classelftosb_1_1_constant_data_target.html" target="_top" xlink:title="Target with a constant values for the addresses. ">
<polygon fill="white" stroke="black" points="0,-0.5 0,-19.5 137,-19.5 137,-0.5 0,-0.5"/>
<text text-anchor="middle" x="68.5" y="-7.5" font-family="Helvetica,sans-Serif" font-size="10.00">elftosb::ConstantDataTarget</text>
</a>
</g>
</g>
<!-- Node1&#45;&gt;Node2 -->
<g id="edge1" class="edge"><title>Node1&#45;&gt;Node2</title>
<path fill="none" stroke="midnightblue" d="M123.195,-50.3804C109.639,-40.6204 92.2579,-28.1057 80.7693,-19.8339"/>
<polygon fill="midnightblue" stroke="midnightblue" points="121.29,-53.3213 131.45,-56.324 125.38,-47.6405 121.29,-53.3213"/>
</g>
<!-- Node3 -->
<g id="node3" class="node"><title>Node3</title>
<g id="a_node3"><a xlink:href="classelftosb_1_1_natural_data_target.html" target="_top" xlink:title="Target address that is the &quot;natural&quot; location of whatever the source data is. ">
<polygon fill="white" stroke="black" points="155,-0.5 155,-19.5 284,-19.5 284,-0.5 155,-0.5"/>
<text text-anchor="middle" x="219.5" y="-7.5" font-family="Helvetica,sans-Serif" font-size="10.00">elftosb::NaturalDataTarget</text>
</a>
</g>
</g>
<!-- Node1&#45;&gt;Node3 -->
<g id="edge2" class="edge"><title>Node1&#45;&gt;Node3</title>
<path fill="none" stroke="midnightblue" d="M164.076,-50.3804C177.812,-40.6204 195.425,-28.1057 207.067,-19.8339"/>
<polygon fill="midnightblue" stroke="midnightblue" points="161.835,-47.6787 155.711,-56.324 165.89,-53.385 161.835,-47.6787"/>
</g>
</g>
</svg>
