<?xml version="1.0" encoding="UTF-8" standalone="no"?>
<!DOCTYPE svg PUBLIC "-//W3C//DTD SVG 1.1//EN"
 "http://www.w3.org/Graphics/SVG/1.1/DTD/svg11.dtd">
<!-- Generated by graphviz version 2.38.0 (20140413.2041)
 -->
<!-- Title: elftosb::DataSource Pages: 1 -->
<svg width="295pt" height="204pt"
 viewBox="0.00 0.00 295.00 203.50" xmlns="http://www.w3.org/2000/svg" xmlns:xlink="http://www.w3.org/1999/xlink">
<g id="graph0" class="graph" transform="scale(1 1) rotate(0) translate(4 199.5)">
<title>elftosb::DataSource</title>
<polygon fill="white" stroke="none" points="-4,4 -4,-199.5 291,-199.5 291,4 -4,4"/>
<!-- Node1 -->
<g id="node1" class="node"><title>Node1</title>
<polygon fill="#bfbfbf" stroke="black" points="0,-82.5 0,-101.5 102,-101.5 102,-82.5 0,-82.5"/>
<text text-anchor="middle" x="51" y="-89.5" font-family="Helvetica,sans-Serif" font-size="10.00">elftosb::DataSource</text>
</g>
<!-- Node2 -->
<g id="node2" class="node"><title>Node2</title>
<g id="a_node2"><a xlink:href="classelftosb_1_1_e_l_f_source_file_1_1_e_l_f_data_source.html" target="_top" xlink:title="A data source with ELF file sections as the contents. ">
<polygon fill="white" stroke="black" points="154.5,-165 154.5,-195 270.5,-195 270.5,-165 154.5,-165"/>
<text text-anchor="start" x="162.5" y="-183" font-family="Helvetica,sans-Serif" font-size="10.00">elftosb::ELFSourceFile</text>
<text text-anchor="middle" x="212.5" y="-172" font-family="Helvetica,sans-Serif" font-size="10.00">::ELFDataSource</text>
</a>
</g>
</g>
<!-- Node1&#45;&gt;Node2 -->
<g id="edge1" class="edge"><title>Node1&#45;&gt;Node2</title>
<path fill="none" stroke="midnightblue" d="M70.552,-108.194C87.2627,-122.122 112.977,-141.971 138,-155 145.053,-158.673 152.76,-161.98 160.443,-164.896"/>
<polygon fill="midnightblue" stroke="midnightblue" points="72.5745,-105.32 62.6854,-101.517 68.045,-110.657 72.5745,-105.32"/>
</g>
<!-- Node3 -->
<g id="node3" class="node"><title>Node3</title>
<g id="a_node3"><a xlink:href="classelftosb_1_1_i_v_t_data_source.html" target="_top" xlink:title="Data source for an IVT structure used by HAB4. ">
<polygon fill="white" stroke="black" points="154.5,-126.5 154.5,-145.5 270.5,-145.5 270.5,-126.5 154.5,-126.5"/>
<text text-anchor="middle" x="212.5" y="-133.5" font-family="Helvetica,sans-Serif" font-size="10.00">elftosb::IVTDataSource</text>
</a>
</g>
</g>
<!-- Node1&#45;&gt;Node3 -->
<g id="edge2" class="edge"><title>Node1&#45;&gt;Node3</title>
<path fill="none" stroke="midnightblue" d="M94.0269,-104.49C107.993,-108.568 123.642,-113.058 138,-117 149.566,-120.175 162.196,-123.494 173.673,-126.453"/>
<polygon fill="midnightblue" stroke="midnightblue" points="94.7785,-101.063 84.1977,-101.608 92.8087,-107.78 94.7785,-101.063"/>
</g>
<!-- Node4 -->
<g id="node4" class="node"><title>Node4</title>
<g id="a_node4"><a xlink:href="classelftosb_1_1_memory_image_data_source.html" target="_top" xlink:title="Data source that takes its data from an executable image. ">
<polygon fill="white" stroke="black" points="146,-77 146,-107 279,-107 279,-77 146,-77"/>
<text text-anchor="start" x="154" y="-95" font-family="Helvetica,sans-Serif" font-size="10.00">elftosb::MemoryImageData</text>
<text text-anchor="middle" x="212.5" y="-84" font-family="Helvetica,sans-Serif" font-size="10.00">Source</text>
</a>
</g>
</g>
<!-- Node1&#45;&gt;Node4 -->
<g id="edge3" class="edge"><title>Node1&#45;&gt;Node4</title>
<path fill="none" stroke="midnightblue" d="M112.336,-92C123.283,-92 134.75,-92 145.841,-92"/>
<polygon fill="midnightblue" stroke="midnightblue" points="112.029,-88.5001 102.029,-92 112.029,-95.5001 112.029,-88.5001"/>
</g>
<!-- Node5 -->
<g id="node5" class="node"><title>Node5</title>
<g id="a_node5"><a xlink:href="classelftosb_1_1_pattern_source.html" target="_top" xlink:title="Data source for a repeating pattern. ">
<polygon fill="white" stroke="black" points="156,-38.5 156,-57.5 269,-57.5 269,-38.5 156,-38.5"/>
<text text-anchor="middle" x="212.5" y="-45.5" font-family="Helvetica,sans-Serif" font-size="10.00">elftosb::PatternSource</text>
</a>
</g>
</g>
<!-- Node1&#45;&gt;Node5 -->
<g id="edge4" class="edge"><title>Node1&#45;&gt;Node5</title>
<path fill="none" stroke="midnightblue" d="M95.894,-79.6915C109.395,-75.9216 124.305,-71.7741 138,-68 150.494,-64.5568 164.194,-60.8189 176.344,-57.5165"/>
<polygon fill="midnightblue" stroke="midnightblue" points="94.5766,-76.4255 85.888,-82.4884 96.4611,-83.1671 94.5766,-76.4255"/>
</g>
<!-- Node6 -->
<g id="node6" class="node"><title>Node6</title>
<g id="a_node6"><a xlink:href="classelftosb_1_1_unmapped_data_source.html" target="_top" xlink:title="Data source for data that is not memory mapped (has no natural address). ">
<polygon fill="white" stroke="black" points="138,-0.5 138,-19.5 287,-19.5 287,-0.5 138,-0.5"/>
<text text-anchor="middle" x="212.5" y="-7.5" font-family="Helvetica,sans-Serif" font-size="10.00">elftosb::UnmappedDataSource</text>
</a>
</g>
</g>
<!-- Node1&#45;&gt;Node6 -->
<g id="edge5" class="edge"><title>Node1&#45;&gt;Node6</title>
<path fill="none" stroke="midnightblue" d="M70.0444,-75.5796C86.5959,-61.3366 112.364,-41.1505 138,-29 145.98,-25.2179 154.817,-22.1141 163.516,-19.5926"/>
<polygon fill="midnightblue" stroke="midnightblue" points="67.4746,-73.1787 62.2787,-82.412 72.0985,-78.4342 67.4746,-73.1787"/>
</g>
</g>
</svg>
