<?xml version="1.0" encoding="UTF-8" standalone="no"?>
<!DOCTYPE svg PUBLIC "-//W3C//DTD SVG 1.1//EN"
 "http://www.w3.org/Graphics/SVG/1.1/DTD/svg11.dtd">
<!-- Generated by graphviz version 2.38.0 (20140413.2041)
 -->
<!-- Title: StExecutableImage::address_filter_exception Pages: 1 -->
<svg width="211pt" height="185pt"
 viewBox="0.00 0.00 211.00 185.00" xmlns="http://www.w3.org/2000/svg" xmlns:xlink="http://www.w3.org/1999/xlink">
<g id="graph0" class="graph" transform="scale(1 1) rotate(0) translate(4 181)">
<title>StExecutableImage::address_filter_exception</title>
<polygon fill="white" stroke="none" points="-4,4 -4,-181 207,-181 207,4 -4,4"/>
<!-- Node1 -->
<g id="node1" class="node"><title>Node1</title>
<polygon fill="#bfbfbf" stroke="black" points="32.5,-0.5 32.5,-30.5 154.5,-30.5 154.5,-0.5 32.5,-0.5"/>
<text text-anchor="start" x="40.5" y="-18.5" font-family="Helvetica,sans-Serif" font-size="10.00">StExecutableImage::</text>
<text text-anchor="middle" x="93.5" y="-7.5" font-family="Helvetica,sans-Serif" font-size="10.00">address_filter_exception</text>
</g>
<!-- Node2 -->
<g id="node2" class="node"><title>Node2</title>
<g id="a_node2"><a xlink:href="struct_st_executable_image_1_1_address_filter.html" target="_top" xlink:title="StExecutableImage::\lAddressFilter">
<polygon fill="white" stroke="black" points="0,-78.5 0,-108.5 107,-108.5 107,-78.5 0,-78.5"/>
<text text-anchor="start" x="8" y="-96.5" font-family="Helvetica,sans-Serif" font-size="10.00">StExecutableImage::</text>
<text text-anchor="middle" x="53.5" y="-85.5" font-family="Helvetica,sans-Serif" font-size="10.00">AddressFilter</text>
</a>
</g>
</g>
<!-- Node2&#45;&gt;Node1 -->
<g id="edge1" class="edge"><title>Node2&#45;&gt;Node1</title>
<path fill="none" stroke="#9a32cd" stroke-dasharray="5,2" d="M65.7607,-69.2047C72.3732,-56.641 80.3202,-41.5416 86.01,-30.7309"/>
<polygon fill="#9a32cd" stroke="#9a32cd" points="62.584,-67.7257 61.0237,-78.205 68.7784,-70.9859 62.584,-67.7257"/>
<text text-anchor="middle" x="94" y="-52" font-family="Helvetica,sans-Serif" font-size="10.00"> m_filter</text>
</g>
<!-- Node3 -->
<g id="node3" class="node"><title>Node3</title>
<g id="a_node3"><a xlink:title="STL class. ">
<polygon fill="white" stroke="#bfbfbf" points="125.5,-84 125.5,-103 185.5,-103 185.5,-84 125.5,-84"/>
<text text-anchor="middle" x="155.5" y="-91" font-family="Helvetica,sans-Serif" font-size="10.00">std::string</text>
</a>
</g>
</g>
<!-- Node3&#45;&gt;Node1 -->
<g id="edge2" class="edge"><title>Node3&#45;&gt;Node1</title>
<path fill="none" stroke="#9a32cd" stroke-dasharray="5,2" d="M141.839,-75.7545C130.773,-62.189 115.36,-43.2964 104.937,-30.5198"/>
<polygon fill="#9a32cd" stroke="#9a32cd" points="139.354,-78.2456 148.388,-83.7818 144.779,-73.8207 139.354,-78.2456"/>
<text text-anchor="middle" x="162" y="-52" font-family="Helvetica,sans-Serif" font-size="10.00"> m_imageName</text>
</g>
<!-- Node4 -->
<g id="node4" class="node"><title>Node4</title>
<g id="a_node4"><a xlink:title="STL class. ">
<polygon fill="white" stroke="#bfbfbf" points="108,-146.5 108,-176.5 203,-176.5 203,-146.5 108,-146.5"/>
<text text-anchor="start" x="116" y="-164.5" font-family="Helvetica,sans-Serif" font-size="10.00">std::basic_string&lt;</text>
<text text-anchor="middle" x="155.5" y="-153.5" font-family="Helvetica,sans-Serif" font-size="10.00"> char &gt;</text>
</a>
</g>
</g>
<!-- Node4&#45;&gt;Node3 -->
<g id="edge3" class="edge"><title>Node4&#45;&gt;Node3</title>
<path fill="none" stroke="midnightblue" d="M155.5,-135.876C155.5,-124.471 155.5,-111.636 155.5,-103.328"/>
<polygon fill="midnightblue" stroke="midnightblue" points="152,-136.179 155.5,-146.179 159,-136.179 152,-136.179"/>
</g>
</g>
</svg>
