<?xml version="1.0" encoding="UTF-8" standalone="no"?>
<!DOCTYPE svg PUBLIC "-//W3C//DTD SVG 1.1//EN"
 "http://www.w3.org/Graphics/SVG/1.1/DTD/svg11.dtd">
<!-- Generated by graphviz version 2.38.0 (20140413.2041)
 -->
<!-- Title: blfwk::GetProperty Pages: 1 -->
<svg width="497pt" height="297pt"
 viewBox="0.00 0.00 496.50 297.00" xmlns="http://www.w3.org/2000/svg" xmlns:xlink="http://www.w3.org/1999/xlink">
<g id="graph0" class="graph" transform="scale(1 1) rotate(0) translate(4 293)">
<title>blfwk::GetProperty</title>
<polygon fill="white" stroke="none" points="-4,4 -4,-293 492.5,-293 492.5,4 -4,4"/>
<!-- Node1 -->
<g id="node1" class="node"><title>Node1</title>
<polygon fill="#bfbfbf" stroke="black" points="240.5,-0.5 240.5,-19.5 337.5,-19.5 337.5,-0.5 240.5,-0.5"/>
<text text-anchor="middle" x="289" y="-7.5" font-family="Helvetica,sans-Serif" font-size="10.00">blfwk::GetProperty</text>
</g>
<!-- Node2 -->
<g id="node2" class="node"><title>Node2</title>
<g id="a_node2"><a xlink:href="classblfwk_1_1_command.html" target="_top" xlink:title="Represents a bootloader command. ">
<polygon fill="white" stroke="black" points="164.5,-67.5 164.5,-86.5 253.5,-86.5 253.5,-67.5 164.5,-67.5"/>
<text text-anchor="middle" x="209" y="-74.5" font-family="Helvetica,sans-Serif" font-size="10.00">blfwk::Command</text>
</a>
</g>
</g>
<!-- Node2&#45;&gt;Node1 -->
<g id="edge1" class="edge"><title>Node2&#45;&gt;Node1</title>
<path fill="none" stroke="midnightblue" d="M227.814,-60.7134C243.576,-47.907 265.507,-30.0884 278.382,-19.6273"/>
<polygon fill="midnightblue" stroke="midnightblue" points="225.343,-58.2114 219.789,-67.2338 229.757,-63.6443 225.343,-58.2114"/>
</g>
<!-- Node3 -->
<g id="node3" class="node"><title>Node3</title>
<polygon fill="white" stroke="#bfbfbf" points="0,-134.5 0,-153.5 114,-153.5 114,-134.5 0,-134.5"/>
<text text-anchor="middle" x="57" y="-141.5" font-family="Helvetica,sans-Serif" font-size="10.00">std::vector&lt; uint32_t &gt;</text>
</g>
<!-- Node3&#45;&gt;Node2 -->
<g id="edge2" class="edge"><title>Node3&#45;&gt;Node2</title>
<path fill="none" stroke="#9a32cd" stroke-dasharray="5,2" d="M52.9184,-124.419C52.5028,-117.592 53.4827,-110.255 58,-105 71.5848,-89.1978 124.992,-82.6258 164.456,-79.9042"/>
<polygon fill="#9a32cd" stroke="#9a32cd" points="49.4643,-124.986 54.4124,-134.355 56.3865,-123.945 49.4643,-124.986"/>
<text text-anchor="middle" x="101.5" y="-108" font-family="Helvetica,sans-Serif" font-size="10.00"> m_responseValues</text>
</g>
<!-- Node4 -->
<g id="node4" class="node"><title>Node4</title>
<g id="a_node4"><a xlink:title="STL class. ">
<polygon fill="white" stroke="#bfbfbf" points="179,-201.5 179,-220.5 239,-220.5 239,-201.5 179,-201.5"/>
<text text-anchor="middle" x="209" y="-208.5" font-family="Helvetica,sans-Serif" font-size="10.00">std::string</text>
</a>
</g>
</g>
<!-- Node4&#45;&gt;Node2 -->
<g id="edge3" class="edge"><title>Node4&#45;&gt;Node2</title>
<path fill="none" stroke="#9a32cd" stroke-dasharray="5,2" d="M192.726,-193.712C183.524,-183.312 172.905,-169.001 168,-154 159.521,-128.065 183.821,-100.594 198.578,-86.8787"/>
<polygon fill="#9a32cd" stroke="#9a32cd" points="190.285,-196.226 199.665,-201.152 195.404,-191.452 190.285,-196.226"/>
<text text-anchor="middle" x="211.5" y="-141.5" font-family="Helvetica,sans-Serif" font-size="10.00"> m_responseDetails</text>
</g>
<!-- Node7 -->
<g id="node7" class="node"><title>Node7</title>
<polygon fill="white" stroke="#bfbfbf" points="264.5,-134.5 264.5,-153.5 387.5,-153.5 387.5,-134.5 264.5,-134.5"/>
<text text-anchor="middle" x="326" y="-141.5" font-family="Helvetica,sans-Serif" font-size="10.00">std::vector&lt; std::string &gt;</text>
</g>
<!-- Node4&#45;&gt;Node7 -->
<g id="edge7" class="edge"><title>Node4&#45;&gt;Node7</title>
<path fill="none" stroke="#9a32cd" stroke-dasharray="5,2" d="M233.683,-196.287C256.872,-183.405 290.856,-164.524 310.471,-153.627"/>
<polygon fill="#9a32cd" stroke="#9a32cd" points="231.821,-193.318 224.779,-201.234 235.22,-199.437 231.821,-193.318"/>
<text text-anchor="middle" x="296.5" y="-175" font-family="Helvetica,sans-Serif" font-size="10.00"> elements</text>
</g>
<!-- Node5 -->
<g id="node5" class="node"><title>Node5</title>
<g id="a_node5"><a xlink:title="STL class. ">
<polygon fill="white" stroke="#bfbfbf" points="161.5,-258.5 161.5,-288.5 256.5,-288.5 256.5,-258.5 161.5,-258.5"/>
<text text-anchor="start" x="169.5" y="-276.5" font-family="Helvetica,sans-Serif" font-size="10.00">std::basic_string&lt;</text>
<text text-anchor="middle" x="209" y="-265.5" font-family="Helvetica,sans-Serif" font-size="10.00"> char &gt;</text>
</a>
</g>
</g>
<!-- Node5&#45;&gt;Node4 -->
<g id="edge4" class="edge"><title>Node5&#45;&gt;Node4</title>
<path fill="none" stroke="midnightblue" d="M209,-248.352C209,-238.513 209,-227.775 209,-220.54"/>
<polygon fill="midnightblue" stroke="midnightblue" points="205.5,-248.468 209,-258.468 212.5,-248.468 205.5,-248.468"/>
</g>
<!-- Node6 -->
<g id="node6" class="node"><title>Node6</title>
<g id="a_node6"><a xlink:href="classblfwk_1_1_progress.html" target="_top" xlink:title="Contains the callback function for progress and abort phase. ">
<polygon fill="white" stroke="black" points="405.5,-134.5 405.5,-153.5 488.5,-153.5 488.5,-134.5 405.5,-134.5"/>
<text text-anchor="middle" x="447" y="-141.5" font-family="Helvetica,sans-Serif" font-size="10.00">blfwk::Progress</text>
</a>
</g>
</g>
<!-- Node6&#45;&gt;Node2 -->
<g id="edge5" class="edge"><title>Node6&#45;&gt;Node2</title>
<path fill="none" stroke="#9a32cd" stroke-dasharray="5,2" d="M407.778,-131.628C381.098,-123.954 344.97,-113.682 313,-105 289.597,-98.6447 263.144,-91.7814 242.773,-86.5649"/>
<polygon fill="#9a32cd" stroke="#9a32cd" points="406.934,-135.027 417.513,-134.434 408.873,-128.301 406.934,-135.027"/>
<text text-anchor="middle" x="377.5" y="-108" font-family="Helvetica,sans-Serif" font-size="10.00"> m_progress</text>
</g>
<!-- Node7&#45;&gt;Node2 -->
<g id="edge6" class="edge"><title>Node7&#45;&gt;Node2</title>
<path fill="none" stroke="#9a32cd" stroke-dasharray="5,2" d="M301.317,-129.287C278.128,-116.405 244.144,-97.5243 224.529,-86.6273"/>
<polygon fill="#9a32cd" stroke="#9a32cd" points="299.78,-132.437 310.221,-134.234 303.179,-126.318 299.78,-132.437"/>
<text text-anchor="middle" x="292" y="-108" font-family="Helvetica,sans-Serif" font-size="10.00"> m_argv</text>
</g>
<!-- Node8 -->
<g id="node8" class="node"><title>Node8</title>
<g id="a_node8"><a xlink:href="structblfwk_1_1property__t.html" target="_top" xlink:title="blfwk::property_t">
<polygon fill="white" stroke="black" points="272,-67.5 272,-86.5 360,-86.5 360,-67.5 272,-67.5"/>
<text text-anchor="middle" x="316" y="-74.5" font-family="Helvetica,sans-Serif" font-size="10.00">blfwk::property_t</text>
</a>
</g>
</g>
<!-- Node8&#45;&gt;Node1 -->
<g id="edge8" class="edge"><title>Node8&#45;&gt;Node1</title>
<path fill="none" stroke="#9a32cd" stroke-dasharray="5,2" d="M308.436,-57.79C303.251,-45.3076 296.607,-29.3135 292.584,-19.6273"/>
<polygon fill="#9a32cd" stroke="#9a32cd" points="305.29,-59.3415 312.359,-67.2338 311.755,-56.6562 305.29,-59.3415"/>
<text text-anchor="middle" x="331" y="-41" font-family="Helvetica,sans-Serif" font-size="10.00"> m_property</text>
</g>
</g>
</svg>
