<?xml version="1.0" encoding="UTF-8" standalone="no"?>
<!DOCTYPE svg PUBLIC "-//W3C//DTD SVG 1.1//EN"
 "http://www.w3.org/Graphics/SVG/1.1/DTD/svg11.dtd">
<!-- Generated by graphviz version 2.38.0 (20140413.2041)
 -->
<!-- Title: blfwk::SBSourceFile Pages: 1 -->
<svg width="375pt" height="548pt"
 viewBox="0.00 0.00 375.00 548.00" xmlns="http://www.w3.org/2000/svg" xmlns:xlink="http://www.w3.org/1999/xlink">
<g id="graph0" class="graph" transform="scale(1 1) rotate(0) translate(4 544)">
<title>blfwk::SBSourceFile</title>
<polygon fill="white" stroke="none" points="-4,4 -4,-544 371,-544 371,4 -4,4"/>
<!-- Node1 -->
<g id="node1" class="node"><title>Node1</title>
<polygon fill="#bfbfbf" stroke="black" points="108.5,-0.5 108.5,-19.5 212.5,-19.5 212.5,-0.5 108.5,-0.5"/>
<text text-anchor="middle" x="160.5" y="-7.5" font-family="Helvetica,sans-Serif" font-size="10.00">blfwk::SBSourceFile</text>
</g>
<!-- Node2 -->
<g id="node2" class="node"><title>Node2</title>
<g id="a_node2"><a xlink:href="classblfwk_1_1_binary_source_file.html" target="_top" xlink:title="Binary data file. ">
<polygon fill="white" stroke="black" points="101,-57.5 101,-76.5 220,-76.5 220,-57.5 101,-57.5"/>
<text text-anchor="middle" x="160.5" y="-64.5" font-family="Helvetica,sans-Serif" font-size="10.00">blfwk::BinarySourceFile</text>
</a>
</g>
</g>
<!-- Node2&#45;&gt;Node1 -->
<g id="edge1" class="edge"><title>Node2&#45;&gt;Node1</title>
<path fill="none" stroke="midnightblue" d="M160.5,-47.1166C160.5,-37.8173 160.5,-27.0557 160.5,-19.7149"/>
<polygon fill="midnightblue" stroke="midnightblue" points="157,-47.4062 160.5,-57.4063 164,-47.4063 157,-47.4062"/>
</g>
<!-- Node3 -->
<g id="node3" class="node"><title>Node3</title>
<g id="a_node3"><a xlink:href="classblfwk_1_1_source_file.html" target="_top" xlink:title="Abstract base class for a source file containing executable code. ">
<polygon fill="white" stroke="black" points="115,-114.5 115,-133.5 206,-133.5 206,-114.5 115,-114.5"/>
<text text-anchor="middle" x="160.5" y="-121.5" font-family="Helvetica,sans-Serif" font-size="10.00">blfwk::SourceFile</text>
</a>
</g>
</g>
<!-- Node3&#45;&gt;Node2 -->
<g id="edge2" class="edge"><title>Node3&#45;&gt;Node2</title>
<path fill="none" stroke="midnightblue" d="M160.5,-104.117C160.5,-94.8173 160.5,-84.0557 160.5,-76.7149"/>
<polygon fill="midnightblue" stroke="midnightblue" points="157,-104.406 160.5,-114.406 164,-104.406 157,-104.406"/>
</g>
<!-- Node4 -->
<g id="node4" class="node"><title>Node4</title>
<g id="a_node4"><a xlink:title="STL class. ">
<polygon fill="white" stroke="#bfbfbf" points="17.5,-187 17.5,-206 77.5,-206 77.5,-187 17.5,-187"/>
<text text-anchor="middle" x="47.5" y="-194" font-family="Helvetica,sans-Serif" font-size="10.00">std::string</text>
</a>
</g>
</g>
<!-- Node4&#45;&gt;Node3 -->
<g id="edge3" class="edge"><title>Node4&#45;&gt;Node3</title>
<path fill="none" stroke="#9a32cd" stroke-dasharray="5,2" d="M70.0454,-181.434C92.8573,-167.202 127.408,-145.646 146.531,-133.715"/>
<polygon fill="#9a32cd" stroke="#9a32cd" points="67.9876,-178.593 61.356,-186.855 71.6929,-184.532 67.9876,-178.593"/>
<text text-anchor="middle" x="132.5" y="-155" font-family="Helvetica,sans-Serif" font-size="10.00"> m_path</text>
</g>
<!-- Node5 -->
<g id="node5" class="node"><title>Node5</title>
<g id="a_node5"><a xlink:title="STL class. ">
<polygon fill="white" stroke="#bfbfbf" points="0,-259.5 0,-289.5 95,-289.5 95,-259.5 0,-259.5"/>
<text text-anchor="start" x="8" y="-277.5" font-family="Helvetica,sans-Serif" font-size="10.00">std::basic_string&lt;</text>
<text text-anchor="middle" x="47.5" y="-266.5" font-family="Helvetica,sans-Serif" font-size="10.00"> char &gt;</text>
</a>
</g>
</g>
<!-- Node5&#45;&gt;Node4 -->
<g id="edge4" class="edge"><title>Node5&#45;&gt;Node4</title>
<path fill="none" stroke="midnightblue" d="M47.5,-249.165C47.5,-234.396 47.5,-216.448 47.5,-206.064"/>
<polygon fill="midnightblue" stroke="midnightblue" points="44.0001,-249.205 47.5,-259.205 51.0001,-249.205 44.0001,-249.205"/>
</g>
<!-- Node6 -->
<g id="node6" class="node"><title>Node6</title>
<g id="a_node6"><a xlink:href="group__smart__pointer.html" target="_top" xlink:title="smart_ptr\&lt; std::ifstream \&gt;">
<polygon fill="white" stroke="black" points="95.5,-187 95.5,-206 225.5,-206 225.5,-187 95.5,-187"/>
<text text-anchor="middle" x="160.5" y="-194" font-family="Helvetica,sans-Serif" font-size="10.00">smart_ptr&lt; std::ifstream &gt;</text>
</a>
</g>
</g>
<!-- Node6&#45;&gt;Node3 -->
<g id="edge5" class="edge"><title>Node6&#45;&gt;Node3</title>
<path fill="none" stroke="#9a32cd" stroke-dasharray="5,2" d="M160.5,-176.442C160.5,-162.53 160.5,-144.32 160.5,-133.715"/>
<polygon fill="#9a32cd" stroke="#9a32cd" points="157,-176.855 160.5,-186.855 164,-176.855 157,-176.855"/>
<text text-anchor="middle" x="184" y="-155" font-family="Helvetica,sans-Serif" font-size="10.00"> m_stream</text>
</g>
<!-- Node7 -->
<g id="node7" class="node"><title>Node7</title>
<g id="a_node7"><a xlink:title="STL class. ">
<polygon fill="white" stroke="#bfbfbf" points="125,-265 125,-284 196,-284 196,-265 125,-265"/>
<text text-anchor="middle" x="160.5" y="-272" font-family="Helvetica,sans-Serif" font-size="10.00">std::ifstream</text>
</a>
</g>
</g>
<!-- Node7&#45;&gt;Node6 -->
<g id="edge6" class="edge"><title>Node7&#45;&gt;Node6</title>
<path fill="none" stroke="#9a32cd" stroke-dasharray="5,2" d="M160.5,-254.724C160.5,-239.197 160.5,-217.858 160.5,-206.116"/>
<polygon fill="#9a32cd" stroke="#9a32cd" points="157,-254.782 160.5,-264.782 164,-254.782 157,-254.782"/>
<text text-anchor="middle" x="167.5" y="-233" font-family="Helvetica,sans-Serif" font-size="10.00"> _p</text>
</g>
<!-- Node8 -->
<g id="node8" class="node"><title>Node8</title>
<g id="a_node8"><a xlink:title="STL class. ">
<polygon fill="white" stroke="#bfbfbf" points="111,-327.5 111,-357.5 210,-357.5 210,-327.5 111,-327.5"/>
<text text-anchor="start" x="119" y="-345.5" font-family="Helvetica,sans-Serif" font-size="10.00">std::basic_ifstream</text>
<text text-anchor="middle" x="160.5" y="-334.5" font-family="Helvetica,sans-Serif" font-size="10.00">&lt; char &gt;</text>
</a>
</g>
</g>
<!-- Node8&#45;&gt;Node7 -->
<g id="edge7" class="edge"><title>Node8&#45;&gt;Node7</title>
<path fill="none" stroke="midnightblue" d="M160.5,-316.876C160.5,-305.471 160.5,-292.636 160.5,-284.328"/>
<polygon fill="midnightblue" stroke="midnightblue" points="157,-317.179 160.5,-327.179 164,-317.179 157,-317.179"/>
</g>
<!-- Node9 -->
<g id="node9" class="node"><title>Node9</title>
<g id="a_node9"><a xlink:title="STL class. ">
<polygon fill="white" stroke="#bfbfbf" points="112,-395.5 112,-425.5 209,-425.5 209,-395.5 112,-395.5"/>
<text text-anchor="start" x="120" y="-413.5" font-family="Helvetica,sans-Serif" font-size="10.00">std::basic_istream</text>
<text text-anchor="middle" x="160.5" y="-402.5" font-family="Helvetica,sans-Serif" font-size="10.00">&lt; Char &gt;</text>
</a>
</g>
</g>
<!-- Node9&#45;&gt;Node8 -->
<g id="edge8" class="edge"><title>Node9&#45;&gt;Node8</title>
<path fill="none" stroke="midnightblue" d="M160.5,-385.032C160.5,-375.861 160.5,-365.745 160.5,-357.793"/>
<polygon fill="midnightblue" stroke="midnightblue" points="157,-385.179 160.5,-395.179 164,-385.179 157,-385.179"/>
</g>
<!-- Node10 -->
<g id="node10" class="node"><title>Node10</title>
<g id="a_node10"><a xlink:title="STL class. ">
<polygon fill="white" stroke="#bfbfbf" points="102.5,-463.5 102.5,-482.5 218.5,-482.5 218.5,-463.5 102.5,-463.5"/>
<text text-anchor="middle" x="160.5" y="-470.5" font-family="Helvetica,sans-Serif" font-size="10.00">std::basic_ios&lt; Char &gt;</text>
</a>
</g>
</g>
<!-- Node10&#45;&gt;Node9 -->
<g id="edge9" class="edge"><title>Node10&#45;&gt;Node9</title>
<path fill="none" stroke="midnightblue" d="M160.5,-453.215C160.5,-444.356 160.5,-433.958 160.5,-425.759"/>
<polygon fill="midnightblue" stroke="midnightblue" points="157,-453.332 160.5,-463.332 164,-453.332 157,-453.332"/>
</g>
<!-- Node11 -->
<g id="node11" class="node"><title>Node11</title>
<g id="a_node11"><a xlink:title="STL class. ">
<polygon fill="white" stroke="#bfbfbf" points="123,-520.5 123,-539.5 198,-539.5 198,-520.5 123,-520.5"/>
<text text-anchor="middle" x="160.5" y="-527.5" font-family="Helvetica,sans-Serif" font-size="10.00">std::ios_base</text>
</a>
</g>
</g>
<!-- Node11&#45;&gt;Node10 -->
<g id="edge10" class="edge"><title>Node11&#45;&gt;Node10</title>
<path fill="none" stroke="midnightblue" d="M160.5,-510.117C160.5,-500.817 160.5,-490.056 160.5,-482.715"/>
<polygon fill="midnightblue" stroke="midnightblue" points="157,-510.406 160.5,-520.406 164,-510.406 157,-510.406"/>
</g>
<!-- Node12 -->
<g id="node12" class="node"><title>Node12</title>
<g id="a_node12"><a xlink:href="group__smart__pointer.html" target="_top" xlink:title="smart_ptr\&lt; blfwk::Option\lContext \&gt;">
<polygon fill="white" stroke="black" points="244,-181.5 244,-211.5 367,-211.5 367,-181.5 244,-181.5"/>
<text text-anchor="start" x="252" y="-199.5" font-family="Helvetica,sans-Serif" font-size="10.00">smart_ptr&lt; blfwk::Option</text>
<text text-anchor="middle" x="305.5" y="-188.5" font-family="Helvetica,sans-Serif" font-size="10.00">Context &gt;</text>
</a>
</g>
</g>
<!-- Node12&#45;&gt;Node3 -->
<g id="edge11" class="edge"><title>Node12&#45;&gt;Node3</title>
<path fill="none" stroke="#9a32cd" stroke-dasharray="5,2" d="M267.485,-177.017C238.567,-162.957 200.106,-144.257 178.051,-133.534"/>
<polygon fill="#9a32cd" stroke="#9a32cd" points="265.982,-180.178 276.506,-181.403 269.043,-173.882 265.982,-180.178"/>
<text text-anchor="middle" x="262" y="-155" font-family="Helvetica,sans-Serif" font-size="10.00"> m_options</text>
</g>
<!-- Node13 -->
<g id="node13" class="node"><title>Node13</title>
<g id="a_node13"><a xlink:href="classblfwk_1_1_option_context.html" target="_top" xlink:title="Pure abstract interface class to a table of options. ">
<polygon fill="white" stroke="black" points="252,-265 252,-284 359,-284 359,-265 252,-265"/>
<text text-anchor="middle" x="305.5" y="-272" font-family="Helvetica,sans-Serif" font-size="10.00">blfwk::OptionContext</text>
</a>
</g>
</g>
<!-- Node13&#45;&gt;Node12 -->
<g id="edge12" class="edge"><title>Node13&#45;&gt;Node12</title>
<path fill="none" stroke="#9a32cd" stroke-dasharray="5,2" d="M305.5,-254.782C305.5,-241.404 305.5,-223.688 305.5,-211.52"/>
<polygon fill="#9a32cd" stroke="#9a32cd" points="302,-254.782 305.5,-264.782 309,-254.782 302,-254.782"/>
<text text-anchor="middle" x="312.5" y="-233" font-family="Helvetica,sans-Serif" font-size="10.00"> _p</text>
</g>
</g>
</svg>
