<?xml version="1.0" encoding="UTF-8" standalone="no"?>
<!DOCTYPE svg PUBLIC "-//W3C//DTD SVG 1.1//EN"
 "http://www.w3.org/Graphics/SVG/1.1/DTD/svg11.dtd">
<!-- Generated by graphviz version 2.38.0 (20140413.2041)
 -->
<!-- Title: elftosb::SourceDefASTNode Pages: 1 -->
<svg width="315pt" height="385pt"
 viewBox="0.00 0.00 315.00 385.00" xmlns="http://www.w3.org/2000/svg" xmlns:xlink="http://www.w3.org/1999/xlink">
<g id="graph0" class="graph" transform="scale(1 1) rotate(0) translate(4 381)">
<title>elftosb::SourceDefASTNode</title>
<polygon fill="white" stroke="none" points="-4,4 -4,-381 311,-381 311,4 -4,4"/>
<!-- Node1 -->
<g id="node1" class="node"><title>Node1</title>
<polygon fill="#bfbfbf" stroke="black" points="46,-0.5 46,-19.5 183,-19.5 183,-0.5 46,-0.5"/>
<text text-anchor="middle" x="114.5" y="-7.5" font-family="Helvetica,sans-Serif" font-size="10.00">elftosb::SourceDefASTNode</text>
</g>
<!-- Node2 -->
<g id="node2" class="node"><title>Node2</title>
<g id="a_node2"><a xlink:href="classelftosb_1_1_a_s_t_node.html" target="_top" xlink:title="The base class for all AST node classes. ">
<polygon fill="white" stroke="black" points="4.5,-290.5 4.5,-309.5 96.5,-309.5 96.5,-290.5 4.5,-290.5"/>
<text text-anchor="middle" x="50.5" y="-297.5" font-family="Helvetica,sans-Serif" font-size="10.00">elftosb::ASTNode</text>
</a>
</g>
</g>
<!-- Node2&#45;&gt;Node1 -->
<g id="edge1" class="edge"><title>Node2&#45;&gt;Node1</title>
<path fill="none" stroke="midnightblue" d="M35.4848,-282.385C24.8624,-268.88 12.5,-248.803 12.5,-228.5 12.5,-228.5 12.5,-228.5 12.5,-81.5 12.5,-48.0262 50.1341,-29.2061 79.6827,-19.5882"/>
<polygon fill="midnightblue" stroke="midnightblue" points="32.9635,-284.826 42.0666,-290.247 38.3308,-280.332 32.9635,-284.826"/>
</g>
<!-- Node2&#45;&gt;Node2 -->
<g id="edge3" class="edge"><title>Node2&#45;&gt;Node2</title>
<path fill="none" stroke="#9a32cd" stroke-dasharray="5,2" d="M106.774,-304.66C111.534,-303.663 114.5,-302.109 114.5,-300 114.5,-296.625 106.906,-294.674 96.5242,-294.146"/>
<polygon fill="#9a32cd" stroke="#9a32cd" points="106.052,-301.22 96.5242,-305.854 106.862,-308.173 106.052,-301.22"/>
<text text-anchor="middle" x="136.5" y="-297.5" font-family="Helvetica,sans-Serif" font-size="10.00"> m_parent</text>
</g>
<!-- Node5 -->
<g id="node5" class="node"><title>Node5</title>
<g id="a_node5"><a xlink:href="classelftosb_1_1_list_a_s_t_node.html" target="_top" xlink:title="AST node that contains other AST nodes. ">
<polygon fill="white" stroke="black" points="60.5,-145.5 60.5,-164.5 168.5,-164.5 168.5,-145.5 60.5,-145.5"/>
<text text-anchor="middle" x="114.5" y="-152.5" font-family="Helvetica,sans-Serif" font-size="10.00">elftosb::ListASTNode</text>
</a>
</g>
</g>
<!-- Node2&#45;&gt;Node5 -->
<g id="edge6" class="edge"><title>Node2&#45;&gt;Node5</title>
<path fill="none" stroke="midnightblue" d="M52.0793,-280.288C54.1807,-262.101 58.9472,-234.073 69.5,-212 78.5378,-193.096 95.0934,-174.886 105.407,-164.601"/>
<polygon fill="midnightblue" stroke="midnightblue" points="48.5778,-280.13 51.0681,-290.428 55.5432,-280.824 48.5778,-280.13"/>
</g>
<!-- Node6 -->
<g id="node6" class="node"><title>Node6</title>
<polygon fill="white" stroke="#bfbfbf" points="79,-218 79,-237 194,-237 194,-218 79,-218"/>
<text text-anchor="middle" x="136.5" y="-225" font-family="Helvetica,sans-Serif" font-size="10.00">std::list&lt; ASTNode * &gt;</text>
</g>
<!-- Node2&#45;&gt;Node6 -->
<g id="edge8" class="edge"><title>Node2&#45;&gt;Node6</title>
<path fill="none" stroke="#9a32cd" stroke-dasharray="5,2" d="M68.8289,-283.975C86.1826,-269.749 111.638,-248.881 125.868,-237.215"/>
<polygon fill="#9a32cd" stroke="#9a32cd" points="66.56,-281.309 61.0453,-290.355 70.9978,-286.722 66.56,-281.309"/>
<text text-anchor="middle" x="118" y="-264" font-family="Helvetica,sans-Serif" font-size="10.00"> elements</text>
</g>
<!-- Node3 -->
<g id="node3" class="node"><title>Node3</title>
<g id="a_node3"><a xlink:href="structelftosb_1_1token__loc__t.html" target="_top" xlink:title="Token location in the source file. ">
<polygon fill="white" stroke="black" points="0,-357.5 0,-376.5 101,-376.5 101,-357.5 0,-357.5"/>
<text text-anchor="middle" x="50.5" y="-364.5" font-family="Helvetica,sans-Serif" font-size="10.00">elftosb::token_loc_t</text>
</a>
</g>
</g>
<!-- Node3&#45;&gt;Node2 -->
<g id="edge2" class="edge"><title>Node3&#45;&gt;Node2</title>
<path fill="none" stroke="#9a32cd" stroke-dasharray="5,2" d="M50.5,-347.037C50.5,-334.67 50.5,-319.12 50.5,-309.627"/>
<polygon fill="#9a32cd" stroke="#9a32cd" points="47.0001,-347.234 50.5,-357.234 54.0001,-347.234 47.0001,-347.234"/>
<text text-anchor="middle" x="76" y="-331" font-family="Helvetica,sans-Serif" font-size="10.00"> m_location</text>
</g>
<!-- Node4 -->
<g id="node4" class="node"><title>Node4</title>
<g id="a_node4"><a xlink:href="group__smart__pointer.html" target="_top" xlink:title="smart_ptr\&lt; elftosb\l::ListASTNode \&gt;">
<polygon fill="white" stroke="black" points="67,-67.5 67,-97.5 162,-97.5 162,-67.5 67,-67.5"/>
<text text-anchor="start" x="75" y="-85.5" font-family="Helvetica,sans-Serif" font-size="10.00">smart_ptr&lt; elftosb</text>
<text text-anchor="middle" x="114.5" y="-74.5" font-family="Helvetica,sans-Serif" font-size="10.00">::ListASTNode &gt;</text>
</a>
</g>
</g>
<!-- Node4&#45;&gt;Node1 -->
<g id="edge4" class="edge"><title>Node4&#45;&gt;Node1</title>
<path fill="none" stroke="#9a32cd" stroke-dasharray="5,2" d="M114.5,-57.0913C114.5,-44.2136 114.5,-29.1974 114.5,-19.8932"/>
<polygon fill="#9a32cd" stroke="#9a32cd" points="111,-57.2332 114.5,-67.2333 118,-57.2333 111,-57.2332"/>
<text text-anchor="middle" x="143.5" y="-41" font-family="Helvetica,sans-Serif" font-size="10.00"> m_attributes</text>
</g>
<!-- Node5&#45;&gt;Node4 -->
<g id="edge5" class="edge"><title>Node5&#45;&gt;Node4</title>
<path fill="none" stroke="#9a32cd" stroke-dasharray="5,2" d="M114.5,-135.236C114.5,-123.408 114.5,-108.383 114.5,-97.5762"/>
<polygon fill="#9a32cd" stroke="#9a32cd" points="111,-135.355 114.5,-145.355 118,-135.355 111,-135.355"/>
<text text-anchor="middle" x="121.5" y="-119" font-family="Helvetica,sans-Serif" font-size="10.00"> _p</text>
</g>
<!-- Node6&#45;&gt;Node5 -->
<g id="edge7" class="edge"><title>Node6&#45;&gt;Node5</title>
<path fill="none" stroke="#9a32cd" stroke-dasharray="5,2" d="M130.812,-208.271C126.44,-194.262 120.595,-175.532 117.22,-164.715"/>
<polygon fill="#9a32cd" stroke="#9a32cd" points="127.482,-209.352 133.802,-217.855 134.165,-207.267 127.482,-209.352"/>
<text text-anchor="middle" x="141.5" y="-186" font-family="Helvetica,sans-Serif" font-size="10.00"> m_list</text>
</g>
<!-- Node7 -->
<g id="node7" class="node"><title>Node7</title>
<g id="a_node7"><a xlink:href="group__smart__pointer.html" target="_top" xlink:title="smart_ptr\&lt; std::string \&gt;">
<polygon fill="white" stroke="black" points="185,-73 185,-92 304,-92 304,-73 185,-73"/>
<text text-anchor="middle" x="244.5" y="-80" font-family="Helvetica,sans-Serif" font-size="10.00">smart_ptr&lt; std::string &gt;</text>
</a>
</g>
</g>
<!-- Node7&#45;&gt;Node1 -->
<g id="edge9" class="edge"><title>Node7&#45;&gt;Node1</title>
<path fill="none" stroke="#9a32cd" stroke-dasharray="5,2" d="M223.956,-67.1482C210.725,-58.2121 192.978,-46.7871 176.5,-38 163.551,-31.0946 148.465,-24.4954 136.417,-19.5498"/>
<polygon fill="#9a32cd" stroke="#9a32cd" points="222.094,-70.115 232.323,-72.8741 226.047,-64.3381 222.094,-70.115"/>
<text text-anchor="middle" x="215" y="-41" font-family="Helvetica,sans-Serif" font-size="10.00"> m_name</text>
</g>
<!-- Node8 -->
<g id="node8" class="node"><title>Node8</title>
<g id="a_node8"><a xlink:title="STL class. ">
<polygon fill="white" stroke="#bfbfbf" points="227.5,-145.5 227.5,-164.5 287.5,-164.5 287.5,-145.5 227.5,-145.5"/>
<text text-anchor="middle" x="257.5" y="-152.5" font-family="Helvetica,sans-Serif" font-size="10.00">std::string</text>
</a>
</g>
</g>
<!-- Node8&#45;&gt;Node7 -->
<g id="edge10" class="edge"><title>Node8&#45;&gt;Node7</title>
<path fill="none" stroke="#9a32cd" stroke-dasharray="5,2" d="M254.062,-135.358C251.488,-121.395 248.082,-102.926 246.107,-92.2154"/>
<polygon fill="#9a32cd" stroke="#9a32cd" points="250.65,-136.156 255.906,-145.355 257.534,-134.886 250.65,-136.156"/>
<text text-anchor="middle" x="259.5" y="-119" font-family="Helvetica,sans-Serif" font-size="10.00"> _p</text>
</g>
<!-- Node9 -->
<g id="node9" class="node"><title>Node9</title>
<g id="a_node9"><a xlink:title="STL class. ">
<polygon fill="white" stroke="#bfbfbf" points="212,-212.5 212,-242.5 307,-242.5 307,-212.5 212,-212.5"/>
<text text-anchor="start" x="220" y="-230.5" font-family="Helvetica,sans-Serif" font-size="10.00">std::basic_string&lt;</text>
<text text-anchor="middle" x="259.5" y="-219.5" font-family="Helvetica,sans-Serif" font-size="10.00"> char &gt;</text>
</a>
</g>
</g>
<!-- Node9&#45;&gt;Node8 -->
<g id="edge11" class="edge"><title>Node9&#45;&gt;Node8</title>
<path fill="none" stroke="midnightblue" d="M258.808,-202.091C258.442,-189.214 258.016,-174.197 257.752,-164.893"/>
<polygon fill="midnightblue" stroke="midnightblue" points="255.313,-202.337 259.095,-212.233 262.31,-202.138 255.313,-202.337"/>
</g>
</g>
</svg>
