<?xml version="1.0" encoding="UTF-8" standalone="no"?>
<!DOCTYPE svg PUBLIC "-//W3C//DTD SVG 1.1//EN"
 "http://www.w3.org/Graphics/SVG/1.1/DTD/svg11.dtd">
<!-- Generated by graphviz version 2.38.0 (20140413.2041)
 -->
<!-- Title: elftosb::ConstASTNode Pages: 1 -->
<svg width="441pt" height="180pt"
 viewBox="0.00 0.00 441.00 180.00" xmlns="http://www.w3.org/2000/svg" xmlns:xlink="http://www.w3.org/1999/xlink">
<g id="graph0" class="graph" transform="scale(1 1) rotate(0) translate(4 176)">
<title>elftosb::ConstASTNode</title>
<polygon fill="white" stroke="none" points="-4,4 -4,-176 437,-176 437,4 -4,4"/>
<!-- Node1 -->
<g id="node1" class="node"><title>Node1</title>
<polygon fill="#bfbfbf" stroke="black" points="128,-76.5 128,-95.5 246,-95.5 246,-76.5 128,-76.5"/>
<text text-anchor="middle" x="187" y="-83.5" font-family="Helvetica,sans-Serif" font-size="10.00">elftosb::ConstASTNode</text>
</g>
<!-- Node3 -->
<g id="node3" class="node"><title>Node3</title>
<g id="a_node3"><a xlink:href="classelftosb_1_1_blob_const_a_s_t_node.html" target="_top" xlink:title="elftosb::BlobConstASTNode">
<polygon fill="white" stroke="black" points="289,-152.5 289,-171.5 426,-171.5 426,-152.5 289,-152.5"/>
<text text-anchor="middle" x="357.5" y="-159.5" font-family="Helvetica,sans-Serif" font-size="10.00">elftosb::BlobConstASTNode</text>
</a>
</g>
</g>
<!-- Node1&#45;&gt;Node3 -->
<g id="edge2" class="edge"><title>Node1&#45;&gt;Node3</title>
<path fill="none" stroke="midnightblue" d="M209.281,-101.427C227.723,-114.163 255.534,-131.891 282,-143 290.862,-146.72 300.632,-149.85 310.098,-152.428"/>
<polygon fill="midnightblue" stroke="midnightblue" points="211.221,-98.5122 201.027,-95.6259 207.196,-104.239 211.221,-98.5122"/>
</g>
<!-- Node4 -->
<g id="node4" class="node"><title>Node4</title>
<g id="a_node4"><a xlink:href="classelftosb_1_1_expr_const_a_s_t_node.html" target="_top" xlink:title="elftosb::ExprConstASTNode">
<polygon fill="white" stroke="black" points="288.5,-114.5 288.5,-133.5 426.5,-133.5 426.5,-114.5 288.5,-114.5"/>
<text text-anchor="middle" x="357.5" y="-121.5" font-family="Helvetica,sans-Serif" font-size="10.00">elftosb::ExprConstASTNode</text>
</a>
</g>
</g>
<!-- Node1&#45;&gt;Node4 -->
<g id="edge3" class="edge"><title>Node1&#45;&gt;Node4</title>
<path fill="none" stroke="midnightblue" d="M240.431,-97.8243C264.187,-103.182 291.899,-109.431 314.286,-114.48"/>
<polygon fill="midnightblue" stroke="midnightblue" points="241.045,-94.3748 230.52,-95.589 239.505,-101.203 241.045,-94.3748"/>
</g>
<!-- Node5 -->
<g id="node5" class="node"><title>Node5</title>
<g id="a_node5"><a xlink:href="classelftosb_1_1_i_v_t_const_a_s_t_node.html" target="_top" xlink:title="Node for a constant IVT structure as used by HAB4. ">
<polygon fill="white" stroke="black" points="291.5,-76.5 291.5,-95.5 423.5,-95.5 423.5,-76.5 291.5,-76.5"/>
<text text-anchor="middle" x="357.5" y="-83.5" font-family="Helvetica,sans-Serif" font-size="10.00">elftosb::IVTConstASTNode</text>
</a>
</g>
</g>
<!-- Node1&#45;&gt;Node5 -->
<g id="edge4" class="edge"><title>Node1&#45;&gt;Node5</title>
<path fill="none" stroke="midnightblue" d="M256.779,-86C268.161,-86 279.933,-86 291.225,-86"/>
<polygon fill="midnightblue" stroke="midnightblue" points="256.46,-82.5001 246.46,-86 256.46,-89.5001 256.46,-82.5001"/>
</g>
<!-- Node6 -->
<g id="node6" class="node"><title>Node6</title>
<g id="a_node6"><a xlink:href="classelftosb_1_1_keyblob_entry_a_s_t_node.html" target="_top" xlink:title="Node for a keyblob entry. ">
<polygon fill="white" stroke="black" points="282,-38.5 282,-57.5 433,-57.5 433,-38.5 282,-38.5"/>
<text text-anchor="middle" x="357.5" y="-45.5" font-family="Helvetica,sans-Serif" font-size="10.00">elftosb::KeyblobEntryASTNode</text>
</a>
</g>
</g>
<!-- Node1&#45;&gt;Node6 -->
<g id="edge5" class="edge"><title>Node1&#45;&gt;Node6</title>
<path fill="none" stroke="midnightblue" d="M240.431,-74.1757C264.187,-68.8184 291.899,-62.5689 314.286,-57.5201"/>
<polygon fill="midnightblue" stroke="midnightblue" points="239.505,-70.7967 230.52,-76.411 241.045,-77.6252 239.505,-70.7967"/>
</g>
<!-- Node7 -->
<g id="node7" class="node"><title>Node7</title>
<g id="a_node7"><a xlink:href="classelftosb_1_1_string_const_a_s_t_node.html" target="_top" xlink:title="elftosb::StringConstASTNode">
<polygon fill="white" stroke="black" points="286,-0.5 286,-19.5 429,-19.5 429,-0.5 286,-0.5"/>
<text text-anchor="middle" x="357.5" y="-7.5" font-family="Helvetica,sans-Serif" font-size="10.00">elftosb::StringConstASTNode</text>
</a>
</g>
</g>
<!-- Node1&#45;&gt;Node7 -->
<g id="edge6" class="edge"><title>Node1&#45;&gt;Node7</title>
<path fill="none" stroke="midnightblue" d="M209.281,-70.5735C227.723,-57.8369 255.534,-40.1087 282,-29 290.862,-25.2804 300.632,-22.1502 310.098,-19.572"/>
<polygon fill="midnightblue" stroke="midnightblue" points="207.196,-67.7606 201.027,-76.3741 211.221,-73.4878 207.196,-67.7606"/>
</g>
<!-- Node2 -->
<g id="node2" class="node"><title>Node2</title>
<g id="a_node2"><a xlink:href="classelftosb_1_1_a_s_t_node.html" target="_top" xlink:title="The base class for all AST node classes. ">
<polygon fill="white" stroke="black" points="0,-76.5 0,-95.5 92,-95.5 92,-76.5 0,-76.5"/>
<text text-anchor="middle" x="46" y="-83.5" font-family="Helvetica,sans-Serif" font-size="10.00">elftosb::ASTNode</text>
</a>
</g>
</g>
<!-- Node2&#45;&gt;Node1 -->
<g id="edge1" class="edge"><title>Node2&#45;&gt;Node1</title>
<path fill="none" stroke="midnightblue" d="M102.245,-86C110.686,-86 119.42,-86 127.92,-86"/>
<polygon fill="midnightblue" stroke="midnightblue" points="102.129,-82.5001 92.1293,-86 102.129,-89.5001 102.129,-82.5001"/>
</g>
</g>
</svg>
