<?xml version="1.0" encoding="UTF-8" standalone="no"?>
<!DOCTYPE svg PUBLIC "-//W3C//DTD SVG 1.1//EN"
 "http://www.w3.org/Graphics/SVG/1.1/DTD/svg11.dtd">
<!-- Generated by graphviz version 2.38.0 (20140413.2041)
 -->
<!-- Title: elftosb::SRecordSourceFile Pages: 1 -->
<svg width="1396pt" height="324pt"
 viewBox="0.00 0.00 1396.00 324.00" xmlns="http://www.w3.org/2000/svg" xmlns:xlink="http://www.w3.org/1999/xlink">
<g id="graph0" class="graph" transform="scale(1 1) rotate(0) translate(4 320)">
<title>elftosb::SRecordSourceFile</title>
<polygon fill="white" stroke="none" points="-4,4 -4,-320 1392,-320 1392,4 -4,4"/>
<!-- Node1 -->
<g id="node1" class="node"><title>Node1</title>
<polygon fill="#bfbfbf" stroke="black" points="1253,-101.5 1253,-120.5 1388,-120.5 1388,-101.5 1253,-101.5"/>
<text text-anchor="middle" x="1320.5" y="-108.5" font-family="Helvetica,sans-Serif" font-size="10.00">elftosb::SRecordSourceFile</text>
</g>
<!-- Node2 -->
<g id="node2" class="node"><title>Node2</title>
<g id="a_node2"><a xlink:href="classelftosb_1_1_source_file.html" target="_top" xlink:title="Abstract base class for a source file containing executable code. ">
<polygon fill="white" stroke="black" points="1074.5,-226.5 1074.5,-245.5 1172.5,-245.5 1172.5,-226.5 1074.5,-226.5"/>
<text text-anchor="middle" x="1123.5" y="-233.5" font-family="Helvetica,sans-Serif" font-size="10.00">elftosb::SourceFile</text>
</a>
</g>
</g>
<!-- Node2&#45;&gt;Node1 -->
<g id="edge1" class="edge"><title>Node2&#45;&gt;Node1</title>
<path fill="none" stroke="midnightblue" d="M1147.93,-220.983C1188.48,-194.984 1270.68,-142.297 1304.47,-120.634"/>
<polygon fill="midnightblue" stroke="midnightblue" points="1146.01,-218.056 1139.48,-226.399 1149.79,-223.949 1146.01,-218.056"/>
</g>
<!-- Node3 -->
<g id="node3" class="node"><title>Node3</title>
<g id="a_node3"><a xlink:href="group__smart__pointer.html" target="_top" xlink:title="smart_ptr\&lt; elftosb\l::OptionContext \&gt;">
<polygon fill="white" stroke="black" points="852.5,-247 852.5,-277 947.5,-277 947.5,-247 852.5,-247"/>
<text text-anchor="start" x="860.5" y="-265" font-family="Helvetica,sans-Serif" font-size="10.00">smart_ptr&lt; elftosb</text>
<text text-anchor="middle" x="900" y="-254" font-family="Helvetica,sans-Serif" font-size="10.00">::OptionContext &gt;</text>
</a>
</g>
</g>
<!-- Node3&#45;&gt;Node2 -->
<g id="edge2" class="edge"><title>Node3&#45;&gt;Node2</title>
<path fill="none" stroke="#9a32cd" stroke-dasharray="5,2" d="M958.062,-255.302C994.098,-251.072 1040.14,-245.668 1074.33,-241.654"/>
<polygon fill="#9a32cd" stroke="#9a32cd" points="957.228,-251.876 947.704,-256.518 958.044,-258.828 957.228,-251.876"/>
<text text-anchor="middle" x="1020" y="-256" font-family="Helvetica,sans-Serif" font-size="10.00"> m_options</text>
</g>
<!-- Node4 -->
<g id="node4" class="node"><title>Node4</title>
<g id="a_node4"><a xlink:href="classelftosb_1_1_option_context.html" target="_top" xlink:title="Pure abstract interface class to a table of options. ">
<polygon fill="white" stroke="black" points="636,-253.5 636,-272.5 749,-272.5 749,-253.5 636,-253.5"/>
<text text-anchor="middle" x="692.5" y="-260.5" font-family="Helvetica,sans-Serif" font-size="10.00">elftosb::OptionContext</text>
</a>
</g>
</g>
<!-- Node4&#45;&gt;Node3 -->
<g id="edge3" class="edge"><title>Node4&#45;&gt;Node3</title>
<path fill="none" stroke="#9a32cd" stroke-dasharray="5,2" d="M759.19,-262.68C789.526,-262.533 824.839,-262.361 852.385,-262.227"/>
<polygon fill="#9a32cd" stroke="#9a32cd" points="759.094,-259.181 749.111,-262.729 759.128,-266.181 759.094,-259.181"/>
<text text-anchor="middle" x="793.5" y="-266" font-family="Helvetica,sans-Serif" font-size="10.00"> _p</text>
</g>
<!-- Node5 -->
<g id="node5" class="node"><title>Node5</title>
<g id="a_node5"><a xlink:title="STL class. ">
<polygon fill="white" stroke="#bfbfbf" points="870,-114.5 870,-133.5 930,-133.5 930,-114.5 870,-114.5"/>
<text text-anchor="middle" x="900" y="-121.5" font-family="Helvetica,sans-Serif" font-size="10.00">std::string</text>
</a>
</g>
</g>
<!-- Node5&#45;&gt;Node2 -->
<g id="edge4" class="edge"><title>Node5&#45;&gt;Node2</title>
<path fill="none" stroke="#9a32cd" stroke-dasharray="5,2" d="M940.32,-129.792C979.324,-136.045 1035.95,-146.646 1055,-158 1084.08,-175.325 1107.01,-209.583 1117.02,-226.329"/>
<polygon fill="#9a32cd" stroke="#9a32cd" points="940.747,-126.316 930.325,-128.222 939.661,-133.231 940.747,-126.316"/>
<text text-anchor="middle" x="1020" y="-161" font-family="Helvetica,sans-Serif" font-size="10.00"> m_path</text>
</g>
<!-- Node13 -->
<g id="node13" class="node"><title>Node13</title>
<g id="a_node13"><a xlink:href="class_st_executable_image.html" target="_top" xlink:title="Used to build a representation of memory regions. ">
<polygon fill="white" stroke="black" points="1073,-139.5 1073,-158.5 1174,-158.5 1174,-139.5 1073,-139.5"/>
<text text-anchor="middle" x="1123.5" y="-146.5" font-family="Helvetica,sans-Serif" font-size="10.00">StExecutableImage</text>
</a>
</g>
</g>
<!-- Node5&#45;&gt;Node13 -->
<g id="edge17" class="edge"><title>Node5&#45;&gt;Node13</title>
<path fill="none" stroke="#9a32cd" stroke-dasharray="5,2" d="M940.27,-121.131C971.577,-119.653 1016.41,-119.349 1055,-126 1070.49,-128.671 1087.23,-134.352 1100.16,-139.4"/>
<polygon fill="#9a32cd" stroke="#9a32cd" points="939.999,-117.64 930.2,-121.669 940.373,-124.63 939.999,-117.64"/>
<text text-anchor="middle" x="1020" y="-129" font-family="Helvetica,sans-Serif" font-size="10.00"> m_name</text>
</g>
<!-- Node18 -->
<g id="node18" class="node"><title>Node18</title>
<g id="a_node18"><a xlink:href="class_st_s_record_file.html" target="_top" xlink:title="S&#45;record parser. ">
<polygon fill="white" stroke="black" points="1083.5,-64.5 1083.5,-83.5 1163.5,-83.5 1163.5,-64.5 1083.5,-64.5"/>
<text text-anchor="middle" x="1123.5" y="-71.5" font-family="Helvetica,sans-Serif" font-size="10.00">StSRecordFile</text>
</a>
</g>
</g>
<!-- Node5&#45;&gt;Node18 -->
<g id="edge24" class="edge"><title>Node5&#45;&gt;Node18</title>
<path fill="none" stroke="#9a32cd" stroke-dasharray="5,2" d="M940.413,-115.103C980.726,-106.003 1042.99,-91.9481 1083.25,-82.8612"/>
<polygon fill="#9a32cd" stroke="#9a32cd" points="939.397,-111.744 930.413,-117.36 940.939,-118.572 939.397,-111.744"/>
<text text-anchor="middle" x="1020" y="-108" font-family="Helvetica,sans-Serif" font-size="10.00"> m_name</text>
</g>
<!-- Node6 -->
<g id="node6" class="node"><title>Node6</title>
<g id="a_node6"><a xlink:title="STL class. ">
<polygon fill="white" stroke="#bfbfbf" points="645,-106 645,-136 740,-136 740,-106 645,-106"/>
<text text-anchor="start" x="653" y="-124" font-family="Helvetica,sans-Serif" font-size="10.00">std::basic_string&lt;</text>
<text text-anchor="middle" x="692.5" y="-113" font-family="Helvetica,sans-Serif" font-size="10.00"> char &gt;</text>
</a>
</g>
</g>
<!-- Node6&#45;&gt;Node5 -->
<g id="edge5" class="edge"><title>Node6&#45;&gt;Node5</title>
<path fill="none" stroke="midnightblue" d="M750.26,-121.829C789.108,-122.396 839.008,-123.124 869.994,-123.577"/>
<polygon fill="midnightblue" stroke="midnightblue" points="750.181,-118.327 740.131,-121.681 750.079,-125.326 750.181,-118.327"/>
</g>
<!-- Node7 -->
<g id="node7" class="node"><title>Node7</title>
<g id="a_node7"><a xlink:href="group__smart__pointer.html" target="_top" xlink:title="smart_ptr\&lt; std::ifstream \&gt;">
<polygon fill="white" stroke="black" points="835,-296.5 835,-315.5 965,-315.5 965,-296.5 835,-296.5"/>
<text text-anchor="middle" x="900" y="-303.5" font-family="Helvetica,sans-Serif" font-size="10.00">smart_ptr&lt; std::ifstream &gt;</text>
</a>
</g>
</g>
<!-- Node7&#45;&gt;Node2 -->
<g id="edge6" class="edge"><title>Node7&#45;&gt;Node2</title>
<path fill="none" stroke="#9a32cd" stroke-dasharray="5,2" d="M960.263,-294.299C989.233,-287.845 1024.37,-278.914 1055,-268 1072.47,-261.775 1091.48,-252.52 1104.87,-245.562"/>
<polygon fill="#9a32cd" stroke="#9a32cd" points="959.313,-290.924 950.291,-296.478 960.807,-297.763 959.313,-290.924"/>
<text text-anchor="middle" x="1020" y="-291" font-family="Helvetica,sans-Serif" font-size="10.00"> m_stream</text>
</g>
<!-- Node8 -->
<g id="node8" class="node"><title>Node8</title>
<g id="a_node8"><a xlink:title="STL class. ">
<polygon fill="white" stroke="#bfbfbf" points="657,-293.5 657,-312.5 728,-312.5 728,-293.5 657,-293.5"/>
<text text-anchor="middle" x="692.5" y="-300.5" font-family="Helvetica,sans-Serif" font-size="10.00">std::ifstream</text>
</a>
</g>
</g>
<!-- Node8&#45;&gt;Node7 -->
<g id="edge7" class="edge"><title>Node8&#45;&gt;Node7</title>
<path fill="none" stroke="#9a32cd" stroke-dasharray="5,2" d="M738.721,-303.66C766.922,-304.072 803.653,-304.608 834.837,-305.063"/>
<polygon fill="#9a32cd" stroke="#9a32cd" points="738.41,-300.155 728.36,-303.509 738.308,-307.155 738.41,-300.155"/>
<text text-anchor="middle" x="793.5" y="-308" font-family="Helvetica,sans-Serif" font-size="10.00"> _p</text>
</g>
<!-- Node9 -->
<g id="node9" class="node"><title>Node9</title>
<g id="a_node9"><a xlink:title="STL class. ">
<polygon fill="white" stroke="#bfbfbf" points="495,-151 495,-181 594,-181 594,-151 495,-151"/>
<text text-anchor="start" x="503" y="-169" font-family="Helvetica,sans-Serif" font-size="10.00">std::basic_ifstream</text>
<text text-anchor="middle" x="544.5" y="-158" font-family="Helvetica,sans-Serif" font-size="10.00">&lt; char &gt;</text>
</a>
</g>
</g>
<!-- Node9&#45;&gt;Node8 -->
<g id="edge8" class="edge"><title>Node9&#45;&gt;Node8</title>
<path fill="none" stroke="midnightblue" d="M557.462,-189.96C571.646,-216.079 597.631,-257.421 631,-282 638.609,-287.605 647.835,-291.803 656.765,-294.91"/>
<polygon fill="midnightblue" stroke="midnightblue" points="560.541,-188.296 552.778,-181.086 554.35,-191.563 560.541,-188.296"/>
</g>
<!-- Node10 -->
<g id="node10" class="node"><title>Node10</title>
<g id="a_node10"><a xlink:title="STL class. ">
<polygon fill="white" stroke="#bfbfbf" points="265,-137 265,-167 362,-167 362,-137 265,-137"/>
<text text-anchor="start" x="273" y="-155" font-family="Helvetica,sans-Serif" font-size="10.00">std::basic_istream</text>
<text text-anchor="middle" x="313.5" y="-144" font-family="Helvetica,sans-Serif" font-size="10.00">&lt; Char &gt;</text>
</a>
</g>
</g>
<!-- Node10&#45;&gt;Node9 -->
<g id="edge9" class="edge"><title>Node10&#45;&gt;Node9</title>
<path fill="none" stroke="midnightblue" d="M372.559,-155.549C410.284,-157.856 458.911,-160.829 494.65,-163.014"/>
<polygon fill="midnightblue" stroke="midnightblue" points="372.422,-152.035 362.227,-154.918 371.995,-159.022 372.422,-152.035"/>
</g>
<!-- Node11 -->
<g id="node11" class="node"><title>Node11</title>
<g id="a_node11"><a xlink:title="STL class. ">
<polygon fill="white" stroke="#bfbfbf" points="112,-113.5 112,-132.5 228,-132.5 228,-113.5 112,-113.5"/>
<text text-anchor="middle" x="170" y="-120.5" font-family="Helvetica,sans-Serif" font-size="10.00">std::basic_ios&lt; Char &gt;</text>
</a>
</g>
</g>
<!-- Node11&#45;&gt;Node10 -->
<g id="edge10" class="edge"><title>Node11&#45;&gt;Node10</title>
<path fill="none" stroke="midnightblue" d="M227.861,-134.653C240.131,-137.168 252.982,-139.802 264.857,-142.236"/>
<polygon fill="midnightblue" stroke="midnightblue" points="228.224,-131.155 217.725,-132.576 226.818,-138.013 228.224,-131.155"/>
</g>
<!-- Node22 -->
<g id="node22" class="node"><title>Node22</title>
<g id="a_node22"><a xlink:title="STL class. ">
<polygon fill="white" stroke="#bfbfbf" points="380,-84 380,-114 477,-114 477,-84 380,-84"/>
<text text-anchor="start" x="388" y="-102" font-family="Helvetica,sans-Serif" font-size="10.00">std::basic_istream</text>
<text text-anchor="middle" x="428.5" y="-91" font-family="Helvetica,sans-Serif" font-size="10.00">&lt; char &gt;</text>
</a>
</g>
</g>
<!-- Node11&#45;&gt;Node22 -->
<g id="edge23" class="edge"><title>Node11&#45;&gt;Node22</title>
<path fill="none" stroke="midnightblue" d="M238.395,-116.694C282.886,-112.531 340.097,-107.178 379.885,-103.455"/>
<polygon fill="midnightblue" stroke="midnightblue" points="237.875,-113.227 228.244,-117.644 238.527,-120.197 237.875,-113.227"/>
</g>
<!-- Node12 -->
<g id="node12" class="node"><title>Node12</title>
<g id="a_node12"><a xlink:title="STL class. ">
<polygon fill="white" stroke="#bfbfbf" points="0,-113.5 0,-132.5 75,-132.5 75,-113.5 0,-113.5"/>
<text text-anchor="middle" x="37.5" y="-120.5" font-family="Helvetica,sans-Serif" font-size="10.00">std::ios_base</text>
</a>
</g>
</g>
<!-- Node12&#45;&gt;Node11 -->
<g id="edge11" class="edge"><title>Node12&#45;&gt;Node11</title>
<path fill="none" stroke="midnightblue" d="M85.3188,-123C93.8367,-123 102.811,-123 111.593,-123"/>
<polygon fill="midnightblue" stroke="midnightblue" points="85.1988,-119.5 75.1988,-123 85.1988,-126.5 85.1988,-119.5"/>
</g>
<!-- Node13&#45;&gt;Node1 -->
<g id="edge12" class="edge"><title>Node13&#45;&gt;Node1</title>
<path fill="none" stroke="#9a32cd" stroke-dasharray="5,2" d="M1183.46,-137.511C1211.28,-132.089 1244.1,-125.694 1270.52,-120.544"/>
<polygon fill="#9a32cd" stroke="#9a32cd" points="1182.6,-134.112 1173.46,-139.46 1183.94,-140.983 1182.6,-134.112"/>
<text text-anchor="middle" x="1213.5" y="-139" font-family="Helvetica,sans-Serif" font-size="10.00"> m_image</text>
</g>
<!-- Node14 -->
<g id="node14" class="node"><title>Node14</title>
<polygon fill="white" stroke="#bfbfbf" points="837.5,-208.5 837.5,-227.5 962.5,-227.5 962.5,-208.5 837.5,-208.5"/>
<text text-anchor="middle" x="900" y="-215.5" font-family="Helvetica,sans-Serif" font-size="10.00">std::list&lt; AddressFilter &gt;</text>
</g>
<!-- Node14&#45;&gt;Node13 -->
<g id="edge13" class="edge"><title>Node14&#45;&gt;Node13</title>
<path fill="none" stroke="#9a32cd" stroke-dasharray="5,2" d="M972.501,-212.661C999.053,-209.068 1029.02,-203.057 1055,-193 1076.39,-184.719 1098.08,-168.99 1110.9,-158.755"/>
<polygon fill="#9a32cd" stroke="#9a32cd" points="971.989,-209.198 962.507,-213.923 972.866,-216.143 971.989,-209.198"/>
<text text-anchor="middle" x="1020" y="-214" font-family="Helvetica,sans-Serif" font-size="10.00"> m_filters</text>
</g>
<!-- Node15 -->
<g id="node15" class="node"><title>Node15</title>
<g id="a_node15"><a xlink:href="struct_st_executable_image_1_1_address_filter.html" target="_top" xlink:title="StExecutableImage::\lAddressFilter">
<polygon fill="white" stroke="black" points="639,-204 639,-234 746,-234 746,-204 639,-204"/>
<text text-anchor="start" x="647" y="-222" font-family="Helvetica,sans-Serif" font-size="10.00">StExecutableImage::</text>
<text text-anchor="middle" x="692.5" y="-211" font-family="Helvetica,sans-Serif" font-size="10.00">AddressFilter</text>
</a>
</g>
</g>
<!-- Node15&#45;&gt;Node14 -->
<g id="edge14" class="edge"><title>Node15&#45;&gt;Node14</title>
<path fill="none" stroke="#9a32cd" stroke-dasharray="5,2" d="M756.186,-218.695C781.953,-218.57 811.705,-218.425 837.362,-218.3"/>
<polygon fill="#9a32cd" stroke="#9a32cd" points="756.137,-215.195 746.155,-218.744 756.171,-222.195 756.137,-215.195"/>
<text text-anchor="middle" x="793.5" y="-222" font-family="Helvetica,sans-Serif" font-size="10.00"> elements</text>
</g>
<!-- Node16 -->
<g id="node16" class="node"><title>Node16</title>
<polygon fill="white" stroke="#bfbfbf" points="834,-166.5 834,-185.5 966,-185.5 966,-166.5 834,-166.5"/>
<text text-anchor="middle" x="900" y="-173.5" font-family="Helvetica,sans-Serif" font-size="10.00">std::list&lt; MemoryRegion &gt;</text>
</g>
<!-- Node16&#45;&gt;Node13 -->
<g id="edge15" class="edge"><title>Node16&#45;&gt;Node13</title>
<path fill="none" stroke="#9a32cd" stroke-dasharray="5,2" d="M976.444,-177.789C1001.59,-177.262 1029.64,-175.451 1055,-171 1069.93,-168.379 1086.1,-163.198 1098.86,-158.522"/>
<polygon fill="#9a32cd" stroke="#9a32cd" points="976.181,-174.292 966.233,-177.937 976.282,-181.292 976.181,-174.292"/>
<text text-anchor="middle" x="1020" y="-181" font-family="Helvetica,sans-Serif" font-size="10.00"> m_image</text>
</g>
<!-- Node17 -->
<g id="node17" class="node"><title>Node17</title>
<g id="a_node17"><a xlink:href="struct_st_executable_image_1_1_memory_region.html" target="_top" xlink:title="StExecutableImage::\lMemoryRegion">
<polygon fill="white" stroke="black" points="639,-155 639,-185 746,-185 746,-155 639,-155"/>
<text text-anchor="start" x="647" y="-173" font-family="Helvetica,sans-Serif" font-size="10.00">StExecutableImage::</text>
<text text-anchor="middle" x="692.5" y="-162" font-family="Helvetica,sans-Serif" font-size="10.00">MemoryRegion</text>
</a>
</g>
</g>
<!-- Node17&#45;&gt;Node16 -->
<g id="edge16" class="edge"><title>Node17&#45;&gt;Node16</title>
<path fill="none" stroke="#9a32cd" stroke-dasharray="5,2" d="M756.449,-171.838C781.031,-172.556 809.208,-173.378 833.986,-174.102"/>
<polygon fill="#9a32cd" stroke="#9a32cd" points="756.252,-168.331 746.155,-171.537 756.048,-175.328 756.252,-168.331"/>
<text text-anchor="middle" x="793.5" y="-177" font-family="Helvetica,sans-Serif" font-size="10.00"> elements</text>
</g>
<!-- Node18&#45;&gt;Node1 -->
<g id="edge18" class="edge"><title>Node18&#45;&gt;Node1</title>
<path fill="none" stroke="#9a32cd" stroke-dasharray="5,2" d="M1173.94,-83.3816C1203.14,-88.9215 1240,-95.916 1269.33,-101.48"/>
<polygon fill="#9a32cd" stroke="#9a32cd" points="1174.44,-79.9131 1163.96,-81.4875 1173.13,-86.7904 1174.44,-79.9131"/>
<text text-anchor="middle" x="1213.5" y="-98" font-family="Helvetica,sans-Serif" font-size="10.00"> m_file</text>
</g>
<!-- Node19 -->
<g id="node19" class="node"><title>Node19</title>
<polygon fill="white" stroke="#bfbfbf" points="833,-17 833,-47 967,-47 967,-17 833,-17"/>
<text text-anchor="start" x="841" y="-35" font-family="Helvetica,sans-Serif" font-size="10.00">std::vector&lt; StSRecordFile</text>
<text text-anchor="middle" x="900" y="-24" font-family="Helvetica,sans-Serif" font-size="10.00">::SRecord &gt;</text>
</g>
<!-- Node19&#45;&gt;Node18 -->
<g id="edge19" class="edge"><title>Node19&#45;&gt;Node18</title>
<path fill="none" stroke="#9a32cd" stroke-dasharray="5,2" d="M977.287,-30.5139C1002.37,-31.5916 1030.18,-34.4897 1055,-41 1074.05,-45.9979 1094.11,-56.5811 1107.36,-64.4218"/>
<polygon fill="#9a32cd" stroke="#9a32cd" points="977.201,-27.0091 967.087,-30.1675 976.963,-34.005 977.201,-27.0091"/>
<text text-anchor="middle" x="1020" y="-44" font-family="Helvetica,sans-Serif" font-size="10.00"> m_records</text>
</g>
<!-- Node20 -->
<g id="node20" class="node"><title>Node20</title>
<g id="a_node20"><a xlink:href="class_st_s_record_file.html#struct_st_s_record_file_1_1_s_record" target="_top" xlink:title="StSRecordFile::SRecord">
<polygon fill="white" stroke="black" points="631,-0.5 631,-19.5 754,-19.5 754,-0.5 631,-0.5"/>
<text text-anchor="middle" x="692.5" y="-7.5" font-family="Helvetica,sans-Serif" font-size="10.00">StSRecordFile::SRecord</text>
</a>
</g>
</g>
<!-- Node20&#45;&gt;Node1 -->
<g id="edge25" class="edge"><title>Node20&#45;&gt;Node1</title>
<path fill="none" stroke="#9a32cd" stroke-dasharray="5,2" d="M764.506,-8.17791C786.463,-7.69384 810.73,-7.23944 833,-7 931.761,-5.93818 958.426,3.69727 1055,-17 1109.29,-28.6346 1121.63,-36.5765 1174,-55 1217.41,-70.2689 1267.33,-89.9536 1295.97,-101.456"/>
<polygon fill="#9a32cd" stroke="#9a32cd" points="764.183,-4.68421 754.265,-8.4094 764.341,-11.6824 764.183,-4.68421"/>
<text text-anchor="middle" x="1020" y="-20" font-family="Helvetica,sans-Serif" font-size="10.00"> m_entryRecord</text>
</g>
<!-- Node20&#45;&gt;Node19 -->
<g id="edge20" class="edge"><title>Node20&#45;&gt;Node19</title>
<path fill="none" stroke="#9a32cd" stroke-dasharray="5,2" d="M764.096,-17.5578C786.352,-19.9404 810.846,-22.5626 832.785,-24.9113"/>
<polygon fill="#9a32cd" stroke="#9a32cd" points="764.361,-14.0662 754.045,-16.4817 763.616,-21.0264 764.361,-14.0662"/>
<text text-anchor="middle" x="793.5" y="-26" font-family="Helvetica,sans-Serif" font-size="10.00"> elements</text>
</g>
<!-- Node21 -->
<g id="node21" class="node"><title>Node21</title>
<g id="a_node21"><a xlink:title="STL class. ">
<polygon fill="white" stroke="#bfbfbf" points="866,-66.5 866,-85.5 934,-85.5 934,-66.5 866,-66.5"/>
<text text-anchor="middle" x="900" y="-73.5" font-family="Helvetica,sans-Serif" font-size="10.00">std::istream</text>
</a>
</g>
</g>
<!-- Node21&#45;&gt;Node18 -->
<g id="edge21" class="edge"><title>Node21&#45;&gt;Node18</title>
<path fill="none" stroke="#9a32cd" stroke-dasharray="5,2" d="M944.336,-64.8893C957.322,-62.0559 971.659,-59.4134 985,-58 1015.94,-54.7224 1024.1,-54.3877 1055,-58 1066.24,-59.3144 1078.33,-61.8208 1089.13,-64.4666"/>
<polygon fill="#9a32cd" stroke="#9a32cd" points="943.231,-61.5513 934.257,-67.1827 944.784,-68.3768 943.231,-61.5513"/>
<text text-anchor="middle" x="1020" y="-61" font-family="Helvetica,sans-Serif" font-size="10.00"> m_stream</text>
</g>
<!-- Node22&#45;&gt;Node21 -->
<g id="edge22" class="edge"><title>Node22&#45;&gt;Node21</title>
<path fill="none" stroke="midnightblue" d="M487.266,-96.1702C586.663,-91.3009 786.965,-81.4884 865.924,-77.6204"/>
<polygon fill="midnightblue" stroke="midnightblue" points="486.919,-92.6829 477.102,-96.6681 487.261,-99.6745 486.919,-92.6829"/>
</g>
</g>
</svg>
