<?xml version="1.0" encoding="UTF-8" standalone="no"?>
<!DOCTYPE svg PUBLIC "-//W3C//DTD SVG 1.1//EN"
 "http://www.w3.org/Graphics/SVG/1.1/DTD/svg11.dtd">
<!-- Generated by graphviz version 2.38.0 (20140413.2041)
 -->
<!-- Title: elftosb::DataSource::PatternSegment Pages: 1 -->
<svg width="374pt" height="241pt"
 viewBox="0.00 0.00 374.00 241.00" xmlns="http://www.w3.org/2000/svg" xmlns:xlink="http://www.w3.org/1999/xlink">
<g id="graph0" class="graph" transform="scale(1 1) rotate(0) translate(4 237)">
<title>elftosb::DataSource::PatternSegment</title>
<polygon fill="white" stroke="none" points="-4,4 -4,-237 370,-237 370,4 -4,4"/>
<!-- Node1 -->
<g id="node1" class="node"><title>Node1</title>
<polygon fill="#bfbfbf" stroke="black" points="151,-0.5 151,-30.5 253,-30.5 253,-0.5 151,-0.5"/>
<text text-anchor="start" x="159" y="-18.5" font-family="Helvetica,sans-Serif" font-size="10.00">elftosb::DataSource</text>
<text text-anchor="middle" x="202" y="-7.5" font-family="Helvetica,sans-Serif" font-size="10.00">::PatternSegment</text>
</g>
<!-- Node2 -->
<g id="node2" class="node"><title>Node2</title>
<g id="a_node2"><a xlink:href="classelftosb_1_1_data_source_1_1_segment.html" target="_top" xlink:title="Discrete, contiguous part of the source&#39;s data. ">
<polygon fill="white" stroke="black" points="0,-78.5 0,-108.5 102,-108.5 102,-78.5 0,-78.5"/>
<text text-anchor="start" x="8" y="-96.5" font-family="Helvetica,sans-Serif" font-size="10.00">elftosb::DataSource</text>
<text text-anchor="middle" x="51" y="-85.5" font-family="Helvetica,sans-Serif" font-size="10.00">::Segment</text>
</a>
</g>
</g>
<!-- Node2&#45;&gt;Node1 -->
<g id="edge1" class="edge"><title>Node2&#45;&gt;Node1</title>
<path fill="none" stroke="midnightblue" d="M88.0558,-73.8494C114.636,-60.4714 149.886,-42.7295 174.102,-30.5413"/>
<polygon fill="midnightblue" stroke="midnightblue" points="86.4069,-70.7609 79.0481,-78.3831 89.554,-77.0136 86.4069,-70.7609"/>
</g>
<!-- Node3 -->
<g id="node3" class="node"><title>Node3</title>
<g id="a_node3"><a xlink:href="classelftosb_1_1_data_source.html" target="_top" xlink:title="Abstract base class for data sources. ">
<polygon fill="white" stroke="black" points="69,-156.5 69,-175.5 171,-175.5 171,-156.5 69,-156.5"/>
<text text-anchor="middle" x="120" y="-163.5" font-family="Helvetica,sans-Serif" font-size="10.00">elftosb::DataSource</text>
</a>
</g>
</g>
<!-- Node3&#45;&gt;Node2 -->
<g id="edge2" class="edge"><title>Node3&#45;&gt;Node2</title>
<path fill="none" stroke="#9a32cd" stroke-dasharray="5,2" d="M83.0306,-152C76.3358,-148.31 69.9265,-143.698 65,-138 57.9432,-129.838 54.433,-118.071 52.6929,-108.833"/>
<polygon fill="#9a32cd" stroke="#9a32cd" points="81.7014,-155.245 92.2245,-156.476 84.7659,-148.952 81.7014,-155.245"/>
<text text-anchor="middle" x="88" y="-130" font-family="Helvetica,sans-Serif" font-size="10.00"> m_source</text>
</g>
<!-- Node4 -->
<g id="node4" class="node"><title>Node4</title>
<g id="a_node4"><a xlink:href="classelftosb_1_1_data_target.html" target="_top" xlink:title="Abstract base class for the target address or range of data. ">
<polygon fill="white" stroke="black" points="120,-84 120,-103 218,-103 218,-84 120,-84"/>
<text text-anchor="middle" x="169" y="-91" font-family="Helvetica,sans-Serif" font-size="10.00">elftosb::DataTarget</text>
</a>
</g>
</g>
<!-- Node3&#45;&gt;Node4 -->
<g id="edge4" class="edge"><title>Node3&#45;&gt;Node4</title>
<path fill="none" stroke="#9a32cd" stroke-dasharray="5,2" d="M114.44,-146.301C113.548,-139.844 113.794,-132.785 117,-127 123.09,-116.013 134.614,-108.249 145.268,-103.072"/>
<polygon fill="#9a32cd" stroke="#9a32cd" points="111.074,-147.286 116.693,-156.268 117.902,-145.743 111.074,-147.286"/>
<text text-anchor="middle" x="140" y="-130" font-family="Helvetica,sans-Serif" font-size="10.00"> m_source</text>
</g>
<!-- Node4&#45;&gt;Node3 -->
<g id="edge3" class="edge"><title>Node4&#45;&gt;Node3</title>
<path fill="none" stroke="#9a32cd" stroke-dasharray="5,2" d="M171.991,-113.283C172.355,-121.418 171.438,-130.723 167,-138 162.002,-146.195 153.526,-152.146 145.136,-156.34"/>
<polygon fill="#9a32cd" stroke="#9a32cd" points="175.458,-112.785 170.912,-103.215 168.498,-113.531 175.458,-112.785"/>
<text text-anchor="middle" x="193" y="-130" font-family="Helvetica,sans-Serif" font-size="10.00"> m_target</text>
</g>
<!-- Node5 -->
<g id="node5" class="node"><title>Node5</title>
<g id="a_node5"><a xlink:href="classelftosb_1_1_sized_integer_value.html" target="_top" xlink:title="Adds a word size attribute to IntegerValue. ">
<polygon fill="white" stroke="black" points="236,-84 236,-103 366,-103 366,-84 236,-84"/>
<text text-anchor="middle" x="301" y="-91" font-family="Helvetica,sans-Serif" font-size="10.00">elftosb::SizedIntegerValue</text>
</a>
</g>
</g>
<!-- Node5&#45;&gt;Node1 -->
<g id="edge5" class="edge"><title>Node5&#45;&gt;Node1</title>
<path fill="none" stroke="#9a32cd" stroke-dasharray="5,2" d="M281.662,-77.6549C263.878,-64.0022 237.698,-43.9049 220.263,-30.5198"/>
<polygon fill="#9a32cd" stroke="#9a32cd" points="279.58,-80.4687 289.643,-83.7818 283.843,-74.9162 279.58,-80.4687"/>
<text text-anchor="middle" x="281.5" y="-52" font-family="Helvetica,sans-Serif" font-size="10.00"> m_pattern</text>
</g>
<!-- Node6 -->
<g id="node6" class="node"><title>Node6</title>
<g id="a_node6"><a xlink:href="classelftosb_1_1_integer_value.html" target="_top" xlink:title="32&#45;bit signed integer value. ">
<polygon fill="white" stroke="black" points="248.5,-156.5 248.5,-175.5 353.5,-175.5 353.5,-156.5 248.5,-156.5"/>
<text text-anchor="middle" x="301" y="-163.5" font-family="Helvetica,sans-Serif" font-size="10.00">elftosb::IntegerValue</text>
</a>
</g>
</g>
<!-- Node6&#45;&gt;Node5 -->
<g id="edge6" class="edge"><title>Node6&#45;&gt;Node5</title>
<path fill="none" stroke="midnightblue" d="M301,-145.942C301,-132.03 301,-113.82 301,-103.215"/>
<polygon fill="midnightblue" stroke="midnightblue" points="297.5,-146.355 301,-156.355 304.5,-146.355 297.5,-146.355"/>
</g>
<!-- Node7 -->
<g id="node7" class="node"><title>Node7</title>
<g id="a_node7"><a xlink:href="classelftosb_1_1_value.html" target="_top" xlink:title="Abstract base class for values of arbitrary types. ">
<polygon fill="white" stroke="black" points="263,-213.5 263,-232.5 339,-232.5 339,-213.5 263,-213.5"/>
<text text-anchor="middle" x="301" y="-220.5" font-family="Helvetica,sans-Serif" font-size="10.00">elftosb::Value</text>
</a>
</g>
</g>
<!-- Node7&#45;&gt;Node6 -->
<g id="edge7" class="edge"><title>Node7&#45;&gt;Node6</title>
<path fill="none" stroke="midnightblue" d="M301,-203.117C301,-193.817 301,-183.056 301,-175.715"/>
<polygon fill="midnightblue" stroke="midnightblue" points="297.5,-203.406 301,-213.406 304.5,-203.406 297.5,-203.406"/>
</g>
</g>
</svg>
