<?xml version="1.0" encoding="UTF-8" standalone="no"?>
<!DOCTYPE svg PUBLIC "-//W3C//DTD SVG 1.1//EN"
 "http://www.w3.org/Graphics/SVG/1.1/DTD/svg11.dtd">
<!-- Generated by graphviz version 2.38.0 (20140413.2041)
 -->
<!-- Title: blfwk::PatternSource Pages: 1 -->
<svg width="389pt" height="298pt"
 viewBox="0.00 0.00 389.00 298.00" xmlns="http://www.w3.org/2000/svg" xmlns:xlink="http://www.w3.org/1999/xlink">
<g id="graph0" class="graph" transform="scale(1 1) rotate(0) translate(4 294)">
<title>blfwk::PatternSource</title>
<polygon fill="white" stroke="none" points="-4,4 -4,-294 385,-294 385,4 -4,4"/>
<!-- Node1 -->
<g id="node1" class="node"><title>Node1</title>
<polygon fill="#bfbfbf" stroke="black" points="0,-0.5 0,-19.5 107,-19.5 107,-0.5 0,-0.5"/>
<text text-anchor="middle" x="53.5" y="-7.5" font-family="Helvetica,sans-Serif" font-size="10.00">blfwk::PatternSource</text>
</g>
<!-- Node2 -->
<g id="node2" class="node"><title>Node2</title>
<g id="a_node2"><a xlink:href="classblfwk_1_1_data_source.html" target="_top" xlink:title="Abstract base class for data sources. ">
<polygon fill="white" stroke="black" points="26,-213.5 26,-232.5 121,-232.5 121,-213.5 26,-213.5"/>
<text text-anchor="middle" x="73.5" y="-220.5" font-family="Helvetica,sans-Serif" font-size="10.00">blfwk::DataSource</text>
</a>
</g>
</g>
<!-- Node2&#45;&gt;Node1 -->
<g id="edge1" class="edge"><title>Node2&#45;&gt;Node1</title>
<path fill="none" stroke="midnightblue" d="M46.0236,-207.784C40.7194,-204.142 35.5584,-199.859 31.5,-195 22.5578,-184.295 22.2188,-179.681 19.5,-166 8.38452,-110.066 37.4749,-43.2452 49.0182,-19.7144"/>
<polygon fill="midnightblue" stroke="midnightblue" points="44.572,-211.002 54.9159,-213.294 48.2592,-205.052 44.572,-211.002"/>
</g>
<!-- Node3 -->
<g id="node3" class="node"><title>Node3</title>
<g id="a_node3"><a xlink:href="classblfwk_1_1_data_target.html" target="_top" xlink:title="Abstract base class for the target address or range of data. ">
<polygon fill="white" stroke="black" points="28.5,-141 28.5,-160 120.5,-160 120.5,-141 28.5,-141"/>
<text text-anchor="middle" x="74.5" y="-148" font-family="Helvetica,sans-Serif" font-size="10.00">blfwk::DataTarget</text>
</a>
</g>
</g>
<!-- Node2&#45;&gt;Node3 -->
<g id="edge3" class="edge"><title>Node2&#45;&gt;Node3</title>
<path fill="none" stroke="#9a32cd" stroke-dasharray="5,2" d="M46.7865,-207.84C38.3996,-201.377 32.2964,-193.127 36.5,-184 41.1486,-173.907 50.6486,-165.782 58.9864,-160.181"/>
<polygon fill="#9a32cd" stroke="#9a32cd" points="44.9963,-210.853 55.2654,-213.459 48.8632,-205.018 44.9963,-210.853"/>
<text text-anchor="middle" x="59.5" y="-187" font-family="Helvetica,sans-Serif" font-size="10.00"> m_source</text>
</g>
<!-- Node5 -->
<g id="node5" class="node"><title>Node5</title>
<g id="a_node5"><a xlink:href="classblfwk_1_1_data_source_1_1_segment.html" target="_top" xlink:title="Discrete, contiguous part of the source&#39;s data. ">
<polygon fill="white" stroke="black" points="139,-135.5 139,-165.5 240,-165.5 240,-135.5 139,-135.5"/>
<text text-anchor="start" x="147" y="-153.5" font-family="Helvetica,sans-Serif" font-size="10.00">blfwk::DataSource::</text>
<text text-anchor="middle" x="189.5" y="-142.5" font-family="Helvetica,sans-Serif" font-size="10.00">Segment</text>
</a>
</g>
</g>
<!-- Node2&#45;&gt;Node5 -->
<g id="edge6" class="edge"><title>Node2&#45;&gt;Node5</title>
<path fill="none" stroke="#9a32cd" stroke-dasharray="5,2" d="M105.186,-209.426C114.538,-205.27 124.637,-200.332 133.5,-195 147.846,-186.368 162.754,-174.631 173.578,-165.524"/>
<polygon fill="#9a32cd" stroke="#9a32cd" points="103.602,-206.297 95.7927,-213.457 106.363,-212.729 103.602,-206.297"/>
<text text-anchor="middle" x="173.5" y="-187" font-family="Helvetica,sans-Serif" font-size="10.00"> m_source</text>
</g>
<!-- Node3&#45;&gt;Node2 -->
<g id="edge2" class="edge"><title>Node3&#45;&gt;Node2</title>
<path fill="none" stroke="#9a32cd" stroke-dasharray="5,2" d="M83.5308,-169.345C86.4266,-177.176 88.4391,-186.503 86.5,-195 85.0184,-201.492 81.7684,-208.242 78.8888,-213.369"/>
<polygon fill="#9a32cd" stroke="#9a32cd" points="86.6996,-167.856 79.4734,-160.108 80.2907,-170.671 86.6996,-167.856"/>
<text text-anchor="middle" x="108.5" y="-187" font-family="Helvetica,sans-Serif" font-size="10.00"> m_target</text>
</g>
<!-- Node4 -->
<g id="node4" class="node"><title>Node4</title>
<g id="a_node4"><a xlink:href="classblfwk_1_1_data_source_1_1_pattern_segment.html" target="_top" xlink:title="This is a special type of segment containing a repeating pattern. ">
<polygon fill="white" stroke="black" points="139,-57.5 139,-87.5 240,-87.5 240,-57.5 139,-57.5"/>
<text text-anchor="start" x="147" y="-75.5" font-family="Helvetica,sans-Serif" font-size="10.00">blfwk::DataSource::</text>
<text text-anchor="middle" x="189.5" y="-64.5" font-family="Helvetica,sans-Serif" font-size="10.00">PatternSegment</text>
</a>
</g>
</g>
<!-- Node4&#45;&gt;Node1 -->
<g id="edge4" class="edge"><title>Node4&#45;&gt;Node1</title>
<path fill="none" stroke="midnightblue" d="M148.634,-53.3205C123.454,-42.1191 92.336,-28.2763 72.697,-19.5399"/>
<polygon fill="midnightblue" stroke="midnightblue" points="147.398,-56.6013 157.957,-57.468 150.243,-50.2056 147.398,-56.6013"/>
</g>
<!-- Node5&#45;&gt;Node4 -->
<g id="edge5" class="edge"><title>Node5&#45;&gt;Node4</title>
<path fill="none" stroke="midnightblue" d="M189.5,-125.09C189.5,-112.757 189.5,-98.2237 189.5,-87.7309"/>
<polygon fill="midnightblue" stroke="midnightblue" points="186,-125.205 189.5,-135.205 193,-125.205 186,-125.205"/>
</g>
<!-- Node6 -->
<g id="node6" class="node"><title>Node6</title>
<g id="a_node6"><a xlink:href="classblfwk_1_1_sized_integer_value.html" target="_top" xlink:title="Adds a word size attribute to IntegerValue. ">
<polygon fill="white" stroke="black" points="258,-141 258,-160 381,-160 381,-141 258,-141"/>
<text text-anchor="middle" x="319.5" y="-148" font-family="Helvetica,sans-Serif" font-size="10.00">blfwk::SizedIntegerValue</text>
</a>
</g>
</g>
<!-- Node6&#45;&gt;Node4 -->
<g id="edge7" class="edge"><title>Node6&#45;&gt;Node4</title>
<path fill="none" stroke="#9a32cd" stroke-dasharray="5,2" d="M295.96,-135.738C272.639,-122.104 237.097,-101.326 213.587,-87.5815"/>
<polygon fill="#9a32cd" stroke="#9a32cd" points="294.441,-138.904 304.84,-140.93 297.974,-132.861 294.441,-138.904"/>
<text text-anchor="middle" x="286" y="-109" font-family="Helvetica,sans-Serif" font-size="10.00"> m_pattern</text>
</g>
<!-- Node7 -->
<g id="node7" class="node"><title>Node7</title>
<g id="a_node7"><a xlink:href="classblfwk_1_1_integer_value.html" target="_top" xlink:title="32&#45;bit signed integer value. ">
<polygon fill="white" stroke="black" points="270.5,-213.5 270.5,-232.5 368.5,-232.5 368.5,-213.5 270.5,-213.5"/>
<text text-anchor="middle" x="319.5" y="-220.5" font-family="Helvetica,sans-Serif" font-size="10.00">blfwk::IntegerValue</text>
</a>
</g>
</g>
<!-- Node7&#45;&gt;Node6 -->
<g id="edge8" class="edge"><title>Node7&#45;&gt;Node6</title>
<path fill="none" stroke="midnightblue" d="M319.5,-202.942C319.5,-189.03 319.5,-170.82 319.5,-160.215"/>
<polygon fill="midnightblue" stroke="midnightblue" points="316,-203.355 319.5,-213.355 323,-203.355 316,-203.355"/>
</g>
<!-- Node8 -->
<g id="node8" class="node"><title>Node8</title>
<g id="a_node8"><a xlink:href="classblfwk_1_1_value.html" target="_top" xlink:title="Abstract base class for values of arbitrary types. ">
<polygon fill="white" stroke="black" points="285,-270.5 285,-289.5 354,-289.5 354,-270.5 285,-270.5"/>
<text text-anchor="middle" x="319.5" y="-277.5" font-family="Helvetica,sans-Serif" font-size="10.00">blfwk::Value</text>
</a>
</g>
</g>
<!-- Node8&#45;&gt;Node7 -->
<g id="edge9" class="edge"><title>Node8&#45;&gt;Node7</title>
<path fill="none" stroke="midnightblue" d="M319.5,-260.117C319.5,-250.817 319.5,-240.056 319.5,-232.715"/>
<polygon fill="midnightblue" stroke="midnightblue" points="316,-260.406 319.5,-270.406 323,-260.406 316,-260.406"/>
</g>
</g>
</svg>
