<?xml version="1.0" encoding="UTF-8" standalone="no"?>
<!DOCTYPE svg PUBLIC "-//W3C//DTD SVG 1.1//EN"
 "http://www.w3.org/Graphics/SVG/1.1/DTD/svg11.dtd">
<!-- Generated by graphviz version 2.38.0 (20140413.2041)
 -->
<!-- Title: blfwk::Packetizer Pages: 1 -->
<svg width="390pt" height="84pt"
 viewBox="0.00 0.00 390.00 84.00" xmlns="http://www.w3.org/2000/svg" xmlns:xlink="http://www.w3.org/1999/xlink">
<g id="graph0" class="graph" transform="scale(1 1) rotate(0) translate(4 80)">
<title>blfwk::Packetizer</title>
<polygon fill="white" stroke="none" points="-4,4 -4,-80 386,-80 386,4 -4,4"/>
<!-- Node1 -->
<g id="node1" class="node"><title>Node1</title>
<polygon fill="#bfbfbf" stroke="black" points="142.5,-56.5 142.5,-75.5 233.5,-75.5 233.5,-56.5 142.5,-56.5"/>
<text text-anchor="middle" x="188" y="-63.5" font-family="Helvetica,sans-Serif" font-size="10.00">blfwk::Packetizer</text>
</g>
<!-- Node2 -->
<g id="node2" class="node"><title>Node2</title>
<g id="a_node2"><a xlink:href="classblfwk_1_1_serial_packetizer.html" target="_top" xlink:title="Provides source and sink for packets that go over the serial peripherals. ">
<polygon fill="white" stroke="black" points="0,-0.5 0,-19.5 116,-19.5 116,-0.5 0,-0.5"/>
<text text-anchor="middle" x="58" y="-7.5" font-family="Helvetica,sans-Serif" font-size="10.00">blfwk::SerialPacketizer</text>
</a>
</g>
</g>
<!-- Node1&#45;&gt;Node2 -->
<g id="edge1" class="edge"><title>Node1&#45;&gt;Node2</title>
<path fill="none" stroke="midnightblue" d="M157.915,-52.503C133.543,-42.3795 99.86,-28.388 78.5025,-19.5164"/>
<polygon fill="midnightblue" stroke="midnightblue" points="156.823,-55.8397 167.401,-56.4435 159.509,-49.3752 156.823,-55.8397"/>
</g>
<!-- Node3 -->
<g id="node3" class="node"><title>Node3</title>
<g id="a_node3"><a xlink:href="classblfwk_1_1_sim_packetizer.html" target="_top" xlink:title="Provides source and sink for packets in the simulator space. ">
<polygon fill="white" stroke="black" points="134,-0.5 134,-19.5 242,-19.5 242,-0.5 134,-0.5"/>
<text text-anchor="middle" x="188" y="-7.5" font-family="Helvetica,sans-Serif" font-size="10.00">blfwk::SimPacketizer</text>
</a>
</g>
</g>
<!-- Node1&#45;&gt;Node3 -->
<g id="edge2" class="edge"><title>Node1&#45;&gt;Node3</title>
<path fill="none" stroke="midnightblue" d="M188,-45.8045C188,-36.9102 188,-26.7798 188,-19.7511"/>
<polygon fill="midnightblue" stroke="midnightblue" points="184.5,-46.083 188,-56.083 191.5,-46.083 184.5,-46.083"/>
</g>
<!-- Node4 -->
<g id="node4" class="node"><title>Node4</title>
<g id="a_node4"><a xlink:href="classblfwk_1_1_usb_hid_packetizer.html" target="_top" xlink:title="Provides source and sink for packets that go over USB HID class. ">
<polygon fill="white" stroke="black" points="260,-0.5 260,-19.5 382,-19.5 382,-0.5 260,-0.5"/>
<text text-anchor="middle" x="321" y="-7.5" font-family="Helvetica,sans-Serif" font-size="10.00">blfwk::UsbHidPacketizer</text>
</a>
</g>
</g>
<!-- Node1&#45;&gt;Node4 -->
<g id="edge3" class="edge"><title>Node1&#45;&gt;Node4</title>
<path fill="none" stroke="midnightblue" d="M218.448,-52.6377C243.407,-42.504 278.077,-28.4274 300.024,-19.5164"/>
<polygon fill="midnightblue" stroke="midnightblue" points="217.023,-49.4387 209.074,-56.4435 219.656,-55.9245 217.023,-49.4387"/>
</g>
</g>
</svg>
