<?xml version="1.0" encoding="UTF-8" standalone="no"?>
<!DOCTYPE svg PUBLIC "-//W3C//DTD SVG 1.1//EN"
 "http://www.w3.org/Graphics/SVG/1.1/DTD/svg11.dtd">
<!-- Generated by graphviz version 2.38.0 (20140413.2041)
 -->
<!-- Title: elftosb::IVTDataSource Pages: 1 -->
<svg width="300pt" height="163pt"
 viewBox="0.00 0.00 300.00 163.00" xmlns="http://www.w3.org/2000/svg" xmlns:xlink="http://www.w3.org/1999/xlink">
<g id="graph0" class="graph" transform="scale(1 1) rotate(0) translate(4 159)">
<title>elftosb::IVTDataSource</title>
<polygon fill="white" stroke="none" points="-4,4 -4,-159 296,-159 296,4 -4,4"/>
<!-- Node1 -->
<g id="node1" class="node"><title>Node1</title>
<polygon fill="#bfbfbf" stroke="black" points="0,-0.5 0,-19.5 116,-19.5 116,-0.5 0,-0.5"/>
<text text-anchor="middle" x="58" y="-7.5" font-family="Helvetica,sans-Serif" font-size="10.00">elftosb::IVTDataSource</text>
</g>
<!-- Node2 -->
<g id="node2" class="node"><title>Node2</title>
<g id="a_node2"><a xlink:href="classelftosb_1_1_data_source.html" target="_top" xlink:title="Abstract base class for data sources. ">
<polygon fill="white" stroke="black" points="76,-135.5 76,-154.5 178,-154.5 178,-135.5 76,-135.5"/>
<text text-anchor="middle" x="127" y="-142.5" font-family="Helvetica,sans-Serif" font-size="10.00">elftosb::DataSource</text>
</a>
</g>
</g>
<!-- Node2&#45;&gt;Node1 -->
<g id="edge1" class="edge"><title>Node2&#45;&gt;Node1</title>
<path fill="none" stroke="midnightblue" d="M100.536,-129.893C94.7326,-126.139 88.8731,-121.78 84,-117 72.9996,-106.21 70.0708,-102.551 65,-88 56.7838,-64.4235 56.8115,-34.4588 57.441,-19.8347"/>
<polygon fill="midnightblue" stroke="midnightblue" points="99.0876,-133.107 109.459,-135.271 102.701,-127.112 99.0876,-133.107"/>
</g>
<!-- Node3 -->
<g id="node3" class="node"><title>Node3</title>
<g id="a_node3"><a xlink:href="classelftosb_1_1_data_target.html" target="_top" xlink:title="Abstract base class for the target address or range of data. ">
<polygon fill="white" stroke="black" points="74,-63 74,-82 172,-82 172,-63 74,-63"/>
<text text-anchor="middle" x="123" y="-70" font-family="Helvetica,sans-Serif" font-size="10.00">elftosb::DataTarget</text>
</a>
</g>
</g>
<!-- Node2&#45;&gt;Node3 -->
<g id="edge3" class="edge"><title>Node2&#45;&gt;Node3</title>
<path fill="none" stroke="#9a32cd" stroke-dasharray="5,2" d="M100.229,-129.352C96.102,-125.866 92.415,-121.752 90,-117 83.3002,-103.817 97.02,-90.5476 108.761,-82.1924"/>
<polygon fill="#9a32cd" stroke="#9a32cd" points="98.3253,-132.293 108.49,-135.28 102.407,-126.606 98.3253,-132.293"/>
<text text-anchor="middle" x="113" y="-109" font-family="Helvetica,sans-Serif" font-size="10.00"> m_source</text>
</g>
<!-- Node4 -->
<g id="node4" class="node"><title>Node4</title>
<g id="a_node4"><a xlink:href="classelftosb_1_1_data_source_1_1_segment.html" target="_top" xlink:title="Discrete, contiguous part of the source&#39;s data. ">
<polygon fill="white" stroke="black" points="190,-57.5 190,-87.5 292,-87.5 292,-57.5 190,-57.5"/>
<text text-anchor="start" x="198" y="-75.5" font-family="Helvetica,sans-Serif" font-size="10.00">elftosb::DataSource</text>
<text text-anchor="middle" x="241" y="-64.5" font-family="Helvetica,sans-Serif" font-size="10.00">::Segment</text>
</a>
</g>
</g>
<!-- Node2&#45;&gt;Node4 -->
<g id="edge5" class="edge"><title>Node2&#45;&gt;Node4</title>
<path fill="none" stroke="#9a32cd" stroke-dasharray="5,2" d="M158.176,-131.416C167.373,-127.26 177.3,-122.324 186,-117 200.122,-108.358 214.762,-96.6209 225.384,-87.5167"/>
<polygon fill="#9a32cd" stroke="#9a32cd" points="156.703,-128.24 148.938,-135.448 159.503,-134.655 156.703,-128.24"/>
<text text-anchor="middle" x="224" y="-109" font-family="Helvetica,sans-Serif" font-size="10.00"> m_source</text>
</g>
<!-- Node3&#45;&gt;Node2 -->
<g id="edge2" class="edge"><title>Node3&#45;&gt;Node2</title>
<path fill="none" stroke="#9a32cd" stroke-dasharray="5,2" d="M134.059,-90.9133C136.502,-95.6311 138.737,-100.86 140,-106 142.529,-116.292 137.472,-127.759 132.946,-135.377"/>
<polygon fill="#9a32cd" stroke="#9a32cd" points="137.026,-89.0526 128.998,-82.139 130.962,-92.5501 137.026,-89.0526"/>
<text text-anchor="middle" x="161" y="-109" font-family="Helvetica,sans-Serif" font-size="10.00"> m_target</text>
</g>
<!-- Node4&#45;&gt;Node1 -->
<g id="edge4" class="edge"><title>Node4&#45;&gt;Node1</title>
<path fill="none" stroke="midnightblue" d="M188.68,-54.203C154.353,-42.8544 110.956,-28.5072 83.8313,-19.5399"/>
<polygon fill="midnightblue" stroke="midnightblue" points="187.963,-57.6521 198.556,-57.468 190.16,-51.0059 187.963,-57.6521"/>
</g>
</g>
</svg>
