<?xml version="1.0" encoding="UTF-8" standalone="no"?>
<!DOCTYPE svg PUBLIC "-//W3C//DTD SVG 1.1//EN"
 "http://www.w3.org/Graphics/SVG/1.1/DTD/svg11.dtd">
<!-- Generated by graphviz version 2.38.0 (20140413.2041)
 -->
<!-- Title: blfwk::SerialPacketizer Pages: 1 -->
<svg width="212pt" height="152pt"
 viewBox="0.00 0.00 212.00 152.00" xmlns="http://www.w3.org/2000/svg" xmlns:xlink="http://www.w3.org/1999/xlink">
<g id="graph0" class="graph" transform="scale(1 1) rotate(0) translate(4 148)">
<title>blfwk::SerialPacketizer</title>
<polygon fill="white" stroke="none" points="-4,4 -4,-148 208,-148 208,4 -4,4"/>
<!-- Node1 -->
<g id="node1" class="node"><title>Node1</title>
<polygon fill="#bfbfbf" stroke="black" points="41,-0.5 41,-19.5 157,-19.5 157,-0.5 41,-0.5"/>
<text text-anchor="middle" x="99" y="-7.5" font-family="Helvetica,sans-Serif" font-size="10.00">blfwk::SerialPacketizer</text>
</g>
<!-- Node2 -->
<g id="node2" class="node"><title>Node2</title>
<g id="a_node2"><a xlink:href="classblfwk_1_1_packetizer.html" target="_top" xlink:title="Interface class for packetization of commands and data. ">
<polygon fill="white" stroke="black" points="53.5,-57.5 53.5,-76.5 144.5,-76.5 144.5,-57.5 53.5,-57.5"/>
<text text-anchor="middle" x="99" y="-64.5" font-family="Helvetica,sans-Serif" font-size="10.00">blfwk::Packetizer</text>
</a>
</g>
</g>
<!-- Node2&#45;&gt;Node1 -->
<g id="edge1" class="edge"><title>Node2&#45;&gt;Node1</title>
<path fill="none" stroke="midnightblue" d="M99,-47.1166C99,-37.8173 99,-27.0557 99,-19.7149"/>
<polygon fill="midnightblue" stroke="midnightblue" points="95.5001,-47.4062 99,-57.4063 102.5,-47.4063 95.5001,-47.4062"/>
</g>
<!-- Node3 -->
<g id="node3" class="node"><title>Node3</title>
<g id="a_node3"><a xlink:href="classblfwk_1_1_peripheral.html" target="_top" xlink:title="Represents a peripheral. ">
<polygon fill="white" stroke="black" points="0,-124.5 0,-143.5 88,-143.5 88,-124.5 0,-124.5"/>
<text text-anchor="middle" x="44" y="-131.5" font-family="Helvetica,sans-Serif" font-size="10.00">blfwk::Peripheral</text>
</a>
</g>
</g>
<!-- Node3&#45;&gt;Node2 -->
<g id="edge2" class="edge"><title>Node3&#45;&gt;Node2</title>
<path fill="none" stroke="#9a32cd" stroke-dasharray="5,2" d="M56.8824,-116.1C62.0841,-109.431 68.2153,-101.763 74,-95 79.3153,-88.7862 85.5653,-82.0362 90.4865,-76.8396"/>
<polygon fill="#9a32cd" stroke="#9a32cd" points="53.821,-114.338 50.4852,-124.394 59.3639,-118.613 53.821,-114.338"/>
<text text-anchor="middle" x="103.5" y="-98" font-family="Helvetica,sans-Serif" font-size="10.00"> m_peripheral</text>
</g>
<!-- Node4 -->
<g id="node4" class="node"><title>Node4</title>
<g id="a_node4"><a xlink:href="group__qspi__driver.html#unionstandard__version__t" target="_top" xlink:title="standard_version_t">
<polygon fill="white" stroke="black" points="106,-124.5 106,-143.5 204,-143.5 204,-124.5 106,-124.5"/>
<text text-anchor="middle" x="155" y="-131.5" font-family="Helvetica,sans-Serif" font-size="10.00">standard_version_t</text>
</a>
</g>
</g>
<!-- Node4&#45;&gt;Node2 -->
<g id="edge3" class="edge"><title>Node4&#45;&gt;Node2</title>
<path fill="none" stroke="#9a32cd" stroke-dasharray="5,2" d="M146.507,-115.222C142.855,-108.513 138.222,-101.048 133,-95 126.99,-88.0395 118.987,-81.5813 112.255,-76.7273"/>
<polygon fill="#9a32cd" stroke="#9a32cd" points="143.451,-116.934 151.109,-124.255 149.689,-113.756 143.451,-116.934"/>
<text text-anchor="middle" x="163.5" y="-98" font-family="Helvetica,sans-Serif" font-size="10.00"> m_version</text>
</g>
</g>
</svg>
