<?xml version="1.0" encoding="UTF-8" standalone="no"?>
<!DOCTYPE svg PUBLIC "-//W3C//DTD SVG 1.1//EN"
 "http://www.w3.org/Graphics/SVG/1.1/DTD/svg11.dtd">
<!-- Generated by graphviz version 2.38.0 (20140413.2041)
 -->
<!-- Title: AESCounter&lt; S &gt; Pages: 1 -->
<svg width="149pt" height="95pt"
 viewBox="0.00 0.00 149.00 95.00" xmlns="http://www.w3.org/2000/svg" xmlns:xlink="http://www.w3.org/1999/xlink">
<g id="graph0" class="graph" transform="scale(1 1) rotate(0) translate(4 91)">
<title>AESCounter&lt; S &gt;</title>
<polygon fill="white" stroke="none" points="-4,4 -4,-91 145,-91 145,4 -4,4"/>
<!-- Node1 -->
<g id="node1" class="node"><title>Node1</title>
<polygon fill="#bfbfbf" stroke="black" points="0,-0.5 0,-19.5 95,-19.5 95,-0.5 0,-0.5"/>
<text text-anchor="middle" x="47.5" y="-7.5" font-family="Helvetica,sans-Serif" font-size="10.00">AESCounter&lt; S &gt;</text>
</g>
<!-- Node2 -->
<g id="node2" class="node"><title>Node2</title>
<g id="a_node2"><a xlink:href="class_a_e_s_counter_base.html" target="_top" xlink:title="Base class for AESCounter&lt;S&gt;. ">
<polygon fill="white" stroke="black" points="1,-67.5 1,-86.5 94,-86.5 94,-67.5 1,-67.5"/>
<text text-anchor="middle" x="47.5" y="-74.5" font-family="Helvetica,sans-Serif" font-size="10.00">AESCounterBase</text>
</a>
</g>
</g>
<!-- Node2&#45;&gt;Node1 -->
<g id="edge1" class="edge"><title>Node2&#45;&gt;Node1</title>
<path fill="none" stroke="midnightblue" d="M41.2999,-57.037C40.2357,-44.6703 40.7161,-29.1198 42.7409,-19.6273"/>
<polygon fill="midnightblue" stroke="midnightblue" points="37.8732,-57.8082 42.7115,-67.2338 44.8071,-56.8483 37.8732,-57.8082"/>
</g>
<!-- Node2&#45;&gt;Node1 -->
<g id="edge2" class="edge"><title>Node2&#45;&gt;Node1</title>
<path fill="none" stroke="midnightblue" d="M53.7001,-57.037C54.7643,-44.6703 54.2839,-29.1198 52.2591,-19.6273"/>
<polygon fill="midnightblue" stroke="midnightblue" points="50.1929,-56.8483 52.2885,-67.2338 57.1268,-57.8082 50.1929,-56.8483"/>
</g>
<!-- Node3 -->
<g id="node3" class="node"><title>Node3</title>
<polygon fill="white" stroke="#bfbfbf" points="112,-67.5 112,-86.5 141,-86.5 141,-67.5 112,-67.5"/>
<text text-anchor="middle" x="126.5" y="-74.5" font-family="Helvetica,sans-Serif" font-size="10.00">S</text>
</g>
<!-- Node3&#45;&gt;Node1 -->
<g id="edge3" class="edge"><title>Node3&#45;&gt;Node1</title>
<path fill="none" stroke="#9a32cd" stroke-dasharray="5,2" d="M107.921,-60.7134C92.3562,-47.907 70.6997,-30.0884 57.9855,-19.6273"/>
<polygon fill="#9a32cd" stroke="#9a32cd" points="105.9,-63.5829 115.846,-67.2338 110.347,-58.1774 105.9,-63.5829"/>
<text text-anchor="middle" x="116" y="-41" font-family="Helvetica,sans-Serif" font-size="10.00"> m_counter</text>
</g>
</g>
</svg>
