<?xml version="1.0" encoding="UTF-8" standalone="no"?>
<!DOCTYPE svg PUBLIC "-//W3C//DTD SVG 1.1//EN"
 "http://www.w3.org/Graphics/SVG/1.1/DTD/svg11.dtd">
<!-- Generated by graphviz version 2.38.0 (20140413.2041)
 -->
<!-- Title: elftosb::BinaryOpExprASTNode Pages: 1 -->
<svg width="182pt" height="308pt"
 viewBox="0.00 0.00 181.50 308.00" xmlns="http://www.w3.org/2000/svg" xmlns:xlink="http://www.w3.org/1999/xlink">
<g id="graph0" class="graph" transform="scale(1 1) rotate(0) translate(4 304)">
<title>elftosb::BinaryOpExprASTNode</title>
<polygon fill="white" stroke="none" points="-4,4 -4,-304 177.5,-304 177.5,4 -4,4"/>
<!-- Node1 -->
<g id="node1" class="node"><title>Node1</title>
<polygon fill="#bfbfbf" stroke="black" points="0,-0.5 0,-19.5 153,-19.5 153,-0.5 0,-0.5"/>
<text text-anchor="middle" x="76.5" y="-7.5" font-family="Helvetica,sans-Serif" font-size="10.00">elftosb::BinaryOpExprASTNode</text>
</g>
<!-- Node2 -->
<g id="node2" class="node"><title>Node2</title>
<g id="a_node2"><a xlink:href="classelftosb_1_1_expr_a_s_t_node.html" target="_top" xlink:title="Abstract base class for all expression AST nodes. ">
<polygon fill="white" stroke="black" points="9,-156.5 9,-175.5 122,-175.5 122,-156.5 9,-156.5"/>
<text text-anchor="middle" x="65.5" y="-163.5" font-family="Helvetica,sans-Serif" font-size="10.00">elftosb::ExprASTNode</text>
</a>
</g>
</g>
<!-- Node2&#45;&gt;Node1 -->
<g id="edge1" class="edge"><title>Node2&#45;&gt;Node1</title>
<path fill="none" stroke="midnightblue" d="M65.69,-146.259C65.9768,-128.622 66.6961,-101.486 68.5,-78 70.1148,-56.9757 73.4139,-32.393 75.2304,-19.6501"/>
<polygon fill="midnightblue" stroke="midnightblue" points="62.1892,-146.297 65.5569,-156.343 69.1886,-146.39 62.1892,-146.297"/>
</g>
<!-- Node5 -->
<g id="node5" class="node"><title>Node5</title>
<g id="a_node5"><a xlink:href="group__smart__pointer.html" target="_top" xlink:title="smart_ptr\&lt; elftosb\l::ExprASTNode \&gt;">
<polygon fill="white" stroke="black" points="78,-78.5 78,-108.5 173,-108.5 173,-78.5 78,-78.5"/>
<text text-anchor="start" x="86" y="-96.5" font-family="Helvetica,sans-Serif" font-size="10.00">smart_ptr&lt; elftosb</text>
<text text-anchor="middle" x="125.5" y="-85.5" font-family="Helvetica,sans-Serif" font-size="10.00">::ExprASTNode &gt;</text>
</a>
</g>
</g>
<!-- Node2&#45;&gt;Node5 -->
<g id="edge6" class="edge"><title>Node2&#45;&gt;Node5</title>
<path fill="none" stroke="#9a32cd" stroke-dasharray="5,2" d="M79.6338,-148.393C89.9402,-136.283 103.754,-120.051 113.52,-108.576"/>
<polygon fill="#9a32cd" stroke="#9a32cd" points="76.673,-146.471 72.8572,-156.355 82.0038,-151.008 76.673,-146.471"/>
<text text-anchor="middle" x="104.5" y="-130" font-family="Helvetica,sans-Serif" font-size="10.00"> _p</text>
</g>
<!-- Node3 -->
<g id="node3" class="node"><title>Node3</title>
<g id="a_node3"><a xlink:href="classelftosb_1_1_a_s_t_node.html" target="_top" xlink:title="The base class for all AST node classes. ">
<polygon fill="white" stroke="black" points="19.5,-213.5 19.5,-232.5 111.5,-232.5 111.5,-213.5 19.5,-213.5"/>
<text text-anchor="middle" x="65.5" y="-220.5" font-family="Helvetica,sans-Serif" font-size="10.00">elftosb::ASTNode</text>
</a>
</g>
</g>
<!-- Node3&#45;&gt;Node2 -->
<g id="edge2" class="edge"><title>Node3&#45;&gt;Node2</title>
<path fill="none" stroke="midnightblue" d="M65.5,-203.117C65.5,-193.817 65.5,-183.056 65.5,-175.715"/>
<polygon fill="midnightblue" stroke="midnightblue" points="62.0001,-203.406 65.5,-213.406 69.0001,-203.406 62.0001,-203.406"/>
</g>
<!-- Node3&#45;&gt;Node3 -->
<g id="edge4" class="edge"><title>Node3&#45;&gt;Node3</title>
<path fill="none" stroke="#9a32cd" stroke-dasharray="5,2" d="M121.774,-227.077C126.534,-226.205 129.5,-224.846 129.5,-223 129.5,-220.047 121.906,-218.34 111.524,-217.878"/>
<polygon fill="#9a32cd" stroke="#9a32cd" points="121.118,-223.626 111.524,-228.122 121.828,-230.59 121.118,-223.626"/>
<text text-anchor="middle" x="151.5" y="-220.5" font-family="Helvetica,sans-Serif" font-size="10.00"> m_parent</text>
</g>
<!-- Node4 -->
<g id="node4" class="node"><title>Node4</title>
<g id="a_node4"><a xlink:href="structelftosb_1_1token__loc__t.html" target="_top" xlink:title="Token location in the source file. ">
<polygon fill="white" stroke="black" points="15,-280.5 15,-299.5 116,-299.5 116,-280.5 15,-280.5"/>
<text text-anchor="middle" x="65.5" y="-287.5" font-family="Helvetica,sans-Serif" font-size="10.00">elftosb::token_loc_t</text>
</a>
</g>
</g>
<!-- Node4&#45;&gt;Node3 -->
<g id="edge3" class="edge"><title>Node4&#45;&gt;Node3</title>
<path fill="none" stroke="#9a32cd" stroke-dasharray="5,2" d="M65.5,-270.037C65.5,-257.67 65.5,-242.12 65.5,-232.627"/>
<polygon fill="#9a32cd" stroke="#9a32cd" points="62.0001,-270.234 65.5,-280.234 69.0001,-270.234 62.0001,-270.234"/>
<text text-anchor="middle" x="91" y="-254" font-family="Helvetica,sans-Serif" font-size="10.00"> m_location</text>
</g>
<!-- Node5&#45;&gt;Node1 -->
<g id="edge5" class="edge"><title>Node5&#45;&gt;Node1</title>
<path fill="none" stroke="#9a32cd" stroke-dasharray="5,2" d="M111.761,-69.6491C101.738,-52.9768 88.7144,-31.3157 81.634,-19.5391"/>
<polygon fill="#9a32cd" stroke="#9a32cd" points="108.813,-71.5369 116.965,-78.3038 114.812,-67.93 108.813,-71.5369"/>
<text text-anchor="middle" x="121" y="-52" font-family="Helvetica,sans-Serif" font-size="10.00"> m_left</text>
<text text-anchor="middle" x="121" y="-41" font-family="Helvetica,sans-Serif" font-size="10.00">m_right</text>
</g>
</g>
</svg>
