<?xml version="1.0" encoding="UTF-8" standalone="no"?>
<!DOCTYPE svg PUBLIC "-//W3C//DTD SVG 1.1//EN"
 "http://www.w3.org/Graphics/SVG/1.1/DTD/svg11.dtd">
<!-- Generated by graphviz version 2.38.0 (20140413.2041)
 -->
<!-- Title: elftosb::SymbolRefExprASTNode Pages: 1 -->
<svg width="309pt" height="308pt"
 viewBox="0.00 0.00 308.50 308.00" xmlns="http://www.w3.org/2000/svg" xmlns:xlink="http://www.w3.org/1999/xlink">
<g id="graph0" class="graph" transform="scale(1 1) rotate(0) translate(4 304)">
<title>elftosb::SymbolRefExprASTNode</title>
<polygon fill="white" stroke="none" points="-4,4 -4,-304 304.5,-304 304.5,4 -4,4"/>
<!-- Node1 -->
<g id="node1" class="node"><title>Node1</title>
<polygon fill="#bfbfbf" stroke="black" points="59.5,-0.5 59.5,-19.5 219.5,-19.5 219.5,-0.5 59.5,-0.5"/>
<text text-anchor="middle" x="139.5" y="-7.5" font-family="Helvetica,sans-Serif" font-size="10.00">elftosb::SymbolRefExprASTNode</text>
</g>
<!-- Node2 -->
<g id="node2" class="node"><title>Node2</title>
<g id="a_node2"><a xlink:href="classelftosb_1_1_expr_a_s_t_node.html" target="_top" xlink:title="Abstract base class for all expression AST nodes. ">
<polygon fill="white" stroke="black" points="143,-67.5 143,-86.5 256,-86.5 256,-67.5 143,-67.5"/>
<text text-anchor="middle" x="199.5" y="-74.5" font-family="Helvetica,sans-Serif" font-size="10.00">elftosb::ExprASTNode</text>
</a>
</g>
</g>
<!-- Node2&#45;&gt;Node1 -->
<g id="edge1" class="edge"><title>Node2&#45;&gt;Node1</title>
<path fill="none" stroke="midnightblue" d="M184.394,-59.6348C172.659,-46.9228 156.852,-29.7978 147.464,-19.6273"/>
<polygon fill="midnightblue" stroke="midnightblue" points="182.053,-62.2597 191.408,-67.2338 187.197,-57.5118 182.053,-62.2597"/>
</g>
<!-- Node3 -->
<g id="node3" class="node"><title>Node3</title>
<g id="a_node3"><a xlink:href="classelftosb_1_1_a_s_t_node.html" target="_top" xlink:title="The base class for all AST node classes. ">
<polygon fill="white" stroke="black" points="146.5,-145.5 146.5,-164.5 238.5,-164.5 238.5,-145.5 146.5,-145.5"/>
<text text-anchor="middle" x="192.5" y="-152.5" font-family="Helvetica,sans-Serif" font-size="10.00">elftosb::ASTNode</text>
</a>
</g>
</g>
<!-- Node3&#45;&gt;Node2 -->
<g id="edge2" class="edge"><title>Node3&#45;&gt;Node2</title>
<path fill="none" stroke="midnightblue" d="M194.229,-135.224C195.659,-119.697 197.625,-98.3582 198.706,-86.6165"/>
<polygon fill="midnightblue" stroke="midnightblue" points="190.735,-135.003 193.303,-145.282 197.705,-135.645 190.735,-135.003"/>
</g>
<!-- Node3&#45;&gt;Node3 -->
<g id="edge4" class="edge"><title>Node3&#45;&gt;Node3</title>
<path fill="none" stroke="#9a32cd" stroke-dasharray="5,2" d="M248.774,-159.66C253.534,-158.663 256.5,-157.109 256.5,-155 256.5,-151.625 248.906,-149.674 238.524,-149.146"/>
<polygon fill="#9a32cd" stroke="#9a32cd" points="248.052,-156.22 238.524,-160.854 248.862,-163.173 248.052,-156.22"/>
<text text-anchor="middle" x="278.5" y="-152.5" font-family="Helvetica,sans-Serif" font-size="10.00"> m_parent</text>
</g>
<!-- Node5 -->
<g id="node5" class="node"><title>Node5</title>
<g id="a_node5"><a xlink:href="classelftosb_1_1_symbol_a_s_t_node.html" target="_top" xlink:title="elftosb::SymbolASTNode">
<polygon fill="white" stroke="black" points="0,-67.5 0,-86.5 125,-86.5 125,-67.5 0,-67.5"/>
<text text-anchor="middle" x="62.5" y="-74.5" font-family="Helvetica,sans-Serif" font-size="10.00">elftosb::SymbolASTNode</text>
</a>
</g>
</g>
<!-- Node3&#45;&gt;Node5 -->
<g id="edge6" class="edge"><title>Node3&#45;&gt;Node5</title>
<path fill="none" stroke="midnightblue" d="M170.43,-140.036C154.472,-130.049 132.323,-116.412 112.5,-105 101.385,-98.6014 88.6653,-91.7388 78.8365,-86.5335"/>
<polygon fill="midnightblue" stroke="midnightblue" points="168.717,-143.093 179.046,-145.45 172.441,-137.166 168.717,-143.093"/>
</g>
<!-- Node4 -->
<g id="node4" class="node"><title>Node4</title>
<g id="a_node4"><a xlink:href="structelftosb_1_1token__loc__t.html" target="_top" xlink:title="Token location in the source file. ">
<polygon fill="white" stroke="black" points="142,-212.5 142,-231.5 243,-231.5 243,-212.5 142,-212.5"/>
<text text-anchor="middle" x="192.5" y="-219.5" font-family="Helvetica,sans-Serif" font-size="10.00">elftosb::token_loc_t</text>
</a>
</g>
</g>
<!-- Node4&#45;&gt;Node3 -->
<g id="edge3" class="edge"><title>Node4&#45;&gt;Node3</title>
<path fill="none" stroke="#9a32cd" stroke-dasharray="5,2" d="M192.5,-202.037C192.5,-189.67 192.5,-174.12 192.5,-164.627"/>
<polygon fill="#9a32cd" stroke="#9a32cd" points="189,-202.234 192.5,-212.234 196,-202.234 189,-202.234"/>
<text text-anchor="middle" x="218" y="-186" font-family="Helvetica,sans-Serif" font-size="10.00"> m_location</text>
</g>
<!-- Node5&#45;&gt;Node1 -->
<g id="edge5" class="edge"><title>Node5&#45;&gt;Node1</title>
<path fill="none" stroke="#9a32cd" stroke-dasharray="5,2" d="M80.6088,-60.7134C95.7794,-47.907 116.888,-30.0884 129.28,-19.6273"/>
<polygon fill="#9a32cd" stroke="#9a32cd" points="78.2683,-58.1088 72.8846,-67.2338 82.7837,-63.4577 78.2683,-58.1088"/>
<text text-anchor="middle" x="131" y="-41" font-family="Helvetica,sans-Serif" font-size="10.00"> m_symbol</text>
</g>
<!-- Node6 -->
<g id="node6" class="node"><title>Node6</title>
<g id="a_node6"><a xlink:href="group__smart__pointer.html" target="_top" xlink:title="smart_ptr\&lt; std::string \&gt;">
<polygon fill="white" stroke="black" points="3,-145.5 3,-164.5 122,-164.5 122,-145.5 3,-145.5"/>
<text text-anchor="middle" x="62.5" y="-152.5" font-family="Helvetica,sans-Serif" font-size="10.00">smart_ptr&lt; std::string &gt;</text>
</a>
</g>
</g>
<!-- Node6&#45;&gt;Node5 -->
<g id="edge7" class="edge"><title>Node6&#45;&gt;Node5</title>
<path fill="none" stroke="#9a32cd" stroke-dasharray="5,2" d="M62.5,-135.224C62.5,-119.697 62.5,-98.3582 62.5,-86.6165"/>
<polygon fill="#9a32cd" stroke="#9a32cd" points="59.0001,-135.282 62.5,-145.282 66.0001,-135.282 59.0001,-135.282"/>
<text text-anchor="middle" x="85.5" y="-119" font-family="Helvetica,sans-Serif" font-size="10.00"> m_source</text>
<text text-anchor="middle" x="85.5" y="-108" font-family="Helvetica,sans-Serif" font-size="10.00">m_symbol</text>
</g>
<!-- Node7 -->
<g id="node7" class="node"><title>Node7</title>
<g id="a_node7"><a xlink:title="STL class. ">
<polygon fill="white" stroke="#bfbfbf" points="32.5,-212.5 32.5,-231.5 92.5,-231.5 92.5,-212.5 32.5,-212.5"/>
<text text-anchor="middle" x="62.5" y="-219.5" font-family="Helvetica,sans-Serif" font-size="10.00">std::string</text>
</a>
</g>
</g>
<!-- Node7&#45;&gt;Node6 -->
<g id="edge8" class="edge"><title>Node7&#45;&gt;Node6</title>
<path fill="none" stroke="#9a32cd" stroke-dasharray="5,2" d="M62.5,-202.037C62.5,-189.67 62.5,-174.12 62.5,-164.627"/>
<polygon fill="#9a32cd" stroke="#9a32cd" points="59.0001,-202.234 62.5,-212.234 66.0001,-202.234 59.0001,-202.234"/>
<text text-anchor="middle" x="69.5" y="-186" font-family="Helvetica,sans-Serif" font-size="10.00"> _p</text>
</g>
<!-- Node8 -->
<g id="node8" class="node"><title>Node8</title>
<g id="a_node8"><a xlink:title="STL class. ">
<polygon fill="white" stroke="#bfbfbf" points="15,-269.5 15,-299.5 110,-299.5 110,-269.5 15,-269.5"/>
<text text-anchor="start" x="23" y="-287.5" font-family="Helvetica,sans-Serif" font-size="10.00">std::basic_string&lt;</text>
<text text-anchor="middle" x="62.5" y="-276.5" font-family="Helvetica,sans-Serif" font-size="10.00"> char &gt;</text>
</a>
</g>
</g>
<!-- Node8&#45;&gt;Node7 -->
<g id="edge9" class="edge"><title>Node8&#45;&gt;Node7</title>
<path fill="none" stroke="midnightblue" d="M62.5,-259.352C62.5,-249.513 62.5,-238.775 62.5,-231.54"/>
<polygon fill="midnightblue" stroke="midnightblue" points="59.0001,-259.468 62.5,-269.468 66.0001,-259.468 59.0001,-259.468"/>
</g>
</g>
</svg>
