<?xml version="1.0" encoding="UTF-8" standalone="no"?>
<!DOCTYPE svg PUBLIC "-//W3C//DTD SVG 1.1//EN"
 "http://www.w3.org/Graphics/SVG/1.1/DTD/svg11.dtd">
<!-- Generated by graphviz version 2.38.0 (20140413.2041)
 -->
<!-- Title: RijndaelCTR Pages: 1 -->
<svg width="264pt" height="162pt"
 viewBox="0.00 0.00 264.00 162.00" xmlns="http://www.w3.org/2000/svg" xmlns:xlink="http://www.w3.org/1999/xlink">
<g id="graph0" class="graph" transform="scale(1 1) rotate(0) translate(4 158)">
<title>RijndaelCTR</title>
<polygon fill="white" stroke="none" points="-4,4 -4,-158 260,-158 260,4 -4,4"/>
<!-- Node1 -->
<g id="node1" class="node"><title>Node1</title>
<polygon fill="#bfbfbf" stroke="black" points="99.5,-0.5 99.5,-19.5 169.5,-19.5 169.5,-0.5 99.5,-0.5"/>
<text text-anchor="middle" x="134.5" y="-7.5" font-family="Helvetica,sans-Serif" font-size="10.00">RijndaelCTR</text>
</g>
<!-- Node2 -->
<g id="node2" class="node"><title>Node2</title>
<g id="a_node2"><a xlink:href="class_a_e_s_key.html" target="_top" xlink:title="AESKey\&lt; 128 \&gt;">
<polygon fill="white" stroke="black" points="15.5,-67.5 15.5,-86.5 103.5,-86.5 103.5,-67.5 15.5,-67.5"/>
<text text-anchor="middle" x="59.5" y="-74.5" font-family="Helvetica,sans-Serif" font-size="10.00">AESKey&lt; 128 &gt;</text>
</a>
</g>
</g>
<!-- Node2&#45;&gt;Node1 -->
<g id="edge1" class="edge"><title>Node2&#45;&gt;Node1</title>
<path fill="none" stroke="#9a32cd" stroke-dasharray="5,2" d="M77.5503,-60.3564C92.295,-47.5777 112.587,-29.9915 124.545,-19.6273"/>
<polygon fill="#9a32cd" stroke="#9a32cd" points="74.8795,-58.0396 69.6148,-67.2338 79.464,-63.3294 74.8795,-58.0396"/>
<text text-anchor="middle" x="117" y="-41" font-family="Helvetica,sans-Serif" font-size="10.00"> m_key</text>
</g>
<!-- Node3 -->
<g id="node3" class="node"><title>Node3</title>
<g id="a_node3"><a xlink:href="class_a_e_s_key_base.html" target="_top" xlink:title="Base class for AESKey&lt;S&gt;. ">
<polygon fill="white" stroke="black" points="0,-134.5 0,-153.5 77,-153.5 77,-134.5 0,-134.5"/>
<text text-anchor="middle" x="38.5" y="-141.5" font-family="Helvetica,sans-Serif" font-size="10.00">AESKeyBase</text>
</a>
</g>
</g>
<!-- Node3&#45;&gt;Node2 -->
<g id="edge2" class="edge"><title>Node3&#45;&gt;Node2</title>
<path fill="none" stroke="midnightblue" d="M38.4265,-124.037C41.3576,-111.67 46.862,-96.1198 51.9536,-86.6273"/>
<polygon fill="midnightblue" stroke="midnightblue" points="34.9177,-123.764 36.5436,-134.234 41.8013,-125.036 34.9177,-123.764"/>
</g>
<!-- Node3&#45;&gt;Node2 -->
<g id="edge3" class="edge"><title>Node3&#45;&gt;Node2</title>
<path fill="none" stroke="midnightblue" d="M50.3606,-125.163C55.6047,-112.628 60.398,-96.4104 61.4718,-86.6273"/>
<polygon fill="midnightblue" stroke="midnightblue" points="47.1847,-123.693 46.1207,-134.234 53.5261,-126.657 47.1847,-123.693"/>
</g>
<!-- Node4 -->
<g id="node4" class="node"><title>Node4</title>
<polygon fill="white" stroke="#bfbfbf" points="105,-134.5 105,-153.5 134,-153.5 134,-134.5 105,-134.5"/>
<text text-anchor="middle" x="119.5" y="-141.5" font-family="Helvetica,sans-Serif" font-size="10.00">S</text>
</g>
<!-- Node4&#45;&gt;Node2 -->
<g id="edge4" class="edge"><title>Node4&#45;&gt;Node2</title>
<path fill="none" stroke="#9a32cd" stroke-dasharray="5,2" d="M96.1306,-128.783C90.9606,-125.013 85.7599,-120.676 81.5,-116 73.3882,-107.097 66.9091,-94.7085 63.1374,-86.5284"/>
<polygon fill="#9a32cd" stroke="#9a32cd" points="94.3907,-131.832 104.631,-134.55 98.3212,-126.039 94.3907,-131.832"/>
<text text-anchor="middle" x="98" y="-108" font-family="Helvetica,sans-Serif" font-size="10.00"> m_key</text>
</g>
<!-- Node5 -->
<g id="node5" class="node"><title>Node5</title>
<g id="a_node5"><a xlink:href="class_a_e_s_counter.html" target="_top" xlink:title="AESCounter\&lt; 128 \&gt;">
<polygon fill="white" stroke="black" points="139.5,-67.5 139.5,-86.5 243.5,-86.5 243.5,-67.5 139.5,-67.5"/>
<text text-anchor="middle" x="191.5" y="-74.5" font-family="Helvetica,sans-Serif" font-size="10.00">AESCounter&lt; 128 &gt;</text>
</a>
</g>
</g>
<!-- Node4&#45;&gt;Node5 -->
<g id="edge8" class="edge"><title>Node4&#45;&gt;Node5</title>
<path fill="none" stroke="#9a32cd" stroke-dasharray="5,2" d="M129.117,-125.608C133.509,-118.662 139.151,-110.924 145.5,-105 153.489,-97.5457 163.887,-91.2268 172.775,-86.5804"/>
<polygon fill="#9a32cd" stroke="#9a32cd" points="126.028,-123.956 123.953,-134.345 132.054,-127.517 126.028,-123.956"/>
<text text-anchor="middle" x="170" y="-108" font-family="Helvetica,sans-Serif" font-size="10.00"> m_counter</text>
</g>
<!-- Node5&#45;&gt;Node1 -->
<g id="edge5" class="edge"><title>Node5&#45;&gt;Node1</title>
<path fill="none" stroke="#9a32cd" stroke-dasharray="5,2" d="M177.149,-59.6348C166.002,-46.9228 150.984,-29.7978 142.065,-19.6273"/>
<polygon fill="#9a32cd" stroke="#9a32cd" points="174.588,-62.0228 183.813,-67.2338 179.851,-57.4075 174.588,-62.0228"/>
<text text-anchor="middle" x="190" y="-41" font-family="Helvetica,sans-Serif" font-size="10.00"> m_counter</text>
</g>
<!-- Node6 -->
<g id="node6" class="node"><title>Node6</title>
<g id="a_node6"><a xlink:href="class_a_e_s_counter_base.html" target="_top" xlink:title="Base class for AESCounter&lt;S&gt;. ">
<polygon fill="white" stroke="black" points="163,-134.5 163,-153.5 256,-153.5 256,-134.5 163,-134.5"/>
<text text-anchor="middle" x="209.5" y="-141.5" font-family="Helvetica,sans-Serif" font-size="10.00">AESCounterBase</text>
</a>
</g>
</g>
<!-- Node6&#45;&gt;Node5 -->
<g id="edge6" class="edge"><title>Node6&#45;&gt;Node5</title>
<path fill="none" stroke="midnightblue" d="M198.324,-124.79C193.717,-112.308 189.746,-96.3135 189.13,-86.6273"/>
<polygon fill="midnightblue" stroke="midnightblue" points="195.189,-126.365 202.284,-134.234 201.645,-123.658 195.189,-126.365"/>
</g>
<!-- Node6&#45;&gt;Node5 -->
<g id="edge7" class="edge"><title>Node6&#45;&gt;Node5</title>
<path fill="none" stroke="midnightblue" d="M210.449,-124.037C208.088,-111.67 203.302,-96.1198 198.648,-86.6273"/>
<polygon fill="midnightblue" stroke="midnightblue" points="207.022,-124.809 211.861,-134.234 213.956,-123.848 207.022,-124.809"/>
</g>
</g>
</svg>
