<?xml version="1.0" encoding="UTF-8" standalone="no"?>
<!DOCTYPE svg PUBLIC "-//W3C//DTD SVG 1.1//EN"
 "http://www.w3.org/Graphics/SVG/1.1/DTD/svg11.dtd">
<!-- Generated by graphviz version 2.38.0 (20140413.2041)
 -->
<!-- Title: elftosb::ASTNode Pages: 1 -->
<svg width="167pt" height="95pt"
 viewBox="0.00 0.00 166.50 95.00" xmlns="http://www.w3.org/2000/svg" xmlns:xlink="http://www.w3.org/1999/xlink">
<g id="graph0" class="graph" transform="scale(1 1) rotate(0) translate(4 91)">
<title>elftosb::ASTNode</title>
<polygon fill="white" stroke="none" points="-4,4 -4,-91 162.5,-91 162.5,4 -4,4"/>
<!-- Node1 -->
<g id="node1" class="node"><title>Node1</title>
<polygon fill="#bfbfbf" stroke="black" points="4.5,-0.5 4.5,-19.5 96.5,-19.5 96.5,-0.5 4.5,-0.5"/>
<text text-anchor="middle" x="50.5" y="-7.5" font-family="Helvetica,sans-Serif" font-size="10.00">elftosb::ASTNode</text>
</g>
<!-- Node1&#45;&gt;Node1 -->
<g id="edge2" class="edge"><title>Node1&#45;&gt;Node1</title>
<path fill="none" stroke="#9a32cd" stroke-dasharray="5,2" d="M106.774,-14.6596C111.534,-13.6626 114.5,-12.1094 114.5,-10 114.5,-6.625 106.906,-4.67383 96.5242,-4.14648"/>
<polygon fill="#9a32cd" stroke="#9a32cd" points="106.052,-11.2199 96.5242,-15.8535 106.862,-18.1729 106.052,-11.2199"/>
<text text-anchor="middle" x="136.5" y="-7.5" font-family="Helvetica,sans-Serif" font-size="10.00"> m_parent</text>
</g>
<!-- Node2 -->
<g id="node2" class="node"><title>Node2</title>
<g id="a_node2"><a xlink:href="structelftosb_1_1token__loc__t.html" target="_top" xlink:title="Token location in the source file. ">
<polygon fill="white" stroke="black" points="0,-67.5 0,-86.5 101,-86.5 101,-67.5 0,-67.5"/>
<text text-anchor="middle" x="50.5" y="-74.5" font-family="Helvetica,sans-Serif" font-size="10.00">elftosb::token_loc_t</text>
</a>
</g>
</g>
<!-- Node2&#45;&gt;Node1 -->
<g id="edge1" class="edge"><title>Node2&#45;&gt;Node1</title>
<path fill="none" stroke="#9a32cd" stroke-dasharray="5,2" d="M50.5,-57.037C50.5,-44.6703 50.5,-29.1198 50.5,-19.6273"/>
<polygon fill="#9a32cd" stroke="#9a32cd" points="47.0001,-57.2338 50.5,-67.2338 54.0001,-57.2338 47.0001,-57.2338"/>
<text text-anchor="middle" x="76" y="-41" font-family="Helvetica,sans-Serif" font-size="10.00"> m_location</text>
</g>
</g>
</svg>
