<?xml version="1.0" encoding="UTF-8" standalone="no"?>
<!DOCTYPE svg PUBLIC "-//W3C//DTD SVG 1.1//EN"
 "http://www.w3.org/Graphics/SVG/1.1/DTD/svg11.dtd">
<!-- Generated by graphviz version 2.38.0 (20140413.2041)
 -->
<!-- Title: blfwk::DataTarget Pages: 1 -->
<svg width="280pt" height="84pt"
 viewBox="0.00 0.00 279.50 84.00" xmlns="http://www.w3.org/2000/svg" xmlns:xlink="http://www.w3.org/1999/xlink">
<g id="graph0" class="graph" transform="scale(1 1) rotate(0) translate(4 80)">
<title>blfwk::DataTarget</title>
<polygon fill="white" stroke="none" points="-4,4 -4,-80 275.5,-80 275.5,4 -4,4"/>
<!-- Node1 -->
<g id="node1" class="node"><title>Node1</title>
<polygon fill="#bfbfbf" stroke="black" points="91.5,-56.5 91.5,-75.5 183.5,-75.5 183.5,-56.5 91.5,-56.5"/>
<text text-anchor="middle" x="137.5" y="-63.5" font-family="Helvetica,sans-Serif" font-size="10.00">blfwk::DataTarget</text>
</g>
<!-- Node2 -->
<g id="node2" class="node"><title>Node2</title>
<g id="a_node2"><a xlink:href="classblfwk_1_1_constant_data_target.html" target="_top" xlink:title="Target with a constant values for the addresses. ">
<polygon fill="white" stroke="black" points="0,-0.5 0,-19.5 131,-19.5 131,-0.5 0,-0.5"/>
<text text-anchor="middle" x="65.5" y="-7.5" font-family="Helvetica,sans-Serif" font-size="10.00">blfwk::ConstantDataTarget</text>
</a>
</g>
</g>
<!-- Node1&#45;&gt;Node2 -->
<g id="edge1" class="edge"><title>Node1&#45;&gt;Node2</title>
<path fill="none" stroke="midnightblue" d="M117.634,-50.1008C104.677,-40.3824 88.2026,-28.0269 77.2785,-19.8339"/>
<polygon fill="midnightblue" stroke="midnightblue" points="115.832,-53.1239 125.932,-56.324 120.032,-47.5239 115.832,-53.1239"/>
</g>
<!-- Node3 -->
<g id="node3" class="node"><title>Node3</title>
<g id="a_node3"><a xlink:href="classblfwk_1_1_natural_data_target.html" target="_top" xlink:title="Target address that is the &quot;natural&quot; location of whatever the source data is. ">
<polygon fill="white" stroke="black" points="149.5,-0.5 149.5,-19.5 271.5,-19.5 271.5,-0.5 149.5,-0.5"/>
<text text-anchor="middle" x="210.5" y="-7.5" font-family="Helvetica,sans-Serif" font-size="10.00">blfwk::NaturalDataTarget</text>
</a>
</g>
</g>
<!-- Node1&#45;&gt;Node3 -->
<g id="edge2" class="edge"><title>Node1&#45;&gt;Node3</title>
<path fill="none" stroke="midnightblue" d="M157.642,-50.1008C170.779,-40.3824 187.482,-28.0269 198.558,-19.8339"/>
<polygon fill="midnightblue" stroke="midnightblue" points="155.187,-47.5631 149.229,-56.324 159.35,-53.1907 155.187,-47.5631"/>
</g>
</g>
</svg>
