<?xml version="1.0" encoding="UTF-8" standalone="no"?>
<!DOCTYPE svg PUBLIC "-//W3C//DTD SVG 1.1//EN"
 "http://www.w3.org/Graphics/SVG/1.1/DTD/svg11.dtd">
<!-- Generated by graphviz version 2.38.0 (20140413.2041)
 -->
<!-- Title: StSRecordFile Pages: 1 -->
<svg width="360pt" height="298pt"
 viewBox="0.00 0.00 359.50 298.00" xmlns="http://www.w3.org/2000/svg" xmlns:xlink="http://www.w3.org/1999/xlink">
<g id="graph0" class="graph" transform="scale(1 1) rotate(0) translate(4 294)">
<title>StSRecordFile</title>
<polygon fill="white" stroke="none" points="-4,4 -4,-294 355.5,-294 355.5,4 -4,4"/>
<!-- Node1 -->
<g id="node1" class="node"><title>Node1</title>
<polygon fill="#bfbfbf" stroke="black" points="150,-0.5 150,-19.5 230,-19.5 230,-0.5 150,-0.5"/>
<text text-anchor="middle" x="190" y="-7.5" font-family="Helvetica,sans-Serif" font-size="10.00">StSRecordFile</text>
</g>
<!-- Node2 -->
<g id="node2" class="node"><title>Node2</title>
<polygon fill="white" stroke="#bfbfbf" points="0,-67.5 0,-97.5 134,-97.5 134,-67.5 0,-67.5"/>
<text text-anchor="start" x="8" y="-85.5" font-family="Helvetica,sans-Serif" font-size="10.00">std::vector&lt; StSRecordFile</text>
<text text-anchor="middle" x="67" y="-74.5" font-family="Helvetica,sans-Serif" font-size="10.00">::SRecord &gt;</text>
</g>
<!-- Node2&#45;&gt;Node1 -->
<g id="edge1" class="edge"><title>Node2&#45;&gt;Node1</title>
<path fill="none" stroke="#9a32cd" stroke-dasharray="5,2" d="M96.9763,-62.0949C109.243,-54.3592 123.663,-45.5235 137,-38 148.513,-31.5058 161.763,-24.7558 172.135,-19.6294"/>
<polygon fill="#9a32cd" stroke="#9a32cd" points="95.0347,-59.1818 88.4714,-67.4989 98.7888,-65.09 95.0347,-59.1818"/>
<text text-anchor="middle" x="161.5" y="-41" font-family="Helvetica,sans-Serif" font-size="10.00"> m_records</text>
</g>
<!-- Node3 -->
<g id="node3" class="node"><title>Node3</title>
<g id="a_node3"><a xlink:href="class_st_s_record_file.html#struct_st_s_record_file_1_1_s_record" target="_top" xlink:title="StSRecordFile::SRecord">
<polygon fill="white" stroke="black" points="0.5,-151 0.5,-170 123.5,-170 123.5,-151 0.5,-151"/>
<text text-anchor="middle" x="62" y="-158" font-family="Helvetica,sans-Serif" font-size="10.00">StSRecordFile::SRecord</text>
</a>
</g>
</g>
<!-- Node3&#45;&gt;Node2 -->
<g id="edge2" class="edge"><title>Node3&#45;&gt;Node2</title>
<path fill="none" stroke="#9a32cd" stroke-dasharray="5,2" d="M63.2315,-140.782C64.1116,-127.404 65.2771,-109.688 66.0776,-97.5198"/>
<polygon fill="#9a32cd" stroke="#9a32cd" points="59.7377,-140.574 62.5736,-150.782 66.7226,-141.033 59.7377,-140.574"/>
<text text-anchor="middle" x="86.5" y="-119" font-family="Helvetica,sans-Serif" font-size="10.00"> elements</text>
</g>
<!-- Node4 -->
<g id="node4" class="node"><title>Node4</title>
<g id="a_node4"><a xlink:title="STL class. ">
<polygon fill="white" stroke="#bfbfbf" points="156,-73 156,-92 224,-92 224,-73 156,-73"/>
<text text-anchor="middle" x="190" y="-80" font-family="Helvetica,sans-Serif" font-size="10.00">std::istream</text>
</a>
</g>
</g>
<!-- Node4&#45;&gt;Node1 -->
<g id="edge3" class="edge"><title>Node4&#45;&gt;Node1</title>
<path fill="none" stroke="#9a32cd" stroke-dasharray="5,2" d="M190,-62.442C190,-48.5305 190,-30.3203 190,-19.7154"/>
<polygon fill="#9a32cd" stroke="#9a32cd" points="186.5,-62.8553 190,-72.8553 193.5,-62.8553 186.5,-62.8553"/>
<text text-anchor="middle" x="213.5" y="-41" font-family="Helvetica,sans-Serif" font-size="10.00"> m_stream</text>
</g>
<!-- Node5 -->
<g id="node5" class="node"><title>Node5</title>
<g id="a_node5"><a xlink:title="STL class. ">
<polygon fill="white" stroke="#bfbfbf" points="141.5,-145.5 141.5,-175.5 238.5,-175.5 238.5,-145.5 141.5,-145.5"/>
<text text-anchor="start" x="149.5" y="-163.5" font-family="Helvetica,sans-Serif" font-size="10.00">std::basic_istream</text>
<text text-anchor="middle" x="190" y="-152.5" font-family="Helvetica,sans-Serif" font-size="10.00">&lt; char &gt;</text>
</a>
</g>
</g>
<!-- Node5&#45;&gt;Node4 -->
<g id="edge4" class="edge"><title>Node5&#45;&gt;Node4</title>
<path fill="none" stroke="midnightblue" d="M190,-135.165C190,-120.396 190,-102.448 190,-92.0635"/>
<polygon fill="midnightblue" stroke="midnightblue" points="186.5,-135.205 190,-145.205 193.5,-135.205 186.5,-135.205"/>
</g>
<!-- Node6 -->
<g id="node6" class="node"><title>Node6</title>
<g id="a_node6"><a xlink:title="STL class. ">
<polygon fill="white" stroke="#bfbfbf" points="132,-213.5 132,-232.5 248,-232.5 248,-213.5 132,-213.5"/>
<text text-anchor="middle" x="190" y="-220.5" font-family="Helvetica,sans-Serif" font-size="10.00">std::basic_ios&lt; Char &gt;</text>
</a>
</g>
</g>
<!-- Node6&#45;&gt;Node5 -->
<g id="edge5" class="edge"><title>Node6&#45;&gt;Node5</title>
<path fill="none" stroke="midnightblue" d="M190,-203.215C190,-194.356 190,-183.958 190,-175.759"/>
<polygon fill="midnightblue" stroke="midnightblue" points="186.5,-203.332 190,-213.332 193.5,-203.332 186.5,-203.332"/>
</g>
<!-- Node7 -->
<g id="node7" class="node"><title>Node7</title>
<g id="a_node7"><a xlink:title="STL class. ">
<polygon fill="white" stroke="#bfbfbf" points="152.5,-270.5 152.5,-289.5 227.5,-289.5 227.5,-270.5 152.5,-270.5"/>
<text text-anchor="middle" x="190" y="-277.5" font-family="Helvetica,sans-Serif" font-size="10.00">std::ios_base</text>
</a>
</g>
</g>
<!-- Node7&#45;&gt;Node6 -->
<g id="edge6" class="edge"><title>Node7&#45;&gt;Node6</title>
<path fill="none" stroke="midnightblue" d="M190,-260.117C190,-250.817 190,-240.056 190,-232.715"/>
<polygon fill="midnightblue" stroke="midnightblue" points="186.5,-260.406 190,-270.406 193.5,-260.406 186.5,-260.406"/>
</g>
<!-- Node8 -->
<g id="node8" class="node"><title>Node8</title>
<g id="a_node8"><a xlink:title="STL class. ">
<polygon fill="white" stroke="#bfbfbf" points="263,-73 263,-92 323,-92 323,-73 263,-73"/>
<text text-anchor="middle" x="293" y="-80" font-family="Helvetica,sans-Serif" font-size="10.00">std::string</text>
</a>
</g>
</g>
<!-- Node8&#45;&gt;Node1 -->
<g id="edge7" class="edge"><title>Node8&#45;&gt;Node1</title>
<path fill="none" stroke="#9a32cd" stroke-dasharray="5,2" d="M276.407,-66.0787C266.529,-57.3003 253.516,-46.4122 241,-38 230.69,-31.0702 218.402,-24.5189 208.471,-19.6054"/>
<polygon fill="#9a32cd" stroke="#9a32cd" points="274.126,-68.7352 283.887,-72.8558 278.826,-63.5477 274.126,-68.7352"/>
<text text-anchor="middle" x="277.5" y="-41" font-family="Helvetica,sans-Serif" font-size="10.00"> m_name</text>
</g>
<!-- Node9 -->
<g id="node9" class="node"><title>Node9</title>
<g id="a_node9"><a xlink:title="STL class. ">
<polygon fill="white" stroke="#bfbfbf" points="256.5,-145.5 256.5,-175.5 351.5,-175.5 351.5,-145.5 256.5,-145.5"/>
<text text-anchor="start" x="264.5" y="-163.5" font-family="Helvetica,sans-Serif" font-size="10.00">std::basic_string&lt;</text>
<text text-anchor="middle" x="304" y="-152.5" font-family="Helvetica,sans-Serif" font-size="10.00"> char &gt;</text>
</a>
</g>
</g>
<!-- Node9&#45;&gt;Node8 -->
<g id="edge8" class="edge"><title>Node9&#45;&gt;Node8</title>
<path fill="none" stroke="midnightblue" d="M300.478,-135.165C298.34,-120.396 295.743,-102.448 294.239,-92.0635"/>
<polygon fill="midnightblue" stroke="midnightblue" points="297.035,-135.809 301.931,-145.205 303.962,-134.807 297.035,-135.809"/>
</g>
</g>
</svg>
