<?xml version="1.0" encoding="UTF-8" standalone="no"?>
<!DOCTYPE svg PUBLIC "-//W3C//DTD SVG 1.1//EN"
 "http://www.w3.org/Graphics/SVG/1.1/DTD/svg11.dtd">
<!-- Generated by graphviz version 2.38.0 (20140413.2041)
 -->
<!-- Title: blfwk::DataTarget Pages: 1 -->
<svg width="113pt" height="95pt"
 viewBox="0.00 0.00 112.50 95.00" xmlns="http://www.w3.org/2000/svg" xmlns:xlink="http://www.w3.org/1999/xlink">
<g id="graph0" class="graph" transform="scale(1 1) rotate(0) translate(4 91)">
<title>blfwk::DataTarget</title>
<polygon fill="white" stroke="none" points="-4,4 -4,-91 108.5,-91 108.5,4 -4,4"/>
<!-- Node1 -->
<g id="node1" class="node"><title>Node1</title>
<polygon fill="#bfbfbf" stroke="black" points="1.5,-67.5 1.5,-86.5 93.5,-86.5 93.5,-67.5 1.5,-67.5"/>
<text text-anchor="middle" x="47.5" y="-74.5" font-family="Helvetica,sans-Serif" font-size="10.00">blfwk::DataTarget</text>
</g>
<!-- Node2 -->
<g id="node2" class="node"><title>Node2</title>
<g id="a_node2"><a xlink:href="classblfwk_1_1_data_source.html" target="_top" xlink:title="Abstract base class for data sources. ">
<polygon fill="white" stroke="black" points="0,-0.5 0,-19.5 95,-19.5 95,-0.5 0,-0.5"/>
<text text-anchor="middle" x="47.5" y="-7.5" font-family="Helvetica,sans-Serif" font-size="10.00">blfwk::DataSource</text>
</a>
</g>
</g>
<!-- Node1&#45;&gt;Node2 -->
<g id="edge2" class="edge"><title>Node1&#45;&gt;Node2</title>
<path fill="none" stroke="#9a32cd" stroke-dasharray="5,2" d="M22.059,-61.048C18.1947,-57.6025 14.7513,-53.58 12.5,-49 6.72338,-37.248 18.9197,-26.5409 30.4674,-19.5093"/>
<polygon fill="#9a32cd" stroke="#9a32cd" points="20.2471,-64.0658 30.3349,-67.3039 24.4682,-58.4817 20.2471,-64.0658"/>
<text text-anchor="middle" x="33.5" y="-41" font-family="Helvetica,sans-Serif" font-size="10.00"> m_target</text>
</g>
<!-- Node2&#45;&gt;Node1 -->
<g id="edge1" class="edge"><title>Node2&#45;&gt;Node1</title>
<path fill="none" stroke="#9a32cd" stroke-dasharray="5,2" d="M56.417,-29.1293C58.5017,-35.3688 59.7856,-42.4369 58.5,-49 57.2545,-55.358 54.5045,-62.108 52.0659,-67.2685"/>
<polygon fill="#9a32cd" stroke="#9a32cd" points="59.5426,-27.5305 52.4649,-19.6465 53.0813,-30.2234 59.5426,-27.5305"/>
<text text-anchor="middle" x="81.5" y="-41" font-family="Helvetica,sans-Serif" font-size="10.00"> m_source</text>
</g>
</g>
</svg>
