<?xml version="1.0" encoding="UTF-8" standalone="no"?>
<!DOCTYPE svg PUBLIC "-//W3C//DTD SVG 1.1//EN"
 "http://www.w3.org/Graphics/SVG/1.1/DTD/svg11.dtd">
<!-- Generated by graphviz version 2.38.0 (20140413.2041)
 -->
<!-- Title: elftosb::NaturalDataTarget Pages: 1 -->
<svg width="258pt" height="95pt"
 viewBox="0.00 0.00 257.50 95.00" xmlns="http://www.w3.org/2000/svg" xmlns:xlink="http://www.w3.org/1999/xlink">
<g id="graph0" class="graph" transform="scale(1 1) rotate(0) translate(4 91)">
<title>elftosb::NaturalDataTarget</title>
<polygon fill="white" stroke="none" points="-4,4 -4,-91 253.5,-91 253.5,4 -4,4"/>
<!-- Node1 -->
<g id="node1" class="node"><title>Node1</title>
<polygon fill="#bfbfbf" stroke="black" points="0,-0.5 0,-19.5 129,-19.5 129,-0.5 0,-0.5"/>
<text text-anchor="middle" x="64.5" y="-7.5" font-family="Helvetica,sans-Serif" font-size="10.00">elftosb::NaturalDataTarget</text>
</g>
<!-- Node2 -->
<g id="node2" class="node"><title>Node2</title>
<g id="a_node2"><a xlink:href="classelftosb_1_1_data_target.html" target="_top" xlink:title="Abstract base class for the target address or range of data. ">
<polygon fill="white" stroke="black" points="84.5,-67.5 84.5,-86.5 182.5,-86.5 182.5,-67.5 84.5,-67.5"/>
<text text-anchor="middle" x="133.5" y="-74.5" font-family="Helvetica,sans-Serif" font-size="10.00">elftosb::DataTarget</text>
</a>
</g>
</g>
<!-- Node2&#45;&gt;Node1 -->
<g id="edge1" class="edge"><title>Node2&#45;&gt;Node1</title>
<path fill="none" stroke="midnightblue" d="M116.894,-60.3564C103.329,-47.5777 84.6602,-29.9915 73.6582,-19.6273"/>
<polygon fill="midnightblue" stroke="midnightblue" points="114.515,-62.9245 124.194,-67.2338 119.315,-57.8292 114.515,-62.9245"/>
</g>
<!-- Node3 -->
<g id="node3" class="node"><title>Node3</title>
<g id="a_node3"><a xlink:href="classelftosb_1_1_data_source.html" target="_top" xlink:title="Abstract base class for data sources. ">
<polygon fill="white" stroke="black" points="147.5,-0.5 147.5,-19.5 249.5,-19.5 249.5,-0.5 147.5,-0.5"/>
<text text-anchor="middle" x="198.5" y="-7.5" font-family="Helvetica,sans-Serif" font-size="10.00">elftosb::DataSource</text>
</a>
</g>
</g>
<!-- Node2&#45;&gt;Node3 -->
<g id="edge3" class="edge"><title>Node2&#45;&gt;Node3</title>
<path fill="none" stroke="#9a32cd" stroke-dasharray="5,2" d="M127.41,-57.2017C126.419,-50.642 126.738,-43.542 130.5,-38 136.35,-29.3825 145.43,-23.5154 155.069,-19.5208"/>
<polygon fill="#9a32cd" stroke="#9a32cd" points="124.126,-58.5005 129.936,-67.3606 130.92,-56.8116 124.126,-58.5005"/>
<text text-anchor="middle" x="151.5" y="-41" font-family="Helvetica,sans-Serif" font-size="10.00"> m_target</text>
</g>
<!-- Node3&#45;&gt;Node2 -->
<g id="edge2" class="edge"><title>Node3&#45;&gt;Node2</title>
<path fill="none" stroke="#9a32cd" stroke-dasharray="5,2" d="M190.486,-28.8304C186.86,-35.6479 182.119,-43.1761 176.5,-49 169.278,-56.4859 159.578,-62.8072 151.219,-67.4471"/>
<polygon fill="#9a32cd" stroke="#9a32cd" points="193.735,-30.154 194.973,-19.6318 187.443,-27.0855 193.735,-30.154"/>
<text text-anchor="middle" x="208.5" y="-41" font-family="Helvetica,sans-Serif" font-size="10.00"> m_source</text>
</g>
</g>
</svg>
