<?xml version="1.0" encoding="UTF-8" standalone="no"?>
<!DOCTYPE svg PUBLIC "-//W3C//DTD SVG 1.1//EN"
 "http://www.w3.org/Graphics/SVG/1.1/DTD/svg11.dtd">
<!-- Generated by graphviz version 2.38.0 (20140413.2041)
 -->
<!-- Title: blfwk::MemoryStore Pages: 1 -->
<svg width="280pt" height="84pt"
 viewBox="0.00 0.00 279.50 84.00" xmlns="http://www.w3.org/2000/svg" xmlns:xlink="http://www.w3.org/1999/xlink">
<g id="graph0" class="graph" transform="scale(1 1) rotate(0) translate(4 80)">
<title>blfwk::MemoryStore</title>
<polygon fill="white" stroke="none" points="-4,4 -4,-80 275.5,-80 275.5,4 -4,4"/>
<!-- Node1 -->
<g id="node1" class="node"><title>Node1</title>
<polygon fill="#bfbfbf" stroke="black" points="84,-56.5 84,-75.5 187,-75.5 187,-56.5 84,-56.5"/>
<text text-anchor="middle" x="135.5" y="-63.5" font-family="Helvetica,sans-Serif" font-size="10.00">blfwk::MemoryStore</text>
</g>
<!-- Node2 -->
<g id="node2" class="node"><title>Node2</title>
<g id="a_node2"><a xlink:href="classblfwk_1_1_flash_memory_store.html" target="_top" xlink:title="Represents target Flash memory. ">
<polygon fill="white" stroke="black" points="0,-0.5 0,-19.5 127,-19.5 127,-0.5 0,-0.5"/>
<text text-anchor="middle" x="63.5" y="-7.5" font-family="Helvetica,sans-Serif" font-size="10.00">blfwk::FlashMemoryStore</text>
</a>
</g>
</g>
<!-- Node1&#45;&gt;Node2 -->
<g id="edge1" class="edge"><title>Node1&#45;&gt;Node2</title>
<path fill="none" stroke="midnightblue" d="M115.634,-50.1008C102.677,-40.3824 86.2026,-28.0269 75.2785,-19.8339"/>
<polygon fill="midnightblue" stroke="midnightblue" points="113.832,-53.1239 123.932,-56.324 118.032,-47.5239 113.832,-53.1239"/>
</g>
<!-- Node3 -->
<g id="node3" class="node"><title>Node3</title>
<g id="a_node3"><a xlink:href="classblfwk_1_1_sram_memory_store.html" target="_top" xlink:title="Represents target SRAM memory. ">
<polygon fill="white" stroke="black" points="145.5,-0.5 145.5,-19.5 271.5,-19.5 271.5,-0.5 145.5,-0.5"/>
<text text-anchor="middle" x="208.5" y="-7.5" font-family="Helvetica,sans-Serif" font-size="10.00">blfwk::SramMemoryStore</text>
</a>
</g>
</g>
<!-- Node1&#45;&gt;Node3 -->
<g id="edge2" class="edge"><title>Node1&#45;&gt;Node3</title>
<path fill="none" stroke="midnightblue" d="M155.642,-50.1008C168.779,-40.3824 185.482,-28.0269 196.558,-19.8339"/>
<polygon fill="midnightblue" stroke="midnightblue" points="153.187,-47.5631 147.229,-56.324 157.35,-53.1907 153.187,-47.5631"/>
</g>
</g>
</svg>
