<?xml version="1.0" encoding="UTF-8" standalone="no"?>
<!DOCTYPE svg PUBLIC "-//W3C//DTD SVG 1.1//EN"
 "http://www.w3.org/Graphics/SVG/1.1/DTD/svg11.dtd">
<!-- Generated by graphviz version 2.38.0 (20140413.2041)
 -->
<!-- Title: blfwk::ReadMemory Pages: 1 -->
<svg width="524pt" height="287pt"
 viewBox="0.00 0.00 524.00 287.00" xmlns="http://www.w3.org/2000/svg" xmlns:xlink="http://www.w3.org/1999/xlink">
<g id="graph0" class="graph" transform="scale(1 1) rotate(0) translate(4 283)">
<title>blfwk::ReadMemory</title>
<polygon fill="white" stroke="none" points="-4,4 -4,-283 520,-283 520,4 -4,4"/>
<!-- Node1 -->
<g id="node1" class="node"><title>Node1</title>
<polygon fill="#bfbfbf" stroke="black" points="0,-0.5 0,-19.5 102,-19.5 102,-0.5 0,-0.5"/>
<text text-anchor="middle" x="51" y="-7.5" font-family="Helvetica,sans-Serif" font-size="10.00">blfwk::ReadMemory</text>
</g>
<!-- Node2 -->
<g id="node2" class="node"><title>Node2</title>
<g id="a_node2"><a xlink:href="classblfwk_1_1_command.html" target="_top" xlink:title="Represents a bootloader command. ">
<polygon fill="white" stroke="black" points="176.5,-57.5 176.5,-76.5 265.5,-76.5 265.5,-57.5 176.5,-57.5"/>
<text text-anchor="middle" x="221" y="-64.5" font-family="Helvetica,sans-Serif" font-size="10.00">blfwk::Command</text>
</a>
</g>
</g>
<!-- Node2&#45;&gt;Node1 -->
<g id="edge1" class="edge"><title>Node2&#45;&gt;Node1</title>
<path fill="none" stroke="midnightblue" d="M184.51,-54.1945C152.3,-43.7736 106.119,-28.8327 77.376,-19.5334"/>
<polygon fill="midnightblue" stroke="midnightblue" points="183.846,-57.658 194.438,-57.4063 186,-50.9979 183.846,-57.658"/>
</g>
<!-- Node3 -->
<g id="node3" class="node"><title>Node3</title>
<polygon fill="white" stroke="#bfbfbf" points="402,-124.5 402,-143.5 516,-143.5 516,-124.5 402,-124.5"/>
<text text-anchor="middle" x="459" y="-131.5" font-family="Helvetica,sans-Serif" font-size="10.00">std::vector&lt; uint32_t &gt;</text>
</g>
<!-- Node3&#45;&gt;Node2 -->
<g id="edge2" class="edge"><title>Node3&#45;&gt;Node2</title>
<path fill="none" stroke="#9a32cd" stroke-dasharray="5,2" d="M427.203,-120.974C405.181,-112.928 375.07,-102.482 348,-95 320.95,-87.5237 290.173,-80.9334 265.692,-76.1355"/>
<polygon fill="#9a32cd" stroke="#9a32cd" points="426.12,-124.305 436.713,-124.483 428.543,-117.738 426.12,-124.305"/>
<text text-anchor="middle" x="425.5" y="-98" font-family="Helvetica,sans-Serif" font-size="10.00"> m_responseValues</text>
</g>
<!-- Node4 -->
<g id="node4" class="node"><title>Node4</title>
<g id="a_node4"><a xlink:title="STL class. ">
<polygon fill="white" stroke="#bfbfbf" points="24,-191.5 24,-210.5 84,-210.5 84,-191.5 24,-191.5"/>
<text text-anchor="middle" x="54" y="-198.5" font-family="Helvetica,sans-Serif" font-size="10.00">std::string</text>
</a>
</g>
</g>
<!-- Node4&#45;&gt;Node1 -->
<g id="edge8" class="edge"><title>Node4&#45;&gt;Node1</title>
<path fill="none" stroke="#9a32cd" stroke-dasharray="5,2" d="M45.0119,-182.288C35.5619,-161.611 22.6227,-126.254 27,-95 30.9549,-66.7618 42.0444,-34.6967 47.6567,-19.6545"/>
<polygon fill="#9a32cd" stroke="#9a32cd" points="41.9152,-183.925 49.4025,-191.421 48.224,-180.892 41.9152,-183.925"/>
<text text-anchor="middle" x="53" y="-98" font-family="Helvetica,sans-Serif" font-size="10.00"> m_dataFile</text>
</g>
<!-- Node4&#45;&gt;Node2 -->
<g id="edge3" class="edge"><title>Node4&#45;&gt;Node2</title>
<path fill="none" stroke="#9a32cd" stroke-dasharray="5,2" d="M51.0766,-181.155C49.5633,-164.36 50.1982,-140.026 63,-124 90.2459,-89.8926 139.808,-76.5288 176.18,-71.3094"/>
<polygon fill="#9a32cd" stroke="#9a32cd" points="47.6408,-181.89 52.3444,-191.383 54.5876,-181.029 47.6408,-181.89"/>
<text text-anchor="middle" x="106.5" y="-131.5" font-family="Helvetica,sans-Serif" font-size="10.00"> m_responseDetails</text>
</g>
<!-- Node7 -->
<g id="node7" class="node"><title>Node7</title>
<polygon fill="white" stroke="#bfbfbf" points="159.5,-124.5 159.5,-143.5 282.5,-143.5 282.5,-124.5 159.5,-124.5"/>
<text text-anchor="middle" x="221" y="-131.5" font-family="Helvetica,sans-Serif" font-size="10.00">std::vector&lt; std::string &gt;</text>
</g>
<!-- Node4&#45;&gt;Node7 -->
<g id="edge7" class="edge"><title>Node4&#45;&gt;Node7</title>
<path fill="none" stroke="#9a32cd" stroke-dasharray="5,2" d="M85.8478,-187.604C119.006,-174.698 170.059,-154.827 198.998,-143.564"/>
<polygon fill="#9a32cd" stroke="#9a32cd" points="84.2258,-184.48 76.1763,-191.369 86.7648,-191.003 84.2258,-184.48"/>
<text text-anchor="middle" x="169.5" y="-165" font-family="Helvetica,sans-Serif" font-size="10.00"> elements</text>
</g>
<!-- Node5 -->
<g id="node5" class="node"><title>Node5</title>
<g id="a_node5"><a xlink:title="STL class. ">
<polygon fill="white" stroke="#bfbfbf" points="6.5,-248.5 6.5,-278.5 101.5,-278.5 101.5,-248.5 6.5,-248.5"/>
<text text-anchor="start" x="14.5" y="-266.5" font-family="Helvetica,sans-Serif" font-size="10.00">std::basic_string&lt;</text>
<text text-anchor="middle" x="54" y="-255.5" font-family="Helvetica,sans-Serif" font-size="10.00"> char &gt;</text>
</a>
</g>
</g>
<!-- Node5&#45;&gt;Node4 -->
<g id="edge4" class="edge"><title>Node5&#45;&gt;Node4</title>
<path fill="none" stroke="midnightblue" d="M54,-238.352C54,-228.513 54,-217.775 54,-210.54"/>
<polygon fill="midnightblue" stroke="midnightblue" points="50.5001,-238.468 54,-248.468 57.5001,-238.468 50.5001,-238.468"/>
</g>
<!-- Node6 -->
<g id="node6" class="node"><title>Node6</title>
<g id="a_node6"><a xlink:href="classblfwk_1_1_progress.html" target="_top" xlink:title="Contains the callback function for progress and abort phase. ">
<polygon fill="white" stroke="black" points="300.5,-124.5 300.5,-143.5 383.5,-143.5 383.5,-124.5 300.5,-124.5"/>
<text text-anchor="middle" x="342" y="-131.5" font-family="Helvetica,sans-Serif" font-size="10.00">blfwk::Progress</text>
</a>
</g>
</g>
<!-- Node6&#45;&gt;Node2 -->
<g id="edge5" class="edge"><title>Node6&#45;&gt;Node2</title>
<path fill="none" stroke="#9a32cd" stroke-dasharray="5,2" d="M316.792,-119.459C292.804,-106.573 257.435,-87.5727 237.06,-76.6273"/>
<polygon fill="#9a32cd" stroke="#9a32cd" points="315.216,-122.585 325.681,-124.234 318.528,-116.418 315.216,-122.585"/>
<text text-anchor="middle" x="316.5" y="-98" font-family="Helvetica,sans-Serif" font-size="10.00"> m_progress</text>
</g>
<!-- Node7&#45;&gt;Node2 -->
<g id="edge6" class="edge"><title>Node7&#45;&gt;Node2</title>
<path fill="none" stroke="#9a32cd" stroke-dasharray="5,2" d="M221,-114.037C221,-101.67 221,-86.1198 221,-76.6273"/>
<polygon fill="#9a32cd" stroke="#9a32cd" points="217.5,-114.234 221,-124.234 224.5,-114.234 217.5,-114.234"/>
<text text-anchor="middle" x="238" y="-98" font-family="Helvetica,sans-Serif" font-size="10.00"> m_argv</text>
</g>
</g>
</svg>
