<?xml version="1.0" encoding="UTF-8" standalone="no"?>
<!DOCTYPE svg PUBLIC "-//W3C//DTD SVG 1.1//EN"
 "http://www.w3.org/Graphics/SVG/1.1/DTD/svg11.dtd">
<!-- Generated by graphviz version 2.38.0 (20140413.2041)
 -->
<!-- Title: elftosb::NaturalLocationASTNode Pages: 1 -->
<svg width="176pt" height="163pt"
 viewBox="0.00 0.00 175.50 163.00" xmlns="http://www.w3.org/2000/svg" xmlns:xlink="http://www.w3.org/1999/xlink">
<g id="graph0" class="graph" transform="scale(1 1) rotate(0) translate(4 159)">
<title>elftosb::NaturalLocationASTNode</title>
<polygon fill="white" stroke="none" points="-4,4 -4,-159 171.5,-159 171.5,4 -4,4"/>
<!-- Node1 -->
<g id="node1" class="node"><title>Node1</title>
<polygon fill="#bfbfbf" stroke="black" points="0,-0.5 0,-30.5 119,-30.5 119,-0.5 0,-0.5"/>
<text text-anchor="start" x="8" y="-18.5" font-family="Helvetica,sans-Serif" font-size="10.00">elftosb::NaturalLocation</text>
<text text-anchor="middle" x="59.5" y="-7.5" font-family="Helvetica,sans-Serif" font-size="10.00">ASTNode</text>
</g>
<!-- Node2 -->
<g id="node2" class="node"><title>Node2</title>
<g id="a_node2"><a xlink:href="classelftosb_1_1_a_s_t_node.html" target="_top" xlink:title="The base class for all AST node classes. ">
<polygon fill="white" stroke="black" points="13.5,-68.5 13.5,-87.5 105.5,-87.5 105.5,-68.5 13.5,-68.5"/>
<text text-anchor="middle" x="59.5" y="-75.5" font-family="Helvetica,sans-Serif" font-size="10.00">elftosb::ASTNode</text>
</a>
</g>
</g>
<!-- Node2&#45;&gt;Node1 -->
<g id="edge1" class="edge"><title>Node2&#45;&gt;Node1</title>
<path fill="none" stroke="midnightblue" d="M59.5,-58.2154C59.5,-49.3565 59.5,-38.9577 59.5,-30.7587"/>
<polygon fill="midnightblue" stroke="midnightblue" points="56.0001,-58.3318 59.5,-68.3318 63.0001,-58.3319 56.0001,-58.3318"/>
</g>
<!-- Node2&#45;&gt;Node2 -->
<g id="edge3" class="edge"><title>Node2&#45;&gt;Node2</title>
<path fill="none" stroke="#9a32cd" stroke-dasharray="5,2" d="M115.774,-82.0771C120.534,-81.2047 123.5,-79.8457 123.5,-78 123.5,-75.0469 115.906,-73.3396 105.524,-72.8782"/>
<polygon fill="#9a32cd" stroke="#9a32cd" points="115.118,-78.6258 105.524,-83.1218 115.828,-85.5897 115.118,-78.6258"/>
<text text-anchor="middle" x="145.5" y="-75.5" font-family="Helvetica,sans-Serif" font-size="10.00"> m_parent</text>
</g>
<!-- Node3 -->
<g id="node3" class="node"><title>Node3</title>
<g id="a_node3"><a xlink:href="structelftosb_1_1token__loc__t.html" target="_top" xlink:title="Token location in the source file. ">
<polygon fill="white" stroke="black" points="9,-135.5 9,-154.5 110,-154.5 110,-135.5 9,-135.5"/>
<text text-anchor="middle" x="59.5" y="-142.5" font-family="Helvetica,sans-Serif" font-size="10.00">elftosb::token_loc_t</text>
</a>
</g>
</g>
<!-- Node3&#45;&gt;Node2 -->
<g id="edge2" class="edge"><title>Node3&#45;&gt;Node2</title>
<path fill="none" stroke="#9a32cd" stroke-dasharray="5,2" d="M59.5,-125.037C59.5,-112.67 59.5,-97.1198 59.5,-87.6273"/>
<polygon fill="#9a32cd" stroke="#9a32cd" points="56.0001,-125.234 59.5,-135.234 63.0001,-125.234 56.0001,-125.234"/>
<text text-anchor="middle" x="85" y="-109" font-family="Helvetica,sans-Serif" font-size="10.00"> m_location</text>
</g>
</g>
</svg>
