<?xml version="1.0" encoding="UTF-8" standalone="no"?>
<!DOCTYPE svg PUBLIC "-//W3C//DTD SVG 1.1//EN"
 "http://www.w3.org/Graphics/SVG/1.1/DTD/svg11.dtd">
<!-- Generated by graphviz version 2.38.0 (20140413.2041)
 -->
<!-- Title: blfwk::DataPacket::HexDataProducer Pages: 1 -->
<svg width="238pt" height="117pt"
 viewBox="0.00 0.00 237.50 117.00" xmlns="http://www.w3.org/2000/svg" xmlns:xlink="http://www.w3.org/1999/xlink">
<g id="graph0" class="graph" transform="scale(1 1) rotate(0) translate(4 113)">
<title>blfwk::DataPacket::HexDataProducer</title>
<polygon fill="white" stroke="none" points="-4,4 -4,-113 233.5,-113 233.5,4 -4,4"/>
<!-- Node1 -->
<g id="node1" class="node"><title>Node1</title>
<polygon fill="#bfbfbf" stroke="black" points="62,-0.5 62,-30.5 163,-30.5 163,-0.5 62,-0.5"/>
<text text-anchor="start" x="70" y="-18.5" font-family="Helvetica,sans-Serif" font-size="10.00">blfwk::DataPacket::</text>
<text text-anchor="middle" x="112.5" y="-7.5" font-family="Helvetica,sans-Serif" font-size="10.00">HexDataProducer</text>
</g>
<!-- Node2 -->
<g id="node2" class="node"><title>Node2</title>
<g id="a_node2"><a xlink:href="classblfwk_1_1_data_packet_1_1_data_producer.html" target="_top" xlink:title="Abstract class to provide data for data phase. ">
<polygon fill="white" stroke="black" points="0,-78.5 0,-108.5 101,-108.5 101,-78.5 0,-78.5"/>
<text text-anchor="start" x="8" y="-96.5" font-family="Helvetica,sans-Serif" font-size="10.00">blfwk::DataPacket::</text>
<text text-anchor="middle" x="50.5" y="-85.5" font-family="Helvetica,sans-Serif" font-size="10.00">DataProducer</text>
</a>
</g>
</g>
<!-- Node2&#45;&gt;Node1 -->
<g id="edge1" class="edge"><title>Node2&#45;&gt;Node1</title>
<path fill="none" stroke="midnightblue" d="M68.6052,-70.3065C79.0258,-57.5329 91.8119,-41.8596 100.891,-30.7309"/>
<polygon fill="midnightblue" stroke="midnightblue" points="65.771,-68.2439 62.1617,-78.205 71.1951,-72.6688 65.771,-68.2439"/>
</g>
<!-- Node3 -->
<g id="node3" class="node"><title>Node3</title>
<polygon fill="white" stroke="#bfbfbf" points="119.5,-78.5 119.5,-108.5 229.5,-108.5 229.5,-78.5 119.5,-78.5"/>
<text text-anchor="start" x="127.5" y="-96.5" font-family="Helvetica,sans-Serif" font-size="10.00">std::vector&lt; unsigned</text>
<text text-anchor="middle" x="174.5" y="-85.5" font-family="Helvetica,sans-Serif" font-size="10.00"> char &gt;</text>
</g>
<!-- Node3&#45;&gt;Node1 -->
<g id="edge2" class="edge"><title>Node3&#45;&gt;Node1</title>
<path fill="none" stroke="#9a32cd" stroke-dasharray="5,2" d="M156.395,-70.3065C145.974,-57.5329 133.188,-41.8596 124.109,-30.7309"/>
<polygon fill="#9a32cd" stroke="#9a32cd" points="153.805,-72.6688 162.838,-78.205 159.229,-68.2439 153.805,-72.6688"/>
<text text-anchor="middle" x="165.5" y="-52" font-family="Helvetica,sans-Serif" font-size="10.00"> m_data</text>
</g>
</g>
</svg>
