<?xml version="1.0" encoding="UTF-8" standalone="no"?>
<!DOCTYPE svg PUBLIC "-//W3C//DTD SVG 1.1//EN"
 "http://www.w3.org/Graphics/SVG/1.1/DTD/svg11.dtd">
<!-- Generated by graphviz version 2.38.0 (20140413.2041)
 -->
<!-- Title: blfwk::GHSSecInfo Pages: 1 -->
<svg width="1042pt" height="301pt"
 viewBox="0.00 0.00 1042.00 301.00" xmlns="http://www.w3.org/2000/svg" xmlns:xlink="http://www.w3.org/1999/xlink">
<g id="graph0" class="graph" transform="scale(1 1) rotate(0) translate(4 297)">
<title>blfwk::GHSSecInfo</title>
<polygon fill="white" stroke="none" points="-4,4 -4,-297 1038,-297 1038,4 -4,4"/>
<!-- Node1 -->
<g id="node1" class="node"><title>Node1</title>
<polygon fill="#bfbfbf" stroke="black" points="936,-186 936,-205 1034,-205 1034,-186 936,-186"/>
<text text-anchor="middle" x="985" y="-193" font-family="Helvetica,sans-Serif" font-size="10.00">blfwk::GHSSecInfo</text>
</g>
<!-- Node2 -->
<g id="node2" class="node"><title>Node2</title>
<g id="a_node2"><a xlink:href="group__smart__pointer.html" target="_top" xlink:title="smart_array_ptr\&lt; blfwk\l::GHSSecInfo::ghs_secinfo_t \&gt;">
<polygon fill="white" stroke="black" points="717,-218.5 717,-248.5 868,-248.5 868,-218.5 717,-218.5"/>
<text text-anchor="start" x="725" y="-236.5" font-family="Helvetica,sans-Serif" font-size="10.00">smart_array_ptr&lt; blfwk</text>
<text text-anchor="middle" x="792.5" y="-225.5" font-family="Helvetica,sans-Serif" font-size="10.00">::GHSSecInfo::ghs_secinfo_t &gt;</text>
</a>
</g>
</g>
<!-- Node2&#45;&gt;Node1 -->
<g id="edge1" class="edge"><title>Node2&#45;&gt;Node1</title>
<path fill="none" stroke="#9a32cd" stroke-dasharray="5,2" d="M878.274,-216.59C898.203,-212.614 918.75,-208.516 936.37,-205.001"/>
<polygon fill="#9a32cd" stroke="#9a32cd" points="877.366,-213.202 868.244,-218.59 878.735,-220.067 877.366,-213.202"/>
<text text-anchor="middle" x="902" y="-217.5" font-family="Helvetica,sans-Serif" font-size="10.00"> m_info</text>
</g>
<!-- Node3 -->
<g id="node3" class="node"><title>Node3</title>
<g id="a_node3"><a xlink:href="classblfwk_1_1_g_h_s_sec_info.html#structblfwk_1_1_g_h_s_sec_info_1_1ghs__secinfo__t" target="_top" xlink:title="The structure of one .secinfo entry. ">
<polygon fill="white" stroke="black" points="479,-262.5 479,-292.5 583,-292.5 583,-262.5 479,-262.5"/>
<text text-anchor="start" x="487" y="-280.5" font-family="Helvetica,sans-Serif" font-size="10.00">blfwk::GHSSecInfo::</text>
<text text-anchor="middle" x="531" y="-269.5" font-family="Helvetica,sans-Serif" font-size="10.00">ghs_secinfo_t</text>
</a>
</g>
</g>
<!-- Node3&#45;&gt;Node2 -->
<g id="edge2" class="edge"><title>Node3&#45;&gt;Node2</title>
<path fill="none" stroke="#9a32cd" stroke-dasharray="5,2" d="M593.399,-267.089C630.342,-260.825 677.631,-252.807 716.741,-246.176"/>
<polygon fill="#9a32cd" stroke="#9a32cd" points="592.543,-263.684 583.269,-268.807 593.713,-270.586 592.543,-263.684"/>
<text text-anchor="middle" x="650.5" y="-266.5" font-family="Helvetica,sans-Serif" font-size="10.00"> _p</text>
</g>
<!-- Node4 -->
<g id="node4" class="node"><title>Node4</title>
<g id="a_node4"><a xlink:href="class_st_e_l_f_file.html" target="_top" xlink:title="Parser for Executable and Linking Format (ELF) files. ">
<polygon fill="white" stroke="black" points="762.5,-137 762.5,-156 822.5,-156 822.5,-137 762.5,-137"/>
<text text-anchor="middle" x="792.5" y="-144" font-family="Helvetica,sans-Serif" font-size="10.00">StELFFile</text>
</a>
</g>
</g>
<!-- Node4&#45;&gt;Node1 -->
<g id="edge3" class="edge"><title>Node4&#45;&gt;Node1</title>
<path fill="none" stroke="#9a32cd" stroke-dasharray="5,2" d="M832.735,-156.592C866.176,-165.194 913.904,-177.47 946.76,-185.921"/>
<polygon fill="#9a32cd" stroke="#9a32cd" points="833.405,-153.15 822.848,-154.049 831.661,-159.93 833.405,-153.15"/>
<text text-anchor="middle" x="902" y="-181.5" font-family="Helvetica,sans-Serif" font-size="10.00"> m_elf</text>
</g>
<!-- Node5 -->
<g id="node5" class="node"><title>Node5</title>
<polygon fill="white" stroke="#bfbfbf" points="485,-213.5 485,-243.5 577,-243.5 577,-213.5 485,-213.5"/>
<text text-anchor="start" x="493" y="-231.5" font-family="Helvetica,sans-Serif" font-size="10.00">std::vector&lt; Elf32</text>
<text text-anchor="middle" x="531" y="-220.5" font-family="Helvetica,sans-Serif" font-size="10.00">_Phdr &gt;</text>
</g>
<!-- Node5&#45;&gt;Node4 -->
<g id="edge4" class="edge"><title>Node5&#45;&gt;Node4</title>
<path fill="none" stroke="#9a32cd" stroke-dasharray="5,2" d="M586.917,-218.64C619.888,-211.993 662.399,-202.13 699,-189.5 725.953,-180.199 755.59,-165.59 773.874,-156.027"/>
<polygon fill="#9a32cd" stroke="#9a32cd" points="586.14,-215.226 577.008,-220.599 587.497,-222.093 586.14,-215.226"/>
<text text-anchor="middle" x="650.5" y="-218.5" font-family="Helvetica,sans-Serif" font-size="10.00"> m_programHeaders</text>
</g>
<!-- Node6 -->
<g id="node6" class="node"><title>Node6</title>
<g id="a_node6"><a xlink:href="struct_elf32___phdr.html" target="_top" xlink:title="ELF program header. ">
<polygon fill="white" stroke="black" points="300,-219 300,-238 364,-238 364,-219 300,-219"/>
<text text-anchor="middle" x="332" y="-226" font-family="Helvetica,sans-Serif" font-size="10.00">Elf32_Phdr</text>
</a>
</g>
</g>
<!-- Node6&#45;&gt;Node5 -->
<g id="edge5" class="edge"><title>Node6&#45;&gt;Node5</title>
<path fill="none" stroke="#9a32cd" stroke-dasharray="5,2" d="M374.222,-228.5C406.498,-228.5 451.348,-228.5 484.639,-228.5"/>
<polygon fill="#9a32cd" stroke="#9a32cd" points="374.215,-225 364.215,-228.5 374.215,-232 374.215,-225"/>
<text text-anchor="middle" x="438.5" y="-231.5" font-family="Helvetica,sans-Serif" font-size="10.00"> elements</text>
</g>
<!-- Node7 -->
<g id="node7" class="node"><title>Node7</title>
<g id="a_node7"><a xlink:title="STL class. ">
<polygon fill="white" stroke="#bfbfbf" points="497,-175 497,-194 565,-194 565,-175 497,-175"/>
<text text-anchor="middle" x="531" y="-182" font-family="Helvetica,sans-Serif" font-size="10.00">std::istream</text>
</a>
</g>
</g>
<!-- Node7&#45;&gt;Node4 -->
<g id="edge6" class="edge"><title>Node7&#45;&gt;Node4</title>
<path fill="none" stroke="#9a32cd" stroke-dasharray="5,2" d="M575.265,-178.373C608.987,-173.575 656.983,-166.699 699,-160.5 720.21,-157.371 744.14,-153.747 762.346,-150.97"/>
<polygon fill="#9a32cd" stroke="#9a32cd" points="574.688,-174.919 565.28,-179.792 575.673,-181.85 574.688,-174.919"/>
<text text-anchor="middle" x="650.5" y="-177.5" font-family="Helvetica,sans-Serif" font-size="10.00"> m_stream</text>
</g>
<!-- Node8 -->
<g id="node8" class="node"><title>Node8</title>
<g id="a_node8"><a xlink:title="STL class. ">
<polygon fill="white" stroke="#bfbfbf" points="283.5,-169.5 283.5,-199.5 380.5,-199.5 380.5,-169.5 283.5,-169.5"/>
<text text-anchor="start" x="291.5" y="-187.5" font-family="Helvetica,sans-Serif" font-size="10.00">std::basic_istream</text>
<text text-anchor="middle" x="332" y="-176.5" font-family="Helvetica,sans-Serif" font-size="10.00">&lt; char &gt;</text>
</a>
</g>
</g>
<!-- Node8&#45;&gt;Node7 -->
<g id="edge7" class="edge"><title>Node8&#45;&gt;Node7</title>
<path fill="none" stroke="midnightblue" d="M391.113,-184.5C425.609,-184.5 468.097,-184.5 496.929,-184.5"/>
<polygon fill="midnightblue" stroke="midnightblue" points="390.688,-181 380.688,-184.5 390.688,-188 390.688,-181"/>
</g>
<!-- Node9 -->
<g id="node9" class="node"><title>Node9</title>
<g id="a_node9"><a xlink:title="STL class. ">
<polygon fill="white" stroke="#bfbfbf" points="112,-175 112,-194 228,-194 228,-175 112,-175"/>
<text text-anchor="middle" x="170" y="-182" font-family="Helvetica,sans-Serif" font-size="10.00">std::basic_ios&lt; Char &gt;</text>
</a>
</g>
</g>
<!-- Node9&#45;&gt;Node8 -->
<g id="edge8" class="edge"><title>Node9&#45;&gt;Node8</title>
<path fill="none" stroke="midnightblue" d="M238.6,-184.5C253.637,-184.5 269.273,-184.5 283.314,-184.5"/>
<polygon fill="midnightblue" stroke="midnightblue" points="238.312,-181 228.312,-184.5 238.312,-188 238.312,-181"/>
</g>
<!-- Node10 -->
<g id="node10" class="node"><title>Node10</title>
<g id="a_node10"><a xlink:title="STL class. ">
<polygon fill="white" stroke="#bfbfbf" points="0,-175 0,-194 75,-194 75,-175 0,-175"/>
<text text-anchor="middle" x="37.5" y="-182" font-family="Helvetica,sans-Serif" font-size="10.00">std::ios_base</text>
</a>
</g>
</g>
<!-- Node10&#45;&gt;Node9 -->
<g id="edge9" class="edge"><title>Node10&#45;&gt;Node9</title>
<path fill="none" stroke="midnightblue" d="M85.3188,-184.5C93.8367,-184.5 102.811,-184.5 111.593,-184.5"/>
<polygon fill="midnightblue" stroke="midnightblue" points="85.1988,-181 75.1988,-184.5 85.1988,-188 85.1988,-181"/>
</g>
<!-- Node11 -->
<g id="node11" class="node"><title>Node11</title>
<g id="a_node11"><a xlink:href="struct_elf32___ehdr.html" target="_top" xlink:title="ELF file header. ">
<polygon fill="white" stroke="black" points="499,-137 499,-156 563,-156 563,-137 499,-137"/>
<text text-anchor="middle" x="531" y="-144" font-family="Helvetica,sans-Serif" font-size="10.00">Elf32_Ehdr</text>
</a>
</g>
</g>
<!-- Node11&#45;&gt;Node4 -->
<g id="edge10" class="edge"><title>Node11&#45;&gt;Node4</title>
<path fill="none" stroke="#9a32cd" stroke-dasharray="5,2" d="M573.077,-146.5C625.868,-146.5 716.205,-146.5 762.413,-146.5"/>
<polygon fill="#9a32cd" stroke="#9a32cd" points="573.044,-143 563.044,-146.5 573.044,-150 573.044,-143"/>
<text text-anchor="middle" x="650.5" y="-149.5" font-family="Helvetica,sans-Serif" font-size="10.00"> m_header</text>
</g>
<!-- Node12 -->
<g id="node12" class="node"><title>Node12</title>
<g id="a_node12"><a xlink:title="STL class. ">
<polygon fill="white" stroke="#bfbfbf" points="501,-99 501,-118 561,-118 561,-99 501,-99"/>
<text text-anchor="middle" x="531" y="-106" font-family="Helvetica,sans-Serif" font-size="10.00">std::string</text>
</a>
</g>
</g>
<!-- Node12&#45;&gt;Node4 -->
<g id="edge11" class="edge"><title>Node12&#45;&gt;Node4</title>
<path fill="none" stroke="#9a32cd" stroke-dasharray="5,2" d="M571.253,-113.637C605.12,-118.133 655.327,-124.953 699,-131.5 720.237,-134.684 744.167,-138.572 762.365,-141.592"/>
<polygon fill="#9a32cd" stroke="#9a32cd" points="571.665,-110.161 561.293,-112.319 570.747,-117.1 571.665,-110.161"/>
<text text-anchor="middle" x="650.5" y="-134.5" font-family="Helvetica,sans-Serif" font-size="10.00"> m_name</text>
</g>
<!-- Node13 -->
<g id="node13" class="node"><title>Node13</title>
<g id="a_node13"><a xlink:title="STL class. ">
<polygon fill="white" stroke="#bfbfbf" points="284.5,-93.5 284.5,-123.5 379.5,-123.5 379.5,-93.5 284.5,-93.5"/>
<text text-anchor="start" x="292.5" y="-111.5" font-family="Helvetica,sans-Serif" font-size="10.00">std::basic_string&lt;</text>
<text text-anchor="middle" x="332" y="-100.5" font-family="Helvetica,sans-Serif" font-size="10.00"> char &gt;</text>
</a>
</g>
</g>
<!-- Node13&#45;&gt;Node12 -->
<g id="edge12" class="edge"><title>Node13&#45;&gt;Node12</title>
<path fill="none" stroke="midnightblue" d="M390.122,-108.5C426.345,-108.5 471.693,-108.5 500.756,-108.5"/>
<polygon fill="midnightblue" stroke="midnightblue" points="389.686,-105 379.686,-108.5 389.686,-112 389.686,-105"/>
</g>
<!-- Node14 -->
<g id="node14" class="node"><title>Node14</title>
<polygon fill="white" stroke="#bfbfbf" points="485,-49.5 485,-79.5 577,-79.5 577,-49.5 485,-49.5"/>
<text text-anchor="start" x="493" y="-67.5" font-family="Helvetica,sans-Serif" font-size="10.00">std::vector&lt; Elf32</text>
<text text-anchor="middle" x="531" y="-56.5" font-family="Helvetica,sans-Serif" font-size="10.00">_Shdr &gt;</text>
</g>
<!-- Node14&#45;&gt;Node4 -->
<g id="edge13" class="edge"><title>Node14&#45;&gt;Node4</title>
<path fill="none" stroke="#9a32cd" stroke-dasharray="5,2" d="M586.917,-74.3601C619.888,-81.0074 662.399,-90.8697 699,-103.5 725.953,-112.801 755.59,-127.41 773.874,-136.973"/>
<polygon fill="#9a32cd" stroke="#9a32cd" points="587.497,-70.9071 577.008,-72.4009 586.14,-77.7742 587.497,-70.9071"/>
<text text-anchor="middle" x="650.5" y="-106.5" font-family="Helvetica,sans-Serif" font-size="10.00"> m_sectionHeaders</text>
</g>
<!-- Node15 -->
<g id="node15" class="node"><title>Node15</title>
<g id="a_node15"><a xlink:href="struct_elf32___shdr.html" target="_top" xlink:title="ELF section header. ">
<polygon fill="white" stroke="black" points="300,-55 300,-74 364,-74 364,-55 300,-55"/>
<text text-anchor="middle" x="332" y="-62" font-family="Helvetica,sans-Serif" font-size="10.00">Elf32_Shdr</text>
</a>
</g>
</g>
<!-- Node15&#45;&gt;Node14 -->
<g id="edge14" class="edge"><title>Node15&#45;&gt;Node14</title>
<path fill="none" stroke="#9a32cd" stroke-dasharray="5,2" d="M374.222,-64.5C406.498,-64.5 451.348,-64.5 484.639,-64.5"/>
<polygon fill="#9a32cd" stroke="#9a32cd" points="374.215,-61.0001 364.215,-64.5 374.215,-68.0001 374.215,-61.0001"/>
<text text-anchor="middle" x="438.5" y="-67.5" font-family="Helvetica,sans-Serif" font-size="10.00"> elements</text>
</g>
<!-- Node16 -->
<g id="node16" class="node"><title>Node16</title>
<polygon fill="white" stroke="#bfbfbf" points="478,-0.5 478,-30.5 584,-30.5 584,-0.5 478,-0.5"/>
<text text-anchor="start" x="486" y="-18.5" font-family="Helvetica,sans-Serif" font-size="10.00">std::map&lt; unsigned,</text>
<text text-anchor="middle" x="531" y="-7.5" font-family="Helvetica,sans-Serif" font-size="10.00"> SectionDataInfo &gt;</text>
</g>
<!-- Node16&#45;&gt;Node4 -->
<g id="edge15" class="edge"><title>Node16&#45;&gt;Node4</title>
<path fill="none" stroke="#9a32cd" stroke-dasharray="5,2" d="M593.905,-26.3085C626.555,-33.698 666.471,-45.4922 699,-63.5 734.866,-83.3551 768.446,-119.458 783.377,-136.753"/>
<polygon fill="#9a32cd" stroke="#9a32cd" points="594.538,-22.8642 584.022,-24.1546 593.047,-29.7037 594.538,-22.8642"/>
<text text-anchor="middle" x="650.5" y="-66.5" font-family="Helvetica,sans-Serif" font-size="10.00"> m_sectionDataCache</text>
</g>
<!-- Node17 -->
<g id="node17" class="node"><title>Node17</title>
<g id="a_node17"><a xlink:href="class_st_e_l_f_file.html#struct_st_e_l_f_file_1_1_section_data_info" target="_top" xlink:title="StELFFile::SectionDataInfo">
<polygon fill="white" stroke="black" points="265,-6 265,-25 399,-25 399,-6 265,-6"/>
<text text-anchor="middle" x="332" y="-13" font-family="Helvetica,sans-Serif" font-size="10.00">StELFFile::SectionDataInfo</text>
</a>
</g>
</g>
<!-- Node17&#45;&gt;Node16 -->
<g id="edge16" class="edge"><title>Node17&#45;&gt;Node16</title>
<path fill="none" stroke="#9a32cd" stroke-dasharray="5,2" d="M409.191,-15.5C432.109,-15.5 456.727,-15.5 477.722,-15.5"/>
<polygon fill="#9a32cd" stroke="#9a32cd" points="409.146,-12.0001 399.146,-15.5 409.146,-19.0001 409.146,-12.0001"/>
<text text-anchor="middle" x="438.5" y="-18.5" font-family="Helvetica,sans-Serif" font-size="10.00"> elements</text>
</g>
</g>
</svg>
