<?xml version="1.0" encoding="UTF-8" standalone="no"?>
<!DOCTYPE svg PUBLIC "-//W3C//DTD SVG 1.1//EN"
 "http://www.w3.org/Graphics/SVG/1.1/DTD/svg11.dtd">
<!-- Generated by graphviz version 2.38.0 (20140413.2041)
 -->
<!-- Title: StIntelHexFile Pages: 1 -->
<svg width="365pt" height="298pt"
 viewBox="0.00 0.00 364.50 298.00" xmlns="http://www.w3.org/2000/svg" xmlns:xlink="http://www.w3.org/1999/xlink">
<g id="graph0" class="graph" transform="scale(1 1) rotate(0) translate(4 294)">
<title>StIntelHexFile</title>
<polygon fill="white" stroke="none" points="-4,4 -4,-294 360.5,-294 360.5,4 -4,4"/>
<!-- Node1 -->
<g id="node1" class="node"><title>Node1</title>
<polygon fill="#bfbfbf" stroke="black" points="145.5,-0.5 145.5,-19.5 222.5,-19.5 222.5,-0.5 145.5,-0.5"/>
<text text-anchor="middle" x="184" y="-7.5" font-family="Helvetica,sans-Serif" font-size="10.00">StIntelHexFile</text>
</g>
<!-- Node2 -->
<g id="node2" class="node"><title>Node2</title>
<g id="a_node2"><a xlink:title="STL class. ">
<polygon fill="white" stroke="#bfbfbf" points="28,-73 28,-92 96,-92 96,-73 28,-73"/>
<text text-anchor="middle" x="62" y="-80" font-family="Helvetica,sans-Serif" font-size="10.00">std::istream</text>
</a>
</g>
</g>
<!-- Node2&#45;&gt;Node1 -->
<g id="edge1" class="edge"><title>Node2&#45;&gt;Node1</title>
<path fill="none" stroke="#9a32cd" stroke-dasharray="5,2" d="M84.2881,-67.3486C98.1699,-58.659 116.471,-47.4263 133,-38 144.139,-31.6472 156.889,-24.8972 166.855,-19.7354"/>
<polygon fill="#9a32cd" stroke="#9a32cd" points="82.0589,-64.6161 75.4598,-72.9048 85.7875,-70.5404 82.0589,-64.6161"/>
<text text-anchor="middle" x="156.5" y="-41" font-family="Helvetica,sans-Serif" font-size="10.00"> m_stream</text>
</g>
<!-- Node3 -->
<g id="node3" class="node"><title>Node3</title>
<g id="a_node3"><a xlink:title="STL class. ">
<polygon fill="white" stroke="#bfbfbf" points="9.5,-145.5 9.5,-175.5 106.5,-175.5 106.5,-145.5 9.5,-145.5"/>
<text text-anchor="start" x="17.5" y="-163.5" font-family="Helvetica,sans-Serif" font-size="10.00">std::basic_istream</text>
<text text-anchor="middle" x="58" y="-152.5" font-family="Helvetica,sans-Serif" font-size="10.00">&lt; char &gt;</text>
</a>
</g>
</g>
<!-- Node3&#45;&gt;Node2 -->
<g id="edge2" class="edge"><title>Node3&#45;&gt;Node2</title>
<path fill="none" stroke="midnightblue" d="M59.2808,-135.165C60.0581,-120.396 61.0027,-102.448 61.5493,-92.0635"/>
<polygon fill="midnightblue" stroke="midnightblue" points="55.7829,-135.035 58.7524,-145.205 62.7732,-135.403 55.7829,-135.035"/>
</g>
<!-- Node4 -->
<g id="node4" class="node"><title>Node4</title>
<g id="a_node4"><a xlink:title="STL class. ">
<polygon fill="white" stroke="#bfbfbf" points="0,-213.5 0,-232.5 116,-232.5 116,-213.5 0,-213.5"/>
<text text-anchor="middle" x="58" y="-220.5" font-family="Helvetica,sans-Serif" font-size="10.00">std::basic_ios&lt; Char &gt;</text>
</a>
</g>
</g>
<!-- Node4&#45;&gt;Node3 -->
<g id="edge3" class="edge"><title>Node4&#45;&gt;Node3</title>
<path fill="none" stroke="midnightblue" d="M58,-203.215C58,-194.356 58,-183.958 58,-175.759"/>
<polygon fill="midnightblue" stroke="midnightblue" points="54.5001,-203.332 58,-213.332 61.5001,-203.332 54.5001,-203.332"/>
</g>
<!-- Node5 -->
<g id="node5" class="node"><title>Node5</title>
<g id="a_node5"><a xlink:title="STL class. ">
<polygon fill="white" stroke="#bfbfbf" points="20.5,-270.5 20.5,-289.5 95.5,-289.5 95.5,-270.5 20.5,-270.5"/>
<text text-anchor="middle" x="58" y="-277.5" font-family="Helvetica,sans-Serif" font-size="10.00">std::ios_base</text>
</a>
</g>
</g>
<!-- Node5&#45;&gt;Node4 -->
<g id="edge4" class="edge"><title>Node5&#45;&gt;Node4</title>
<path fill="none" stroke="midnightblue" d="M58,-260.117C58,-250.817 58,-240.056 58,-232.715"/>
<polygon fill="midnightblue" stroke="midnightblue" points="54.5001,-260.406 58,-270.406 61.5001,-260.406 54.5001,-260.406"/>
</g>
<!-- Node6 -->
<g id="node6" class="node"><title>Node6</title>
<polygon fill="white" stroke="#bfbfbf" points="118.5,-67.5 118.5,-97.5 249.5,-97.5 249.5,-67.5 118.5,-67.5"/>
<text text-anchor="start" x="126.5" y="-85.5" font-family="Helvetica,sans-Serif" font-size="10.00">std::vector&lt; StIntelHexFile</text>
<text text-anchor="middle" x="184" y="-74.5" font-family="Helvetica,sans-Serif" font-size="10.00">::IntelHex &gt;</text>
</g>
<!-- Node6&#45;&gt;Node1 -->
<g id="edge5" class="edge"><title>Node6&#45;&gt;Node1</title>
<path fill="none" stroke="#9a32cd" stroke-dasharray="5,2" d="M184,-57.0913C184,-44.2136 184,-29.1974 184,-19.8932"/>
<polygon fill="#9a32cd" stroke="#9a32cd" points="180.5,-57.2332 184,-67.2333 187.5,-57.2333 180.5,-57.2332"/>
<text text-anchor="middle" x="208.5" y="-41" font-family="Helvetica,sans-Serif" font-size="10.00"> m_records</text>
</g>
<!-- Node7 -->
<g id="node7" class="node"><title>Node7</title>
<g id="a_node7"><a xlink:href="class_st_intel_hex_file.html#struct_st_intel_hex_file_1_1_intel_hex" target="_top" xlink:title="StIntelHexFile::IntelHex">
<polygon fill="white" stroke="black" points="124.5,-151 124.5,-170 243.5,-170 243.5,-151 124.5,-151"/>
<text text-anchor="middle" x="184" y="-158" font-family="Helvetica,sans-Serif" font-size="10.00">StIntelHexFile::IntelHex</text>
</a>
</g>
</g>
<!-- Node7&#45;&gt;Node6 -->
<g id="edge6" class="edge"><title>Node7&#45;&gt;Node6</title>
<path fill="none" stroke="#9a32cd" stroke-dasharray="5,2" d="M184,-140.782C184,-127.404 184,-109.688 184,-97.5198"/>
<polygon fill="#9a32cd" stroke="#9a32cd" points="180.5,-140.782 184,-150.782 187.5,-140.782 180.5,-140.782"/>
<text text-anchor="middle" x="205.5" y="-119" font-family="Helvetica,sans-Serif" font-size="10.00"> elements</text>
</g>
<!-- Node8 -->
<g id="node8" class="node"><title>Node8</title>
<g id="a_node8"><a xlink:title="STL class. ">
<polygon fill="white" stroke="#bfbfbf" points="274,-73 274,-92 334,-92 334,-73 274,-73"/>
<text text-anchor="middle" x="304" y="-80" font-family="Helvetica,sans-Serif" font-size="10.00">std::string</text>
</a>
</g>
</g>
<!-- Node8&#45;&gt;Node1 -->
<g id="edge7" class="edge"><title>Node8&#45;&gt;Node1</title>
<path fill="none" stroke="#9a32cd" stroke-dasharray="5,2" d="M283.118,-67.1359C270.074,-58.367 252.81,-47.1258 237,-38 225.552,-31.392 212.302,-24.642 201.914,-19.544"/>
<polygon fill="#9a32cd" stroke="#9a32cd" points="281.163,-70.0393 291.404,-72.7552 285.092,-64.2458 281.163,-70.0393"/>
<text text-anchor="middle" x="274.5" y="-41" font-family="Helvetica,sans-Serif" font-size="10.00"> m_name</text>
</g>
<!-- Node9 -->
<g id="node9" class="node"><title>Node9</title>
<g id="a_node9"><a xlink:title="STL class. ">
<polygon fill="white" stroke="#bfbfbf" points="261.5,-145.5 261.5,-175.5 356.5,-175.5 356.5,-145.5 261.5,-145.5"/>
<text text-anchor="start" x="269.5" y="-163.5" font-family="Helvetica,sans-Serif" font-size="10.00">std::basic_string&lt;</text>
<text text-anchor="middle" x="309" y="-152.5" font-family="Helvetica,sans-Serif" font-size="10.00"> char &gt;</text>
</a>
</g>
</g>
<!-- Node9&#45;&gt;Node8 -->
<g id="edge8" class="edge"><title>Node9&#45;&gt;Node8</title>
<path fill="none" stroke="midnightblue" d="M307.399,-135.165C306.427,-120.396 305.247,-102.448 304.563,-92.0635"/>
<polygon fill="midnightblue" stroke="midnightblue" points="303.911,-135.456 308.06,-145.205 310.895,-134.997 303.911,-135.456"/>
</g>
</g>
</svg>
