<?xml version="1.0" encoding="UTF-8" standalone="no"?>
<!DOCTYPE svg PUBLIC "-//W3C//DTD SVG 1.1//EN"
 "http://www.w3.org/Graphics/SVG/1.1/DTD/svg11.dtd">
<!-- Generated by graphviz version 2.38.0 (20140413.2041)
 -->
<!-- Title: blfwk::Command Pages: 1 -->
<svg width="497pt" height="230pt"
 viewBox="0.00 0.00 496.50 230.00" xmlns="http://www.w3.org/2000/svg" xmlns:xlink="http://www.w3.org/1999/xlink">
<g id="graph0" class="graph" transform="scale(1 1) rotate(0) translate(4 226)">
<title>blfwk::Command</title>
<polygon fill="white" stroke="none" points="-4,4 -4,-226 492.5,-226 492.5,4 -4,4"/>
<!-- Node1 -->
<g id="node1" class="node"><title>Node1</title>
<polygon fill="#bfbfbf" stroke="black" points="164.5,-0.5 164.5,-19.5 253.5,-19.5 253.5,-0.5 164.5,-0.5"/>
<text text-anchor="middle" x="209" y="-7.5" font-family="Helvetica,sans-Serif" font-size="10.00">blfwk::Command</text>
</g>
<!-- Node2 -->
<g id="node2" class="node"><title>Node2</title>
<polygon fill="white" stroke="#bfbfbf" points="0,-67.5 0,-86.5 114,-86.5 114,-67.5 0,-67.5"/>
<text text-anchor="middle" x="57" y="-74.5" font-family="Helvetica,sans-Serif" font-size="10.00">std::vector&lt; uint32_t &gt;</text>
</g>
<!-- Node2&#45;&gt;Node1 -->
<g id="edge1" class="edge"><title>Node2&#45;&gt;Node1</title>
<path fill="none" stroke="#9a32cd" stroke-dasharray="5,2" d="M52.9184,-57.4186C52.5028,-50.5915 53.4827,-43.2547 58,-38 71.5848,-22.1978 124.992,-15.6258 164.456,-12.9042"/>
<polygon fill="#9a32cd" stroke="#9a32cd" points="49.4643,-57.9862 54.4124,-67.3546 56.3865,-56.9453 49.4643,-57.9862"/>
<text text-anchor="middle" x="101.5" y="-41" font-family="Helvetica,sans-Serif" font-size="10.00"> m_responseValues</text>
</g>
<!-- Node3 -->
<g id="node3" class="node"><title>Node3</title>
<g id="a_node3"><a xlink:title="STL class. ">
<polygon fill="white" stroke="#bfbfbf" points="179,-134.5 179,-153.5 239,-153.5 239,-134.5 179,-134.5"/>
<text text-anchor="middle" x="209" y="-141.5" font-family="Helvetica,sans-Serif" font-size="10.00">std::string</text>
</a>
</g>
</g>
<!-- Node3&#45;&gt;Node1 -->
<g id="edge2" class="edge"><title>Node3&#45;&gt;Node1</title>
<path fill="none" stroke="#9a32cd" stroke-dasharray="5,2" d="M192.726,-126.712C183.524,-116.312 172.905,-102.001 168,-87 159.521,-61.0655 183.821,-33.5938 198.578,-19.8787"/>
<polygon fill="#9a32cd" stroke="#9a32cd" points="190.285,-129.226 199.665,-134.152 195.404,-124.452 190.285,-129.226"/>
<text text-anchor="middle" x="211.5" y="-74.5" font-family="Helvetica,sans-Serif" font-size="10.00"> m_responseDetails</text>
</g>
<!-- Node6 -->
<g id="node6" class="node"><title>Node6</title>
<polygon fill="white" stroke="#bfbfbf" points="264.5,-67.5 264.5,-86.5 387.5,-86.5 387.5,-67.5 264.5,-67.5"/>
<text text-anchor="middle" x="326" y="-74.5" font-family="Helvetica,sans-Serif" font-size="10.00">std::vector&lt; std::string &gt;</text>
</g>
<!-- Node3&#45;&gt;Node6 -->
<g id="edge6" class="edge"><title>Node3&#45;&gt;Node6</title>
<path fill="none" stroke="#9a32cd" stroke-dasharray="5,2" d="M233.683,-129.287C256.872,-116.405 290.856,-97.5243 310.471,-86.6273"/>
<polygon fill="#9a32cd" stroke="#9a32cd" points="231.821,-126.318 224.779,-134.234 235.22,-132.437 231.821,-126.318"/>
<text text-anchor="middle" x="296.5" y="-108" font-family="Helvetica,sans-Serif" font-size="10.00"> elements</text>
</g>
<!-- Node4 -->
<g id="node4" class="node"><title>Node4</title>
<g id="a_node4"><a xlink:title="STL class. ">
<polygon fill="white" stroke="#bfbfbf" points="161.5,-191.5 161.5,-221.5 256.5,-221.5 256.5,-191.5 161.5,-191.5"/>
<text text-anchor="start" x="169.5" y="-209.5" font-family="Helvetica,sans-Serif" font-size="10.00">std::basic_string&lt;</text>
<text text-anchor="middle" x="209" y="-198.5" font-family="Helvetica,sans-Serif" font-size="10.00"> char &gt;</text>
</a>
</g>
</g>
<!-- Node4&#45;&gt;Node3 -->
<g id="edge3" class="edge"><title>Node4&#45;&gt;Node3</title>
<path fill="none" stroke="midnightblue" d="M209,-181.352C209,-171.513 209,-160.775 209,-153.54"/>
<polygon fill="midnightblue" stroke="midnightblue" points="205.5,-181.468 209,-191.468 212.5,-181.468 205.5,-181.468"/>
</g>
<!-- Node5 -->
<g id="node5" class="node"><title>Node5</title>
<g id="a_node5"><a xlink:href="classblfwk_1_1_progress.html" target="_top" xlink:title="Contains the callback function for progress and abort phase. ">
<polygon fill="white" stroke="black" points="405.5,-67.5 405.5,-86.5 488.5,-86.5 488.5,-67.5 405.5,-67.5"/>
<text text-anchor="middle" x="447" y="-74.5" font-family="Helvetica,sans-Serif" font-size="10.00">blfwk::Progress</text>
</a>
</g>
</g>
<!-- Node5&#45;&gt;Node1 -->
<g id="edge4" class="edge"><title>Node5&#45;&gt;Node1</title>
<path fill="none" stroke="#9a32cd" stroke-dasharray="5,2" d="M407.778,-64.6283C381.098,-56.9541 344.97,-46.6818 313,-38 289.597,-31.6447 263.144,-24.7814 242.773,-19.5649"/>
<polygon fill="#9a32cd" stroke="#9a32cd" points="406.934,-68.0275 417.513,-67.4335 408.873,-61.3012 406.934,-68.0275"/>
<text text-anchor="middle" x="377.5" y="-41" font-family="Helvetica,sans-Serif" font-size="10.00"> m_progress</text>
</g>
<!-- Node6&#45;&gt;Node1 -->
<g id="edge5" class="edge"><title>Node6&#45;&gt;Node1</title>
<path fill="none" stroke="#9a32cd" stroke-dasharray="5,2" d="M301.317,-62.2872C278.128,-49.4047 244.144,-30.5243 224.529,-19.6273"/>
<polygon fill="#9a32cd" stroke="#9a32cd" points="299.78,-65.4369 310.221,-67.2338 303.179,-59.3178 299.78,-65.4369"/>
<text text-anchor="middle" x="292" y="-41" font-family="Helvetica,sans-Serif" font-size="10.00"> m_argv</text>
</g>
</g>
</svg>
