<?xml version="1.0" encoding="UTF-8" standalone="no"?>
<!DOCTYPE svg PUBLIC "-//W3C//DTD SVG 1.1//EN"
 "http://www.w3.org/Graphics/SVG/1.1/DTD/svg11.dtd">
<!-- Generated by graphviz version 2.38.0 (20140413.2041)
 -->
<!-- Title: elftosb::SourceFile Pages: 1 -->
<svg width="421pt" height="84pt"
 viewBox="0.00 0.00 421.00 84.00" xmlns="http://www.w3.org/2000/svg" xmlns:xlink="http://www.w3.org/1999/xlink">
<g id="graph0" class="graph" transform="scale(1 1) rotate(0) translate(4 80)">
<title>elftosb::SourceFile</title>
<polygon fill="white" stroke="none" points="-4,4 -4,-80 417,-80 417,4 -4,4"/>
<!-- Node1 -->
<g id="node1" class="node"><title>Node1</title>
<polygon fill="#bfbfbf" stroke="black" points="152.5,-56.5 152.5,-75.5 250.5,-75.5 250.5,-56.5 152.5,-56.5"/>
<text text-anchor="middle" x="201.5" y="-63.5" font-family="Helvetica,sans-Serif" font-size="10.00">elftosb::SourceFile</text>
</g>
<!-- Node2 -->
<g id="node2" class="node"><title>Node2</title>
<g id="a_node2"><a xlink:href="classelftosb_1_1_binary_source_file.html" target="_top" xlink:title="Binary data file. ">
<polygon fill="white" stroke="black" points="0,-0.5 0,-19.5 125,-19.5 125,-0.5 0,-0.5"/>
<text text-anchor="middle" x="62.5" y="-7.5" font-family="Helvetica,sans-Serif" font-size="10.00">elftosb::BinarySourceFile</text>
</a>
</g>
</g>
<!-- Node1&#45;&gt;Node2 -->
<g id="edge1" class="edge"><title>Node1&#45;&gt;Node2</title>
<path fill="none" stroke="midnightblue" d="M170.024,-52.772C143.915,-42.6287 107.461,-28.4669 84.4219,-19.5164"/>
<polygon fill="midnightblue" stroke="midnightblue" points="168.886,-56.0847 179.475,-56.4435 171.421,-49.5598 168.886,-56.0847"/>
</g>
<!-- Node3 -->
<g id="node3" class="node"><title>Node3</title>
<g id="a_node3"><a xlink:href="classelftosb_1_1_e_l_f_source_file.html" target="_top" xlink:title="Executable and Loading Format (ELF) source file. ">
<polygon fill="white" stroke="black" points="143.5,-0.5 143.5,-19.5 259.5,-19.5 259.5,-0.5 143.5,-0.5"/>
<text text-anchor="middle" x="201.5" y="-7.5" font-family="Helvetica,sans-Serif" font-size="10.00">elftosb::ELFSourceFile</text>
</a>
</g>
</g>
<!-- Node1&#45;&gt;Node3 -->
<g id="edge2" class="edge"><title>Node1&#45;&gt;Node3</title>
<path fill="none" stroke="midnightblue" d="M201.5,-45.8045C201.5,-36.9102 201.5,-26.7798 201.5,-19.7511"/>
<polygon fill="midnightblue" stroke="midnightblue" points="198,-46.083 201.5,-56.083 205,-46.083 198,-46.083"/>
</g>
<!-- Node4 -->
<g id="node4" class="node"><title>Node4</title>
<g id="a_node4"><a xlink:href="classelftosb_1_1_s_record_source_file.html" target="_top" xlink:title="Executable file in the Motorola S&#45;record format. ">
<polygon fill="white" stroke="black" points="278,-0.5 278,-19.5 413,-19.5 413,-0.5 278,-0.5"/>
<text text-anchor="middle" x="345.5" y="-7.5" font-family="Helvetica,sans-Serif" font-size="10.00">elftosb::SRecordSourceFile</text>
</a>
</g>
</g>
<!-- Node1&#45;&gt;Node4 -->
<g id="edge3" class="edge"><title>Node1&#45;&gt;Node4</title>
<path fill="none" stroke="midnightblue" d="M233.751,-52.9058C260.824,-42.7536 298.817,-28.5063 322.79,-19.5164"/>
<polygon fill="midnightblue" stroke="midnightblue" points="232.452,-49.6551 224.317,-56.4435 234.909,-56.2094 232.452,-49.6551"/>
</g>
</g>
</svg>
