<?xml version="1.0" encoding="UTF-8" standalone="no"?>
<!DOCTYPE svg PUBLIC "-//W3C//DTD SVG 1.1//EN"
 "http://www.w3.org/Graphics/SVG/1.1/DTD/svg11.dtd">
<!-- Generated by graphviz version 2.38.0 (20140413.2041)
 -->
<!-- Title: AESCounterBase Pages: 1 -->
<svg width="226pt" height="84pt"
 viewBox="0.00 0.00 225.50 84.00" xmlns="http://www.w3.org/2000/svg" xmlns:xlink="http://www.w3.org/1999/xlink">
<g id="graph0" class="graph" transform="scale(1 1) rotate(0) translate(4 80)">
<title>AESCounterBase</title>
<polygon fill="white" stroke="none" points="-4,4 -4,-80 221.5,-80 221.5,4 -4,4"/>
<!-- Node1 -->
<g id="node1" class="node"><title>Node1</title>
<polygon fill="#bfbfbf" stroke="black" points="60,-56.5 60,-75.5 153,-75.5 153,-56.5 60,-56.5"/>
<text text-anchor="middle" x="106.5" y="-63.5" font-family="Helvetica,sans-Serif" font-size="10.00">AESCounterBase</text>
</g>
<!-- Node2 -->
<g id="node2" class="node"><title>Node2</title>
<g id="a_node2"><a xlink:href="class_a_e_s_counter.html" target="_top" xlink:title="Generic AES Counter class. ">
<polygon fill="white" stroke="black" points="0,-0.5 0,-19.5 95,-19.5 95,-0.5 0,-0.5"/>
<text text-anchor="middle" x="47.5" y="-7.5" font-family="Helvetica,sans-Serif" font-size="10.00">AESCounter&lt; S &gt;</text>
</a>
</g>
</g>
<!-- Node1&#45;&gt;Node2 -->
<g id="edge1" class="edge"><title>Node1&#45;&gt;Node2</title>
<path fill="none" stroke="midnightblue" d="M83.7754,-49.8197C72.138,-40.1452 59.1416,-27.9481 52.0031,-19.8339"/>
<polygon fill="midnightblue" stroke="midnightblue" points="81.9106,-52.8101 91.9058,-56.324 86.2835,-47.344 81.9106,-52.8101"/>
</g>
<!-- Node1&#45;&gt;Node2 -->
<g id="edge2" class="edge"><title>Node1&#45;&gt;Node2</title>
<path fill="none" stroke="midnightblue" d="M94.9631,-48.7175C85.4931,-39.1997 72.4024,-27.5608 62.1924,-19.7511"/>
<polygon fill="midnightblue" stroke="midnightblue" points="92.5114,-51.2189 101.924,-56.083 97.599,-46.411 92.5114,-51.2189"/>
</g>
<!-- Node3 -->
<g id="node3" class="node"><title>Node3</title>
<g id="a_node3"><a xlink:href="class_a_e_s_counter.html" target="_top" xlink:title="AESCounter\&lt; 128 \&gt;">
<polygon fill="white" stroke="black" points="113.5,-0.5 113.5,-19.5 217.5,-19.5 217.5,-0.5 113.5,-0.5"/>
<text text-anchor="middle" x="165.5" y="-7.5" font-family="Helvetica,sans-Serif" font-size="10.00">AESCounter&lt; 128 &gt;</text>
</a>
</g>
</g>
<!-- Node1&#45;&gt;Node3 -->
<g id="edge3" class="edge"><title>Node1&#45;&gt;Node3</title>
<path fill="none" stroke="midnightblue" d="M118.037,-48.7175C127.507,-39.1997 140.598,-27.5608 150.808,-19.7511"/>
<polygon fill="midnightblue" stroke="midnightblue" points="115.401,-46.411 111.076,-56.083 120.489,-51.2189 115.401,-46.411"/>
</g>
<!-- Node1&#45;&gt;Node3 -->
<g id="edge4" class="edge"><title>Node1&#45;&gt;Node3</title>
<path fill="none" stroke="midnightblue" d="M129.225,-49.8197C140.862,-40.1452 153.858,-27.9481 160.997,-19.8339"/>
<polygon fill="midnightblue" stroke="midnightblue" points="126.717,-47.344 121.094,-56.324 131.089,-52.8101 126.717,-47.344"/>
</g>
</g>
</svg>
