<?xml version="1.0" encoding="UTF-8" standalone="no"?>
<!DOCTYPE svg PUBLIC "-//W3C//DTD SVG 1.1//EN"
 "http://www.w3.org/Graphics/SVG/1.1/DTD/svg11.dtd">
<!-- Generated by graphviz version 2.38.0 (20140413.2041)
 -->
<!-- Title: elftosb::BooleanNotExprASTNode Pages: 1 -->
<svg width="187pt" height="297pt"
 viewBox="0.00 0.00 186.50 297.00" xmlns="http://www.w3.org/2000/svg" xmlns:xlink="http://www.w3.org/1999/xlink">
<g id="graph0" class="graph" transform="scale(1 1) rotate(0) translate(4 293)">
<title>elftosb::BooleanNotExprASTNode</title>
<polygon fill="white" stroke="none" points="-4,4 -4,-293 182.5,-293 182.5,4 -4,4"/>
<!-- Node1 -->
<g id="node1" class="node"><title>Node1</title>
<polygon fill="#bfbfbf" stroke="black" points="0,-0.5 0,-19.5 163,-19.5 163,-0.5 0,-0.5"/>
<text text-anchor="middle" x="81.5" y="-7.5" font-family="Helvetica,sans-Serif" font-size="10.00">elftosb::BooleanNotExprASTNode</text>
</g>
<!-- Node2 -->
<g id="node2" class="node"><title>Node2</title>
<g id="a_node2"><a xlink:href="classelftosb_1_1_expr_a_s_t_node.html" target="_top" xlink:title="Abstract base class for all expression AST nodes. ">
<polygon fill="white" stroke="black" points="14,-145.5 14,-164.5 127,-164.5 127,-145.5 14,-145.5"/>
<text text-anchor="middle" x="70.5" y="-152.5" font-family="Helvetica,sans-Serif" font-size="10.00">elftosb::ExprASTNode</text>
</a>
</g>
</g>
<!-- Node2&#45;&gt;Node1 -->
<g id="edge1" class="edge"><title>Node2&#45;&gt;Node1</title>
<path fill="none" stroke="midnightblue" d="M70.5657,-135.249C70.765,-117.605 71.4255,-90.4637 73.5,-67 74.9877,-50.1736 78.0876,-30.6784 79.9618,-19.6963"/>
<polygon fill="midnightblue" stroke="midnightblue" points="67.0653,-135.312 70.4911,-145.337 74.0651,-135.363 67.0653,-135.312"/>
</g>
<!-- Node5 -->
<g id="node5" class="node"><title>Node5</title>
<g id="a_node5"><a xlink:href="group__smart__pointer.html" target="_top" xlink:title="smart_ptr\&lt; elftosb\l::ExprASTNode \&gt;">
<polygon fill="white" stroke="black" points="83,-67.5 83,-97.5 178,-97.5 178,-67.5 83,-67.5"/>
<text text-anchor="start" x="91" y="-85.5" font-family="Helvetica,sans-Serif" font-size="10.00">smart_ptr&lt; elftosb</text>
<text text-anchor="middle" x="130.5" y="-74.5" font-family="Helvetica,sans-Serif" font-size="10.00">::ExprASTNode &gt;</text>
</a>
</g>
</g>
<!-- Node2&#45;&gt;Node5 -->
<g id="edge6" class="edge"><title>Node2&#45;&gt;Node5</title>
<path fill="none" stroke="#9a32cd" stroke-dasharray="5,2" d="M84.6338,-137.393C94.9402,-125.283 108.754,-109.051 118.52,-97.5762"/>
<polygon fill="#9a32cd" stroke="#9a32cd" points="81.673,-135.471 77.8572,-145.355 87.0038,-140.008 81.673,-135.471"/>
<text text-anchor="middle" x="109.5" y="-119" font-family="Helvetica,sans-Serif" font-size="10.00"> _p</text>
</g>
<!-- Node3 -->
<g id="node3" class="node"><title>Node3</title>
<g id="a_node3"><a xlink:href="classelftosb_1_1_a_s_t_node.html" target="_top" xlink:title="The base class for all AST node classes. ">
<polygon fill="white" stroke="black" points="24.5,-202.5 24.5,-221.5 116.5,-221.5 116.5,-202.5 24.5,-202.5"/>
<text text-anchor="middle" x="70.5" y="-209.5" font-family="Helvetica,sans-Serif" font-size="10.00">elftosb::ASTNode</text>
</a>
</g>
</g>
<!-- Node3&#45;&gt;Node2 -->
<g id="edge2" class="edge"><title>Node3&#45;&gt;Node2</title>
<path fill="none" stroke="midnightblue" d="M70.5,-192.117C70.5,-182.817 70.5,-172.056 70.5,-164.715"/>
<polygon fill="midnightblue" stroke="midnightblue" points="67.0001,-192.406 70.5,-202.406 74.0001,-192.406 67.0001,-192.406"/>
</g>
<!-- Node3&#45;&gt;Node3 -->
<g id="edge4" class="edge"><title>Node3&#45;&gt;Node3</title>
<path fill="none" stroke="#9a32cd" stroke-dasharray="5,2" d="M126.774,-216.077C131.534,-215.205 134.5,-213.846 134.5,-212 134.5,-209.047 126.906,-207.34 116.524,-206.878"/>
<polygon fill="#9a32cd" stroke="#9a32cd" points="126.118,-212.626 116.524,-217.122 126.828,-219.59 126.118,-212.626"/>
<text text-anchor="middle" x="156.5" y="-209.5" font-family="Helvetica,sans-Serif" font-size="10.00"> m_parent</text>
</g>
<!-- Node4 -->
<g id="node4" class="node"><title>Node4</title>
<g id="a_node4"><a xlink:href="structelftosb_1_1token__loc__t.html" target="_top" xlink:title="Token location in the source file. ">
<polygon fill="white" stroke="black" points="20,-269.5 20,-288.5 121,-288.5 121,-269.5 20,-269.5"/>
<text text-anchor="middle" x="70.5" y="-276.5" font-family="Helvetica,sans-Serif" font-size="10.00">elftosb::token_loc_t</text>
</a>
</g>
</g>
<!-- Node4&#45;&gt;Node3 -->
<g id="edge3" class="edge"><title>Node4&#45;&gt;Node3</title>
<path fill="none" stroke="#9a32cd" stroke-dasharray="5,2" d="M70.5,-259.037C70.5,-246.67 70.5,-231.12 70.5,-221.627"/>
<polygon fill="#9a32cd" stroke="#9a32cd" points="67.0001,-259.234 70.5,-269.234 74.0001,-259.234 67.0001,-259.234"/>
<text text-anchor="middle" x="96" y="-243" font-family="Helvetica,sans-Serif" font-size="10.00"> m_location</text>
</g>
<!-- Node5&#45;&gt;Node1 -->
<g id="edge5" class="edge"><title>Node5&#45;&gt;Node1</title>
<path fill="none" stroke="#9a32cd" stroke-dasharray="5,2" d="M114.866,-59.006C105.638,-45.7295 94.4712,-29.6626 87.6811,-19.8932"/>
<polygon fill="#9a32cd" stroke="#9a32cd" points="112.003,-61.0194 120.584,-67.2333 117.751,-57.0243 112.003,-61.0194"/>
<text text-anchor="middle" x="124.5" y="-41" font-family="Helvetica,sans-Serif" font-size="10.00"> m_expr</text>
</g>
</g>
</svg>
