<?xml version="1.0" encoding="UTF-8" standalone="no"?>
<!DOCTYPE svg PUBLIC "-//W3C//DTD SVG 1.1//EN"
 "http://www.w3.org/Graphics/SVG/1.1/DTD/svg11.dtd">
<!-- Generated by graphviz version 2.38.0 (20140413.2041)
 -->
<!-- Title: elftosb::SourceFileFunctionASTNode Pages: 1 -->
<svg width="267pt" height="262pt"
 viewBox="0.00 0.00 267.00 262.00" xmlns="http://www.w3.org/2000/svg" xmlns:xlink="http://www.w3.org/1999/xlink">
<g id="graph0" class="graph" transform="scale(1 1) rotate(0) translate(4 258)">
<title>elftosb::SourceFileFunctionASTNode</title>
<polygon fill="white" stroke="none" points="-4,4 -4,-258 263,-258 263,4 -4,4"/>
<!-- Node1 -->
<g id="node1" class="node"><title>Node1</title>
<polygon fill="#bfbfbf" stroke="black" points="77,-0.5 77,-30.5 212,-30.5 212,-0.5 77,-0.5"/>
<text text-anchor="start" x="85" y="-18.5" font-family="Helvetica,sans-Serif" font-size="10.00">elftosb::SourceFileFunction</text>
<text text-anchor="middle" x="144.5" y="-7.5" font-family="Helvetica,sans-Serif" font-size="10.00">ASTNode</text>
</g>
<!-- Node2 -->
<g id="node2" class="node"><title>Node2</title>
<g id="a_node2"><a xlink:href="classelftosb_1_1_expr_a_s_t_node.html" target="_top" xlink:title="Abstract base class for all expression AST nodes. ">
<polygon fill="white" stroke="black" points="8,-89.5 8,-108.5 121,-108.5 121,-89.5 8,-89.5"/>
<text text-anchor="middle" x="64.5" y="-96.5" font-family="Helvetica,sans-Serif" font-size="10.00">elftosb::ExprASTNode</text>
</a>
</g>
</g>
<!-- Node2&#45;&gt;Node1 -->
<g id="edge1" class="edge"><title>Node2&#45;&gt;Node1</title>
<path fill="none" stroke="midnightblue" d="M80.417,-81.7846C95.0999,-66.8264 116.68,-44.8419 130.662,-30.5974"/>
<polygon fill="midnightblue" stroke="midnightblue" points="77.5688,-79.6898 73.0614,-89.2781 82.5643,-84.5934 77.5688,-79.6898"/>
</g>
<!-- Node3 -->
<g id="node3" class="node"><title>Node3</title>
<g id="a_node3"><a xlink:href="classelftosb_1_1_a_s_t_node.html" target="_top" xlink:title="The base class for all AST node classes. ">
<polygon fill="white" stroke="black" points="4.5,-156.5 4.5,-175.5 96.5,-175.5 96.5,-156.5 4.5,-156.5"/>
<text text-anchor="middle" x="50.5" y="-163.5" font-family="Helvetica,sans-Serif" font-size="10.00">elftosb::ASTNode</text>
</a>
</g>
</g>
<!-- Node3&#45;&gt;Node2 -->
<g id="edge2" class="edge"><title>Node3&#45;&gt;Node2</title>
<path fill="none" stroke="midnightblue" d="M54.503,-146.415C57.1794,-133.988 60.5764,-118.217 62.6418,-108.627"/>
<polygon fill="midnightblue" stroke="midnightblue" points="51.0722,-145.721 52.3881,-156.234 57.9153,-147.195 51.0722,-145.721"/>
</g>
<!-- Node3&#45;&gt;Node3 -->
<g id="edge4" class="edge"><title>Node3&#45;&gt;Node3</title>
<path fill="none" stroke="#9a32cd" stroke-dasharray="5,2" d="M106.774,-170.66C111.534,-169.663 114.5,-168.109 114.5,-166 114.5,-162.625 106.906,-160.674 96.5242,-160.146"/>
<polygon fill="#9a32cd" stroke="#9a32cd" points="106.052,-167.22 96.5242,-171.854 106.862,-174.173 106.052,-167.22"/>
<text text-anchor="middle" x="136.5" y="-163.5" font-family="Helvetica,sans-Serif" font-size="10.00"> m_parent</text>
</g>
<!-- Node4 -->
<g id="node4" class="node"><title>Node4</title>
<g id="a_node4"><a xlink:href="structelftosb_1_1token__loc__t.html" target="_top" xlink:title="Token location in the source file. ">
<polygon fill="white" stroke="black" points="0,-229 0,-248 101,-248 101,-229 0,-229"/>
<text text-anchor="middle" x="50.5" y="-236" font-family="Helvetica,sans-Serif" font-size="10.00">elftosb::token_loc_t</text>
</a>
</g>
</g>
<!-- Node4&#45;&gt;Node3 -->
<g id="edge3" class="edge"><title>Node4&#45;&gt;Node3</title>
<path fill="none" stroke="#9a32cd" stroke-dasharray="5,2" d="M50.5,-218.442C50.5,-204.53 50.5,-186.32 50.5,-175.715"/>
<polygon fill="#9a32cd" stroke="#9a32cd" points="47.0001,-218.855 50.5,-228.855 54.0001,-218.855 47.0001,-218.855"/>
<text text-anchor="middle" x="76" y="-197" font-family="Helvetica,sans-Serif" font-size="10.00"> m_location</text>
</g>
<!-- Node5 -->
<g id="node5" class="node"><title>Node5</title>
<g id="a_node5"><a xlink:href="group__smart__pointer.html" target="_top" xlink:title="smart_ptr\&lt; std::string \&gt;">
<polygon fill="white" stroke="black" points="140,-89.5 140,-108.5 259,-108.5 259,-89.5 140,-89.5"/>
<text text-anchor="middle" x="199.5" y="-96.5" font-family="Helvetica,sans-Serif" font-size="10.00">smart_ptr&lt; std::string &gt;</text>
</a>
</g>
</g>
<!-- Node5&#45;&gt;Node1 -->
<g id="edge5" class="edge"><title>Node5&#45;&gt;Node1</title>
<path fill="none" stroke="#9a32cd" stroke-dasharray="5,2" d="M187.991,-80.9464C177.915,-66.0148 163.448,-44.5781 154.014,-30.5974"/>
<polygon fill="#9a32cd" stroke="#9a32cd" points="185.119,-82.9468 193.614,-89.2781 190.921,-79.0311 185.119,-82.9468"/>
<text text-anchor="middle" x="217.5" y="-63" font-family="Helvetica,sans-Serif" font-size="10.00"> m_functionName</text>
<text text-anchor="middle" x="217.5" y="-52" font-family="Helvetica,sans-Serif" font-size="10.00">m_sourceFile</text>
</g>
<!-- Node6 -->
<g id="node6" class="node"><title>Node6</title>
<g id="a_node6"><a xlink:title="STL class. ">
<polygon fill="white" stroke="#bfbfbf" points="176.5,-156.5 176.5,-175.5 236.5,-175.5 236.5,-156.5 176.5,-156.5"/>
<text text-anchor="middle" x="206.5" y="-163.5" font-family="Helvetica,sans-Serif" font-size="10.00">std::string</text>
</a>
</g>
</g>
<!-- Node6&#45;&gt;Node5 -->
<g id="edge6" class="edge"><title>Node6&#45;&gt;Node5</title>
<path fill="none" stroke="#9a32cd" stroke-dasharray="5,2" d="M204.458,-146.037C203.126,-133.67 201.451,-118.12 200.429,-108.627"/>
<polygon fill="#9a32cd" stroke="#9a32cd" points="201.005,-146.666 205.556,-156.234 207.965,-145.917 201.005,-146.666"/>
<text text-anchor="middle" x="209.5" y="-130" font-family="Helvetica,sans-Serif" font-size="10.00"> _p</text>
</g>
<!-- Node7 -->
<g id="node7" class="node"><title>Node7</title>
<g id="a_node7"><a xlink:title="STL class. ">
<polygon fill="white" stroke="#bfbfbf" points="159,-223.5 159,-253.5 254,-253.5 254,-223.5 159,-223.5"/>
<text text-anchor="start" x="167" y="-241.5" font-family="Helvetica,sans-Serif" font-size="10.00">std::basic_string&lt;</text>
<text text-anchor="middle" x="206.5" y="-230.5" font-family="Helvetica,sans-Serif" font-size="10.00"> char &gt;</text>
</a>
</g>
</g>
<!-- Node7&#45;&gt;Node6 -->
<g id="edge7" class="edge"><title>Node7&#45;&gt;Node6</title>
<path fill="none" stroke="midnightblue" d="M206.5,-213.091C206.5,-200.214 206.5,-185.197 206.5,-175.893"/>
<polygon fill="midnightblue" stroke="midnightblue" points="203,-213.233 206.5,-223.233 210,-213.233 203,-213.233"/>
</g>
</g>
</svg>
