<?xml version="1.0" encoding="UTF-8" standalone="no"?>
<!DOCTYPE svg PUBLIC "-//W3C//DTD SVG 1.1//EN"
 "http://www.w3.org/Graphics/SVG/1.1/DTD/svg11.dtd">
<!-- Generated by graphviz version 2.38.0 (20140413.2041)
 -->
<!-- Title: blfwk::Peripheral Pages: 1 -->
<svg width="375pt" height="140pt"
 viewBox="0.00 0.00 375.00 140.00" xmlns="http://www.w3.org/2000/svg" xmlns:xlink="http://www.w3.org/1999/xlink">
<g id="graph0" class="graph" transform="scale(1 1) rotate(0) translate(4 136)">
<title>blfwk::Peripheral</title>
<polygon fill="white" stroke="none" points="-4,4 -4,-136 371,-136 371,4 -4,4"/>
<!-- Node1 -->
<g id="node1" class="node"><title>Node1</title>
<polygon fill="#bfbfbf" stroke="black" points="132.5,-112.5 132.5,-131.5 220.5,-131.5 220.5,-112.5 132.5,-112.5"/>
<text text-anchor="middle" x="176.5" y="-119.5" font-family="Helvetica,sans-Serif" font-size="10.00">blfwk::Peripheral</text>
</g>
<!-- Node2 -->
<g id="node2" class="node"><title>Node2</title>
<g id="a_node2"><a xlink:href="classblfwk_1_1_sim_peripheral.html" target="_top" xlink:title="Peripheral that operates in the simulation space. ">
<polygon fill="white" stroke="black" points="0,-56.5 0,-75.5 105,-75.5 105,-56.5 0,-56.5"/>
<text text-anchor="middle" x="52.5" y="-63.5" font-family="Helvetica,sans-Serif" font-size="10.00">blfwk::SimPeripheral</text>
</a>
</g>
</g>
<!-- Node1&#45;&gt;Node2 -->
<g id="edge1" class="edge"><title>Node1&#45;&gt;Node2</title>
<path fill="none" stroke="midnightblue" d="M147.493,-108.368C124.271,-98.2553 92.3375,-84.3486 72.0562,-75.5164"/>
<polygon fill="midnightblue" stroke="midnightblue" points="146.286,-111.66 156.852,-112.444 149.081,-105.242 146.286,-111.66"/>
</g>
<!-- Node3 -->
<g id="node3" class="node"><title>Node3</title>
<g id="a_node3"><a xlink:href="classblfwk_1_1_uart_peripheral.html" target="_top" xlink:title="Peripheral that talks to the target device over COM port hardware. ">
<polygon fill="white" stroke="black" points="123.5,-56.5 123.5,-75.5 229.5,-75.5 229.5,-56.5 123.5,-56.5"/>
<text text-anchor="middle" x="176.5" y="-63.5" font-family="Helvetica,sans-Serif" font-size="10.00">blfwk::UartPeripheral</text>
</a>
</g>
</g>
<!-- Node1&#45;&gt;Node3 -->
<g id="edge2" class="edge"><title>Node1&#45;&gt;Node3</title>
<path fill="none" stroke="midnightblue" d="M176.5,-101.805C176.5,-92.9102 176.5,-82.7798 176.5,-75.7511"/>
<polygon fill="midnightblue" stroke="midnightblue" points="173,-102.083 176.5,-112.083 180,-102.083 173,-102.083"/>
</g>
<!-- Node5 -->
<g id="node5" class="node"><title>Node5</title>
<g id="a_node5"><a xlink:href="classblfwk_1_1_usb_hid_peripheral.html" target="_top" xlink:title="Represents a USB HID peripheral. ">
<polygon fill="white" stroke="black" points="248,-56.5 248,-75.5 367,-75.5 367,-56.5 248,-56.5"/>
<text text-anchor="middle" x="307.5" y="-63.5" font-family="Helvetica,sans-Serif" font-size="10.00">blfwk::UsbHidPeripheral</text>
</a>
</g>
</g>
<!-- Node1&#45;&gt;Node5 -->
<g id="edge4" class="edge"><title>Node1&#45;&gt;Node5</title>
<path fill="none" stroke="midnightblue" d="M206.817,-108.503C231.376,-98.3795 265.318,-84.388 286.84,-75.5164"/>
<polygon fill="midnightblue" stroke="midnightblue" points="205.169,-105.397 197.257,-112.444 207.837,-111.868 205.169,-105.397"/>
</g>
<!-- Node4 -->
<g id="node4" class="node"><title>Node4</title>
<g id="a_node4"><a xlink:href="classblfwk_1_1_bus_pal_uart_peripheral.html" target="_top" xlink:title="Peripheral that talks to the target device over BusPal UART hardware. ">
<polygon fill="white" stroke="black" points="108,-0.5 108,-19.5 245,-19.5 245,-0.5 108,-0.5"/>
<text text-anchor="middle" x="176.5" y="-7.5" font-family="Helvetica,sans-Serif" font-size="10.00">blfwk::BusPalUartPeripheral</text>
</a>
</g>
</g>
<!-- Node3&#45;&gt;Node4 -->
<g id="edge3" class="edge"><title>Node3&#45;&gt;Node4</title>
<path fill="none" stroke="midnightblue" d="M176.5,-45.8045C176.5,-36.9102 176.5,-26.7798 176.5,-19.7511"/>
<polygon fill="midnightblue" stroke="midnightblue" points="173,-46.083 176.5,-56.083 180,-46.083 173,-46.083"/>
</g>
</g>
</svg>
