<?xml version="1.0" encoding="UTF-8" standalone="no"?>
<!DOCTYPE svg PUBLIC "-//W3C//DTD SVG 1.1//EN"
 "http://www.w3.org/Graphics/SVG/1.1/DTD/svg11.dtd">
<!-- Generated by graphviz version 2.38.0 (20140413.2041)
 -->
<!-- Title: elftosb::OperationSequenceSection Pages: 1 -->
<svg width="276pt" height="251pt"
 viewBox="0.00 0.00 276.00 251.00" xmlns="http://www.w3.org/2000/svg" xmlns:xlink="http://www.w3.org/1999/xlink">
<g id="graph0" class="graph" transform="scale(1 1) rotate(0) translate(4 247)">
<title>elftosb::OperationSequenceSection</title>
<polygon fill="white" stroke="none" points="-4,4 -4,-247 272,-247 272,4 -4,4"/>
<!-- Node1 -->
<g id="node1" class="node"><title>Node1</title>
<polygon fill="#bfbfbf" stroke="black" points="73,-0.5 73,-30.5 210,-30.5 210,-0.5 73,-0.5"/>
<text text-anchor="start" x="81" y="-18.5" font-family="Helvetica,sans-Serif" font-size="10.00">elftosb::OperationSequence</text>
<text text-anchor="middle" x="141.5" y="-7.5" font-family="Helvetica,sans-Serif" font-size="10.00">Section</text>
</g>
<!-- Node2 -->
<g id="node2" class="node"><title>Node2</title>
<g id="a_node2"><a xlink:href="classelftosb_1_1_output_section.html" target="_top" xlink:title="Base class for data model of sections of the output file. ">
<polygon fill="white" stroke="black" points="0,-78.5 0,-97.5 113,-97.5 113,-78.5 0,-78.5"/>
<text text-anchor="middle" x="56.5" y="-85.5" font-family="Helvetica,sans-Serif" font-size="10.00">elftosb::OutputSection</text>
</a>
</g>
</g>
<!-- Node2&#45;&gt;Node1 -->
<g id="edge1" class="edge"><title>Node2&#45;&gt;Node1</title>
<path fill="none" stroke="midnightblue" d="M74.845,-71.7844C89.595,-59.5506 110.156,-42.497 124.529,-30.5762"/>
<polygon fill="midnightblue" stroke="midnightblue" points="72.3853,-69.2773 66.9227,-78.3553 76.8541,-74.6652 72.3853,-69.2773"/>
</g>
<!-- Node3 -->
<g id="node3" class="node"><title>Node3</title>
<g id="a_node3"><a xlink:href="group__smart__pointer.html" target="_top" xlink:title="smart_ptr\&lt; elftosb\l::OptionContext \&gt;">
<polygon fill="white" stroke="black" points="9,-145.5 9,-175.5 104,-175.5 104,-145.5 9,-145.5"/>
<text text-anchor="start" x="17" y="-163.5" font-family="Helvetica,sans-Serif" font-size="10.00">smart_ptr&lt; elftosb</text>
<text text-anchor="middle" x="56.5" y="-152.5" font-family="Helvetica,sans-Serif" font-size="10.00">::OptionContext &gt;</text>
</a>
</g>
</g>
<!-- Node3&#45;&gt;Node2 -->
<g id="edge2" class="edge"><title>Node3&#45;&gt;Node2</title>
<path fill="none" stroke="#9a32cd" stroke-dasharray="5,2" d="M56.5,-135.091C56.5,-122.214 56.5,-107.197 56.5,-97.8932"/>
<polygon fill="#9a32cd" stroke="#9a32cd" points="53.0001,-135.233 56.5,-145.233 60.0001,-135.233 53.0001,-135.233"/>
<text text-anchor="middle" x="81" y="-119" font-family="Helvetica,sans-Serif" font-size="10.00"> m_options</text>
</g>
<!-- Node4 -->
<g id="node4" class="node"><title>Node4</title>
<g id="a_node4"><a xlink:href="classelftosb_1_1_option_context.html" target="_top" xlink:title="Pure abstract interface class to a table of options. ">
<polygon fill="white" stroke="black" points="0,-223.5 0,-242.5 113,-242.5 113,-223.5 0,-223.5"/>
<text text-anchor="middle" x="56.5" y="-230.5" font-family="Helvetica,sans-Serif" font-size="10.00">elftosb::OptionContext</text>
</a>
</g>
</g>
<!-- Node4&#45;&gt;Node3 -->
<g id="edge3" class="edge"><title>Node4&#45;&gt;Node3</title>
<path fill="none" stroke="#9a32cd" stroke-dasharray="5,2" d="M56.5,-213.236C56.5,-201.408 56.5,-186.383 56.5,-175.576"/>
<polygon fill="#9a32cd" stroke="#9a32cd" points="53.0001,-213.355 56.5,-223.355 60.0001,-213.355 53.0001,-213.355"/>
<text text-anchor="middle" x="63.5" y="-197" font-family="Helvetica,sans-Serif" font-size="10.00"> _p</text>
</g>
<!-- Node5 -->
<g id="node5" class="node"><title>Node5</title>
<g id="a_node5"><a xlink:href="classelftosb_1_1_operation_sequence.html" target="_top" xlink:title="Ordered sequence of operations. ">
<polygon fill="white" stroke="black" points="131,-78.5 131,-97.5 268,-97.5 268,-78.5 131,-78.5"/>
<text text-anchor="middle" x="199.5" y="-85.5" font-family="Helvetica,sans-Serif" font-size="10.00">elftosb::OperationSequence</text>
</a>
</g>
</g>
<!-- Node5&#45;&gt;Node1 -->
<g id="edge4" class="edge"><title>Node5&#45;&gt;Node1</title>
<path fill="none" stroke="#9a32cd" stroke-dasharray="5,2" d="M185.837,-70.3927C175.874,-58.2828 162.521,-42.0514 153.08,-30.5762"/>
<polygon fill="#9a32cd" stroke="#9a32cd" points="183.332,-72.8565 192.388,-78.3553 188.738,-68.4092 183.332,-72.8565"/>
<text text-anchor="middle" x="206" y="-52" font-family="Helvetica,sans-Serif" font-size="10.00"> m_sequence</text>
</g>
<!-- Node6 -->
<g id="node6" class="node"><title>Node6</title>
<polygon fill="white" stroke="#bfbfbf" points="135.5,-151 135.5,-170 263.5,-170 263.5,-151 135.5,-151"/>
<text text-anchor="middle" x="199.5" y="-158" font-family="Helvetica,sans-Serif" font-size="10.00">std::vector&lt; Operation * &gt;</text>
</g>
<!-- Node6&#45;&gt;Node5 -->
<g id="edge5" class="edge"><title>Node6&#45;&gt;Node5</title>
<path fill="none" stroke="#9a32cd" stroke-dasharray="5,2" d="M199.5,-140.442C199.5,-126.53 199.5,-108.32 199.5,-97.7154"/>
<polygon fill="#9a32cd" stroke="#9a32cd" points="196,-140.855 199.5,-150.855 203,-140.855 196,-140.855"/>
<text text-anchor="middle" x="230.5" y="-119" font-family="Helvetica,sans-Serif" font-size="10.00"> m_operations</text>
</g>
<!-- Node7 -->
<g id="node7" class="node"><title>Node7</title>
<g id="a_node7"><a xlink:href="classelftosb_1_1_operation.html" target="_top" xlink:title="Abstract base class for all boot operations. ">
<polygon fill="white" stroke="black" points="153,-223.5 153,-242.5 246,-242.5 246,-223.5 153,-223.5"/>
<text text-anchor="middle" x="199.5" y="-230.5" font-family="Helvetica,sans-Serif" font-size="10.00">elftosb::Operation</text>
</a>
</g>
</g>
<!-- Node7&#45;&gt;Node6 -->
<g id="edge6" class="edge"><title>Node7&#45;&gt;Node6</title>
<path fill="none" stroke="#9a32cd" stroke-dasharray="5,2" d="M199.5,-212.942C199.5,-199.03 199.5,-180.82 199.5,-170.215"/>
<polygon fill="#9a32cd" stroke="#9a32cd" points="196,-213.355 199.5,-223.355 203,-213.355 196,-213.355"/>
<text text-anchor="middle" x="221" y="-197" font-family="Helvetica,sans-Serif" font-size="10.00"> elements</text>
</g>
</g>
</svg>
