<?xml version="1.0" encoding="UTF-8" standalone="no"?>
<!DOCTYPE svg PUBLIC "-//W3C//DTD SVG 1.1//EN"
 "http://www.w3.org/Graphics/SVG/1.1/DTD/svg11.dtd">
<!-- Generated by graphviz version 2.38.0 (20140413.2041)
 -->
<!-- Title: blfwk::DataSource::PatternSegment Pages: 1 -->
<svg width="448pt" height="127pt"
 viewBox="0.00 0.00 448.00 126.50" xmlns="http://www.w3.org/2000/svg" xmlns:xlink="http://www.w3.org/1999/xlink">
<g id="graph0" class="graph" transform="scale(1 1) rotate(0) translate(4 122.5)">
<title>blfwk::DataSource::PatternSegment</title>
<polygon fill="white" stroke="none" points="-4,4 -4,-122.5 444,-122.5 444,4 -4,4"/>
<!-- Node1 -->
<g id="node1" class="node"><title>Node1</title>
<polygon fill="#bfbfbf" stroke="black" points="137,-39 137,-69 238,-69 238,-39 137,-39"/>
<text text-anchor="start" x="145" y="-57" font-family="Helvetica,sans-Serif" font-size="10.00">blfwk::DataSource::</text>
<text text-anchor="middle" x="187.5" y="-46" font-family="Helvetica,sans-Serif" font-size="10.00">PatternSegment</text>
</g>
<!-- Node3 -->
<g id="node3" class="node"><title>Node3</title>
<g id="a_node3"><a xlink:href="classblfwk_1_1_e_l_f_source_file_1_1_e_l_f_data_source_1_1_no_bits_segment.html" target="_top" xlink:title="Represents one named #SHT_NOBITS section within the ELF file. ">
<polygon fill="white" stroke="black" points="274,-88 274,-118 440,-118 440,-88 274,-88"/>
<text text-anchor="start" x="282" y="-106" font-family="Helvetica,sans-Serif" font-size="10.00">blfwk::ELFSourceFile</text>
<text text-anchor="middle" x="357" y="-95" font-family="Helvetica,sans-Serif" font-size="10.00">::ELFDataSource::NoBitsSegment</text>
</a>
</g>
</g>
<!-- Node1&#45;&gt;Node3 -->
<g id="edge2" class="edge"><title>Node1&#45;&gt;Node3</title>
<path fill="none" stroke="midnightblue" d="M248.079,-71.4292C266.566,-76.8373 286.771,-82.748 304.648,-87.9776"/>
<polygon fill="midnightblue" stroke="midnightblue" points="248.882,-68.0175 238.302,-68.5689 246.917,-74.7359 248.882,-68.0175"/>
</g>
<!-- Node4 -->
<g id="node4" class="node"><title>Node4</title>
<g id="a_node4"><a xlink:href="classblfwk_1_1_memory_image_data_source_1_1_fill_segment.html" target="_top" xlink:title="Segment corresponding to a fill region of the executable image. ">
<polygon fill="white" stroke="black" points="278.5,-39 278.5,-69 435.5,-69 435.5,-39 278.5,-39"/>
<text text-anchor="start" x="286.5" y="-57" font-family="Helvetica,sans-Serif" font-size="10.00">blfwk::MemoryImageDataSource</text>
<text text-anchor="middle" x="357" y="-46" font-family="Helvetica,sans-Serif" font-size="10.00">::FillSegment</text>
</a>
</g>
</g>
<!-- Node1&#45;&gt;Node4 -->
<g id="edge3" class="edge"><title>Node1&#45;&gt;Node4</title>
<path fill="none" stroke="midnightblue" d="M248.604,-54C258.29,-54 268.435,-54 278.46,-54"/>
<polygon fill="midnightblue" stroke="midnightblue" points="248.302,-50.5001 238.302,-54 248.302,-57.5001 248.302,-50.5001"/>
</g>
<!-- Node5 -->
<g id="node5" class="node"><title>Node5</title>
<g id="a_node5"><a xlink:href="classblfwk_1_1_pattern_source.html" target="_top" xlink:title="Data source for a repeating pattern. ">
<polygon fill="white" stroke="black" points="303.5,-0.5 303.5,-19.5 410.5,-19.5 410.5,-0.5 303.5,-0.5"/>
<text text-anchor="middle" x="357" y="-7.5" font-family="Helvetica,sans-Serif" font-size="10.00">blfwk::PatternSource</text>
</a>
</g>
</g>
<!-- Node1&#45;&gt;Node5 -->
<g id="edge4" class="edge"><title>Node1&#45;&gt;Node5</title>
<path fill="none" stroke="midnightblue" d="M247.864,-36.1706C256.607,-33.6822 265.521,-31.2199 274,-29 286.582,-25.7058 300.326,-22.4056 312.904,-19.5018"/>
<polygon fill="midnightblue" stroke="midnightblue" points="246.742,-32.8514 238.1,-38.9798 248.677,-39.5786 246.742,-32.8514"/>
</g>
<!-- Node2 -->
<g id="node2" class="node"><title>Node2</title>
<g id="a_node2"><a xlink:href="classblfwk_1_1_data_source_1_1_segment.html" target="_top" xlink:title="Discrete, contiguous part of the source&#39;s data. ">
<polygon fill="white" stroke="black" points="0,-39 0,-69 101,-69 101,-39 0,-39"/>
<text text-anchor="start" x="8" y="-57" font-family="Helvetica,sans-Serif" font-size="10.00">blfwk::DataSource::</text>
<text text-anchor="middle" x="50.5" y="-46" font-family="Helvetica,sans-Serif" font-size="10.00">Segment</text>
</a>
</g>
</g>
<!-- Node2&#45;&gt;Node1 -->
<g id="edge1" class="edge"><title>Node2&#45;&gt;Node1</title>
<path fill="none" stroke="midnightblue" d="M111.207,-54C119.67,-54 128.299,-54 136.552,-54"/>
<polygon fill="midnightblue" stroke="midnightblue" points="111.002,-50.5001 101.002,-54 111.002,-57.5001 111.002,-50.5001"/>
</g>
</g>
</svg>
