<?xml version="1.0" encoding="UTF-8" standalone="no"?>
<!DOCTYPE svg PUBLIC "-//W3C//DTD SVG 1.1//EN"
 "http://www.w3.org/Graphics/SVG/1.1/DTD/svg11.dtd">
<!-- Generated by graphviz version 2.38.0 (20140413.2041)
 -->
<!-- Title: elftosb::PathSourceDefASTNode Pages: 1 -->
<svg width="315pt" height="442pt"
 viewBox="0.00 0.00 315.00 442.00" xmlns="http://www.w3.org/2000/svg" xmlns:xlink="http://www.w3.org/1999/xlink">
<g id="graph0" class="graph" transform="scale(1 1) rotate(0) translate(4 438)">
<title>elftosb::PathSourceDefASTNode</title>
<polygon fill="white" stroke="none" points="-4,4 -4,-438 311,-438 311,4 -4,4"/>
<!-- Node1 -->
<g id="node1" class="node"><title>Node1</title>
<polygon fill="#bfbfbf" stroke="black" points="115.5,-0.5 115.5,-19.5 273.5,-19.5 273.5,-0.5 115.5,-0.5"/>
<text text-anchor="middle" x="194.5" y="-7.5" font-family="Helvetica,sans-Serif" font-size="10.00">elftosb::PathSourceDefASTNode</text>
</g>
<!-- Node2 -->
<g id="node2" class="node"><title>Node2</title>
<g id="a_node2"><a xlink:href="classelftosb_1_1_source_def_a_s_t_node.html" target="_top" xlink:title="elftosb::SourceDefASTNode">
<polygon fill="white" stroke="black" points="46,-57.5 46,-76.5 183,-76.5 183,-57.5 46,-57.5"/>
<text text-anchor="middle" x="114.5" y="-64.5" font-family="Helvetica,sans-Serif" font-size="10.00">elftosb::SourceDefASTNode</text>
</a>
</g>
</g>
<!-- Node2&#45;&gt;Node1 -->
<g id="edge1" class="edge"><title>Node2&#45;&gt;Node1</title>
<path fill="none" stroke="midnightblue" d="M135.537,-51.537C150.349,-41.3539 169.674,-28.0678 182.088,-19.5334"/>
<polygon fill="midnightblue" stroke="midnightblue" points="133.258,-48.8568 127,-57.4063 137.223,-54.6251 133.258,-48.8568"/>
</g>
<!-- Node3 -->
<g id="node3" class="node"><title>Node3</title>
<g id="a_node3"><a xlink:href="classelftosb_1_1_a_s_t_node.html" target="_top" xlink:title="The base class for all AST node classes. ">
<polygon fill="white" stroke="black" points="4.5,-347.5 4.5,-366.5 96.5,-366.5 96.5,-347.5 4.5,-347.5"/>
<text text-anchor="middle" x="50.5" y="-354.5" font-family="Helvetica,sans-Serif" font-size="10.00">elftosb::ASTNode</text>
</a>
</g>
</g>
<!-- Node3&#45;&gt;Node2 -->
<g id="edge2" class="edge"><title>Node3&#45;&gt;Node2</title>
<path fill="none" stroke="midnightblue" d="M35.4848,-339.385C24.8624,-325.88 12.5,-305.803 12.5,-285.5 12.5,-285.5 12.5,-285.5 12.5,-138.5 12.5,-105.026 50.1341,-86.2061 79.6827,-76.5882"/>
<polygon fill="midnightblue" stroke="midnightblue" points="32.9635,-341.826 42.0666,-347.247 38.3308,-337.332 32.9635,-341.826"/>
</g>
<!-- Node3&#45;&gt;Node3 -->
<g id="edge4" class="edge"><title>Node3&#45;&gt;Node3</title>
<path fill="none" stroke="#9a32cd" stroke-dasharray="5,2" d="M106.774,-361.66C111.534,-360.663 114.5,-359.109 114.5,-357 114.5,-353.625 106.906,-351.674 96.5242,-351.146"/>
<polygon fill="#9a32cd" stroke="#9a32cd" points="106.052,-358.22 96.5242,-362.854 106.862,-365.173 106.052,-358.22"/>
<text text-anchor="middle" x="136.5" y="-354.5" font-family="Helvetica,sans-Serif" font-size="10.00"> m_parent</text>
</g>
<!-- Node6 -->
<g id="node6" class="node"><title>Node6</title>
<g id="a_node6"><a xlink:href="classelftosb_1_1_list_a_s_t_node.html" target="_top" xlink:title="AST node that contains other AST nodes. ">
<polygon fill="white" stroke="black" points="44.5,-202.5 44.5,-221.5 152.5,-221.5 152.5,-202.5 44.5,-202.5"/>
<text text-anchor="middle" x="98.5" y="-209.5" font-family="Helvetica,sans-Serif" font-size="10.00">elftosb::ListASTNode</text>
</a>
</g>
</g>
<!-- Node3&#45;&gt;Node6 -->
<g id="edge7" class="edge"><title>Node3&#45;&gt;Node6</title>
<path fill="none" stroke="midnightblue" d="M53.1061,-337.419C55.951,-319.529 61.2363,-291.892 69.5,-269 75.8196,-251.493 86.5344,-232.543 93.0202,-221.786"/>
<polygon fill="midnightblue" stroke="midnightblue" points="49.6319,-336.986 51.6136,-347.394 56.5549,-338.022 49.6319,-336.986"/>
</g>
<!-- Node7 -->
<g id="node7" class="node"><title>Node7</title>
<polygon fill="white" stroke="#bfbfbf" points="79,-275 79,-294 194,-294 194,-275 79,-275"/>
<text text-anchor="middle" x="136.5" y="-282" font-family="Helvetica,sans-Serif" font-size="10.00">std::list&lt; ASTNode * &gt;</text>
</g>
<!-- Node3&#45;&gt;Node7 -->
<g id="edge9" class="edge"><title>Node3&#45;&gt;Node7</title>
<path fill="none" stroke="#9a32cd" stroke-dasharray="5,2" d="M68.8289,-340.975C86.1826,-326.749 111.638,-305.881 125.868,-294.215"/>
<polygon fill="#9a32cd" stroke="#9a32cd" points="66.56,-338.309 61.0453,-347.355 70.9978,-343.722 66.56,-338.309"/>
<text text-anchor="middle" x="118" y="-321" font-family="Helvetica,sans-Serif" font-size="10.00"> elements</text>
</g>
<!-- Node4 -->
<g id="node4" class="node"><title>Node4</title>
<g id="a_node4"><a xlink:href="structelftosb_1_1token__loc__t.html" target="_top" xlink:title="Token location in the source file. ">
<polygon fill="white" stroke="black" points="0,-414.5 0,-433.5 101,-433.5 101,-414.5 0,-414.5"/>
<text text-anchor="middle" x="50.5" y="-421.5" font-family="Helvetica,sans-Serif" font-size="10.00">elftosb::token_loc_t</text>
</a>
</g>
</g>
<!-- Node4&#45;&gt;Node3 -->
<g id="edge3" class="edge"><title>Node4&#45;&gt;Node3</title>
<path fill="none" stroke="#9a32cd" stroke-dasharray="5,2" d="M50.5,-404.037C50.5,-391.67 50.5,-376.12 50.5,-366.627"/>
<polygon fill="#9a32cd" stroke="#9a32cd" points="47.0001,-404.234 50.5,-414.234 54.0001,-404.234 47.0001,-404.234"/>
<text text-anchor="middle" x="76" y="-388" font-family="Helvetica,sans-Serif" font-size="10.00"> m_location</text>
</g>
<!-- Node5 -->
<g id="node5" class="node"><title>Node5</title>
<g id="a_node5"><a xlink:href="group__smart__pointer.html" target="_top" xlink:title="smart_ptr\&lt; elftosb\l::ListASTNode \&gt;">
<polygon fill="white" stroke="black" points="51,-124.5 51,-154.5 146,-154.5 146,-124.5 51,-124.5"/>
<text text-anchor="start" x="59" y="-142.5" font-family="Helvetica,sans-Serif" font-size="10.00">smart_ptr&lt; elftosb</text>
<text text-anchor="middle" x="98.5" y="-131.5" font-family="Helvetica,sans-Serif" font-size="10.00">::ListASTNode &gt;</text>
</a>
</g>
</g>
<!-- Node5&#45;&gt;Node2 -->
<g id="edge5" class="edge"><title>Node5&#45;&gt;Node2</title>
<path fill="none" stroke="#9a32cd" stroke-dasharray="5,2" d="M97.0009,-114.107C97.1705,-107.796 97.852,-101.071 99.5,-95 101.298,-88.3759 105.048,-81.6259 108.348,-76.5319"/>
<polygon fill="#9a32cd" stroke="#9a32cd" points="93.5016,-114.189 97.1188,-124.147 100.501,-114.107 93.5016,-114.189"/>
<text text-anchor="middle" x="128.5" y="-98" font-family="Helvetica,sans-Serif" font-size="10.00"> m_attributes</text>
</g>
<!-- Node6&#45;&gt;Node5 -->
<g id="edge6" class="edge"><title>Node6&#45;&gt;Node5</title>
<path fill="none" stroke="#9a32cd" stroke-dasharray="5,2" d="M98.5,-192.236C98.5,-180.408 98.5,-165.383 98.5,-154.576"/>
<polygon fill="#9a32cd" stroke="#9a32cd" points="95.0001,-192.355 98.5,-202.355 102,-192.355 95.0001,-192.355"/>
<text text-anchor="middle" x="105.5" y="-176" font-family="Helvetica,sans-Serif" font-size="10.00"> _p</text>
</g>
<!-- Node7&#45;&gt;Node6 -->
<g id="edge8" class="edge"><title>Node7&#45;&gt;Node6</title>
<path fill="none" stroke="#9a32cd" stroke-dasharray="5,2" d="M126.896,-265.682C119.322,-251.63 109.085,-232.638 103.198,-221.715"/>
<polygon fill="#9a32cd" stroke="#9a32cd" points="124.015,-267.713 131.84,-274.855 130.177,-264.392 124.015,-267.713"/>
<text text-anchor="middle" x="134.5" y="-243" font-family="Helvetica,sans-Serif" font-size="10.00"> m_list</text>
</g>
<!-- Node8 -->
<g id="node8" class="node"><title>Node8</title>
<g id="a_node8"><a xlink:href="group__smart__pointer.html" target="_top" xlink:title="smart_ptr\&lt; std::string \&gt;">
<polygon fill="white" stroke="black" points="176,-130 176,-149 295,-149 295,-130 176,-130"/>
<text text-anchor="middle" x="235.5" y="-137" font-family="Helvetica,sans-Serif" font-size="10.00">smart_ptr&lt; std::string &gt;</text>
</a>
</g>
</g>
<!-- Node8&#45;&gt;Node1 -->
<g id="edge13" class="edge"><title>Node8&#45;&gt;Node1</title>
<path fill="none" stroke="#9a32cd" stroke-dasharray="5,2" d="M229.561,-120.03C220.6,-92.1662 203.97,-40.4494 197.338,-19.8249"/>
<polygon fill="#9a32cd" stroke="#9a32cd" points="226.289,-121.288 232.682,-129.736 232.953,-119.145 226.289,-121.288"/>
<text text-anchor="middle" x="234.5" y="-64.5" font-family="Helvetica,sans-Serif" font-size="10.00"> m_path</text>
</g>
<!-- Node8&#45;&gt;Node2 -->
<g id="edge10" class="edge"><title>Node8&#45;&gt;Node2</title>
<path fill="none" stroke="#9a32cd" stroke-dasharray="5,2" d="M212.007,-124.812C187.591,-110.586 150.117,-88.7519 129.458,-76.7154"/>
<polygon fill="#9a32cd" stroke="#9a32cd" points="210.261,-127.845 220.663,-129.855 213.785,-121.797 210.261,-127.845"/>
<text text-anchor="middle" x="200" y="-98" font-family="Helvetica,sans-Serif" font-size="10.00"> m_name</text>
</g>
<!-- Node9 -->
<g id="node9" class="node"><title>Node9</title>
<g id="a_node9"><a xlink:title="STL class. ">
<polygon fill="white" stroke="#bfbfbf" points="226.5,-202.5 226.5,-221.5 286.5,-221.5 286.5,-202.5 226.5,-202.5"/>
<text text-anchor="middle" x="256.5" y="-209.5" font-family="Helvetica,sans-Serif" font-size="10.00">std::string</text>
</a>
</g>
</g>
<!-- Node9&#45;&gt;Node8 -->
<g id="edge11" class="edge"><title>Node9&#45;&gt;Node8</title>
<path fill="none" stroke="#9a32cd" stroke-dasharray="5,2" d="M251.07,-192.771C246.897,-178.762 241.318,-160.032 238.096,-149.215"/>
<polygon fill="#9a32cd" stroke="#9a32cd" points="247.716,-193.771 253.925,-202.355 254.425,-191.772 247.716,-193.771"/>
<text text-anchor="middle" x="255.5" y="-176" font-family="Helvetica,sans-Serif" font-size="10.00"> _p</text>
</g>
<!-- Node10 -->
<g id="node10" class="node"><title>Node10</title>
<g id="a_node10"><a xlink:title="STL class. ">
<polygon fill="white" stroke="#bfbfbf" points="212,-269.5 212,-299.5 307,-299.5 307,-269.5 212,-269.5"/>
<text text-anchor="start" x="220" y="-287.5" font-family="Helvetica,sans-Serif" font-size="10.00">std::basic_string&lt;</text>
<text text-anchor="middle" x="259.5" y="-276.5" font-family="Helvetica,sans-Serif" font-size="10.00"> char &gt;</text>
</a>
</g>
</g>
<!-- Node10&#45;&gt;Node9 -->
<g id="edge12" class="edge"><title>Node10&#45;&gt;Node9</title>
<path fill="none" stroke="midnightblue" d="M258.461,-259.091C257.913,-246.214 257.274,-231.197 256.878,-221.893"/>
<polygon fill="midnightblue" stroke="midnightblue" points="254.971,-259.391 258.893,-269.233 261.964,-259.093 254.971,-259.391"/>
</g>
</g>
</svg>
