<?xml version="1.0" encoding="UTF-8" standalone="no"?>
<!DOCTYPE svg PUBLIC "-//W3C//DTD SVG 1.1//EN"
 "http://www.w3.org/Graphics/SVG/1.1/DTD/svg11.dtd">
<!-- Generated by graphviz version 2.38.0 (20140413.2041)
 -->
<!-- Title: elftosb::Value Pages: 1 -->
<svg width="355pt" height="140pt"
 viewBox="0.00 0.00 354.50 140.00" xmlns="http://www.w3.org/2000/svg" xmlns:xlink="http://www.w3.org/1999/xlink">
<g id="graph0" class="graph" transform="scale(1 1) rotate(0) translate(4 136)">
<title>elftosb::Value</title>
<polygon fill="white" stroke="none" points="-4,4 -4,-136 350.5,-136 350.5,4 -4,4"/>
<!-- Node1 -->
<g id="node1" class="node"><title>Node1</title>
<polygon fill="#bfbfbf" stroke="black" points="137,-112.5 137,-131.5 213,-131.5 213,-112.5 137,-112.5"/>
<text text-anchor="middle" x="175" y="-119.5" font-family="Helvetica,sans-Serif" font-size="10.00">elftosb::Value</text>
</g>
<!-- Node2 -->
<g id="node2" class="node"><title>Node2</title>
<g id="a_node2"><a xlink:href="classelftosb_1_1_binary_value.html" target="_top" xlink:title="Binary object value of arbitrary size. ">
<polygon fill="white" stroke="black" points="0,-56.5 0,-75.5 104,-75.5 104,-56.5 0,-56.5"/>
<text text-anchor="middle" x="52" y="-63.5" font-family="Helvetica,sans-Serif" font-size="10.00">elftosb::BinaryValue</text>
</a>
</g>
</g>
<!-- Node1&#45;&gt;Node2 -->
<g id="edge1" class="edge"><title>Node1&#45;&gt;Node2</title>
<path fill="none" stroke="midnightblue" d="M146.227,-108.368C123.193,-98.2553 91.5162,-84.3486 71.3985,-75.5164"/>
<polygon fill="midnightblue" stroke="midnightblue" points="144.947,-111.628 155.51,-112.444 147.761,-105.219 144.947,-111.628"/>
</g>
<!-- Node3 -->
<g id="node3" class="node"><title>Node3</title>
<g id="a_node3"><a xlink:href="classelftosb_1_1_integer_value.html" target="_top" xlink:title="32&#45;bit signed integer value. ">
<polygon fill="white" stroke="black" points="122.5,-56.5 122.5,-75.5 227.5,-75.5 227.5,-56.5 122.5,-56.5"/>
<text text-anchor="middle" x="175" y="-63.5" font-family="Helvetica,sans-Serif" font-size="10.00">elftosb::IntegerValue</text>
</a>
</g>
</g>
<!-- Node1&#45;&gt;Node3 -->
<g id="edge2" class="edge"><title>Node1&#45;&gt;Node3</title>
<path fill="none" stroke="midnightblue" d="M175,-101.805C175,-92.9102 175,-82.7798 175,-75.7511"/>
<polygon fill="midnightblue" stroke="midnightblue" points="171.5,-102.083 175,-112.083 178.5,-102.083 171.5,-102.083"/>
</g>
<!-- Node5 -->
<g id="node5" class="node"><title>Node5</title>
<g id="a_node5"><a xlink:href="classelftosb_1_1_string_value.html" target="_top" xlink:title="String value. ">
<polygon fill="white" stroke="black" points="245.5,-56.5 245.5,-75.5 346.5,-75.5 346.5,-56.5 245.5,-56.5"/>
<text text-anchor="middle" x="296" y="-63.5" font-family="Helvetica,sans-Serif" font-size="10.00">elftosb::StringValue</text>
</a>
</g>
</g>
<!-- Node1&#45;&gt;Node5 -->
<g id="edge4" class="edge"><title>Node1&#45;&gt;Node5</title>
<path fill="none" stroke="midnightblue" d="M203.306,-108.368C225.965,-98.2553 257.126,-84.3486 276.917,-75.5164"/>
<polygon fill="midnightblue" stroke="midnightblue" points="201.878,-105.172 194.173,-112.444 204.731,-111.564 201.878,-105.172"/>
</g>
<!-- Node4 -->
<g id="node4" class="node"><title>Node4</title>
<g id="a_node4"><a xlink:href="classelftosb_1_1_sized_integer_value.html" target="_top" xlink:title="Adds a word size attribute to IntegerValue. ">
<polygon fill="white" stroke="black" points="110,-0.5 110,-19.5 240,-19.5 240,-0.5 110,-0.5"/>
<text text-anchor="middle" x="175" y="-7.5" font-family="Helvetica,sans-Serif" font-size="10.00">elftosb::SizedIntegerValue</text>
</a>
</g>
</g>
<!-- Node3&#45;&gt;Node4 -->
<g id="edge3" class="edge"><title>Node3&#45;&gt;Node4</title>
<path fill="none" stroke="midnightblue" d="M175,-45.8045C175,-36.9102 175,-26.7798 175,-19.7511"/>
<polygon fill="midnightblue" stroke="midnightblue" points="171.5,-46.083 175,-56.083 178.5,-46.083 171.5,-46.083"/>
</g>
</g>
</svg>
