<?xml version="1.0" encoding="UTF-8" standalone="no"?>
<!DOCTYPE svg PUBLIC "-//W3C//DTD SVG 1.1//EN"
 "http://www.w3.org/Graphics/SVG/1.1/DTD/svg11.dtd">
<!-- Generated by graphviz version 2.38.0 (20140413.2041)
 -->
<!-- Title: blfwk::ELFSourceFile Pages: 1 -->
<svg width="1464pt" height="362pt"
 viewBox="0.00 0.00 1464.00 362.00" xmlns="http://www.w3.org/2000/svg" xmlns:xlink="http://www.w3.org/1999/xlink">
<g id="graph0" class="graph" transform="scale(1 1) rotate(0) translate(4 358)">
<title>blfwk::ELFSourceFile</title>
<polygon fill="white" stroke="none" points="-4,4 -4,-358 1460,-358 1460,4 -4,4"/>
<!-- Node1 -->
<g id="node1" class="node"><title>Node1</title>
<polygon fill="#bfbfbf" stroke="black" points="1347,-115 1347,-134 1456,-134 1456,-115 1347,-115"/>
<text text-anchor="middle" x="1401.5" y="-122" font-family="Helvetica,sans-Serif" font-size="10.00">blfwk::ELFSourceFile</text>
</g>
<!-- Node2 -->
<g id="node2" class="node"><title>Node2</title>
<g id="a_node2"><a xlink:href="classblfwk_1_1_source_file.html" target="_top" xlink:title="Abstract base class for a source file containing executable code. ">
<polygon fill="white" stroke="black" points="1177,-76 1177,-95 1268,-95 1268,-76 1177,-76"/>
<text text-anchor="middle" x="1222.5" y="-83" font-family="Helvetica,sans-Serif" font-size="10.00">blfwk::SourceFile</text>
</a>
</g>
</g>
<!-- Node2&#45;&gt;Node1 -->
<g id="edge1" class="edge"><title>Node2&#45;&gt;Node1</title>
<path fill="none" stroke="midnightblue" d="M1276.78,-97.2398C1302.54,-102.916 1333.06,-109.641 1357.34,-114.991"/>
<polygon fill="midnightblue" stroke="midnightblue" points="1277.32,-93.7743 1266.8,-95.0405 1275.81,-100.61 1277.32,-93.7743"/>
</g>
<!-- Node3 -->
<g id="node3" class="node"><title>Node3</title>
<g id="a_node3"><a xlink:title="STL class. ">
<polygon fill="white" stroke="#bfbfbf" points="731.5,-105 731.5,-124 791.5,-124 791.5,-105 731.5,-105"/>
<text text-anchor="middle" x="761.5" y="-112" font-family="Helvetica,sans-Serif" font-size="10.00">std::string</text>
</a>
</g>
</g>
<!-- Node3&#45;&gt;Node2 -->
<g id="edge2" class="edge"><title>Node3&#45;&gt;Node2</title>
<path fill="none" stroke="#9a32cd" stroke-dasharray="5,2" d="M801.822,-112.372C871.161,-108.568 1019.69,-100.181 1145,-91.5 1155.23,-90.7911 1166.23,-89.9658 1176.61,-89.1583"/>
<polygon fill="#9a32cd" stroke="#9a32cd" points="801.578,-108.88 791.784,-112.921 801.96,-115.87 801.578,-108.88"/>
<text text-anchor="middle" x="1013" y="-107.5" font-family="Helvetica,sans-Serif" font-size="10.00"> m_path</text>
</g>
<!-- Node14 -->
<g id="node14" class="node"><title>Node14</title>
<g id="a_node14"><a xlink:href="class_st_e_l_f_file.html" target="_top" xlink:title="Parser for Executable and Linking Format (ELF) files. ">
<polygon fill="white" stroke="black" points="983,-197 983,-216 1043,-216 1043,-197 983,-197"/>
<text text-anchor="middle" x="1013" y="-204" font-family="Helvetica,sans-Serif" font-size="10.00">StELFFile</text>
</a>
</g>
</g>
<!-- Node3&#45;&gt;Node14 -->
<g id="edge20" class="edge"><title>Node3&#45;&gt;Node14</title>
<path fill="none" stroke="#9a32cd" stroke-dasharray="5,2" d="M801.805,-119.726C836.531,-125.252 888.028,-135.691 930,-153.5 956.839,-164.888 984.63,-184.898 999.977,-196.804"/>
<polygon fill="#9a32cd" stroke="#9a32cd" points="802.01,-116.217 791.596,-118.167 800.953,-123.137 802.01,-116.217"/>
<text text-anchor="middle" x="881.5" y="-156.5" font-family="Helvetica,sans-Serif" font-size="10.00"> m_name</text>
</g>
<!-- Node4 -->
<g id="node4" class="node"><title>Node4</title>
<g id="a_node4"><a xlink:title="STL class. ">
<polygon fill="white" stroke="#bfbfbf" points="514.5,-99.5 514.5,-129.5 609.5,-129.5 609.5,-99.5 514.5,-99.5"/>
<text text-anchor="start" x="522.5" y="-117.5" font-family="Helvetica,sans-Serif" font-size="10.00">std::basic_string&lt;</text>
<text text-anchor="middle" x="562" y="-106.5" font-family="Helvetica,sans-Serif" font-size="10.00"> char &gt;</text>
</a>
</g>
</g>
<!-- Node4&#45;&gt;Node3 -->
<g id="edge3" class="edge"><title>Node4&#45;&gt;Node3</title>
<path fill="none" stroke="midnightblue" d="M619.831,-114.5C656.338,-114.5 702.231,-114.5 731.473,-114.5"/>
<polygon fill="midnightblue" stroke="midnightblue" points="619.805,-111 609.805,-114.5 619.805,-118 619.805,-111"/>
</g>
<!-- Node5 -->
<g id="node5" class="node"><title>Node5</title>
<g id="a_node5"><a xlink:href="group__smart__pointer.html" target="_top" xlink:title="smart_ptr\&lt; std::ifstream \&gt;">
<polygon fill="white" stroke="black" points="948,-50 948,-69 1078,-69 1078,-50 948,-50"/>
<text text-anchor="middle" x="1013" y="-57" font-family="Helvetica,sans-Serif" font-size="10.00">smart_ptr&lt; std::ifstream &gt;</text>
</a>
</g>
</g>
<!-- Node5&#45;&gt;Node2 -->
<g id="edge4" class="edge"><title>Node5&#45;&gt;Node2</title>
<path fill="none" stroke="#9a32cd" stroke-dasharray="5,2" d="M1088.54,-68.8404C1118.15,-72.5499 1151.21,-76.6923 1176.95,-79.9184"/>
<polygon fill="#9a32cd" stroke="#9a32cd" points="1088.59,-65.319 1078.23,-67.5485 1087.72,-72.2647 1088.59,-65.319"/>
<text text-anchor="middle" x="1120.5" y="-79.5" font-family="Helvetica,sans-Serif" font-size="10.00"> m_stream</text>
</g>
<!-- Node6 -->
<g id="node6" class="node"><title>Node6</title>
<g id="a_node6"><a xlink:title="STL class. ">
<polygon fill="white" stroke="#bfbfbf" points="726,-51 726,-70 797,-70 797,-51 726,-51"/>
<text text-anchor="middle" x="761.5" y="-58" font-family="Helvetica,sans-Serif" font-size="10.00">std::ifstream</text>
</a>
</g>
</g>
<!-- Node6&#45;&gt;Node5 -->
<g id="edge5" class="edge"><title>Node6&#45;&gt;Node5</title>
<path fill="none" stroke="#9a32cd" stroke-dasharray="5,2" d="M807.229,-60.3207C846.376,-60.1638 903.716,-59.934 947.768,-59.7574"/>
<polygon fill="#9a32cd" stroke="#9a32cd" points="807.178,-56.8208 797.192,-60.361 807.206,-63.8207 807.178,-56.8208"/>
<text text-anchor="middle" x="881.5" y="-63.5" font-family="Helvetica,sans-Serif" font-size="10.00"> _p</text>
</g>
<!-- Node7 -->
<g id="node7" class="node"><title>Node7</title>
<g id="a_node7"><a xlink:title="STL class. ">
<polygon fill="white" stroke="#bfbfbf" points="512.5,-49.5 512.5,-79.5 611.5,-79.5 611.5,-49.5 512.5,-49.5"/>
<text text-anchor="start" x="520.5" y="-67.5" font-family="Helvetica,sans-Serif" font-size="10.00">std::basic_ifstream</text>
<text text-anchor="middle" x="562" y="-56.5" font-family="Helvetica,sans-Serif" font-size="10.00">&lt; char &gt;</text>
</a>
</g>
</g>
<!-- Node7&#45;&gt;Node6 -->
<g id="edge6" class="edge"><title>Node7&#45;&gt;Node6</title>
<path fill="none" stroke="midnightblue" d="M621.812,-63.3089C655.674,-62.6231 697.072,-61.7846 725.779,-61.2032"/>
<polygon fill="midnightblue" stroke="midnightblue" points="621.494,-59.8145 611.567,-63.5164 621.636,-66.8131 621.494,-59.8145"/>
</g>
<!-- Node8 -->
<g id="node8" class="node"><title>Node8</title>
<g id="a_node8"><a xlink:title="STL class. ">
<polygon fill="white" stroke="#bfbfbf" points="265,-92.5 265,-122.5 362,-122.5 362,-92.5 265,-92.5"/>
<text text-anchor="start" x="273" y="-110.5" font-family="Helvetica,sans-Serif" font-size="10.00">std::basic_istream</text>
<text text-anchor="middle" x="313.5" y="-99.5" font-family="Helvetica,sans-Serif" font-size="10.00">&lt; Char &gt;</text>
</a>
</g>
</g>
<!-- Node8&#45;&gt;Node7 -->
<g id="edge7" class="edge"><title>Node8&#45;&gt;Node7</title>
<path fill="none" stroke="midnightblue" d="M371.972,-97.4745C414.577,-90.0424 472.014,-80.023 512.355,-72.9858"/>
<polygon fill="midnightblue" stroke="midnightblue" points="371.277,-94.0427 362.028,-99.2092 372.48,-100.939 371.277,-94.0427"/>
</g>
<!-- Node9 -->
<g id="node9" class="node"><title>Node9</title>
<g id="a_node9"><a xlink:title="STL class. ">
<polygon fill="white" stroke="#bfbfbf" points="112,-128 112,-147 228,-147 228,-128 112,-128"/>
<text text-anchor="middle" x="170" y="-135" font-family="Helvetica,sans-Serif" font-size="10.00">std::basic_ios&lt; Char &gt;</text>
</a>
</g>
</g>
<!-- Node9&#45;&gt;Node8 -->
<g id="edge8" class="edge"><title>Node9&#45;&gt;Node8</title>
<path fill="none" stroke="midnightblue" d="M226.207,-125.795C238.967,-123.09 252.436,-120.234 264.841,-117.604"/>
<polygon fill="midnightblue" stroke="midnightblue" points="225.217,-122.427 216.161,-127.925 226.669,-129.275 225.217,-122.427"/>
</g>
<!-- Node18 -->
<g id="node18" class="node"><title>Node18</title>
<g id="a_node18"><a xlink:title="STL class. ">
<polygon fill="white" stroke="#bfbfbf" points="380,-157.5 380,-187.5 477,-187.5 477,-157.5 380,-157.5"/>
<text text-anchor="start" x="388" y="-175.5" font-family="Helvetica,sans-Serif" font-size="10.00">std::basic_istream</text>
<text text-anchor="middle" x="428.5" y="-164.5" font-family="Helvetica,sans-Serif" font-size="10.00">&lt; char &gt;</text>
</a>
</g>
</g>
<!-- Node9&#45;&gt;Node18 -->
<g id="edge18" class="edge"><title>Node9&#45;&gt;Node18</title>
<path fill="none" stroke="midnightblue" d="M238.395,-146.696C282.886,-152.767 340.097,-160.574 379.885,-166.003"/>
<polygon fill="midnightblue" stroke="midnightblue" points="238.626,-143.195 228.244,-145.311 237.679,-150.131 238.626,-143.195"/>
</g>
<!-- Node10 -->
<g id="node10" class="node"><title>Node10</title>
<g id="a_node10"><a xlink:title="STL class. ">
<polygon fill="white" stroke="#bfbfbf" points="0,-128 0,-147 75,-147 75,-128 0,-128"/>
<text text-anchor="middle" x="37.5" y="-135" font-family="Helvetica,sans-Serif" font-size="10.00">std::ios_base</text>
</a>
</g>
</g>
<!-- Node10&#45;&gt;Node9 -->
<g id="edge9" class="edge"><title>Node10&#45;&gt;Node9</title>
<path fill="none" stroke="midnightblue" d="M85.3188,-137.5C93.8367,-137.5 102.811,-137.5 111.593,-137.5"/>
<polygon fill="midnightblue" stroke="midnightblue" points="85.1988,-134 75.1988,-137.5 85.1988,-141 85.1988,-134"/>
</g>
<!-- Node11 -->
<g id="node11" class="node"><title>Node11</title>
<g id="a_node11"><a xlink:href="group__smart__pointer.html" target="_top" xlink:title="smart_ptr\&lt; blfwk::Option\lContext \&gt;">
<polygon fill="white" stroke="black" points="951.5,-0.5 951.5,-30.5 1074.5,-30.5 1074.5,-0.5 951.5,-0.5"/>
<text text-anchor="start" x="959.5" y="-18.5" font-family="Helvetica,sans-Serif" font-size="10.00">smart_ptr&lt; blfwk::Option</text>
<text text-anchor="middle" x="1013" y="-7.5" font-family="Helvetica,sans-Serif" font-size="10.00">Context &gt;</text>
</a>
</g>
</g>
<!-- Node11&#45;&gt;Node2 -->
<g id="edge10" class="edge"><title>Node11&#45;&gt;Node2</title>
<path fill="none" stroke="#9a32cd" stroke-dasharray="5,2" d="M1076.39,-33.4744C1098.21,-40.0455 1122.8,-47.7703 1145,-55.5 1163.19,-61.8325 1183.47,-69.8289 1198.57,-75.9734"/>
<polygon fill="#9a32cd" stroke="#9a32cd" points="1077.16,-30.0516 1066.57,-30.5407 1075.15,-36.7584 1077.16,-30.0516"/>
<text text-anchor="middle" x="1120.5" y="-58.5" font-family="Helvetica,sans-Serif" font-size="10.00"> m_options</text>
</g>
<!-- Node12 -->
<g id="node12" class="node"><title>Node12</title>
<g id="a_node12"><a xlink:href="classblfwk_1_1_option_context.html" target="_top" xlink:title="Pure abstract interface class to a table of options. ">
<polygon fill="white" stroke="black" points="708,-6 708,-25 815,-25 815,-6 708,-6"/>
<text text-anchor="middle" x="761.5" y="-13" font-family="Helvetica,sans-Serif" font-size="10.00">blfwk::OptionContext</text>
</a>
</g>
</g>
<!-- Node12&#45;&gt;Node11 -->
<g id="edge11" class="edge"><title>Node12&#45;&gt;Node11</title>
<path fill="none" stroke="#9a32cd" stroke-dasharray="5,2" d="M825.174,-15.5C863.729,-15.5 912.9,-15.5 951.119,-15.5"/>
<polygon fill="#9a32cd" stroke="#9a32cd" points="825.108,-12.0001 815.108,-15.5 825.108,-19.0001 825.108,-12.0001"/>
<text text-anchor="middle" x="881.5" y="-18.5" font-family="Helvetica,sans-Serif" font-size="10.00"> _p</text>
</g>
<!-- Node13 -->
<g id="node13" class="node"><title>Node13</title>
<g id="a_node13"><a xlink:href="group__smart__pointer.html" target="_top" xlink:title="smart_ptr\&lt; StELFFile \&gt;">
<polygon fill="white" stroke="black" points="1163,-146 1163,-165 1282,-165 1282,-146 1163,-146"/>
<text text-anchor="middle" x="1222.5" y="-153" font-family="Helvetica,sans-Serif" font-size="10.00">smart_ptr&lt; StELFFile &gt;</text>
</a>
</g>
</g>
<!-- Node13&#45;&gt;Node1 -->
<g id="edge12" class="edge"><title>Node13&#45;&gt;Node1</title>
<path fill="none" stroke="#9a32cd" stroke-dasharray="5,2" d="M1287.97,-144.209C1307.26,-140.829 1328.21,-137.161 1346.74,-133.916"/>
<polygon fill="#9a32cd" stroke="#9a32cd" points="1287.3,-140.773 1278.05,-145.946 1288.5,-147.668 1287.3,-140.773"/>
<text text-anchor="middle" x="1314.5" y="-145.5" font-family="Helvetica,sans-Serif" font-size="10.00"> m_file</text>
</g>
<!-- Node14&#45;&gt;Node13 -->
<g id="edge13" class="edge"><title>Node14&#45;&gt;Node13</title>
<path fill="none" stroke="#9a32cd" stroke-dasharray="5,2" d="M1053.25,-196.852C1090.41,-187.72 1145.86,-174.092 1182.82,-165.007"/>
<polygon fill="#9a32cd" stroke="#9a32cd" points="1052.17,-193.515 1043.29,-199.301 1053.84,-200.313 1052.17,-193.515"/>
<text text-anchor="middle" x="1120.5" y="-189.5" font-family="Helvetica,sans-Serif" font-size="10.00"> _p</text>
</g>
<!-- Node15 -->
<g id="node15" class="node"><title>Node15</title>
<polygon fill="white" stroke="#bfbfbf" points="715.5,-225.5 715.5,-255.5 807.5,-255.5 807.5,-225.5 715.5,-225.5"/>
<text text-anchor="start" x="723.5" y="-243.5" font-family="Helvetica,sans-Serif" font-size="10.00">std::vector&lt; Elf32</text>
<text text-anchor="middle" x="761.5" y="-232.5" font-family="Helvetica,sans-Serif" font-size="10.00">_Phdr &gt;</text>
</g>
<!-- Node15&#45;&gt;Node14 -->
<g id="edge14" class="edge"><title>Node15&#45;&gt;Node14</title>
<path fill="none" stroke="#9a32cd" stroke-dasharray="5,2" d="M817.916,-233.429C850.558,-229.213 892.645,-223.686 930,-218.5 947.529,-216.066 967.143,-213.201 982.793,-210.881"/>
<polygon fill="#9a32cd" stroke="#9a32cd" points="817.138,-230.001 807.668,-234.75 818.033,-236.943 817.138,-230.001"/>
<text text-anchor="middle" x="881.5" y="-234.5" font-family="Helvetica,sans-Serif" font-size="10.00"> m_programHeaders</text>
</g>
<!-- Node16 -->
<g id="node16" class="node"><title>Node16</title>
<g id="a_node16"><a xlink:href="struct_elf32___phdr.html" target="_top" xlink:title="ELF program header. ">
<polygon fill="white" stroke="black" points="530,-231 530,-250 594,-250 594,-231 530,-231"/>
<text text-anchor="middle" x="562" y="-238" font-family="Helvetica,sans-Serif" font-size="10.00">Elf32_Phdr</text>
</a>
</g>
</g>
<!-- Node16&#45;&gt;Node15 -->
<g id="edge15" class="edge"><title>Node16&#45;&gt;Node15</title>
<path fill="none" stroke="#9a32cd" stroke-dasharray="5,2" d="M604.362,-240.5C636.837,-240.5 681.994,-240.5 715.395,-240.5"/>
<polygon fill="#9a32cd" stroke="#9a32cd" points="604.294,-237 594.294,-240.5 604.294,-244 604.294,-237"/>
<text text-anchor="middle" x="668.5" y="-243.5" font-family="Helvetica,sans-Serif" font-size="10.00"> elements</text>
</g>
<!-- Node17 -->
<g id="node17" class="node"><title>Node17</title>
<g id="a_node17"><a xlink:title="STL class. ">
<polygon fill="white" stroke="#bfbfbf" points="727.5,-187 727.5,-206 795.5,-206 795.5,-187 727.5,-187"/>
<text text-anchor="middle" x="761.5" y="-194" font-family="Helvetica,sans-Serif" font-size="10.00">std::istream</text>
</a>
</g>
</g>
<!-- Node17&#45;&gt;Node14 -->
<g id="edge16" class="edge"><title>Node17&#45;&gt;Node14</title>
<path fill="none" stroke="#9a32cd" stroke-dasharray="5,2" d="M805.645,-198.229C856.421,-200.264 939.333,-203.587 982.999,-205.338"/>
<polygon fill="#9a32cd" stroke="#9a32cd" points="805.764,-194.731 795.632,-197.828 805.483,-201.726 805.764,-194.731"/>
<text text-anchor="middle" x="881.5" y="-206.5" font-family="Helvetica,sans-Serif" font-size="10.00"> m_stream</text>
</g>
<!-- Node18&#45;&gt;Node17 -->
<g id="edge17" class="edge"><title>Node18&#45;&gt;Node17</title>
<path fill="none" stroke="midnightblue" d="M487.622,-176.714C557.173,-181.757 671.244,-190.028 727.297,-194.093"/>
<polygon fill="midnightblue" stroke="midnightblue" points="487.504,-173.197 477.277,-175.964 486.997,-180.178 487.504,-173.197"/>
</g>
<!-- Node19 -->
<g id="node19" class="node"><title>Node19</title>
<g id="a_node19"><a xlink:href="struct_elf32___ehdr.html" target="_top" xlink:title="ELF file header. ">
<polygon fill="white" stroke="black" points="729.5,-149 729.5,-168 793.5,-168 793.5,-149 729.5,-149"/>
<text text-anchor="middle" x="761.5" y="-156" font-family="Helvetica,sans-Serif" font-size="10.00">Elf32_Ehdr</text>
</a>
</g>
</g>
<!-- Node19&#45;&gt;Node14 -->
<g id="edge19" class="edge"><title>Node19&#45;&gt;Node14</title>
<path fill="none" stroke="#9a32cd" stroke-dasharray="5,2" d="M803.597,-163.617C837.644,-168.158 887.206,-175.466 930,-184.5 947.739,-188.245 967.361,-193.47 982.963,-197.888"/>
<polygon fill="#9a32cd" stroke="#9a32cd" points="803.924,-160.13 793.554,-162.298 803.013,-167.07 803.924,-160.13"/>
<text text-anchor="middle" x="881.5" y="-187.5" font-family="Helvetica,sans-Serif" font-size="10.00"> m_header</text>
</g>
<!-- Node20 -->
<g id="node20" class="node"><title>Node20</title>
<polygon fill="white" stroke="#bfbfbf" points="715.5,-323.5 715.5,-353.5 807.5,-353.5 807.5,-323.5 715.5,-323.5"/>
<text text-anchor="start" x="723.5" y="-341.5" font-family="Helvetica,sans-Serif" font-size="10.00">std::vector&lt; Elf32</text>
<text text-anchor="middle" x="761.5" y="-330.5" font-family="Helvetica,sans-Serif" font-size="10.00">_Shdr &gt;</text>
</g>
<!-- Node20&#45;&gt;Node14 -->
<g id="edge21" class="edge"><title>Node20&#45;&gt;Node14</title>
<path fill="none" stroke="#9a32cd" stroke-dasharray="5,2" d="M817.471,-329.717C851.615,-322.547 895.426,-310.132 930,-289.5 963.223,-269.674 992.517,-233.23 1005.25,-216.001"/>
<polygon fill="#9a32cd" stroke="#9a32cd" points="816.774,-326.287 807.66,-331.69 818.154,-333.15 816.774,-326.287"/>
<text text-anchor="middle" x="881.5" y="-328.5" font-family="Helvetica,sans-Serif" font-size="10.00"> m_sectionHeaders</text>
</g>
<!-- Node21 -->
<g id="node21" class="node"><title>Node21</title>
<g id="a_node21"><a xlink:href="struct_elf32___shdr.html" target="_top" xlink:title="ELF section header. ">
<polygon fill="white" stroke="black" points="530,-329 530,-348 594,-348 594,-329 530,-329"/>
<text text-anchor="middle" x="562" y="-336" font-family="Helvetica,sans-Serif" font-size="10.00">Elf32_Shdr</text>
</a>
</g>
</g>
<!-- Node21&#45;&gt;Node20 -->
<g id="edge22" class="edge"><title>Node21&#45;&gt;Node20</title>
<path fill="none" stroke="#9a32cd" stroke-dasharray="5,2" d="M604.362,-338.5C636.837,-338.5 681.994,-338.5 715.395,-338.5"/>
<polygon fill="#9a32cd" stroke="#9a32cd" points="604.294,-335 594.294,-338.5 604.294,-342 604.294,-335"/>
<text text-anchor="middle" x="668.5" y="-341.5" font-family="Helvetica,sans-Serif" font-size="10.00"> elements</text>
</g>
<!-- Node22 -->
<g id="node22" class="node"><title>Node22</title>
<polygon fill="white" stroke="#bfbfbf" points="708.5,-274.5 708.5,-304.5 814.5,-304.5 814.5,-274.5 708.5,-274.5"/>
<text text-anchor="start" x="716.5" y="-292.5" font-family="Helvetica,sans-Serif" font-size="10.00">std::map&lt; unsigned,</text>
<text text-anchor="middle" x="761.5" y="-281.5" font-family="Helvetica,sans-Serif" font-size="10.00"> SectionDataInfo &gt;</text>
</g>
<!-- Node22&#45;&gt;Node14 -->
<g id="edge23" class="edge"><title>Node22&#45;&gt;Node14</title>
<path fill="none" stroke="#9a32cd" stroke-dasharray="5,2" d="M824.738,-276.688C856.678,-269.322 895.931,-259.035 930,-246.5 953.19,-237.968 978.567,-224.98 994.854,-216.136"/>
<polygon fill="#9a32cd" stroke="#9a32cd" points="823.62,-273.352 814.641,-278.976 825.167,-280.179 823.62,-273.352"/>
<text text-anchor="middle" x="881.5" y="-277.5" font-family="Helvetica,sans-Serif" font-size="10.00"> m_sectionDataCache</text>
</g>
<!-- Node23 -->
<g id="node23" class="node"><title>Node23</title>
<g id="a_node23"><a xlink:href="class_st_e_l_f_file.html#struct_st_e_l_f_file_1_1_section_data_info" target="_top" xlink:title="StELFFile::SectionDataInfo">
<polygon fill="white" stroke="black" points="495,-280 495,-299 629,-299 629,-280 495,-280"/>
<text text-anchor="middle" x="562" y="-287" font-family="Helvetica,sans-Serif" font-size="10.00">StELFFile::SectionDataInfo</text>
</a>
</g>
</g>
<!-- Node23&#45;&gt;Node22 -->
<g id="edge24" class="edge"><title>Node23&#45;&gt;Node22</title>
<path fill="none" stroke="#9a32cd" stroke-dasharray="5,2" d="M639.163,-289.5C662.265,-289.5 687.109,-289.5 708.263,-289.5"/>
<polygon fill="#9a32cd" stroke="#9a32cd" points="639.039,-286 629.039,-289.5 639.039,-293 639.039,-286"/>
<text text-anchor="middle" x="668.5" y="-292.5" font-family="Helvetica,sans-Serif" font-size="10.00"> elements</text>
</g>
</g>
</svg>
