<?xml version="1.0" encoding="UTF-8" standalone="no"?>
<!DOCTYPE svg PUBLIC "-//W3C//DTD SVG 1.1//EN"
 "http://www.w3.org/Graphics/SVG/1.1/DTD/svg11.dtd">
<!-- Generated by graphviz version 2.38.0 (20140413.2041)
 -->
<!-- Title: blfwk::ELFSourceFile::ELFDataSource::NoBitsSegment Pages: 1 -->
<svg width="1075pt" height="390pt"
 viewBox="0.00 0.00 1075.00 390.00" xmlns="http://www.w3.org/2000/svg" xmlns:xlink="http://www.w3.org/1999/xlink">
<g id="graph0" class="graph" transform="scale(1 1) rotate(0) translate(4 386)">
<title>blfwk::ELFSourceFile::ELFDataSource::NoBitsSegment</title>
<polygon fill="white" stroke="none" points="-4,4 -4,-386 1071,-386 1071,4 -4,4"/>
<!-- Node1 -->
<g id="node1" class="node"><title>Node1</title>
<polygon fill="#bfbfbf" stroke="black" points="901,-206.5 901,-236.5 1067,-236.5 1067,-206.5 901,-206.5"/>
<text text-anchor="start" x="909" y="-224.5" font-family="Helvetica,sans-Serif" font-size="10.00">blfwk::ELFSourceFile</text>
<text text-anchor="middle" x="984" y="-213.5" font-family="Helvetica,sans-Serif" font-size="10.00">::ELFDataSource::NoBitsSegment</text>
</g>
<!-- Node2 -->
<g id="node2" class="node"><title>Node2</title>
<g id="a_node2"><a xlink:href="classblfwk_1_1_data_source_1_1_pattern_segment.html" target="_top" xlink:title="This is a special type of segment containing a repeating pattern. ">
<polygon fill="white" stroke="black" points="737,-257.5 737,-287.5 838,-287.5 838,-257.5 737,-257.5"/>
<text text-anchor="start" x="745" y="-275.5" font-family="Helvetica,sans-Serif" font-size="10.00">blfwk::DataSource::</text>
<text text-anchor="middle" x="787.5" y="-264.5" font-family="Helvetica,sans-Serif" font-size="10.00">PatternSegment</text>
</a>
</g>
</g>
<!-- Node2&#45;&gt;Node1 -->
<g id="edge1" class="edge"><title>Node2&#45;&gt;Node1</title>
<path fill="none" stroke="midnightblue" d="M848.033,-256.89C872.681,-250.427 901.154,-242.961 925.576,-236.557"/>
<polygon fill="midnightblue" stroke="midnightblue" points="846.869,-253.577 838.084,-259.499 848.645,-260.348 846.869,-253.577"/>
</g>
<!-- Node3 -->
<g id="node3" class="node"><title>Node3</title>
<g id="a_node3"><a xlink:href="classblfwk_1_1_data_source_1_1_segment.html" target="_top" xlink:title="Discrete, contiguous part of the source&#39;s data. ">
<polygon fill="white" stroke="black" points="492,-351.5 492,-381.5 593,-381.5 593,-351.5 492,-351.5"/>
<text text-anchor="start" x="500" y="-369.5" font-family="Helvetica,sans-Serif" font-size="10.00">blfwk::DataSource::</text>
<text text-anchor="middle" x="542.5" y="-358.5" font-family="Helvetica,sans-Serif" font-size="10.00">Segment</text>
</a>
</g>
</g>
<!-- Node3&#45;&gt;Node2 -->
<g id="edge2" class="edge"><title>Node3&#45;&gt;Node2</title>
<path fill="none" stroke="midnightblue" d="M591.943,-347.761C637.637,-330.085 705.258,-303.927 747.555,-287.565"/>
<polygon fill="midnightblue" stroke="midnightblue" points="590.606,-344.525 582.542,-351.397 593.131,-351.054 590.606,-344.525"/>
</g>
<!-- Node4 -->
<g id="node4" class="node"><title>Node4</title>
<g id="a_node4"><a xlink:href="classblfwk_1_1_data_source.html" target="_top" xlink:title="Abstract base class for data sources. ">
<polygon fill="white" stroke="black" points="284.5,-327 284.5,-346 379.5,-346 379.5,-327 284.5,-327"/>
<text text-anchor="middle" x="332" y="-334" font-family="Helvetica,sans-Serif" font-size="10.00">blfwk::DataSource</text>
</a>
</g>
</g>
<!-- Node4&#45;&gt;Node3 -->
<g id="edge3" class="edge"><title>Node4&#45;&gt;Node3</title>
<path fill="none" stroke="#9a32cd" stroke-dasharray="5,2" d="M389.616,-344.646C421.56,-349.242 461.106,-354.933 491.837,-359.354"/>
<polygon fill="#9a32cd" stroke="#9a32cd" points="389.929,-341.155 379.532,-343.195 388.932,-348.084 389.929,-341.155"/>
<text text-anchor="middle" x="440" y="-357.5" font-family="Helvetica,sans-Serif" font-size="10.00"> m_source</text>
</g>
<!-- Node5 -->
<g id="node5" class="node"><title>Node5</title>
<g id="a_node5"><a xlink:href="classblfwk_1_1_data_target.html" target="_top" xlink:title="Abstract base class for the target address or range of data. ">
<polygon fill="white" stroke="black" points="496.5,-309 496.5,-328 588.5,-328 588.5,-309 496.5,-309"/>
<text text-anchor="middle" x="542.5" y="-316" font-family="Helvetica,sans-Serif" font-size="10.00">blfwk::DataTarget</text>
</a>
</g>
</g>
<!-- Node4&#45;&gt;Node5 -->
<g id="edge5" class="edge"><title>Node4&#45;&gt;Node5</title>
<path fill="none" stroke="#9a32cd" stroke-dasharray="5,2" d="M389.631,-331.611C423.101,-328.722 464.912,-325.112 496.185,-322.412"/>
<polygon fill="#9a32cd" stroke="#9a32cd" points="389.194,-328.136 379.532,-332.483 389.796,-335.11 389.194,-328.136"/>
<text text-anchor="middle" x="440" y="-331.5" font-family="Helvetica,sans-Serif" font-size="10.00"> m_source</text>
</g>
<!-- Node5&#45;&gt;Node4 -->
<g id="edge4" class="edge"><title>Node5&#45;&gt;Node4</title>
<path fill="none" stroke="#9a32cd" stroke-dasharray="5,2" d="M498.391,-306.824C474.321,-301.925 443.859,-298.413 417,-303.5 393.446,-307.961 368.042,-318.877 351.413,-326.939"/>
<polygon fill="#9a32cd" stroke="#9a32cd" points="497.769,-310.271 508.286,-308.988 499.264,-303.432 497.769,-310.271"/>
<text text-anchor="middle" x="440" y="-306.5" font-family="Helvetica,sans-Serif" font-size="10.00"> m_target</text>
</g>
<!-- Node6 -->
<g id="node6" class="node"><title>Node6</title>
<g id="a_node6"><a xlink:href="classblfwk_1_1_sized_integer_value.html" target="_top" xlink:title="Adds a word size attribute to IntegerValue. ">
<polygon fill="white" stroke="black" points="481,-263 481,-282 604,-282 604,-263 481,-263"/>
<text text-anchor="middle" x="542.5" y="-270" font-family="Helvetica,sans-Serif" font-size="10.00">blfwk::SizedIntegerValue</text>
</a>
</g>
</g>
<!-- Node6&#45;&gt;Node2 -->
<g id="edge6" class="edge"><title>Node6&#45;&gt;Node2</title>
<path fill="none" stroke="#9a32cd" stroke-dasharray="5,2" d="M614.244,-272.5C653.54,-272.5 701.473,-272.5 736.788,-272.5"/>
<polygon fill="#9a32cd" stroke="#9a32cd" points="614.192,-269 604.192,-272.5 614.192,-276 614.192,-269"/>
<text text-anchor="middle" x="670.5" y="-275.5" font-family="Helvetica,sans-Serif" font-size="10.00"> m_pattern</text>
</g>
<!-- Node7 -->
<g id="node7" class="node"><title>Node7</title>
<g id="a_node7"><a xlink:href="classblfwk_1_1_integer_value.html" target="_top" xlink:title="32&#45;bit signed integer value. ">
<polygon fill="white" stroke="black" points="283,-260 283,-279 381,-279 381,-260 283,-260"/>
<text text-anchor="middle" x="332" y="-267" font-family="Helvetica,sans-Serif" font-size="10.00">blfwk::IntegerValue</text>
</a>
</g>
</g>
<!-- Node7&#45;&gt;Node6 -->
<g id="edge7" class="edge"><title>Node7&#45;&gt;Node6</title>
<path fill="none" stroke="midnightblue" d="M391.134,-270.336C419.117,-270.739 452.651,-271.222 480.943,-271.629"/>
<polygon fill="midnightblue" stroke="midnightblue" points="391.145,-266.836 381.096,-270.192 391.044,-273.836 391.145,-266.836"/>
</g>
<!-- Node8 -->
<g id="node8" class="node"><title>Node8</title>
<g id="a_node8"><a xlink:href="classblfwk_1_1_value.html" target="_top" xlink:title="Abstract base class for values of arbitrary types. ">
<polygon fill="white" stroke="black" points="135.5,-260 135.5,-279 204.5,-279 204.5,-260 135.5,-260"/>
<text text-anchor="middle" x="170" y="-267" font-family="Helvetica,sans-Serif" font-size="10.00">blfwk::Value</text>
</a>
</g>
</g>
<!-- Node8&#45;&gt;Node7 -->
<g id="edge8" class="edge"><title>Node8&#45;&gt;Node7</title>
<path fill="none" stroke="midnightblue" d="M214.547,-269.5C235.71,-269.5 261.203,-269.5 282.934,-269.5"/>
<polygon fill="midnightblue" stroke="midnightblue" points="214.541,-266 204.541,-269.5 214.541,-273 214.541,-266"/>
</g>
<!-- Node9 -->
<g id="node9" class="node"><title>Node9</title>
<g id="a_node9"><a xlink:href="class_st_e_l_f_file.html" target="_top" xlink:title="Parser for Executable and Linking Format (ELF) files. ">
<polygon fill="white" stroke="black" points="757.5,-137 757.5,-156 817.5,-156 817.5,-137 757.5,-137"/>
<text text-anchor="middle" x="787.5" y="-144" font-family="Helvetica,sans-Serif" font-size="10.00">StELFFile</text>
</a>
</g>
</g>
<!-- Node9&#45;&gt;Node1 -->
<g id="edge9" class="edge"><title>Node9&#45;&gt;Node1</title>
<path fill="none" stroke="#9a32cd" stroke-dasharray="5,2" d="M823.018,-159.81C856.922,-172.884 908.572,-192.8 943.956,-206.445"/>
<polygon fill="#9a32cd" stroke="#9a32cd" points="824.119,-156.484 813.529,-156.151 821.6,-163.015 824.119,-156.484"/>
<text text-anchor="middle" x="869.5" y="-185.5" font-family="Helvetica,sans-Serif" font-size="10.00"> m_elf</text>
</g>
<!-- Node10 -->
<g id="node10" class="node"><title>Node10</title>
<polygon fill="white" stroke="#bfbfbf" points="496.5,-213.5 496.5,-243.5 588.5,-243.5 588.5,-213.5 496.5,-213.5"/>
<text text-anchor="start" x="504.5" y="-231.5" font-family="Helvetica,sans-Serif" font-size="10.00">std::vector&lt; Elf32</text>
<text text-anchor="middle" x="542.5" y="-220.5" font-family="Helvetica,sans-Serif" font-size="10.00">_Phdr &gt;</text>
</g>
<!-- Node10&#45;&gt;Node9 -->
<g id="edge10" class="edge"><title>Node10&#45;&gt;Node9</title>
<path fill="none" stroke="#9a32cd" stroke-dasharray="5,2" d="M598.983,-221.774C634.315,-216.22 680.509,-206.568 719,-190.5 740.171,-181.662 761.919,-166.09 774.815,-156.039"/>
<polygon fill="#9a32cd" stroke="#9a32cd" points="598.221,-218.349 588.855,-223.301 599.265,-225.271 598.221,-218.349"/>
<text text-anchor="middle" x="670.5" y="-220.5" font-family="Helvetica,sans-Serif" font-size="10.00"> m_programHeaders</text>
</g>
<!-- Node11 -->
<g id="node11" class="node"><title>Node11</title>
<g id="a_node11"><a xlink:href="struct_elf32___phdr.html" target="_top" xlink:title="ELF program header. ">
<polygon fill="white" stroke="black" points="300,-219 300,-238 364,-238 364,-219 300,-219"/>
<text text-anchor="middle" x="332" y="-226" font-family="Helvetica,sans-Serif" font-size="10.00">Elf32_Phdr</text>
</a>
</g>
</g>
<!-- Node11&#45;&gt;Node10 -->
<g id="edge11" class="edge"><title>Node11&#45;&gt;Node10</title>
<path fill="none" stroke="#9a32cd" stroke-dasharray="5,2" d="M374.605,-228.5C409.75,-228.5 459.994,-228.5 496.158,-228.5"/>
<polygon fill="#9a32cd" stroke="#9a32cd" points="374.215,-225 364.215,-228.5 374.215,-232 374.215,-225"/>
<text text-anchor="middle" x="440" y="-231.5" font-family="Helvetica,sans-Serif" font-size="10.00"> elements</text>
</g>
<!-- Node12 -->
<g id="node12" class="node"><title>Node12</title>
<g id="a_node12"><a xlink:title="STL class. ">
<polygon fill="white" stroke="#bfbfbf" points="508.5,-175 508.5,-194 576.5,-194 576.5,-175 508.5,-175"/>
<text text-anchor="middle" x="542.5" y="-182" font-family="Helvetica,sans-Serif" font-size="10.00">std::istream</text>
</a>
</g>
</g>
<!-- Node12&#45;&gt;Node9 -->
<g id="edge12" class="edge"><title>Node12&#45;&gt;Node9</title>
<path fill="none" stroke="#9a32cd" stroke-dasharray="5,2" d="M586.645,-179.437C622.248,-175.059 674.037,-168.228 719,-160.5 731.621,-158.331 745.484,-155.529 757.345,-153.003"/>
<polygon fill="#9a32cd" stroke="#9a32cd" points="586.1,-175.978 576.597,-180.661 586.946,-182.926 586.1,-175.978"/>
<text text-anchor="middle" x="670.5" y="-178.5" font-family="Helvetica,sans-Serif" font-size="10.00"> m_stream</text>
</g>
<!-- Node13 -->
<g id="node13" class="node"><title>Node13</title>
<g id="a_node13"><a xlink:title="STL class. ">
<polygon fill="white" stroke="#bfbfbf" points="283.5,-169.5 283.5,-199.5 380.5,-199.5 380.5,-169.5 283.5,-169.5"/>
<text text-anchor="start" x="291.5" y="-187.5" font-family="Helvetica,sans-Serif" font-size="10.00">std::basic_istream</text>
<text text-anchor="middle" x="332" y="-176.5" font-family="Helvetica,sans-Serif" font-size="10.00">&lt; char &gt;</text>
</a>
</g>
</g>
<!-- Node13&#45;&gt;Node12 -->
<g id="edge13" class="edge"><title>Node13&#45;&gt;Node12</title>
<path fill="none" stroke="midnightblue" d="M390.959,-184.5C428.823,-184.5 476.91,-184.5 508.412,-184.5"/>
<polygon fill="midnightblue" stroke="midnightblue" points="390.573,-181 380.573,-184.5 390.573,-188 390.573,-181"/>
</g>
<!-- Node14 -->
<g id="node14" class="node"><title>Node14</title>
<g id="a_node14"><a xlink:title="STL class. ">
<polygon fill="white" stroke="#bfbfbf" points="112,-175 112,-194 228,-194 228,-175 112,-175"/>
<text text-anchor="middle" x="170" y="-182" font-family="Helvetica,sans-Serif" font-size="10.00">std::basic_ios&lt; Char &gt;</text>
</a>
</g>
</g>
<!-- Node14&#45;&gt;Node13 -->
<g id="edge14" class="edge"><title>Node14&#45;&gt;Node13</title>
<path fill="none" stroke="midnightblue" d="M238.6,-184.5C253.637,-184.5 269.273,-184.5 283.314,-184.5"/>
<polygon fill="midnightblue" stroke="midnightblue" points="238.312,-181 228.312,-184.5 238.312,-188 238.312,-181"/>
</g>
<!-- Node15 -->
<g id="node15" class="node"><title>Node15</title>
<g id="a_node15"><a xlink:title="STL class. ">
<polygon fill="white" stroke="#bfbfbf" points="0,-175 0,-194 75,-194 75,-175 0,-175"/>
<text text-anchor="middle" x="37.5" y="-182" font-family="Helvetica,sans-Serif" font-size="10.00">std::ios_base</text>
</a>
</g>
</g>
<!-- Node15&#45;&gt;Node14 -->
<g id="edge15" class="edge"><title>Node15&#45;&gt;Node14</title>
<path fill="none" stroke="midnightblue" d="M85.3188,-184.5C93.8367,-184.5 102.811,-184.5 111.593,-184.5"/>
<polygon fill="midnightblue" stroke="midnightblue" points="85.1988,-181 75.1988,-184.5 85.1988,-188 85.1988,-181"/>
</g>
<!-- Node16 -->
<g id="node16" class="node"><title>Node16</title>
<g id="a_node16"><a xlink:href="struct_elf32___ehdr.html" target="_top" xlink:title="ELF file header. ">
<polygon fill="white" stroke="black" points="510.5,-137 510.5,-156 574.5,-156 574.5,-137 510.5,-137"/>
<text text-anchor="middle" x="542.5" y="-144" font-family="Helvetica,sans-Serif" font-size="10.00">Elf32_Ehdr</text>
</a>
</g>
</g>
<!-- Node16&#45;&gt;Node9 -->
<g id="edge16" class="edge"><title>Node16&#45;&gt;Node9</title>
<path fill="none" stroke="#9a32cd" stroke-dasharray="5,2" d="M585.03,-146.5C634.051,-146.5 714.317,-146.5 757.246,-146.5"/>
<polygon fill="#9a32cd" stroke="#9a32cd" points="584.771,-143 574.771,-146.5 584.77,-150 584.771,-143"/>
<text text-anchor="middle" x="670.5" y="-149.5" font-family="Helvetica,sans-Serif" font-size="10.00"> m_header</text>
</g>
<!-- Node17 -->
<g id="node17" class="node"><title>Node17</title>
<g id="a_node17"><a xlink:title="STL class. ">
<polygon fill="white" stroke="#bfbfbf" points="512.5,-99 512.5,-118 572.5,-118 572.5,-99 512.5,-99"/>
<text text-anchor="middle" x="542.5" y="-106" font-family="Helvetica,sans-Serif" font-size="10.00">std::string</text>
</a>
</g>
</g>
<!-- Node17&#45;&gt;Node9 -->
<g id="edge17" class="edge"><title>Node17&#45;&gt;Node9</title>
<path fill="none" stroke="#9a32cd" stroke-dasharray="5,2" d="M582.497,-112.61C618.162,-116.607 672.313,-123.27 719,-131.5 731.65,-133.73 745.517,-136.716 757.375,-139.437"/>
<polygon fill="#9a32cd" stroke="#9a32cd" points="582.825,-109.125 572.501,-111.506 582.056,-116.083 582.825,-109.125"/>
<text text-anchor="middle" x="670.5" y="-134.5" font-family="Helvetica,sans-Serif" font-size="10.00"> m_name</text>
</g>
<!-- Node18 -->
<g id="node18" class="node"><title>Node18</title>
<g id="a_node18"><a xlink:title="STL class. ">
<polygon fill="white" stroke="#bfbfbf" points="284.5,-93.5 284.5,-123.5 379.5,-123.5 379.5,-93.5 284.5,-93.5"/>
<text text-anchor="start" x="292.5" y="-111.5" font-family="Helvetica,sans-Serif" font-size="10.00">std::basic_string&lt;</text>
<text text-anchor="middle" x="332" y="-100.5" font-family="Helvetica,sans-Serif" font-size="10.00"> char &gt;</text>
</a>
</g>
</g>
<!-- Node18&#45;&gt;Node17 -->
<g id="edge18" class="edge"><title>Node18&#45;&gt;Node17</title>
<path fill="none" stroke="midnightblue" d="M389.615,-108.5C429.328,-108.5 480.789,-108.5 512.456,-108.5"/>
<polygon fill="midnightblue" stroke="midnightblue" points="389.532,-105 379.532,-108.5 389.532,-112 389.532,-105"/>
</g>
<!-- Node19 -->
<g id="node19" class="node"><title>Node19</title>
<polygon fill="white" stroke="#bfbfbf" points="496.5,-49.5 496.5,-79.5 588.5,-79.5 588.5,-49.5 496.5,-49.5"/>
<text text-anchor="start" x="504.5" y="-67.5" font-family="Helvetica,sans-Serif" font-size="10.00">std::vector&lt; Elf32</text>
<text text-anchor="middle" x="542.5" y="-56.5" font-family="Helvetica,sans-Serif" font-size="10.00">_Shdr &gt;</text>
</g>
<!-- Node19&#45;&gt;Node9 -->
<g id="edge19" class="edge"><title>Node19&#45;&gt;Node9</title>
<path fill="none" stroke="#9a32cd" stroke-dasharray="5,2" d="M598.924,-71.7456C634.233,-77.5813 680.423,-87.5101 719,-103.5 739.794,-112.119 761.301,-127.049 774.292,-136.851"/>
<polygon fill="#9a32cd" stroke="#9a32cd" points="599.229,-68.2503 588.804,-70.1352 598.129,-75.1633 599.229,-68.2503"/>
<text text-anchor="middle" x="670.5" y="-106.5" font-family="Helvetica,sans-Serif" font-size="10.00"> m_sectionHeaders</text>
</g>
<!-- Node20 -->
<g id="node20" class="node"><title>Node20</title>
<g id="a_node20"><a xlink:href="struct_elf32___shdr.html" target="_top" xlink:title="ELF section header. ">
<polygon fill="white" stroke="black" points="300,-55 300,-74 364,-74 364,-55 300,-55"/>
<text text-anchor="middle" x="332" y="-62" font-family="Helvetica,sans-Serif" font-size="10.00">Elf32_Shdr</text>
</a>
</g>
</g>
<!-- Node20&#45;&gt;Node19 -->
<g id="edge20" class="edge"><title>Node20&#45;&gt;Node19</title>
<path fill="none" stroke="#9a32cd" stroke-dasharray="5,2" d="M374.605,-64.5C409.75,-64.5 459.994,-64.5 496.158,-64.5"/>
<polygon fill="#9a32cd" stroke="#9a32cd" points="374.215,-61.0001 364.215,-64.5 374.215,-68.0001 374.215,-61.0001"/>
<text text-anchor="middle" x="440" y="-67.5" font-family="Helvetica,sans-Serif" font-size="10.00"> elements</text>
</g>
<!-- Node21 -->
<g id="node21" class="node"><title>Node21</title>
<polygon fill="white" stroke="#bfbfbf" points="489.5,-0.5 489.5,-30.5 595.5,-30.5 595.5,-0.5 489.5,-0.5"/>
<text text-anchor="start" x="497.5" y="-18.5" font-family="Helvetica,sans-Serif" font-size="10.00">std::map&lt; unsigned,</text>
<text text-anchor="middle" x="542.5" y="-7.5" font-family="Helvetica,sans-Serif" font-size="10.00"> SectionDataInfo &gt;</text>
</g>
<!-- Node21&#45;&gt;Node9 -->
<g id="edge21" class="edge"><title>Node21&#45;&gt;Node9</title>
<path fill="none" stroke="#9a32cd" stroke-dasharray="5,2" d="M605.987,-22.4799C641.389,-28.7217 685.212,-40.4703 719,-62.5 748.933,-82.0159 771.775,-119.17 781.444,-136.778"/>
<polygon fill="#9a32cd" stroke="#9a32cd" points="606.204,-18.9683 595.767,-20.7878 605.061,-25.8743 606.204,-18.9683"/>
<text text-anchor="middle" x="670.5" y="-65.5" font-family="Helvetica,sans-Serif" font-size="10.00"> m_sectionDataCache</text>
</g>
<!-- Node22 -->
<g id="node22" class="node"><title>Node22</title>
<g id="a_node22"><a xlink:href="class_st_e_l_f_file.html#struct_st_e_l_f_file_1_1_section_data_info" target="_top" xlink:title="StELFFile::SectionDataInfo">
<polygon fill="white" stroke="black" points="265,-6 265,-25 399,-25 399,-6 265,-6"/>
<text text-anchor="middle" x="332" y="-13" font-family="Helvetica,sans-Serif" font-size="10.00">StELFFile::SectionDataInfo</text>
</a>
</g>
</g>
<!-- Node22&#45;&gt;Node21 -->
<g id="edge22" class="edge"><title>Node22&#45;&gt;Node21</title>
<path fill="none" stroke="#9a32cd" stroke-dasharray="5,2" d="M409.305,-15.5C435.898,-15.5 465.111,-15.5 489.296,-15.5"/>
<polygon fill="#9a32cd" stroke="#9a32cd" points="409.257,-12.0001 399.257,-15.5 409.257,-19.0001 409.257,-12.0001"/>
<text text-anchor="middle" x="440" y="-18.5" font-family="Helvetica,sans-Serif" font-size="10.00"> elements</text>
</g>
</g>
</svg>
