<?xml version="1.0" encoding="UTF-8" standalone="no"?>
<!DOCTYPE svg PUBLIC "-//W3C//DTD SVG 1.1//EN"
 "http://www.w3.org/Graphics/SVG/1.1/DTD/svg11.dtd">
<!-- Generated by graphviz version 2.38.0 (20140413.2041)
 -->
<!-- Title: blfwk::MemoryImageDataSource Pages: 1 -->
<svg width="783pt" height="226pt"
 viewBox="0.00 0.00 783.00 225.84" xmlns="http://www.w3.org/2000/svg" xmlns:xlink="http://www.w3.org/1999/xlink">
<g id="graph0" class="graph" transform="scale(1 1) rotate(0) translate(4 221.843)">
<title>blfwk::MemoryImageDataSource</title>
<polygon fill="white" stroke="none" points="-4,4 -4,-221.843 779,-221.843 779,4 -4,4"/>
<!-- Node1 -->
<g id="node1" class="node"><title>Node1</title>
<polygon fill="#bfbfbf" stroke="black" points="618,-122.343 618,-141.343 775,-141.343 775,-122.343 618,-122.343"/>
<text text-anchor="middle" x="696.5" y="-129.343" font-family="Helvetica,sans-Serif" font-size="10.00">blfwk::MemoryImageDataSource</text>
</g>
<!-- Node2 -->
<g id="node2" class="node"><title>Node2</title>
<g id="a_node2"><a xlink:href="classblfwk_1_1_data_source.html" target="_top" xlink:title="Abstract base class for data sources. ">
<polygon fill="white" stroke="black" points="413.5,-181.343 413.5,-200.343 508.5,-200.343 508.5,-181.343 413.5,-181.343"/>
<text text-anchor="middle" x="461" y="-188.343" font-family="Helvetica,sans-Serif" font-size="10.00">blfwk::DataSource</text>
</a>
</g>
</g>
<!-- Node2&#45;&gt;Node1 -->
<g id="edge1" class="edge"><title>Node2&#45;&gt;Node1</title>
<path fill="none" stroke="midnightblue" d="M509.616,-178.811C553.395,-167.749 617.446,-151.565 657.779,-141.374"/>
<polygon fill="midnightblue" stroke="midnightblue" points="508.613,-175.455 499.775,-181.298 510.328,-182.241 508.613,-175.455"/>
</g>
<!-- Node3 -->
<g id="node3" class="node"><title>Node3</title>
<g id="a_node3"><a xlink:href="classblfwk_1_1_data_target.html" target="_top" xlink:title="Abstract base class for the target address or range of data. ">
<polygon fill="white" stroke="black" points="650.5,-198.343 650.5,-217.343 742.5,-217.343 742.5,-198.343 650.5,-198.343"/>
<text text-anchor="middle" x="696.5" y="-205.343" font-family="Helvetica,sans-Serif" font-size="10.00">blfwk::DataTarget</text>
</a>
</g>
</g>
<!-- Node2&#45;&gt;Node3 -->
<g id="edge3" class="edge"><title>Node2&#45;&gt;Node3</title>
<path fill="none" stroke="#9a32cd" stroke-dasharray="5,2" d="M519.104,-200.436C526.127,-201.377 533.217,-202.214 540,-202.843 577.115,-206.282 619.402,-207.466 650.5,-207.827"/>
<polygon fill="#9a32cd" stroke="#9a32cd" points="519.299,-196.929 508.908,-198.996 518.32,-203.86 519.299,-196.929"/>
<text text-anchor="middle" x="570" y="-208.843" font-family="Helvetica,sans-Serif" font-size="10.00"> m_source</text>
</g>
<!-- Node3&#45;&gt;Node2 -->
<g id="edge2" class="edge"><title>Node3&#45;&gt;Node2</title>
<path fill="none" stroke="#9a32cd" stroke-dasharray="5,2" d="M639.802,-196.984C626.791,-194.872 612.951,-192.967 600,-191.843 569.686,-189.21 535.486,-188.944 508.717,-189.343"/>
<polygon fill="#9a32cd" stroke="#9a32cd" points="639.583,-200.496 650.026,-198.71 640.749,-193.594 639.583,-200.496"/>
<text text-anchor="middle" x="570" y="-194.843" font-family="Helvetica,sans-Serif" font-size="10.00"> m_target</text>
</g>
<!-- Node4 -->
<g id="node4" class="node"><title>Node4</title>
<g id="a_node4"><a xlink:href="class_st_executable_image.html" target="_top" xlink:title="Used to build a representation of memory regions. ">
<polygon fill="white" stroke="black" points="410.5,-138.343 410.5,-157.343 511.5,-157.343 511.5,-138.343 410.5,-138.343"/>
<text text-anchor="middle" x="461" y="-145.343" font-family="Helvetica,sans-Serif" font-size="10.00">StExecutableImage</text>
</a>
</g>
</g>
<!-- Node4&#45;&gt;Node1 -->
<g id="edge4" class="edge"><title>Node4&#45;&gt;Node1</title>
<path fill="none" stroke="#9a32cd" stroke-dasharray="5,2" d="M513.911,-136.487C522.583,-134.985 531.517,-133.678 540,-132.843 565.255,-130.354 592.929,-129.559 617.84,-129.548"/>
<polygon fill="#9a32cd" stroke="#9a32cd" points="513.098,-133.077 503.893,-138.322 514.36,-139.963 513.098,-133.077"/>
<text text-anchor="middle" x="570" y="-135.843" font-family="Helvetica,sans-Serif" font-size="10.00"> m_image</text>
</g>
<!-- Node5 -->
<g id="node5" class="node"><title>Node5</title>
<polygon fill="white" stroke="#bfbfbf" points="192.5,-186.343 192.5,-205.343 317.5,-205.343 317.5,-186.343 192.5,-186.343"/>
<text text-anchor="middle" x="255" y="-193.343" font-family="Helvetica,sans-Serif" font-size="10.00">std::list&lt; AddressFilter &gt;</text>
</g>
<!-- Node5&#45;&gt;Node4 -->
<g id="edge5" class="edge"><title>Node5&#45;&gt;Node4</title>
<path fill="none" stroke="#9a32cd" stroke-dasharray="5,2" d="M306.741,-183.904C341.471,-175.732 386.914,-165.039 419.279,-157.424"/>
<polygon fill="#9a32cd" stroke="#9a32cd" points="305.725,-180.547 296.792,-186.245 307.328,-187.361 305.725,-180.547"/>
<text text-anchor="middle" x="360.5" y="-178.843" font-family="Helvetica,sans-Serif" font-size="10.00"> m_filters</text>
</g>
<!-- Node6 -->
<g id="node6" class="node"><title>Node6</title>
<g id="a_node6"><a xlink:href="struct_st_executable_image_1_1_address_filter.html" target="_top" xlink:title="StExecutableImage::\lAddressFilter">
<polygon fill="white" stroke="black" points="0,-186.843 0,-216.843 107,-216.843 107,-186.843 0,-186.843"/>
<text text-anchor="start" x="8" y="-204.843" font-family="Helvetica,sans-Serif" font-size="10.00">StExecutableImage::</text>
<text text-anchor="middle" x="53.5" y="-193.843" font-family="Helvetica,sans-Serif" font-size="10.00">AddressFilter</text>
</a>
</g>
</g>
<!-- Node6&#45;&gt;Node5 -->
<g id="edge6" class="edge"><title>Node6&#45;&gt;Node5</title>
<path fill="none" stroke="#9a32cd" stroke-dasharray="5,2" d="M117.203,-199.957C141.114,-199.238 168.336,-198.419 192.165,-197.702"/>
<polygon fill="#9a32cd" stroke="#9a32cd" points="117.067,-196.459 107.177,-200.258 117.278,-203.456 117.067,-196.459"/>
<text text-anchor="middle" x="148" y="-201.843" font-family="Helvetica,sans-Serif" font-size="10.00"> elements</text>
</g>
<!-- Node7 -->
<g id="node7" class="node"><title>Node7</title>
<polygon fill="white" stroke="#bfbfbf" points="189,-143.343 189,-162.343 321,-162.343 321,-143.343 189,-143.343"/>
<text text-anchor="middle" x="255" y="-150.343" font-family="Helvetica,sans-Serif" font-size="10.00">std::list&lt; MemoryRegion &gt;</text>
</g>
<!-- Node7&#45;&gt;Node4 -->
<g id="edge7" class="edge"><title>Node7&#45;&gt;Node4</title>
<path fill="none" stroke="#9a32cd" stroke-dasharray="5,2" d="M331.445,-150.994C357.784,-150.348 386.663,-149.64 410.365,-149.059"/>
<polygon fill="#9a32cd" stroke="#9a32cd" points="331.019,-147.503 321.108,-151.247 331.191,-154.501 331.019,-147.503"/>
<text text-anchor="middle" x="360.5" y="-153.843" font-family="Helvetica,sans-Serif" font-size="10.00"> m_image</text>
</g>
<!-- Node8 -->
<g id="node8" class="node"><title>Node8</title>
<g id="a_node8"><a xlink:href="struct_st_executable_image_1_1_memory_region.html" target="_top" xlink:title="StExecutableImage::\lMemoryRegion">
<polygon fill="white" stroke="black" points="0,-137.843 0,-167.843 107,-167.843 107,-137.843 0,-137.843"/>
<text text-anchor="start" x="8" y="-155.843" font-family="Helvetica,sans-Serif" font-size="10.00">StExecutableImage::</text>
<text text-anchor="middle" x="53.5" y="-144.843" font-family="Helvetica,sans-Serif" font-size="10.00">MemoryRegion</text>
</a>
</g>
</g>
<!-- Node8&#45;&gt;Node7 -->
<g id="edge8" class="edge"><title>Node8&#45;&gt;Node7</title>
<path fill="none" stroke="#9a32cd" stroke-dasharray="5,2" d="M117.41,-152.843C140.182,-152.843 165.934,-152.843 188.891,-152.843"/>
<polygon fill="#9a32cd" stroke="#9a32cd" points="117.177,-149.343 107.177,-152.843 117.177,-156.343 117.177,-149.343"/>
<text text-anchor="middle" x="148" y="-155.843" font-family="Helvetica,sans-Serif" font-size="10.00"> elements</text>
</g>
<!-- Node9 -->
<g id="node9" class="node"><title>Node9</title>
<g id="a_node9"><a xlink:title="STL class. ">
<polygon fill="white" stroke="#bfbfbf" points="225,-105.343 225,-124.343 285,-124.343 285,-105.343 225,-105.343"/>
<text text-anchor="middle" x="255" y="-112.343" font-family="Helvetica,sans-Serif" font-size="10.00">std::string</text>
</a>
</g>
</g>
<!-- Node9&#45;&gt;Node4 -->
<g id="edge9" class="edge"><title>Node9&#45;&gt;Node4</title>
<path fill="none" stroke="#9a32cd" stroke-dasharray="5,2" d="M295.342,-121.207C328.118,-126.509 374.984,-134.09 410.341,-139.81"/>
<polygon fill="#9a32cd" stroke="#9a32cd" points="295.659,-117.713 285.228,-119.571 294.541,-124.623 295.659,-117.713"/>
<text text-anchor="middle" x="360.5" y="-137.843" font-family="Helvetica,sans-Serif" font-size="10.00"> m_name</text>
</g>
<!-- Node10 -->
<g id="node10" class="node"><title>Node10</title>
<g id="a_node10"><a xlink:title="STL class. ">
<polygon fill="white" stroke="#bfbfbf" points="6,-88.8427 6,-118.843 101,-118.843 101,-88.8427 6,-88.8427"/>
<text text-anchor="start" x="14" y="-106.843" font-family="Helvetica,sans-Serif" font-size="10.00">std::basic_string&lt;</text>
<text text-anchor="middle" x="53.5" y="-95.8427" font-family="Helvetica,sans-Serif" font-size="10.00"> char &gt;</text>
</a>
</g>
</g>
<!-- Node10&#45;&gt;Node9 -->
<g id="edge10" class="edge"><title>Node10&#45;&gt;Node9</title>
<path fill="none" stroke="midnightblue" d="M111.182,-106.968C148.202,-109.009 195.017,-111.591 224.746,-113.23"/>
<polygon fill="midnightblue" stroke="midnightblue" points="111.2,-103.464 101.022,-106.408 110.814,-110.453 111.2,-103.464"/>
</g>
<!-- Node11 -->
<g id="node11" class="node"><title>Node11</title>
<polygon fill="white" stroke="#bfbfbf" points="400,-71.8427 400,-101.843 522,-101.843 522,-71.8427 400,-71.8427"/>
<text text-anchor="start" x="408" y="-89.8427" font-family="Helvetica,sans-Serif" font-size="10.00">std::vector&lt; DataSource</text>
<text text-anchor="middle" x="461" y="-78.8427" font-family="Helvetica,sans-Serif" font-size="10.00">::Segment * &gt;</text>
</g>
<!-- Node11&#45;&gt;Node1 -->
<g id="edge11" class="edge"><title>Node11&#45;&gt;Node1</title>
<path fill="none" stroke="#9a32cd" stroke-dasharray="5,2" d="M532.286,-100.388C569.029,-107.469 613.109,-115.964 646.192,-122.34"/>
<polygon fill="#9a32cd" stroke="#9a32cd" points="532.614,-96.887 522.132,-98.4313 531.289,-103.761 532.614,-96.887"/>
<text text-anchor="middle" x="570" y="-116.843" font-family="Helvetica,sans-Serif" font-size="10.00"> m_segments</text>
</g>
<!-- Node12 -->
<g id="node12" class="node"><title>Node12</title>
<g id="a_node12"><a xlink:href="classelftosb_1_1_data_source_1_1_segment.html" target="_top" xlink:title="Discrete, contiguous part of the source&#39;s data. ">
<polygon fill="white" stroke="black" points="204,-55.8427 204,-85.8427 306,-85.8427 306,-55.8427 204,-55.8427"/>
<text text-anchor="start" x="212" y="-73.8427" font-family="Helvetica,sans-Serif" font-size="10.00">elftosb::DataSource</text>
<text text-anchor="middle" x="255" y="-62.8427" font-family="Helvetica,sans-Serif" font-size="10.00">::Segment</text>
</a>
</g>
</g>
<!-- Node12&#45;&gt;Node11 -->
<g id="edge12" class="edge"><title>Node12&#45;&gt;Node11</title>
<path fill="none" stroke="#9a32cd" stroke-dasharray="5,2" d="M316.397,-75.5798C342.737,-77.6456 373.543,-80.0617 399.854,-82.1253"/>
<polygon fill="#9a32cd" stroke="#9a32cd" points="316.408,-72.07 306.165,-74.7772 315.861,-79.0485 316.408,-72.07"/>
<text text-anchor="middle" x="360.5" y="-83.8427" font-family="Helvetica,sans-Serif" font-size="10.00"> elements</text>
</g>
<!-- Node13 -->
<g id="node13" class="node"><title>Node13</title>
<g id="a_node13"><a xlink:href="classelftosb_1_1_data_source.html" target="_top" xlink:title="Abstract base class for data sources. ">
<polygon fill="white" stroke="black" points="2.5,-27.3427 2.5,-46.3427 104.5,-46.3427 104.5,-27.3427 2.5,-27.3427"/>
<text text-anchor="middle" x="53.5" y="-34.3427" font-family="Helvetica,sans-Serif" font-size="10.00">elftosb::DataSource</text>
</a>
</g>
</g>
<!-- Node13&#45;&gt;Node12 -->
<g id="edge13" class="edge"><title>Node13&#45;&gt;Node12</title>
<path fill="none" stroke="#9a32cd" stroke-dasharray="5,2" d="M114.445,-47.0589C142.99,-51.9237 176.737,-57.6751 203.895,-62.3034"/>
<polygon fill="#9a32cd" stroke="#9a32cd" points="115.031,-43.6083 104.585,-45.3785 113.855,-50.5088 115.031,-43.6083"/>
<text text-anchor="middle" x="148" y="-59.8427" font-family="Helvetica,sans-Serif" font-size="10.00"> m_source</text>
</g>
<!-- Node14 -->
<g id="node14" class="node"><title>Node14</title>
<g id="a_node14"><a xlink:href="classelftosb_1_1_data_target.html" target="_top" xlink:title="Abstract base class for the target address or range of data. ">
<polygon fill="white" stroke="black" points="206,-5.34271 206,-24.3427 304,-24.3427 304,-5.34271 206,-5.34271"/>
<text text-anchor="middle" x="255" y="-12.3427" font-family="Helvetica,sans-Serif" font-size="10.00">elftosb::DataTarget</text>
</a>
</g>
</g>
<!-- Node13&#45;&gt;Node14 -->
<g id="edge15" class="edge"><title>Node13&#45;&gt;Node14</title>
<path fill="none" stroke="#9a32cd" stroke-dasharray="5,2" d="M114.676,-30.2068C143.9,-26.984 178.534,-23.1648 205.959,-20.1404"/>
<polygon fill="#9a32cd" stroke="#9a32cd" points="114.141,-26.7445 104.585,-31.3196 114.908,-33.7023 114.141,-26.7445"/>
<text text-anchor="middle" x="148" y="-31.8427" font-family="Helvetica,sans-Serif" font-size="10.00"> m_source</text>
</g>
<!-- Node14&#45;&gt;Node13 -->
<g id="edge14" class="edge"><title>Node14&#45;&gt;Node13</title>
<path fill="none" stroke="#9a32cd" stroke-dasharray="5,2" d="M204.334,-3.64912C180.165,0.0396098 150.822,1.90155 125,-3.84271 104.817,-8.33266 83.5767,-19.2431 69.7524,-27.2957"/>
<polygon fill="#9a32cd" stroke="#9a32cd" points="203.91,-7.12674 214.351,-5.32501 205.066,-0.222705 203.91,-7.12674"/>
<text text-anchor="middle" x="148" y="-6.84271" font-family="Helvetica,sans-Serif" font-size="10.00"> m_target</text>
</g>
</g>
</svg>
