<?xml version="1.0" encoding="UTF-8" standalone="no"?>
<!DOCTYPE svg PUBLIC "-//W3C//DTD SVG 1.1//EN"
 "http://www.w3.org/Graphics/SVG/1.1/DTD/svg11.dtd">
<!-- Generated by graphviz version 2.38.0 (20140413.2041)
 -->
<!-- Title: elftosb::ASTNode Pages: 1 -->
<svg width="496pt" height="1235pt"
 viewBox="0.00 0.00 496.00 1235.00" xmlns="http://www.w3.org/2000/svg" xmlns:xlink="http://www.w3.org/1999/xlink">
<g id="graph0" class="graph" transform="scale(1 1) rotate(0) translate(4 1231)">
<title>elftosb::ASTNode</title>
<polygon fill="white" stroke="none" points="-4,4 -4,-1231 492,-1231 492,4 -4,4"/>
<!-- Node1 -->
<g id="node1" class="node"><title>Node1</title>
<polygon fill="#bfbfbf" stroke="black" points="0,-711.5 0,-730.5 92,-730.5 92,-711.5 0,-711.5"/>
<text text-anchor="middle" x="46" y="-718.5" font-family="Helvetica,sans-Serif" font-size="10.00">elftosb::ASTNode</text>
</g>
<!-- Node2 -->
<g id="node2" class="node"><title>Node2</title>
<g id="a_node2"><a xlink:href="classelftosb_1_1_address_range_a_s_t_node.html" target="_top" xlink:title="elftosb::AddressRangeASTNode">
<polygon fill="white" stroke="black" points="130.5,-1125.5 130.5,-1144.5 286.5,-1144.5 286.5,-1125.5 130.5,-1125.5"/>
<text text-anchor="middle" x="208.5" y="-1132.5" font-family="Helvetica,sans-Serif" font-size="10.00">elftosb::AddressRangeASTNode</text>
</a>
</g>
</g>
<!-- Node1&#45;&gt;Node2 -->
<g id="edge1" class="edge"><title>Node1&#45;&gt;Node2</title>
<path fill="none" stroke="midnightblue" d="M48.2932,-740.585C53.4425,-812.559 74.8465,-1061.1 128,-1116 131.652,-1119.77 135.909,-1122.85 140.52,-1125.36"/>
<polygon fill="midnightblue" stroke="midnightblue" points="51.7848,-740.341 47.604,-730.606 44.8015,-740.823 51.7848,-740.341"/>
</g>
<!-- Node3 -->
<g id="node3" class="node"><title>Node3</title>
<g id="a_node3"><a xlink:href="classelftosb_1_1_assignment_a_s_t_node.html" target="_top" xlink:title="elftosb::AssignmentASTNode">
<polygon fill="white" stroke="black" points="136.5,-1087.5 136.5,-1106.5 280.5,-1106.5 280.5,-1087.5 136.5,-1087.5"/>
<text text-anchor="middle" x="208.5" y="-1094.5" font-family="Helvetica,sans-Serif" font-size="10.00">elftosb::AssignmentASTNode</text>
</a>
</g>
</g>
<!-- Node1&#45;&gt;Node3 -->
<g id="edge2" class="edge"><title>Node1&#45;&gt;Node3</title>
<path fill="none" stroke="midnightblue" d="M48.7799,-740.845C55.2542,-808.585 79.7435,-1029.19 128,-1078 131.791,-1081.83 136.208,-1084.95 140.983,-1087.47"/>
<polygon fill="midnightblue" stroke="midnightblue" points="52.2463,-740.319 47.8361,-730.686 45.2763,-740.967 52.2463,-740.319"/>
</g>
<!-- Node4 -->
<g id="node4" class="node"><title>Node4</title>
<g id="a_node4"><a xlink:href="classelftosb_1_1_command_file_a_s_t_node.html" target="_top" xlink:title="Root node for the entire file. ">
<polygon fill="white" stroke="black" points="132.5,-1049.5 132.5,-1068.5 284.5,-1068.5 284.5,-1049.5 132.5,-1049.5"/>
<text text-anchor="middle" x="208.5" y="-1056.5" font-family="Helvetica,sans-Serif" font-size="10.00">elftosb::CommandFileASTNode</text>
</a>
</g>
</g>
<!-- Node1&#45;&gt;Node4 -->
<g id="edge3" class="edge"><title>Node1&#45;&gt;Node4</title>
<path fill="none" stroke="midnightblue" d="M49.3429,-740.74C57.1899,-803.545 84.5262,-997.134 128,-1040 131.84,-1043.79 136.291,-1046.87 141.088,-1049.37"/>
<polygon fill="midnightblue" stroke="midnightblue" points="52.7912,-740.103 48.105,-730.6 45.8428,-740.951 52.7912,-740.103"/>
</g>
<!-- Node5 -->
<g id="node5" class="node"><title>Node5</title>
<g id="a_node5"><a xlink:href="classelftosb_1_1_constants_block_a_s_t_node.html" target="_top" xlink:title="elftosb::ConstantsBlockASTNode">
<polygon fill="white" stroke="black" points="128,-1011.5 128,-1030.5 289,-1030.5 289,-1011.5 128,-1011.5"/>
<text text-anchor="middle" x="208.5" y="-1018.5" font-family="Helvetica,sans-Serif" font-size="10.00">elftosb::ConstantsBlockASTNode</text>
</a>
</g>
</g>
<!-- Node1&#45;&gt;Node5 -->
<g id="edge4" class="edge"><title>Node1&#45;&gt;Node5</title>
<path fill="none" stroke="midnightblue" d="M46.4062,-740.76C46.009,-791.93 52.3888,-929.793 128,-1002 132.002,-1005.82 136.631,-1008.92 141.601,-1011.43"/>
<polygon fill="midnightblue" stroke="midnightblue" points="49.9065,-740.764 46.5855,-730.703 42.9077,-740.639 49.9065,-740.764"/>
</g>
<!-- Node6 -->
<g id="node6" class="node"><title>Node6</title>
<g id="a_node6"><a xlink:href="classelftosb_1_1_const_a_s_t_node.html" target="_top" xlink:title="elftosb::ConstASTNode">
<polygon fill="white" stroke="black" points="149.5,-973.5 149.5,-992.5 267.5,-992.5 267.5,-973.5 149.5,-973.5"/>
<text text-anchor="middle" x="208.5" y="-980.5" font-family="Helvetica,sans-Serif" font-size="10.00">elftosb::ConstASTNode</text>
</a>
</g>
</g>
<!-- Node1&#45;&gt;Node6 -->
<g id="edge5" class="edge"><title>Node1&#45;&gt;Node6</title>
<path fill="none" stroke="midnightblue" d="M55.2254,-740.376C68.6912,-771.317 97.0565,-833.348 128,-882 150.754,-917.776 183.525,-956.082 198.909,-973.456"/>
<polygon fill="midnightblue" stroke="midnightblue" points="58.2727,-738.603 51.104,-730.802 51.843,-741.371 58.2727,-738.603"/>
</g>
<!-- Node12 -->
<g id="node12" class="node"><title>Node12</title>
<g id="a_node12"><a xlink:href="classelftosb_1_1_expr_a_s_t_node.html" target="_top" xlink:title="Abstract base class for all expression AST nodes. ">
<polygon fill="white" stroke="black" points="152,-853.5 152,-872.5 265,-872.5 265,-853.5 152,-853.5"/>
<text text-anchor="middle" x="208.5" y="-860.5" font-family="Helvetica,sans-Serif" font-size="10.00">elftosb::ExprASTNode</text>
</a>
</g>
</g>
<!-- Node1&#45;&gt;Node12 -->
<g id="edge11" class="edge"><title>Node1&#45;&gt;Node12</title>
<path fill="none" stroke="midnightblue" d="M54.2137,-740.097C65.5795,-767.5 90.3162,-817.577 128,-844 135.088,-848.97 143.311,-852.65 151.727,-855.373"/>
<polygon fill="midnightblue" stroke="midnightblue" points="57.4637,-738.798 50.5133,-730.801 50.9601,-741.387 57.4637,-738.798"/>
</g>
<!-- Node23 -->
<g id="node23" class="node"><title>Node23</title>
<g id="a_node23"><a xlink:href="classelftosb_1_1_keyblob_block_a_s_t_node.html" target="_top" xlink:title="elftosb::KeyblobBlockASTNode">
<polygon fill="white" stroke="black" points="132.5,-815.5 132.5,-834.5 284.5,-834.5 284.5,-815.5 132.5,-815.5"/>
<text text-anchor="middle" x="208.5" y="-822.5" font-family="Helvetica,sans-Serif" font-size="10.00">elftosb::KeyblobBlockASTNode</text>
</a>
</g>
</g>
<!-- Node1&#45;&gt;Node23 -->
<g id="edge22" class="edge"><title>Node1&#45;&gt;Node23</title>
<path fill="none" stroke="midnightblue" d="M59.1834,-738.962C73.3949,-758.488 98.7133,-789.152 128,-806 134.765,-809.892 142.293,-812.989 149.944,-815.452"/>
<polygon fill="midnightblue" stroke="midnightblue" points="61.922,-736.773 53.2953,-730.622 56.2036,-740.81 61.922,-736.773"/>
</g>
<!-- Node24 -->
<g id="node24" class="node"><title>Node24</title>
<g id="a_node24"><a xlink:href="classelftosb_1_1_list_a_s_t_node.html" target="_top" xlink:title="AST node that contains other AST nodes. ">
<polygon fill="white" stroke="black" points="154.5,-777.5 154.5,-796.5 262.5,-796.5 262.5,-777.5 154.5,-777.5"/>
<text text-anchor="middle" x="208.5" y="-784.5" font-family="Helvetica,sans-Serif" font-size="10.00">elftosb::ListASTNode</text>
</a>
</g>
</g>
<!-- Node1&#45;&gt;Node24 -->
<g id="edge23" class="edge"><title>Node1&#45;&gt;Node24</title>
<path fill="none" stroke="midnightblue" d="M69.2219,-736.275C85.0124,-746.522 107.05,-759.628 128,-768 137.356,-771.739 147.638,-774.865 157.611,-777.431"/>
<polygon fill="midnightblue" stroke="midnightblue" points="70.9713,-733.235 60.702,-730.629 67.1045,-739.071 70.9713,-733.235"/>
</g>
<!-- Node25 -->
<g id="node25" class="node"><title>Node25</title>
<g id="a_node25"><a xlink:href="classelftosb_1_1_natural_location_a_s_t_node.html" target="_top" xlink:title="elftosb::NaturalLocation\lASTNode">
<polygon fill="white" stroke="black" points="149,-728 149,-758 268,-758 268,-728 149,-728"/>
<text text-anchor="start" x="157" y="-746" font-family="Helvetica,sans-Serif" font-size="10.00">elftosb::NaturalLocation</text>
<text text-anchor="middle" x="208.5" y="-735" font-family="Helvetica,sans-Serif" font-size="10.00">ASTNode</text>
</a>
</g>
</g>
<!-- Node1&#45;&gt;Node25 -->
<g id="edge24" class="edge"><title>Node1&#45;&gt;Node25</title>
<path fill="none" stroke="midnightblue" d="M102.311,-728.582C117.353,-730.643 133.692,-732.883 148.908,-734.969"/>
<polygon fill="midnightblue" stroke="midnightblue" points="102.518,-725.077 92.1353,-727.187 101.567,-732.012 102.518,-725.077"/>
</g>
<!-- Node26 -->
<g id="node26" class="node"><title>Node26</title>
<g id="a_node26"><a xlink:href="classelftosb_1_1_options_block_a_s_t_node.html" target="_top" xlink:title="elftosb::OptionsBlockASTNode">
<polygon fill="white" stroke="black" points="133,-689.5 133,-708.5 284,-708.5 284,-689.5 133,-689.5"/>
<text text-anchor="middle" x="208.5" y="-696.5" font-family="Helvetica,sans-Serif" font-size="10.00">elftosb::OptionsBlockASTNode</text>
</a>
</g>
</g>
<!-- Node1&#45;&gt;Node26 -->
<g id="edge25" class="edge"><title>Node1&#45;&gt;Node26</title>
<path fill="none" stroke="midnightblue" d="M102.097,-713.448C113.693,-711.858 126.068,-710.162 138.111,-708.511"/>
<polygon fill="midnightblue" stroke="midnightblue" points="101.567,-709.988 92.1353,-714.813 102.518,-716.923 101.567,-709.988"/>
</g>
<!-- Node27 -->
<g id="node27" class="node"><title>Node27</title>
<g id="a_node27"><a xlink:href="classelftosb_1_1_section_a_s_t_node.html" target="_top" xlink:title="AST node for a section glob. ">
<polygon fill="white" stroke="black" points="146,-651.5 146,-670.5 271,-670.5 271,-651.5 146,-651.5"/>
<text text-anchor="middle" x="208.5" y="-658.5" font-family="Helvetica,sans-Serif" font-size="10.00">elftosb::SectionASTNode</text>
</a>
</g>
</g>
<!-- Node1&#45;&gt;Node27 -->
<g id="edge26" class="edge"><title>Node1&#45;&gt;Node27</title>
<path fill="none" stroke="midnightblue" d="M72.2677,-706.276C87.9091,-697.655 108.639,-687.102 128,-680 137.992,-676.335 148.953,-673.186 159.457,-670.566"/>
<polygon fill="midnightblue" stroke="midnightblue" points="70.2478,-703.396 63.2439,-711.345 73.6765,-709.499 70.2478,-703.396"/>
</g>
<!-- Node28 -->
<g id="node28" class="node"><title>Node28</title>
<g id="a_node28"><a xlink:href="classelftosb_1_1_section_contents_a_s_t_node.html" target="_top" xlink:title="elftosb::SectionContents\lASTNode">
<polygon fill="white" stroke="black" points="147,-602 147,-632 270,-632 270,-602 147,-602"/>
<text text-anchor="start" x="155" y="-620" font-family="Helvetica,sans-Serif" font-size="10.00">elftosb::SectionContents</text>
<text text-anchor="middle" x="208.5" y="-609" font-family="Helvetica,sans-Serif" font-size="10.00">ASTNode</text>
</a>
</g>
</g>
<!-- Node1&#45;&gt;Node28 -->
<g id="edge27" class="edge"><title>Node1&#45;&gt;Node28</title>
<path fill="none" stroke="midnightblue" d="M60.815,-703.328C75.6407,-685.479 100.76,-658.284 128,-642 134.334,-638.214 141.299,-634.944 148.393,-632.135"/>
<polygon fill="midnightblue" stroke="midnightblue" points="57.9728,-701.276 54.3996,-711.25 63.4129,-705.681 57.9728,-701.276"/>
</g>
<!-- Node31 -->
<g id="node31" class="node"><title>Node31</title>
<g id="a_node31"><a xlink:href="classelftosb_1_1_section_match_list_a_s_t_node.html" target="_top" xlink:title="List of section matches for a particular source name. ">
<polygon fill="white" stroke="black" points="145,-553 145,-583 272,-583 272,-553 145,-553"/>
<text text-anchor="start" x="153" y="-571" font-family="Helvetica,sans-Serif" font-size="10.00">elftosb::SectionMatchList</text>
<text text-anchor="middle" x="208.5" y="-560" font-family="Helvetica,sans-Serif" font-size="10.00">ASTNode</text>
</a>
</g>
</g>
<!-- Node1&#45;&gt;Node31 -->
<g id="edge30" class="edge"><title>Node1&#45;&gt;Node31</title>
<path fill="none" stroke="midnightblue" d="M54.0886,-701.9C65.4313,-673.927 90.2928,-622.002 128,-593 133.046,-589.119 138.706,-585.833 144.62,-583.053"/>
<polygon fill="midnightblue" stroke="midnightblue" points="50.7758,-700.762 50.4048,-711.35 57.2978,-703.304 50.7758,-700.762"/>
</g>
<!-- Node32 -->
<g id="node32" class="node"><title>Node32</title>
<g id="a_node32"><a xlink:href="classelftosb_1_1_source_a_s_t_node.html" target="_top" xlink:title="elftosb::SourceASTNode">
<polygon fill="white" stroke="black" points="147,-514.5 147,-533.5 270,-533.5 270,-514.5 147,-514.5"/>
<text text-anchor="middle" x="208.5" y="-521.5" font-family="Helvetica,sans-Serif" font-size="10.00">elftosb::SourceASTNode</text>
</a>
</g>
</g>
<!-- Node1&#45;&gt;Node32 -->
<g id="edge31" class="edge"><title>Node1&#45;&gt;Node32</title>
<path fill="none" stroke="midnightblue" d="M50.2907,-701.197C57.4733,-664.417 78.0928,-585.53 128,-544 133.579,-539.357 140.091,-535.77 146.942,-533.003"/>
<polygon fill="midnightblue" stroke="midnightblue" points="46.8225,-700.707 48.4755,-711.172 53.7094,-701.961 46.8225,-700.707"/>
</g>
<!-- Node33 -->
<g id="node33" class="node"><title>Node33</title>
<g id="a_node33"><a xlink:href="classelftosb_1_1_source_def_a_s_t_node.html" target="_top" xlink:title="elftosb::SourceDefASTNode">
<polygon fill="white" stroke="black" points="140,-476.5 140,-495.5 277,-495.5 277,-476.5 140,-476.5"/>
<text text-anchor="middle" x="208.5" y="-483.5" font-family="Helvetica,sans-Serif" font-size="10.00">elftosb::SourceDefASTNode</text>
</a>
</g>
</g>
<!-- Node1&#45;&gt;Node33 -->
<g id="edge32" class="edge"><title>Node1&#45;&gt;Node33</title>
<path fill="none" stroke="midnightblue" d="M48.3869,-701.345C52.4855,-658.783 68.3231,-557.691 128,-505 132.361,-501.149 137.365,-498.044 142.693,-495.545"/>
<polygon fill="midnightblue" stroke="midnightblue" points="44.8839,-701.234 47.5309,-711.493 51.8591,-701.823 44.8839,-701.234"/>
</g>
<!-- Node36 -->
<g id="node36" class="node"><title>Node36</title>
<g id="a_node36"><a xlink:href="classelftosb_1_1_sources_block_a_s_t_node.html" target="_top" xlink:title="elftosb::SourcesBlockASTNode">
<polygon fill="white" stroke="black" points="132,-438.5 132,-457.5 285,-457.5 285,-438.5 132,-438.5"/>
<text text-anchor="middle" x="208.5" y="-445.5" font-family="Helvetica,sans-Serif" font-size="10.00">elftosb::SourcesBlockASTNode</text>
</a>
</g>
</g>
<!-- Node1&#45;&gt;Node36 -->
<g id="edge35" class="edge"><title>Node1&#45;&gt;Node36</title>
<path fill="none" stroke="midnightblue" d="M47.1191,-701.239C48.5319,-653.479 59.0631,-531.008 128,-467 132.16,-463.138 136.96,-460.018 142.1,-457.504"/>
<polygon fill="midnightblue" stroke="midnightblue" points="43.6157,-701.391 46.9279,-711.454 50.6145,-701.522 43.6157,-701.391"/>
</g>
<!-- Node37 -->
<g id="node37" class="node"><title>Node37</title>
<g id="a_node37"><a xlink:href="classelftosb_1_1_statement_a_s_t_node.html" target="_top" xlink:title="elftosb::StatementASTNode">
<polygon fill="white" stroke="black" points="140,-263.5 140,-282.5 277,-282.5 277,-263.5 140,-263.5"/>
<text text-anchor="middle" x="208.5" y="-270.5" font-family="Helvetica,sans-Serif" font-size="10.00">elftosb::StatementASTNode</text>
</a>
</g>
</g>
<!-- Node1&#45;&gt;Node37 -->
<g id="edge36" class="edge"><title>Node1&#45;&gt;Node37</title>
<path fill="none" stroke="midnightblue" d="M50.9689,-701.58C60.9792,-654.08 89.2464,-528.634 128,-429 150.479,-371.207 187.615,-306.46 201.775,-282.541"/>
<polygon fill="midnightblue" stroke="midnightblue" points="47.5262,-700.945 48.9174,-711.448 54.3797,-702.37 47.5262,-700.945"/>
</g>
<!-- Node49 -->
<g id="node49" class="node"><title>Node49</title>
<g id="a_node49"><a xlink:href="classelftosb_1_1_symbol_a_s_t_node.html" target="_top" xlink:title="elftosb::SymbolASTNode">
<polygon fill="white" stroke="black" points="146,-225.5 146,-244.5 271,-244.5 271,-225.5 146,-225.5"/>
<text text-anchor="middle" x="208.5" y="-232.5" font-family="Helvetica,sans-Serif" font-size="10.00">elftosb::SymbolASTNode</text>
</a>
</g>
</g>
<!-- Node1&#45;&gt;Node49 -->
<g id="edge48" class="edge"><title>Node1&#45;&gt;Node49</title>
<path fill="none" stroke="midnightblue" d="M47.6328,-701.053C50.5977,-620.498 65.7217,-320.321 128,-254 132.954,-248.724 139.09,-244.796 145.739,-241.889"/>
<polygon fill="midnightblue" stroke="midnightblue" points="44.1265,-701.176 47.2794,-711.291 51.1224,-701.418 44.1265,-701.176"/>
</g>
<!-- Node7 -->
<g id="node7" class="node"><title>Node7</title>
<g id="a_node7"><a xlink:href="classelftosb_1_1_blob_const_a_s_t_node.html" target="_top" xlink:title="elftosb::BlobConstASTNode">
<polygon fill="white" stroke="black" points="338,-1207.5 338,-1226.5 475,-1226.5 475,-1207.5 338,-1207.5"/>
<text text-anchor="middle" x="406.5" y="-1214.5" font-family="Helvetica,sans-Serif" font-size="10.00">elftosb::BlobConstASTNode</text>
</a>
</g>
</g>
<!-- Node6&#45;&gt;Node7 -->
<g id="edge6" class="edge"><title>Node6&#45;&gt;Node7</title>
<path fill="none" stroke="midnightblue" d="M277.076,-992.844C281.471,-995.317 285.521,-998.332 289,-1002 349.948,-1066.26 263.962,-1133.82 325,-1198 328.761,-1201.95 333.178,-1205.15 337.976,-1207.73"/>
<polygon fill="midnightblue" stroke="midnightblue" points="278.189,-989.503 267.642,-988.494 275.258,-995.86 278.189,-989.503"/>
</g>
<!-- Node8 -->
<g id="node8" class="node"><title>Node8</title>
<g id="a_node8"><a xlink:href="classelftosb_1_1_expr_const_a_s_t_node.html" target="_top" xlink:title="elftosb::ExprConstASTNode">
<polygon fill="white" stroke="black" points="337.5,-1169.5 337.5,-1188.5 475.5,-1188.5 475.5,-1169.5 337.5,-1169.5"/>
<text text-anchor="middle" x="406.5" y="-1176.5" font-family="Helvetica,sans-Serif" font-size="10.00">elftosb::ExprConstASTNode</text>
</a>
</g>
</g>
<!-- Node6&#45;&gt;Node8 -->
<g id="edge7" class="edge"><title>Node6&#45;&gt;Node8</title>
<path fill="none" stroke="midnightblue" d="M277.126,-993.132C281.475,-995.544 285.503,-998.466 289,-1002 339.657,-1053.2 274.271,-1108.88 325,-1160 328.742,-1163.77 333.084,-1166.85 337.775,-1169.36"/>
<polygon fill="midnightblue" stroke="midnightblue" points="278.365,-989.85 267.816,-988.865 275.449,-996.213 278.365,-989.85"/>
</g>
<!-- Node9 -->
<g id="node9" class="node"><title>Node9</title>
<g id="a_node9"><a xlink:href="classelftosb_1_1_i_v_t_const_a_s_t_node.html" target="_top" xlink:title="Node for a constant IVT structure as used by HAB4. ">
<polygon fill="white" stroke="black" points="340.5,-1131.5 340.5,-1150.5 472.5,-1150.5 472.5,-1131.5 340.5,-1131.5"/>
<text text-anchor="middle" x="406.5" y="-1138.5" font-family="Helvetica,sans-Serif" font-size="10.00">elftosb::IVTConstASTNode</text>
</a>
</g>
</g>
<!-- Node6&#45;&gt;Node9 -->
<g id="edge8" class="edge"><title>Node6&#45;&gt;Node9</title>
<path fill="none" stroke="midnightblue" d="M277.088,-993.52C281.412,-995.847 285.448,-998.644 289,-1002 329.476,-1040.24 284.47,-1083.82 325,-1122 329.494,-1126.23 334.75,-1129.58 340.385,-1132.22"/>
<polygon fill="midnightblue" stroke="midnightblue" points="278.425,-990.283 267.869,-989.373 275.553,-996.667 278.425,-990.283"/>
</g>
<!-- Node10 -->
<g id="node10" class="node"><title>Node10</title>
<g id="a_node10"><a xlink:href="classelftosb_1_1_keyblob_entry_a_s_t_node.html" target="_top" xlink:title="Node for a keyblob entry. ">
<polygon fill="white" stroke="black" points="331,-1093.5 331,-1112.5 482,-1112.5 482,-1093.5 331,-1093.5"/>
<text text-anchor="middle" x="406.5" y="-1100.5" font-family="Helvetica,sans-Serif" font-size="10.00">elftosb::KeyblobEntryASTNode</text>
</a>
</g>
</g>
<!-- Node6&#45;&gt;Node10 -->
<g id="edge9" class="edge"><title>Node6&#45;&gt;Node10</title>
<path fill="none" stroke="midnightblue" d="M276.871,-994.136C281.213,-996.325 285.314,-998.921 289,-1002 319.548,-1027.51 294.416,-1058.53 325,-1084 329.634,-1087.86 334.915,-1090.96 340.505,-1093.46"/>
<polygon fill="midnightblue" stroke="midnightblue" points="278.247,-990.918 267.677,-990.194 275.489,-997.352 278.247,-990.918"/>
</g>
<!-- Node11 -->
<g id="node11" class="node"><title>Node11</title>
<g id="a_node11"><a xlink:href="classelftosb_1_1_string_const_a_s_t_node.html" target="_top" xlink:title="elftosb::StringConstASTNode">
<polygon fill="white" stroke="black" points="335,-1055.5 335,-1074.5 478,-1074.5 478,-1055.5 335,-1055.5"/>
<text text-anchor="middle" x="406.5" y="-1062.5" font-family="Helvetica,sans-Serif" font-size="10.00">elftosb::StringConstASTNode</text>
</a>
</g>
</g>
<!-- Node6&#45;&gt;Node11 -->
<g id="edge10" class="edge"><title>Node6&#45;&gt;Node11</title>
<path fill="none" stroke="midnightblue" d="M277.397,-995.927C281.443,-997.698 285.348,-999.711 289,-1002 310.41,-1015.42 303.571,-1032.61 325,-1046 331.211,-1049.88 338.142,-1052.97 345.26,-1055.43"/>
<polygon fill="midnightblue" stroke="midnightblue" points="278.342,-992.541 267.752,-992.219 275.83,-999.074 278.342,-992.541"/>
</g>
<!-- Node13 -->
<g id="node13" class="node"><title>Node13</title>
<g id="a_node13"><a xlink:href="classelftosb_1_1_binary_op_expr_a_s_t_node.html" target="_top" xlink:title="elftosb::BinaryOpExprASTNode">
<polygon fill="white" stroke="black" points="330,-1017.5 330,-1036.5 483,-1036.5 483,-1017.5 330,-1017.5"/>
<text text-anchor="middle" x="406.5" y="-1024.5" font-family="Helvetica,sans-Serif" font-size="10.00">elftosb::BinaryOpExprASTNode</text>
</a>
</g>
</g>
<!-- Node12&#45;&gt;Node13 -->
<g id="edge12" class="edge"><title>Node12&#45;&gt;Node13</title>
<path fill="none" stroke="midnightblue" d="M223.606,-881.021C253.673,-919.39 321.618,-1005.86 325,-1008 331.064,-1011.84 337.83,-1014.91 344.793,-1017.36"/>
<polygon fill="midnightblue" stroke="midnightblue" points="226.079,-878.503 217.158,-872.788 220.569,-882.819 226.079,-878.503"/>
</g>
<!-- Node14 -->
<g id="node14" class="node"><title>Node14</title>
<g id="a_node14"><a xlink:href="classelftosb_1_1_boolean_not_expr_a_s_t_node.html" target="_top" xlink:title="Performa a boolean inversion. ">
<polygon fill="white" stroke="black" points="325,-979.5 325,-998.5 488,-998.5 488,-979.5 325,-979.5"/>
<text text-anchor="middle" x="406.5" y="-986.5" font-family="Helvetica,sans-Serif" font-size="10.00">elftosb::BooleanNotExprASTNode</text>
</a>
</g>
</g>
<!-- Node12&#45;&gt;Node14 -->
<g id="edge13" class="edge"><title>Node12&#45;&gt;Node14</title>
<path fill="none" stroke="midnightblue" d="M223.431,-880.686C243.329,-904.697 282.243,-947.222 325,-970 332.224,-973.848 340.222,-976.925 348.291,-979.383"/>
<polygon fill="midnightblue" stroke="midnightblue" points="226.008,-878.307 216.988,-872.748 220.572,-882.718 226.008,-878.307"/>
</g>
<!-- Node15 -->
<g id="node15" class="node"><title>Node15</title>
<g id="a_node15"><a xlink:href="classelftosb_1_1_defined_operator_a_s_t_node.html" target="_top" xlink:title="Returns true or false depending on whether a constant is defined. ">
<polygon fill="white" stroke="black" points="346,-930 346,-960 467,-960 467,-930 346,-930"/>
<text text-anchor="start" x="354" y="-948" font-family="Helvetica,sans-Serif" font-size="10.00">elftosb::DefinedOperator</text>
<text text-anchor="middle" x="406.5" y="-937" font-family="Helvetica,sans-Serif" font-size="10.00">ASTNode</text>
</a>
</g>
</g>
<!-- Node12&#45;&gt;Node15 -->
<g id="edge14" class="edge"><title>Node12&#45;&gt;Node15</title>
<path fill="none" stroke="midnightblue" d="M235.546,-877.327C258.61,-889.656 293.423,-907.396 325,-920 333.834,-923.526 343.372,-926.874 352.687,-929.905"/>
<polygon fill="midnightblue" stroke="midnightblue" points="237.183,-874.234 226.721,-872.567 233.86,-880.395 237.183,-874.234"/>
</g>
<!-- Node16 -->
<g id="node16" class="node"><title>Node16</title>
<g id="a_node16"><a xlink:href="classelftosb_1_1_int_const_expr_a_s_t_node.html" target="_top" xlink:title="elftosb::IntConstExprASTNode">
<polygon fill="white" stroke="black" points="332,-891.5 332,-910.5 481,-910.5 481,-891.5 332,-891.5"/>
<text text-anchor="middle" x="406.5" y="-898.5" font-family="Helvetica,sans-Serif" font-size="10.00">elftosb::IntConstExprASTNode</text>
</a>
</g>
</g>
<!-- Node12&#45;&gt;Node16 -->
<g id="edge15" class="edge"><title>Node12&#45;&gt;Node16</title>
<path fill="none" stroke="midnightblue" d="M268.761,-874.489C296.727,-879.911 329.709,-886.306 356.274,-891.456"/>
<polygon fill="midnightblue" stroke="midnightblue" points="269.189,-871.007 258.706,-872.54 267.857,-877.879 269.189,-871.007"/>
</g>
<!-- Node17 -->
<g id="node17" class="node"><title>Node17</title>
<g id="a_node17"><a xlink:href="classelftosb_1_1_int_size_expr_a_s_t_node.html" target="_top" xlink:title="Negates an expression. ">
<polygon fill="white" stroke="black" points="335,-853.5 335,-872.5 478,-872.5 478,-853.5 335,-853.5"/>
<text text-anchor="middle" x="406.5" y="-860.5" font-family="Helvetica,sans-Serif" font-size="10.00">elftosb::IntSizeExprASTNode</text>
</a>
</g>
</g>
<!-- Node12&#45;&gt;Node17 -->
<g id="edge16" class="edge"><title>Node12&#45;&gt;Node17</title>
<path fill="none" stroke="midnightblue" d="M275.238,-863C294.332,-863 315.265,-863 334.657,-863"/>
<polygon fill="midnightblue" stroke="midnightblue" points="275.141,-859.5 265.141,-863 275.141,-866.5 275.141,-859.5"/>
</g>
<!-- Node18 -->
<g id="node18" class="node"><title>Node18</title>
<g id="a_node18"><a xlink:href="classelftosb_1_1_negative_expr_a_s_t_node.html" target="_top" xlink:title="Negates an expression. ">
<polygon fill="white" stroke="black" points="332,-815.5 332,-834.5 481,-834.5 481,-815.5 332,-815.5"/>
<text text-anchor="middle" x="406.5" y="-822.5" font-family="Helvetica,sans-Serif" font-size="10.00">elftosb::NegativeExprASTNode</text>
</a>
</g>
</g>
<!-- Node12&#45;&gt;Node18 -->
<g id="edge17" class="edge"><title>Node12&#45;&gt;Node18</title>
<path fill="none" stroke="midnightblue" d="M268.761,-851.511C296.727,-846.089 329.709,-839.694 356.274,-834.544"/>
<polygon fill="midnightblue" stroke="midnightblue" points="267.857,-848.121 258.706,-853.46 269.189,-854.993 267.857,-848.121"/>
</g>
<!-- Node19 -->
<g id="node19" class="node"><title>Node19</title>
<g id="a_node19"><a xlink:href="classelftosb_1_1_sizeof_operator_a_s_t_node.html" target="_top" xlink:title="Returns an integer that is the size in bytes of the operand. ">
<polygon fill="white" stroke="black" points="328,-777.5 328,-796.5 485,-796.5 485,-777.5 328,-777.5"/>
<text text-anchor="middle" x="406.5" y="-784.5" font-family="Helvetica,sans-Serif" font-size="10.00">elftosb::SizeofOperatorASTNode</text>
</a>
</g>
</g>
<!-- Node12&#45;&gt;Node19 -->
<g id="edge18" class="edge"><title>Node12&#45;&gt;Node19</title>
<path fill="none" stroke="midnightblue" d="M274.942,-850.672C279.836,-848.76 284.581,-846.551 289,-844 309.149,-832.37 304.835,-817.602 325,-806 331.721,-802.133 339.189,-799.052 346.789,-796.597"/>
<polygon fill="midnightblue" stroke="midnightblue" points="273.688,-847.403 265.396,-853.998 275.991,-854.013 273.688,-847.403"/>
</g>
<!-- Node20 -->
<g id="node20" class="node"><title>Node20</title>
<g id="a_node20"><a xlink:href="classelftosb_1_1_source_file_function_a_s_t_node.html" target="_top" xlink:title="Calls a built&#45;in function with a source as the parameter. ">
<polygon fill="white" stroke="black" points="339,-728 339,-758 474,-758 474,-728 339,-728"/>
<text text-anchor="start" x="347" y="-746" font-family="Helvetica,sans-Serif" font-size="10.00">elftosb::SourceFileFunction</text>
<text text-anchor="middle" x="406.5" y="-735" font-family="Helvetica,sans-Serif" font-size="10.00">ASTNode</text>
</a>
</g>
</g>
<!-- Node12&#45;&gt;Node20 -->
<g id="edge19" class="edge"><title>Node12&#45;&gt;Node20</title>
<path fill="none" stroke="midnightblue" d="M274.615,-852.772C279.775,-850.407 284.661,-847.52 289,-844 318.027,-820.455 296.772,-792.498 325,-768 329.421,-764.163 334.426,-760.915 339.724,-758.165"/>
<polygon fill="midnightblue" stroke="midnightblue" points="273.131,-849.594 265.087,-856.489 275.675,-856.115 273.131,-849.594"/>
</g>
<!-- Node21 -->
<g id="node21" class="node"><title>Node21</title>
<g id="a_node21"><a xlink:href="classelftosb_1_1_symbol_ref_expr_a_s_t_node.html" target="_top" xlink:title="Expression node for a symbol reference. ">
<polygon fill="white" stroke="black" points="326.5,-689.5 326.5,-708.5 486.5,-708.5 486.5,-689.5 326.5,-689.5"/>
<text text-anchor="middle" x="406.5" y="-696.5" font-family="Helvetica,sans-Serif" font-size="10.00">elftosb::SymbolRefExprASTNode</text>
</a>
</g>
</g>
<!-- Node12&#45;&gt;Node21 -->
<g id="edge20" class="edge"><title>Node12&#45;&gt;Node21</title>
<path fill="none" stroke="midnightblue" d="M274.386,-853.93C279.741,-851.338 284.727,-848.082 289,-844 330.806,-804.067 283.372,-759.119 325,-719 329.459,-714.703 334.691,-711.285 340.31,-708.572"/>
<polygon fill="midnightblue" stroke="midnightblue" points="273.045,-850.697 265.088,-857.692 275.671,-857.186 273.045,-850.697"/>
</g>
<!-- Node22 -->
<g id="node22" class="node"><title>Node22</title>
<g id="a_node22"><a xlink:href="classelftosb_1_1_variable_expr_a_s_t_node.html" target="_top" xlink:title="elftosb::VariableExprASTNode">
<polygon fill="white" stroke="black" points="332.5,-651.5 332.5,-670.5 480.5,-670.5 480.5,-651.5 332.5,-651.5"/>
<text text-anchor="middle" x="406.5" y="-658.5" font-family="Helvetica,sans-Serif" font-size="10.00">elftosb::VariableExprASTNode</text>
</a>
</g>
</g>
<!-- Node12&#45;&gt;Node22 -->
<g id="edge21" class="edge"><title>Node12&#45;&gt;Node22</title>
<path fill="none" stroke="midnightblue" d="M274.422,-854.336C279.813,-851.667 284.797,-848.282 289,-844 341.277,-790.747 272.648,-733.18 325,-680 328.727,-676.214 333.059,-673.125 337.742,-670.611"/>
<polygon fill="midnightblue" stroke="midnightblue" points="272.957,-851.154 265.03,-858.182 275.61,-857.632 272.957,-851.154"/>
</g>
<!-- Node29 -->
<g id="node29" class="node"><title>Node29</title>
<g id="a_node29"><a xlink:href="classelftosb_1_1_bootable_section_contents_a_s_t_node.html" target="_top" xlink:title="elftosb::BootableSection\lContentsASTNode">
<polygon fill="white" stroke="black" points="345.5,-602 345.5,-632 467.5,-632 467.5,-602 345.5,-602"/>
<text text-anchor="start" x="353.5" y="-620" font-family="Helvetica,sans-Serif" font-size="10.00">elftosb::BootableSection</text>
<text text-anchor="middle" x="406.5" y="-609" font-family="Helvetica,sans-Serif" font-size="10.00">ContentsASTNode</text>
</a>
</g>
</g>
<!-- Node28&#45;&gt;Node29 -->
<g id="edge28" class="edge"><title>Node28&#45;&gt;Node29</title>
<path fill="none" stroke="midnightblue" d="M280.173,-617C301.558,-617 324.829,-617 345.45,-617"/>
<polygon fill="midnightblue" stroke="midnightblue" points="280.173,-613.5 270.173,-617 280.173,-620.5 280.173,-613.5"/>
</g>
<!-- Node30 -->
<g id="node30" class="node"><title>Node30</title>
<g id="a_node30"><a xlink:href="classelftosb_1_1_data_section_contents_a_s_t_node.html" target="_top" xlink:title="Node representing a raw binary section definition. ">
<polygon fill="white" stroke="black" points="335,-553 335,-583 478,-583 478,-553 335,-553"/>
<text text-anchor="start" x="343" y="-571" font-family="Helvetica,sans-Serif" font-size="10.00">elftosb::DataSectionContents</text>
<text text-anchor="middle" x="406.5" y="-560" font-family="Helvetica,sans-Serif" font-size="10.00">ASTNode</text>
</a>
</g>
</g>
<!-- Node28&#45;&gt;Node30 -->
<g id="edge29" class="edge"><title>Node28&#45;&gt;Node30</title>
<path fill="none" stroke="midnightblue" d="M279.407,-599.523C301.01,-594.123 324.602,-588.224 345.475,-583.006"/>
<polygon fill="midnightblue" stroke="midnightblue" points="278.491,-596.144 269.638,-601.965 280.189,-602.935 278.491,-596.144"/>
</g>
<!-- Node34 -->
<g id="node34" class="node"><title>Node34</title>
<g id="a_node34"><a xlink:href="classelftosb_1_1_extern_source_def_a_s_t_node.html" target="_top" xlink:title="elftosb::ExternSourceDef\lASTNode">
<polygon fill="white" stroke="black" points="344,-504 344,-534 469,-534 469,-504 344,-504"/>
<text text-anchor="start" x="352" y="-522" font-family="Helvetica,sans-Serif" font-size="10.00">elftosb::ExternSourceDef</text>
<text text-anchor="middle" x="406.5" y="-511" font-family="Helvetica,sans-Serif" font-size="10.00">ASTNode</text>
</a>
</g>
</g>
<!-- Node33&#45;&gt;Node34 -->
<g id="edge33" class="edge"><title>Node33&#45;&gt;Node34</title>
<path fill="none" stroke="midnightblue" d="M275.867,-497.174C297.903,-500.884 322.33,-504.997 343.984,-508.643"/>
<polygon fill="midnightblue" stroke="midnightblue" points="276.371,-493.71 265.928,-495.501 275.208,-500.613 276.371,-493.71"/>
</g>
<!-- Node35 -->
<g id="node35" class="node"><title>Node35</title>
<g id="a_node35"><a xlink:href="classelftosb_1_1_path_source_def_a_s_t_node.html" target="_top" xlink:title="elftosb::PathSourceDefASTNode">
<polygon fill="white" stroke="black" points="327.5,-465.5 327.5,-484.5 485.5,-484.5 485.5,-465.5 327.5,-465.5"/>
<text text-anchor="middle" x="406.5" y="-472.5" font-family="Helvetica,sans-Serif" font-size="10.00">elftosb::PathSourceDefASTNode</text>
</a>
</g>
</g>
<!-- Node33&#45;&gt;Node35 -->
<g id="edge34" class="edge"><title>Node33&#45;&gt;Node35</title>
<path fill="none" stroke="midnightblue" d="M287.593,-481.617C300.675,-480.883 314.251,-480.121 327.335,-479.387"/>
<polygon fill="midnightblue" stroke="midnightblue" points="287.015,-478.144 277.227,-482.199 287.407,-485.133 287.015,-478.144"/>
</g>
<!-- Node38 -->
<g id="node38" class="node"><title>Node38</title>
<g id="a_node38"><a xlink:href="classelftosb_1_1_call_statement_a_s_t_node.html" target="_top" xlink:title="AST node for a call statement. ">
<polygon fill="white" stroke="black" points="329.5,-427.5 329.5,-446.5 483.5,-446.5 483.5,-427.5 329.5,-427.5"/>
<text text-anchor="middle" x="406.5" y="-434.5" font-family="Helvetica,sans-Serif" font-size="10.00">elftosb::CallStatementASTNode</text>
</a>
</g>
</g>
<!-- Node37&#45;&gt;Node38 -->
<g id="edge37" class="edge"><title>Node37&#45;&gt;Node38</title>
<path fill="none" stroke="midnightblue" d="M218.96,-291.364C235.876,-322.298 274.332,-384.584 325,-417 331.793,-421.346 339.466,-424.748 347.309,-427.41"/>
<polygon fill="midnightblue" stroke="midnightblue" points="222.028,-289.679 214.237,-282.5 215.851,-292.971 222.028,-289.679"/>
</g>
<!-- Node39 -->
<g id="node39" class="node"><title>Node39</title>
<g id="a_node39"><a xlink:href="classelftosb_1_1_encrypt_statement_a_s_t_node.html" target="_top" xlink:title="elftosb::EncryptStatement\lASTNode">
<polygon fill="white" stroke="black" points="341.5,-378 341.5,-408 471.5,-408 471.5,-378 341.5,-378"/>
<text text-anchor="start" x="349.5" y="-396" font-family="Helvetica,sans-Serif" font-size="10.00">elftosb::EncryptStatement</text>
<text text-anchor="middle" x="406.5" y="-385" font-family="Helvetica,sans-Serif" font-size="10.00">ASTNode</text>
</a>
</g>
</g>
<!-- Node37&#45;&gt;Node39 -->
<g id="edge38" class="edge"><title>Node37&#45;&gt;Node39</title>
<path fill="none" stroke="midnightblue" d="M225.617,-289.791C246.66,-310.824 285.489,-346.685 325,-368 331.955,-371.752 339.558,-375.033 347.225,-377.876"/>
<polygon fill="midnightblue" stroke="midnightblue" points="227.967,-287.189 218.458,-282.517 222.978,-292.099 227.967,-287.189"/>
</g>
<!-- Node40 -->
<g id="node40" class="node"><title>Node40</title>
<g id="a_node40"><a xlink:href="classelftosb_1_1_erase_statement_a_s_t_node.html" target="_top" xlink:title="Statement to insert a ROM_ERASE_CMD command. ">
<polygon fill="white" stroke="black" points="325,-339.5 325,-358.5 488,-358.5 488,-339.5 325,-339.5"/>
<text text-anchor="middle" x="406.5" y="-346.5" font-family="Helvetica,sans-Serif" font-size="10.00">elftosb::EraseStatementASTNode</text>
</a>
</g>
</g>
<!-- Node37&#45;&gt;Node40 -->
<g id="edge39" class="edge"><title>Node37&#45;&gt;Node40</title>
<path fill="none" stroke="midnightblue" d="M234.548,-287.435C257.468,-300.135 292.635,-318.365 325,-330 335.135,-333.643 346.241,-336.783 356.879,-339.401"/>
<polygon fill="midnightblue" stroke="midnightblue" points="236.246,-284.374 225.812,-282.532 232.82,-290.478 236.246,-284.374"/>
</g>
<!-- Node41 -->
<g id="node41" class="node"><title>Node41</title>
<g id="a_node41"><a xlink:href="classelftosb_1_1_from_statement_a_s_t_node.html" target="_top" xlink:title="elftosb::FromStatementASTNode">
<polygon fill="white" stroke="black" points="326.5,-301.5 326.5,-320.5 486.5,-320.5 486.5,-301.5 326.5,-301.5"/>
<text text-anchor="middle" x="406.5" y="-308.5" font-family="Helvetica,sans-Serif" font-size="10.00">elftosb::FromStatementASTNode</text>
</a>
</g>
</g>
<!-- Node37&#45;&gt;Node41 -->
<g id="edge40" class="edge"><title>Node37&#45;&gt;Node41</title>
<path fill="none" stroke="midnightblue" d="M268.761,-284.489C296.727,-289.911 329.709,-296.306 356.274,-301.456"/>
<polygon fill="midnightblue" stroke="midnightblue" points="269.189,-281.007 258.706,-282.54 267.857,-287.879 269.189,-281.007"/>
</g>
<!-- Node42 -->
<g id="node42" class="node"><title>Node42</title>
<g id="a_node42"><a xlink:href="classelftosb_1_1_if_statement_a_s_t_node.html" target="_top" xlink:title="elftosb::IfStatementASTNode">
<polygon fill="white" stroke="black" points="335.5,-263.5 335.5,-282.5 477.5,-282.5 477.5,-263.5 335.5,-263.5"/>
<text text-anchor="middle" x="406.5" y="-270.5" font-family="Helvetica,sans-Serif" font-size="10.00">elftosb::IfStatementASTNode</text>
</a>
</g>
</g>
<!-- Node37&#45;&gt;Node42 -->
<g id="edge41" class="edge"><title>Node37&#45;&gt;Node42</title>
<path fill="none" stroke="midnightblue" d="M287.508,-273C303.341,-273 319.901,-273 335.439,-273"/>
<polygon fill="midnightblue" stroke="midnightblue" points="287.227,-269.5 277.227,-273 287.226,-276.5 287.227,-269.5"/>
</g>
<!-- Node43 -->
<g id="node43" class="node"><title>Node43</title>
<g id="a_node43"><a xlink:href="classelftosb_1_1_keywrap_statement_a_s_t_node.html" target="_top" xlink:title="elftosb::KeywrapStatement\lASTNode">
<polygon fill="white" stroke="black" points="339.5,-214 339.5,-244 473.5,-244 473.5,-214 339.5,-214"/>
<text text-anchor="start" x="347.5" y="-232" font-family="Helvetica,sans-Serif" font-size="10.00">elftosb::KeywrapStatement</text>
<text text-anchor="middle" x="406.5" y="-221" font-family="Helvetica,sans-Serif" font-size="10.00">ASTNode</text>
</a>
</g>
</g>
<!-- Node37&#45;&gt;Node43 -->
<g id="edge42" class="edge"><title>Node37&#45;&gt;Node43</title>
<path fill="none" stroke="midnightblue" d="M261.897,-261.237C285.631,-255.909 313.958,-249.55 339.156,-243.894"/>
<polygon fill="midnightblue" stroke="midnightblue" points="261.02,-257.847 252.029,-263.453 262.553,-264.677 261.02,-257.847"/>
</g>
<!-- Node44 -->
<g id="node44" class="node"><title>Node44</title>
<g id="a_node44"><a xlink:href="classelftosb_1_1_load_statement_a_s_t_node.html" target="_top" xlink:title="AST node for a load statement. ">
<polygon fill="white" stroke="black" points="327.5,-175.5 327.5,-194.5 485.5,-194.5 485.5,-175.5 327.5,-175.5"/>
<text text-anchor="middle" x="406.5" y="-182.5" font-family="Helvetica,sans-Serif" font-size="10.00">elftosb::LoadStatementASTNode</text>
</a>
</g>
</g>
<!-- Node37&#45;&gt;Node44 -->
<g id="edge43" class="edge"><title>Node37&#45;&gt;Node44</title>
<path fill="none" stroke="midnightblue" d="M279.273,-259.53C282.666,-257.893 285.932,-256.057 289,-254 311.743,-238.75 302.235,-219.218 325,-204 330.85,-200.09 337.409,-196.98 344.192,-194.508"/>
<polygon fill="midnightblue" stroke="midnightblue" points="277.905,-256.309 270.049,-263.418 280.623,-262.759 277.905,-256.309"/>
</g>
<!-- Node45 -->
<g id="node45" class="node"><title>Node45</title>
<g id="a_node45"><a xlink:href="classelftosb_1_1_mem_enable_statement_a_s_t_node.html" target="_top" xlink:title="Statement to insert a ROM_MEM_ENABLE_CMD command. ">
<polygon fill="white" stroke="black" points="332.5,-126 332.5,-156 480.5,-156 480.5,-126 332.5,-126"/>
<text text-anchor="start" x="340.5" y="-144" font-family="Helvetica,sans-Serif" font-size="10.00">elftosb::MemEnableStatement</text>
<text text-anchor="middle" x="406.5" y="-133" font-family="Helvetica,sans-Serif" font-size="10.00">ASTNode</text>
</a>
</g>
</g>
<!-- Node37&#45;&gt;Node45 -->
<g id="edge44" class="edge"><title>Node37&#45;&gt;Node45</title>
<path fill="none" stroke="midnightblue" d="M282.712,-258.665C284.915,-257.248 287.02,-255.697 289,-254 321.087,-226.502 293.846,-194.55 325,-166 329.208,-162.144 334.002,-158.883 339.106,-156.124"/>
<polygon fill="midnightblue" stroke="midnightblue" points="280.92,-255.656 273.795,-263.497 284.255,-261.81 280.92,-255.656"/>
</g>
<!-- Node46 -->
<g id="node46" class="node"><title>Node46</title>
<g id="a_node46"><a xlink:href="classelftosb_1_1_message_statement_a_s_t_node.html" target="_top" xlink:title="Statement to print a message to the elftosb user. ">
<polygon fill="white" stroke="black" points="338.5,-77 338.5,-107 474.5,-107 474.5,-77 338.5,-77"/>
<text text-anchor="start" x="346.5" y="-95" font-family="Helvetica,sans-Serif" font-size="10.00">elftosb::MessageStatement</text>
<text text-anchor="middle" x="406.5" y="-84" font-family="Helvetica,sans-Serif" font-size="10.00">ASTNode</text>
</a>
</g>
</g>
<!-- Node37&#45;&gt;Node46 -->
<g id="edge45" class="edge"><title>Node37&#45;&gt;Node46</title>
<path fill="none" stroke="midnightblue" d="M284.424,-257.956C286.025,-256.732 287.555,-255.415 289,-254 334.28,-209.643 280.961,-161.588 325,-116 328.85,-112.014 333.331,-108.683 338.171,-105.9"/>
<polygon fill="midnightblue" stroke="midnightblue" points="282.476,-255.046 275.885,-263.341 286.21,-260.967 282.476,-255.046"/>
</g>
<!-- Node47 -->
<g id="node47" class="node"><title>Node47</title>
<g id="a_node47"><a xlink:href="classelftosb_1_1_mode_statement_a_s_t_node.html" target="_top" xlink:title="Statement to insert a ROM_MODE_CMD command. ">
<polygon fill="white" stroke="black" points="326,-38.5 326,-57.5 487,-57.5 487,-38.5 326,-38.5"/>
<text text-anchor="middle" x="406.5" y="-45.5" font-family="Helvetica,sans-Serif" font-size="10.00">elftosb::ModeStatementASTNode</text>
</a>
</g>
</g>
<!-- Node37&#45;&gt;Node47 -->
<g id="edge46" class="edge"><title>Node37&#45;&gt;Node47</title>
<path fill="none" stroke="midnightblue" d="M285.051,-257.67C286.433,-256.526 287.752,-255.304 289,-254 347.504,-192.839 266.41,-128.079 325,-67 328.678,-63.1658 332.974,-60.043 337.634,-57.506"/>
<polygon fill="midnightblue" stroke="midnightblue" points="282.87,-254.918 276.53,-263.406 286.78,-260.725 282.87,-254.918"/>
</g>
<!-- Node48 -->
<g id="node48" class="node"><title>Node48</title>
<g id="a_node48"><a xlink:href="classelftosb_1_1_reset_statement_a_s_t_node.html" target="_top" xlink:title="Statement to insert a ROM_RESET_CMD command. ">
<polygon fill="white" stroke="black" points="325,-0.5 325,-19.5 488,-19.5 488,-0.5 325,-0.5"/>
<text text-anchor="middle" x="406.5" y="-7.5" font-family="Helvetica,sans-Serif" font-size="10.00">elftosb::ResetStatementASTNode</text>
</a>
</g>
</g>
<!-- Node37&#45;&gt;Node48 -->
<g id="edge47" class="edge"><title>Node37&#45;&gt;Node48</title>
<path fill="none" stroke="midnightblue" d="M285.577,-257.318C286.771,-256.276 287.915,-255.171 289,-254 357.84,-179.723 256.056,-103.18 325,-29 328.519,-25.2134 332.641,-22.1161 337.125,-19.5891"/>
<polygon fill="midnightblue" stroke="midnightblue" points="283.201,-254.71 277.032,-263.323 287.226,-260.437 283.201,-254.71"/>
</g>
</g>
</svg>
