<?xml version="1.0" encoding="UTF-8" standalone="no"?>
<!DOCTYPE svg PUBLIC "-//W3C//DTD SVG 1.1//EN"
 "http://www.w3.org/Graphics/SVG/1.1/DTD/svg11.dtd">
<!-- Generated by graphviz version 2.38.0 (20140413.2041)
 -->
<!-- Title: blfwk::WriteMemory Pages: 1 -->
<svg width="829pt" height="302pt"
 viewBox="0.00 0.00 829.00 301.50" xmlns="http://www.w3.org/2000/svg" xmlns:xlink="http://www.w3.org/1999/xlink">
<g id="graph0" class="graph" transform="scale(1 1) rotate(0) translate(4 297.5)">
<title>blfwk::WriteMemory</title>
<polygon fill="white" stroke="none" points="-4,4 -4,-297.5 825,-297.5 825,4 -4,4"/>
<!-- Node1 -->
<g id="node1" class="node"><title>Node1</title>
<polygon fill="#bfbfbf" stroke="black" points="718,-100 718,-119 821,-119 821,-100 718,-100"/>
<text text-anchor="middle" x="769.5" y="-107" font-family="Helvetica,sans-Serif" font-size="10.00">blfwk::WriteMemory</text>
</g>
<!-- Node2 -->
<g id="node2" class="node"><title>Node2</title>
<g id="a_node2"><a xlink:href="classblfwk_1_1_command.html" target="_top" xlink:title="Represents a bootloader command. ">
<polygon fill="white" stroke="black" points="527.5,-167 527.5,-186 616.5,-186 616.5,-167 527.5,-167"/>
<text text-anchor="middle" x="572" y="-174" font-family="Helvetica,sans-Serif" font-size="10.00">blfwk::Command</text>
</a>
</g>
</g>
<!-- Node2&#45;&gt;Node1 -->
<g id="edge1" class="edge"><title>Node2&#45;&gt;Node1</title>
<path fill="none" stroke="midnightblue" d="M610.692,-163.583C648.687,-150.561 706.45,-130.765 740.542,-119.082"/>
<polygon fill="midnightblue" stroke="midnightblue" points="609.336,-160.348 601.01,-166.901 611.605,-166.969 609.336,-160.348"/>
</g>
<!-- Node3 -->
<g id="node3" class="node"><title>Node3</title>
<polygon fill="white" stroke="#bfbfbf" points="275.5,-119 275.5,-138 389.5,-138 389.5,-119 275.5,-119"/>
<text text-anchor="middle" x="332.5" y="-126" font-family="Helvetica,sans-Serif" font-size="10.00">std::vector&lt; uint32_t &gt;</text>
</g>
<!-- Node3&#45;&gt;Node2 -->
<g id="edge2" class="edge"><title>Node3&#45;&gt;Node2</title>
<path fill="none" stroke="#9a32cd" stroke-dasharray="5,2" d="M399.814,-137.426C430.208,-142.001 466.603,-148.162 499,-155.5 513.096,-158.693 528.504,-163.065 541.437,-166.994"/>
<polygon fill="#9a32cd" stroke="#9a32cd" points="400.156,-133.939 389.751,-135.936 399.13,-140.863 400.156,-133.939"/>
<text text-anchor="middle" x="455.5" y="-158.5" font-family="Helvetica,sans-Serif" font-size="10.00"> m_responseValues</text>
</g>
<!-- Node4 -->
<g id="node4" class="node"><title>Node4</title>
<g id="a_node4"><a xlink:title="STL class. ">
<polygon fill="white" stroke="#bfbfbf" points="132,-203 132,-222 192,-222 192,-203 132,-203"/>
<text text-anchor="middle" x="162" y="-210" font-family="Helvetica,sans-Serif" font-size="10.00">std::string</text>
</a>
</g>
</g>
<!-- Node4&#45;&gt;Node1 -->
<g id="edge12" class="edge"><title>Node4&#45;&gt;Node1</title>
<path fill="none" stroke="#9a32cd" stroke-dasharray="5,2" d="M184.158,-227.975C205.034,-242.211 238.458,-262.315 271,-270.5 369.333,-295.234 401.529,-290.437 499,-262.5 608.129,-231.222 720.447,-147.565 756.562,-119.121"/>
<polygon fill="#9a32cd" stroke="#9a32cd" points="185.958,-224.963 175.758,-222.098 181.945,-230.699 185.958,-224.963"/>
<text text-anchor="middle" x="455.5" y="-285.5" font-family="Helvetica,sans-Serif" font-size="10.00"> m_fileOrData</text>
</g>
<!-- Node4&#45;&gt;Node2 -->
<g id="edge3" class="edge"><title>Node4&#45;&gt;Node2</title>
<path fill="none" stroke="#9a32cd" stroke-dasharray="5,2" d="M202.567,-210.878C265.504,-208.028 392.224,-201.183 499,-188.5 508.186,-187.409 517.988,-185.964 527.308,-184.456"/>
<polygon fill="#9a32cd" stroke="#9a32cd" points="202.136,-207.394 192.301,-211.333 202.446,-214.387 202.136,-207.394"/>
<text text-anchor="middle" x="332.5" y="-210.5" font-family="Helvetica,sans-Serif" font-size="10.00"> m_responseDetails</text>
</g>
<!-- Node7 -->
<g id="node7" class="node"><title>Node7</title>
<polygon fill="white" stroke="#bfbfbf" points="271,-157 271,-176 394,-176 394,-157 271,-157"/>
<text text-anchor="middle" x="332.5" y="-164" font-family="Helvetica,sans-Serif" font-size="10.00">std::vector&lt; std::string &gt;</text>
</g>
<!-- Node4&#45;&gt;Node7 -->
<g id="edge7" class="edge"><title>Node4&#45;&gt;Node7</title>
<path fill="none" stroke="#9a32cd" stroke-dasharray="5,2" d="M187.216,-197.736C194.347,-193.913 202.306,-190.136 210,-187.5 229.34,-180.876 251.159,-176.271 270.916,-173.101"/>
<polygon fill="#9a32cd" stroke="#9a32cd" points="185.096,-194.914 178.106,-202.875 188.536,-201.01 185.096,-194.914"/>
<text text-anchor="middle" x="231.5" y="-190.5" font-family="Helvetica,sans-Serif" font-size="10.00"> elements</text>
</g>
<!-- Node5 -->
<g id="node5" class="node"><title>Node5</title>
<g id="a_node5"><a xlink:title="STL class. ">
<polygon fill="white" stroke="#bfbfbf" points="0,-197.5 0,-227.5 95,-227.5 95,-197.5 0,-197.5"/>
<text text-anchor="start" x="8" y="-215.5" font-family="Helvetica,sans-Serif" font-size="10.00">std::basic_string&lt;</text>
<text text-anchor="middle" x="47.5" y="-204.5" font-family="Helvetica,sans-Serif" font-size="10.00"> char &gt;</text>
</a>
</g>
</g>
<!-- Node5&#45;&gt;Node4 -->
<g id="edge4" class="edge"><title>Node5&#45;&gt;Node4</title>
<path fill="none" stroke="midnightblue" d="M105.526,-212.5C114.678,-212.5 123.803,-212.5 131.931,-212.5"/>
<polygon fill="midnightblue" stroke="midnightblue" points="105.233,-209 95.2328,-212.5 105.233,-216 105.233,-209"/>
</g>
<!-- Node6 -->
<g id="node6" class="node"><title>Node6</title>
<g id="a_node6"><a xlink:href="classblfwk_1_1_progress.html" target="_top" xlink:title="Contains the callback function for progress and abort phase. ">
<polygon fill="white" stroke="black" points="291,-242 291,-261 374,-261 374,-242 291,-242"/>
<text text-anchor="middle" x="332.5" y="-249" font-family="Helvetica,sans-Serif" font-size="10.00">blfwk::Progress</text>
</a>
</g>
</g>
<!-- Node6&#45;&gt;Node2 -->
<g id="edge5" class="edge"><title>Node6&#45;&gt;Node2</title>
<path fill="none" stroke="#9a32cd" stroke-dasharray="5,2" d="M384.341,-249.792C417.904,-247.239 462.294,-241.095 499,-226.5 523.041,-216.941 546.903,-198.029 560.222,-186.401"/>
<polygon fill="#9a32cd" stroke="#9a32cd" points="384.033,-246.305 374.293,-250.474 384.508,-253.289 384.033,-246.305"/>
<text text-anchor="middle" x="455.5" y="-250.5" font-family="Helvetica,sans-Serif" font-size="10.00"> m_progress</text>
</g>
<!-- Node7&#45;&gt;Node2 -->
<g id="edge6" class="edge"><title>Node7&#45;&gt;Node2</title>
<path fill="none" stroke="#9a32cd" stroke-dasharray="5,2" d="M404.278,-169.48C444.28,-171.164 493.012,-173.216 527.431,-174.666"/>
<polygon fill="#9a32cd" stroke="#9a32cd" points="404.184,-165.973 394.046,-169.049 403.89,-172.967 404.184,-165.973"/>
<text text-anchor="middle" x="455.5" y="-176.5" font-family="Helvetica,sans-Serif" font-size="10.00"> m_argv</text>
</g>
<!-- Node8 -->
<g id="node8" class="node"><title>Node8</title>
<g id="a_node8"><a xlink:href="classblfwk_1_1_data_source_1_1_segment.html" target="_top" xlink:title="Discrete, contiguous part of the source&#39;s data. ">
<polygon fill="white" stroke="black" points="521.5,-49.5 521.5,-79.5 622.5,-79.5 622.5,-49.5 521.5,-49.5"/>
<text text-anchor="start" x="529.5" y="-67.5" font-family="Helvetica,sans-Serif" font-size="10.00">blfwk::DataSource::</text>
<text text-anchor="middle" x="572" y="-56.5" font-family="Helvetica,sans-Serif" font-size="10.00">Segment</text>
</a>
</g>
</g>
<!-- Node8&#45;&gt;Node1 -->
<g id="edge8" class="edge"><title>Node8&#45;&gt;Node1</title>
<path fill="none" stroke="#9a32cd" stroke-dasharray="5,2" d="M632.712,-78.2445C663.301,-85.2855 699.779,-93.6818 727.22,-99.9981"/>
<polygon fill="#9a32cd" stroke="#9a32cd" points="633.116,-74.746 622.586,-75.9136 631.546,-81.5676 633.116,-74.746"/>
<text text-anchor="middle" x="672.5" y="-97.5" font-family="Helvetica,sans-Serif" font-size="10.00"> m_segment</text>
</g>
<!-- Node9 -->
<g id="node9" class="node"><title>Node9</title>
<g id="a_node9"><a xlink:href="classblfwk_1_1_data_source.html" target="_top" xlink:title="Abstract base class for data sources. ">
<polygon fill="white" stroke="black" points="285,-65 285,-84 380,-84 380,-65 285,-65"/>
<text text-anchor="middle" x="332.5" y="-72" font-family="Helvetica,sans-Serif" font-size="10.00">blfwk::DataSource</text>
</a>
</g>
</g>
<!-- Node9&#45;&gt;Node8 -->
<g id="edge9" class="edge"><title>Node9&#45;&gt;Node8</title>
<path fill="none" stroke="#9a32cd" stroke-dasharray="5,2" d="M359.718,-60.3771C374.589,-53.1709 393.811,-45.1676 412,-41.5 449.904,-33.8569 460.794,-35.5459 499,-41.5 509.762,-43.1771 521.113,-46.1844 531.542,-49.4831"/>
<polygon fill="#9a32cd" stroke="#9a32cd" points="357.993,-57.3268 350.629,-64.9438 361.136,-63.5816 357.993,-57.3268"/>
<text text-anchor="middle" x="455.5" y="-44.5" font-family="Helvetica,sans-Serif" font-size="10.00"> m_source</text>
</g>
<!-- Node10 -->
<g id="node10" class="node"><title>Node10</title>
<g id="a_node10"><a xlink:href="classblfwk_1_1_data_target.html" target="_top" xlink:title="Abstract base class for the target address or range of data. ">
<polygon fill="white" stroke="black" points="526,-99 526,-118 618,-118 618,-99 526,-99"/>
<text text-anchor="middle" x="572" y="-106" font-family="Helvetica,sans-Serif" font-size="10.00">blfwk::DataTarget</text>
</a>
</g>
</g>
<!-- Node9&#45;&gt;Node10 -->
<g id="edge11" class="edge"><title>Node9&#45;&gt;Node10</title>
<path fill="none" stroke="#9a32cd" stroke-dasharray="5,2" d="M390.769,-83.351C397.915,-84.4271 405.125,-85.499 412,-86.5 450.331,-92.0813 493.913,-98.0876 525.742,-102.412"/>
<polygon fill="#9a32cd" stroke="#9a32cd" points="390.801,-79.8161 380.39,-81.7792 389.753,-86.7372 390.801,-79.8161"/>
<text text-anchor="middle" x="455.5" y="-102.5" font-family="Helvetica,sans-Serif" font-size="10.00"> m_source</text>
</g>
<!-- Node10&#45;&gt;Node9 -->
<g id="edge10" class="edge"><title>Node10&#45;&gt;Node9</title>
<path fill="none" stroke="#9a32cd" stroke-dasharray="5,2" d="M531.283,-95.2045C526.383,-93.1539 521.515,-90.9088 517,-88.5 508.293,-83.8549 508.38,-78.5645 499,-75.5 460.353,-62.8741 413.866,-63.9003 380.013,-67.3439"/>
<polygon fill="#9a32cd" stroke="#9a32cd" points="530.074,-98.4897 540.66,-98.9001 532.64,-91.9772 530.074,-98.4897"/>
<text text-anchor="middle" x="455.5" y="-78.5" font-family="Helvetica,sans-Serif" font-size="10.00"> m_target</text>
</g>
<!-- Node11 -->
<g id="node11" class="node"><title>Node11</title>
<polygon fill="white" stroke="#bfbfbf" points="517,-0.5 517,-30.5 627,-30.5 627,-0.5 517,-0.5"/>
<text text-anchor="start" x="525" y="-18.5" font-family="Helvetica,sans-Serif" font-size="10.00">std::vector&lt; unsigned</text>
<text text-anchor="middle" x="572" y="-7.5" font-family="Helvetica,sans-Serif" font-size="10.00"> char &gt;</text>
</g>
<!-- Node11&#45;&gt;Node1 -->
<g id="edge13" class="edge"><title>Node11&#45;&gt;Node1</title>
<path fill="none" stroke="#9a32cd" stroke-dasharray="5,2" d="M624.088,-34.2421C647.601,-43.4177 675.628,-55.1405 700,-67.5 719.533,-77.4056 740.871,-90.9581 754.454,-99.9588"/>
<polygon fill="#9a32cd" stroke="#9a32cd" points="625.236,-30.9339 614.647,-30.5995 622.717,-37.4647 625.236,-30.9339"/>
<text text-anchor="middle" x="672.5" y="-70.5" font-family="Helvetica,sans-Serif" font-size="10.00"> m_data</text>
</g>
</g>
</svg>
