<?xml version="1.0" encoding="UTF-8" standalone="no"?>
<!DOCTYPE svg PUBLIC "-//W3C//DTD SVG 1.1//EN"
 "http://www.w3.org/Graphics/SVG/1.1/DTD/svg11.dtd">
<!-- Generated by graphviz version 2.38.0 (20140413.2041)
 -->
<!-- Title: elftosb::ConversionController Pages: 1 -->
<svg width="256pt" height="151pt"
 viewBox="0.00 0.00 256.00 151.00" xmlns="http://www.w3.org/2000/svg" xmlns:xlink="http://www.w3.org/1999/xlink">
<g id="graph0" class="graph" transform="scale(1 1) rotate(0) translate(4 147)">
<title>elftosb::ConversionController</title>
<polygon fill="white" stroke="none" points="-4,4 -4,-147 252,-147 252,4 -4,4"/>
<!-- Node1 -->
<g id="node1" class="node"><title>Node1</title>
<polygon fill="#bfbfbf" stroke="black" points="57.5,-0.5 57.5,-19.5 197.5,-19.5 197.5,-0.5 57.5,-0.5"/>
<text text-anchor="middle" x="127.5" y="-7.5" font-family="Helvetica,sans-Serif" font-size="10.00">elftosb::ConversionController</text>
</g>
<!-- Node2 -->
<g id="node2" class="node"><title>Node2</title>
<g id="a_node2"><a xlink:href="classelftosb_1_1_option_dictionary.html" target="_top" xlink:title="Concrete implementation of OptionContext. ">
<polygon fill="white" stroke="black" points="0,-62 0,-81 123,-81 123,-62 0,-62"/>
<text text-anchor="middle" x="61.5" y="-69" font-family="Helvetica,sans-Serif" font-size="10.00">elftosb::OptionDictionary</text>
</a>
</g>
</g>
<!-- Node2&#45;&gt;Node1 -->
<g id="edge1" class="edge"><title>Node2&#45;&gt;Node1</title>
<path fill="none" stroke="midnightblue" d="M78.5273,-55.1496C91.1103,-43.8058 107.776,-28.7811 118.061,-19.5091"/>
<polygon fill="midnightblue" stroke="midnightblue" points="76.04,-52.6796 70.9562,-61.9751 80.7271,-57.8788 76.04,-52.6796"/>
</g>
<!-- Node3 -->
<g id="node3" class="node"><title>Node3</title>
<g id="a_node3"><a xlink:href="classelftosb_1_1_option_context.html" target="_top" xlink:title="Pure abstract interface class to a table of options. ">
<polygon fill="white" stroke="black" points="5,-123.5 5,-142.5 118,-142.5 118,-123.5 5,-123.5"/>
<text text-anchor="middle" x="61.5" y="-130.5" font-family="Helvetica,sans-Serif" font-size="10.00">elftosb::OptionContext</text>
</a>
</g>
</g>
<!-- Node3&#45;&gt;Node2 -->
<g id="edge2" class="edge"><title>Node3&#45;&gt;Node2</title>
<path fill="none" stroke="midnightblue" d="M61.5,-113.317C61.5,-102.496 61.5,-89.398 61.5,-81.0091"/>
<polygon fill="midnightblue" stroke="midnightblue" points="58.0001,-113.475 61.5,-123.475 65.0001,-113.475 58.0001,-113.475"/>
</g>
<!-- Node4 -->
<g id="node4" class="node"><title>Node4</title>
<g id="a_node4"><a xlink:href="classelftosb_1_1_eval_context_1_1_source_file_manager.html" target="_top" xlink:title="Abstract interface for a manager of source files. ">
<polygon fill="white" stroke="black" points="141,-56.5 141,-86.5 248,-86.5 248,-56.5 141,-56.5"/>
<text text-anchor="start" x="149" y="-74.5" font-family="Helvetica,sans-Serif" font-size="10.00">elftosb::EvalContext</text>
<text text-anchor="middle" x="194.5" y="-63.5" font-family="Helvetica,sans-Serif" font-size="10.00">::SourceFileManager</text>
</a>
</g>
</g>
<!-- Node4&#45;&gt;Node1 -->
<g id="edge3" class="edge"><title>Node4&#45;&gt;Node1</title>
<path fill="none" stroke="midnightblue" d="M170.962,-49.5972C159.384,-39.3153 146.06,-27.4824 137.249,-19.6578"/>
<polygon fill="midnightblue" stroke="midnightblue" points="168.821,-52.3761 178.622,-56.3993 173.469,-47.1421 168.821,-52.3761"/>
</g>
</g>
</svg>
