<?xml version="1.0" encoding="UTF-8" standalone="no"?>
<!DOCTYPE svg PUBLIC "-//W3C//DTD SVG 1.1//EN"
 "http://www.w3.org/Graphics/SVG/1.1/DTD/svg11.dtd">
<!-- Generated by graphviz version 2.38.0 (20140413.2041)
 -->
<!-- Title: Json::ValueInternalLink Pages: 1 -->
<svg width="184pt" height="97pt"
 viewBox="0.00 0.00 184.00 97.00" xmlns="http://www.w3.org/2000/svg" xmlns:xlink="http://www.w3.org/1999/xlink">
<g id="graph0" class="graph" transform="scale(1 1) rotate(0) translate(4 93)">
<title>Json::ValueInternalLink</title>
<polygon fill="white" stroke="none" points="-4,4 -4,-93 180,-93 180,4 -4,4"/>
<!-- Node1 -->
<g id="node1" class="node"><title>Node1</title>
<polygon fill="#bfbfbf" stroke="black" points="0,-1.5 0,-20.5 117,-20.5 117,-1.5 0,-1.5"/>
<text text-anchor="middle" x="58.5" y="-8.5" font-family="Helvetica,sans-Serif" font-size="10.00">Json::ValueInternalLink</text>
</g>
<!-- Node1&#45;&gt;Node1 -->
<g id="edge3" class="edge"><title>Node1&#45;&gt;Node1</title>
<path fill="none" stroke="#9a32cd" stroke-dasharray="5,2" d="M127.435,-15.6087C132.14,-14.5492 135,-13.0129 135,-11 135,-7.7793 127.678,-5.77894 117.195,-4.99892"/>
<polygon fill="#9a32cd" stroke="#9a32cd" points="126.633,-12.1856 117.195,-17.0011 127.576,-19.1218 126.633,-12.1856"/>
<text text-anchor="middle" x="155.5" y="-14" font-family="Helvetica,sans-Serif" font-size="10.00"> next_</text>
<text text-anchor="middle" x="155.5" y="-3" font-family="Helvetica,sans-Serif" font-size="10.00">previous_</text>
</g>
<!-- Node2 -->
<g id="node2" class="node"><title>Node2</title>
<g id="a_node2"><a xlink:href="class_json_1_1_value.html" target="_top" xlink:title="Represents a JSON value. ">
<polygon fill="white" stroke="black" points="24.5,-69.5 24.5,-88.5 92.5,-88.5 92.5,-69.5 24.5,-69.5"/>
<text text-anchor="middle" x="58.5" y="-76.5" font-family="Helvetica,sans-Serif" font-size="10.00">Json::Value</text>
</a>
</g>
</g>
<!-- Node2&#45;&gt;Node1 -->
<g id="edge1" class="edge"><title>Node2&#45;&gt;Node1</title>
<path fill="none" stroke="#9a32cd" stroke-dasharray="5,2" d="M58.5,-59.0413C58.5,-46.4724 58.5,-30.5631 58.5,-20.8411"/>
<polygon fill="#9a32cd" stroke="#9a32cd" points="55.0001,-59.3716 58.5,-69.3717 62.0001,-59.3717 55.0001,-59.3716"/>
<text text-anchor="middle" x="75" y="-43" font-family="Helvetica,sans-Serif" font-size="10.00"> items_</text>
</g>
<!-- Node2&#45;&gt;Node2 -->
<g id="edge2" class="edge"><title>Node2&#45;&gt;Node2</title>
<path fill="none" stroke="#9a32cd" stroke-dasharray="5,2" d="M102.648,-84.0193C107.425,-83.0559 110.5,-81.3828 110.5,-79 110.5,-75.1875 102.627,-73.1919 92.5085,-73.0132"/>
<polygon fill="#9a32cd" stroke="#9a32cd" points="102.131,-80.5526 92.5085,-84.9868 102.796,-87.5209 102.131,-80.5526"/>
<text text-anchor="middle" x="120" y="-76.5" font-family="Helvetica,sans-Serif" font-size="10.00"> null</text>
</g>
</g>
</svg>
