<?xml version="1.0" encoding="UTF-8" standalone="no"?>
<!DOCTYPE svg PUBLIC "-//W3C//DTD SVG 1.1//EN"
 "http://www.w3.org/Graphics/SVG/1.1/DTD/svg11.dtd">
<!-- Generated by graphviz version 2.38.0 (20140413.2041)
 -->
<!-- Title: elftosb::ExprASTNode Pages: 1 -->
<svg width="448pt" height="394pt"
 viewBox="0.00 0.00 448.00 394.00" xmlns="http://www.w3.org/2000/svg" xmlns:xlink="http://www.w3.org/1999/xlink">
<g id="graph0" class="graph" transform="scale(1 1) rotate(0) translate(4 390)">
<title>elftosb::ExprASTNode</title>
<polygon fill="white" stroke="none" points="-4,4 -4,-390 444,-390 444,4 -4,4"/>
<!-- Node1 -->
<g id="node1" class="node"><title>Node1</title>
<polygon fill="#bfbfbf" stroke="black" points="128,-183.5 128,-202.5 241,-202.5 241,-183.5 128,-183.5"/>
<text text-anchor="middle" x="184.5" y="-190.5" font-family="Helvetica,sans-Serif" font-size="10.00">elftosb::ExprASTNode</text>
</g>
<!-- Node3 -->
<g id="node3" class="node"><title>Node3</title>
<g id="a_node3"><a xlink:href="classelftosb_1_1_binary_op_expr_a_s_t_node.html" target="_top" xlink:title="elftosb::BinaryOpExprASTNode">
<polygon fill="white" stroke="black" points="282,-366.5 282,-385.5 435,-385.5 435,-366.5 282,-366.5"/>
<text text-anchor="middle" x="358.5" y="-373.5" font-family="Helvetica,sans-Serif" font-size="10.00">elftosb::BinaryOpExprASTNode</text>
</a>
</g>
</g>
<!-- Node1&#45;&gt;Node3 -->
<g id="edge2" class="edge"><title>Node1&#45;&gt;Node3</title>
<path fill="none" stroke="midnightblue" d="M190.688,-212.421C200.999,-247.112 227.464,-319.589 277,-357 282.157,-360.894 287.988,-364.007 294.097,-366.492"/>
<polygon fill="midnightblue" stroke="midnightblue" points="193.993,-211.245 187.899,-202.578 187.258,-213.153 193.993,-211.245"/>
</g>
<!-- Node4 -->
<g id="node4" class="node"><title>Node4</title>
<g id="a_node4"><a xlink:href="classelftosb_1_1_boolean_not_expr_a_s_t_node.html" target="_top" xlink:title="Performa a boolean inversion. ">
<polygon fill="white" stroke="black" points="277,-328.5 277,-347.5 440,-347.5 440,-328.5 277,-328.5"/>
<text text-anchor="middle" x="358.5" y="-335.5" font-family="Helvetica,sans-Serif" font-size="10.00">elftosb::BooleanNotExprASTNode</text>
</a>
</g>
</g>
<!-- Node1&#45;&gt;Node4 -->
<g id="edge3" class="edge"><title>Node1&#45;&gt;Node4</title>
<path fill="none" stroke="midnightblue" d="M193.818,-211.808C207.173,-239.734 236.111,-291.785 277,-319 282.857,-322.899 289.422,-326.001 296.208,-328.469"/>
<polygon fill="midnightblue" stroke="midnightblue" points="196.982,-210.311 189.609,-202.702 190.627,-213.248 196.982,-210.311"/>
</g>
<!-- Node5 -->
<g id="node5" class="node"><title>Node5</title>
<g id="a_node5"><a xlink:href="classelftosb_1_1_defined_operator_a_s_t_node.html" target="_top" xlink:title="Returns true or false depending on whether a constant is defined. ">
<polygon fill="white" stroke="black" points="298,-279 298,-309 419,-309 419,-279 298,-279"/>
<text text-anchor="start" x="306" y="-297" font-family="Helvetica,sans-Serif" font-size="10.00">elftosb::DefinedOperator</text>
<text text-anchor="middle" x="358.5" y="-286" font-family="Helvetica,sans-Serif" font-size="10.00">ASTNode</text>
</a>
</g>
</g>
<!-- Node1&#45;&gt;Node5 -->
<g id="edge4" class="edge"><title>Node1&#45;&gt;Node5</title>
<path fill="none" stroke="midnightblue" d="M201.504,-209.711C218.706,-226.796 247.566,-253.03 277,-269 283.946,-272.769 291.543,-276.06 299.208,-278.907"/>
<polygon fill="midnightblue" stroke="midnightblue" points="203.976,-207.233 194.461,-202.574 198.994,-212.15 203.976,-207.233"/>
</g>
<!-- Node6 -->
<g id="node6" class="node"><title>Node6</title>
<g id="a_node6"><a xlink:href="classelftosb_1_1_int_const_expr_a_s_t_node.html" target="_top" xlink:title="elftosb::IntConstExprASTNode">
<polygon fill="white" stroke="black" points="284,-240.5 284,-259.5 433,-259.5 433,-240.5 284,-240.5"/>
<text text-anchor="middle" x="358.5" y="-247.5" font-family="Helvetica,sans-Serif" font-size="10.00">elftosb::IntConstExprASTNode</text>
</a>
</g>
</g>
<!-- Node1&#45;&gt;Node6 -->
<g id="edge5" class="edge"><title>Node1&#45;&gt;Node6</title>
<path fill="none" stroke="midnightblue" d="M215.087,-206.72C232.785,-214.564 255.872,-224.169 277,-231 287.931,-234.534 299.891,-237.715 311.17,-240.418"/>
<polygon fill="midnightblue" stroke="midnightblue" points="216.412,-203.479 205.856,-202.573 213.543,-209.864 216.412,-203.479"/>
</g>
<!-- Node7 -->
<g id="node7" class="node"><title>Node7</title>
<g id="a_node7"><a xlink:href="classelftosb_1_1_int_size_expr_a_s_t_node.html" target="_top" xlink:title="Negates an expression. ">
<polygon fill="white" stroke="black" points="287,-202.5 287,-221.5 430,-221.5 430,-202.5 287,-202.5"/>
<text text-anchor="middle" x="358.5" y="-209.5" font-family="Helvetica,sans-Serif" font-size="10.00">elftosb::IntSizeExprASTNode</text>
</a>
</g>
</g>
<!-- Node1&#45;&gt;Node7 -->
<g id="edge6" class="edge"><title>Node1&#45;&gt;Node7</title>
<path fill="none" stroke="midnightblue" d="M251.39,-200.279C263,-201.561 275.129,-202.901 286.862,-204.197"/>
<polygon fill="midnightblue" stroke="midnightblue" points="251.667,-196.788 241.343,-199.169 250.899,-203.746 251.667,-196.788"/>
</g>
<!-- Node8 -->
<g id="node8" class="node"><title>Node8</title>
<g id="a_node8"><a xlink:href="classelftosb_1_1_negative_expr_a_s_t_node.html" target="_top" xlink:title="Negates an expression. ">
<polygon fill="white" stroke="black" points="284,-164.5 284,-183.5 433,-183.5 433,-164.5 284,-164.5"/>
<text text-anchor="middle" x="358.5" y="-171.5" font-family="Helvetica,sans-Serif" font-size="10.00">elftosb::NegativeExprASTNode</text>
</a>
</g>
</g>
<!-- Node1&#45;&gt;Node8 -->
<g id="edge7" class="edge"><title>Node1&#45;&gt;Node8</title>
<path fill="none" stroke="midnightblue" d="M251.357,-185.725C261.963,-184.554 273.002,-183.334 283.779,-182.144"/>
<polygon fill="midnightblue" stroke="midnightblue" points="250.899,-182.254 241.343,-186.831 251.667,-189.212 250.899,-182.254"/>
</g>
<!-- Node9 -->
<g id="node9" class="node"><title>Node9</title>
<g id="a_node9"><a xlink:href="classelftosb_1_1_sizeof_operator_a_s_t_node.html" target="_top" xlink:title="Returns an integer that is the size in bytes of the operand. ">
<polygon fill="white" stroke="black" points="280,-126.5 280,-145.5 437,-145.5 437,-126.5 280,-126.5"/>
<text text-anchor="middle" x="358.5" y="-133.5" font-family="Helvetica,sans-Serif" font-size="10.00">elftosb::SizeofOperatorASTNode</text>
</a>
</g>
</g>
<!-- Node1&#45;&gt;Node9 -->
<g id="edge8" class="edge"><title>Node1&#45;&gt;Node9</title>
<path fill="none" stroke="midnightblue" d="M215.087,-179.28C232.785,-171.436 255.872,-161.831 277,-155 287.931,-151.466 299.891,-148.285 311.17,-145.582"/>
<polygon fill="midnightblue" stroke="midnightblue" points="213.543,-176.136 205.856,-183.427 216.412,-182.521 213.543,-176.136"/>
</g>
<!-- Node10 -->
<g id="node10" class="node"><title>Node10</title>
<g id="a_node10"><a xlink:href="classelftosb_1_1_source_file_function_a_s_t_node.html" target="_top" xlink:title="Calls a built&#45;in function with a source as the parameter. ">
<polygon fill="white" stroke="black" points="291,-77 291,-107 426,-107 426,-77 291,-77"/>
<text text-anchor="start" x="299" y="-95" font-family="Helvetica,sans-Serif" font-size="10.00">elftosb::SourceFileFunction</text>
<text text-anchor="middle" x="358.5" y="-84" font-family="Helvetica,sans-Serif" font-size="10.00">ASTNode</text>
</a>
</g>
</g>
<!-- Node1&#45;&gt;Node10 -->
<g id="edge9" class="edge"><title>Node1&#45;&gt;Node10</title>
<path fill="none" stroke="midnightblue" d="M201.504,-176.289C218.706,-159.204 247.566,-132.97 277,-117 283.946,-113.231 291.543,-109.94 299.208,-107.093"/>
<polygon fill="midnightblue" stroke="midnightblue" points="198.994,-173.85 194.461,-183.426 203.976,-178.767 198.994,-173.85"/>
</g>
<!-- Node11 -->
<g id="node11" class="node"><title>Node11</title>
<g id="a_node11"><a xlink:href="classelftosb_1_1_symbol_ref_expr_a_s_t_node.html" target="_top" xlink:title="Expression node for a symbol reference. ">
<polygon fill="white" stroke="black" points="278.5,-38.5 278.5,-57.5 438.5,-57.5 438.5,-38.5 278.5,-38.5"/>
<text text-anchor="middle" x="358.5" y="-45.5" font-family="Helvetica,sans-Serif" font-size="10.00">elftosb::SymbolRefExprASTNode</text>
</a>
</g>
</g>
<!-- Node1&#45;&gt;Node11 -->
<g id="edge10" class="edge"><title>Node1&#45;&gt;Node11</title>
<path fill="none" stroke="midnightblue" d="M193.818,-174.192C207.173,-146.266 236.111,-94.2149 277,-67 282.857,-63.1014 289.422,-59.9992 296.208,-57.5313"/>
<polygon fill="midnightblue" stroke="midnightblue" points="190.627,-172.752 189.609,-183.298 196.982,-175.689 190.627,-172.752"/>
</g>
<!-- Node12 -->
<g id="node12" class="node"><title>Node12</title>
<g id="a_node12"><a xlink:href="classelftosb_1_1_variable_expr_a_s_t_node.html" target="_top" xlink:title="elftosb::VariableExprASTNode">
<polygon fill="white" stroke="black" points="284.5,-0.5 284.5,-19.5 432.5,-19.5 432.5,-0.5 284.5,-0.5"/>
<text text-anchor="middle" x="358.5" y="-7.5" font-family="Helvetica,sans-Serif" font-size="10.00">elftosb::VariableExprASTNode</text>
</a>
</g>
</g>
<!-- Node1&#45;&gt;Node12 -->
<g id="edge11" class="edge"><title>Node1&#45;&gt;Node12</title>
<path fill="none" stroke="midnightblue" d="M190.688,-173.579C200.999,-138.888 227.464,-66.411 277,-29 282.157,-25.1057 287.988,-21.9934 294.097,-19.5085"/>
<polygon fill="midnightblue" stroke="midnightblue" points="187.258,-172.847 187.899,-183.422 193.993,-174.755 187.258,-172.847"/>
</g>
<!-- Node2 -->
<g id="node2" class="node"><title>Node2</title>
<g id="a_node2"><a xlink:href="classelftosb_1_1_a_s_t_node.html" target="_top" xlink:title="The base class for all AST node classes. ">
<polygon fill="white" stroke="black" points="0,-183.5 0,-202.5 92,-202.5 92,-183.5 0,-183.5"/>
<text text-anchor="middle" x="46" y="-190.5" font-family="Helvetica,sans-Serif" font-size="10.00">elftosb::ASTNode</text>
</a>
</g>
</g>
<!-- Node2&#45;&gt;Node1 -->
<g id="edge1" class="edge"><title>Node2&#45;&gt;Node1</title>
<path fill="none" stroke="midnightblue" d="M102.112,-193C110.483,-193 119.128,-193 127.517,-193"/>
<polygon fill="midnightblue" stroke="midnightblue" points="102.074,-189.5 92.0735,-193 102.073,-196.5 102.074,-189.5"/>
</g>
</g>
</svg>
