<?xml version="1.0" encoding="UTF-8" standalone="no"?>
<!DOCTYPE svg PUBLIC "-//W3C//DTD SVG 1.1//EN"
 "http://www.w3.org/Graphics/SVG/1.1/DTD/svg11.dtd">
<!-- Generated by graphviz version 2.38.0 (20140413.2041)
 -->
<!-- Title: StELFFile Pages: 1 -->
<svg width="785pt" height="252pt"
 viewBox="0.00 0.00 785.00 252.00" xmlns="http://www.w3.org/2000/svg" xmlns:xlink="http://www.w3.org/1999/xlink">
<g id="graph0" class="graph" transform="scale(1 1) rotate(0) translate(4 248)">
<title>StELFFile</title>
<polygon fill="white" stroke="none" points="-4,4 -4,-248 781,-248 781,4 -4,4"/>
<!-- Node1 -->
<g id="node1" class="node"><title>Node1</title>
<polygon fill="#bfbfbf" stroke="black" points="717,-119 717,-138 777,-138 777,-119 717,-119"/>
<text text-anchor="middle" x="747" y="-126" font-family="Helvetica,sans-Serif" font-size="10.00">StELFFile</text>
</g>
<!-- Node2 -->
<g id="node2" class="node"><title>Node2</title>
<polygon fill="white" stroke="#bfbfbf" points="485,-213.5 485,-243.5 577,-243.5 577,-213.5 485,-213.5"/>
<text text-anchor="start" x="493" y="-231.5" font-family="Helvetica,sans-Serif" font-size="10.00">std::vector&lt; Elf32</text>
<text text-anchor="middle" x="531" y="-220.5" font-family="Helvetica,sans-Serif" font-size="10.00">_Phdr &gt;</text>
</g>
<!-- Node2&#45;&gt;Node1 -->
<g id="edge1" class="edge"><title>Node2&#45;&gt;Node1</title>
<path fill="none" stroke="#9a32cd" stroke-dasharray="5,2" d="M587.512,-226.425C621.967,-222.856 665.839,-213.983 699,-192.5 720.057,-178.859 734.929,-152.266 741.767,-138.032"/>
<polygon fill="#9a32cd" stroke="#9a32cd" points="586.785,-222.977 577.144,-227.371 587.42,-229.948 586.785,-222.977"/>
<text text-anchor="middle" x="650.5" y="-226.5" font-family="Helvetica,sans-Serif" font-size="10.00"> m_programHeaders</text>
</g>
<!-- Node3 -->
<g id="node3" class="node"><title>Node3</title>
<g id="a_node3"><a xlink:href="struct_elf32___phdr.html" target="_top" xlink:title="ELF program header. ">
<polygon fill="white" stroke="black" points="300,-219 300,-238 364,-238 364,-219 300,-219"/>
<text text-anchor="middle" x="332" y="-226" font-family="Helvetica,sans-Serif" font-size="10.00">Elf32_Phdr</text>
</a>
</g>
</g>
<!-- Node3&#45;&gt;Node2 -->
<g id="edge2" class="edge"><title>Node3&#45;&gt;Node2</title>
<path fill="none" stroke="#9a32cd" stroke-dasharray="5,2" d="M374.222,-228.5C406.498,-228.5 451.348,-228.5 484.639,-228.5"/>
<polygon fill="#9a32cd" stroke="#9a32cd" points="374.215,-225 364.215,-228.5 374.215,-232 374.215,-225"/>
<text text-anchor="middle" x="438.5" y="-231.5" font-family="Helvetica,sans-Serif" font-size="10.00"> elements</text>
</g>
<!-- Node4 -->
<g id="node4" class="node"><title>Node4</title>
<g id="a_node4"><a xlink:title="STL class. ">
<polygon fill="white" stroke="#bfbfbf" points="497,-175 497,-194 565,-194 565,-175 497,-175"/>
<text text-anchor="middle" x="531" y="-182" font-family="Helvetica,sans-Serif" font-size="10.00">std::istream</text>
</a>
</g>
</g>
<!-- Node4&#45;&gt;Node1 -->
<g id="edge3" class="edge"><title>Node4&#45;&gt;Node1</title>
<path fill="none" stroke="#9a32cd" stroke-dasharray="5,2" d="M575.368,-181.151C609.718,-177.514 658.493,-170.134 699,-155.5 710.86,-151.215 723.181,-144.019 732.231,-138.132"/>
<polygon fill="#9a32cd" stroke="#9a32cd" points="574.8,-177.69 565.196,-182.164 575.494,-184.656 574.8,-177.69"/>
<text text-anchor="middle" x="650.5" y="-180.5" font-family="Helvetica,sans-Serif" font-size="10.00"> m_stream</text>
</g>
<!-- Node5 -->
<g id="node5" class="node"><title>Node5</title>
<g id="a_node5"><a xlink:title="STL class. ">
<polygon fill="white" stroke="#bfbfbf" points="283.5,-169.5 283.5,-199.5 380.5,-199.5 380.5,-169.5 283.5,-169.5"/>
<text text-anchor="start" x="291.5" y="-187.5" font-family="Helvetica,sans-Serif" font-size="10.00">std::basic_istream</text>
<text text-anchor="middle" x="332" y="-176.5" font-family="Helvetica,sans-Serif" font-size="10.00">&lt; char &gt;</text>
</a>
</g>
</g>
<!-- Node5&#45;&gt;Node4 -->
<g id="edge4" class="edge"><title>Node5&#45;&gt;Node4</title>
<path fill="none" stroke="midnightblue" d="M391.113,-184.5C425.609,-184.5 468.097,-184.5 496.929,-184.5"/>
<polygon fill="midnightblue" stroke="midnightblue" points="390.688,-181 380.688,-184.5 390.688,-188 390.688,-181"/>
</g>
<!-- Node6 -->
<g id="node6" class="node"><title>Node6</title>
<g id="a_node6"><a xlink:title="STL class. ">
<polygon fill="white" stroke="#bfbfbf" points="112,-175 112,-194 228,-194 228,-175 112,-175"/>
<text text-anchor="middle" x="170" y="-182" font-family="Helvetica,sans-Serif" font-size="10.00">std::basic_ios&lt; Char &gt;</text>
</a>
</g>
</g>
<!-- Node6&#45;&gt;Node5 -->
<g id="edge5" class="edge"><title>Node6&#45;&gt;Node5</title>
<path fill="none" stroke="midnightblue" d="M238.6,-184.5C253.637,-184.5 269.273,-184.5 283.314,-184.5"/>
<polygon fill="midnightblue" stroke="midnightblue" points="238.312,-181 228.312,-184.5 238.312,-188 238.312,-181"/>
</g>
<!-- Node7 -->
<g id="node7" class="node"><title>Node7</title>
<g id="a_node7"><a xlink:title="STL class. ">
<polygon fill="white" stroke="#bfbfbf" points="0,-175 0,-194 75,-194 75,-175 0,-175"/>
<text text-anchor="middle" x="37.5" y="-182" font-family="Helvetica,sans-Serif" font-size="10.00">std::ios_base</text>
</a>
</g>
</g>
<!-- Node7&#45;&gt;Node6 -->
<g id="edge6" class="edge"><title>Node7&#45;&gt;Node6</title>
<path fill="none" stroke="midnightblue" d="M85.3188,-184.5C93.8367,-184.5 102.811,-184.5 111.593,-184.5"/>
<polygon fill="midnightblue" stroke="midnightblue" points="85.1988,-181 75.1988,-184.5 85.1988,-188 85.1988,-181"/>
</g>
<!-- Node8 -->
<g id="node8" class="node"><title>Node8</title>
<g id="a_node8"><a xlink:href="struct_elf32___ehdr.html" target="_top" xlink:title="ELF file header. ">
<polygon fill="white" stroke="black" points="499,-137 499,-156 563,-156 563,-137 499,-137"/>
<text text-anchor="middle" x="531" y="-144" font-family="Helvetica,sans-Serif" font-size="10.00">Elf32_Ehdr</text>
</a>
</g>
</g>
<!-- Node8&#45;&gt;Node1 -->
<g id="edge7" class="edge"><title>Node8&#45;&gt;Node1</title>
<path fill="none" stroke="#9a32cd" stroke-dasharray="5,2" d="M573.328,-143.024C615.486,-139.478 679.824,-134.066 716.906,-130.947"/>
<polygon fill="#9a32cd" stroke="#9a32cd" points="572.789,-139.557 563.117,-143.883 573.376,-146.532 572.789,-139.557"/>
<text text-anchor="middle" x="650.5" y="-143.5" font-family="Helvetica,sans-Serif" font-size="10.00"> m_header</text>
</g>
<!-- Node9 -->
<g id="node9" class="node"><title>Node9</title>
<g id="a_node9"><a xlink:title="STL class. ">
<polygon fill="white" stroke="#bfbfbf" points="501,-99 501,-118 561,-118 561,-99 501,-99"/>
<text text-anchor="middle" x="531" y="-106" font-family="Helvetica,sans-Serif" font-size="10.00">std::string</text>
</a>
</g>
</g>
<!-- Node9&#45;&gt;Node1 -->
<g id="edge8" class="edge"><title>Node9&#45;&gt;Node1</title>
<path fill="none" stroke="#9a32cd" stroke-dasharray="5,2" d="M571.511,-109.2C605.452,-110.198 655.628,-112.621 699,-118.5 704.787,-119.284 710.923,-120.387 716.785,-121.576"/>
<polygon fill="#9a32cd" stroke="#9a32cd" points="571.18,-105.69 561.09,-108.923 570.994,-112.688 571.18,-105.69"/>
<text text-anchor="middle" x="650.5" y="-121.5" font-family="Helvetica,sans-Serif" font-size="10.00"> m_name</text>
</g>
<!-- Node10 -->
<g id="node10" class="node"><title>Node10</title>
<g id="a_node10"><a xlink:title="STL class. ">
<polygon fill="white" stroke="#bfbfbf" points="284.5,-93.5 284.5,-123.5 379.5,-123.5 379.5,-93.5 284.5,-93.5"/>
<text text-anchor="start" x="292.5" y="-111.5" font-family="Helvetica,sans-Serif" font-size="10.00">std::basic_string&lt;</text>
<text text-anchor="middle" x="332" y="-100.5" font-family="Helvetica,sans-Serif" font-size="10.00"> char &gt;</text>
</a>
</g>
</g>
<!-- Node10&#45;&gt;Node9 -->
<g id="edge9" class="edge"><title>Node10&#45;&gt;Node9</title>
<path fill="none" stroke="midnightblue" d="M390.122,-108.5C426.345,-108.5 471.693,-108.5 500.756,-108.5"/>
<polygon fill="midnightblue" stroke="midnightblue" points="389.686,-105 379.686,-108.5 389.686,-112 389.686,-105"/>
</g>
<!-- Node11 -->
<g id="node11" class="node"><title>Node11</title>
<polygon fill="white" stroke="#bfbfbf" points="485,-49.5 485,-79.5 577,-79.5 577,-49.5 485,-49.5"/>
<text text-anchor="start" x="493" y="-67.5" font-family="Helvetica,sans-Serif" font-size="10.00">std::vector&lt; Elf32</text>
<text text-anchor="middle" x="531" y="-56.5" font-family="Helvetica,sans-Serif" font-size="10.00">_Shdr &gt;</text>
</g>
<!-- Node11&#45;&gt;Node1 -->
<g id="edge10" class="edge"><title>Node11&#45;&gt;Node1</title>
<path fill="none" stroke="#9a32cd" stroke-dasharray="5,2" d="M587.129,-68.7546C620.523,-72.7723 663.4,-80.5389 699,-95.5 712.603,-101.217 726.187,-111.353 735.226,-118.888"/>
<polygon fill="#9a32cd" stroke="#9a32cd" points="587.417,-65.2651 577.088,-67.6243 586.634,-72.2211 587.417,-65.2651"/>
<text text-anchor="middle" x="650.5" y="-98.5" font-family="Helvetica,sans-Serif" font-size="10.00"> m_sectionHeaders</text>
</g>
<!-- Node12 -->
<g id="node12" class="node"><title>Node12</title>
<g id="a_node12"><a xlink:href="struct_elf32___shdr.html" target="_top" xlink:title="ELF section header. ">
<polygon fill="white" stroke="black" points="300,-55 300,-74 364,-74 364,-55 300,-55"/>
<text text-anchor="middle" x="332" y="-62" font-family="Helvetica,sans-Serif" font-size="10.00">Elf32_Shdr</text>
</a>
</g>
</g>
<!-- Node12&#45;&gt;Node11 -->
<g id="edge11" class="edge"><title>Node12&#45;&gt;Node11</title>
<path fill="none" stroke="#9a32cd" stroke-dasharray="5,2" d="M374.222,-64.5C406.498,-64.5 451.348,-64.5 484.639,-64.5"/>
<polygon fill="#9a32cd" stroke="#9a32cd" points="374.215,-61.0001 364.215,-64.5 374.215,-68.0001 374.215,-61.0001"/>
<text text-anchor="middle" x="438.5" y="-67.5" font-family="Helvetica,sans-Serif" font-size="10.00"> elements</text>
</g>
<!-- Node13 -->
<g id="node13" class="node"><title>Node13</title>
<polygon fill="white" stroke="#bfbfbf" points="478,-0.5 478,-30.5 584,-30.5 584,-0.5 478,-0.5"/>
<text text-anchor="start" x="486" y="-18.5" font-family="Helvetica,sans-Serif" font-size="10.00">std::map&lt; unsigned,</text>
<text text-anchor="middle" x="531" y="-7.5" font-family="Helvetica,sans-Serif" font-size="10.00"> SectionDataInfo &gt;</text>
</g>
<!-- Node13&#45;&gt;Node1 -->
<g id="edge12" class="edge"><title>Node13&#45;&gt;Node1</title>
<path fill="none" stroke="#9a32cd" stroke-dasharray="5,2" d="M594.468,-19.7609C627.985,-24.6291 668.539,-34.9095 699,-56.5 721.652,-72.5558 736.199,-103.289 742.46,-118.895"/>
<polygon fill="#9a32cd" stroke="#9a32cd" points="594.684,-16.2591 584.311,-18.4174 593.766,-23.1986 594.684,-16.2591"/>
<text text-anchor="middle" x="650.5" y="-59.5" font-family="Helvetica,sans-Serif" font-size="10.00"> m_sectionDataCache</text>
</g>
<!-- Node14 -->
<g id="node14" class="node"><title>Node14</title>
<g id="a_node14"><a xlink:href="class_st_e_l_f_file.html#struct_st_e_l_f_file_1_1_section_data_info" target="_top" xlink:title="StELFFile::SectionDataInfo">
<polygon fill="white" stroke="black" points="265,-6 265,-25 399,-25 399,-6 265,-6"/>
<text text-anchor="middle" x="332" y="-13" font-family="Helvetica,sans-Serif" font-size="10.00">StELFFile::SectionDataInfo</text>
</a>
</g>
</g>
<!-- Node14&#45;&gt;Node13 -->
<g id="edge13" class="edge"><title>Node14&#45;&gt;Node13</title>
<path fill="none" stroke="#9a32cd" stroke-dasharray="5,2" d="M409.191,-15.5C432.109,-15.5 456.727,-15.5 477.722,-15.5"/>
<polygon fill="#9a32cd" stroke="#9a32cd" points="409.146,-12.0001 399.146,-15.5 409.146,-19.0001 409.146,-12.0001"/>
<text text-anchor="middle" x="438.5" y="-18.5" font-family="Helvetica,sans-Serif" font-size="10.00"> elements</text>
</g>
</g>
</svg>
