<?xml version="1.0" encoding="UTF-8" standalone="no"?>
<!DOCTYPE svg PUBLIC "-//W3C//DTD SVG 1.1//EN"
 "http://www.w3.org/Graphics/SVG/1.1/DTD/svg11.dtd">
<!-- Generated by graphviz version 2.38.0 (20140413.2041)
 -->
<!-- Title: Serial Packetizer Pages: 1 -->
<svg width="294pt" height="415pt"
 viewBox="0.00 0.00 294.00 415.00" xmlns="http://www.w3.org/2000/svg" xmlns:xlink="http://www.w3.org/1999/xlink">
<g id="graph0" class="graph" transform="scale(1 1) rotate(0) translate(4 411)">
<title>Serial Packetizer</title>
<polygon fill="white" stroke="none" points="-4,4 -4,-411 290,-411 290,4 -4,4"/>
<!-- Node8 -->
<g id="node1" class="node"><title>Node8</title>
<g id="a_node1"><a xlink:href="group__uart__peripheral.html" target="_top" xlink:title="UART Peripheral. ">
<polygon fill="white" stroke="black" points="173,-342.5 173,-361.5 262,-361.5 262,-342.5 173,-342.5"/>
<text text-anchor="middle" x="217.5" y="-349.5" font-family="Helvetica,sans-Serif" font-size="10.00">UART Peripheral</text>
</a>
</g>
</g>
<!-- Node7 -->
<g id="node2" class="node"><title>Node7</title>
<g id="a_node2"><a xlink:href="group__host__peripherals.html" target="_top" xlink:title="Peripheral support. ">
<polygon fill="white" stroke="black" points="185,-304.5 185,-323.5 250,-323.5 250,-304.5 185,-304.5"/>
<text text-anchor="middle" x="217.5" y="-311.5" font-family="Helvetica,sans-Serif" font-size="10.00">Peripherals</text>
</a>
</g>
</g>
<!-- Node5 -->
<g id="node3" class="node"><title>Node5</title>
<g id="a_node3"><a xlink:href="group__bus__pal__peripheral.html" target="_top" xlink:title="Bus Pal Peripheral. ">
<polygon fill="white" stroke="black" points="168.5,-266.5 168.5,-285.5 266.5,-285.5 266.5,-266.5 168.5,-266.5"/>
<text text-anchor="middle" x="217.5" y="-273.5" font-family="Helvetica,sans-Serif" font-size="10.00">Bus Pal Peripheral</text>
</a>
</g>
</g>
<!-- Node4 -->
<g id="node4" class="node"><title>Node4</title>
<g id="a_node4"><a xlink:href="group__bus__pal.html" target="_top" xlink:title="Bus Pal transport support. ">
<polygon fill="white" stroke="black" points="170,-228.5 170,-247.5 265,-247.5 265,-228.5 170,-228.5"/>
<text text-anchor="middle" x="217.5" y="-235.5" font-family="Helvetica,sans-Serif" font-size="10.00">Bus Pal Transport</text>
</a>
</g>
</g>
<!-- Node11 -->
<g id="node5" class="node"><title>Node11</title>
<g id="a_node5"><a xlink:href="group__host__usb__hid__peripheral.html" target="_top" xlink:title="USB&#45;HID Peripheral. ">
<polygon fill="white" stroke="black" points="166.5,-190.5 166.5,-209.5 268.5,-209.5 268.5,-190.5 166.5,-190.5"/>
<text text-anchor="middle" x="217.5" y="-197.5" font-family="Helvetica,sans-Serif" font-size="10.00">USB&#45;HID Peripheral</text>
</a>
</g>
</g>
<!-- Node9 -->
<g id="node6" class="node"><title>Node9</title>
<g id="a_node6"><a xlink:href="group__host__updater.html" target="_top" xlink:title="Updater application support. ">
<polygon fill="white" stroke="black" points="192.5,-152.5 192.5,-171.5 242.5,-171.5 242.5,-152.5 192.5,-152.5"/>
<text text-anchor="middle" x="217.5" y="-159.5" font-family="Helvetica,sans-Serif" font-size="10.00">Updater</text>
</a>
</g>
</g>
<!-- Node10 -->
<g id="node7" class="node"><title>Node10</title>
<g id="a_node7"><a xlink:href="group__usb__hid__packetizer.html" target="_top" xlink:title="USB&#45;HID Packet creation. ">
<polygon fill="white" stroke="black" points="165,-114.5 165,-133.5 270,-133.5 270,-114.5 165,-114.5"/>
<text text-anchor="middle" x="217.5" y="-121.5" font-family="Helvetica,sans-Serif" font-size="10.00">USB&#45;HID Packetizer</text>
</a>
</g>
</g>
<!-- Node3 -->
<g id="node8" class="node"><title>Node3</title>
<g id="a_node8"><a xlink:href="group__blfwk.html" target="_top" xlink:title="Host Bootloader components. ">
<polygon fill="white" stroke="black" points="149,-76.5 149,-95.5 286,-95.5 286,-76.5 149,-76.5"/>
<text text-anchor="middle" x="217.5" y="-83.5" font-family="Helvetica,sans-Serif" font-size="10.00">Host Bootloader Framework</text>
</a>
</g>
</g>
<!-- Node2 -->
<g id="node9" class="node"><title>Node2</title>
<g id="a_node9"><a xlink:href="group__host__error.html" target="_top" xlink:title="Errors. ">
<polygon fill="white" stroke="black" points="198.5,-38.5 198.5,-57.5 236.5,-57.5 236.5,-38.5 198.5,-38.5"/>
<text text-anchor="middle" x="217.5" y="-45.5" font-family="Helvetica,sans-Serif" font-size="10.00">Error</text>
</a>
</g>
</g>
<!-- Node6 -->
<g id="node10" class="node"><title>Node6</title>
<g id="a_node10"><a xlink:href="group__host__commands.html" target="_top" xlink:title="Command support. ">
<polygon fill="white" stroke="black" points="184.5,-0.5 184.5,-19.5 250.5,-19.5 250.5,-0.5 184.5,-0.5"/>
<text text-anchor="middle" x="217.5" y="-7.5" font-family="Helvetica,sans-Serif" font-size="10.00">Commands</text>
</a>
</g>
</g>
<!-- Node1 -->
<g id="node11" class="node"><title>Node1</title>
<g id="a_node11"><a xlink:href="group__host__packetizers.html" target="_top" xlink:title="Packet creation. ">
<polygon fill="white" stroke="black" points="183.5,-387.5 183.5,-406.5 251.5,-406.5 251.5,-387.5 183.5,-387.5"/>
<text text-anchor="middle" x="217.5" y="-394.5" font-family="Helvetica,sans-Serif" font-size="10.00">Packetizers</text>
</a>
</g>
</g>
<!-- Node0 -->
<g id="node12" class="node"><title>Node0</title>
<polygon fill="#bfbfbf" stroke="black" points="0,-209.5 0,-228.5 91,-228.5 91,-209.5 0,-209.5"/>
<text text-anchor="middle" x="45.5" y="-216.5" font-family="Helvetica,sans-Serif" font-size="10.00">Serial Packetizer</text>
</g>
<!-- Node1&#45;&gt;Node0 -->
<g id="edge1" class="edge"><title>Node1&#45;&gt;Node0</title>
<path fill="none" stroke="black" d="M174.942,-383.841C166.076,-380.262 156.985,-375.973 149,-371 92.2659,-335.662 59.6377,-256.018 49.7437,-228.537"/>
<polygon fill="black" stroke="black" points="173.821,-387.16 184.412,-387.446 176.311,-380.617 173.821,-387.16"/>
</g>
<!-- Node0&#45;&gt;Node8 -->
<g id="edge9" class="edge"><title>Node0&#45;&gt;Node8</title>
<path fill="none" stroke="blueviolet" stroke-dasharray="5,2" d="M51.8995,-228.75C65.0853,-251.506 101.364,-308.074 149,-333 156.443,-336.895 164.777,-340.07 172.982,-342.631"/>
<text text-anchor="middle" x="120" y="-322" font-family="Helvetica,sans-Serif" font-size="10.00">blfwk</text>
</g>
<!-- Node0&#45;&gt;Node7 -->
<g id="edge8" class="edge"><title>Node0&#45;&gt;Node7</title>
<path fill="none" stroke="blueviolet" stroke-dasharray="5,2" d="M56.7198,-228.61C74.26,-244.61 111.81,-276.75 149,-295 160.148,-300.47 173.128,-304.598 184.711,-307.584"/>
<text text-anchor="middle" x="120" y="-288" font-family="Helvetica,sans-Serif" font-size="10.00">blfwk</text>
</g>
<!-- Node0&#45;&gt;Node5 -->
<g id="edge5" class="edge"><title>Node0&#45;&gt;Node5</title>
<path fill="none" stroke="blueviolet" stroke-dasharray="5,2" d="M70.744,-228.618C91.3921,-236.656 121.93,-248.188 149,-257 159.187,-260.316 170.347,-263.598 180.606,-266.476"/>
<text text-anchor="middle" x="120" y="-253" font-family="Helvetica,sans-Serif" font-size="10.00">blfwk</text>
</g>
<!-- Node0&#45;&gt;Node4 -->
<g id="edge4" class="edge"><title>Node0&#45;&gt;Node4</title>
<path fill="none" stroke="blueviolet" stroke-dasharray="5,2" d="M91.1655,-223.992C115.366,-226.697 145.245,-230.036 169.759,-232.776"/>
<text text-anchor="middle" x="120" y="-230" font-family="Helvetica,sans-Serif" font-size="10.00">blfwk</text>
</g>
<!-- Node0&#45;&gt;Node11 -->
<g id="edge12" class="edge"><title>Node0&#45;&gt;Node11</title>
<path fill="none" stroke="blueviolet" stroke-dasharray="5,2" d="M91.2075,-213.138C97.1866,-212.395 103.24,-211.663 109,-211 127.731,-208.843 148.323,-206.685 166.427,-204.858"/>
<text text-anchor="middle" x="120" y="-214" font-family="Helvetica,sans-Serif" font-size="10.00">blfwk</text>
</g>
<!-- Node0&#45;&gt;Node9 -->
<g id="edge10" class="edge"><title>Node0&#45;&gt;Node9</title>
<path fill="none" stroke="blueviolet" stroke-dasharray="5,2" d="M67.9799,-209.422C79.9393,-204.253 95.1647,-197.938 109,-193 137.172,-182.945 170.351,-173.769 192.319,-168.053"/>
<text text-anchor="middle" x="120" y="-196" font-family="Helvetica,sans-Serif" font-size="10.00">blfwk</text>
</g>
<!-- Node0&#45;&gt;Node10 -->
<g id="edge11" class="edge"><title>Node0&#45;&gt;Node10</title>
<path fill="none" stroke="blueviolet" stroke-dasharray="5,2" d="M56.6662,-209.279C74.1276,-193.116 111.565,-160.741 149,-143 156.921,-139.246 165.726,-136.101 174.291,-133.519"/>
<text text-anchor="middle" x="120" y="-169" font-family="Helvetica,sans-Serif" font-size="10.00">blfwk</text>
</g>
<!-- Node0&#45;&gt;Node3 -->
<g id="edge3" class="edge"><title>Node0&#45;&gt;Node3</title>
<path fill="none" stroke="blueviolet" stroke-dasharray="5,2" d="M51.8746,-209.202C65.0067,-186.343 101.178,-129.567 149,-105 156.364,-101.217 164.578,-98.1034 172.671,-95.5702"/>
<text text-anchor="middle" x="120" y="-134" font-family="Helvetica,sans-Serif" font-size="10.00">blfwk</text>
</g>
<!-- Node0&#45;&gt;Node2 -->
<g id="edge2" class="edge"><title>Node0&#45;&gt;Node2</title>
<path fill="none" stroke="blueviolet" stroke-dasharray="5,2" d="M49.5686,-209.165C58.9881,-180.874 90.4586,-99.2554 149,-67 164.568,-58.4225 184.333,-53.4488 198.445,-50.7583"/>
<text text-anchor="middle" x="120" y="-100" font-family="Helvetica,sans-Serif" font-size="10.00">blfwk</text>
</g>
<!-- Node0&#45;&gt;Node6 -->
<g id="edge6" class="edge"><title>Node0&#45;&gt;Node6</title>
<path fill="none" stroke="blueviolet" stroke-dasharray="5,2" d="M48.8146,-209.24C55.1953,-183.726 74.8635,-113.659 109,-65 122.736,-45.4201 128.052,-40.5421 149,-29 159.876,-23.0075 172.801,-18.774 184.416,-15.8491"/>
<text text-anchor="middle" x="120" y="-68" font-family="Helvetica,sans-Serif" font-size="10.00">blfwk</text>
</g>
<!-- Node0&#45;&gt;Node1 -->
<g id="edge7" class="edge"><title>Node0&#45;&gt;Node1</title>
<path fill="none" stroke="blueviolet" stroke-dasharray="5,2" d="M48.0306,-228.855C52.5191,-254.443 68.0124,-323.6 109,-361 129.5,-379.705 160.029,-388.727 183.321,-393.057"/>
<text text-anchor="middle" x="120" y="-377" font-family="Helvetica,sans-Serif" font-size="10.00">blfwk</text>
</g>
</g>
</svg>
