<?xml version="1.0" encoding="UTF-8" standalone="no"?>
<!DOCTYPE svg PUBLIC "-//W3C//DTD SVG 1.1//EN"
 "http://www.w3.org/Graphics/SVG/1.1/DTD/svg11.dtd">
<!-- Generated by graphviz version 2.38.0 (20140413.2041)
 -->
<!-- Title: UART Peripheral Pages: 1 -->
<svg width="292pt" height="415pt"
 viewBox="0.00 0.00 292.00 415.00" xmlns="http://www.w3.org/2000/svg" xmlns:xlink="http://www.w3.org/1999/xlink">
<g id="graph0" class="graph" transform="scale(1 1) rotate(0) translate(4 411)">
<title>UART Peripheral</title>
<polygon fill="white" stroke="none" points="-4,4 -4,-411 288,-411 288,4 -4,4"/>
<!-- Node0 -->
<g id="node1" class="node"><title>Node0</title>
<polygon fill="#bfbfbf" stroke="black" points="0,-209.5 0,-228.5 89,-228.5 89,-209.5 0,-209.5"/>
<text text-anchor="middle" x="44.5" y="-216.5" font-family="Helvetica,sans-Serif" font-size="10.00">UART Peripheral</text>
</g>
<!-- Node1 -->
<g id="node2" class="node"><title>Node1</title>
<g id="a_node2"><a xlink:href="group__host__peripherals.html" target="_top" xlink:title="Peripheral support. ">
<polygon fill="white" stroke="black" points="183,-387.5 183,-406.5 248,-406.5 248,-387.5 183,-387.5"/>
<text text-anchor="middle" x="215.5" y="-394.5" font-family="Helvetica,sans-Serif" font-size="10.00">Peripherals</text>
</a>
</g>
</g>
<!-- Node0&#45;&gt;Node1 -->
<g id="edge8" class="edge"><title>Node0&#45;&gt;Node1</title>
<path fill="none" stroke="blueviolet" stroke-dasharray="5,2" d="M46.9558,-228.852C51.2511,-254.433 66.2286,-323.576 107,-361 127.88,-380.165 159.283,-389.16 182.765,-393.363"/>
<text text-anchor="middle" x="118" y="-378" font-family="Helvetica,sans-Serif" font-size="10.00">blfwk</text>
</g>
<!-- Node5 -->
<g id="node3" class="node"><title>Node5</title>
<g id="a_node3"><a xlink:href="group__bus__pal__peripheral.html" target="_top" xlink:title="Bus Pal Peripheral. ">
<polygon fill="white" stroke="black" points="166.5,-342.5 166.5,-361.5 264.5,-361.5 264.5,-342.5 166.5,-342.5"/>
<text text-anchor="middle" x="215.5" y="-349.5" font-family="Helvetica,sans-Serif" font-size="10.00">Bus Pal Peripheral</text>
</a>
</g>
</g>
<!-- Node0&#45;&gt;Node5 -->
<g id="edge5" class="edge"><title>Node0&#45;&gt;Node5</title>
<path fill="none" stroke="blueviolet" stroke-dasharray="5,2" d="M50.8124,-228.764C63.7953,-251.551 99.5717,-308.182 147,-333 154.227,-336.782 162.295,-339.885 170.268,-342.407"/>
<text text-anchor="middle" x="118" y="-322" font-family="Helvetica,sans-Serif" font-size="10.00">blfwk</text>
</g>
<!-- Node4 -->
<g id="node4" class="node"><title>Node4</title>
<g id="a_node4"><a xlink:href="group__bus__pal.html" target="_top" xlink:title="Bus Pal transport support. ">
<polygon fill="white" stroke="black" points="168,-304.5 168,-323.5 263,-323.5 263,-304.5 168,-304.5"/>
<text text-anchor="middle" x="215.5" y="-311.5" font-family="Helvetica,sans-Serif" font-size="10.00">Bus Pal Transport</text>
</a>
</g>
</g>
<!-- Node0&#45;&gt;Node4 -->
<g id="edge4" class="edge"><title>Node0&#45;&gt;Node4</title>
<path fill="none" stroke="blueviolet" stroke-dasharray="5,2" d="M55.6012,-228.616C72.9425,-244.625 110.087,-276.778 147,-295 154.642,-298.772 163.151,-301.902 171.482,-304.459"/>
<text text-anchor="middle" x="118" y="-288" font-family="Helvetica,sans-Serif" font-size="10.00">blfwk</text>
</g>
<!-- Node11 -->
<g id="node5" class="node"><title>Node11</title>
<g id="a_node5"><a xlink:href="group__host__usb__hid__peripheral.html" target="_top" xlink:title="USB&#45;HID Peripheral. ">
<polygon fill="white" stroke="black" points="164.5,-266.5 164.5,-285.5 266.5,-285.5 266.5,-266.5 164.5,-266.5"/>
<text text-anchor="middle" x="215.5" y="-273.5" font-family="Helvetica,sans-Serif" font-size="10.00">USB&#45;HID Peripheral</text>
</a>
</g>
</g>
<!-- Node0&#45;&gt;Node11 -->
<g id="edge12" class="edge"><title>Node0&#45;&gt;Node11</title>
<path fill="none" stroke="blueviolet" stroke-dasharray="5,2" d="M69.4982,-228.634C89.9393,-236.683 120.176,-248.221 147,-257 157.182,-260.332 168.34,-263.619 178.599,-266.497"/>
<text text-anchor="middle" x="118" y="-253" font-family="Helvetica,sans-Serif" font-size="10.00">blfwk</text>
</g>
<!-- Node9 -->
<g id="node6" class="node"><title>Node9</title>
<g id="a_node6"><a xlink:href="group__host__updater.html" target="_top" xlink:title="Updater application support. ">
<polygon fill="white" stroke="black" points="190.5,-228.5 190.5,-247.5 240.5,-247.5 240.5,-228.5 190.5,-228.5"/>
<text text-anchor="middle" x="215.5" y="-235.5" font-family="Helvetica,sans-Serif" font-size="10.00">Updater</text>
</a>
</g>
</g>
<!-- Node0&#45;&gt;Node9 -->
<g id="edge10" class="edge"><title>Node0&#45;&gt;Node9</title>
<path fill="none" stroke="blueviolet" stroke-dasharray="5,2" d="M89.0217,-223.893C121.296,-227.521 164.093,-232.333 190.441,-235.295"/>
<text text-anchor="middle" x="118" y="-230" font-family="Helvetica,sans-Serif" font-size="10.00">blfwk</text>
</g>
<!-- Node10 -->
<g id="node7" class="node"><title>Node10</title>
<g id="a_node7"><a xlink:href="group__usb__hid__packetizer.html" target="_top" xlink:title="USB&#45;HID Packet creation. ">
<polygon fill="white" stroke="black" points="163,-190.5 163,-209.5 268,-209.5 268,-190.5 163,-190.5"/>
<text text-anchor="middle" x="215.5" y="-197.5" font-family="Helvetica,sans-Serif" font-size="10.00">USB&#45;HID Packetizer</text>
</a>
</g>
</g>
<!-- Node0&#45;&gt;Node10 -->
<g id="edge11" class="edge"><title>Node0&#45;&gt;Node10</title>
<path fill="none" stroke="blueviolet" stroke-dasharray="5,2" d="M89.1576,-213.171C95.1494,-212.415 101.225,-211.671 107,-211 125.169,-208.889 145.092,-206.79 162.797,-205.001"/>
<text text-anchor="middle" x="118" y="-214" font-family="Helvetica,sans-Serif" font-size="10.00">blfwk</text>
</g>
<!-- Node3 -->
<g id="node8" class="node"><title>Node3</title>
<g id="a_node8"><a xlink:href="group__blfwk.html" target="_top" xlink:title="Host Bootloader components. ">
<polygon fill="white" stroke="black" points="147,-152.5 147,-171.5 284,-171.5 284,-152.5 147,-152.5"/>
<text text-anchor="middle" x="215.5" y="-159.5" font-family="Helvetica,sans-Serif" font-size="10.00">Host Bootloader Framework</text>
</a>
</g>
</g>
<!-- Node0&#45;&gt;Node3 -->
<g id="edge3" class="edge"><title>Node0&#45;&gt;Node3</title>
<path fill="none" stroke="blueviolet" stroke-dasharray="5,2" d="M66.6214,-209.4C78.385,-204.224 93.3673,-197.91 107,-193 129.843,-184.772 156.008,-177.189 176.805,-171.581"/>
<text text-anchor="middle" x="118" y="-196" font-family="Helvetica,sans-Serif" font-size="10.00">blfwk</text>
</g>
<!-- Node2 -->
<g id="node9" class="node"><title>Node2</title>
<g id="a_node9"><a xlink:href="group__host__error.html" target="_top" xlink:title="Errors. ">
<polygon fill="white" stroke="black" points="196.5,-114.5 196.5,-133.5 234.5,-133.5 234.5,-114.5 196.5,-114.5"/>
<text text-anchor="middle" x="215.5" y="-121.5" font-family="Helvetica,sans-Serif" font-size="10.00">Error</text>
</a>
</g>
</g>
<!-- Node0&#45;&gt;Node2 -->
<g id="edge2" class="edge"><title>Node0&#45;&gt;Node2</title>
<path fill="none" stroke="blueviolet" stroke-dasharray="5,2" d="M55.5387,-209.255C72.788,-193.056 109.8,-160.629 147,-143 162.952,-135.44 182.488,-130.349 196.431,-127.355"/>
<text text-anchor="middle" x="118" y="-169" font-family="Helvetica,sans-Serif" font-size="10.00">blfwk</text>
</g>
<!-- Node6 -->
<g id="node10" class="node"><title>Node6</title>
<g id="a_node10"><a xlink:href="group__host__commands.html" target="_top" xlink:title="Command support. ">
<polygon fill="white" stroke="black" points="182.5,-76.5 182.5,-95.5 248.5,-95.5 248.5,-76.5 182.5,-76.5"/>
<text text-anchor="middle" x="215.5" y="-83.5" font-family="Helvetica,sans-Serif" font-size="10.00">Commands</text>
</a>
</g>
</g>
<!-- Node0&#45;&gt;Node6 -->
<g id="edge6" class="edge"><title>Node0&#45;&gt;Node6</title>
<path fill="none" stroke="blueviolet" stroke-dasharray="5,2" d="M50.7877,-209.188C63.717,-186.298 99.3862,-129.46 147,-105 157.937,-99.3814 170.751,-95.2388 182.258,-92.2821"/>
<text text-anchor="middle" x="118" y="-137" font-family="Helvetica,sans-Serif" font-size="10.00">blfwk</text>
</g>
<!-- Node7 -->
<g id="node11" class="node"><title>Node7</title>
<g id="a_node11"><a xlink:href="group__host__packetizers.html" target="_top" xlink:title="Packet creation. ">
<polygon fill="white" stroke="black" points="181.5,-38.5 181.5,-57.5 249.5,-57.5 249.5,-38.5 181.5,-38.5"/>
<text text-anchor="middle" x="215.5" y="-45.5" font-family="Helvetica,sans-Serif" font-size="10.00">Packetizers</text>
</a>
</g>
</g>
<!-- Node0&#45;&gt;Node7 -->
<g id="edge7" class="edge"><title>Node0&#45;&gt;Node7</title>
<path fill="none" stroke="blueviolet" stroke-dasharray="5,2" d="M48.5006,-209.155C57.725,-180.839 88.6365,-99.1574 147,-67 157.556,-61.1837 170.042,-57.0245 181.387,-54.1106"/>
<text text-anchor="middle" x="118" y="-100" font-family="Helvetica,sans-Serif" font-size="10.00">blfwk</text>
</g>
<!-- Node8 -->
<g id="node12" class="node"><title>Node8</title>
<g id="a_node12"><a xlink:href="group__serial__packetizer.html" target="_top" xlink:title="Serial Packet creation. ">
<polygon fill="white" stroke="black" points="170,-0.5 170,-19.5 261,-19.5 261,-0.5 170,-0.5"/>
<text text-anchor="middle" x="215.5" y="-7.5" font-family="Helvetica,sans-Serif" font-size="10.00">Serial Packetizer</text>
</a>
</g>
</g>
<!-- Node0&#45;&gt;Node8 -->
<g id="edge9" class="edge"><title>Node0&#45;&gt;Node8</title>
<path fill="none" stroke="blueviolet" stroke-dasharray="5,2" d="M47.7394,-209.238C53.9258,-183.72 73.076,-113.645 107,-65 120.681,-45.3818 126.052,-40.5421 147,-29 154.037,-25.1225 161.933,-21.9815 169.776,-19.4549"/>
<text text-anchor="middle" x="118" y="-68" font-family="Helvetica,sans-Serif" font-size="10.00">blfwk</text>
</g>
<!-- Node1&#45;&gt;Node0 -->
<g id="edge1" class="edge"><title>Node1&#45;&gt;Node0</title>
<path fill="none" stroke="black" d="M173.203,-383.947C164.254,-380.346 155.063,-376.022 147,-371 90.4384,-335.77 58.3725,-256.056 48.6751,-228.547"/>
<polygon fill="black" stroke="black" points="172.162,-387.295 182.753,-387.568 174.644,-380.75 172.162,-387.295"/>
</g>
</g>
</svg>
