<?xml version="1.0" encoding="UTF-8" standalone="no"?>
<!DOCTYPE svg PUBLIC "-//W3C//DTD SVG 1.1//EN"
 "http://www.w3.org/Graphics/SVG/1.1/DTD/svg11.dtd">
<!-- Generated by graphviz version 2.38.0 (20140413.2041)
 -->
<!-- Title: USB&#45;HID Packetizer Pages: 1 -->
<svg width="308pt" height="415pt"
 viewBox="0.00 0.00 308.00 415.00" xmlns="http://www.w3.org/2000/svg" xmlns:xlink="http://www.w3.org/1999/xlink">
<g id="graph0" class="graph" transform="scale(1 1) rotate(0) translate(4 411)">
<title>USB&#45;HID Packetizer</title>
<polygon fill="white" stroke="none" points="-4,4 -4,-411 304,-411 304,4 -4,4"/>
<!-- Node9 -->
<g id="node1" class="node"><title>Node9</title>
<g id="a_node1"><a xlink:href="group__uart__peripheral.html" target="_top" xlink:title="UART Peripheral. ">
<polygon fill="white" stroke="black" points="187,-387.5 187,-406.5 276,-406.5 276,-387.5 187,-387.5"/>
<text text-anchor="middle" x="231.5" y="-394.5" font-family="Helvetica,sans-Serif" font-size="10.00">UART Peripheral</text>
</a>
</g>
</g>
<!-- Node7 -->
<g id="node2" class="node"><title>Node7</title>
<g id="a_node2"><a xlink:href="group__host__peripherals.html" target="_top" xlink:title="Peripheral support. ">
<polygon fill="white" stroke="black" points="199,-349.5 199,-368.5 264,-368.5 264,-349.5 199,-349.5"/>
<text text-anchor="middle" x="231.5" y="-356.5" font-family="Helvetica,sans-Serif" font-size="10.00">Peripherals</text>
</a>
</g>
</g>
<!-- Node5 -->
<g id="node3" class="node"><title>Node5</title>
<g id="a_node3"><a xlink:href="group__bus__pal__peripheral.html" target="_top" xlink:title="Bus Pal Peripheral. ">
<polygon fill="white" stroke="black" points="182.5,-311.5 182.5,-330.5 280.5,-330.5 280.5,-311.5 182.5,-311.5"/>
<text text-anchor="middle" x="231.5" y="-318.5" font-family="Helvetica,sans-Serif" font-size="10.00">Bus Pal Peripheral</text>
</a>
</g>
</g>
<!-- Node4 -->
<g id="node4" class="node"><title>Node4</title>
<g id="a_node4"><a xlink:href="group__bus__pal.html" target="_top" xlink:title="Bus Pal transport support. ">
<polygon fill="white" stroke="black" points="184,-273.5 184,-292.5 279,-292.5 279,-273.5 184,-273.5"/>
<text text-anchor="middle" x="231.5" y="-280.5" font-family="Helvetica,sans-Serif" font-size="10.00">Bus Pal Transport</text>
</a>
</g>
</g>
<!-- Node11 -->
<g id="node5" class="node"><title>Node11</title>
<g id="a_node5"><a xlink:href="group__host__usb__hid__peripheral.html" target="_top" xlink:title="USB&#45;HID Peripheral. ">
<polygon fill="white" stroke="black" points="180.5,-235.5 180.5,-254.5 282.5,-254.5 282.5,-235.5 180.5,-235.5"/>
<text text-anchor="middle" x="231.5" y="-242.5" font-family="Helvetica,sans-Serif" font-size="10.00">USB&#45;HID Peripheral</text>
</a>
</g>
</g>
<!-- Node10 -->
<g id="node6" class="node"><title>Node10</title>
<g id="a_node6"><a xlink:href="group__host__updater.html" target="_top" xlink:title="Updater application support. ">
<polygon fill="white" stroke="black" points="206.5,-197.5 206.5,-216.5 256.5,-216.5 256.5,-197.5 206.5,-197.5"/>
<text text-anchor="middle" x="231.5" y="-204.5" font-family="Helvetica,sans-Serif" font-size="10.00">Updater</text>
</a>
</g>
</g>
<!-- Node0 -->
<g id="node7" class="node"><title>Node0</title>
<polygon fill="#bfbfbf" stroke="black" points="0,-179.5 0,-198.5 105,-198.5 105,-179.5 0,-179.5"/>
<text text-anchor="middle" x="52.5" y="-186.5" font-family="Helvetica,sans-Serif" font-size="10.00">USB&#45;HID Packetizer</text>
</g>
<!-- Node0&#45;&gt;Node9 -->
<g id="edge10" class="edge"><title>Node0&#45;&gt;Node9</title>
<path fill="none" stroke="blueviolet" stroke-dasharray="5,2" d="M56.4067,-198.589C64.3054,-223.663 87.9489,-292.581 123,-341 137.201,-360.617 141.87,-366.169 163,-378 170.329,-382.104 178.612,-385.376 186.8,-387.966"/>
<text text-anchor="middle" x="134" y="-369" font-family="Helvetica,sans-Serif" font-size="10.00">blfwk</text>
</g>
<!-- Node0&#45;&gt;Node7 -->
<g id="edge8" class="edge"><title>Node0&#45;&gt;Node7</title>
<path fill="none" stroke="blueviolet" stroke-dasharray="5,2" d="M57.0446,-198.736C67.8294,-226.746 103.211,-307.6 163,-340 174.025,-345.974 187.105,-350.217 198.802,-353.154"/>
<text text-anchor="middle" x="134" y="-329" font-family="Helvetica,sans-Serif" font-size="10.00">blfwk</text>
</g>
<!-- Node0&#45;&gt;Node5 -->
<g id="edge5" class="edge"><title>Node0&#45;&gt;Node5</title>
<path fill="none" stroke="blueviolet" stroke-dasharray="5,2" d="M59.5346,-198.547C74.1965,-220.851 114.107,-276.416 163,-302 170.227,-305.782 178.295,-308.885 186.268,-311.407"/>
<text text-anchor="middle" x="134" y="-293" font-family="Helvetica,sans-Serif" font-size="10.00">blfwk</text>
</g>
<!-- Node0&#45;&gt;Node4 -->
<g id="edge4" class="edge"><title>Node0&#45;&gt;Node4</title>
<path fill="none" stroke="blueviolet" stroke-dasharray="5,2" d="M64.876,-198.684C83.9647,-214.479 124.178,-245.843 163,-264 170.94,-267.713 179.753,-270.841 188.32,-273.418"/>
<text text-anchor="middle" x="134" y="-257" font-family="Helvetica,sans-Serif" font-size="10.00">blfwk</text>
</g>
<!-- Node0&#45;&gt;Node11 -->
<g id="edge12" class="edge"><title>Node0&#45;&gt;Node11</title>
<path fill="none" stroke="blueviolet" stroke-dasharray="5,2" d="M80.3473,-198.6C102.422,-206.365 134.579,-217.385 163,-226 173.486,-229.178 184.941,-232.47 195.389,-235.403"/>
<text text-anchor="middle" x="134" y="-223" font-family="Helvetica,sans-Serif" font-size="10.00">blfwk</text>
</g>
<!-- Node0&#45;&gt;Node10 -->
<g id="edge11" class="edge"><title>Node0&#45;&gt;Node10</title>
<path fill="none" stroke="blueviolet" stroke-dasharray="5,2" d="M105.172,-194.255C138.436,-197.638 180.15,-201.88 206.067,-204.515"/>
<text text-anchor="middle" x="134" y="-201" font-family="Helvetica,sans-Serif" font-size="10.00">blfwk</text>
</g>
<!-- Node3 -->
<g id="node8" class="node"><title>Node3</title>
<g id="a_node8"><a xlink:href="group__blfwk.html" target="_top" xlink:title="Host Bootloader components. ">
<polygon fill="white" stroke="black" points="163,-159.5 163,-178.5 300,-178.5 300,-159.5 163,-159.5"/>
<text text-anchor="middle" x="231.5" y="-166.5" font-family="Helvetica,sans-Serif" font-size="10.00">Host Bootloader Framework</text>
</a>
</g>
</g>
<!-- Node0&#45;&gt;Node3 -->
<g id="edge3" class="edge"><title>Node0&#45;&gt;Node3</title>
<path fill="none" stroke="blueviolet" stroke-dasharray="5,2" d="M105.114,-183.039C111.143,-182.348 117.207,-181.657 123,-181 135.875,-179.54 149.619,-177.996 162.829,-176.518"/>
<text text-anchor="middle" x="134" y="-184" font-family="Helvetica,sans-Serif" font-size="10.00">blfwk</text>
</g>
<!-- Node2 -->
<g id="node9" class="node"><title>Node2</title>
<g id="a_node9"><a xlink:href="group__host__error.html" target="_top" xlink:title="Errors. ">
<polygon fill="white" stroke="black" points="212.5,-121.5 212.5,-140.5 250.5,-140.5 250.5,-121.5 212.5,-121.5"/>
<text text-anchor="middle" x="231.5" y="-128.5" font-family="Helvetica,sans-Serif" font-size="10.00">Error</text>
</a>
</g>
</g>
<!-- Node0&#45;&gt;Node2 -->
<g id="edge2" class="edge"><title>Node0&#45;&gt;Node2</title>
<path fill="none" stroke="blueviolet" stroke-dasharray="5,2" d="M78.1722,-179.47C91.4125,-174.432 108.041,-168.226 123,-163 140.647,-156.835 145.111,-155.422 163,-150 179.661,-144.95 198.77,-139.613 212.394,-135.886"/>
<text text-anchor="middle" x="134" y="-166" font-family="Helvetica,sans-Serif" font-size="10.00">blfwk</text>
</g>
<!-- Node6 -->
<g id="node10" class="node"><title>Node6</title>
<g id="a_node10"><a xlink:href="group__host__commands.html" target="_top" xlink:title="Command support. ">
<polygon fill="white" stroke="black" points="198.5,-83.5 198.5,-102.5 264.5,-102.5 264.5,-83.5 198.5,-83.5"/>
<text text-anchor="middle" x="231.5" y="-90.5" font-family="Helvetica,sans-Serif" font-size="10.00">Commands</text>
</a>
</g>
</g>
<!-- Node0&#45;&gt;Node6 -->
<g id="edge6" class="edge"><title>Node0&#45;&gt;Node6</title>
<path fill="none" stroke="blueviolet" stroke-dasharray="5,2" d="M64.5174,-179.29C83.4024,-163.119 123.728,-130.611 163,-112 174.111,-106.734 186.962,-102.666 198.45,-99.6702"/>
<text text-anchor="middle" x="134" y="-136" font-family="Helvetica,sans-Serif" font-size="10.00">blfwk</text>
</g>
<!-- Node1 -->
<g id="node11" class="node"><title>Node1</title>
<g id="a_node11"><a xlink:href="group__host__packetizers.html" target="_top" xlink:title="Packet creation. ">
<polygon fill="white" stroke="black" points="197.5,-42.5 197.5,-61.5 265.5,-61.5 265.5,-42.5 197.5,-42.5"/>
<text text-anchor="middle" x="231.5" y="-49.5" font-family="Helvetica,sans-Serif" font-size="10.00">Packetizers</text>
</a>
</g>
</g>
<!-- Node0&#45;&gt;Node1 -->
<g id="edge7" class="edge"><title>Node0&#45;&gt;Node1</title>
<path fill="none" stroke="blueviolet" stroke-dasharray="5,2" d="M59.5463,-179.388C74.2333,-156.915 114.194,-100.817 163,-74 173.586,-68.1832 185.959,-63.5959 197.199,-60.1492"/>
<text text-anchor="middle" x="134" y="-104" font-family="Helvetica,sans-Serif" font-size="10.00">blfwk</text>
</g>
<!-- Node8 -->
<g id="node12" class="node"><title>Node8</title>
<g id="a_node12"><a xlink:href="group__serial__packetizer.html" target="_top" xlink:title="Serial Packet creation. ">
<polygon fill="white" stroke="black" points="186,-0.5 186,-19.5 277,-19.5 277,-0.5 186,-0.5"/>
<text text-anchor="middle" x="231.5" y="-7.5" font-family="Helvetica,sans-Serif" font-size="10.00">Serial Packetizer</text>
</a>
</g>
</g>
<!-- Node0&#45;&gt;Node8 -->
<g id="edge9" class="edge"><title>Node0&#45;&gt;Node8</title>
<path fill="none" stroke="blueviolet" stroke-dasharray="5,2" d="M54.4258,-179.34C57.7268,-150.683 71.6314,-65.6829 123,-26 140.62,-12.3884 164.836,-7.92556 185.824,-7.06946"/>
<text text-anchor="middle" x="134" y="-29" font-family="Helvetica,sans-Serif" font-size="10.00">blfwk</text>
</g>
<!-- Node1&#45;&gt;Node0 -->
<g id="edge1" class="edge"><title>Node1&#45;&gt;Node0</title>
<path fill="none" stroke="black" d="M187.563,-40.8948C166.64,-37.9302 141.967,-38.2774 123,-50 75.2622,-79.5036 59.2175,-152.826 54.879,-179.284"/>
<polygon fill="black" stroke="black" points="187.047,-44.3572 197.492,-42.5808 188.219,-37.456 187.047,-44.3572"/>
</g>
</g>
</svg>
