<?xml version="1.0" encoding="UTF-8" standalone="no"?>
<!DOCTYPE svg PUBLIC "-//W3C//DTD SVG 1.1//EN"
 "http://www.w3.org/Graphics/SVG/1.1/DTD/svg11.dtd">
<!-- Generated by graphviz version 2.38.0 (20140413.2041)
 -->
<!-- Title: Peripherals Pages: 1 -->
<svg width="268pt" height="465pt"
 viewBox="0.00 0.00 268.00 464.88" xmlns="http://www.w3.org/2000/svg" xmlns:xlink="http://www.w3.org/1999/xlink">
<g id="graph0" class="graph" transform="scale(1 1) rotate(0) translate(4 460.876)">
<title>Peripherals</title>
<polygon fill="white" stroke="none" points="-4,4 -4,-460.876 264,-460.876 264,4 -4,4"/>
<!-- Node3 -->
<g id="node1" class="node"><title>Node3</title>
<g id="a_node1"><a xlink:href="group__uart__peripheral.html" target="_top" xlink:title="UART Peripheral. ">
<polygon fill="white" stroke="black" points="147,-429.5 147,-448.5 236,-448.5 236,-429.5 147,-429.5"/>
<text text-anchor="middle" x="191.5" y="-436.5" font-family="Helvetica,sans-Serif" font-size="10.00">UART Peripheral</text>
</a>
</g>
</g>
<!-- Node0 -->
<g id="node2" class="node"><title>Node0</title>
<polygon fill="#bfbfbf" stroke="black" points="0,-237.5 0,-256.5 65,-256.5 65,-237.5 0,-237.5"/>
<text text-anchor="middle" x="32.5" y="-244.5" font-family="Helvetica,sans-Serif" font-size="10.00">Peripherals</text>
</g>
<!-- Node0&#45;&gt;Node3 -->
<g id="edge3" class="edge"><title>Node0&#45;&gt;Node3</title>
<path fill="none" stroke="black" d="M35.4209,-266.847C40.2959,-312.55 54.8076,-422.988 83,-445 106.721,-463.521 143.124,-456.373 166.875,-448.517"/>
<polygon fill="black" stroke="black" points="38.8842,-266.309 34.3867,-256.716 31.9204,-267.02 38.8842,-266.309"/>
</g>
<!-- Node0&#45;&gt;Node3 -->
<g id="edge12" class="edge"><title>Node0&#45;&gt;Node3</title>
<path fill="none" stroke="blueviolet" stroke-dasharray="5,2" d="M33.6029,-256.72C34.4299,-284.07 40.5766,-362.461 83,-405 99.8633,-421.909 125.068,-430.424 146.834,-434.704"/>
<text text-anchor="middle" x="94" y="-422" font-family="Helvetica,sans-Serif" font-size="10.00">blfwk</text>
</g>
<!-- Node2 -->
<g id="node3" class="node"><title>Node2</title>
<g id="a_node3"><a xlink:href="group__bus__pal__peripheral.html" target="_top" xlink:title="Bus Pal Peripheral. ">
<polygon fill="white" stroke="black" points="142.5,-383.5 142.5,-402.5 240.5,-402.5 240.5,-383.5 142.5,-383.5"/>
<text text-anchor="middle" x="191.5" y="-390.5" font-family="Helvetica,sans-Serif" font-size="10.00">Bus Pal Peripheral</text>
</a>
</g>
</g>
<!-- Node0&#45;&gt;Node2 -->
<g id="edge2" class="edge"><title>Node0&#45;&gt;Node2</title>
<path fill="none" stroke="black" d="M34.106,-266.877C36.2357,-297.981 45.3141,-357.538 83,-386 99.6408,-398.568 122.179,-401.516 142.32,-400.84"/>
<polygon fill="black" stroke="black" points="37.5978,-266.625 33.5956,-256.815 30.6068,-266.98 37.5978,-266.625"/>
</g>
<!-- Node0&#45;&gt;Node2 -->
<g id="edge8" class="edge"><title>Node0&#45;&gt;Node2</title>
<path fill="none" stroke="blueviolet" stroke-dasharray="5,2" d="M37.0442,-256.77C43.7616,-274.214 59.7822,-311.122 83,-335 105.323,-357.958 138.713,-374.012 162.348,-383.319"/>
<text text-anchor="middle" x="94" y="-355" font-family="Helvetica,sans-Serif" font-size="10.00">blfwk</text>
</g>
<!-- Node6 -->
<g id="node4" class="node"><title>Node6</title>
<g id="a_node4"><a xlink:href="group__bus__pal.html" target="_top" xlink:title="Bus Pal transport support. ">
<polygon fill="white" stroke="black" points="144,-330.5 144,-349.5 239,-349.5 239,-330.5 144,-330.5"/>
<text text-anchor="middle" x="191.5" y="-337.5" font-family="Helvetica,sans-Serif" font-size="10.00">Bus Pal Transport</text>
</a>
</g>
</g>
<!-- Node0&#45;&gt;Node6 -->
<g id="edge7" class="edge"><title>Node0&#45;&gt;Node6</title>
<path fill="none" stroke="blueviolet" stroke-dasharray="5,2" d="M38.5466,-256.508C46.287,-270.172 62.3836,-295.229 83,-309 101.09,-321.083 123.928,-328.527 143.896,-333.079"/>
<text text-anchor="middle" x="94" y="-323" font-family="Helvetica,sans-Serif" font-size="10.00">blfwk</text>
</g>
<!-- Node4 -->
<g id="node5" class="node"><title>Node4</title>
<g id="a_node5"><a xlink:href="group__host__usb__hid__peripheral.html" target="_top" xlink:title="USB&#45;HID Peripheral. ">
<polygon fill="white" stroke="black" points="140.5,-284.5 140.5,-303.5 242.5,-303.5 242.5,-284.5 140.5,-284.5"/>
<text text-anchor="middle" x="191.5" y="-291.5" font-family="Helvetica,sans-Serif" font-size="10.00">USB&#45;HID Peripheral</text>
</a>
</g>
</g>
<!-- Node0&#45;&gt;Node4 -->
<g id="edge4" class="edge"><title>Node0&#45;&gt;Node4</title>
<path fill="none" stroke="black" d="M46.5322,-264.388C55.4907,-274.826 68.3801,-287.177 83,-293 100.859,-300.113 121.75,-301.664 140.341,-300.978"/>
<polygon fill="black" stroke="black" points="49.2385,-262.168 40.2326,-256.587 43.7927,-266.566 49.2385,-262.168"/>
</g>
<!-- Node0&#45;&gt;Node4 -->
<g id="edge15" class="edge"><title>Node0&#45;&gt;Node4</title>
<path fill="none" stroke="blueviolet" stroke-dasharray="5,2" d="M65.2713,-256.511C92.4205,-264.639 131.294,-276.276 158.507,-284.422"/>
<text text-anchor="middle" x="94" y="-270" font-family="Helvetica,sans-Serif" font-size="10.00">blfwk</text>
</g>
<!-- Node10 -->
<g id="node6" class="node"><title>Node10</title>
<g id="a_node6"><a xlink:href="group__host__updater.html" target="_top" xlink:title="Updater application support. ">
<polygon fill="white" stroke="black" points="166.5,-239.5 166.5,-258.5 216.5,-258.5 216.5,-239.5 166.5,-239.5"/>
<text text-anchor="middle" x="191.5" y="-246.5" font-family="Helvetica,sans-Serif" font-size="10.00">Updater</text>
</a>
</g>
</g>
<!-- Node0&#45;&gt;Node10 -->
<g id="edge13" class="edge"><title>Node0&#45;&gt;Node10</title>
<path fill="none" stroke="blueviolet" stroke-dasharray="5,2" d="M65.2713,-247.405C95.1981,-247.786 139.371,-248.349 166.468,-248.694"/>
<text text-anchor="middle" x="94" y="-250" font-family="Helvetica,sans-Serif" font-size="10.00">blfwk</text>
</g>
<!-- Node11 -->
<g id="node7" class="node"><title>Node11</title>
<g id="a_node7"><a xlink:href="group__usb__hid__packetizer.html" target="_top" xlink:title="USB&#45;HID Packet creation. ">
<polygon fill="white" stroke="black" points="139,-201.5 139,-220.5 244,-220.5 244,-201.5 139,-201.5"/>
<text text-anchor="middle" x="191.5" y="-208.5" font-family="Helvetica,sans-Serif" font-size="10.00">USB&#45;HID Packetizer</text>
</a>
</g>
</g>
<!-- Node0&#45;&gt;Node11 -->
<g id="edge14" class="edge"><title>Node0&#45;&gt;Node11</title>
<path fill="none" stroke="blueviolet" stroke-dasharray="5,2" d="M63.2046,-237.465C69.6945,-235.532 76.5512,-233.603 83,-232 101.086,-227.506 121.078,-223.375 138.867,-219.988"/>
<text text-anchor="middle" x="94" y="-235" font-family="Helvetica,sans-Serif" font-size="10.00">blfwk</text>
</g>
<!-- Node1 -->
<g id="node8" class="node"><title>Node1</title>
<g id="a_node8"><a xlink:href="group__blfwk.html" target="_top" xlink:title="Host Bootloader components. ">
<polygon fill="white" stroke="black" points="123,-159.5 123,-178.5 260,-178.5 260,-159.5 123,-159.5"/>
<text text-anchor="middle" x="191.5" y="-166.5" font-family="Helvetica,sans-Serif" font-size="10.00">Host Bootloader Framework</text>
</a>
</g>
</g>
<!-- Node0&#45;&gt;Node1 -->
<g id="edge6" class="edge"><title>Node0&#45;&gt;Node1</title>
<path fill="none" stroke="blueviolet" stroke-dasharray="5,2" d="M46.167,-237.235C55.9604,-229.887 69.9971,-219.786 83,-212 100.053,-201.789 104.662,-199.667 123,-192 134.765,-187.081 147.99,-182.397 159.595,-178.555"/>
<text text-anchor="middle" x="94" y="-215" font-family="Helvetica,sans-Serif" font-size="10.00">blfwk</text>
</g>
<!-- Node5 -->
<g id="node9" class="node"><title>Node5</title>
<g id="a_node9"><a xlink:href="group__host__error.html" target="_top" xlink:title="Errors. ">
<polygon fill="white" stroke="black" points="172.5,-114.5 172.5,-133.5 210.5,-133.5 210.5,-114.5 172.5,-114.5"/>
<text text-anchor="middle" x="191.5" y="-121.5" font-family="Helvetica,sans-Serif" font-size="10.00">Error</text>
</a>
</g>
</g>
<!-- Node0&#45;&gt;Node5 -->
<g id="edge5" class="edge"><title>Node0&#45;&gt;Node5</title>
<path fill="none" stroke="blueviolet" stroke-dasharray="5,2" d="M34.6772,-237.403C37.9144,-215.528 49.0908,-161.94 83,-137 109.199,-117.731 149.082,-118.568 172.189,-121.137"/>
<text text-anchor="middle" x="94" y="-140" font-family="Helvetica,sans-Serif" font-size="10.00">blfwk</text>
</g>
<!-- Node7 -->
<g id="node10" class="node"><title>Node7</title>
<g id="a_node10"><a xlink:href="group__host__commands.html" target="_top" xlink:title="Command support. ">
<polygon fill="white" stroke="black" points="158.5,-76.5 158.5,-95.5 224.5,-95.5 224.5,-76.5 158.5,-76.5"/>
<text text-anchor="middle" x="191.5" y="-83.5" font-family="Helvetica,sans-Serif" font-size="10.00">Commands</text>
</a>
</g>
</g>
<!-- Node0&#45;&gt;Node7 -->
<g id="edge9" class="edge"><title>Node0&#45;&gt;Node7</title>
<path fill="none" stroke="blueviolet" stroke-dasharray="5,2" d="M33.9939,-237.391C35.8153,-212.473 44.2612,-145.329 83,-111 103.507,-92.8274 134.647,-87.1563 158.142,-85.6906"/>
<text text-anchor="middle" x="94" y="-114" font-family="Helvetica,sans-Serif" font-size="10.00">blfwk</text>
</g>
<!-- Node8 -->
<g id="node11" class="node"><title>Node8</title>
<g id="a_node11"><a xlink:href="group__host__packetizers.html" target="_top" xlink:title="Packet creation. ">
<polygon fill="white" stroke="black" points="157.5,-38.5 157.5,-57.5 225.5,-57.5 225.5,-38.5 157.5,-38.5"/>
<text text-anchor="middle" x="191.5" y="-45.5" font-family="Helvetica,sans-Serif" font-size="10.00">Packetizers</text>
</a>
</g>
</g>
<!-- Node0&#45;&gt;Node8 -->
<g id="edge10" class="edge"><title>Node0&#45;&gt;Node8</title>
<path fill="none" stroke="blueviolet" stroke-dasharray="5,2" d="M33.6335,-237.478C34.528,-209.907 40.8079,-129.05 83,-83 102.027,-62.2333 133.501,-53.7505 157.489,-50.3055"/>
<text text-anchor="middle" x="94" y="-86" font-family="Helvetica,sans-Serif" font-size="10.00">blfwk</text>
</g>
<!-- Node9 -->
<g id="node12" class="node"><title>Node9</title>
<g id="a_node12"><a xlink:href="group__serial__packetizer.html" target="_top" xlink:title="Serial Packet creation. ">
<polygon fill="white" stroke="black" points="146,-0.5 146,-19.5 237,-19.5 237,-0.5 146,-0.5"/>
<text text-anchor="middle" x="191.5" y="-7.5" font-family="Helvetica,sans-Serif" font-size="10.00">Serial Packetizer</text>
</a>
</g>
</g>
<!-- Node0&#45;&gt;Node9 -->
<g id="edge11" class="edge"><title>Node0&#45;&gt;Node9</title>
<path fill="none" stroke="blueviolet" stroke-dasharray="5,2" d="M33.3529,-237.276C33.3815,-206.561 37.3045,-110.163 83,-51 98.0181,-31.5558 123.421,-21.3314 145.763,-15.9559"/>
<text text-anchor="middle" x="94" y="-54" font-family="Helvetica,sans-Serif" font-size="10.00">blfwk</text>
</g>
<!-- Node1&#45;&gt;Node0 -->
<g id="edge1" class="edge"><title>Node1&#45;&gt;Node0</title>
<path fill="none" stroke="black" d="M156.369,-156.5C134.044,-150.543 105.042,-147.181 83,-160 53.7068,-177.036 40.3193,-218.597 35.6025,-237.437"/>
<polygon fill="black" stroke="black" points="155.526,-159.9 166.108,-159.371 157.506,-153.186 155.526,-159.9"/>
</g>
</g>
</svg>
