<?xml version="1.0" encoding="UTF-8" standalone="no"?>
<!DOCTYPE svg PUBLIC "-//W3C//DTD SVG 1.1//EN"
 "http://www.w3.org/Graphics/SVG/1.1/DTD/svg11.dtd">
<!-- Generated by graphviz version 2.38.0 (20140413.2041)
 -->
<!-- Title: Packetizers Pages: 1 -->
<svg width="271pt" height="431pt"
 viewBox="0.00 0.00 271.00 431.00" xmlns="http://www.w3.org/2000/svg" xmlns:xlink="http://www.w3.org/1999/xlink">
<g id="graph0" class="graph" transform="scale(1 1) rotate(0) translate(4 427)">
<title>Packetizers</title>
<polygon fill="white" stroke="none" points="-4,4 -4,-427 267,-427 267,4 -4,4"/>
<!-- Node9 -->
<g id="node1" class="node"><title>Node9</title>
<g id="a_node1"><a xlink:href="group__uart__peripheral.html" target="_top" xlink:title="UART Peripheral. ">
<polygon fill="white" stroke="black" points="150,-357.5 150,-376.5 239,-376.5 239,-357.5 150,-357.5"/>
<text text-anchor="middle" x="194.5" y="-364.5" font-family="Helvetica,sans-Serif" font-size="10.00">UART Peripheral</text>
</a>
</g>
</g>
<!-- Node8 -->
<g id="node2" class="node"><title>Node8</title>
<g id="a_node2"><a xlink:href="group__host__peripherals.html" target="_top" xlink:title="Peripheral support. ">
<polygon fill="white" stroke="black" points="162,-319.5 162,-338.5 227,-338.5 227,-319.5 162,-319.5"/>
<text text-anchor="middle" x="194.5" y="-326.5" font-family="Helvetica,sans-Serif" font-size="10.00">Peripherals</text>
</a>
</g>
</g>
<!-- Node6 -->
<g id="node3" class="node"><title>Node6</title>
<g id="a_node3"><a xlink:href="group__bus__pal__peripheral.html" target="_top" xlink:title="Bus Pal Peripheral. ">
<polygon fill="white" stroke="black" points="145.5,-281.5 145.5,-300.5 243.5,-300.5 243.5,-281.5 145.5,-281.5"/>
<text text-anchor="middle" x="194.5" y="-288.5" font-family="Helvetica,sans-Serif" font-size="10.00">Bus Pal Peripheral</text>
</a>
</g>
</g>
<!-- Node5 -->
<g id="node4" class="node"><title>Node5</title>
<g id="a_node4"><a xlink:href="group__bus__pal.html" target="_top" xlink:title="Bus Pal transport support. ">
<polygon fill="white" stroke="black" points="147,-243.5 147,-262.5 242,-262.5 242,-243.5 147,-243.5"/>
<text text-anchor="middle" x="194.5" y="-250.5" font-family="Helvetica,sans-Serif" font-size="10.00">Bus Pal Transport</text>
</a>
</g>
</g>
<!-- Node11 -->
<g id="node5" class="node"><title>Node11</title>
<g id="a_node5"><a xlink:href="group__host__usb__hid__peripheral.html" target="_top" xlink:title="USB&#45;HID Peripheral. ">
<polygon fill="white" stroke="black" points="143.5,-205.5 143.5,-224.5 245.5,-224.5 245.5,-205.5 143.5,-205.5"/>
<text text-anchor="middle" x="194.5" y="-212.5" font-family="Helvetica,sans-Serif" font-size="10.00">USB&#45;HID Peripheral</text>
</a>
</g>
</g>
<!-- Node10 -->
<g id="node6" class="node"><title>Node10</title>
<g id="a_node6"><a xlink:href="group__host__updater.html" target="_top" xlink:title="Updater application support. ">
<polygon fill="white" stroke="black" points="169.5,-167.5 169.5,-186.5 219.5,-186.5 219.5,-167.5 169.5,-167.5"/>
<text text-anchor="middle" x="194.5" y="-174.5" font-family="Helvetica,sans-Serif" font-size="10.00">Updater</text>
</a>
</g>
</g>
<!-- Node3 -->
<g id="node7" class="node"><title>Node3</title>
<g id="a_node7"><a xlink:href="group__usb__hid__packetizer.html" target="_top" xlink:title="USB&#45;HID Packet creation. ">
<polygon fill="white" stroke="black" points="142,-125.5 142,-144.5 247,-144.5 247,-125.5 142,-125.5"/>
<text text-anchor="middle" x="194.5" y="-132.5" font-family="Helvetica,sans-Serif" font-size="10.00">USB&#45;HID Packetizer</text>
</a>
</g>
</g>
<!-- Node1 -->
<g id="node8" class="node"><title>Node1</title>
<g id="a_node8"><a xlink:href="group__blfwk.html" target="_top" xlink:title="Host Bootloader components. ">
<polygon fill="white" stroke="black" points="126,-403.5 126,-422.5 263,-422.5 263,-403.5 126,-403.5"/>
<text text-anchor="middle" x="194.5" y="-410.5" font-family="Helvetica,sans-Serif" font-size="10.00">Host Bootloader Framework</text>
</a>
</g>
</g>
<!-- Node0 -->
<g id="node11" class="node"><title>Node0</title>
<polygon fill="#bfbfbf" stroke="black" points="0,-192.5 0,-211.5 68,-211.5 68,-192.5 0,-192.5"/>
<text text-anchor="middle" x="34" y="-199.5" font-family="Helvetica,sans-Serif" font-size="10.00">Packetizers</text>
</g>
<!-- Node1&#45;&gt;Node0 -->
<g id="edge1" class="edge"><title>Node1&#45;&gt;Node0</title>
<path fill="none" stroke="black" d="M152.391,-399.648C129.114,-389.903 101.612,-374.273 86,-351 54.7753,-304.453 40.8551,-236.908 36.5481,-211.842"/>
<polygon fill="black" stroke="black" points="151.143,-402.918 161.73,-403.345 153.72,-396.41 151.143,-402.918"/>
</g>
<!-- Node4 -->
<g id="node9" class="node"><title>Node4</title>
<g id="a_node9"><a xlink:href="group__host__error.html" target="_top" xlink:title="Errors. ">
<polygon fill="white" stroke="black" points="175.5,-84.5 175.5,-103.5 213.5,-103.5 213.5,-84.5 175.5,-84.5"/>
<text text-anchor="middle" x="194.5" y="-91.5" font-family="Helvetica,sans-Serif" font-size="10.00">Error</text>
</a>
</g>
</g>
<!-- Node7 -->
<g id="node10" class="node"><title>Node7</title>
<g id="a_node10"><a xlink:href="group__host__commands.html" target="_top" xlink:title="Command support. ">
<polygon fill="white" stroke="black" points="161.5,-46.5 161.5,-65.5 227.5,-65.5 227.5,-46.5 161.5,-46.5"/>
<text text-anchor="middle" x="194.5" y="-53.5" font-family="Helvetica,sans-Serif" font-size="10.00">Commands</text>
</a>
</g>
</g>
<!-- Node0&#45;&gt;Node9 -->
<g id="edge11" class="edge"><title>Node0&#45;&gt;Node9</title>
<path fill="none" stroke="blueviolet" stroke-dasharray="5,2" d="M37.9528,-211.519C44.4444,-231.484 61.3666,-278.641 86,-312 100.208,-331.24 105.052,-336.458 126,-348 133.357,-352.054 141.652,-355.303 149.845,-357.886"/>
<text text-anchor="middle" x="97" y="-339" font-family="Helvetica,sans-Serif" font-size="10.00">blfwk</text>
</g>
<!-- Node0&#45;&gt;Node8 -->
<g id="edge9" class="edge"><title>Node0&#45;&gt;Node8</title>
<path fill="none" stroke="blueviolet" stroke-dasharray="5,2" d="M39.7731,-211.605C51.2113,-233.466 82.5036,-286.831 126,-310 137.067,-315.895 150.156,-320.122 161.847,-323.069"/>
<text text-anchor="middle" x="97" y="-300" font-family="Helvetica,sans-Serif" font-size="10.00">blfwk</text>
</g>
<!-- Node0&#45;&gt;Node6 -->
<g id="edge7" class="edge"><title>Node0&#45;&gt;Node6</title>
<path fill="none" stroke="blueviolet" stroke-dasharray="5,2" d="M44.7122,-211.705C60.4209,-226.849 92.9896,-256.02 126,-272 133.78,-275.766 142.437,-278.905 150.885,-281.474"/>
<text text-anchor="middle" x="97" y="-264" font-family="Helvetica,sans-Serif" font-size="10.00">blfwk</text>
</g>
<!-- Node0&#45;&gt;Node5 -->
<g id="edge6" class="edge"><title>Node0&#45;&gt;Node5</title>
<path fill="none" stroke="blueviolet" stroke-dasharray="5,2" d="M58.2082,-211.566C66.8719,-215.014 76.8307,-218.833 86,-222 109.316,-230.054 135.955,-237.746 156.882,-243.454"/>
<text text-anchor="middle" x="97" y="-231" font-family="Helvetica,sans-Serif" font-size="10.00">blfwk</text>
</g>
<!-- Node0&#45;&gt;Node11 -->
<g id="edge14" class="edge"><title>Node0&#45;&gt;Node11</title>
<path fill="none" stroke="blueviolet" stroke-dasharray="5,2" d="M68.2268,-204.725C90.013,-206.512 118.901,-208.881 143.445,-210.895"/>
<text text-anchor="middle" x="97" y="-210" font-family="Helvetica,sans-Serif" font-size="10.00">blfwk</text>
</g>
<!-- Node0&#45;&gt;Node10 -->
<g id="edge12" class="edge"><title>Node0&#45;&gt;Node10</title>
<path fill="none" stroke="blueviolet" stroke-dasharray="5,2" d="M68.1173,-194.44C74.0549,-193.204 80.1983,-192.002 86,-191 114.376,-186.101 147.232,-182.057 169.077,-179.596"/>
<text text-anchor="middle" x="97" y="-194" font-family="Helvetica,sans-Serif" font-size="10.00">blfwk</text>
</g>
<!-- Node0&#45;&gt;Node3 -->
<g id="edge3" class="edge"><title>Node0&#45;&gt;Node3</title>
<path fill="none" stroke="black" d="M62.4185,-187.66C80.2765,-178.591 104.22,-166.937 126,-158 137.912,-153.112 151.285,-148.4 162.967,-144.527"/>
<polygon fill="black" stroke="black" points="60.4777,-184.721 53.1758,-192.398 63.6713,-190.95 60.4777,-184.721"/>
</g>
<!-- Node0&#45;&gt;Node3 -->
<g id="edge13" class="edge"><title>Node0&#45;&gt;Node3</title>
<path fill="none" stroke="blueviolet" stroke-dasharray="5,2" d="M41.6565,-192.26C50.3546,-180.38 66.7647,-160.688 86,-151 103.105,-142.385 123.545,-138.086 141.987,-136.035"/>
<text text-anchor="middle" x="97" y="-154" font-family="Helvetica,sans-Serif" font-size="10.00">blfwk</text>
</g>
<!-- Node0&#45;&gt;Node1 -->
<g id="edge5" class="edge"><title>Node0&#45;&gt;Node1</title>
<path fill="none" stroke="blueviolet" stroke-dasharray="5,2" d="M34.9594,-211.713C35.3713,-240.62 40.5384,-327.058 86,-375 99.2801,-389.005 118.038,-397.854 136.174,-403.443"/>
<text text-anchor="middle" x="97" y="-394" font-family="Helvetica,sans-Serif" font-size="10.00">blfwk</text>
</g>
<!-- Node0&#45;&gt;Node4 -->
<g id="edge4" class="edge"><title>Node0&#45;&gt;Node4</title>
<path fill="none" stroke="blueviolet" stroke-dasharray="5,2" d="M38.9542,-192.402C46.0154,-176.444 62.3074,-144.484 86,-127 113.176,-106.946 152.715,-98.9257 175.497,-95.8332"/>
<text text-anchor="middle" x="97" y="-130" font-family="Helvetica,sans-Serif" font-size="10.00">blfwk</text>
</g>
<!-- Node0&#45;&gt;Node7 -->
<g id="edge8" class="edge"><title>Node0&#45;&gt;Node7</title>
<path fill="none" stroke="blueviolet" stroke-dasharray="5,2" d="M37.7214,-192.416C43.6748,-172.852 59.4828,-127.747 86,-99 105.625,-77.724 137.186,-66.778 161.045,-61.2727"/>
<text text-anchor="middle" x="97" y="-102" font-family="Helvetica,sans-Serif" font-size="10.00">blfwk</text>
</g>
<!-- Node2 -->
<g id="node12" class="node"><title>Node2</title>
<g id="a_node12"><a xlink:href="group__serial__packetizer.html" target="_top" xlink:title="Serial Packet creation. ">
<polygon fill="white" stroke="black" points="149,-0.5 149,-19.5 240,-19.5 240,-0.5 149,-0.5"/>
<text text-anchor="middle" x="194.5" y="-7.5" font-family="Helvetica,sans-Serif" font-size="10.00">Serial Packetizer</text>
</a>
</g>
</g>
<!-- Node0&#45;&gt;Node2 -->
<g id="edge2" class="edge"><title>Node0&#45;&gt;Node2</title>
<path fill="none" stroke="black" d="M40.2695,-182.638C47.8048,-157.032 63.303,-111.165 86,-77 99.9123,-56.0585 105.011,-50.8402 126,-37 136.958,-29.7741 150.153,-23.9632 161.959,-19.6101"/>
<polygon fill="black" stroke="black" points="36.897,-181.702 37.5299,-192.278 43.6303,-183.615 36.897,-181.702"/>
</g>
<!-- Node0&#45;&gt;Node2 -->
<g id="edge10" class="edge"><title>Node0&#45;&gt;Node2</title>
<path fill="none" stroke="blueviolet" stroke-dasharray="5,2" d="M34.841,-192.382C34.9222,-163.801 39.2612,-78.6685 86,-35 102.801,-19.3024 127.472,-12.8281 148.943,-10.3795"/>
<text text-anchor="middle" x="97" y="-38" font-family="Helvetica,sans-Serif" font-size="10.00">blfwk</text>
</g>
</g>
</svg>
