<?xml version="1.0" encoding="UTF-8" standalone="no"?>
<!DOCTYPE svg PUBLIC "-//W3C//DTD SVG 1.1//EN"
 "http://www.w3.org/Graphics/SVG/1.1/DTD/svg11.dtd">
<!-- Generated by graphviz version 2.38.0 (20140413.2041)
 -->
<!-- Title: Bus Pal Peripheral Pages: 1 -->
<svg width="301pt" height="415pt"
 viewBox="0.00 0.00 301.00 415.00" xmlns="http://www.w3.org/2000/svg" xmlns:xlink="http://www.w3.org/1999/xlink">
<g id="graph0" class="graph" transform="scale(1 1) rotate(0) translate(4 411)">
<title>Bus Pal Peripheral</title>
<polygon fill="white" stroke="none" points="-4,4 -4,-411 297,-411 297,4 -4,4"/>
<!-- Node8 -->
<g id="node1" class="node"><title>Node8</title>
<g id="a_node1"><a xlink:href="group__uart__peripheral.html" target="_top" xlink:title="UART Peripheral. ">
<polygon fill="white" stroke="black" points="180,-342.5 180,-361.5 269,-361.5 269,-342.5 180,-342.5"/>
<text text-anchor="middle" x="224.5" y="-349.5" font-family="Helvetica,sans-Serif" font-size="10.00">UART Peripheral</text>
</a>
</g>
</g>
<!-- Node1 -->
<g id="node2" class="node"><title>Node1</title>
<g id="a_node2"><a xlink:href="group__host__peripherals.html" target="_top" xlink:title="Peripheral support. ">
<polygon fill="white" stroke="black" points="192,-387.5 192,-406.5 257,-406.5 257,-387.5 192,-387.5"/>
<text text-anchor="middle" x="224.5" y="-394.5" font-family="Helvetica,sans-Serif" font-size="10.00">Peripherals</text>
</a>
</g>
</g>
<!-- Node0 -->
<g id="node3" class="node"><title>Node0</title>
<polygon fill="#bfbfbf" stroke="black" points="0,-209.5 0,-228.5 98,-228.5 98,-209.5 0,-209.5"/>
<text text-anchor="middle" x="49" y="-216.5" font-family="Helvetica,sans-Serif" font-size="10.00">Bus Pal Peripheral</text>
</g>
<!-- Node1&#45;&gt;Node0 -->
<g id="edge1" class="edge"><title>Node1&#45;&gt;Node0</title>
<path fill="none" stroke="black" d="M182.203,-383.947C173.254,-380.346 164.063,-376.022 156,-371 98.9264,-335.451 64.3923,-256.636 53.6355,-228.894"/>
<polygon fill="black" stroke="black" points="181.162,-387.295 191.753,-387.568 183.644,-380.75 181.162,-387.295"/>
</g>
<!-- Node0&#45;&gt;Node8 -->
<g id="edge9" class="edge"><title>Node0&#45;&gt;Node8</title>
<path fill="none" stroke="blueviolet" stroke-dasharray="5,2" d="M55.728,-228.651C69.6755,-251.194 107.818,-307.335 156,-333 163.414,-336.949 171.735,-340.15 179.936,-342.718"/>
<text text-anchor="middle" x="127" y="-322" font-family="Helvetica,sans-Serif" font-size="10.00">blfwk</text>
</g>
<!-- Node0&#45;&gt;Node1 -->
<g id="edge7" class="edge"><title>Node0&#45;&gt;Node1</title>
<path fill="none" stroke="blueviolet" stroke-dasharray="5,2" d="M51.7914,-228.863C56.9539,-254.473 74.2473,-323.678 116,-361 137.13,-379.888 168.503,-388.918 191.909,-393.203"/>
<text text-anchor="middle" x="127" y="-377" font-family="Helvetica,sans-Serif" font-size="10.00">blfwk</text>
</g>
<!-- Node4 -->
<g id="node4" class="node"><title>Node4</title>
<g id="a_node4"><a xlink:href="group__bus__pal.html" target="_top" xlink:title="Bus Pal transport support. ">
<polygon fill="white" stroke="black" points="177,-304.5 177,-323.5 272,-323.5 272,-304.5 177,-304.5"/>
<text text-anchor="middle" x="224.5" y="-311.5" font-family="Helvetica,sans-Serif" font-size="10.00">Bus Pal Transport</text>
</a>
</g>
</g>
<!-- Node0&#45;&gt;Node4 -->
<g id="edge4" class="edge"><title>Node0&#45;&gt;Node4</title>
<path fill="none" stroke="blueviolet" stroke-dasharray="5,2" d="M60.6336,-228.588C78.8684,-244.556 117.838,-276.65 156,-295 163.79,-298.746 172.451,-301.875 180.901,-304.442"/>
<text text-anchor="middle" x="127" y="-287" font-family="Helvetica,sans-Serif" font-size="10.00">blfwk</text>
</g>
<!-- Node11 -->
<g id="node5" class="node"><title>Node11</title>
<g id="a_node5"><a xlink:href="group__host__usb__hid__peripheral.html" target="_top" xlink:title="USB&#45;HID Peripheral. ">
<polygon fill="white" stroke="black" points="173.5,-266.5 173.5,-285.5 275.5,-285.5 275.5,-266.5 173.5,-266.5"/>
<text text-anchor="middle" x="224.5" y="-273.5" font-family="Helvetica,sans-Serif" font-size="10.00">USB&#45;HID Peripheral</text>
</a>
</g>
</g>
<!-- Node0&#45;&gt;Node11 -->
<g id="edge12" class="edge"><title>Node0&#45;&gt;Node11</title>
<path fill="none" stroke="blueviolet" stroke-dasharray="5,2" d="M75.0862,-228.613C96.4482,-236.649 128.034,-248.179 156,-257 166.333,-260.259 177.64,-263.549 187.994,-266.453"/>
<text text-anchor="middle" x="127" y="-253" font-family="Helvetica,sans-Serif" font-size="10.00">blfwk</text>
</g>
<!-- Node9 -->
<g id="node6" class="node"><title>Node9</title>
<g id="a_node6"><a xlink:href="group__host__updater.html" target="_top" xlink:title="Updater application support. ">
<polygon fill="white" stroke="black" points="199.5,-228.5 199.5,-247.5 249.5,-247.5 249.5,-228.5 199.5,-228.5"/>
<text text-anchor="middle" x="224.5" y="-235.5" font-family="Helvetica,sans-Serif" font-size="10.00">Updater</text>
</a>
</g>
</g>
<!-- Node0&#45;&gt;Node9 -->
<g id="edge10" class="edge"><title>Node0&#45;&gt;Node9</title>
<path fill="none" stroke="blueviolet" stroke-dasharray="5,2" d="M98.3294,-224.293C131.217,-227.894 173.338,-232.507 199.364,-235.357"/>
<text text-anchor="middle" x="127" y="-231" font-family="Helvetica,sans-Serif" font-size="10.00">blfwk</text>
</g>
<!-- Node10 -->
<g id="node7" class="node"><title>Node10</title>
<g id="a_node7"><a xlink:href="group__usb__hid__packetizer.html" target="_top" xlink:title="USB&#45;HID Packet creation. ">
<polygon fill="white" stroke="black" points="172,-190.5 172,-209.5 277,-209.5 277,-190.5 172,-190.5"/>
<text text-anchor="middle" x="224.5" y="-197.5" font-family="Helvetica,sans-Serif" font-size="10.00">USB&#45;HID Packetizer</text>
</a>
</g>
</g>
<!-- Node0&#45;&gt;Node10 -->
<g id="edge11" class="edge"><title>Node0&#45;&gt;Node10</title>
<path fill="none" stroke="blueviolet" stroke-dasharray="5,2" d="M98.289,-213.041C104.252,-212.337 110.265,-211.641 116,-211 134.178,-208.968 154.103,-206.889 171.807,-205.092"/>
<text text-anchor="middle" x="127" y="-214" font-family="Helvetica,sans-Serif" font-size="10.00">blfwk</text>
</g>
<!-- Node3 -->
<g id="node8" class="node"><title>Node3</title>
<g id="a_node8"><a xlink:href="group__blfwk.html" target="_top" xlink:title="Host Bootloader components. ">
<polygon fill="white" stroke="black" points="156,-152.5 156,-171.5 293,-171.5 293,-152.5 156,-152.5"/>
<text text-anchor="middle" x="224.5" y="-159.5" font-family="Helvetica,sans-Serif" font-size="10.00">Host Bootloader Framework</text>
</a>
</g>
</g>
<!-- Node0&#45;&gt;Node3 -->
<g id="edge3" class="edge"><title>Node0&#45;&gt;Node3</title>
<path fill="none" stroke="blueviolet" stroke-dasharray="5,2" d="M73.0366,-209.377C85.6338,-204.253 101.57,-197.997 116,-193 133.539,-186.927 138.177,-186.181 156,-181 166.755,-177.873 178.497,-174.54 189.129,-171.553"/>
<text text-anchor="middle" x="127" y="-196" font-family="Helvetica,sans-Serif" font-size="10.00">blfwk</text>
</g>
<!-- Node2 -->
<g id="node9" class="node"><title>Node2</title>
<g id="a_node9"><a xlink:href="group__host__error.html" target="_top" xlink:title="Errors. ">
<polygon fill="white" stroke="black" points="205.5,-114.5 205.5,-133.5 243.5,-133.5 243.5,-114.5 205.5,-114.5"/>
<text text-anchor="middle" x="224.5" y="-121.5" font-family="Helvetica,sans-Serif" font-size="10.00">Error</text>
</a>
</g>
</g>
<!-- Node0&#45;&gt;Node2 -->
<g id="edge2" class="edge"><title>Node0&#45;&gt;Node2</title>
<path fill="none" stroke="blueviolet" stroke-dasharray="5,2" d="M60.6111,-209.365C78.8128,-193.328 117.735,-161.134 156,-143 171.952,-135.44 191.488,-130.349 205.431,-127.355"/>
<text text-anchor="middle" x="127" y="-167" font-family="Helvetica,sans-Serif" font-size="10.00">blfwk</text>
</g>
<!-- Node5 -->
<g id="node10" class="node"><title>Node5</title>
<g id="a_node10"><a xlink:href="group__host__commands.html" target="_top" xlink:title="Command support. ">
<polygon fill="white" stroke="black" points="191.5,-76.5 191.5,-95.5 257.5,-95.5 257.5,-76.5 191.5,-76.5"/>
<text text-anchor="middle" x="224.5" y="-83.5" font-family="Helvetica,sans-Serif" font-size="10.00">Commands</text>
</a>
</g>
</g>
<!-- Node0&#45;&gt;Node5 -->
<g id="edge5" class="edge"><title>Node0&#45;&gt;Node5</title>
<path fill="none" stroke="blueviolet" stroke-dasharray="5,2" d="M55.6778,-209.253C69.5167,-186.502 107.441,-129.945 156,-105 166.937,-99.3814 179.751,-95.2388 191.258,-92.2821"/>
<text text-anchor="middle" x="127" y="-134" font-family="Helvetica,sans-Serif" font-size="10.00">blfwk</text>
</g>
<!-- Node6 -->
<g id="node11" class="node"><title>Node6</title>
<g id="a_node11"><a xlink:href="group__host__packetizers.html" target="_top" xlink:title="Packet creation. ">
<polygon fill="white" stroke="black" points="190.5,-38.5 190.5,-57.5 258.5,-57.5 258.5,-38.5 190.5,-38.5"/>
<text text-anchor="middle" x="224.5" y="-45.5" font-family="Helvetica,sans-Serif" font-size="10.00">Packetizers</text>
</a>
</g>
</g>
<!-- Node0&#45;&gt;Node6 -->
<g id="edge6" class="edge"><title>Node0&#45;&gt;Node6</title>
<path fill="none" stroke="blueviolet" stroke-dasharray="5,2" d="M53.3058,-209.199C63.4058,-181 96.8265,-99.6037 156,-67 166.556,-61.1837 179.042,-57.0245 190.387,-54.1106"/>
<text text-anchor="middle" x="127" y="-101" font-family="Helvetica,sans-Serif" font-size="10.00">blfwk</text>
</g>
<!-- Node7 -->
<g id="node12" class="node"><title>Node7</title>
<g id="a_node12"><a xlink:href="group__serial__packetizer.html" target="_top" xlink:title="Serial Packet creation. ">
<polygon fill="white" stroke="black" points="179,-0.5 179,-19.5 270,-19.5 270,-0.5 179,-0.5"/>
<text text-anchor="middle" x="224.5" y="-7.5" font-family="Helvetica,sans-Serif" font-size="10.00">Serial Packetizer</text>
</a>
</g>
</g>
<!-- Node0&#45;&gt;Node7 -->
<g id="edge8" class="edge"><title>Node0&#45;&gt;Node7</title>
<path fill="none" stroke="blueviolet" stroke-dasharray="5,2" d="M52.5772,-209.246C59.636,-183.749 81.1136,-113.719 116,-65 129.925,-45.554 135.052,-40.5421 156,-29 163.037,-25.1225 170.933,-21.9815 178.776,-19.4549"/>
<text text-anchor="middle" x="127" y="-68" font-family="Helvetica,sans-Serif" font-size="10.00">blfwk</text>
</g>
</g>
</svg>
