<?xml version="1.0" encoding="UTF-8" standalone="no"?>
<!DOCTYPE svg PUBLIC "-//W3C//DTD SVG 1.1//EN"
 "http://www.w3.org/Graphics/SVG/1.1/DTD/svg11.dtd">
<!-- Generated by graphviz version 2.38.0 (20140413.2041)
 -->
<!-- Title: Updater Pages: 1 -->
<svg width="253pt" height="415pt"
 viewBox="0.00 0.00 253.00 415.00" xmlns="http://www.w3.org/2000/svg" xmlns:xlink="http://www.w3.org/1999/xlink">
<g id="graph0" class="graph" transform="scale(1 1) rotate(0) translate(4 411)">
<title>Updater</title>
<polygon fill="white" stroke="none" points="-4,4 -4,-411 249,-411 249,4 -4,4"/>
<!-- Node9 -->
<g id="node1" class="node"><title>Node9</title>
<g id="a_node1"><a xlink:href="group__uart__peripheral.html" target="_top" xlink:title="UART Peripheral. ">
<polygon fill="white" stroke="black" points="132,-387.5 132,-406.5 221,-406.5 221,-387.5 132,-387.5"/>
<text text-anchor="middle" x="176.5" y="-394.5" font-family="Helvetica,sans-Serif" font-size="10.00">UART Peripheral</text>
</a>
</g>
</g>
<!-- Node7 -->
<g id="node2" class="node"><title>Node7</title>
<g id="a_node2"><a xlink:href="group__host__peripherals.html" target="_top" xlink:title="Peripheral support. ">
<polygon fill="white" stroke="black" points="144,-349.5 144,-368.5 209,-368.5 209,-349.5 144,-349.5"/>
<text text-anchor="middle" x="176.5" y="-356.5" font-family="Helvetica,sans-Serif" font-size="10.00">Peripherals</text>
</a>
</g>
</g>
<!-- Node4 -->
<g id="node3" class="node"><title>Node4</title>
<g id="a_node3"><a xlink:href="group__bus__pal__peripheral.html" target="_top" xlink:title="Bus Pal Peripheral. ">
<polygon fill="white" stroke="black" points="127.5,-311.5 127.5,-330.5 225.5,-330.5 225.5,-311.5 127.5,-311.5"/>
<text text-anchor="middle" x="176.5" y="-318.5" font-family="Helvetica,sans-Serif" font-size="10.00">Bus Pal Peripheral</text>
</a>
</g>
</g>
<!-- Node3 -->
<g id="node4" class="node"><title>Node3</title>
<g id="a_node4"><a xlink:href="group__bus__pal.html" target="_top" xlink:title="Bus Pal transport support. ">
<polygon fill="white" stroke="black" points="129,-273.5 129,-292.5 224,-292.5 224,-273.5 129,-273.5"/>
<text text-anchor="middle" x="176.5" y="-280.5" font-family="Helvetica,sans-Serif" font-size="10.00">Bus Pal Transport</text>
</a>
</g>
</g>
<!-- Node11 -->
<g id="node5" class="node"><title>Node11</title>
<g id="a_node5"><a xlink:href="group__host__usb__hid__peripheral.html" target="_top" xlink:title="USB&#45;HID Peripheral. ">
<polygon fill="white" stroke="black" points="125.5,-235.5 125.5,-254.5 227.5,-254.5 227.5,-235.5 125.5,-235.5"/>
<text text-anchor="middle" x="176.5" y="-242.5" font-family="Helvetica,sans-Serif" font-size="10.00">USB&#45;HID Peripheral</text>
</a>
</g>
</g>
<!-- Node0 -->
<g id="node6" class="node"><title>Node0</title>
<polygon fill="#bfbfbf" stroke="black" points="0,-186.5 0,-205.5 50,-205.5 50,-186.5 0,-186.5"/>
<text text-anchor="middle" x="25" y="-193.5" font-family="Helvetica,sans-Serif" font-size="10.00">Updater</text>
</g>
<!-- Node0&#45;&gt;Node9 -->
<g id="edge10" class="edge"><title>Node0&#45;&gt;Node9</title>
<path fill="none" stroke="blueviolet" stroke-dasharray="5,2" d="M26.9221,-205.617C29.6415,-230.114 39.323,-296.162 68,-342 80.6853,-362.276 87.0518,-366.458 108,-378 115.357,-382.054 123.652,-385.303 131.845,-387.886"/>
<text text-anchor="middle" x="79" y="-369" font-family="Helvetica,sans-Serif" font-size="10.00">blfwk</text>
</g>
<!-- Node0&#45;&gt;Node7 -->
<g id="edge8" class="edge"><title>Node0&#45;&gt;Node7</title>
<path fill="none" stroke="blueviolet" stroke-dasharray="5,2" d="M28.337,-205.739C33.3334,-225.254 46.392,-270.015 68,-302 81.7268,-322.319 86.6845,-327.878 108,-340 118.9,-346.199 131.956,-350.485 143.668,-353.395"/>
<text text-anchor="middle" x="79" y="-330" font-family="Helvetica,sans-Serif" font-size="10.00">blfwk</text>
</g>
<!-- Node0&#45;&gt;Node4 -->
<g id="edge5" class="edge"><title>Node0&#45;&gt;Node4</title>
<path fill="none" stroke="blueviolet" stroke-dasharray="5,2" d="M30.1817,-205.815C40.0522,-227.603 67.088,-279.83 108,-302 115.064,-305.828 122.973,-308.945 130.82,-311.464"/>
<text text-anchor="middle" x="79" y="-290" font-family="Helvetica,sans-Serif" font-size="10.00">blfwk</text>
</g>
<!-- Node0&#45;&gt;Node3 -->
<g id="edge4" class="edge"><title>Node0&#45;&gt;Node3</title>
<path fill="none" stroke="blueviolet" stroke-dasharray="5,2" d="M34.513,-205.653C48.3412,-220.674 77.2489,-249.427 108,-264 115.921,-267.754 124.726,-270.899 133.291,-273.481"/>
<text text-anchor="middle" x="79" y="-255" font-family="Helvetica,sans-Serif" font-size="10.00">blfwk</text>
</g>
<!-- Node0&#45;&gt;Node11 -->
<g id="edge12" class="edge"><title>Node0&#45;&gt;Node11</title>
<path fill="none" stroke="blueviolet" stroke-dasharray="5,2" d="M45.4011,-205.523C52.4239,-208.77 60.478,-212.267 68,-215 90.036,-223.006 115.257,-230.146 135.729,-235.45"/>
<text text-anchor="middle" x="79" y="-224" font-family="Helvetica,sans-Serif" font-size="10.00">blfwk</text>
</g>
<!-- Node10 -->
<g id="node7" class="node"><title>Node10</title>
<g id="a_node7"><a xlink:href="group__usb__hid__packetizer.html" target="_top" xlink:title="USB&#45;HID Packet creation. ">
<polygon fill="white" stroke="black" points="124,-197.5 124,-216.5 229,-216.5 229,-197.5 124,-197.5"/>
<text text-anchor="middle" x="176.5" y="-204.5" font-family="Helvetica,sans-Serif" font-size="10.00">USB&#45;HID Packetizer</text>
</a>
</g>
</g>
<!-- Node0&#45;&gt;Node10 -->
<g id="edge11" class="edge"><title>Node0&#45;&gt;Node10</title>
<path fill="none" stroke="blueviolet" stroke-dasharray="5,2" d="M50.0198,-197.767C69.9118,-199.231 98.8789,-201.362 123.97,-203.209"/>
<text text-anchor="middle" x="79" y="-203" font-family="Helvetica,sans-Serif" font-size="10.00">blfwk</text>
</g>
<!-- Node1 -->
<g id="node8" class="node"><title>Node1</title>
<g id="a_node8"><a xlink:href="group__blfwk.html" target="_top" xlink:title="Host Bootloader components. ">
<polygon fill="white" stroke="black" points="108,-156.5 108,-175.5 245,-175.5 245,-156.5 108,-156.5"/>
<text text-anchor="middle" x="176.5" y="-163.5" font-family="Helvetica,sans-Serif" font-size="10.00">Host Bootloader Framework</text>
</a>
</g>
</g>
<!-- Node0&#45;&gt;Node1 -->
<g id="edge3" class="edge"><title>Node0&#45;&gt;Node1</title>
<path fill="none" stroke="blueviolet" stroke-dasharray="5,2" d="M50.3105,-188.553C56.0773,-186.926 62.2302,-185.303 68,-184 81.9359,-180.853 97.0021,-177.996 111.32,-175.533"/>
<text text-anchor="middle" x="79" y="-187" font-family="Helvetica,sans-Serif" font-size="10.00">blfwk</text>
</g>
<!-- Node2 -->
<g id="node9" class="node"><title>Node2</title>
<g id="a_node9"><a xlink:href="group__host__error.html" target="_top" xlink:title="Errors. ">
<polygon fill="white" stroke="black" points="157.5,-114.5 157.5,-133.5 195.5,-133.5 195.5,-114.5 157.5,-114.5"/>
<text text-anchor="middle" x="176.5" y="-121.5" font-family="Helvetica,sans-Serif" font-size="10.00">Error</text>
</a>
</g>
</g>
<!-- Node0&#45;&gt;Node2 -->
<g id="edge2" class="edge"><title>Node0&#45;&gt;Node2</title>
<path fill="none" stroke="blueviolet" stroke-dasharray="5,2" d="M30.3586,-186.22C36.6656,-173.313 49.6274,-150.951 68,-140 95.8776,-123.383 134.822,-121.872 157.378,-122.67"/>
<text text-anchor="middle" x="79" y="-143" font-family="Helvetica,sans-Serif" font-size="10.00">blfwk</text>
</g>
<!-- Node5 -->
<g id="node10" class="node"><title>Node5</title>
<g id="a_node10"><a xlink:href="group__host__commands.html" target="_top" xlink:title="Command support. ">
<polygon fill="white" stroke="black" points="143.5,-76.5 143.5,-95.5 209.5,-95.5 209.5,-76.5 143.5,-76.5"/>
<text text-anchor="middle" x="176.5" y="-83.5" font-family="Helvetica,sans-Serif" font-size="10.00">Commands</text>
</a>
</g>
</g>
<!-- Node0&#45;&gt;Node5 -->
<g id="edge6" class="edge"><title>Node0&#45;&gt;Node5</title>
<path fill="none" stroke="blueviolet" stroke-dasharray="5,2" d="M28.2613,-186.389C32.7779,-169.352 44.559,-133.877 68,-115 89.3787,-97.7836 120.116,-90.7439 143.252,-87.8884"/>
<text text-anchor="middle" x="79" y="-118" font-family="Helvetica,sans-Serif" font-size="10.00">blfwk</text>
</g>
<!-- Node6 -->
<g id="node11" class="node"><title>Node6</title>
<g id="a_node11"><a xlink:href="group__host__packetizers.html" target="_top" xlink:title="Packet creation. ">
<polygon fill="white" stroke="black" points="142.5,-38.5 142.5,-57.5 210.5,-57.5 210.5,-38.5 142.5,-38.5"/>
<text text-anchor="middle" x="176.5" y="-45.5" font-family="Helvetica,sans-Serif" font-size="10.00">Packetizers</text>
</a>
</g>
</g>
<!-- Node0&#45;&gt;Node6 -->
<g id="edge7" class="edge"><title>Node0&#45;&gt;Node6</title>
<path fill="none" stroke="blueviolet" stroke-dasharray="5,2" d="M27.333,-186.327C30.6409,-165.672 40.9998,-116.721 68,-87 87.0902,-65.9862 118.396,-56.2797 142.314,-51.805"/>
<text text-anchor="middle" x="79" y="-90" font-family="Helvetica,sans-Serif" font-size="10.00">blfwk</text>
</g>
<!-- Node8 -->
<g id="node12" class="node"><title>Node8</title>
<g id="a_node12"><a xlink:href="group__serial__packetizer.html" target="_top" xlink:title="Serial Packet creation. ">
<polygon fill="white" stroke="black" points="131,-0.5 131,-19.5 222,-19.5 222,-0.5 131,-0.5"/>
<text text-anchor="middle" x="176.5" y="-7.5" font-family="Helvetica,sans-Serif" font-size="10.00">Serial Packetizer</text>
</a>
</g>
</g>
<!-- Node0&#45;&gt;Node8 -->
<g id="edge9" class="edge"><title>Node0&#45;&gt;Node8</title>
<path fill="none" stroke="blueviolet" stroke-dasharray="5,2" d="M26.6036,-186.435C28.5756,-162.126 36.6477,-96.9373 68,-55 82.9614,-34.9873 108.506,-23.8109 130.941,-17.6026"/>
<text text-anchor="middle" x="79" y="-58" font-family="Helvetica,sans-Serif" font-size="10.00">blfwk</text>
</g>
<!-- Node1&#45;&gt;Node0 -->
<g id="edge1" class="edge"><title>Node1&#45;&gt;Node0</title>
<path fill="none" stroke="black" d="M126.657,-155.096C107.819,-152.976 86.4159,-153.187 68,-160 53.9488,-165.198 41.4263,-177.429 33.7872,-186.191"/>
<polygon fill="black" stroke="black" points="126.441,-158.599 136.823,-156.486 127.39,-151.663 126.441,-158.599"/>
</g>
</g>
</svg>
