<?xml version="1.0" encoding="UTF-8" standalone="no"?>
<!DOCTYPE svg PUBLIC "-//W3C//DTD SVG 1.1//EN"
 "http://www.w3.org/Graphics/SVG/1.1/DTD/svg11.dtd">
<!-- Generated by graphviz version 2.38.0 (20140413.2041)
 -->
<!-- Title: Error Pages: 1 -->
<svg width="241pt" height="415pt"
 viewBox="0.00 0.00 241.00 415.00" xmlns="http://www.w3.org/2000/svg" xmlns:xlink="http://www.w3.org/1999/xlink">
<g id="graph0" class="graph" transform="scale(1 1) rotate(0) translate(4 411)">
<title>Error</title>
<polygon fill="white" stroke="none" points="-4,4 -4,-411 237,-411 237,4 -4,4"/>
<!-- Node8 -->
<g id="node1" class="node"><title>Node8</title>
<g id="a_node1"><a xlink:href="group__uart__peripheral.html" target="_top" xlink:title="UART Peripheral. ">
<polygon fill="white" stroke="black" points="120,-342.5 120,-361.5 209,-361.5 209,-342.5 120,-342.5"/>
<text text-anchor="middle" x="164.5" y="-349.5" font-family="Helvetica,sans-Serif" font-size="10.00">UART Peripheral</text>
</a>
</g>
</g>
<!-- Node6 -->
<g id="node2" class="node"><title>Node6</title>
<g id="a_node2"><a xlink:href="group__host__peripherals.html" target="_top" xlink:title="Peripheral support. ">
<polygon fill="white" stroke="black" points="132,-304.5 132,-323.5 197,-323.5 197,-304.5 132,-304.5"/>
<text text-anchor="middle" x="164.5" y="-311.5" font-family="Helvetica,sans-Serif" font-size="10.00">Peripherals</text>
</a>
</g>
</g>
<!-- Node3 -->
<g id="node3" class="node"><title>Node3</title>
<g id="a_node3"><a xlink:href="group__bus__pal__peripheral.html" target="_top" xlink:title="Bus Pal Peripheral. ">
<polygon fill="white" stroke="black" points="115.5,-266.5 115.5,-285.5 213.5,-285.5 213.5,-266.5 115.5,-266.5"/>
<text text-anchor="middle" x="164.5" y="-273.5" font-family="Helvetica,sans-Serif" font-size="10.00">Bus Pal Peripheral</text>
</a>
</g>
</g>
<!-- Node2 -->
<g id="node4" class="node"><title>Node2</title>
<g id="a_node4"><a xlink:href="group__bus__pal.html" target="_top" xlink:title="Bus Pal transport support. ">
<polygon fill="white" stroke="black" points="117,-228.5 117,-247.5 212,-247.5 212,-228.5 117,-228.5"/>
<text text-anchor="middle" x="164.5" y="-235.5" font-family="Helvetica,sans-Serif" font-size="10.00">Bus Pal Transport</text>
</a>
</g>
</g>
<!-- Node11 -->
<g id="node5" class="node"><title>Node11</title>
<g id="a_node5"><a xlink:href="group__host__usb__hid__peripheral.html" target="_top" xlink:title="USB&#45;HID Peripheral. ">
<polygon fill="white" stroke="black" points="113.5,-190.5 113.5,-209.5 215.5,-209.5 215.5,-190.5 113.5,-190.5"/>
<text text-anchor="middle" x="164.5" y="-197.5" font-family="Helvetica,sans-Serif" font-size="10.00">USB&#45;HID Peripheral</text>
</a>
</g>
</g>
<!-- Node9 -->
<g id="node6" class="node"><title>Node9</title>
<g id="a_node6"><a xlink:href="group__host__updater.html" target="_top" xlink:title="Updater application support. ">
<polygon fill="white" stroke="black" points="139.5,-152.5 139.5,-171.5 189.5,-171.5 189.5,-152.5 139.5,-152.5"/>
<text text-anchor="middle" x="164.5" y="-159.5" font-family="Helvetica,sans-Serif" font-size="10.00">Updater</text>
</a>
</g>
</g>
<!-- Node10 -->
<g id="node7" class="node"><title>Node10</title>
<g id="a_node7"><a xlink:href="group__usb__hid__packetizer.html" target="_top" xlink:title="USB&#45;HID Packet creation. ">
<polygon fill="white" stroke="black" points="112,-114.5 112,-133.5 217,-133.5 217,-114.5 112,-114.5"/>
<text text-anchor="middle" x="164.5" y="-121.5" font-family="Helvetica,sans-Serif" font-size="10.00">USB&#45;HID Packetizer</text>
</a>
</g>
</g>
<!-- Node1 -->
<g id="node8" class="node"><title>Node1</title>
<g id="a_node8"><a xlink:href="group__blfwk.html" target="_top" xlink:title="Host Bootloader components. ">
<polygon fill="white" stroke="black" points="96,-387.5 96,-406.5 233,-406.5 233,-387.5 96,-387.5"/>
<text text-anchor="middle" x="164.5" y="-394.5" font-family="Helvetica,sans-Serif" font-size="10.00">Host Bootloader Framework</text>
</a>
</g>
</g>
<!-- Node0 -->
<g id="node9" class="node"><title>Node0</title>
<polygon fill="#bfbfbf" stroke="black" points="0,-209.5 0,-228.5 38,-228.5 38,-209.5 0,-209.5"/>
<text text-anchor="middle" x="19" y="-216.5" font-family="Helvetica,sans-Serif" font-size="10.00">Error</text>
</g>
<!-- Node1&#45;&gt;Node0 -->
<g id="edge1" class="edge"><title>Node1&#45;&gt;Node0</title>
<path fill="none" stroke="black" d="M120.821,-383.729C97.7129,-374.237 70.9136,-359.002 56,-336 32.9918,-300.514 24.0007,-249.499 21.1375,-228.54"/>
<polygon fill="black" stroke="black" points="119.864,-387.112 130.454,-387.452 122.388,-380.582 119.864,-387.112"/>
</g>
<!-- Node0&#45;&gt;Node8 -->
<g id="edge9" class="edge"><title>Node0&#45;&gt;Node8</title>
<path fill="none" stroke="blueviolet" stroke-dasharray="5,2" d="M23.0772,-228.797C28.2434,-244.279 39.7174,-274.91 56,-297 70.1911,-316.253 75.0518,-321.458 96,-333 103.357,-337.054 111.652,-340.303 119.845,-342.886"/>
<text text-anchor="middle" x="67" y="-324" font-family="Helvetica,sans-Serif" font-size="10.00">blfwk</text>
</g>
<!-- Node0&#45;&gt;Node6 -->
<g id="edge7" class="edge"><title>Node0&#45;&gt;Node6</title>
<path fill="none" stroke="blueviolet" stroke-dasharray="5,2" d="M26.4208,-228.631C38.0908,-245.267 64.5069,-279.127 96,-295 107.198,-300.644 120.312,-304.822 131.987,-307.8"/>
<text text-anchor="middle" x="67" y="-285" font-family="Helvetica,sans-Serif" font-size="10.00">blfwk</text>
</g>
<!-- Node0&#45;&gt;Node3 -->
<g id="edge4" class="edge"><title>Node0&#45;&gt;Node3</title>
<path fill="none" stroke="blueviolet" stroke-dasharray="5,2" d="M34.3956,-228.563C40.8583,-232.654 48.6657,-237.325 56,-241 77.8468,-251.947 103.87,-260.525 124.839,-266.448"/>
<text text-anchor="middle" x="67" y="-252" font-family="Helvetica,sans-Serif" font-size="10.00">blfwk</text>
</g>
<!-- Node0&#45;&gt;Node2 -->
<g id="edge3" class="edge"><title>Node0&#45;&gt;Node2</title>
<path fill="none" stroke="blueviolet" stroke-dasharray="5,2" d="M38.1744,-221.406C57.8584,-224.013 90.0412,-228.274 116.865,-231.825"/>
<text text-anchor="middle" x="67" y="-229" font-family="Helvetica,sans-Serif" font-size="10.00">blfwk</text>
</g>
<!-- Node0&#45;&gt;Node11 -->
<g id="edge12" class="edge"><title>Node0&#45;&gt;Node11</title>
<path fill="none" stroke="blueviolet" stroke-dasharray="5,2" d="M38.1612,-213.242C43.8242,-211.64 50.1258,-210.052 56,-209 74.6195,-205.665 95.2799,-203.561 113.473,-202.235"/>
<text text-anchor="middle" x="67" y="-212" font-family="Helvetica,sans-Serif" font-size="10.00">blfwk</text>
</g>
<!-- Node0&#45;&gt;Node9 -->
<g id="edge10" class="edge"><title>Node0&#45;&gt;Node9</title>
<path fill="none" stroke="blueviolet" stroke-dasharray="5,2" d="M29.5898,-209.371C36.4195,-203.019 46.1079,-194.981 56,-190 82.8717,-176.469 116.912,-169.032 139.406,-165.286"/>
<text text-anchor="middle" x="67" y="-193" font-family="Helvetica,sans-Serif" font-size="10.00">blfwk</text>
</g>
<!-- Node0&#45;&gt;Node10 -->
<g id="edge11" class="edge"><title>Node0&#45;&gt;Node10</title>
<path fill="none" stroke="blueviolet" stroke-dasharray="5,2" d="M24.7655,-209.429C30.8113,-198.013 42.1381,-178.862 56,-166 73.2588,-149.987 97.3213,-139.825 118.306,-133.517"/>
<text text-anchor="middle" x="67" y="-169" font-family="Helvetica,sans-Serif" font-size="10.00">blfwk</text>
</g>
<!-- Node0&#45;&gt;Node1 -->
<g id="edge2" class="edge"><title>Node0&#45;&gt;Node1</title>
<path fill="none" stroke="blueviolet" stroke-dasharray="5,2" d="M19.547,-228.655C18.9114,-253.75 20.7287,-321.73 56,-360 68.3732,-373.425 85.8398,-381.979 103.104,-387.43"/>
<text text-anchor="middle" x="67" y="-379" font-family="Helvetica,sans-Serif" font-size="10.00">blfwk</text>
</g>
<!-- Node4 -->
<g id="node10" class="node"><title>Node4</title>
<g id="a_node10"><a xlink:href="group__host__commands.html" target="_top" xlink:title="Command support. ">
<polygon fill="white" stroke="black" points="131.5,-76.5 131.5,-95.5 197.5,-95.5 197.5,-76.5 131.5,-76.5"/>
<text text-anchor="middle" x="164.5" y="-83.5" font-family="Helvetica,sans-Serif" font-size="10.00">Commands</text>
</a>
</g>
</g>
<!-- Node0&#45;&gt;Node4 -->
<g id="edge5" class="edge"><title>Node0&#45;&gt;Node4</title>
<path fill="none" stroke="blueviolet" stroke-dasharray="5,2" d="M22.4367,-209.479C26.9624,-193.152 37.8869,-159.321 56,-136 69.7965,-118.237 75.9151,-115.123 96,-105 106.98,-99.466 119.803,-95.3412 131.305,-92.3751"/>
<text text-anchor="middle" x="67" y="-139" font-family="Helvetica,sans-Serif" font-size="10.00">blfwk</text>
</g>
<!-- Node5 -->
<g id="node11" class="node"><title>Node5</title>
<g id="a_node11"><a xlink:href="group__host__packetizers.html" target="_top" xlink:title="Packet creation. ">
<polygon fill="white" stroke="black" points="130.5,-38.5 130.5,-57.5 198.5,-57.5 198.5,-38.5 130.5,-38.5"/>
<text text-anchor="middle" x="164.5" y="-45.5" font-family="Helvetica,sans-Serif" font-size="10.00">Packetizers</text>
</a>
</g>
</g>
<!-- Node0&#45;&gt;Node5 -->
<g id="edge6" class="edge"><title>Node0&#45;&gt;Node5</title>
<path fill="none" stroke="blueviolet" stroke-dasharray="5,2" d="M20.9205,-209.462C23.3795,-188.017 31.662,-135.056 56,-99 72.8734,-74.0027 105.466,-60.9299 130.359,-54.3107"/>
<text text-anchor="middle" x="67" y="-102" font-family="Helvetica,sans-Serif" font-size="10.00">blfwk</text>
</g>
<!-- Node7 -->
<g id="node12" class="node"><title>Node7</title>
<g id="a_node12"><a xlink:href="group__serial__packetizer.html" target="_top" xlink:title="Serial Packet creation. ">
<polygon fill="white" stroke="black" points="119,-0.5 119,-19.5 210,-19.5 210,-0.5 119,-0.5"/>
<text text-anchor="middle" x="164.5" y="-7.5" font-family="Helvetica,sans-Serif" font-size="10.00">Serial Packetizer</text>
</a>
</g>
</g>
<!-- Node0&#45;&gt;Node7 -->
<g id="edge8" class="edge"><title>Node0&#45;&gt;Node7</title>
<path fill="none" stroke="blueviolet" stroke-dasharray="5,2" d="M20.1651,-209.445C21.0147,-183.813 26.0961,-112.154 56,-63 68.1268,-43.0667 75.407,-39.9692 96,-29 103.199,-25.1653 111.253,-22.0364 119.222,-19.5065"/>
<text text-anchor="middle" x="67" y="-66" font-family="Helvetica,sans-Serif" font-size="10.00">blfwk</text>
</g>
</g>
</svg>
