<?xml version="1.0" encoding="UTF-8" standalone="no"?>
<!DOCTYPE svg PUBLIC "-//W3C//DTD SVG 1.1//EN"
 "http://www.w3.org/Graphics/SVG/1.1/DTD/svg11.dtd">
<!-- Generated by graphviz version 2.38.0 (20140413.2041)
 -->
<!-- Title: Commands Pages: 1 -->
<svg width="269pt" height="415pt"
 viewBox="0.00 0.00 269.00 415.00" xmlns="http://www.w3.org/2000/svg" xmlns:xlink="http://www.w3.org/1999/xlink">
<g id="graph0" class="graph" transform="scale(1 1) rotate(0) translate(4 411)">
<title>Commands</title>
<polygon fill="white" stroke="none" points="-4,4 -4,-411 265,-411 265,4 -4,4"/>
<!-- Node8 -->
<g id="node1" class="node"><title>Node8</title>
<g id="a_node1"><a xlink:href="group__uart__peripheral.html" target="_top" xlink:title="UART Peripheral. ">
<polygon fill="white" stroke="black" points="148,-342.5 148,-361.5 237,-361.5 237,-342.5 148,-342.5"/>
<text text-anchor="middle" x="192.5" y="-349.5" font-family="Helvetica,sans-Serif" font-size="10.00">UART Peripheral</text>
</a>
</g>
</g>
<!-- Node6 -->
<g id="node2" class="node"><title>Node6</title>
<g id="a_node2"><a xlink:href="group__host__peripherals.html" target="_top" xlink:title="Peripheral support. ">
<polygon fill="white" stroke="black" points="160,-304.5 160,-323.5 225,-323.5 225,-304.5 160,-304.5"/>
<text text-anchor="middle" x="192.5" y="-311.5" font-family="Helvetica,sans-Serif" font-size="10.00">Peripherals</text>
</a>
</g>
</g>
<!-- Node4 -->
<g id="node3" class="node"><title>Node4</title>
<g id="a_node3"><a xlink:href="group__bus__pal__peripheral.html" target="_top" xlink:title="Bus Pal Peripheral. ">
<polygon fill="white" stroke="black" points="143.5,-266.5 143.5,-285.5 241.5,-285.5 241.5,-266.5 143.5,-266.5"/>
<text text-anchor="middle" x="192.5" y="-273.5" font-family="Helvetica,sans-Serif" font-size="10.00">Bus Pal Peripheral</text>
</a>
</g>
</g>
<!-- Node3 -->
<g id="node4" class="node"><title>Node3</title>
<g id="a_node4"><a xlink:href="group__bus__pal.html" target="_top" xlink:title="Bus Pal transport support. ">
<polygon fill="white" stroke="black" points="145,-228.5 145,-247.5 240,-247.5 240,-228.5 145,-228.5"/>
<text text-anchor="middle" x="192.5" y="-235.5" font-family="Helvetica,sans-Serif" font-size="10.00">Bus Pal Transport</text>
</a>
</g>
</g>
<!-- Node11 -->
<g id="node5" class="node"><title>Node11</title>
<g id="a_node5"><a xlink:href="group__host__usb__hid__peripheral.html" target="_top" xlink:title="USB&#45;HID Peripheral. ">
<polygon fill="white" stroke="black" points="141.5,-190.5 141.5,-209.5 243.5,-209.5 243.5,-190.5 141.5,-190.5"/>
<text text-anchor="middle" x="192.5" y="-197.5" font-family="Helvetica,sans-Serif" font-size="10.00">USB&#45;HID Peripheral</text>
</a>
</g>
</g>
<!-- Node9 -->
<g id="node6" class="node"><title>Node9</title>
<g id="a_node6"><a xlink:href="group__host__updater.html" target="_top" xlink:title="Updater application support. ">
<polygon fill="white" stroke="black" points="167.5,-152.5 167.5,-171.5 217.5,-171.5 217.5,-152.5 167.5,-152.5"/>
<text text-anchor="middle" x="192.5" y="-159.5" font-family="Helvetica,sans-Serif" font-size="10.00">Updater</text>
</a>
</g>
</g>
<!-- Node10 -->
<g id="node7" class="node"><title>Node10</title>
<g id="a_node7"><a xlink:href="group__usb__hid__packetizer.html" target="_top" xlink:title="USB&#45;HID Packet creation. ">
<polygon fill="white" stroke="black" points="140,-114.5 140,-133.5 245,-133.5 245,-114.5 140,-114.5"/>
<text text-anchor="middle" x="192.5" y="-121.5" font-family="Helvetica,sans-Serif" font-size="10.00">USB&#45;HID Packetizer</text>
</a>
</g>
</g>
<!-- Node1 -->
<g id="node8" class="node"><title>Node1</title>
<g id="a_node8"><a xlink:href="group__blfwk.html" target="_top" xlink:title="Host Bootloader components. ">
<polygon fill="white" stroke="black" points="124,-387.5 124,-406.5 261,-406.5 261,-387.5 124,-387.5"/>
<text text-anchor="middle" x="192.5" y="-394.5" font-family="Helvetica,sans-Serif" font-size="10.00">Host Bootloader Framework</text>
</a>
</g>
</g>
<!-- Node0 -->
<g id="node10" class="node"><title>Node0</title>
<polygon fill="#bfbfbf" stroke="black" points="0,-209.5 0,-228.5 66,-228.5 66,-209.5 0,-209.5"/>
<text text-anchor="middle" x="33" y="-216.5" font-family="Helvetica,sans-Serif" font-size="10.00">Commands</text>
</g>
<!-- Node1&#45;&gt;Node0 -->
<g id="edge1" class="edge"><title>Node1&#45;&gt;Node0</title>
<path fill="none" stroke="black" d="M149.942,-383.841C141.076,-380.262 131.985,-375.973 124,-371 103.444,-358.197 98.0164,-353.749 84,-334 59.051,-298.848 42.7847,-249.278 36.6947,-228.621"/>
<polygon fill="black" stroke="black" points="148.821,-387.16 159.412,-387.446 151.311,-380.617 148.821,-387.16"/>
</g>
<!-- Node2 -->
<g id="node9" class="node"><title>Node2</title>
<g id="a_node9"><a xlink:href="group__host__error.html" target="_top" xlink:title="Errors. ">
<polygon fill="white" stroke="black" points="173.5,-76.5 173.5,-95.5 211.5,-95.5 211.5,-76.5 173.5,-76.5"/>
<text text-anchor="middle" x="192.5" y="-83.5" font-family="Helvetica,sans-Serif" font-size="10.00">Error</text>
</a>
</g>
</g>
<!-- Node0&#45;&gt;Node8 -->
<g id="edge9" class="edge"><title>Node0&#45;&gt;Node8</title>
<path fill="none" stroke="blueviolet" stroke-dasharray="5,2" d="M38.3463,-228.838C49.0712,-251.783 79.2164,-308.732 124,-333 131.385,-337.002 139.693,-340.227 147.89,-342.803"/>
<text text-anchor="middle" x="95" y="-322" font-family="Helvetica,sans-Serif" font-size="10.00">blfwk</text>
</g>
<!-- Node0&#45;&gt;Node6 -->
<g id="edge7" class="edge"><title>Node0&#45;&gt;Node6</title>
<path fill="none" stroke="blueviolet" stroke-dasharray="5,2" d="M42.3808,-228.633C57.1508,-244.964 89.531,-277.968 124,-295 135.133,-300.501 148.11,-304.635 159.694,-307.617"/>
<text text-anchor="middle" x="95" y="-286" font-family="Helvetica,sans-Serif" font-size="10.00">blfwk</text>
</g>
<!-- Node0&#45;&gt;Node4 -->
<g id="edge5" class="edge"><title>Node0&#45;&gt;Node4</title>
<path fill="none" stroke="blueviolet" stroke-dasharray="5,2" d="M53.805,-228.511C62.9311,-232.79 73.946,-237.809 84,-242 101.525,-249.305 105.957,-251.089 124,-257 134.065,-260.297 145.085,-263.548 155.248,-266.403"/>
<text text-anchor="middle" x="95" y="-253" font-family="Helvetica,sans-Serif" font-size="10.00">blfwk</text>
</g>
<!-- Node0&#45;&gt;Node3 -->
<g id="edge4" class="edge"><title>Node0&#45;&gt;Node3</title>
<path fill="none" stroke="blueviolet" stroke-dasharray="5,2" d="M66.2525,-222.891C88.9319,-225.627 119.627,-229.33 144.954,-232.385"/>
<text text-anchor="middle" x="95" y="-230" font-family="Helvetica,sans-Serif" font-size="10.00">blfwk</text>
</g>
<!-- Node0&#45;&gt;Node11 -->
<g id="edge12" class="edge"><title>Node0&#45;&gt;Node11</title>
<path fill="none" stroke="blueviolet" stroke-dasharray="5,2" d="M66.2118,-212.785C72.1148,-211.765 78.2321,-210.786 84,-210 102.665,-207.457 123.243,-205.369 141.355,-203.771"/>
<text text-anchor="middle" x="95" y="-213" font-family="Helvetica,sans-Serif" font-size="10.00">blfwk</text>
</g>
<!-- Node0&#45;&gt;Node9 -->
<g id="edge10" class="edge"><title>Node0&#45;&gt;Node9</title>
<path fill="none" stroke="blueviolet" stroke-dasharray="5,2" d="M49.7712,-209.305C59.3995,-203.688 72.1073,-196.8 84,-192 111.67,-180.831 144.952,-172.243 167.08,-167.173"/>
<text text-anchor="middle" x="95" y="-195" font-family="Helvetica,sans-Serif" font-size="10.00">blfwk</text>
</g>
<!-- Node0&#45;&gt;Node10 -->
<g id="edge11" class="edge"><title>Node0&#45;&gt;Node10</title>
<path fill="none" stroke="blueviolet" stroke-dasharray="5,2" d="M42.0325,-209.385C56.5158,-192.774 88.7926,-158.95 124,-143 132.206,-139.282 141.308,-136.126 150.102,-133.518"/>
<text text-anchor="middle" x="95" y="-169" font-family="Helvetica,sans-Serif" font-size="10.00">blfwk</text>
</g>
<!-- Node0&#45;&gt;Node1 -->
<g id="edge3" class="edge"><title>Node0&#45;&gt;Node1</title>
<path fill="none" stroke="blueviolet" stroke-dasharray="5,2" d="M34.6273,-228.726C36.7769,-253.99 45.9918,-322.343 84,-360 97.5306,-373.405 116.135,-381.962 134.066,-387.42"/>
<text text-anchor="middle" x="95" y="-377" font-family="Helvetica,sans-Serif" font-size="10.00">blfwk</text>
</g>
<!-- Node0&#45;&gt;Node2 -->
<g id="edge2" class="edge"><title>Node0&#45;&gt;Node2</title>
<path fill="none" stroke="blueviolet" stroke-dasharray="5,2" d="M38.1435,-209.416C48.6284,-186.51 78.6455,-128.733 124,-105 139.641,-96.8157 159.218,-91.8072 173.256,-89.0025"/>
<text text-anchor="middle" x="95" y="-139" font-family="Helvetica,sans-Serif" font-size="10.00">blfwk</text>
</g>
<!-- Node5 -->
<g id="node11" class="node"><title>Node5</title>
<g id="a_node11"><a xlink:href="group__host__packetizers.html" target="_top" xlink:title="Packet creation. ">
<polygon fill="white" stroke="black" points="158.5,-38.5 158.5,-57.5 226.5,-57.5 226.5,-38.5 158.5,-38.5"/>
<text text-anchor="middle" x="192.5" y="-45.5" font-family="Helvetica,sans-Serif" font-size="10.00">Packetizers</text>
</a>
</g>
</g>
<!-- Node0&#45;&gt;Node5 -->
<g id="edge6" class="edge"><title>Node0&#45;&gt;Node5</title>
<path fill="none" stroke="blueviolet" stroke-dasharray="5,2" d="M36.4919,-209.473C42.2873,-188.54 58.1764,-137.573 84,-102 97.8772,-82.8833 103.231,-78.2548 124,-67 134.597,-61.2577 147.092,-57.1152 158.433,-54.194"/>
<text text-anchor="middle" x="95" y="-105" font-family="Helvetica,sans-Serif" font-size="10.00">blfwk</text>
</g>
<!-- Node7 -->
<g id="node12" class="node"><title>Node7</title>
<g id="a_node12"><a xlink:href="group__serial__packetizer.html" target="_top" xlink:title="Serial Packet creation. ">
<polygon fill="white" stroke="black" points="147,-0.5 147,-19.5 238,-19.5 238,-0.5 147,-0.5"/>
<text text-anchor="middle" x="192.5" y="-7.5" font-family="Helvetica,sans-Serif" font-size="10.00">Serial Packetizer</text>
</a>
</g>
</g>
<!-- Node0&#45;&gt;Node7 -->
<g id="edge8" class="edge"><title>Node0&#45;&gt;Node7</title>
<path fill="none" stroke="blueviolet" stroke-dasharray="5,2" d="M35.2038,-209.425C38.8033,-183.745 51.3325,-111.977 84,-63 96.9469,-43.5894 103.407,-39.9692 124,-29 131.199,-25.1653 139.253,-22.0364 147.222,-19.5065"/>
<text text-anchor="middle" x="95" y="-66" font-family="Helvetica,sans-Serif" font-size="10.00">blfwk</text>
</g>
</g>
</svg>
