<?xml version="1.0" encoding="UTF-8" standalone="no"?>
<!DOCTYPE svg PUBLIC "-//W3C//DTD SVG 1.1//EN"
 "http://www.w3.org/Graphics/SVG/1.1/DTD/svg11.dtd">
<!-- Generated by graphviz version 2.38.0 (20140413.2041)
 -->
<!-- Title: Bus Pal Transport Pages: 1 -->
<svg width="298pt" height="415pt"
 viewBox="0.00 0.00 298.00 415.00" xmlns="http://www.w3.org/2000/svg" xmlns:xlink="http://www.w3.org/1999/xlink">
<g id="graph0" class="graph" transform="scale(1 1) rotate(0) translate(4 411)">
<title>Bus Pal Transport</title>
<polygon fill="white" stroke="none" points="-4,4 -4,-411 294,-411 294,4 -4,4"/>
<!-- Node8 -->
<g id="node1" class="node"><title>Node8</title>
<g id="a_node1"><a xlink:href="group__uart__peripheral.html" target="_top" xlink:title="UART Peripheral. ">
<polygon fill="white" stroke="black" points="177,-387.5 177,-406.5 266,-406.5 266,-387.5 177,-387.5"/>
<text text-anchor="middle" x="221.5" y="-394.5" font-family="Helvetica,sans-Serif" font-size="10.00">UART Peripheral</text>
</a>
</g>
</g>
<!-- Node6 -->
<g id="node2" class="node"><title>Node6</title>
<g id="a_node2"><a xlink:href="group__host__peripherals.html" target="_top" xlink:title="Peripheral support. ">
<polygon fill="white" stroke="black" points="189,-349.5 189,-368.5 254,-368.5 254,-349.5 189,-349.5"/>
<text text-anchor="middle" x="221.5" y="-356.5" font-family="Helvetica,sans-Serif" font-size="10.00">Peripherals</text>
</a>
</g>
</g>
<!-- Node3 -->
<g id="node3" class="node"><title>Node3</title>
<g id="a_node3"><a xlink:href="group__bus__pal__peripheral.html" target="_top" xlink:title="Bus Pal Peripheral. ">
<polygon fill="white" stroke="black" points="172.5,-311.5 172.5,-330.5 270.5,-330.5 270.5,-311.5 172.5,-311.5"/>
<text text-anchor="middle" x="221.5" y="-318.5" font-family="Helvetica,sans-Serif" font-size="10.00">Bus Pal Peripheral</text>
</a>
</g>
</g>
<!-- Node0 -->
<g id="node4" class="node"><title>Node0</title>
<polygon fill="#bfbfbf" stroke="black" points="0,-186.5 0,-205.5 95,-205.5 95,-186.5 0,-186.5"/>
<text text-anchor="middle" x="47.5" y="-193.5" font-family="Helvetica,sans-Serif" font-size="10.00">Bus Pal Transport</text>
</g>
<!-- Node0&#45;&gt;Node8 -->
<g id="edge9" class="edge"><title>Node0&#45;&gt;Node8</title>
<path fill="none" stroke="blueviolet" stroke-dasharray="5,2" d="M51.2444,-205.504C58.5372,-229.722 80.1161,-295.078 113,-341 127.099,-360.689 131.87,-366.169 153,-378 160.329,-382.104 168.612,-385.376 176.8,-387.966"/>
<text text-anchor="middle" x="124" y="-369" font-family="Helvetica,sans-Serif" font-size="10.00">blfwk</text>
</g>
<!-- Node0&#45;&gt;Node6 -->
<g id="edge7" class="edge"><title>Node0&#45;&gt;Node6</title>
<path fill="none" stroke="blueviolet" stroke-dasharray="5,2" d="M52.056,-205.629C62.5866,-232.582 96.4563,-308.845 153,-340 163.983,-346.051 177.055,-350.309 188.757,-353.237"/>
<text text-anchor="middle" x="124" y="-329" font-family="Helvetica,sans-Serif" font-size="10.00">blfwk</text>
</g>
<!-- Node0&#45;&gt;Node3 -->
<g id="edge4" class="edge"><title>Node0&#45;&gt;Node3</title>
<path fill="none" stroke="blueviolet" stroke-dasharray="5,2" d="M54.7399,-205.558C69.1837,-226.819 107.207,-278.038 153,-302 160.227,-305.782 168.295,-308.885 176.268,-311.407"/>
<text text-anchor="middle" x="124" y="-292" font-family="Helvetica,sans-Serif" font-size="10.00">blfwk</text>
</g>
<!-- Node11 -->
<g id="node5" class="node"><title>Node11</title>
<g id="a_node5"><a xlink:href="group__host__usb__hid__peripheral.html" target="_top" xlink:title="USB&#45;HID Peripheral. ">
<polygon fill="white" stroke="black" points="170.5,-273.5 170.5,-292.5 272.5,-292.5 272.5,-273.5 170.5,-273.5"/>
<text text-anchor="middle" x="221.5" y="-280.5" font-family="Helvetica,sans-Serif" font-size="10.00">USB&#45;HID Peripheral</text>
</a>
</g>
</g>
<!-- Node0&#45;&gt;Node11 -->
<g id="edge12" class="edge"><title>Node0&#45;&gt;Node11</title>
<path fill="none" stroke="blueviolet" stroke-dasharray="5,2" d="M60.6532,-205.683C79.4395,-220.227 117.12,-247.734 153,-264 161.205,-267.72 170.307,-270.877 179.101,-273.485"/>
<text text-anchor="middle" x="124" y="-257" font-family="Helvetica,sans-Serif" font-size="10.00">blfwk</text>
</g>
<!-- Node9 -->
<g id="node6" class="node"><title>Node9</title>
<g id="a_node6"><a xlink:href="group__host__updater.html" target="_top" xlink:title="Updater application support. ">
<polygon fill="white" stroke="black" points="196.5,-235.5 196.5,-254.5 246.5,-254.5 246.5,-235.5 196.5,-235.5"/>
<text text-anchor="middle" x="221.5" y="-242.5" font-family="Helvetica,sans-Serif" font-size="10.00">Updater</text>
</a>
</g>
</g>
<!-- Node0&#45;&gt;Node9 -->
<g id="edge10" class="edge"><title>Node0&#45;&gt;Node9</title>
<path fill="none" stroke="blueviolet" stroke-dasharray="5,2" d="M78.6189,-205.593C89.4343,-208.971 101.739,-212.737 113,-216 141.407,-224.233 174.257,-232.983 196.092,-238.692"/>
<text text-anchor="middle" x="124" y="-224" font-family="Helvetica,sans-Serif" font-size="10.00">blfwk</text>
</g>
<!-- Node10 -->
<g id="node7" class="node"><title>Node10</title>
<g id="a_node7"><a xlink:href="group__usb__hid__packetizer.html" target="_top" xlink:title="USB&#45;HID Packet creation. ">
<polygon fill="white" stroke="black" points="169,-197.5 169,-216.5 274,-216.5 274,-197.5 169,-197.5"/>
<text text-anchor="middle" x="221.5" y="-204.5" font-family="Helvetica,sans-Serif" font-size="10.00">USB&#45;HID Packetizer</text>
</a>
</g>
</g>
<!-- Node0&#45;&gt;Node10 -->
<g id="edge11" class="edge"><title>Node0&#45;&gt;Node10</title>
<path fill="none" stroke="blueviolet" stroke-dasharray="5,2" d="M95.0457,-198.977C117.829,-200.434 145.328,-202.193 168.768,-203.692"/>
<text text-anchor="middle" x="124" y="-204" font-family="Helvetica,sans-Serif" font-size="10.00">blfwk</text>
</g>
<!-- Node1 -->
<g id="node8" class="node"><title>Node1</title>
<g id="a_node8"><a xlink:href="group__blfwk.html" target="_top" xlink:title="Host Bootloader components. ">
<polygon fill="white" stroke="black" points="153,-156.5 153,-175.5 290,-175.5 290,-156.5 153,-156.5"/>
<text text-anchor="middle" x="221.5" y="-163.5" font-family="Helvetica,sans-Serif" font-size="10.00">Host Bootloader Framework</text>
</a>
</g>
</g>
<!-- Node0&#45;&gt;Node1 -->
<g id="edge3" class="edge"><title>Node0&#45;&gt;Node1</title>
<path fill="none" stroke="blueviolet" stroke-dasharray="5,2" d="M95.0457,-187.882C116.933,-184.064 143.174,-179.487 165.986,-175.508"/>
<text text-anchor="middle" x="124" y="-187" font-family="Helvetica,sans-Serif" font-size="10.00">blfwk</text>
</g>
<!-- Node2 -->
<g id="node9" class="node"><title>Node2</title>
<g id="a_node9"><a xlink:href="group__host__error.html" target="_top" xlink:title="Errors. ">
<polygon fill="white" stroke="black" points="202.5,-114.5 202.5,-133.5 240.5,-133.5 240.5,-114.5 202.5,-114.5"/>
<text text-anchor="middle" x="221.5" y="-121.5" font-family="Helvetica,sans-Serif" font-size="10.00">Error</text>
</a>
</g>
</g>
<!-- Node0&#45;&gt;Node2 -->
<g id="edge2" class="edge"><title>Node0&#45;&gt;Node2</title>
<path fill="none" stroke="blueviolet" stroke-dasharray="5,2" d="M56.567,-186.417C67.8092,-173.766 89.4729,-151.831 113,-141 142.178,-127.567 180.009,-124.478 202.134,-123.919"/>
<text text-anchor="middle" x="124" y="-144" font-family="Helvetica,sans-Serif" font-size="10.00">blfwk</text>
</g>
<!-- Node4 -->
<g id="node10" class="node"><title>Node4</title>
<g id="a_node10"><a xlink:href="group__host__commands.html" target="_top" xlink:title="Command support. ">
<polygon fill="white" stroke="black" points="188.5,-76.5 188.5,-95.5 254.5,-95.5 254.5,-76.5 188.5,-76.5"/>
<text text-anchor="middle" x="221.5" y="-83.5" font-family="Helvetica,sans-Serif" font-size="10.00">Commands</text>
</a>
</g>
</g>
<!-- Node0&#45;&gt;Node4 -->
<g id="edge5" class="edge"><title>Node0&#45;&gt;Node4</title>
<path fill="none" stroke="blueviolet" stroke-dasharray="5,2" d="M53.9522,-186.345C63.7009,-169.932 85.6799,-136.572 113,-118 135.545,-102.674 165.582,-94.5401 188.174,-90.316"/>
<text text-anchor="middle" x="124" y="-121" font-family="Helvetica,sans-Serif" font-size="10.00">blfwk</text>
</g>
<!-- Node5 -->
<g id="node11" class="node"><title>Node5</title>
<g id="a_node11"><a xlink:href="group__host__packetizers.html" target="_top" xlink:title="Packet creation. ">
<polygon fill="white" stroke="black" points="187.5,-38.5 187.5,-57.5 255.5,-57.5 255.5,-38.5 187.5,-38.5"/>
<text text-anchor="middle" x="221.5" y="-45.5" font-family="Helvetica,sans-Serif" font-size="10.00">Packetizers</text>
</a>
</g>
</g>
<!-- Node0&#45;&gt;Node5 -->
<g id="edge6" class="edge"><title>Node0&#45;&gt;Node5</title>
<path fill="none" stroke="blueviolet" stroke-dasharray="5,2" d="M52.5568,-186.261C61.2203,-166.375 83.1953,-120.495 113,-91 133.145,-71.0639 163.71,-60.0442 187.106,-54.1667"/>
<text text-anchor="middle" x="124" y="-94" font-family="Helvetica,sans-Serif" font-size="10.00">blfwk</text>
</g>
<!-- Node7 -->
<g id="node12" class="node"><title>Node7</title>
<g id="a_node12"><a xlink:href="group__serial__packetizer.html" target="_top" xlink:title="Serial Packet creation. ">
<polygon fill="white" stroke="black" points="176,-0.5 176,-19.5 267,-19.5 267,-0.5 176,-0.5"/>
<text text-anchor="middle" x="221.5" y="-7.5" font-family="Helvetica,sans-Serif" font-size="10.00">Serial Packetizer</text>
</a>
</g>
</g>
<!-- Node0&#45;&gt;Node7 -->
<g id="edge8" class="edge"><title>Node0&#45;&gt;Node7</title>
<path fill="none" stroke="blueviolet" stroke-dasharray="5,2" d="M51.375,-186.242C58.6794,-162.635 79.7609,-101.343 113,-60 127.093,-42.4711 132.915,-39.1229 153,-29 160.501,-25.2193 168.863,-22.0964 177.075,-19.5512"/>
<text text-anchor="middle" x="124" y="-63" font-family="Helvetica,sans-Serif" font-size="10.00">blfwk</text>
</g>
<!-- Node1&#45;&gt;Node0 -->
<g id="edge1" class="edge"><title>Node1&#45;&gt;Node0</title>
<path fill="none" stroke="black" d="M155.756,-155.953C141.506,-155.517 126.611,-156.459 113,-160 93.3909,-165.102 73.4174,-177.619 60.9988,-186.455"/>
<polygon fill="black" stroke="black" points="155.819,-159.462 165.991,-156.497 156.19,-152.472 155.819,-159.462"/>
</g>
</g>
</svg>
