<?xml version="1.0" encoding="UTF-8" standalone="no"?>
<!DOCTYPE svg PUBLIC "-//W3C//DTD SVG 1.1//EN"
 "http://www.w3.org/Graphics/SVG/1.1/DTD/svg11.dtd">
<!-- Generated by graphviz version 2.38.0 (20140413.2041)
 -->
<!-- Title: USB&#45;HID Peripheral Pages: 1 -->
<svg width="305pt" height="415pt"
 viewBox="0.00 0.00 305.00 415.00" xmlns="http://www.w3.org/2000/svg" xmlns:xlink="http://www.w3.org/1999/xlink">
<g id="graph0" class="graph" transform="scale(1 1) rotate(0) translate(4 411)">
<title>USB&#45;HID Peripheral</title>
<polygon fill="white" stroke="none" points="-4,4 -4,-411 301,-411 301,4 -4,4"/>
<!-- Node9 -->
<g id="node1" class="node"><title>Node9</title>
<g id="a_node1"><a xlink:href="group__uart__peripheral.html" target="_top" xlink:title="UART Peripheral. ">
<polygon fill="white" stroke="black" points="184,-342.5 184,-361.5 273,-361.5 273,-342.5 184,-342.5"/>
<text text-anchor="middle" x="228.5" y="-349.5" font-family="Helvetica,sans-Serif" font-size="10.00">UART Peripheral</text>
</a>
</g>
</g>
<!-- Node1 -->
<g id="node2" class="node"><title>Node1</title>
<g id="a_node2"><a xlink:href="group__host__peripherals.html" target="_top" xlink:title="Peripheral support. ">
<polygon fill="white" stroke="black" points="196,-387.5 196,-406.5 261,-406.5 261,-387.5 196,-387.5"/>
<text text-anchor="middle" x="228.5" y="-394.5" font-family="Helvetica,sans-Serif" font-size="10.00">Peripherals</text>
</a>
</g>
</g>
<!-- Node0 -->
<g id="node5" class="node"><title>Node0</title>
<polygon fill="#bfbfbf" stroke="black" points="0,-209.5 0,-228.5 102,-228.5 102,-209.5 0,-209.5"/>
<text text-anchor="middle" x="51" y="-216.5" font-family="Helvetica,sans-Serif" font-size="10.00">USB&#45;HID Peripheral</text>
</g>
<!-- Node1&#45;&gt;Node0 -->
<g id="edge1" class="edge"><title>Node1&#45;&gt;Node0</title>
<path fill="none" stroke="black" d="M186.203,-383.947C177.254,-380.346 168.063,-376.022 160,-371 102.572,-335.23 66.929,-256.555 55.7771,-228.872"/>
<polygon fill="black" stroke="black" points="185.162,-387.295 195.753,-387.568 187.644,-380.75 185.162,-387.295"/>
</g>
<!-- Node5 -->
<g id="node3" class="node"><title>Node5</title>
<g id="a_node3"><a xlink:href="group__bus__pal__peripheral.html" target="_top" xlink:title="Bus Pal Peripheral. ">
<polygon fill="white" stroke="black" points="179.5,-304.5 179.5,-323.5 277.5,-323.5 277.5,-304.5 179.5,-304.5"/>
<text text-anchor="middle" x="228.5" y="-311.5" font-family="Helvetica,sans-Serif" font-size="10.00">Bus Pal Peripheral</text>
</a>
</g>
</g>
<!-- Node4 -->
<g id="node4" class="node"><title>Node4</title>
<g id="a_node4"><a xlink:href="group__bus__pal.html" target="_top" xlink:title="Bus Pal transport support. ">
<polygon fill="white" stroke="black" points="181,-266.5 181,-285.5 276,-285.5 276,-266.5 181,-266.5"/>
<text text-anchor="middle" x="228.5" y="-273.5" font-family="Helvetica,sans-Serif" font-size="10.00">Bus Pal Transport</text>
</a>
</g>
</g>
<!-- Node0&#45;&gt;Node9 -->
<g id="edge10" class="edge"><title>Node0&#45;&gt;Node9</title>
<path fill="none" stroke="blueviolet" stroke-dasharray="5,2" d="M57.9009,-228.621C72.2515,-251.099 111.394,-307.109 160,-333 167.414,-336.949 175.735,-340.15 183.936,-342.718"/>
<text text-anchor="middle" x="131" y="-322" font-family="Helvetica,sans-Serif" font-size="10.00">blfwk</text>
</g>
<!-- Node0&#45;&gt;Node1 -->
<g id="edge8" class="edge"><title>Node0&#45;&gt;Node1</title>
<path fill="none" stroke="blueviolet" stroke-dasharray="5,2" d="M53.9398,-228.868C59.4858,-254.488 77.8043,-323.717 120,-361 141.239,-379.766 172.598,-388.811 195.971,-393.133"/>
<text text-anchor="middle" x="131" y="-377" font-family="Helvetica,sans-Serif" font-size="10.00">blfwk</text>
</g>
<!-- Node0&#45;&gt;Node5 -->
<g id="edge5" class="edge"><title>Node0&#45;&gt;Node5</title>
<path fill="none" stroke="blueviolet" stroke-dasharray="5,2" d="M62.8694,-228.575C81.5,-244.524 121.279,-276.591 160,-295 167.916,-298.764 176.719,-301.913 185.283,-304.496"/>
<text text-anchor="middle" x="131" y="-287" font-family="Helvetica,sans-Serif" font-size="10.00">blfwk</text>
</g>
<!-- Node0&#45;&gt;Node4 -->
<g id="edge4" class="edge"><title>Node0&#45;&gt;Node4</title>
<path fill="none" stroke="blueviolet" stroke-dasharray="5,2" d="M77.5902,-228.537C99.3739,-236.527 131.566,-248.032 160,-257 170.333,-260.259 181.64,-263.549 191.994,-266.453"/>
<text text-anchor="middle" x="131" y="-253" font-family="Helvetica,sans-Serif" font-size="10.00">blfwk</text>
</g>
<!-- Node10 -->
<g id="node6" class="node"><title>Node10</title>
<g id="a_node6"><a xlink:href="group__host__updater.html" target="_top" xlink:title="Updater application support. ">
<polygon fill="white" stroke="black" points="203.5,-228.5 203.5,-247.5 253.5,-247.5 253.5,-228.5 203.5,-228.5"/>
<text text-anchor="middle" x="228.5" y="-235.5" font-family="Helvetica,sans-Serif" font-size="10.00">Updater</text>
</a>
</g>
</g>
<!-- Node0&#45;&gt;Node10 -->
<g id="edge11" class="edge"><title>Node0&#45;&gt;Node10</title>
<path fill="none" stroke="blueviolet" stroke-dasharray="5,2" d="M102.291,-224.445C135.514,-228.041 177.556,-232.593 203.483,-235.4"/>
<text text-anchor="middle" x="131" y="-231" font-family="Helvetica,sans-Serif" font-size="10.00">blfwk</text>
</g>
<!-- Node11 -->
<g id="node7" class="node"><title>Node11</title>
<g id="a_node7"><a xlink:href="group__usb__hid__packetizer.html" target="_top" xlink:title="USB&#45;HID Packet creation. ">
<polygon fill="white" stroke="black" points="176,-190.5 176,-209.5 281,-209.5 281,-190.5 176,-190.5"/>
<text text-anchor="middle" x="228.5" y="-197.5" font-family="Helvetica,sans-Serif" font-size="10.00">USB&#45;HID Packetizer</text>
</a>
</g>
</g>
<!-- Node0&#45;&gt;Node11 -->
<g id="edge12" class="edge"><title>Node0&#45;&gt;Node11</title>
<path fill="none" stroke="blueviolet" stroke-dasharray="5,2" d="M102.124,-213.016C108.146,-212.323 114.21,-211.637 120,-211 138.182,-209 158.108,-206.928 175.812,-205.129"/>
<text text-anchor="middle" x="131" y="-214" font-family="Helvetica,sans-Serif" font-size="10.00">blfwk</text>
</g>
<!-- Node3 -->
<g id="node8" class="node"><title>Node3</title>
<g id="a_node8"><a xlink:href="group__blfwk.html" target="_top" xlink:title="Host Bootloader components. ">
<polygon fill="white" stroke="black" points="160,-152.5 160,-171.5 297,-171.5 297,-152.5 160,-152.5"/>
<text text-anchor="middle" x="228.5" y="-159.5" font-family="Helvetica,sans-Serif" font-size="10.00">Host Bootloader Framework</text>
</a>
</g>
</g>
<!-- Node0&#45;&gt;Node3 -->
<g id="edge3" class="edge"><title>Node0&#45;&gt;Node3</title>
<path fill="none" stroke="blueviolet" stroke-dasharray="5,2" d="M75.7605,-209.422C88.747,-204.312 105.165,-198.054 120,-193 137.569,-187.015 142.177,-186.181 160,-181 170.755,-177.873 182.497,-174.54 193.129,-171.553"/>
<text text-anchor="middle" x="131" y="-196" font-family="Helvetica,sans-Serif" font-size="10.00">blfwk</text>
</g>
<!-- Node2 -->
<g id="node9" class="node"><title>Node2</title>
<g id="a_node9"><a xlink:href="group__host__error.html" target="_top" xlink:title="Errors. ">
<polygon fill="white" stroke="black" points="209.5,-114.5 209.5,-133.5 247.5,-133.5 247.5,-114.5 209.5,-114.5"/>
<text text-anchor="middle" x="228.5" y="-121.5" font-family="Helvetica,sans-Serif" font-size="10.00">Error</text>
</a>
</g>
</g>
<!-- Node0&#45;&gt;Node2 -->
<g id="edge2" class="edge"><title>Node0&#45;&gt;Node2</title>
<path fill="none" stroke="blueviolet" stroke-dasharray="5,2" d="M62.8644,-209.414C81.4877,-193.45 121.257,-161.361 160,-143 175.952,-135.44 195.488,-130.349 209.431,-127.355"/>
<text text-anchor="middle" x="131" y="-167" font-family="Helvetica,sans-Serif" font-size="10.00">blfwk</text>
</g>
<!-- Node6 -->
<g id="node10" class="node"><title>Node6</title>
<g id="a_node10"><a xlink:href="group__host__commands.html" target="_top" xlink:title="Command support. ">
<polygon fill="white" stroke="black" points="195.5,-76.5 195.5,-95.5 261.5,-95.5 261.5,-76.5 195.5,-76.5"/>
<text text-anchor="middle" x="228.5" y="-83.5" font-family="Helvetica,sans-Serif" font-size="10.00">Commands</text>
</a>
</g>
</g>
<!-- Node0&#45;&gt;Node6 -->
<g id="edge6" class="edge"><title>Node0&#45;&gt;Node6</title>
<path fill="none" stroke="blueviolet" stroke-dasharray="5,2" d="M57.8757,-209.331C72.1718,-186.75 111.205,-130.533 160,-105 170.894,-99.2992 183.699,-95.1393 195.211,-92.1917"/>
<text text-anchor="middle" x="131" y="-135" font-family="Helvetica,sans-Serif" font-size="10.00">blfwk</text>
</g>
<!-- Node7 -->
<g id="node11" class="node"><title>Node7</title>
<g id="a_node11"><a xlink:href="group__host__packetizers.html" target="_top" xlink:title="Packet creation. ">
<polygon fill="white" stroke="black" points="194.5,-38.5 194.5,-57.5 262.5,-57.5 262.5,-38.5 194.5,-38.5"/>
<text text-anchor="middle" x="228.5" y="-45.5" font-family="Helvetica,sans-Serif" font-size="10.00">Packetizers</text>
</a>
</g>
</g>
<!-- Node0&#45;&gt;Node7 -->
<g id="edge7" class="edge"><title>Node0&#45;&gt;Node7</title>
<path fill="none" stroke="blueviolet" stroke-dasharray="5,2" d="M55.3963,-209.136C65.763,-180.768 100,-98.9598 160,-67 170.637,-61.3338 183.142,-57.2086 194.479,-54.2799"/>
<text text-anchor="middle" x="131" y="-100" font-family="Helvetica,sans-Serif" font-size="10.00">blfwk</text>
</g>
<!-- Node8 -->
<g id="node12" class="node"><title>Node8</title>
<g id="a_node12"><a xlink:href="group__serial__packetizer.html" target="_top" xlink:title="Serial Packet creation. ">
<polygon fill="white" stroke="black" points="183,-0.5 183,-19.5 274,-19.5 274,-0.5 183,-0.5"/>
<text text-anchor="middle" x="228.5" y="-7.5" font-family="Helvetica,sans-Serif" font-size="10.00">Serial Packetizer</text>
</a>
</g>
</g>
<!-- Node0&#45;&gt;Node8 -->
<g id="edge9" class="edge"><title>Node0&#45;&gt;Node8</title>
<path fill="none" stroke="blueviolet" stroke-dasharray="5,2" d="M54.7267,-209.251C62.1719,-183.765 84.6807,-113.758 120,-65 134.031,-45.6303 139.052,-40.5421 160,-29 167.037,-25.1225 174.933,-21.9815 182.776,-19.4549"/>
<text text-anchor="middle" x="131" y="-68" font-family="Helvetica,sans-Serif" font-size="10.00">blfwk</text>
</g>
</g>
</svg>
