<?xml version="1.0" encoding="UTF-8" standalone="no"?>
<!DOCTYPE svg PUBLIC "-//W3C//DTD SVG 1.1//EN"
 "http://www.w3.org/Graphics/SVG/1.1/DTD/svg11.dtd">
<!-- Generated by graphviz version 2.38.0 (20140413.2041)
 -->
<!-- Title: Host Bootloader Framework Pages: 1 -->
<svg width="308pt" height="581pt"
 viewBox="0.00 0.00 308.00 581.00" xmlns="http://www.w3.org/2000/svg" xmlns:xlink="http://www.w3.org/1999/xlink">
<g id="graph0" class="graph" transform="scale(1 1) rotate(0) translate(4 577)">
<title>Host Bootloader Framework</title>
<polygon fill="white" stroke="none" points="-4,4 -4,-577 304,-577 304,4 -4,4"/>
<!-- Node5 -->
<g id="node1" class="node"><title>Node5</title>
<g id="a_node1"><a xlink:href="group__logging.html" target="_top" xlink:title="Logging support. ">
<polygon fill="white" stroke="black" points="222.5,-553.5 222.5,-572.5 272.5,-572.5 272.5,-553.5 222.5,-553.5"/>
<text text-anchor="middle" x="247.5" y="-560.5" font-family="Helvetica,sans-Serif" font-size="10.00">Logging</text>
</a>
</g>
</g>
<!-- Node11 -->
<g id="node2" class="node"><title>Node11</title>
<g id="a_node2"><a xlink:href="group__uart__peripheral.html" target="_top" xlink:title="UART Peripheral. ">
<polygon fill="white" stroke="black" points="203,-515.5 203,-534.5 292,-534.5 292,-515.5 203,-515.5"/>
<text text-anchor="middle" x="247.5" y="-522.5" font-family="Helvetica,sans-Serif" font-size="10.00">UART Peripheral</text>
</a>
</g>
</g>
<!-- Node2 -->
<g id="node3" class="node"><title>Node2</title>
<g id="a_node3"><a xlink:href="group__host__peripherals.html" target="_top" xlink:title="Peripheral support. ">
<polygon fill="white" stroke="black" points="215,-469.5 215,-488.5 280,-488.5 280,-469.5 215,-469.5"/>
<text text-anchor="middle" x="247.5" y="-476.5" font-family="Helvetica,sans-Serif" font-size="10.00">Peripherals</text>
</a>
</g>
</g>
<!-- Node9 -->
<g id="node4" class="node"><title>Node9</title>
<g id="a_node4"><a xlink:href="group__bus__pal__peripheral.html" target="_top" xlink:title="Bus Pal Peripheral. ">
<polygon fill="white" stroke="black" points="198.5,-424.5 198.5,-443.5 296.5,-443.5 296.5,-424.5 198.5,-424.5"/>
<text text-anchor="middle" x="247.5" y="-431.5" font-family="Helvetica,sans-Serif" font-size="10.00">Bus Pal Peripheral</text>
</a>
</g>
</g>
<!-- Node6 -->
<g id="node5" class="node"><title>Node6</title>
<g id="a_node5"><a xlink:href="group__smart__pointer.html" target="_top" xlink:title="Smart pointer. ">
<polygon fill="white" stroke="black" points="209,-386.5 209,-405.5 286,-405.5 286,-386.5 209,-386.5"/>
<text text-anchor="middle" x="247.5" y="-393.5" font-family="Helvetica,sans-Serif" font-size="10.00">Smart Pointer</text>
</a>
</g>
</g>
<!-- Node1 -->
<g id="node6" class="node"><title>Node1</title>
<g id="a_node6"><a xlink:href="group__bus__pal.html" target="_top" xlink:title="Bus Pal transport support. ">
<polygon fill="white" stroke="black" points="200,-346.5 200,-365.5 295,-365.5 295,-346.5 200,-346.5"/>
<text text-anchor="middle" x="247.5" y="-353.5" font-family="Helvetica,sans-Serif" font-size="10.00">Bus Pal Transport</text>
</a>
</g>
</g>
<!-- Node13 -->
<g id="node7" class="node"><title>Node13</title>
<g id="a_node7"><a xlink:href="group__host__usb__hid__peripheral.html" target="_top" xlink:title="USB&#45;HID Peripheral. ">
<polygon fill="white" stroke="black" points="196.5,-304.5 196.5,-323.5 298.5,-323.5 298.5,-304.5 196.5,-304.5"/>
<text text-anchor="middle" x="247.5" y="-311.5" font-family="Helvetica,sans-Serif" font-size="10.00">USB&#45;HID Peripheral</text>
</a>
</g>
</g>
<!-- Node8 -->
<g id="node8" class="node"><title>Node8</title>
<g id="a_node8"><a xlink:href="group__host__updater.html" target="_top" xlink:title="Updater application support. ">
<polygon fill="white" stroke="black" points="222.5,-258.5 222.5,-277.5 272.5,-277.5 272.5,-258.5 222.5,-258.5"/>
<text text-anchor="middle" x="247.5" y="-265.5" font-family="Helvetica,sans-Serif" font-size="10.00">Updater</text>
</a>
</g>
</g>
<!-- Node12 -->
<g id="node9" class="node"><title>Node12</title>
<g id="a_node9"><a xlink:href="group__usb__hid__packetizer.html" target="_top" xlink:title="USB&#45;HID Packet creation. ">
<polygon fill="white" stroke="black" points="195,-211.5 195,-230.5 300,-230.5 300,-211.5 195,-211.5"/>
<text text-anchor="middle" x="247.5" y="-218.5" font-family="Helvetica,sans-Serif" font-size="10.00">USB&#45;HID Packetizer</text>
</a>
</g>
</g>
<!-- Node0 -->
<g id="node10" class="node"><title>Node0</title>
<polygon fill="#bfbfbf" stroke="black" points="0,-271.5 0,-290.5 137,-290.5 137,-271.5 0,-271.5"/>
<text text-anchor="middle" x="68.5" y="-278.5" font-family="Helvetica,sans-Serif" font-size="10.00">Host Bootloader Framework</text>
</g>
<!-- Node0&#45;&gt;Node5 -->
<g id="edge5" class="edge"><title>Node0&#45;&gt;Node5</title>
<path fill="none" stroke="black" d="M71.2943,-300.678C76.3815,-345.785 94.6958,-457.912 155,-525 172.478,-544.445 201.458,-554.195 222.12,-558.908"/>
<polygon fill="black" stroke="black" points="74.7751,-300.311 70.2684,-290.722 67.8119,-301.028 74.7751,-300.311"/>
</g>
<!-- Node0&#45;&gt;Node11 -->
<g id="edge16" class="edge"><title>Node0&#45;&gt;Node11</title>
<path fill="none" stroke="blueviolet" stroke-dasharray="5,2" d="M70.4584,-290.777C74.2848,-324.464 91.491,-436.881 155,-496 168.051,-508.149 186.177,-515.208 202.856,-519.31"/>
<text text-anchor="middle" x="166" y="-513" font-family="Helvetica,sans-Serif" font-size="10.00">blfwk</text>
</g>
<!-- Node0&#45;&gt;Node2 -->
<g id="edge2" class="edge"><title>Node0&#45;&gt;Node2</title>
<path fill="none" stroke="black" d="M71.2482,-300.819C76.086,-342.193 93.6745,-437.283 155,-478 172.338,-489.511 195.891,-489.503 214.759,-486.751"/>
<polygon fill="black" stroke="black" points="74.708,-300.249 70.196,-290.663 67.7453,-300.971 74.708,-300.249"/>
</g>
<!-- Node0&#45;&gt;Node2 -->
<g id="edge14" class="edge"><title>Node0&#45;&gt;Node2</title>
<path fill="none" stroke="blueviolet" stroke-dasharray="5,2" d="M73.8385,-290.694C84.915,-314.757 116.128,-378.414 155,-422 174.308,-443.65 203.779,-459.979 224.027,-469.494"/>
<text text-anchor="middle" x="166" y="-444" font-family="Helvetica,sans-Serif" font-size="10.00">blfwk</text>
</g>
<!-- Node0&#45;&gt;Node9 -->
<g id="edge11" class="edge"><title>Node0&#45;&gt;Node9</title>
<path fill="none" stroke="blueviolet" stroke-dasharray="5,2" d="M74.7751,-290.603C86.7072,-311.62 117.659,-362.34 155,-394 171.662,-408.127 194.088,-418.038 212.568,-424.46"/>
<text text-anchor="middle" x="166" y="-410" font-family="Helvetica,sans-Serif" font-size="10.00">blfwk</text>
</g>
<!-- Node0&#45;&gt;Node6 -->
<g id="edge6" class="edge"><title>Node0&#45;&gt;Node6</title>
<path fill="none" stroke="black" d="M80.7365,-299.259C95.1524,-321.061 122.248,-356.96 155,-376 171.307,-385.48 191.623,-390.475 208.966,-393.103"/>
<polygon fill="black" stroke="black" points="83.5345,-297.139 75.1923,-290.607 77.6406,-300.915 83.5345,-297.139"/>
</g>
<!-- Node0&#45;&gt;Node1 -->
<g id="edge1" class="edge"><title>Node0&#45;&gt;Node1</title>
<path fill="none" stroke="black" d="M82.0536,-298.72C96.9218,-318.009 123.664,-347.739 155,-360 168.919,-365.446 184.953,-366.353 199.672,-365.321"/>
<polygon fill="black" stroke="black" points="84.8598,-296.629 76.0839,-290.693 79.2427,-300.806 84.8598,-296.629"/>
</g>
<!-- Node0&#45;&gt;Node1 -->
<g id="edge10" class="edge"><title>Node0&#45;&gt;Node1</title>
<path fill="none" stroke="blueviolet" stroke-dasharray="5,2" d="M92.2773,-290.651C126.264,-305.052 189.875,-332.006 223.81,-346.386"/>
<text text-anchor="middle" x="166" y="-328" font-family="Helvetica,sans-Serif" font-size="10.00">blfwk</text>
</g>
<!-- Node0&#45;&gt;Node13 -->
<g id="edge19" class="edge"><title>Node0&#45;&gt;Node13</title>
<path fill="none" stroke="blueviolet" stroke-dasharray="5,2" d="M120.696,-290.545C144.485,-294.98 172.676,-300.236 196.335,-304.647"/>
<text text-anchor="middle" x="166" y="-303" font-family="Helvetica,sans-Serif" font-size="10.00">blfwk</text>
</g>
<!-- Node0&#45;&gt;Node8 -->
<g id="edge8" class="edge"><title>Node0&#45;&gt;Node8</title>
<path fill="none" stroke="black" d="M147.43,-275.276C174.418,-273.294 202.736,-271.214 222.151,-269.788"/>
<polygon fill="black" stroke="black" points="146.89,-271.806 137.174,-276.03 147.403,-278.788 146.89,-271.806"/>
</g>
<!-- Node0&#45;&gt;Node8 -->
<g id="edge17" class="edge"><title>Node0&#45;&gt;Node8</title>
<path fill="none" stroke="blueviolet" stroke-dasharray="5,2" d="M97.6206,-271.433C114.119,-266.328 135.494,-260.578 155,-258 164.693,-256.719 167.247,-257.302 177,-258 192.199,-259.088 209.125,-261.498 222.468,-263.679"/>
<text text-anchor="middle" x="166" y="-261" font-family="Helvetica,sans-Serif" font-size="10.00">blfwk</text>
</g>
<!-- Node0&#45;&gt;Node12 -->
<g id="edge18" class="edge"><title>Node0&#45;&gt;Node12</title>
<path fill="none" stroke="blueviolet" stroke-dasharray="5,2" d="M87.7404,-271.369C104.758,-262.702 131.05,-250.117 155,-242 168.275,-237.501 182.957,-233.655 196.602,-230.53"/>
<text text-anchor="middle" x="166" y="-245" font-family="Helvetica,sans-Serif" font-size="10.00">blfwk</text>
</g>
<!-- Node7 -->
<g id="node11" class="node"><title>Node7</title>
<g id="a_node11"><a xlink:href="group__host__error.html" target="_top" xlink:title="Errors. ">
<polygon fill="white" stroke="black" points="228.5,-162.5 228.5,-181.5 266.5,-181.5 266.5,-162.5 228.5,-162.5"/>
<text text-anchor="middle" x="247.5" y="-169.5" font-family="Helvetica,sans-Serif" font-size="10.00">Error</text>
</a>
</g>
</g>
<!-- Node0&#45;&gt;Node7 -->
<g id="edge7" class="edge"><title>Node0&#45;&gt;Node7</title>
<path fill="none" stroke="black" d="M92.9504,-265.901C118.05,-249.82 159.11,-223.741 195,-202 206.505,-195.031 219.606,-187.403 229.715,-181.583"/>
<polygon fill="black" stroke="black" points="90.9902,-263 84.4645,-271.347 94.7709,-268.892 90.9902,-263"/>
</g>
<!-- Node0&#45;&gt;Node7 -->
<g id="edge9" class="edge"><title>Node0&#45;&gt;Node7</title>
<path fill="none" stroke="blueviolet" stroke-dasharray="5,2" d="M76.8787,-271.37C90.4746,-254.281 121.2,-218.611 155,-199 178.351,-185.452 209.061,-178.21 228.292,-174.737"/>
<text text-anchor="middle" x="166" y="-202" font-family="Helvetica,sans-Serif" font-size="10.00">blfwk</text>
</g>
<!-- Node3 -->
<g id="node12" class="node"><title>Node3</title>
<g id="a_node12"><a xlink:href="group__host__commands.html" target="_top" xlink:title="Command support. ">
<polygon fill="white" stroke="black" points="214.5,-99.5 214.5,-118.5 280.5,-118.5 280.5,-99.5 214.5,-99.5"/>
<text text-anchor="middle" x="247.5" y="-106.5" font-family="Helvetica,sans-Serif" font-size="10.00">Commands</text>
</a>
</g>
</g>
<!-- Node0&#45;&gt;Node3 -->
<g id="edge3" class="edge"><title>Node0&#45;&gt;Node3</title>
<path fill="none" stroke="black" d="M83.4607,-263.508C99.7718,-243.477 127.98,-210.068 155,-184 181.312,-158.615 215.27,-132.271 233.521,-118.575"/>
<polygon fill="black" stroke="black" points="80.6031,-261.476 77.0434,-271.455 86.0491,-265.874 80.6031,-261.476"/>
</g>
<!-- Node0&#45;&gt;Node3 -->
<g id="edge12" class="edge"><title>Node0&#45;&gt;Node3</title>
<path fill="none" stroke="blueviolet" stroke-dasharray="5,2" d="M73.3949,-271.337C83.4592,-247.469 112.545,-185.056 155,-149 172.179,-134.41 195.506,-124.323 214.307,-117.928"/>
<text text-anchor="middle" x="166" y="-152" font-family="Helvetica,sans-Serif" font-size="10.00">blfwk</text>
</g>
<!-- Node4 -->
<g id="node13" class="node"><title>Node4</title>
<g id="a_node13"><a xlink:href="group__host__packetizers.html" target="_top" xlink:title="Packet creation. ">
<polygon fill="white" stroke="black" points="213.5,-53.5 213.5,-72.5 281.5,-72.5 281.5,-53.5 213.5,-53.5"/>
<text text-anchor="middle" x="247.5" y="-60.5" font-family="Helvetica,sans-Serif" font-size="10.00">Packetizers</text>
</a>
</g>
</g>
<!-- Node0&#45;&gt;Node4 -->
<g id="edge4" class="edge"><title>Node0&#45;&gt;Node4</title>
<path fill="none" stroke="black" d="M76.7663,-261.869C92.363,-223.392 132.762,-136.369 195,-90 204.067,-83.2449 215.058,-77.2326 224.554,-72.606"/>
<polygon fill="black" stroke="black" points="73.4363,-260.773 73.0274,-271.36 79.9492,-263.339 73.4363,-260.773"/>
</g>
<!-- Node0&#45;&gt;Node4 -->
<g id="edge13" class="edge"><title>Node0&#45;&gt;Node4</title>
<path fill="none" stroke="blueviolet" stroke-dasharray="5,2" d="M70.9225,-271.396C76.0476,-240.26 96.4683,-141.173 155,-90 171.085,-75.9371 194.193,-69.1911 213.162,-65.9588"/>
<text text-anchor="middle" x="166" y="-93" font-family="Helvetica,sans-Serif" font-size="10.00">blfwk</text>
</g>
<!-- Node10 -->
<g id="node14" class="node"><title>Node10</title>
<g id="a_node14"><a xlink:href="group__serial__packetizer.html" target="_top" xlink:title="Serial Packet creation. ">
<polygon fill="white" stroke="black" points="202,-0.5 202,-19.5 293,-19.5 293,-0.5 202,-0.5"/>
<text text-anchor="middle" x="247.5" y="-7.5" font-family="Helvetica,sans-Serif" font-size="10.00">Serial Packetizer</text>
</a>
</g>
</g>
<!-- Node0&#45;&gt;Node10 -->
<g id="edge15" class="edge"><title>Node0&#45;&gt;Node10</title>
<path fill="none" stroke="blueviolet" stroke-dasharray="5,2" d="M70.8524,-271.454C75.966,-238.48 96.871,-127.748 155,-61 172.08,-41.3881 198.628,-27.773 218.738,-19.5746"/>
<text text-anchor="middle" x="166" y="-64" font-family="Helvetica,sans-Serif" font-size="10.00">blfwk</text>
</g>
</g>
</svg>
