<?xml version="1.0" encoding="UTF-8" standalone="no"?>
<!DOCTYPE svg PUBLIC "-//W3C//DTD SVG 1.1//EN"
 "http://www.w3.org/Graphics/SVG/1.1/DTD/svg11.dtd">
<!-- Generated by graphviz version 2.38.0 (20140413.2041)
 -->
<!-- Title: Graphical Class Hierarchy Pages: 1 -->
<svg width="460pt" height="382pt"
 viewBox="0.00 0.00 460.00 382.00" xmlns="http://www.w3.org/2000/svg" xmlns:xlink="http://www.w3.org/1999/xlink">
<g id="graph0" class="graph" transform="scale(1 1) rotate(0) translate(4 378)">
<title>Graphical Class Hierarchy</title>
<polygon fill="white" stroke="none" points="-4,4 -4,-378 456,-378 456,4 -4,4"/>
<!-- Node1 -->
<g id="node1" class="node"><title>Node1</title>
<g id="a_node1"><a xlink:href="class_blob.html" target="_top" xlink:title="Manages a binary object of arbitrary length. ">
<polygon fill="white" stroke="black" points="38.5,-202.5 38.5,-221.5 74.5,-221.5 74.5,-202.5 38.5,-202.5"/>
<text text-anchor="middle" x="56.5" y="-209.5" font-family="Helvetica,sans-Serif" font-size="10.00">Blob</text>
</a>
</g>
</g>
<!-- Node2 -->
<g id="node2" class="node"><title>Node2</title>
<g id="a_node2"><a xlink:href="classblfwk_1_1_binary_value.html" target="_top" xlink:title="Binary object value of arbitrary size. ">
<polygon fill="white" stroke="black" points="169,-278.5 169,-297.5 266,-297.5 266,-278.5 169,-278.5"/>
<text text-anchor="middle" x="217.5" y="-285.5" font-family="Helvetica,sans-Serif" font-size="10.00">blfwk::BinaryValue</text>
</a>
</g>
</g>
<!-- Node1&#45;&gt;Node2 -->
<g id="edge1" class="edge"><title>Node1&#45;&gt;Node2</title>
<path fill="none" stroke="midnightblue" d="M78.7138,-227.641C96.6696,-240.27 123.485,-257.736 149,-269 157.353,-272.688 166.605,-275.845 175.513,-278.467"/>
<polygon fill="midnightblue" stroke="midnightblue" points="80.354,-224.51 70.1854,-221.535 76.2793,-230.202 80.354,-224.51"/>
</g>
<!-- Node3 -->
<g id="node3" class="node"><title>Node3</title>
<g id="a_node3"><a xlink:href="classblfwk_1_1_data_source_imager.html" target="_top" xlink:title="Converts a DataSource into a single binary buffer. ">
<polygon fill="white" stroke="black" points="155,-240.5 155,-259.5 280,-259.5 280,-240.5 155,-240.5"/>
<text text-anchor="middle" x="217.5" y="-247.5" font-family="Helvetica,sans-Serif" font-size="10.00">blfwk::DataSourceImager</text>
</a>
</g>
</g>
<!-- Node1&#45;&gt;Node3 -->
<g id="edge2" class="edge"><title>Node1&#45;&gt;Node3</title>
<path fill="none" stroke="midnightblue" d="M84.5017,-218.453C109.783,-224.495 147.872,-233.598 176.647,-240.475"/>
<polygon fill="midnightblue" stroke="midnightblue" points="85.0555,-214.987 74.5158,-216.067 83.4283,-221.795 85.0555,-214.987"/>
</g>
<!-- Node4 -->
<g id="node4" class="node"><title>Node4</title>
<g id="a_node4"><a xlink:href="classelftosb_1_1_binary_data_section.html" target="_top" xlink:title="A section of the output file that contains arbitrary binary data. ">
<polygon fill="white" stroke="black" points="151.5,-164.5 151.5,-183.5 283.5,-183.5 283.5,-164.5 151.5,-164.5"/>
<text text-anchor="middle" x="217.5" y="-171.5" font-family="Helvetica,sans-Serif" font-size="10.00">elftosb::BinaryDataSection</text>
</a>
</g>
</g>
<!-- Node1&#45;&gt;Node4 -->
<g id="edge3" class="edge"><title>Node1&#45;&gt;Node4</title>
<path fill="none" stroke="midnightblue" d="M84.5017,-205.547C109.783,-199.505 147.872,-190.402 176.647,-183.525"/>
<polygon fill="midnightblue" stroke="midnightblue" points="83.4283,-202.205 74.5158,-207.933 85.0555,-209.013 83.4283,-202.205"/>
</g>
<!-- Node5 -->
<g id="node5" class="node"><title>Node5</title>
<g id="a_node5"><a xlink:href="classelftosb_1_1_binary_value.html" target="_top" xlink:title="Binary object value of arbitrary size. ">
<polygon fill="white" stroke="black" points="165.5,-76.5 165.5,-95.5 269.5,-95.5 269.5,-76.5 165.5,-76.5"/>
<text text-anchor="middle" x="217.5" y="-83.5" font-family="Helvetica,sans-Serif" font-size="10.00">elftosb::BinaryValue</text>
</a>
</g>
</g>
<!-- Node1&#45;&gt;Node5 -->
<g id="edge4" class="edge"><title>Node1&#45;&gt;Node5</title>
<path fill="none" stroke="midnightblue" d="M82.6642,-196.864C92.9125,-189.872 104.355,-180.918 113,-171 134.955,-145.813 122.871,-125.825 149,-105 153.855,-101.13 159.455,-98.0483 165.31,-95.5938"/>
<polygon fill="midnightblue" stroke="midnightblue" points="80.5254,-194.081 74.0658,-202.478 84.3525,-199.942 80.5254,-194.081"/>
</g>
<!-- Node6 -->
<g id="node6" class="node"><title>Node6</title>
<g id="a_node6"><a xlink:href="classelftosb_1_1_data_source_imager.html" target="_top" xlink:title="Converts a DataSource into a single binary buffer. ">
<polygon fill="white" stroke="black" points="152,-202.5 152,-221.5 283,-221.5 283,-202.5 152,-202.5"/>
<text text-anchor="middle" x="217.5" y="-209.5" font-family="Helvetica,sans-Serif" font-size="10.00">elftosb::DataSourceImager</text>
</a>
</g>
</g>
<!-- Node1&#45;&gt;Node6 -->
<g id="edge5" class="edge"><title>Node1&#45;&gt;Node6</title>
<path fill="none" stroke="midnightblue" d="M84.5443,-212C103.029,-212 128.346,-212 151.864,-212"/>
<polygon fill="midnightblue" stroke="midnightblue" points="84.5158,-208.5 74.5158,-212 84.5158,-215.5 84.5158,-208.5"/>
</g>
<!-- Node7 -->
<g id="node7" class="node"><title>Node7</title>
<g id="a_node7"><a xlink:href="classelftosb_1_1_output_section.html" target="_top" xlink:title="Base class for data model of sections of the output file. ">
<polygon fill="white" stroke="black" points="0,-142.5 0,-161.5 113,-161.5 113,-142.5 0,-142.5"/>
<text text-anchor="middle" x="56.5" y="-149.5" font-family="Helvetica,sans-Serif" font-size="10.00">elftosb::OutputSection</text>
</a>
</g>
</g>
<!-- Node7&#45;&gt;Node4 -->
<g id="edge6" class="edge"><title>Node7&#45;&gt;Node4</title>
<path fill="none" stroke="midnightblue" d="M123.113,-161.079C132.449,-162.37 142.05,-163.699 151.377,-164.989"/>
<polygon fill="midnightblue" stroke="midnightblue" points="123.496,-157.598 113.11,-159.695 122.536,-164.532 123.496,-157.598"/>
</g>
<!-- Node8 -->
<g id="node8" class="node"><title>Node8</title>
<g id="a_node8"><a xlink:href="classelftosb_1_1_operation_sequence_section.html" target="_top" xlink:title="A section of the output that contains boot operations. ">
<polygon fill="white" stroke="black" points="149,-115 149,-145 286,-145 286,-115 149,-115"/>
<text text-anchor="start" x="157" y="-133" font-family="Helvetica,sans-Serif" font-size="10.00">elftosb::OperationSequence</text>
<text text-anchor="middle" x="217.5" y="-122" font-family="Helvetica,sans-Serif" font-size="10.00">Section</text>
</a>
</g>
</g>
<!-- Node7&#45;&gt;Node8 -->
<g id="edge7" class="edge"><title>Node7&#45;&gt;Node8</title>
<path fill="none" stroke="midnightblue" d="M123.288,-142.897C131.74,-141.728 140.405,-140.529 148.886,-139.355"/>
<polygon fill="midnightblue" stroke="midnightblue" points="122.536,-139.468 113.11,-144.305 123.496,-146.402 122.536,-139.468"/>
</g>
<!-- Node9 -->
<g id="node9" class="node"><title>Node9</title>
<g id="a_node9"><a xlink:href="classelftosb_1_1_value.html" target="_top" xlink:title="Abstract base class for values of arbitrary types. ">
<polygon fill="white" stroke="black" points="18.5,-38.5 18.5,-57.5 94.5,-57.5 94.5,-38.5 18.5,-38.5"/>
<text text-anchor="middle" x="56.5" y="-45.5" font-family="Helvetica,sans-Serif" font-size="10.00">elftosb::Value</text>
</a>
</g>
</g>
<!-- Node9&#45;&gt;Node5 -->
<g id="edge8" class="edge"><title>Node9&#45;&gt;Node5</title>
<path fill="none" stroke="midnightblue" d="M104.639,-59.2659C127.561,-64.744 154.81,-71.2566 176.676,-76.4822"/>
<polygon fill="midnightblue" stroke="midnightblue" points="105.318,-55.8297 94.7784,-56.9093 103.691,-62.638 105.318,-55.8297"/>
</g>
<!-- Node10 -->
<g id="node10" class="node"><title>Node10</title>
<g id="a_node10"><a xlink:href="classelftosb_1_1_integer_value.html" target="_top" xlink:title="32&#45;bit signed integer value. ">
<polygon fill="white" stroke="black" points="165,-38.5 165,-57.5 270,-57.5 270,-38.5 165,-38.5"/>
<text text-anchor="middle" x="217.5" y="-45.5" font-family="Helvetica,sans-Serif" font-size="10.00">elftosb::IntegerValue</text>
</a>
</g>
</g>
<!-- Node9&#45;&gt;Node10 -->
<g id="edge9" class="edge"><title>Node9&#45;&gt;Node10</title>
<path fill="none" stroke="midnightblue" d="M104.91,-48C123.744,-48 145.465,-48 164.71,-48"/>
<polygon fill="midnightblue" stroke="midnightblue" points="104.778,-44.5001 94.7784,-48 104.778,-51.5001 104.778,-44.5001"/>
</g>
<!-- Node12 -->
<g id="node12" class="node"><title>Node12</title>
<g id="a_node12"><a xlink:href="classelftosb_1_1_string_value.html" target="_top" xlink:title="String value. ">
<polygon fill="white" stroke="black" points="167,-0.5 167,-19.5 268,-19.5 268,-0.5 167,-0.5"/>
<text text-anchor="middle" x="217.5" y="-7.5" font-family="Helvetica,sans-Serif" font-size="10.00">elftosb::StringValue</text>
</a>
</g>
</g>
<!-- Node9&#45;&gt;Node12 -->
<g id="edge11" class="edge"><title>Node9&#45;&gt;Node12</title>
<path fill="none" stroke="midnightblue" d="M104.639,-36.7341C127.561,-31.256 154.81,-24.7434 176.676,-19.5178"/>
<polygon fill="midnightblue" stroke="midnightblue" points="103.691,-33.362 94.7784,-39.0907 105.318,-40.1703 103.691,-33.362"/>
</g>
<!-- Node11 -->
<g id="node11" class="node"><title>Node11</title>
<g id="a_node11"><a xlink:href="classelftosb_1_1_sized_integer_value.html" target="_top" xlink:title="Adds a word size attribute to IntegerValue. ">
<polygon fill="white" stroke="black" points="322,-38.5 322,-57.5 452,-57.5 452,-38.5 322,-38.5"/>
<text text-anchor="middle" x="387" y="-45.5" font-family="Helvetica,sans-Serif" font-size="10.00">elftosb::SizedIntegerValue</text>
</a>
</g>
</g>
<!-- Node10&#45;&gt;Node11 -->
<g id="edge10" class="edge"><title>Node10&#45;&gt;Node11</title>
<path fill="none" stroke="midnightblue" d="M280.292,-48C293.836,-48 308.203,-48 321.837,-48"/>
<polygon fill="midnightblue" stroke="midnightblue" points="280.122,-44.5001 270.122,-48 280.122,-51.5001 280.122,-44.5001"/>
</g>
<!-- Node13 -->
<g id="node13" class="node"><title>Node13</title>
<g id="a_node13"><a xlink:href="classblfwk_1_1_value.html" target="_top" xlink:title="Abstract base class for values of arbitrary types. ">
<polygon fill="white" stroke="black" points="22,-316.5 22,-335.5 91,-335.5 91,-316.5 22,-316.5"/>
<text text-anchor="middle" x="56.5" y="-323.5" font-family="Helvetica,sans-Serif" font-size="10.00">blfwk::Value</text>
</a>
</g>
</g>
<!-- Node13&#45;&gt;Node2 -->
<g id="edge12" class="edge"><title>Node13&#45;&gt;Node2</title>
<path fill="none" stroke="midnightblue" d="M100.982,-315.608C124.606,-309.962 153.611,-303.03 176.647,-297.525"/>
<polygon fill="midnightblue" stroke="midnightblue" points="100.132,-312.212 91.2198,-317.941 101.759,-319.021 100.132,-312.212"/>
</g>
<!-- Node14 -->
<g id="node14" class="node"><title>Node14</title>
<g id="a_node14"><a xlink:href="classblfwk_1_1_integer_value.html" target="_top" xlink:title="32&#45;bit signed integer value. ">
<polygon fill="white" stroke="black" points="168.5,-354.5 168.5,-373.5 266.5,-373.5 266.5,-354.5 168.5,-354.5"/>
<text text-anchor="middle" x="217.5" y="-361.5" font-family="Helvetica,sans-Serif" font-size="10.00">blfwk::IntegerValue</text>
</a>
</g>
</g>
<!-- Node13&#45;&gt;Node14 -->
<g id="edge13" class="edge"><title>Node13&#45;&gt;Node14</title>
<path fill="none" stroke="midnightblue" d="M100.982,-336.392C124.606,-342.038 153.611,-348.97 176.647,-354.475"/>
<polygon fill="midnightblue" stroke="midnightblue" points="101.759,-332.979 91.2198,-334.059 100.132,-339.788 101.759,-332.979"/>
</g>
<!-- Node16 -->
<g id="node16" class="node"><title>Node16</title>
<g id="a_node16"><a xlink:href="classblfwk_1_1_string_value.html" target="_top" xlink:title="String value. ">
<polygon fill="white" stroke="black" points="170,-316.5 170,-335.5 265,-335.5 265,-316.5 170,-316.5"/>
<text text-anchor="middle" x="217.5" y="-323.5" font-family="Helvetica,sans-Serif" font-size="10.00">blfwk::StringValue</text>
</a>
</g>
</g>
<!-- Node13&#45;&gt;Node16 -->
<g id="edge15" class="edge"><title>Node13&#45;&gt;Node16</title>
<path fill="none" stroke="midnightblue" d="M101.292,-326C122.588,-326 148.201,-326 169.862,-326"/>
<polygon fill="midnightblue" stroke="midnightblue" points="101.22,-322.5 91.2198,-326 101.22,-329.5 101.22,-322.5"/>
</g>
<!-- Node15 -->
<g id="node15" class="node"><title>Node15</title>
<g id="a_node15"><a xlink:href="classblfwk_1_1_sized_integer_value.html" target="_top" xlink:title="Adds a word size attribute to IntegerValue. ">
<polygon fill="white" stroke="black" points="325.5,-354.5 325.5,-373.5 448.5,-373.5 448.5,-354.5 325.5,-354.5"/>
<text text-anchor="middle" x="387" y="-361.5" font-family="Helvetica,sans-Serif" font-size="10.00">blfwk::SizedIntegerValue</text>
</a>
</g>
</g>
<!-- Node14&#45;&gt;Node15 -->
<g id="edge14" class="edge"><title>Node14&#45;&gt;Node15</title>
<path fill="none" stroke="midnightblue" d="M277.031,-364C292.699,-364 309.666,-364 325.442,-364"/>
<polygon fill="midnightblue" stroke="midnightblue" points="276.948,-360.5 266.948,-364 276.948,-367.5 276.948,-360.5"/>
</g>
</g>
</svg>
