<?xml version="1.0" encoding="UTF-8" standalone="no"?>
<!DOCTYPE svg PUBLIC "-//W3C//DTD SVG 1.1//EN"
 "http://www.w3.org/Graphics/SVG/1.1/DTD/svg11.dtd">
<!-- Generated by graphviz version 2.38.0 (20140413.2041)
 -->
<!-- Title: Graphical Class Hierarchy Pages: 1 -->
<svg width="274pt" height="66pt"
 viewBox="0.00 0.00 274.00 66.00" xmlns="http://www.w3.org/2000/svg" xmlns:xlink="http://www.w3.org/1999/xlink">
<g id="graph0" class="graph" transform="scale(1 1) rotate(0) translate(4 62)">
<title>Graphical Class Hierarchy</title>
<polygon fill="white" stroke="none" points="-4,4 -4,-62 270,-62 270,4 -4,4"/>
<!-- Node1 -->
<g id="node1" class="node"><title>Node1</title>
<g id="a_node1"><a xlink:href="classblfwk_1_1_memory_store.html" target="_top" xlink:title="Represents target device memory as a disk file. ">
<polygon fill="white" stroke="black" points="0,-19.5 0,-38.5 103,-38.5 103,-19.5 0,-19.5"/>
<text text-anchor="middle" x="51.5" y="-26.5" font-family="Helvetica,sans-Serif" font-size="10.00">blfwk::MemoryStore</text>
</a>
</g>
</g>
<!-- Node2 -->
<g id="node2" class="node"><title>Node2</title>
<g id="a_node2"><a xlink:href="classblfwk_1_1_flash_memory_store.html" target="_top" xlink:title="Represents target Flash memory. ">
<polygon fill="white" stroke="black" points="139,-38.5 139,-57.5 266,-57.5 266,-38.5 139,-38.5"/>
<text text-anchor="middle" x="202.5" y="-45.5" font-family="Helvetica,sans-Serif" font-size="10.00">blfwk::FlashMemoryStore</text>
</a>
</g>
</g>
<!-- Node1&#45;&gt;Node2 -->
<g id="edge1" class="edge"><title>Node1&#45;&gt;Node2</title>
<path fill="none" stroke="midnightblue" d="M113.406,-36.7666C121.763,-37.8321 130.355,-38.9278 138.743,-39.9975"/>
<polygon fill="midnightblue" stroke="midnightblue" points="113.723,-33.2787 103.361,-35.4856 112.838,-40.2225 113.723,-33.2787"/>
</g>
<!-- Node3 -->
<g id="node3" class="node"><title>Node3</title>
<g id="a_node3"><a xlink:href="classblfwk_1_1_sram_memory_store.html" target="_top" xlink:title="Represents target SRAM memory. ">
<polygon fill="white" stroke="black" points="139.5,-0.5 139.5,-19.5 265.5,-19.5 265.5,-0.5 139.5,-0.5"/>
<text text-anchor="middle" x="202.5" y="-7.5" font-family="Helvetica,sans-Serif" font-size="10.00">blfwk::SramMemoryStore</text>
</a>
</g>
</g>
<!-- Node1&#45;&gt;Node3 -->
<g id="edge2" class="edge"><title>Node1&#45;&gt;Node3</title>
<path fill="none" stroke="midnightblue" d="M113.558,-21.2141C122.04,-20.1325 130.763,-19.0201 139.267,-17.9357"/>
<polygon fill="midnightblue" stroke="midnightblue" points="112.838,-17.7775 103.361,-22.5144 113.723,-24.7213 112.838,-17.7775"/>
</g>
</g>
</svg>
