<?xml version="1.0" encoding="UTF-8" standalone="no"?>
<!DOCTYPE svg PUBLIC "-//W3C//DTD SVG 1.1//EN"
 "http://www.w3.org/Graphics/SVG/1.1/DTD/svg11.dtd">
<!-- Generated by graphviz version 2.38.0 (20140413.2041)
 -->
<!-- Title: Graphical Class Hierarchy Pages: 1 -->
<svg width="278pt" height="85pt"
 viewBox="0.00 0.00 278.00 85.00" xmlns="http://www.w3.org/2000/svg" xmlns:xlink="http://www.w3.org/1999/xlink">
<g id="graph0" class="graph" transform="scale(1 1) rotate(0) translate(4 81)">
<title>Graphical Class Hierarchy</title>
<polygon fill="white" stroke="none" points="-4,4 -4,-81 274,-81 274,4 -4,4"/>
<!-- Node1 -->
<g id="node1" class="node"><title>Node1</title>
<g id="a_node1"><a xlink:href="class_opt_iter.html" target="_top" xlink:title="OptIter">
<polygon fill="white" stroke="black" points="0,-38.5 0,-57.5 46,-57.5 46,-38.5 0,-38.5"/>
<text text-anchor="middle" x="23" y="-45.5" font-family="Helvetica,sans-Serif" font-size="10.00">OptIter</text>
</a>
</g>
</g>
<!-- Node2 -->
<g id="node2" class="node"><title>Node2</title>
<g id="a_node2"><a xlink:href="class_opt_istream_iter.html" target="_top" xlink:title="OptIstreamIter">
<polygon fill="white" stroke="black" points="82,-57.5 82,-76.5 160,-76.5 160,-57.5 82,-57.5"/>
<text text-anchor="middle" x="121" y="-64.5" font-family="Helvetica,sans-Serif" font-size="10.00">OptIstreamIter</text>
</a>
</g>
</g>
<!-- Node1&#45;&gt;Node2 -->
<g id="edge1" class="edge"><title>Node1&#45;&gt;Node2</title>
<path fill="none" stroke="midnightblue" d="M56.1747,-54.3679C64.355,-55.9869 73.2259,-57.7426 81.6789,-59.4156"/>
<polygon fill="midnightblue" stroke="midnightblue" points="56.7549,-50.9149 46.2656,-52.4067 55.3958,-57.7817 56.7549,-50.9149"/>
</g>
<!-- Node3 -->
<g id="node3" class="node"><title>Node3</title>
<g id="a_node3"><a xlink:href="class_opt_iter_rwd.html" target="_top" xlink:title="OptIterRwd">
<polygon fill="white" stroke="black" points="88.5,-19.5 88.5,-38.5 153.5,-38.5 153.5,-19.5 88.5,-19.5"/>
<text text-anchor="middle" x="121" y="-26.5" font-family="Helvetica,sans-Serif" font-size="10.00">OptIterRwd</text>
</a>
</g>
</g>
<!-- Node1&#45;&gt;Node3 -->
<g id="edge2" class="edge"><title>Node1&#45;&gt;Node3</title>
<path fill="none" stroke="midnightblue" d="M56.1919,-41.6287C66.5721,-39.5743 78.0627,-37.3001 88.3998,-35.2542"/>
<polygon fill="midnightblue" stroke="midnightblue" points="55.3958,-38.2183 46.2656,-43.5933 56.7549,-45.0851 55.3958,-38.2183"/>
</g>
<!-- Node4 -->
<g id="node4" class="node"><title>Node4</title>
<g id="a_node4"><a xlink:href="class_opt_argv_iter.html" target="_top" xlink:title="OptArgvIter">
<polygon fill="white" stroke="black" points="200.5,-38.5 200.5,-57.5 265.5,-57.5 265.5,-38.5 200.5,-38.5"/>
<text text-anchor="middle" x="233" y="-45.5" font-family="Helvetica,sans-Serif" font-size="10.00">OptArgvIter</text>
</a>
</g>
</g>
<!-- Node3&#45;&gt;Node4 -->
<g id="edge3" class="edge"><title>Node3&#45;&gt;Node4</title>
<path fill="none" stroke="midnightblue" d="M163.526,-36.1727C175.772,-38.2878 188.967,-40.5669 200.474,-42.5546"/>
<polygon fill="midnightblue" stroke="midnightblue" points="163.971,-32.6979 153.522,-34.4446 162.78,-39.5957 163.971,-32.6979"/>
</g>
<!-- Node5 -->
<g id="node5" class="node"><title>Node5</title>
<g id="a_node5"><a xlink:href="class_opt_str_tok_iter.html" target="_top" xlink:title="OptStrTokIter">
<polygon fill="white" stroke="black" points="196,-0.5 196,-19.5 270,-19.5 270,-0.5 196,-0.5"/>
<text text-anchor="middle" x="233" y="-7.5" font-family="Helvetica,sans-Serif" font-size="10.00">OptStrTokIter</text>
</a>
</g>
</g>
<!-- Node3&#45;&gt;Node5 -->
<g id="edge4" class="edge"><title>Node3&#45;&gt;Node5</title>
<path fill="none" stroke="midnightblue" d="M163.45,-21.8404C174.096,-20.0016 185.464,-18.038 195.82,-16.2493"/>
<polygon fill="midnightblue" stroke="midnightblue" points="162.78,-18.4043 153.522,-23.5554 163.971,-25.3021 162.78,-18.4043"/>
</g>
</g>
</svg>
