<?xml version="1.0" encoding="UTF-8" standalone="no"?>
<!DOCTYPE svg PUBLIC "-//W3C//DTD SVG 1.1//EN"
 "http://www.w3.org/Graphics/SVG/1.1/DTD/svg11.dtd">
<!-- Generated by graphviz version 2.38.0 (20140413.2041)
 -->
<!-- Title: Graphical Class Hierarchy Pages: 1 -->
<svg width="456pt" height="78pt"
 viewBox="0.00 0.00 456.00 77.50" xmlns="http://www.w3.org/2000/svg" xmlns:xlink="http://www.w3.org/1999/xlink">
<g id="graph0" class="graph" transform="scale(1 1) rotate(0) translate(4 73.5)">
<title>Graphical Class Hierarchy</title>
<polygon fill="white" stroke="none" points="-4,4 -4,-73.5 452,-73.5 452,4 -4,4"/>
<!-- Node1 -->
<g id="node1" class="node"><title>Node1</title>
<g id="a_node1"><a xlink:href="classelftosb_1_1_option_context.html" target="_top" xlink:title="Pure abstract interface class to a table of options. ">
<polygon fill="white" stroke="black" points="0,-50 0,-69 113,-69 113,-50 0,-50"/>
<text text-anchor="middle" x="56.5" y="-57" font-family="Helvetica,sans-Serif" font-size="10.00">elftosb::OptionContext</text>
</a>
</g>
</g>
<!-- Node2 -->
<g id="node2" class="node"><title>Node2</title>
<g id="a_node2"><a xlink:href="classelftosb_1_1_option_dictionary.html" target="_top" xlink:title="Concrete implementation of OptionContext. ">
<polygon fill="white" stroke="black" points="149,-50 149,-69 272,-69 272,-50 149,-50"/>
<text text-anchor="middle" x="210.5" y="-57" font-family="Helvetica,sans-Serif" font-size="10.00">elftosb::OptionDictionary</text>
</a>
</g>
</g>
<!-- Node1&#45;&gt;Node2 -->
<g id="edge1" class="edge"><title>Node1&#45;&gt;Node2</title>
<path fill="none" stroke="midnightblue" d="M123.444,-59.5C131.905,-59.5 140.535,-59.5 148.905,-59.5"/>
<polygon fill="midnightblue" stroke="midnightblue" points="123.236,-56.0001 113.236,-59.5 123.236,-63.0001 123.236,-56.0001"/>
</g>
<!-- Node3 -->
<g id="node3" class="node"><title>Node3</title>
<g id="a_node3"><a xlink:href="classelftosb_1_1_conversion_controller.html" target="_top" xlink:title="Manages the entire elftosb file conversion process. ">
<polygon fill="white" stroke="black" points="308,-28 308,-47 448,-47 448,-28 308,-28"/>
<text text-anchor="middle" x="378" y="-35" font-family="Helvetica,sans-Serif" font-size="10.00">elftosb::ConversionController</text>
</a>
</g>
</g>
<!-- Node2&#45;&gt;Node3 -->
<g id="edge2" class="edge"><title>Node2&#45;&gt;Node3</title>
<path fill="none" stroke="midnightblue" d="M282.12,-50.1124C290.671,-48.9758 299.398,-47.8157 307.925,-46.6821"/>
<polygon fill="midnightblue" stroke="midnightblue" points="281.638,-46.6457 272.186,-51.4329 282.56,-53.5846 281.638,-46.6457"/>
</g>
<!-- Node4 -->
<g id="node4" class="node"><title>Node4</title>
<g id="a_node4"><a xlink:href="classelftosb_1_1_eval_context_1_1_source_file_manager.html" target="_top" xlink:title="Abstract interface for a manager of source files. ">
<polygon fill="white" stroke="black" points="157,-0.5 157,-30.5 264,-30.5 264,-0.5 157,-0.5"/>
<text text-anchor="start" x="165" y="-18.5" font-family="Helvetica,sans-Serif" font-size="10.00">elftosb::EvalContext</text>
<text text-anchor="middle" x="210.5" y="-7.5" font-family="Helvetica,sans-Serif" font-size="10.00">::SourceFileManager</text>
</a>
</g>
</g>
<!-- Node4&#45;&gt;Node3 -->
<g id="edge3" class="edge"><title>Node4&#45;&gt;Node3</title>
<path fill="none" stroke="midnightblue" d="M274.555,-23.8819C285.411,-25.325 296.747,-26.8319 307.755,-28.2953"/>
<polygon fill="midnightblue" stroke="midnightblue" points="274.694,-20.3697 264.32,-22.5214 273.772,-27.3087 274.694,-20.3697"/>
</g>
</g>
</svg>
