<?xml version="1.0" encoding="UTF-8" standalone="no"?>
<!DOCTYPE svg PUBLIC "-//W3C//DTD SVG 1.1//EN"
 "http://www.w3.org/Graphics/SVG/1.1/DTD/svg11.dtd">
<!-- Generated by graphviz version 2.38.0 (20140413.2041)
 -->
<!-- Title: Graphical Class Hierarchy Pages: 1 -->
<svg width="424pt" height="104pt"
 viewBox="0.00 0.00 424.00 104.00" xmlns="http://www.w3.org/2000/svg" xmlns:xlink="http://www.w3.org/1999/xlink">
<g id="graph0" class="graph" transform="scale(1 1) rotate(0) translate(4 100)">
<title>Graphical Class Hierarchy</title>
<polygon fill="white" stroke="none" points="-4,4 -4,-100 420,-100 420,4 -4,4"/>
<!-- Node1 -->
<g id="node1" class="node"><title>Node1</title>
<g id="a_node1"><a xlink:href="classblfwk_1_1_peripheral.html" target="_top" xlink:title="Represents a peripheral. ">
<polygon fill="white" stroke="black" points="0,-38.5 0,-57.5 88,-57.5 88,-38.5 0,-38.5"/>
<text text-anchor="middle" x="44" y="-45.5" font-family="Helvetica,sans-Serif" font-size="10.00">blfwk::Peripheral</text>
</a>
</g>
</g>
<!-- Node2 -->
<g id="node2" class="node"><title>Node2</title>
<g id="a_node2"><a xlink:href="classblfwk_1_1_sim_peripheral.html" target="_top" xlink:title="Peripheral that operates in the simulation space. ">
<polygon fill="white" stroke="black" points="131,-76.5 131,-95.5 236,-95.5 236,-76.5 131,-76.5"/>
<text text-anchor="middle" x="183.5" y="-83.5" font-family="Helvetica,sans-Serif" font-size="10.00">blfwk::SimPeripheral</text>
</a>
</g>
</g>
<!-- Node1&#45;&gt;Node2 -->
<g id="edge1" class="edge"><title>Node1&#45;&gt;Node2</title>
<path fill="none" stroke="midnightblue" d="M89.5729,-60.3183C108.465,-65.5393 130.147,-71.5316 147.814,-76.4141"/>
<polygon fill="midnightblue" stroke="midnightblue" points="90.2681,-56.8793 79.6971,-57.589 88.4034,-63.6264 90.2681,-56.8793"/>
</g>
<!-- Node3 -->
<g id="node3" class="node"><title>Node3</title>
<g id="a_node3"><a xlink:href="classblfwk_1_1_uart_peripheral.html" target="_top" xlink:title="Peripheral that talks to the target device over COM port hardware. ">
<polygon fill="white" stroke="black" points="130.5,-38.5 130.5,-57.5 236.5,-57.5 236.5,-38.5 130.5,-38.5"/>
<text text-anchor="middle" x="183.5" y="-45.5" font-family="Helvetica,sans-Serif" font-size="10.00">blfwk::UartPeripheral</text>
</a>
</g>
</g>
<!-- Node1&#45;&gt;Node3 -->
<g id="edge2" class="edge"><title>Node1&#45;&gt;Node3</title>
<path fill="none" stroke="midnightblue" d="M98.4152,-48C108.908,-48 119.903,-48 130.353,-48"/>
<polygon fill="midnightblue" stroke="midnightblue" points="98.1286,-44.5001 88.1286,-48 98.1286,-51.5001 98.1286,-44.5001"/>
</g>
<!-- Node5 -->
<g id="node5" class="node"><title>Node5</title>
<g id="a_node5"><a xlink:href="classblfwk_1_1_usb_hid_peripheral.html" target="_top" xlink:title="Represents a USB HID peripheral. ">
<polygon fill="white" stroke="black" points="124,-0.5 124,-19.5 243,-19.5 243,-0.5 124,-0.5"/>
<text text-anchor="middle" x="183.5" y="-7.5" font-family="Helvetica,sans-Serif" font-size="10.00">blfwk::UsbHidPeripheral</text>
</a>
</g>
</g>
<!-- Node1&#45;&gt;Node5 -->
<g id="edge4" class="edge"><title>Node1&#45;&gt;Node5</title>
<path fill="none" stroke="midnightblue" d="M89.5729,-35.6817C108.465,-30.4607 130.147,-24.4684 147.814,-19.5859"/>
<polygon fill="midnightblue" stroke="midnightblue" points="88.4034,-32.3736 79.6971,-38.411 90.2681,-39.1207 88.4034,-32.3736"/>
</g>
<!-- Node4 -->
<g id="node4" class="node"><title>Node4</title>
<g id="a_node4"><a xlink:href="classblfwk_1_1_bus_pal_uart_peripheral.html" target="_top" xlink:title="Peripheral that talks to the target device over BusPal UART hardware. ">
<polygon fill="white" stroke="black" points="279,-38.5 279,-57.5 416,-57.5 416,-38.5 279,-38.5"/>
<text text-anchor="middle" x="347.5" y="-45.5" font-family="Helvetica,sans-Serif" font-size="10.00">blfwk::BusPalUartPeripheral</text>
</a>
</g>
</g>
<!-- Node3&#45;&gt;Node4 -->
<g id="edge3" class="edge"><title>Node3&#45;&gt;Node4</title>
<path fill="none" stroke="midnightblue" d="M246.908,-48C257.34,-48 268.206,-48 278.764,-48"/>
<polygon fill="midnightblue" stroke="midnightblue" points="246.65,-44.5001 236.65,-48 246.65,-51.5001 246.65,-44.5001"/>
</g>
</g>
</svg>
