<?xml version="1.0" encoding="UTF-8" standalone="no"?>
<!DOCTYPE svg PUBLIC "-//W3C//DTD SVG 1.1//EN"
 "http://www.w3.org/Graphics/SVG/1.1/DTD/svg11.dtd">
<!-- Generated by graphviz version 2.38.0 (20140413.2041)
 -->
<!-- Title: Graphical Class Hierarchy Pages: 1 -->
<svg width="277pt" height="104pt"
 viewBox="0.00 0.00 277.00 104.00" xmlns="http://www.w3.org/2000/svg" xmlns:xlink="http://www.w3.org/1999/xlink">
<g id="graph0" class="graph" transform="scale(1 1) rotate(0) translate(4 100)">
<title>Graphical Class Hierarchy</title>
<polygon fill="white" stroke="none" points="-4,4 -4,-100 273,-100 273,4 -4,4"/>
<!-- Node1 -->
<g id="node1" class="node"><title>Node1</title>
<g id="a_node1"><a xlink:href="classelftosb_1_1_source_file.html" target="_top" xlink:title="Abstract base class for a source file containing executable code. ">
<polygon fill="white" stroke="black" points="0,-38.5 0,-57.5 98,-57.5 98,-38.5 0,-38.5"/>
<text text-anchor="middle" x="49" y="-45.5" font-family="Helvetica,sans-Serif" font-size="10.00">elftosb::SourceFile</text>
</a>
</g>
</g>
<!-- Node2 -->
<g id="node2" class="node"><title>Node2</title>
<g id="a_node2"><a xlink:href="classelftosb_1_1_binary_source_file.html" target="_top" xlink:title="Binary data file. ">
<polygon fill="white" stroke="black" points="139,-76.5 139,-95.5 264,-95.5 264,-76.5 139,-76.5"/>
<text text-anchor="middle" x="201.5" y="-83.5" font-family="Helvetica,sans-Serif" font-size="10.00">elftosb::BinarySourceFile</text>
</a>
</g>
</g>
<!-- Node1&#45;&gt;Node2 -->
<g id="edge1" class="edge"><title>Node1&#45;&gt;Node2</title>
<path fill="none" stroke="midnightblue" d="M97.6847,-60.04C118.71,-65.3488 143.067,-71.4988 162.796,-76.4799"/>
<polygon fill="midnightblue" stroke="midnightblue" points="98.5301,-56.6437 87.9775,-57.589 96.8164,-63.4307 98.5301,-56.6437"/>
</g>
<!-- Node3 -->
<g id="node3" class="node"><title>Node3</title>
<g id="a_node3"><a xlink:href="classelftosb_1_1_e_l_f_source_file.html" target="_top" xlink:title="Executable and Loading Format (ELF) source file. ">
<polygon fill="white" stroke="black" points="143.5,-38.5 143.5,-57.5 259.5,-57.5 259.5,-38.5 143.5,-38.5"/>
<text text-anchor="middle" x="201.5" y="-45.5" font-family="Helvetica,sans-Serif" font-size="10.00">elftosb::ELFSourceFile</text>
</a>
</g>
</g>
<!-- Node1&#45;&gt;Node3 -->
<g id="edge2" class="edge"><title>Node1&#45;&gt;Node3</title>
<path fill="none" stroke="midnightblue" d="M108.064,-48C119.683,-48 131.878,-48 143.462,-48"/>
<polygon fill="midnightblue" stroke="midnightblue" points="108.033,-44.5001 98.0329,-48 108.033,-51.5001 108.033,-44.5001"/>
</g>
<!-- Node4 -->
<g id="node4" class="node"><title>Node4</title>
<g id="a_node4"><a xlink:href="classelftosb_1_1_s_record_source_file.html" target="_top" xlink:title="Executable file in the Motorola S&#45;record format. ">
<polygon fill="white" stroke="black" points="134,-0.5 134,-19.5 269,-19.5 269,-0.5 134,-0.5"/>
<text text-anchor="middle" x="201.5" y="-7.5" font-family="Helvetica,sans-Serif" font-size="10.00">elftosb::SRecordSourceFile</text>
</a>
</g>
</g>
<!-- Node1&#45;&gt;Node4 -->
<g id="edge3" class="edge"><title>Node1&#45;&gt;Node4</title>
<path fill="none" stroke="midnightblue" d="M97.6847,-35.96C118.71,-30.6512 143.067,-24.5012 162.796,-19.5201"/>
<polygon fill="midnightblue" stroke="midnightblue" points="96.8164,-32.5693 87.9775,-38.411 98.5301,-39.3563 96.8164,-32.5693"/>
</g>
</g>
</svg>
