<?xml version="1.0" encoding="UTF-8" standalone="no"?>
<!DOCTYPE svg PUBLIC "-//W3C//DTD SVG 1.1//EN"
 "http://www.w3.org/Graphics/SVG/1.1/DTD/svg11.dtd">
<!-- Generated by graphviz version 2.38.0 (20140413.2041)
 -->
<!-- Title: Graphical Class Hierarchy Pages: 1 -->
<svg width="384pt" height="356pt"
 viewBox="0.00 0.00 384.00 355.50" xmlns="http://www.w3.org/2000/svg" xmlns:xlink="http://www.w3.org/1999/xlink">
<g id="graph0" class="graph" transform="scale(1 1) rotate(0) translate(4 351.5)">
<title>Graphical Class Hierarchy</title>
<polygon fill="white" stroke="none" points="-4,4 -4,-351.5 380,-351.5 380,4 -4,4"/>
<!-- Node1 -->
<g id="node1" class="node"><title>Node1</title>
<g id="a_node1"><a xlink:title="STL class. ">
<polygon fill="white" stroke="#bfbfbf" points="0,-152.5 0,-171.5 78,-171.5 78,-152.5 0,-152.5"/>
<text text-anchor="middle" x="39" y="-159.5" font-family="Helvetica,sans-Serif" font-size="10.00">std::exception</text>
</a>
</g>
</g>
<!-- Node2 -->
<g id="node2" class="node"><title>Node2</title>
<g id="a_node2"><a xlink:title="STL class. ">
<polygon fill="white" stroke="#bfbfbf" points="114,-152.5 114,-171.5 207,-171.5 207,-152.5 114,-152.5"/>
<text text-anchor="middle" x="160.5" y="-159.5" font-family="Helvetica,sans-Serif" font-size="10.00">std::runtime_error</text>
</a>
</g>
</g>
<!-- Node1&#45;&gt;Node2 -->
<g id="edge1" class="edge"><title>Node1&#45;&gt;Node2</title>
<path fill="none" stroke="midnightblue" d="M88.2251,-162C96.6625,-162 105.418,-162 113.785,-162"/>
<polygon fill="midnightblue" stroke="midnightblue" points="88.1391,-158.5 78.1391,-162 88.1391,-165.5 88.1391,-158.5"/>
</g>
<!-- Node3 -->
<g id="node3" class="node"><title>Node3</title>
<g id="a_node3"><a xlink:href="classblfwk_1_1_s_b_source_file_1_1_s_b_file_exception.html" target="_top" xlink:title="Simple exception thrown to indicate an error in the input SB file format. ">
<polygon fill="white" stroke="black" points="257.5,-317 257.5,-347 361.5,-347 361.5,-317 257.5,-317"/>
<text text-anchor="start" x="265.5" y="-335" font-family="Helvetica,sans-Serif" font-size="10.00">blfwk::SBSourceFile</text>
<text text-anchor="middle" x="309.5" y="-324" font-family="Helvetica,sans-Serif" font-size="10.00">::SBFileException</text>
</a>
</g>
</g>
<!-- Node2&#45;&gt;Node3 -->
<g id="edge2" class="edge"><title>Node2&#45;&gt;Node3</title>
<path fill="none" stroke="midnightblue" d="M167.465,-181.138C177.953,-211.813 202.507,-272.077 243,-307 247.424,-310.816 252.492,-314.079 257.807,-316.864"/>
<polygon fill="midnightblue" stroke="midnightblue" points="170.783,-180.023 164.339,-171.612 164.132,-182.205 170.783,-180.023"/>
</g>
<!-- Node4 -->
<g id="node4" class="node"><title>Node4</title>
<g id="a_node4"><a xlink:href="classblfwk_1_1semantic__error.html" target="_top" xlink:title="A semantic error discovered while processing the command file AST. ">
<polygon fill="white" stroke="black" points="255,-278.5 255,-297.5 364,-297.5 364,-278.5 255,-278.5"/>
<text text-anchor="middle" x="309.5" y="-285.5" font-family="Helvetica,sans-Serif" font-size="10.00">blfwk::semantic_error</text>
</a>
</g>
</g>
<!-- Node2&#45;&gt;Node4 -->
<g id="edge3" class="edge"><title>Node2&#45;&gt;Node4</title>
<path fill="none" stroke="midnightblue" d="M170.887,-180.777C183.845,-204.789 209.467,-246.005 243,-269 248.664,-272.884 255.123,-275.983 261.727,-278.454"/>
<polygon fill="midnightblue" stroke="midnightblue" points="173.85,-178.891 166.122,-171.643 167.644,-182.128 173.85,-178.891"/>
</g>
<!-- Node5 -->
<g id="node5" class="node"><title>Node5</title>
<g id="a_node5"><a xlink:href="classelftosb_1_1_encore_boot_image_reader_1_1read__error.html" target="_top" xlink:title="Exception class used for error found while reading a boot image. ">
<polygon fill="white" stroke="black" points="245.5,-229 245.5,-259 373.5,-259 373.5,-229 245.5,-229"/>
<text text-anchor="start" x="253.5" y="-247" font-family="Helvetica,sans-Serif" font-size="10.00">elftosb::EncoreBootImage</text>
<text text-anchor="middle" x="309.5" y="-236" font-family="Helvetica,sans-Serif" font-size="10.00">Reader::read_error</text>
</a>
</g>
</g>
<!-- Node2&#45;&gt;Node5 -->
<g id="edge4" class="edge"><title>Node2&#45;&gt;Node5</title>
<path fill="none" stroke="midnightblue" d="M181.384,-177.996C197.361,-190.32 220.732,-207.195 243,-219 249.775,-222.592 257.182,-225.93 264.5,-228.921"/>
<polygon fill="midnightblue" stroke="midnightblue" points="183.353,-175.092 173.323,-171.678 179.035,-180.601 183.353,-175.092"/>
</g>
<!-- Node6 -->
<g id="node6" class="node"><title>Node6</title>
<g id="a_node6"><a xlink:href="classelftosb_1_1lexical__error.html" target="_top" xlink:title="Exception class for lexical errors. ">
<polygon fill="white" stroke="black" points="257.5,-190.5 257.5,-209.5 361.5,-209.5 361.5,-190.5 257.5,-190.5"/>
<text text-anchor="middle" x="309.5" y="-197.5" font-family="Helvetica,sans-Serif" font-size="10.00">elftosb::lexical_error</text>
</a>
</g>
</g>
<!-- Node2&#45;&gt;Node6 -->
<g id="edge5" class="edge"><title>Node2&#45;&gt;Node6</title>
<path fill="none" stroke="midnightblue" d="M208.355,-174.112C228.828,-179.404 252.49,-185.521 271.672,-190.48"/>
<polygon fill="midnightblue" stroke="midnightblue" points="209.152,-170.703 198.594,-171.589 207.4,-177.48 209.152,-170.703"/>
</g>
<!-- Node7 -->
<g id="node7" class="node"><title>Node7</title>
<g id="a_node7"><a xlink:href="classelftosb_1_1semantic__error.html" target="_top" xlink:title="A semantic error discovered while processing the command file AST. ">
<polygon fill="white" stroke="black" points="251.5,-152.5 251.5,-171.5 367.5,-171.5 367.5,-152.5 251.5,-152.5"/>
<text text-anchor="middle" x="309.5" y="-159.5" font-family="Helvetica,sans-Serif" font-size="10.00">elftosb::semantic_error</text>
</a>
</g>
</g>
<!-- Node2&#45;&gt;Node7 -->
<g id="edge6" class="edge"><title>Node2&#45;&gt;Node7</title>
<path fill="none" stroke="midnightblue" d="M217.271,-162C228.443,-162 240.197,-162 251.413,-162"/>
<polygon fill="midnightblue" stroke="midnightblue" points="217.206,-158.5 207.206,-162 217.206,-165.5 217.206,-158.5"/>
</g>
<!-- Node8 -->
<g id="node8" class="node"><title>Node8</title>
<g id="a_node8"><a xlink:href="classelftosb_1_1syntax__error.html" target="_top" xlink:title="Exception class for syntax errors. ">
<polygon fill="white" stroke="black" points="257,-114.5 257,-133.5 362,-133.5 362,-114.5 257,-114.5"/>
<text text-anchor="middle" x="309.5" y="-121.5" font-family="Helvetica,sans-Serif" font-size="10.00">elftosb::syntax_error</text>
</a>
</g>
</g>
<!-- Node2&#45;&gt;Node8 -->
<g id="edge7" class="edge"><title>Node2&#45;&gt;Node8</title>
<path fill="none" stroke="midnightblue" d="M208.355,-149.888C228.828,-144.596 252.49,-138.479 271.672,-133.52"/>
<polygon fill="midnightblue" stroke="midnightblue" points="207.4,-146.52 198.594,-152.411 209.152,-153.297 207.4,-146.52"/>
</g>
<!-- Node9 -->
<g id="node9" class="node"><title>Node9</title>
<g id="a_node9"><a xlink:href="class_st_e_l_f_file_exception.html" target="_top" xlink:title="Simple exception thrown to indicate an error in the input ELF file format. ">
<polygon fill="white" stroke="black" points="257.5,-76.5 257.5,-95.5 361.5,-95.5 361.5,-76.5 257.5,-76.5"/>
<text text-anchor="middle" x="309.5" y="-83.5" font-family="Helvetica,sans-Serif" font-size="10.00">StELFFileException</text>
</a>
</g>
</g>
<!-- Node2&#45;&gt;Node9 -->
<g id="edge8" class="edge"><title>Node2&#45;&gt;Node9</title>
<path fill="none" stroke="midnightblue" d="M180.58,-145.927C196.421,-133.278 220.002,-116.005 243,-105 250.797,-101.269 259.473,-98.121 267.893,-95.5267"/>
<polygon fill="midnightblue" stroke="midnightblue" points="178.167,-143.378 172.628,-152.409 182.591,-148.803 178.167,-143.378"/>
</g>
<!-- Node10 -->
<g id="node10" class="node"><title>Node10</title>
<g id="a_node10"><a xlink:href="class_st_intel_hex_parse_exception.html" target="_top" xlink:title="Simple exception thrown to indicate an error in the input Intel Hex data format. ">
<polygon fill="white" stroke="black" points="244,-38.5 244,-57.5 375,-57.5 375,-38.5 244,-38.5"/>
<text text-anchor="middle" x="309.5" y="-45.5" font-family="Helvetica,sans-Serif" font-size="10.00">StIntelHexParseException</text>
</a>
</g>
</g>
<!-- Node2&#45;&gt;Node10 -->
<g id="edge9" class="edge"><title>Node2&#45;&gt;Node10</title>
<path fill="none" stroke="midnightblue" d="M172.43,-143.759C186.232,-122.273 211.964,-86.9823 243,-67 248.973,-63.1542 255.744,-60.0674 262.612,-57.5951"/>
<polygon fill="midnightblue" stroke="midnightblue" points="169.428,-141.958 167.108,-152.296 175.369,-145.662 169.428,-141.958"/>
</g>
<!-- Node11 -->
<g id="node11" class="node"><title>Node11</title>
<g id="a_node11"><a xlink:href="class_st_s_record_parse_exception.html" target="_top" xlink:title="Simple exception thrown to indicate an error in the input SRecord data format. ">
<polygon fill="white" stroke="black" points="243,-0.5 243,-19.5 376,-19.5 376,-0.5 243,-0.5"/>
<text text-anchor="middle" x="309.5" y="-7.5" font-family="Helvetica,sans-Serif" font-size="10.00">StSRecordParseException</text>
</a>
</g>
</g>
<!-- Node2&#45;&gt;Node11 -->
<g id="edge10" class="edge"><title>Node2&#45;&gt;Node11</title>
<path fill="none" stroke="midnightblue" d="M168.066,-142.855C178.996,-113.852 203.689,-58.9886 243,-29 248.083,-25.122 253.937,-22.0347 260.009,-19.577"/>
<polygon fill="midnightblue" stroke="midnightblue" points="164.768,-141.682 164.66,-152.277 171.351,-144.062 164.768,-141.682"/>
</g>
</g>
</svg>
