<?xml version="1.0" encoding="UTF-8" standalone="no"?>
<!DOCTYPE svg PUBLIC "-//W3C//DTD SVG 1.1//EN"
 "http://www.w3.org/Graphics/SVG/1.1/DTD/svg11.dtd">
<!-- Generated by graphviz version 2.38.0 (20140413.2041)
 -->
<!-- Title: Graphical Class Hierarchy Pages: 1 -->
<svg width="287pt" height="66pt"
 viewBox="0.00 0.00 287.00 66.00" xmlns="http://www.w3.org/2000/svg" xmlns:xlink="http://www.w3.org/1999/xlink">
<g id="graph0" class="graph" transform="scale(1 1) rotate(0) translate(4 62)">
<title>Graphical Class Hierarchy</title>
<polygon fill="white" stroke="none" points="-4,4 -4,-62 283,-62 283,4 -4,4"/>
<!-- Node1 -->
<g id="node1" class="node"><title>Node1</title>
<g id="a_node1"><a xlink:href="class_json_1_1_value_iterator_base.html" target="_top" xlink:title="base class for Value iterators. ">
<polygon fill="white" stroke="black" points="0,-19.5 0,-38.5 120,-38.5 120,-19.5 0,-19.5"/>
<text text-anchor="middle" x="60" y="-26.5" font-family="Helvetica,sans-Serif" font-size="10.00">Json::ValueIteratorBase</text>
</a>
</g>
</g>
<!-- Node2 -->
<g id="node2" class="node"><title>Node2</title>
<g id="a_node2"><a xlink:href="class_json_1_1_value_const_iterator.html" target="_top" xlink:title="const iterator for object and array value. ">
<polygon fill="white" stroke="black" points="156,-38.5 156,-57.5 279,-57.5 279,-38.5 156,-38.5"/>
<text text-anchor="middle" x="217.5" y="-45.5" font-family="Helvetica,sans-Serif" font-size="10.00">Json::ValueConstIterator</text>
</a>
</g>
</g>
<!-- Node1&#45;&gt;Node2 -->
<g id="edge1" class="edge"><title>Node1&#45;&gt;Node2</title>
<path fill="none" stroke="midnightblue" d="M130.195,-37.4547C138.759,-38.5012 147.464,-39.5647 155.886,-40.5937"/>
<polygon fill="midnightblue" stroke="midnightblue" points="130.582,-33.9761 120.231,-36.2373 129.733,-40.9244 130.582,-33.9761"/>
</g>
<!-- Node3 -->
<g id="node3" class="node"><title>Node3</title>
<g id="a_node3"><a xlink:href="class_json_1_1_value_iterator.html" target="_top" xlink:title="Iterator for object and array value. ">
<polygon fill="white" stroke="black" points="168.5,-0.5 168.5,-19.5 266.5,-19.5 266.5,-0.5 168.5,-0.5"/>
<text text-anchor="middle" x="217.5" y="-7.5" font-family="Helvetica,sans-Serif" font-size="10.00">Json::ValueIterator</text>
</a>
</g>
</g>
<!-- Node1&#45;&gt;Node3 -->
<g id="edge2" class="edge"><title>Node1&#45;&gt;Node3</title>
<path fill="none" stroke="midnightblue" d="M130.343,-20.5272C143.066,-18.9727 156.092,-17.381 168.038,-15.9214"/>
<polygon fill="midnightblue" stroke="midnightblue" points="129.733,-17.0756 120.231,-21.7627 130.582,-24.0239 129.733,-17.0756"/>
</g>
</g>
</svg>
