<?xml version="1.0" encoding="UTF-8" standalone="no"?>
<!DOCTYPE svg PUBLIC "-//W3C//DTD SVG 1.1//EN"
 "http://www.w3.org/Graphics/SVG/1.1/DTD/svg11.dtd">
<!-- Generated by graphviz version 2.38.0 (20140413.2041)
 -->
<!-- Title: Graphical Class Hierarchy Pages: 1 -->
<svg width="241pt" height="66pt"
 viewBox="0.00 0.00 241.00 66.00" xmlns="http://www.w3.org/2000/svg" xmlns:xlink="http://www.w3.org/1999/xlink">
<g id="graph0" class="graph" transform="scale(1 1) rotate(0) translate(4 62)">
<title>Graphical Class Hierarchy</title>
<polygon fill="white" stroke="none" points="-4,4 -4,-62 237,-62 237,4 -4,4"/>
<!-- Node1 -->
<g id="node1" class="node"><title>Node1</title>
<g id="a_node1"><a xlink:href="class_a_e_s_counter_base.html" target="_top" xlink:title="Base class for AESCounter&lt;S&gt;. ">
<polygon fill="white" stroke="black" points="0,-19.5 0,-38.5 93,-38.5 93,-19.5 0,-19.5"/>
<text text-anchor="middle" x="46.5" y="-26.5" font-family="Helvetica,sans-Serif" font-size="10.00">AESCounterBase</text>
</a>
</g>
</g>
<!-- Node2 -->
<g id="node2" class="node"><title>Node2</title>
<g id="a_node2"><a xlink:href="class_a_e_s_counter.html" target="_top" xlink:title="Generic AES Counter class. ">
<polygon fill="white" stroke="black" points="133.5,-38.5 133.5,-57.5 228.5,-57.5 228.5,-38.5 133.5,-38.5"/>
<text text-anchor="middle" x="181" y="-45.5" font-family="Helvetica,sans-Serif" font-size="10.00">AESCounter&lt; S &gt;</text>
</a>
</g>
</g>
<!-- Node1&#45;&gt;Node2 -->
<g id="edge1" class="edge"><title>Node1&#45;&gt;Node2</title>
<path fill="none" stroke="midnightblue" d="M103.054,-36.9662C113.158,-38.4152 123.604,-39.913 133.416,-41.3201"/>
<polygon fill="midnightblue" stroke="midnightblue" points="103.495,-33.4937 93.099,-35.5387 102.501,-40.4228 103.495,-33.4937"/>
</g>
<!-- Node3 -->
<g id="node3" class="node"><title>Node3</title>
<g id="a_node3"><a xlink:href="class_a_e_s_counter.html" target="_top" xlink:title="AESCounter\&lt; 128 \&gt;">
<polygon fill="white" stroke="black" points="129,-0.5 129,-19.5 233,-19.5 233,-0.5 129,-0.5"/>
<text text-anchor="middle" x="181" y="-7.5" font-family="Helvetica,sans-Serif" font-size="10.00">AESCounter&lt; 128 &gt;</text>
</a>
</g>
</g>
<!-- Node1&#45;&gt;Node3 -->
<g id="edge2" class="edge"><title>Node1&#45;&gt;Node3</title>
<path fill="none" stroke="midnightblue" d="M103.01,-21.04C111.58,-19.8112 120.396,-18.547 128.864,-17.3327"/>
<polygon fill="midnightblue" stroke="midnightblue" points="102.501,-17.5772 93.099,-22.4613 103.495,-24.5063 102.501,-17.5772"/>
</g>
</g>
</svg>
