<?xml version="1.0" encoding="UTF-8" standalone="no"?>
<!DOCTYPE svg PUBLIC "-//W3C//DTD SVG 1.1//EN"
 "http://www.w3.org/Graphics/SVG/1.1/DTD/svg11.dtd">
<!-- Generated by graphviz version 2.38.0 (20140413.2041)
 -->
<!-- Title: Graphical Class Hierarchy Pages: 1 -->
<svg width="216pt" height="218pt"
 viewBox="0.00 0.00 216.00 218.00" xmlns="http://www.w3.org/2000/svg" xmlns:xlink="http://www.w3.org/1999/xlink">
<g id="graph0" class="graph" transform="scale(1 1) rotate(0) translate(4 214)">
<title>Graphical Class Hierarchy</title>
<polygon fill="white" stroke="none" points="-4,4 -4,-214 212,-214 212,4 -4,4"/>
<!-- Node1 -->
<g id="node1" class="node"><title>Node1</title>
<polygon fill="white" stroke="#bfbfbf" points="0,-95.5 0,-114.5 62,-114.5 62,-95.5 0,-95.5"/>
<text text-anchor="middle" x="31" y="-102.5" font-family="Helvetica,sans-Serif" font-size="10.00">CDialogEx</text>
</g>
<!-- Node2 -->
<g id="node2" class="node"><title>Node2</title>
<g id="a_node2"><a xlink:href="class_bootloader_config_dlg.html" target="_top" xlink:title="BootloaderConfigDlg class is the UI Dialog class for the bootloader configuration page...">
<polygon fill="white" stroke="black" points="101,-190.5 101,-209.5 205,-209.5 205,-190.5 101,-190.5"/>
<text text-anchor="middle" x="153" y="-197.5" font-family="Helvetica,sans-Serif" font-size="10.00">BootloaderConfigDlg</text>
</a>
</g>
</g>
<!-- Node1&#45;&gt;Node2 -->
<g id="edge1" class="edge"><title>Node1&#45;&gt;Node2</title>
<path fill="none" stroke="midnightblue" d="M43.6209,-123.132C55.4312,-140.236 75.1968,-165.499 98,-181 103.589,-184.799 110.019,-187.921 116.449,-190.456"/>
<polygon fill="midnightblue" stroke="midnightblue" points="46.375,-120.954 37.9094,-114.583 40.5545,-124.843 46.375,-120.954"/>
</g>
<!-- Node3 -->
<g id="node3" class="node"><title>Node3</title>
<g id="a_node3"><a xlink:href="class_c_about_dlg.html" target="_top" xlink:title="CAboutDlg">
<polygon fill="white" stroke="black" points="121.5,-152.5 121.5,-171.5 184.5,-171.5 184.5,-152.5 121.5,-152.5"/>
<text text-anchor="middle" x="153" y="-159.5" font-family="Helvetica,sans-Serif" font-size="10.00">CAboutDlg</text>
</a>
</g>
</g>
<!-- Node1&#45;&gt;Node3 -->
<g id="edge2" class="edge"><title>Node1&#45;&gt;Node3</title>
<path fill="none" stroke="midnightblue" d="M55.5361,-119.965C67.8885,-127.453 83.4454,-136.319 98,-143 105.497,-146.441 113.809,-149.649 121.619,-152.412"/>
<polygon fill="midnightblue" stroke="midnightblue" points="57.1331,-116.838 46.7844,-114.568 53.4583,-122.796 57.1331,-116.838"/>
</g>
<!-- Node4 -->
<g id="node4" class="node"><title>Node4</title>
<g id="a_node4"><a xlink:href="class_c_kinetis_flash_tool_dlg.html" target="_top" xlink:title="CKinetisFlashToolDlg class is the UI Dialog class for the main page. ">
<polygon fill="white" stroke="black" points="98,-114.5 98,-133.5 208,-133.5 208,-114.5 98,-114.5"/>
<text text-anchor="middle" x="153" y="-121.5" font-family="Helvetica,sans-Serif" font-size="10.00">CKinetisFlashToolDlg</text>
</a>
</g>
</g>
<!-- Node1&#45;&gt;Node4 -->
<g id="edge3" class="edge"><title>Node1&#45;&gt;Node4</title>
<path fill="none" stroke="midnightblue" d="M72.3309,-111.386C80.5408,-112.686 89.3031,-114.073 97.9021,-115.435"/>
<polygon fill="midnightblue" stroke="midnightblue" points="72.7054,-107.902 62.2811,-109.795 71.6107,-114.815 72.7054,-107.902"/>
</g>
<!-- Node5 -->
<g id="node5" class="node"><title>Node5</title>
<g id="a_node5"><a xlink:href="class_config_dlg.html" target="_top" xlink:title="ConfigDlg class is the UI Dialog class for the BCA utilities tab page. ">
<polygon fill="white" stroke="black" points="124,-76.5 124,-95.5 182,-95.5 182,-76.5 124,-76.5"/>
<text text-anchor="middle" x="153" y="-83.5" font-family="Helvetica,sans-Serif" font-size="10.00">ConfigDlg</text>
</a>
</g>
</g>
<!-- Node1&#45;&gt;Node5 -->
<g id="edge4" class="edge"><title>Node1&#45;&gt;Node5</title>
<path fill="none" stroke="midnightblue" d="M72.4292,-98.5987C89.2977,-95.9279 108.484,-92.8901 123.79,-90.4667"/>
<polygon fill="midnightblue" stroke="midnightblue" points="71.6107,-95.1846 62.2811,-100.205 72.7054,-102.099 71.6107,-95.1846"/>
</g>
<!-- Node6 -->
<g id="node6" class="node"><title>Node6</title>
<g id="a_node6"><a xlink:href="class_flash_dlg.html" target="_top" xlink:title="FlashDlg class is the UI Dialog class for the Flash utilities tab page. ">
<polygon fill="white" stroke="black" points="125.5,-38.5 125.5,-57.5 180.5,-57.5 180.5,-38.5 125.5,-38.5"/>
<text text-anchor="middle" x="153" y="-45.5" font-family="Helvetica,sans-Serif" font-size="10.00">FlashDlg</text>
</a>
</g>
</g>
<!-- Node1&#45;&gt;Node6 -->
<g id="edge5" class="edge"><title>Node1&#45;&gt;Node6</title>
<path fill="none" stroke="midnightblue" d="M55.5361,-90.0346C67.8885,-82.5472 83.4454,-73.6815 98,-67 106.671,-63.0195 116.432,-59.3526 125.247,-56.3237"/>
<polygon fill="midnightblue" stroke="midnightblue" points="53.4583,-87.2039 46.7844,-95.4325 57.1331,-93.1617 53.4583,-87.2039"/>
</g>
<!-- Node7 -->
<g id="node7" class="node"><title>Node7</title>
<g id="a_node7"><a xlink:href="class_update_dlg.html" target="_top" xlink:title="UpdateDlg class is the UI Dialog class for the Update tab page. ">
<polygon fill="white" stroke="black" points="122,-0.5 122,-19.5 184,-19.5 184,-0.5 122,-0.5"/>
<text text-anchor="middle" x="153" y="-7.5" font-family="Helvetica,sans-Serif" font-size="10.00">UpdateDlg</text>
</a>
</g>
</g>
<!-- Node1&#45;&gt;Node7 -->
<g id="edge6" class="edge"><title>Node1&#45;&gt;Node7</title>
<path fill="none" stroke="midnightblue" d="M43.6209,-86.8678C55.4312,-69.7641 75.1968,-44.5007 98,-29 105.151,-24.1392 113.678,-20.3879 121.82,-17.5533"/>
<polygon fill="midnightblue" stroke="midnightblue" points="40.5545,-85.1572 37.9094,-95.4166 46.375,-89.046 40.5545,-85.1572"/>
</g>
</g>
</svg>
