<?xml version="1.0" encoding="UTF-8" standalone="no"?>
<!DOCTYPE svg PUBLIC "-//W3C//DTD SVG 1.1//EN"
 "http://www.w3.org/Graphics/SVG/1.1/DTD/svg11.dtd">
<!-- Generated by graphviz version 2.38.0 (20140413.2041)
 -->
<!-- Title: Json::ValueInternalMap::IteratorState Pages: 1 -->
<svg width="321pt" height="175pt"
 viewBox="0.00 0.00 320.50 175.00" xmlns="http://www.w3.org/2000/svg" xmlns:xlink="http://www.w3.org/1999/xlink">
<g id="graph0" class="graph" transform="scale(1 1) rotate(0) translate(4 171)">
<title>Json::ValueInternalMap::IteratorState</title>
<polygon fill="white" stroke="none" points="-4,4 -4,-171 316.5,-171 316.5,4 -4,4"/>
<!-- Node1 -->
<g id="node1" class="node"><title>Node1</title>
<polygon fill="#bfbfbf" stroke="black" points="46,-0.5 46,-30.5 164,-30.5 164,-0.5 46,-0.5"/>
<text text-anchor="start" x="54" y="-18.5" font-family="Helvetica,sans-Serif" font-size="10.00">Json::ValueInternalMap</text>
<text text-anchor="middle" x="105" y="-7.5" font-family="Helvetica,sans-Serif" font-size="10.00">::IteratorState</text>
</g>
<!-- Node2 -->
<g id="node2" class="node"><title>Node2</title>
<g id="a_node2"><a xlink:href="class_json_1_1_value_internal_map.html" target="_top" xlink:title="A linked page based hash&#45;table implementation used internally by Value. ">
<polygon fill="white" stroke="black" points="0,-79.5 0,-98.5 118,-98.5 118,-79.5 0,-79.5"/>
<text text-anchor="middle" x="59" y="-86.5" font-family="Helvetica,sans-Serif" font-size="10.00">Json::ValueInternalMap</text>
</a>
</g>
</g>
<!-- Node2&#45;&gt;Node1 -->
<g id="edge1" class="edge"><title>Node2&#45;&gt;Node1</title>
<path fill="none" stroke="#9a32cd" stroke-dasharray="5,2" d="M70.104,-70.7405C78.0368,-58.4102 88.5746,-42.0307 95.9873,-30.5088"/>
<polygon fill="#9a32cd" stroke="#9a32cd" points="67.1076,-68.9291 64.6405,-79.2327 72.9946,-72.7165 67.1076,-68.9291"/>
<text text-anchor="middle" x="98" y="-52" font-family="Helvetica,sans-Serif" font-size="10.00"> map_</text>
</g>
<!-- Node3 -->
<g id="node3" class="node"><title>Node3</title>
<g id="a_node3"><a xlink:href="class_json_1_1_value_internal_link.html" target="_top" xlink:title="ValueInternalMap hash&#45;map bucket chain link (for internal use only). ">
<polygon fill="white" stroke="black" points="136.5,-79.5 136.5,-98.5 253.5,-98.5 253.5,-79.5 136.5,-79.5"/>
<text text-anchor="middle" x="195" y="-86.5" font-family="Helvetica,sans-Serif" font-size="10.00">Json::ValueInternalLink</text>
</a>
</g>
</g>
<!-- Node3&#45;&gt;Node1 -->
<g id="edge2" class="edge"><title>Node3&#45;&gt;Node1</title>
<path fill="none" stroke="#9a32cd" stroke-dasharray="5,2" d="M175.958,-72.8725C160.201,-60.354 137.99,-42.7085 122.634,-30.5088"/>
<polygon fill="#9a32cd" stroke="#9a32cd" points="173.957,-75.7527 183.964,-79.2327 178.311,-70.2718 173.957,-75.7527"/>
<text text-anchor="middle" x="170" y="-52" font-family="Helvetica,sans-Serif" font-size="10.00"> link_</text>
</g>
<!-- Node3&#45;&gt;Node3 -->
<g id="edge5" class="edge"><title>Node3&#45;&gt;Node3</title>
<path fill="none" stroke="#9a32cd" stroke-dasharray="5,2" d="M263.935,-93.6087C268.64,-92.5492 271.5,-91.0129 271.5,-89 271.5,-85.7793 264.178,-83.7789 253.695,-82.9989"/>
<polygon fill="#9a32cd" stroke="#9a32cd" points="263.133,-90.1856 253.695,-95.0011 264.076,-97.1218 263.133,-90.1856"/>
<text text-anchor="middle" x="292" y="-92" font-family="Helvetica,sans-Serif" font-size="10.00"> next_</text>
<text text-anchor="middle" x="292" y="-81" font-family="Helvetica,sans-Serif" font-size="10.00">previous_</text>
</g>
<!-- Node4 -->
<g id="node4" class="node"><title>Node4</title>
<g id="a_node4"><a xlink:href="class_json_1_1_value.html" target="_top" xlink:title="Represents a JSON value. ">
<polygon fill="white" stroke="black" points="161,-147.5 161,-166.5 229,-166.5 229,-147.5 161,-147.5"/>
<text text-anchor="middle" x="195" y="-154.5" font-family="Helvetica,sans-Serif" font-size="10.00">Json::Value</text>
</a>
</g>
</g>
<!-- Node4&#45;&gt;Node3 -->
<g id="edge3" class="edge"><title>Node4&#45;&gt;Node3</title>
<path fill="none" stroke="#9a32cd" stroke-dasharray="5,2" d="M195,-137.041C195,-124.472 195,-108.563 195,-98.8411"/>
<polygon fill="#9a32cd" stroke="#9a32cd" points="191.5,-137.372 195,-147.372 198.5,-137.372 191.5,-137.372"/>
<text text-anchor="middle" x="211.5" y="-121" font-family="Helvetica,sans-Serif" font-size="10.00"> items_</text>
</g>
<!-- Node4&#45;&gt;Node4 -->
<g id="edge4" class="edge"><title>Node4&#45;&gt;Node4</title>
<path fill="none" stroke="#9a32cd" stroke-dasharray="5,2" d="M239.148,-162.019C243.925,-161.056 247,-159.383 247,-157 247,-153.188 239.127,-151.192 229.008,-151.013"/>
<polygon fill="#9a32cd" stroke="#9a32cd" points="238.631,-158.553 229.008,-162.987 239.296,-165.521 238.631,-158.553"/>
<text text-anchor="middle" x="256.5" y="-154.5" font-family="Helvetica,sans-Serif" font-size="10.00"> null</text>
</g>
</g>
</svg>
