<?xml version="1.0" encoding="UTF-8" standalone="no"?>
<!DOCTYPE svg PUBLIC "-//W3C//DTD SVG 1.1//EN"
 "http://www.w3.org/Graphics/SVG/1.1/DTD/svg11.dtd">
<!-- Generated by graphviz version 2.38.0 (20140413.2041)
 -->
<!-- Title: blfwk::updater_operation_t Pages: 1 -->
<svg width="192pt" height="375pt"
 viewBox="0.00 0.00 191.50 375.00" xmlns="http://www.w3.org/2000/svg" xmlns:xlink="http://www.w3.org/1999/xlink">
<g id="graph0" class="graph" transform="scale(1 1) rotate(0) translate(4 371)">
<title>blfwk::updater_operation_t</title>
<polygon fill="white" stroke="none" points="-4,4 -4,-371 187.5,-371 187.5,4 -4,4"/>
<!-- Node1 -->
<g id="node1" class="node"><title>Node1</title>
<polygon fill="#bfbfbf" stroke="black" points="5,-0.5 5,-19.5 135,-19.5 135,-0.5 5,-0.5"/>
<text text-anchor="middle" x="70" y="-7.5" font-family="Helvetica,sans-Serif" font-size="10.00">blfwk::updater_operation_t</text>
</g>
<!-- Node2 -->
<g id="node2" class="node"><title>Node2</title>
<polygon fill="white" stroke="#bfbfbf" points="75.5,-67.5 75.5,-97.5 178.5,-97.5 178.5,-67.5 75.5,-67.5"/>
<text text-anchor="start" x="83.5" y="-85.5" font-family="Helvetica,sans-Serif" font-size="10.00">std::vector&lt; updater</text>
<text text-anchor="middle" x="127" y="-74.5" font-family="Helvetica,sans-Serif" font-size="10.00">_task_t &gt;</text>
</g>
<!-- Node2&#45;&gt;Node1 -->
<g id="edge1" class="edge"><title>Node2&#45;&gt;Node1</title>
<path fill="none" stroke="#9a32cd" stroke-dasharray="5,2" d="M109.119,-59.3845C98.3271,-46.0362 85.1641,-29.7556 77.1902,-19.8932"/>
<polygon fill="#9a32cd" stroke="#9a32cd" points="106.456,-61.6575 115.465,-67.2333 111.9,-57.2564 106.456,-61.6575"/>
<text text-anchor="middle" x="115" y="-41" font-family="Helvetica,sans-Serif" font-size="10.00"> tasks</text>
</g>
<!-- Node3 -->
<g id="node3" class="node"><title>Node3</title>
<g id="a_node3"><a xlink:href="structblfwk_1_1updater__task__t.html" target="_top" xlink:title="blfwk::updater_task_t">
<polygon fill="white" stroke="black" points="74.5,-145.5 74.5,-164.5 183.5,-164.5 183.5,-145.5 74.5,-145.5"/>
<text text-anchor="middle" x="129" y="-152.5" font-family="Helvetica,sans-Serif" font-size="10.00">blfwk::updater_task_t</text>
</a>
</g>
</g>
<!-- Node3&#45;&gt;Node2 -->
<g id="edge2" class="edge"><title>Node3&#45;&gt;Node2</title>
<path fill="none" stroke="#9a32cd" stroke-dasharray="5,2" d="M128.468,-135.236C128.132,-123.408 127.706,-108.383 127.399,-97.5762"/>
<polygon fill="#9a32cd" stroke="#9a32cd" points="124.972,-135.459 128.755,-145.355 131.97,-135.26 124.972,-135.459"/>
<text text-anchor="middle" x="150.5" y="-119" font-family="Helvetica,sans-Serif" font-size="10.00"> elements</text>
</g>
<!-- Node4 -->
<g id="node4" class="node"><title>Node4</title>
<g id="a_node4"><a xlink:href="structblfwk_1_1updater__enum__t.html" target="_top" xlink:title="blfwk::updater_enum_t">
<polygon fill="white" stroke="black" points="0,-212.5 0,-231.5 114,-231.5 114,-212.5 0,-212.5"/>
<text text-anchor="middle" x="57" y="-219.5" font-family="Helvetica,sans-Serif" font-size="10.00">blfwk::updater_enum_t</text>
</a>
</g>
</g>
<!-- Node4&#45;&gt;Node1 -->
<g id="edge6" class="edge"><title>Node4&#45;&gt;Node1</title>
<path fill="none" stroke="#9a32cd" stroke-dasharray="5,2" d="M56.2231,-202.189C55.4811,-183.215 54.4161,-153.08 54,-127 53.922,-122.112 53.6307,-120.875 54,-116 56.73,-79.9617 64.6586,-37.558 68.2252,-19.6609"/>
<polygon fill="#9a32cd" stroke="#9a32cd" points="52.7262,-202.338 56.625,-212.19 59.7206,-202.057 52.7262,-202.338"/>
<text text-anchor="middle" x="89" y="-119" font-family="Helvetica,sans-Serif" font-size="10.00"> operation_desc</text>
</g>
<!-- Node4&#45;&gt;Node3 -->
<g id="edge3" class="edge"><title>Node4&#45;&gt;Node3</title>
<path fill="none" stroke="#9a32cd" stroke-dasharray="5,2" d="M74.3283,-205.356C88.4832,-192.578 107.963,-174.992 119.444,-164.627"/>
<polygon fill="#9a32cd" stroke="#9a32cd" points="71.7876,-202.935 66.7102,-212.234 76.4783,-208.131 71.7876,-202.935"/>
<text text-anchor="middle" x="122.5" y="-186" font-family="Helvetica,sans-Serif" font-size="10.00"> task_desc</text>
</g>
<!-- Node5 -->
<g id="node5" class="node"><title>Node5</title>
<g id="a_node5"><a xlink:title="STL class. ">
<polygon fill="white" stroke="#bfbfbf" points="27,-279.5 27,-298.5 87,-298.5 87,-279.5 27,-279.5"/>
<text text-anchor="middle" x="57" y="-286.5" font-family="Helvetica,sans-Serif" font-size="10.00">std::string</text>
</a>
</g>
</g>
<!-- Node5&#45;&gt;Node4 -->
<g id="edge4" class="edge"><title>Node5&#45;&gt;Node4</title>
<path fill="none" stroke="#9a32cd" stroke-dasharray="5,2" d="M57,-269.037C57,-256.67 57,-241.12 57,-231.627"/>
<polygon fill="#9a32cd" stroke="#9a32cd" points="53.5001,-269.234 57,-279.234 60.5001,-269.234 53.5001,-269.234"/>
<text text-anchor="middle" x="82.5" y="-253" font-family="Helvetica,sans-Serif" font-size="10.00"> description</text>
</g>
<!-- Node6 -->
<g id="node6" class="node"><title>Node6</title>
<g id="a_node6"><a xlink:title="STL class. ">
<polygon fill="white" stroke="#bfbfbf" points="9.5,-336.5 9.5,-366.5 104.5,-366.5 104.5,-336.5 9.5,-336.5"/>
<text text-anchor="start" x="17.5" y="-354.5" font-family="Helvetica,sans-Serif" font-size="10.00">std::basic_string&lt;</text>
<text text-anchor="middle" x="57" y="-343.5" font-family="Helvetica,sans-Serif" font-size="10.00"> char &gt;</text>
</a>
</g>
</g>
<!-- Node6&#45;&gt;Node5 -->
<g id="edge5" class="edge"><title>Node6&#45;&gt;Node5</title>
<path fill="none" stroke="midnightblue" d="M57,-326.352C57,-316.513 57,-305.775 57,-298.54"/>
<polygon fill="midnightblue" stroke="midnightblue" points="53.5001,-326.468 57,-336.468 60.5001,-326.468 53.5001,-326.468"/>
</g>
</g>
</svg>
