<?xml version="1.0" encoding="UTF-8" standalone="no"?>
<!DOCTYPE svg PUBLIC "-//W3C//DTD SVG 1.1//EN"
 "http://www.w3.org/Graphics/SVG/1.1/DTD/svg11.dtd">
<!-- Generated by graphviz version 2.38.0 (20140413.2041)
 -->
<!-- Title: blfwk::Peripheral::PeripheralConfigData Pages: 1 -->
<svg width="265pt" height="185pt"
 viewBox="0.00 0.00 265.00 185.00" xmlns="http://www.w3.org/2000/svg" xmlns:xlink="http://www.w3.org/1999/xlink">
<g id="graph0" class="graph" transform="scale(1 1) rotate(0) translate(4 181)">
<title>blfwk::Peripheral::PeripheralConfigData</title>
<polygon fill="white" stroke="none" points="-4,4 -4,-181 261,-181 261,4 -4,4"/>
<!-- Node1 -->
<g id="node1" class="node"><title>Node1</title>
<polygon fill="#bfbfbf" stroke="black" points="65,-0.5 65,-30.5 172,-30.5 172,-0.5 65,-0.5"/>
<text text-anchor="start" x="73" y="-18.5" font-family="Helvetica,sans-Serif" font-size="10.00">blfwk::Peripheral::</text>
<text text-anchor="middle" x="118.5" y="-7.5" font-family="Helvetica,sans-Serif" font-size="10.00">PeripheralConfigData</text>
</g>
<!-- Node2 -->
<g id="node2" class="node"><title>Node2</title>
<g id="a_node2"><a xlink:title="STL class. ">
<polygon fill="white" stroke="#bfbfbf" points="17.5,-89.5 17.5,-108.5 77.5,-108.5 77.5,-89.5 17.5,-89.5"/>
<text text-anchor="middle" x="47.5" y="-96.5" font-family="Helvetica,sans-Serif" font-size="10.00">std::string</text>
</a>
</g>
</g>
<!-- Node2&#45;&gt;Node1 -->
<g id="edge1" class="edge"><title>Node2&#45;&gt;Node1</title>
<path fill="none" stroke="#9a32cd" stroke-dasharray="5,2" d="M46.219,-79.1469C46.4747,-69.3389 48.3207,-57.6299 54.5,-49 60.0863,-41.1983 68.1021,-35.1496 76.5806,-30.5051"/>
<polygon fill="#9a32cd" stroke="#9a32cd" points="42.7199,-79.2343 46.4597,-89.1472 49.7179,-79.0658 42.7199,-79.2343"/>
<text text-anchor="middle" x="100.5" y="-63" font-family="Helvetica,sans-Serif" font-size="10.00"> usbHidSerialNumber</text>
<text text-anchor="middle" x="100.5" y="-52" font-family="Helvetica,sans-Serif" font-size="10.00">comPortName</text>
</g>
<!-- Node3 -->
<g id="node3" class="node"><title>Node3</title>
<g id="a_node3"><a xlink:title="STL class. ">
<polygon fill="white" stroke="#bfbfbf" points="0,-146.5 0,-176.5 95,-176.5 95,-146.5 0,-146.5"/>
<text text-anchor="start" x="8" y="-164.5" font-family="Helvetica,sans-Serif" font-size="10.00">std::basic_string&lt;</text>
<text text-anchor="middle" x="47.5" y="-153.5" font-family="Helvetica,sans-Serif" font-size="10.00"> char &gt;</text>
</a>
</g>
</g>
<!-- Node3&#45;&gt;Node2 -->
<g id="edge2" class="edge"><title>Node3&#45;&gt;Node2</title>
<path fill="none" stroke="midnightblue" d="M47.5,-136.352C47.5,-126.513 47.5,-115.775 47.5,-108.54"/>
<polygon fill="midnightblue" stroke="midnightblue" points="44.0001,-136.468 47.5,-146.468 51.0001,-136.468 44.0001,-136.468"/>
</g>
<!-- Node4 -->
<g id="node4" class="node"><title>Node4</title>
<g id="a_node4"><a xlink:href="structblfwk_1_1_bus_pal_1_1_bus_pal_config_data.html" target="_top" xlink:title="BusPal configuration data. ">
<polygon fill="white" stroke="black" points="96,-89.5 96,-108.5 257,-108.5 257,-89.5 96,-89.5"/>
<text text-anchor="middle" x="176.5" y="-96.5" font-family="Helvetica,sans-Serif" font-size="10.00">blfwk::BusPal::BusPalConfigData</text>
</a>
</g>
</g>
<!-- Node4&#45;&gt;Node1 -->
<g id="edge3" class="edge"><title>Node4&#45;&gt;Node1</title>
<path fill="none" stroke="#9a32cd" stroke-dasharray="5,2" d="M168.453,-79.8873C163.819,-70.3082 157.526,-58.5813 150.5,-49 145.724,-42.4869 139.674,-36.0044 134.123,-30.5622"/>
<polygon fill="#9a32cd" stroke="#9a32cd" points="165.405,-81.6353 172.787,-89.2355 171.756,-78.691 165.405,-81.6353"/>
<text text-anchor="middle" x="195" y="-57.5" font-family="Helvetica,sans-Serif" font-size="10.00"> busPalConfig</text>
</g>
</g>
</svg>
