<?xml version="1.0" encoding="UTF-8" standalone="no"?>
<!DOCTYPE svg PUBLIC "-//W3C//DTD SVG 1.1//EN"
 "http://www.w3.org/Graphics/SVG/1.1/DTD/svg11.dtd">
<!-- Generated by graphviz version 2.38.0 (20140413.2041)
 -->
<!-- Title: Json::ValueInternalArray::IteratorState Pages: 1 -->
<svg width="253pt" height="106pt"
 viewBox="0.00 0.00 253.00 106.00" xmlns="http://www.w3.org/2000/svg" xmlns:xlink="http://www.w3.org/1999/xlink">
<g id="graph0" class="graph" transform="scale(1 1) rotate(0) translate(4 102)">
<title>Json::ValueInternalArray::IteratorState</title>
<polygon fill="white" stroke="none" points="-4,4 -4,-102 249,-102 249,4 -4,4"/>
<!-- Node1 -->
<g id="node1" class="node"><title>Node1</title>
<polygon fill="#bfbfbf" stroke="black" points="41,-0.5 41,-30.5 163,-30.5 163,-0.5 41,-0.5"/>
<text text-anchor="start" x="49" y="-18.5" font-family="Helvetica,sans-Serif" font-size="10.00">Json::ValueInternalArray</text>
<text text-anchor="middle" x="102" y="-7.5" font-family="Helvetica,sans-Serif" font-size="10.00">::IteratorState</text>
</g>
<!-- Node2 -->
<g id="node2" class="node"><title>Node2</title>
<g id="a_node2"><a xlink:href="class_json_1_1_value_internal_array.html" target="_top" xlink:title="A simplified deque implementation used internally by Value. ">
<polygon fill="white" stroke="black" points="0,-78.5 0,-97.5 122,-97.5 122,-78.5 0,-78.5"/>
<text text-anchor="middle" x="61" y="-85.5" font-family="Helvetica,sans-Serif" font-size="10.00">Json::ValueInternalArray</text>
</a>
</g>
</g>
<!-- Node2&#45;&gt;Node1 -->
<g id="edge1" class="edge"><title>Node2&#45;&gt;Node1</title>
<path fill="none" stroke="#9a32cd" stroke-dasharray="5,2" d="M71.0711,-69.6827C78.0663,-57.6542 87.2699,-41.8286 93.8139,-30.5762"/>
<polygon fill="#9a32cd" stroke="#9a32cd" points="68.0292,-67.9513 66.0274,-78.3553 74.0803,-71.4704 68.0292,-67.9513"/>
<text text-anchor="middle" x="98.5" y="-52" font-family="Helvetica,sans-Serif" font-size="10.00"> array_</text>
</g>
<!-- Node3 -->
<g id="node3" class="node"><title>Node3</title>
<g id="a_node3"><a xlink:href="class_json_1_1_value.html" target="_top" xlink:title="Represents a JSON value. ">
<polygon fill="white" stroke="black" points="140,-78.5 140,-97.5 208,-97.5 208,-78.5 140,-78.5"/>
<text text-anchor="middle" x="174" y="-85.5" font-family="Helvetica,sans-Serif" font-size="10.00">Json::Value</text>
</a>
</g>
</g>
<!-- Node3&#45;&gt;Node1 -->
<g id="edge2" class="edge"><title>Node3&#45;&gt;Node1</title>
<path fill="none" stroke="#9a32cd" stroke-dasharray="5,2" d="M157.755,-71.0934C145.317,-58.9149 128.323,-42.2742 116.376,-30.5762"/>
<polygon fill="#9a32cd" stroke="#9a32cd" points="155.578,-73.8598 165.171,-78.3553 160.475,-68.8582 155.578,-73.8598"/>
<text text-anchor="middle" x="186.5" y="-52" font-family="Helvetica,sans-Serif" font-size="10.00"> currentPageIndex_</text>
</g>
<!-- Node3&#45;&gt;Node3 -->
<g id="edge3" class="edge"><title>Node3&#45;&gt;Node3</title>
<path fill="none" stroke="#9a32cd" stroke-dasharray="5,2" d="M218.148,-93.0193C222.925,-92.0559 226,-90.3828 226,-88 226,-84.1875 218.127,-82.1919 208.008,-82.0132"/>
<polygon fill="#9a32cd" stroke="#9a32cd" points="217.631,-89.5526 208.008,-93.9868 218.296,-96.5209 217.631,-89.5526"/>
<text text-anchor="middle" x="235.5" y="-85.5" font-family="Helvetica,sans-Serif" font-size="10.00"> null</text>
</g>
</g>
</svg>
