<?xml version="1.0" encoding="UTF-8" standalone="no"?>
<!DOCTYPE svg PUBLIC "-//W3C//DTD SVG 1.1//EN"
 "http://www.w3.org/Graphics/SVG/1.1/DTD/svg11.dtd">
<!-- Generated by graphviz version 2.38.0 (20140413.2041)
 -->
<!-- Title: blfwk::updater_task_t Pages: 1 -->
<svg width="122pt" height="230pt"
 viewBox="0.00 0.00 122.00 230.00" xmlns="http://www.w3.org/2000/svg" xmlns:xlink="http://www.w3.org/1999/xlink">
<g id="graph0" class="graph" transform="scale(1 1) rotate(0) translate(4 226)">
<title>blfwk::updater_task_t</title>
<polygon fill="white" stroke="none" points="-4,4 -4,-226 118,-226 118,4 -4,4"/>
<!-- Node1 -->
<g id="node1" class="node"><title>Node1</title>
<polygon fill="#bfbfbf" stroke="black" points="2.5,-0.5 2.5,-19.5 111.5,-19.5 111.5,-0.5 2.5,-0.5"/>
<text text-anchor="middle" x="57" y="-7.5" font-family="Helvetica,sans-Serif" font-size="10.00">blfwk::updater_task_t</text>
</g>
<!-- Node2 -->
<g id="node2" class="node"><title>Node2</title>
<g id="a_node2"><a xlink:href="structblfwk_1_1updater__enum__t.html" target="_top" xlink:title="blfwk::updater_enum_t">
<polygon fill="white" stroke="black" points="0,-67.5 0,-86.5 114,-86.5 114,-67.5 0,-67.5"/>
<text text-anchor="middle" x="57" y="-74.5" font-family="Helvetica,sans-Serif" font-size="10.00">blfwk::updater_enum_t</text>
</a>
</g>
</g>
<!-- Node2&#45;&gt;Node1 -->
<g id="edge1" class="edge"><title>Node2&#45;&gt;Node1</title>
<path fill="none" stroke="#9a32cd" stroke-dasharray="5,2" d="M57,-57.037C57,-44.6703 57,-29.1198 57,-19.6273"/>
<polygon fill="#9a32cd" stroke="#9a32cd" points="53.5001,-57.2338 57,-67.2338 60.5001,-57.2338 53.5001,-57.2338"/>
<text text-anchor="middle" x="81.5" y="-41" font-family="Helvetica,sans-Serif" font-size="10.00"> task_desc</text>
</g>
<!-- Node3 -->
<g id="node3" class="node"><title>Node3</title>
<g id="a_node3"><a xlink:title="STL class. ">
<polygon fill="white" stroke="#bfbfbf" points="27,-134.5 27,-153.5 87,-153.5 87,-134.5 27,-134.5"/>
<text text-anchor="middle" x="57" y="-141.5" font-family="Helvetica,sans-Serif" font-size="10.00">std::string</text>
</a>
</g>
</g>
<!-- Node3&#45;&gt;Node2 -->
<g id="edge2" class="edge"><title>Node3&#45;&gt;Node2</title>
<path fill="none" stroke="#9a32cd" stroke-dasharray="5,2" d="M57,-124.037C57,-111.67 57,-96.1198 57,-86.6273"/>
<polygon fill="#9a32cd" stroke="#9a32cd" points="53.5001,-124.234 57,-134.234 60.5001,-124.234 53.5001,-124.234"/>
<text text-anchor="middle" x="82.5" y="-108" font-family="Helvetica,sans-Serif" font-size="10.00"> description</text>
</g>
<!-- Node4 -->
<g id="node4" class="node"><title>Node4</title>
<g id="a_node4"><a xlink:title="STL class. ">
<polygon fill="white" stroke="#bfbfbf" points="9.5,-191.5 9.5,-221.5 104.5,-221.5 104.5,-191.5 9.5,-191.5"/>
<text text-anchor="start" x="17.5" y="-209.5" font-family="Helvetica,sans-Serif" font-size="10.00">std::basic_string&lt;</text>
<text text-anchor="middle" x="57" y="-198.5" font-family="Helvetica,sans-Serif" font-size="10.00"> char &gt;</text>
</a>
</g>
</g>
<!-- Node4&#45;&gt;Node3 -->
<g id="edge3" class="edge"><title>Node4&#45;&gt;Node3</title>
<path fill="none" stroke="midnightblue" d="M57,-181.352C57,-171.513 57,-160.775 57,-153.54"/>
<polygon fill="midnightblue" stroke="midnightblue" points="53.5001,-181.468 57,-191.468 60.5001,-181.468 53.5001,-181.468"/>
</g>
</g>
</svg>
