<?xml version="1.0" encoding="UTF-8" standalone="no"?>
<!DOCTYPE svg PUBLIC "-//W3C//DTD SVG 1.1//EN"
 "http://www.w3.org/Graphics/SVG/1.1/DTD/svg11.dtd">
<!-- Generated by graphviz version 2.38.0 (20140413.2041)
 -->
<!-- Title: blfwk::updater_enum_t Pages: 1 -->
<svg width="122pt" height="163pt"
 viewBox="0.00 0.00 122.00 163.00" xmlns="http://www.w3.org/2000/svg" xmlns:xlink="http://www.w3.org/1999/xlink">
<g id="graph0" class="graph" transform="scale(1 1) rotate(0) translate(4 159)">
<title>blfwk::updater_enum_t</title>
<polygon fill="white" stroke="none" points="-4,4 -4,-159 118,-159 118,4 -4,4"/>
<!-- Node1 -->
<g id="node1" class="node"><title>Node1</title>
<polygon fill="#bfbfbf" stroke="black" points="0,-0.5 0,-19.5 114,-19.5 114,-0.5 0,-0.5"/>
<text text-anchor="middle" x="57" y="-7.5" font-family="Helvetica,sans-Serif" font-size="10.00">blfwk::updater_enum_t</text>
</g>
<!-- Node2 -->
<g id="node2" class="node"><title>Node2</title>
<g id="a_node2"><a xlink:title="STL class. ">
<polygon fill="white" stroke="#bfbfbf" points="27,-67.5 27,-86.5 87,-86.5 87,-67.5 27,-67.5"/>
<text text-anchor="middle" x="57" y="-74.5" font-family="Helvetica,sans-Serif" font-size="10.00">std::string</text>
</a>
</g>
</g>
<!-- Node2&#45;&gt;Node1 -->
<g id="edge1" class="edge"><title>Node2&#45;&gt;Node1</title>
<path fill="none" stroke="#9a32cd" stroke-dasharray="5,2" d="M57,-57.037C57,-44.6703 57,-29.1198 57,-19.6273"/>
<polygon fill="#9a32cd" stroke="#9a32cd" points="53.5001,-57.2338 57,-67.2338 60.5001,-57.2338 53.5001,-57.2338"/>
<text text-anchor="middle" x="82.5" y="-41" font-family="Helvetica,sans-Serif" font-size="10.00"> description</text>
</g>
<!-- Node3 -->
<g id="node3" class="node"><title>Node3</title>
<g id="a_node3"><a xlink:title="STL class. ">
<polygon fill="white" stroke="#bfbfbf" points="9.5,-124.5 9.5,-154.5 104.5,-154.5 104.5,-124.5 9.5,-124.5"/>
<text text-anchor="start" x="17.5" y="-142.5" font-family="Helvetica,sans-Serif" font-size="10.00">std::basic_string&lt;</text>
<text text-anchor="middle" x="57" y="-131.5" font-family="Helvetica,sans-Serif" font-size="10.00"> char &gt;</text>
</a>
</g>
</g>
<!-- Node3&#45;&gt;Node2 -->
<g id="edge2" class="edge"><title>Node3&#45;&gt;Node2</title>
<path fill="none" stroke="midnightblue" d="M57,-114.352C57,-104.513 57,-93.7753 57,-86.5399"/>
<polygon fill="midnightblue" stroke="midnightblue" points="53.5001,-114.468 57,-124.468 60.5001,-114.468 53.5001,-114.468"/>
</g>
</g>
</svg>
