<?xml version="1.0" encoding="UTF-8" standalone="no"?>
<!DOCTYPE svg PUBLIC "-//W3C//DTD SVG 1.1//EN"
 "http://www.w3.org/Graphics/SVG/1.1/DTD/svg11.dtd">
<!-- Generated by graphviz version 2.38.0 (20140413.2041)
 -->
<!-- Title: hid_device Pages: 1 -->
<svg width="224pt" height="106pt"
 viewBox="0.00 0.00 223.50 106.00" xmlns="http://www.w3.org/2000/svg" xmlns:xlink="http://www.w3.org/1999/xlink">
<g id="graph0" class="graph" transform="scale(1 1) rotate(0) translate(4 102)">
<title>hid_device</title>
<polygon fill="white" stroke="none" points="-4,4 -4,-102 219.5,-102 219.5,4 -4,4"/>
<!-- Node1 -->
<g id="node1" class="node"><title>Node1</title>
<polygon fill="#bfbfbf" stroke="black" points="61.5,-0.5 61.5,-19.5 123.5,-19.5 123.5,-0.5 61.5,-0.5"/>
<text text-anchor="middle" x="92.5" y="-7.5" font-family="Helvetica,sans-Serif" font-size="10.00">hid_device</text>
</g>
<!-- Node2 -->
<g id="node2" class="node"><title>Node2</title>
<g id="a_node2"><a xlink:href="structpthread__barrier__t.html" target="_top" xlink:title="pthread_barrier_t">
<polygon fill="white" stroke="black" points="0,-78.5 0,-97.5 89,-97.5 89,-78.5 0,-78.5"/>
<text text-anchor="middle" x="44.5" y="-85.5" font-family="Helvetica,sans-Serif" font-size="10.00">pthread_barrier_t</text>
</a>
</g>
</g>
<!-- Node2&#45;&gt;Node1 -->
<g id="edge1" class="edge"><title>Node2&#45;&gt;Node1</title>
<path fill="none" stroke="#9a32cd" stroke-dasharray="5,2" d="M40.6902,-68.1638C39.732,-58.5134 40.2004,-46.9445 45.5,-38 50.3928,-29.7421 58.848,-23.7784 67.25,-19.5917"/>
<polygon fill="#9a32cd" stroke="#9a32cd" points="37.2768,-68.9927 42.2664,-78.3391 44.1943,-67.9211 37.2768,-68.9927"/>
<text text-anchor="middle" x="82.5" y="-52" font-family="Helvetica,sans-Serif" font-size="10.00"> barrier</text>
<text text-anchor="middle" x="82.5" y="-41" font-family="Helvetica,sans-Serif" font-size="10.00">shutdown_barrier</text>
</g>
<!-- Node3 -->
<g id="node3" class="node"><title>Node3</title>
<g id="a_node3"><a xlink:href="structinput__report.html" target="_top" xlink:title="input_report">
<polygon fill="white" stroke="black" points="107.5,-78.5 107.5,-97.5 175.5,-97.5 175.5,-78.5 107.5,-78.5"/>
<text text-anchor="middle" x="141.5" y="-85.5" font-family="Helvetica,sans-Serif" font-size="10.00">input_report</text>
</a>
</g>
</g>
<!-- Node3&#45;&gt;Node1 -->
<g id="edge2" class="edge"><title>Node3&#45;&gt;Node1</title>
<path fill="none" stroke="#9a32cd" stroke-dasharray="5,2" d="M135.163,-68.7987C131.377,-59.1941 126.031,-47.4712 119.5,-38 114.833,-31.2329 108.353,-24.6867 102.911,-19.7351"/>
<polygon fill="#9a32cd" stroke="#9a32cd" points="131.884,-70.0223 138.641,-78.1824 138.447,-67.5893 131.884,-70.0223"/>
<text text-anchor="middle" x="161.5" y="-46.5" font-family="Helvetica,sans-Serif" font-size="10.00"> input_reports</text>
</g>
<!-- Node3&#45;&gt;Node3 -->
<g id="edge3" class="edge"><title>Node3&#45;&gt;Node3</title>
<path fill="none" stroke="#9a32cd" stroke-dasharray="5,2" d="M185.648,-93.9604C190.425,-92.8164 193.5,-90.8296 193.5,-88 193.5,-83.4727 185.627,-81.1029 175.508,-80.8907"/>
<polygon fill="#9a32cd" stroke="#9a32cd" points="185.051,-90.5055 175.508,-95.1093 185.839,-97.461 185.051,-90.5055"/>
<text text-anchor="middle" x="204.5" y="-85.5" font-family="Helvetica,sans-Serif" font-size="10.00"> next</text>
</g>
</g>
</svg>
