<?xml version="1.0" encoding="UTF-8" standalone="no"?>
<!DOCTYPE svg PUBLIC "-//W3C//DTD SVG 1.1//EN"
 "http://www.w3.org/Graphics/SVG/1.1/DTD/svg11.dtd">
<!-- Generated by graphviz version 2.38.0 (20140413.2041)
 -->
<!-- Title: blfwk::SBSourceFile::boot_image_header_t Pages: 1 -->
<svg width="164pt" height="128pt"
 viewBox="0.00 0.00 164.00 128.00" xmlns="http://www.w3.org/2000/svg" xmlns:xlink="http://www.w3.org/1999/xlink">
<g id="graph0" class="graph" transform="scale(1 1) rotate(0) translate(4 124)">
<title>blfwk::SBSourceFile::boot_image_header_t</title>
<polygon fill="white" stroke="none" points="-4,4 -4,-124 160,-124 160,4 -4,4"/>
<!-- Node1 -->
<g id="node1" class="node"><title>Node1</title>
<polygon fill="#bfbfbf" stroke="black" points="0,-0.5 0,-30.5 116,-30.5 116,-0.5 0,-0.5"/>
<text text-anchor="start" x="8" y="-18.5" font-family="Helvetica,sans-Serif" font-size="10.00">blfwk::SBSourceFile</text>
<text text-anchor="middle" x="58" y="-7.5" font-family="Helvetica,sans-Serif" font-size="10.00">::boot_image_header_t</text>
</g>
<!-- Node2 -->
<g id="node2" class="node"><title>Node2</title>
<g id="a_node2"><a xlink:href="classblfwk_1_1_s_b_source_file.html#structblfwk_1_1_s_b_source_file_1_1version__t" target="_top" xlink:title="Same version struct used for 3600 boot image. ">
<polygon fill="white" stroke="black" points="6,-89.5 6,-119.5 110,-119.5 110,-89.5 6,-89.5"/>
<text text-anchor="start" x="14" y="-107.5" font-family="Helvetica,sans-Serif" font-size="10.00">blfwk::SBSourceFile</text>
<text text-anchor="middle" x="58" y="-96.5" font-family="Helvetica,sans-Serif" font-size="10.00">::version_t</text>
</a>
</g>
</g>
<!-- Node2&#45;&gt;Node1 -->
<g id="edge1" class="edge"><title>Node2&#45;&gt;Node1</title>
<path fill="none" stroke="#9a32cd" stroke-dasharray="5,2" d="M58,-79.0903C58,-63.4429 58,-43.6846 58,-30.599"/>
<polygon fill="#9a32cd" stroke="#9a32cd" points="54.5001,-79.1337 58,-89.1337 61.5001,-79.1338 54.5001,-79.1337"/>
<text text-anchor="middle" x="107" y="-63" font-family="Helvetica,sans-Serif" font-size="10.00"> m_componentVersion</text>
<text text-anchor="middle" x="107" y="-52" font-family="Helvetica,sans-Serif" font-size="10.00">m_productVersion</text>
</g>
</g>
</svg>
