<?xml version="1.0" encoding="UTF-8" standalone="no"?>
<!DOCTYPE svg PUBLIC "-//W3C//DTD SVG 1.1//EN"
 "http://www.w3.org/Graphics/SVG/1.1/DTD/svg11.dtd">
<!-- Generated by graphviz version 2.38.0 (20140413.2041)
 -->
<!-- Title: YYSTYPE Pages: 1 -->
<svg width="443pt" height="230pt"
 viewBox="0.00 0.00 443.00 230.00" xmlns="http://www.w3.org/2000/svg" xmlns:xlink="http://www.w3.org/1999/xlink">
<g id="graph0" class="graph" transform="scale(1 1) rotate(0) translate(4 226)">
<title>YYSTYPE</title>
<polygon fill="white" stroke="none" points="-4,4 -4,-226 439,-226 439,4 -4,4"/>
<!-- Node1 -->
<g id="node1" class="node"><title>Node1</title>
<polygon fill="#bfbfbf" stroke="black" points="184,-0.5 184,-19.5 246,-19.5 246,-0.5 184,-0.5"/>
<text text-anchor="middle" x="215" y="-7.5" font-family="Helvetica,sans-Serif" font-size="10.00">YYSTYPE</text>
</g>
<!-- Node2 -->
<g id="node2" class="node"><title>Node2</title>
<g id="a_node2"><a xlink:href="classelftosb_1_1_sized_integer_value.html" target="_top" xlink:title="Adds a word size attribute to IntegerValue. ">
<polygon fill="white" stroke="black" points="0,-67.5 0,-86.5 130,-86.5 130,-67.5 0,-67.5"/>
<text text-anchor="middle" x="65" y="-74.5" font-family="Helvetica,sans-Serif" font-size="10.00">elftosb::SizedIntegerValue</text>
</a>
</g>
</g>
<!-- Node2&#45;&gt;Node1 -->
<g id="edge1" class="edge"><title>Node2&#45;&gt;Node1</title>
<path fill="none" stroke="#9a32cd" stroke-dasharray="5,2" d="M94.3516,-63.281C124.057,-50.4085 169.182,-30.8545 194.999,-19.6672"/>
<polygon fill="#9a32cd" stroke="#9a32cd" points="92.7028,-60.1809 84.9188,-67.3685 95.4861,-66.6038 92.7028,-60.1809"/>
<text text-anchor="middle" x="163" y="-41" font-family="Helvetica,sans-Serif" font-size="10.00"> m_int</text>
</g>
<!-- Node3 -->
<g id="node3" class="node"><title>Node3</title>
<g id="a_node3"><a xlink:href="classelftosb_1_1_integer_value.html" target="_top" xlink:title="32&#45;bit signed integer value. ">
<polygon fill="white" stroke="black" points="9.5,-140 9.5,-159 114.5,-159 114.5,-140 9.5,-140"/>
<text text-anchor="middle" x="62" y="-147" font-family="Helvetica,sans-Serif" font-size="10.00">elftosb::IntegerValue</text>
</a>
</g>
</g>
<!-- Node3&#45;&gt;Node2 -->
<g id="edge2" class="edge"><title>Node3&#45;&gt;Node2</title>
<path fill="none" stroke="midnightblue" d="M62.7933,-129.858C63.3874,-115.895 64.1733,-97.4263 64.6291,-86.7154"/>
<polygon fill="midnightblue" stroke="midnightblue" points="59.2963,-129.716 62.3679,-139.855 66.2899,-130.013 59.2963,-129.716"/>
</g>
<!-- Node4 -->
<g id="node4" class="node"><title>Node4</title>
<g id="a_node4"><a xlink:href="classelftosb_1_1_value.html" target="_top" xlink:title="Abstract base class for values of arbitrary types. ">
<polygon fill="white" stroke="black" points="24,-202.5 24,-221.5 100,-221.5 100,-202.5 24,-202.5"/>
<text text-anchor="middle" x="62" y="-209.5" font-family="Helvetica,sans-Serif" font-size="10.00">elftosb::Value</text>
</a>
</g>
</g>
<!-- Node4&#45;&gt;Node3 -->
<g id="edge3" class="edge"><title>Node4&#45;&gt;Node3</title>
<path fill="none" stroke="midnightblue" d="M62,-192.003C62,-181 62,-167.682 62,-159.152"/>
<polygon fill="midnightblue" stroke="midnightblue" points="58.5001,-192.332 62,-202.332 65.5001,-192.332 58.5001,-192.332"/>
</g>
<!-- Node5 -->
<g id="node5" class="node"><title>Node5</title>
<g id="a_node5"><a xlink:title="STL class. ">
<polygon fill="white" stroke="#bfbfbf" points="149,-67.5 149,-86.5 209,-86.5 209,-67.5 149,-67.5"/>
<text text-anchor="middle" x="179" y="-74.5" font-family="Helvetica,sans-Serif" font-size="10.00">std::string</text>
</a>
</g>
</g>
<!-- Node5&#45;&gt;Node1 -->
<g id="edge4" class="edge"><title>Node5&#45;&gt;Node1</title>
<path fill="none" stroke="#9a32cd" stroke-dasharray="5,2" d="M186.805,-58.1455C189.795,-51.6932 193.365,-44.4199 197,-38 200.553,-31.7249 205.053,-24.9749 208.665,-19.7937"/>
<polygon fill="#9a32cd" stroke="#9a32cd" points="183.567,-56.8127 182.658,-67.3685 189.951,-59.6835 183.567,-56.8127"/>
<text text-anchor="middle" x="211" y="-41" font-family="Helvetica,sans-Serif" font-size="10.00"> m_str</text>
</g>
<!-- Node6 -->
<g id="node6" class="node"><title>Node6</title>
<g id="a_node6"><a xlink:title="STL class. ">
<polygon fill="white" stroke="#bfbfbf" points="132.5,-134.5 132.5,-164.5 227.5,-164.5 227.5,-134.5 132.5,-134.5"/>
<text text-anchor="start" x="140.5" y="-152.5" font-family="Helvetica,sans-Serif" font-size="10.00">std::basic_string&lt;</text>
<text text-anchor="middle" x="180" y="-141.5" font-family="Helvetica,sans-Serif" font-size="10.00"> char &gt;</text>
</a>
</g>
</g>
<!-- Node6&#45;&gt;Node5 -->
<g id="edge5" class="edge"><title>Node6&#45;&gt;Node5</title>
<path fill="none" stroke="midnightblue" d="M179.654,-124.091C179.471,-111.214 179.258,-96.1974 179.126,-86.8932"/>
<polygon fill="midnightblue" stroke="midnightblue" points="176.156,-124.284 179.798,-134.233 183.155,-124.185 176.156,-124.284"/>
</g>
<!-- Node7 -->
<g id="node7" class="node"><title>Node7</title>
<g id="a_node7"><a xlink:href="class_blob.html" target="_top" xlink:title="Manages a binary object of arbitrary length. ">
<polygon fill="white" stroke="black" points="227,-67.5 227,-86.5 263,-86.5 263,-67.5 227,-67.5"/>
<text text-anchor="middle" x="245" y="-74.5" font-family="Helvetica,sans-Serif" font-size="10.00">Blob</text>
</a>
</g>
</g>
<!-- Node7&#45;&gt;Node1 -->
<g id="edge6" class="edge"><title>Node7&#45;&gt;Node1</title>
<path fill="none" stroke="#9a32cd" stroke-dasharray="5,2" d="M236.595,-57.79C230.834,-45.3076 223.452,-29.3135 218.982,-19.6273"/>
<polygon fill="#9a32cd" stroke="#9a32cd" points="233.586,-59.6209 240.954,-67.2338 239.941,-56.6875 233.586,-59.6209"/>
<text text-anchor="middle" x="249.5" y="-41" font-family="Helvetica,sans-Serif" font-size="10.00"> m_blob</text>
</g>
<!-- Node8 -->
<g id="node8" class="node"><title>Node8</title>
<g id="a_node8"><a xlink:href="classelftosb_1_1_a_s_t_node.html" target="_top" xlink:title="The base class for all AST node classes. ">
<polygon fill="white" stroke="black" points="281,-67.5 281,-86.5 373,-86.5 373,-67.5 281,-67.5"/>
<text text-anchor="middle" x="327" y="-74.5" font-family="Helvetica,sans-Serif" font-size="10.00">elftosb::ASTNode</text>
</a>
</g>
</g>
<!-- Node8&#45;&gt;Node1 -->
<g id="edge7" class="edge"><title>Node8&#45;&gt;Node1</title>
<path fill="none" stroke="#9a32cd" stroke-dasharray="5,2" d="M306.893,-61.3013C296.427,-53.9247 283.283,-45.0774 271,-38 259.217,-31.2105 245.467,-24.5637 234.54,-19.5639"/>
<polygon fill="#9a32cd" stroke="#9a32cd" points="305.141,-64.3518 315.311,-67.3238 309.214,-58.6587 305.141,-64.3518"/>
<text text-anchor="middle" x="303.5" y="-41" font-family="Helvetica,sans-Serif" font-size="10.00"> m_ast</text>
</g>
<!-- Node8&#45;&gt;Node8 -->
<g id="edge9" class="edge"><title>Node8&#45;&gt;Node8</title>
<path fill="none" stroke="#9a32cd" stroke-dasharray="5,2" d="M383.274,-81.6596C388.034,-80.6626 391,-79.1094 391,-77 391,-73.625 383.406,-71.6738 373.024,-71.1465"/>
<polygon fill="#9a32cd" stroke="#9a32cd" points="382.552,-78.2199 373.024,-82.8535 383.362,-85.1729 382.552,-78.2199"/>
<text text-anchor="middle" x="413" y="-74.5" font-family="Helvetica,sans-Serif" font-size="10.00"> m_parent</text>
</g>
<!-- Node9 -->
<g id="node9" class="node"><title>Node9</title>
<g id="a_node9"><a xlink:href="structelftosb_1_1token__loc__t.html" target="_top" xlink:title="Token location in the source file. ">
<polygon fill="white" stroke="black" points="276.5,-140 276.5,-159 377.5,-159 377.5,-140 276.5,-140"/>
<text text-anchor="middle" x="327" y="-147" font-family="Helvetica,sans-Serif" font-size="10.00">elftosb::token_loc_t</text>
</a>
</g>
</g>
<!-- Node9&#45;&gt;Node8 -->
<g id="edge8" class="edge"><title>Node9&#45;&gt;Node8</title>
<path fill="none" stroke="#9a32cd" stroke-dasharray="5,2" d="M327,-129.442C327,-115.53 327,-97.3203 327,-86.7154"/>
<polygon fill="#9a32cd" stroke="#9a32cd" points="323.5,-129.855 327,-139.855 330.5,-129.855 323.5,-129.855"/>
<text text-anchor="middle" x="352.5" y="-108" font-family="Helvetica,sans-Serif" font-size="10.00"> m_location</text>
</g>
</g>
</svg>
