<?xml version="1.0" encoding="UTF-8" standalone="no"?>
<!DOCTYPE svg PUBLIC "-//W3C//DTD SVG 1.1//EN"
 "http://www.w3.org/Graphics/SVG/1.1/DTD/svg11.dtd">
<!-- Generated by graphviz version 2.38.0 (20140413.2041)
 -->
<!-- Title: Utilities Pages: 1 -->
<svg width="182pt" height="142pt"
 viewBox="0.00 0.00 182.00 142.00" xmlns="http://www.w3.org/2000/svg" xmlns:xlink="http://www.w3.org/1999/xlink">
<g id="graph0" class="graph" transform="scale(1 1) rotate(0) translate(4 138)">
<title>Utilities</title>
<polygon fill="white" stroke="none" points="-4,4 -4,-138 178,-138 178,4 -4,4"/>
<!-- Node2 -->
<g id="node1" class="node"><title>Node2</title>
<g id="a_node1"><a xlink:href="group__irq__lock.html" target="_top" xlink:title="Global interrupt lock. ">
<polygon fill="white" stroke="black" points="91.5,-114.5 91.5,-133.5 167.5,-133.5 167.5,-114.5 91.5,-114.5"/>
<text text-anchor="middle" x="129.5" y="-121.5" font-family="Helvetica,sans-Serif" font-size="10.00">Interrupt Lock</text>
</a>
</g>
</g>
<!-- Node0 -->
<g id="node2" class="node"><title>Node0</title>
<polygon fill="#bfbfbf" stroke="black" points="0,-57.5 0,-76.5 49,-76.5 49,-57.5 0,-57.5"/>
<text text-anchor="middle" x="24.5" y="-64.5" font-family="Helvetica,sans-Serif" font-size="10.00">Utilities</text>
</g>
<!-- Node0&#45;&gt;Node2 -->
<g id="edge2" class="edge"><title>Node0&#45;&gt;Node2</title>
<path fill="none" stroke="black" d="M47.8325,-82.4383C58.7886,-89.7052 72.3272,-98.2391 85,-105 91.2531,-108.336 98.214,-111.575 104.702,-114.405"/>
<polygon fill="black" stroke="black" points="49.5615,-79.383 39.3124,-76.6987 45.6506,-85.1886 49.5615,-79.383"/>
</g>
<!-- Node4 -->
<g id="node3" class="node"><title>Node4</title>
<g id="a_node3"><a xlink:href="group__vector__table__info.html" target="_top" xlink:title="Definitions related to default vector table. ">
<polygon fill="white" stroke="black" points="85,-76.5 85,-95.5 174,-95.5 174,-76.5 85,-76.5"/>
<text text-anchor="middle" x="129.5" y="-83.5" font-family="Helvetica,sans-Serif" font-size="10.00">Vector Table Info</text>
</a>
</g>
</g>
<!-- Node0&#45;&gt;Node4 -->
<g id="edge4" class="edge"><title>Node0&#45;&gt;Node4</title>
<path fill="none" stroke="black" d="M59.0645,-73.1915C67.2582,-74.703 76.144,-76.3421 84.7359,-77.927"/>
<polygon fill="black" stroke="black" points="59.5993,-69.7312 49.1303,-71.359 58.3294,-76.615 59.5993,-69.7312"/>
</g>
<!-- Node1 -->
<g id="node4" class="node"><title>Node1</title>
<g id="a_node4"><a xlink:href="group__rtos__irq__sync.html" target="_top" xlink:title="Synchronization resource. ">
<polygon fill="white" stroke="black" points="86.5,-38.5 86.5,-57.5 172.5,-57.5 172.5,-38.5 86.5,-38.5"/>
<text text-anchor="middle" x="129.5" y="-45.5" font-family="Helvetica,sans-Serif" font-size="10.00">Synchronization</text>
</a>
</g>
</g>
<!-- Node0&#45;&gt;Node1 -->
<g id="edge1" class="edge"><title>Node0&#45;&gt;Node1</title>
<path fill="none" stroke="black" d="M59.2457,-60.7751C67.9135,-59.1762 77.3458,-57.4362 86.3796,-55.7698"/>
<polygon fill="black" stroke="black" points="58.3294,-57.385 49.1303,-62.641 59.5993,-64.2688 58.3294,-57.385"/>
</g>
<!-- Node3 -->
<g id="node5" class="node"><title>Node3</title>
<g id="a_node5"><a xlink:href="group__fsl__assert.html" target="_top" xlink:title="Assert function. ">
<polygon fill="white" stroke="black" points="86.5,-0.5 86.5,-19.5 172.5,-19.5 172.5,-0.5 86.5,-0.5"/>
<text text-anchor="middle" x="129.5" y="-7.5" font-family="Helvetica,sans-Serif" font-size="10.00">Assert Function</text>
</a>
</g>
</g>
<!-- Node0&#45;&gt;Node3 -->
<g id="edge3" class="edge"><title>Node0&#45;&gt;Node3</title>
<path fill="none" stroke="black" d="M47.8325,-51.5617C58.7886,-44.2948 72.3272,-35.7609 85,-29 91.2531,-25.664 98.214,-22.4252 104.702,-19.5947"/>
<polygon fill="black" stroke="black" points="45.6506,-48.8114 39.3124,-57.3013 49.5615,-54.617 45.6506,-48.8114"/>
</g>
</g>
</svg>
