<?xml version="1.0" encoding="UTF-8" standalone="no"?>
<!DOCTYPE svg PUBLIC "-//W3C//DTD SVG 1.1//EN"
 "http://www.w3.org/Graphics/SVG/1.1/DTD/svg11.dtd">
<!-- Generated by graphviz version 2.38.0 (20140413.2041)
 -->
<!-- Title: Peripheral Definitions Pages: 1 -->
<svg width="358pt" height="408pt"
 viewBox="0.00 0.00 358.00 408.00" xmlns="http://www.w3.org/2000/svg" xmlns:xlink="http://www.w3.org/1999/xlink">
<g id="graph0" class="graph" transform="scale(1 1) rotate(0) translate(4 404)">
<title>Peripheral Definitions</title>
<polygon fill="white" stroke="none" points="-4,4 -4,-404 354,-404 354,4 -4,4"/>
<!-- Node0 -->
<g id="node1" class="node"><title>Node0</title>
<polygon fill="#bfbfbf" stroke="black" points="99,-190.5 99,-209.5 207,-209.5 207,-190.5 99,-190.5"/>
<text text-anchor="middle" x="153" y="-197.5" font-family="Helvetica,sans-Serif" font-size="10.00">Peripheral Definitions</text>
</g>
<!-- Node5 -->
<g id="node2" class="node"><title>Node5</title>
<g id="a_node2"><a xlink:href="group__lpspi__peripheral.html" target="_top" xlink:title="LPSPI peripheral interface. ">
<polygon fill="white" stroke="black" points="251,-380.5 251,-399.5 342,-399.5 342,-380.5 251,-380.5"/>
<text text-anchor="middle" x="296.5" y="-387.5" font-family="Helvetica,sans-Serif" font-size="10.00">LPSPI Peripheral</text>
</a>
</g>
</g>
<!-- Node0&#45;&gt;Node5 -->
<g id="edge5" class="edge"><title>Node0&#45;&gt;Node5</title>
<path fill="none" stroke="black" d="M159.093,-219.666C169.198,-254.902 195.055,-329.028 243,-371 247.376,-374.831 252.585,-377.91 257.995,-380.379"/>
<polygon fill="black" stroke="black" points="162.376,-218.402 156.358,-209.682 155.625,-220.251 162.376,-218.402"/>
</g>
<!-- Node8 -->
<g id="node3" class="node"><title>Node8</title>
<g id="a_node3"><a xlink:href="group__uart__peripheral.html" target="_top" xlink:title="UART peripheral interface. ">
<polygon fill="white" stroke="black" points="252,-342.5 252,-361.5 341,-361.5 341,-342.5 252,-342.5"/>
<text text-anchor="middle" x="296.5" y="-349.5" font-family="Helvetica,sans-Serif" font-size="10.00">UART Peripheral</text>
</a>
</g>
</g>
<!-- Node0&#45;&gt;Node8 -->
<g id="edge8" class="edge"><title>Node0&#45;&gt;Node8</title>
<path fill="none" stroke="black" d="M161.906,-218.829C174.818,-247.415 203.056,-301.733 243,-333 247.885,-336.824 253.609,-339.923 259.446,-342.421"/>
<polygon fill="black" stroke="black" points="165.063,-217.312 157.849,-209.552 158.649,-220.117 165.063,-217.312"/>
</g>
<!-- Node4 -->
<g id="node4" class="node"><title>Node4</title>
<g id="a_node4"><a xlink:href="group__lpi2c__peripheral.html" target="_top" xlink:title="LPI2C peripheral interface. ">
<polygon fill="white" stroke="black" points="252,-304.5 252,-323.5 341,-323.5 341,-304.5 252,-304.5"/>
<text text-anchor="middle" x="296.5" y="-311.5" font-family="Helvetica,sans-Serif" font-size="10.00">LPI2C Peripheral</text>
</a>
</g>
</g>
<!-- Node0&#45;&gt;Node4 -->
<g id="edge4" class="edge"><title>Node0&#45;&gt;Node4</title>
<path fill="none" stroke="black" d="M166.591,-217.896C182.282,-239.007 210.965,-273.892 243,-295 248.666,-298.733 255.158,-301.846 261.602,-304.397"/>
<polygon fill="black" stroke="black" points="169.399,-215.806 160.69,-209.773 163.736,-219.92 169.399,-215.806"/>
</g>
<!-- Node6 -->
<g id="node5" class="node"><title>Node6</title>
<g id="a_node5"><a xlink:href="group__lpuart__peripheral.html" target="_top" xlink:title="LPUART peripheral interface. ">
<polygon fill="white" stroke="black" points="246,-266.5 246,-285.5 347,-285.5 347,-266.5 246,-266.5"/>
<text text-anchor="middle" x="296.5" y="-273.5" font-family="Helvetica,sans-Serif" font-size="10.00">LPUART Peripheral</text>
</a>
</g>
</g>
<!-- Node0&#45;&gt;Node6 -->
<g id="edge6" class="edge"><title>Node0&#45;&gt;Node6</title>
<path fill="none" stroke="black" d="M175.395,-215.628C192.945,-227.967 218.76,-245.037 243,-257 250.128,-260.518 258.076,-263.731 265.587,-266.474"/>
<polygon fill="black" stroke="black" points="177.198,-212.615 167.023,-209.66 173.134,-218.315 177.198,-212.615"/>
</g>
<!-- Node9 -->
<g id="node6" class="node"><title>Node9</title>
<g id="a_node6"><a xlink:href="group__uart0__peripheral.html" target="_top" xlink:title="UART0 peripheral interface. ">
<polygon fill="white" stroke="black" points="249.5,-228.5 249.5,-247.5 343.5,-247.5 343.5,-228.5 249.5,-228.5"/>
<text text-anchor="middle" x="296.5" y="-235.5" font-family="Helvetica,sans-Serif" font-size="10.00">UART0 Peripheral</text>
</a>
</g>
</g>
<!-- Node0&#45;&gt;Node9 -->
<g id="edge9" class="edge"><title>Node0&#45;&gt;Node9</title>
<path fill="none" stroke="black" d="M199.601,-212.246C219.105,-217.484 241.54,-223.509 259.805,-228.414"/>
<polygon fill="black" stroke="black" points="200.272,-208.802 189.706,-209.589 198.456,-215.563 200.272,-208.802"/>
</g>
<!-- Node10 -->
<g id="node7" class="node"><title>Node10</title>
<g id="a_node7"><a xlink:href="group__spi__peripheral.html" target="_top" xlink:title="SPI peripheral interface. ">
<polygon fill="white" stroke="black" points="257,-190.5 257,-209.5 336,-209.5 336,-190.5 257,-190.5"/>
<text text-anchor="middle" x="296.5" y="-197.5" font-family="Helvetica,sans-Serif" font-size="10.00">SPI Peripheral</text>
</a>
</g>
</g>
<!-- Node0&#45;&gt;Node10 -->
<g id="edge10" class="edge"><title>Node0&#45;&gt;Node10</title>
<path fill="none" stroke="black" d="M217.263,-200C230.7,-200 244.501,-200 256.699,-200"/>
<polygon fill="black" stroke="black" points="217.092,-196.5 207.092,-200 217.092,-203.5 217.092,-196.5"/>
</g>
<!-- Node2 -->
<g id="node8" class="node"><title>Node2</title>
<g id="a_node8"><a xlink:href="group__dspi__peripheral.html" target="_top" xlink:title="DSPI peripheral interface. ">
<polygon fill="white" stroke="black" points="253.5,-152.5 253.5,-171.5 339.5,-171.5 339.5,-152.5 253.5,-152.5"/>
<text text-anchor="middle" x="296.5" y="-159.5" font-family="Helvetica,sans-Serif" font-size="10.00">DSPI Peripheral</text>
</a>
</g>
</g>
<!-- Node0&#45;&gt;Node2 -->
<g id="edge2" class="edge"><title>Node0&#45;&gt;Node2</title>
<path fill="none" stroke="black" d="M199.601,-187.754C219.105,-182.516 241.54,-176.491 259.805,-171.586"/>
<polygon fill="black" stroke="black" points="198.456,-184.437 189.706,-190.411 200.272,-191.198 198.456,-184.437"/>
</g>
<!-- Node12 -->
<g id="node9" class="node"><title>Node12</title>
<g id="a_node9"><a xlink:href="group__flexcan__peripheral.html" target="_top" xlink:title="FLEXCAN peripheral interface. ">
<polygon fill="white" stroke="black" points="243,-114.5 243,-133.5 350,-133.5 350,-114.5 243,-114.5"/>
<text text-anchor="middle" x="296.5" y="-121.5" font-family="Helvetica,sans-Serif" font-size="10.00">FLEXCAN Peripheral</text>
</a>
</g>
</g>
<!-- Node0&#45;&gt;Node12 -->
<g id="edge12" class="edge"><title>Node0&#45;&gt;Node12</title>
<path fill="none" stroke="black" d="M175.395,-184.372C192.945,-172.033 218.76,-154.963 243,-143 250.128,-139.482 258.076,-136.269 265.587,-133.526"/>
<polygon fill="black" stroke="black" points="173.134,-181.685 167.023,-190.34 177.198,-187.385 173.134,-181.685"/>
</g>
<!-- Node3 -->
<g id="node10" class="node"><title>Node3</title>
<g id="a_node10"><a xlink:href="group__i2c__peripheral.html" target="_top" xlink:title="I2C peripheral interface. ">
<polygon fill="white" stroke="black" points="258,-76.5 258,-95.5 335,-95.5 335,-76.5 258,-76.5"/>
<text text-anchor="middle" x="296.5" y="-83.5" font-family="Helvetica,sans-Serif" font-size="10.00">I2C Peripheral</text>
</a>
</g>
</g>
<!-- Node0&#45;&gt;Node3 -->
<g id="edge3" class="edge"><title>Node0&#45;&gt;Node3</title>
<path fill="none" stroke="black" d="M166.591,-182.104C182.282,-160.993 210.965,-126.108 243,-105 248.666,-101.267 255.158,-98.1545 261.602,-95.6028"/>
<polygon fill="black" stroke="black" points="163.736,-180.08 160.69,-190.227 169.399,-184.194 163.736,-180.08"/>
</g>
<!-- Node11 -->
<g id="node12" class="node"><title>Node11</title>
<g id="a_node12"><a xlink:href="group__usb__hid__peripheral.html" target="_top" xlink:title="USB HID peripheral interface. ">
<polygon fill="white" stroke="black" points="245.5,-38.5 245.5,-57.5 347.5,-57.5 347.5,-38.5 245.5,-38.5"/>
<text text-anchor="middle" x="296.5" y="-45.5" font-family="Helvetica,sans-Serif" font-size="10.00">USB HID Peripheral</text>
</a>
</g>
</g>
<!-- Node0&#45;&gt;Node11 -->
<g id="edge11" class="edge"><title>Node0&#45;&gt;Node11</title>
<path fill="none" stroke="black" d="M161.906,-181.171C174.818,-152.585 203.056,-98.2671 243,-67 247.885,-63.1762 253.609,-60.0767 259.446,-57.5785"/>
<polygon fill="black" stroke="black" points="158.649,-179.883 157.849,-190.448 165.063,-182.688 158.649,-179.883"/>
</g>
<!-- Node7 -->
<g id="node13" class="node"><title>Node7</title>
<g id="a_node13"><a xlink:href="group__scuart__peripheral.html" target="_top" xlink:title="SCIUART peripheral interface. ">
<polygon fill="white" stroke="black" points="244.5,-0.5 244.5,-19.5 348.5,-19.5 348.5,-0.5 244.5,-0.5"/>
<text text-anchor="middle" x="296.5" y="-7.5" font-family="Helvetica,sans-Serif" font-size="10.00">SCIUART Peripheral</text>
</a>
</g>
</g>
<!-- Node0&#45;&gt;Node7 -->
<g id="edge7" class="edge"><title>Node0&#45;&gt;Node7</title>
<path fill="none" stroke="black" d="M159.093,-180.334C169.198,-145.098 195.055,-70.9722 243,-29 247.376,-25.1692 252.585,-22.0903 257.995,-19.6214"/>
<polygon fill="black" stroke="black" points="155.625,-179.749 156.358,-190.318 162.376,-181.598 155.625,-179.749"/>
</g>
<!-- Node1 -->
<g id="node11" class="node"><title>Node1</title>
<g id="a_node11"><a xlink:href="group__bootloader.html" target="_top" xlink:title="Bootloader components. ">
<polygon fill="white" stroke="black" points="0,-190.5 0,-209.5 63,-209.5 63,-190.5 0,-190.5"/>
<text text-anchor="middle" x="31.5" y="-197.5" font-family="Helvetica,sans-Serif" font-size="10.00">Bootloader</text>
</a>
</g>
</g>
<!-- Node1&#45;&gt;Node0 -->
<g id="edge1" class="edge"><title>Node1&#45;&gt;Node0</title>
<path fill="none" stroke="black" d="M73.5413,-200C81.6169,-200 90.1996,-200 98.6121,-200"/>
<polygon fill="black" stroke="black" points="73.2743,-196.5 63.2742,-200 73.2742,-203.5 73.2743,-196.5"/>
</g>
</g>
</svg>
