<?xml version="1.0" encoding="UTF-8" standalone="no"?>
<!DOCTYPE svg PUBLIC "-//W3C//DTD SVG 1.1//EN"
 "http://www.w3.org/Graphics/SVG/1.1/DTD/svg11.dtd">
<!-- Generated by graphviz version 2.38.0 (20140413.2041)
 -->
<!-- Title: CRC Pages: 1 -->
<svg width="143pt" height="104pt"
 viewBox="0.00 0.00 143.00 104.00" xmlns="http://www.w3.org/2000/svg" xmlns:xlink="http://www.w3.org/1999/xlink">
<g id="graph0" class="graph" transform="scale(1 1) rotate(0) translate(4 100)">
<title>CRC</title>
<polygon fill="white" stroke="none" points="-4,4 -4,-100 139,-100 139,4 -4,4"/>
<!-- Node0 -->
<g id="node1" class="node"><title>Node0</title>
<polygon fill="#bfbfbf" stroke="black" points="0,-38.5 0,-57.5 37,-57.5 37,-38.5 0,-38.5"/>
<text text-anchor="middle" x="18.5" y="-45.5" font-family="Helvetica,sans-Serif" font-size="10.00">CRC</text>
</g>
<!-- Node3 -->
<g id="node2" class="node"><title>Node3</title>
<g id="a_node2"><a xlink:href="group__crc__driver.html" target="_top" xlink:title="CRC driver">
<polygon fill="white" stroke="black" points="73,-76.5 73,-95.5 135,-95.5 135,-76.5 73,-76.5"/>
<text text-anchor="middle" x="104" y="-83.5" font-family="Helvetica,sans-Serif" font-size="10.00">CRC driver</text>
</a>
</g>
</g>
<!-- Node0&#45;&gt;Node3 -->
<g id="edge3" class="edge"><title>Node0&#45;&gt;Node3</title>
<path fill="none" stroke="black" d="M46.4126,-60.2477C57.9693,-65.507 71.2696,-71.5598 82.0709,-76.4754"/>
<polygon fill="black" stroke="black" points="47.7598,-57.0154 37.2082,-56.0588 44.8602,-63.3866 47.7598,-57.0154"/>
</g>
<!-- Node1 -->
<g id="node3" class="node"><title>Node1</title>
<g id="a_node3"><a xlink:href="group__crc16.html" target="_top" xlink:title="16&#45;bit CRC ">
<polygon fill="white" stroke="black" points="80.5,-38.5 80.5,-57.5 127.5,-57.5 127.5,-38.5 80.5,-38.5"/>
<text text-anchor="middle" x="104" y="-45.5" font-family="Helvetica,sans-Serif" font-size="10.00">CRC16</text>
</a>
</g>
</g>
<!-- Node0&#45;&gt;Node1 -->
<g id="edge1" class="edge"><title>Node0&#45;&gt;Node1</title>
<path fill="none" stroke="black" d="M47.317,-48C58.0061,-48 70.0715,-48 80.2315,-48"/>
<polygon fill="black" stroke="black" points="47.2082,-44.5001 37.2082,-48 47.2082,-51.5001 47.2082,-44.5001"/>
</g>
<!-- Node2 -->
<g id="node4" class="node"><title>Node2</title>
<g id="a_node4"><a xlink:href="group__crc32.html" target="_top" xlink:title="32&#45;bit CRC ">
<polygon fill="white" stroke="black" points="80.5,-0.5 80.5,-19.5 127.5,-19.5 127.5,-0.5 80.5,-0.5"/>
<text text-anchor="middle" x="104" y="-7.5" font-family="Helvetica,sans-Serif" font-size="10.00">CRC32</text>
</a>
</g>
</g>
<!-- Node0&#45;&gt;Node2 -->
<g id="edge2" class="edge"><title>Node0&#45;&gt;Node2</title>
<path fill="none" stroke="black" d="M46.4126,-35.7523C57.9693,-30.493 71.2696,-24.4402 82.0709,-19.5246"/>
<polygon fill="black" stroke="black" points="44.8602,-32.6134 37.2082,-39.9412 47.7598,-38.9846 44.8602,-32.6134"/>
</g>
</g>
</svg>
