<?xml version="1.0" encoding="UTF-8" standalone="no"?>
<!DOCTYPE svg PUBLIC "-//W3C//DTD SVG 1.1//EN"
 "http://www.w3.org/Graphics/SVG/1.1/DTD/svg11.dtd">
<!-- Generated by graphviz version 2.38.0 (20140413.2041)
 -->
<!-- Title: Bootloader Core Pages: 1 -->
<svg width="407pt" height="62pt"
 viewBox="0.00 0.00 407.00 62.00" xmlns="http://www.w3.org/2000/svg" xmlns:xlink="http://www.w3.org/1999/xlink">
<g id="graph0" class="graph" transform="scale(1 1) rotate(0) translate(4 58)">
<title>Bootloader Core</title>
<polygon fill="white" stroke="none" points="-4,4 -4,-58 403,-58 403,4 -4,4"/>
<!-- Node2 -->
<g id="node1" class="node"><title>Node2</title>
<g id="a_node1"><a xlink:href="group__flash__driver__api.html" target="_top" xlink:title="Flash_driver_api">
<polygon fill="white" stroke="black" points="313,-0.5 313,-19.5 399,-19.5 399,-0.5 313,-0.5"/>
<text text-anchor="middle" x="356" y="-7.5" font-family="Helvetica,sans-Serif" font-size="10.00">Flash_driver_api</text>
</a>
</g>
</g>
<!-- Node0 -->
<g id="node2" class="node"><title>Node0</title>
<polygon fill="#bfbfbf" stroke="black" points="100,-0.5 100,-19.5 186,-19.5 186,-0.5 100,-0.5"/>
<text text-anchor="middle" x="143" y="-7.5" font-family="Helvetica,sans-Serif" font-size="10.00">Bootloader Core</text>
</g>
<!-- Node0&#45;&gt;Node2 -->
<g id="edge2" class="edge"><title>Node0&#45;&gt;Node2</title>
<path fill="none" stroke="orange" stroke-dasharray="5,2" d="M186.192,-10C222.993,-10 276.102,-10 312.881,-10"/>
<text text-anchor="middle" x="249.5" y="-46" font-family="Helvetica,sans-Serif" font-size="10.00">standard_version_t</text>
<text text-anchor="start" x="204" y="-35" font-family="Helvetica,sans-Serif" font-size="10.00">standard_version_t.</text>
<text text-anchor="middle" x="249.5" y="-24" font-family="Helvetica,sans-Serif" font-size="10.00">__unnamed__</text>
<text text-anchor="middle" x="249.5" y="-13" font-family="Helvetica,sans-Serif" font-size="10.00">standard_version_t.B</text>
</g>
<!-- Node1 -->
<g id="node3" class="node"><title>Node1</title>
<g id="a_node3"><a xlink:href="group__bootloader.html" target="_top" xlink:title="Bootloader components. ">
<polygon fill="white" stroke="black" points="0,-0.5 0,-19.5 63,-19.5 63,-0.5 0,-0.5"/>
<text text-anchor="middle" x="31.5" y="-7.5" font-family="Helvetica,sans-Serif" font-size="10.00">Bootloader</text>
</a>
</g>
</g>
<!-- Node1&#45;&gt;Node0 -->
<g id="edge1" class="edge"><title>Node1&#45;&gt;Node0</title>
<path fill="none" stroke="black" d="M73.2558,-10C81.9182,-10 91.0815,-10 99.7966,-10"/>
<polygon fill="black" stroke="black" points="73.0019,-6.5001 63.0019,-10 73.0018,-13.5001 73.0019,-6.5001"/>
</g>
</g>
</svg>
