<?xml version="1.0" encoding="UTF-8" standalone="no"?>
<!DOCTYPE svg PUBLIC "-//W3C//DTD SVG 1.1//EN"
 "http://www.w3.org/Graphics/SVG/1.1/DTD/svg11.dtd">
<!-- Generated by graphviz version 2.38.0 (20140413.2041)
 -->
<!-- Title: Flash_driver_api Pages: 1 -->
<svg width="335pt" height="157pt"
 viewBox="0.00 0.00 335.00 157.00" xmlns="http://www.w3.org/2000/svg" xmlns:xlink="http://www.w3.org/1999/xlink">
<g id="graph0" class="graph" transform="scale(1 1) rotate(0) translate(4 153)">
<title>Flash_driver_api</title>
<polygon fill="white" stroke="none" points="-4,4 -4,-153 331,-153 331,4 -4,4"/>
<!-- Node0 -->
<g id="node1" class="node"><title>Node0</title>
<polygon fill="#bfbfbf" stroke="black" points="0,-67.5 0,-86.5 86,-86.5 86,-67.5 0,-67.5"/>
<text text-anchor="middle" x="43" y="-74.5" font-family="Helvetica,sans-Serif" font-size="10.00">Flash_driver_api</text>
</g>
<!-- Node1 -->
<g id="node2" class="node"><title>Node1</title>
<g id="a_node2"><a xlink:href="group__flash__driver.html" target="_top" xlink:title="C90TFS Flash Driver">
<polygon fill="white" stroke="black" points="221,-112.5 221,-131.5 327,-131.5 327,-112.5 221,-112.5"/>
<text text-anchor="middle" x="274" y="-119.5" font-family="Helvetica,sans-Serif" font-size="10.00">C90TFS Flash Driver</text>
</a>
</g>
</g>
<!-- Node0&#45;&gt;Node1 -->
<g id="edge1" class="edge"><title>Node0&#45;&gt;Node1</title>
<path fill="none" stroke="orange" stroke-dasharray="5,2" d="M65.2625,-86.5647C76.5603,-91.2824 90.8055,-96.6625 104,-100 142.437,-109.723 186.939,-115.295 220.626,-118.397"/>
<text text-anchor="start" x="106" y="-141" font-family="Helvetica,sans-Serif" font-size="10.00">flash_execute_in_ram</text>
<text text-anchor="middle" x="153.5" y="-130" font-family="Helvetica,sans-Serif" font-size="10.00">_function_config_t</text>
<text text-anchor="middle" x="153.5" y="-119" font-family="Helvetica,sans-Serif" font-size="10.00">flash_config_t</text>
</g>
<!-- Node3 -->
<g id="node3" class="node"><title>Node3</title>
<g id="a_node3"><a xlink:href="group__context.html" target="_top" xlink:title="Bootloader context and API structures. ">
<polygon fill="white" stroke="black" points="249,-67.5 249,-86.5 299,-86.5 299,-67.5 249,-67.5"/>
<text text-anchor="middle" x="274" y="-74.5" font-family="Helvetica,sans-Serif" font-size="10.00">Context</text>
</a>
</g>
</g>
<!-- Node0&#45;&gt;Node3 -->
<g id="edge3" class="edge"><title>Node0&#45;&gt;Node3</title>
<path fill="none" stroke="orange" stroke-dasharray="5,2" d="M86.0021,-77C133.777,-77 210.159,-77 248.852,-77"/>
<text text-anchor="middle" x="153.5" y="-91" font-family="Helvetica,sans-Serif" font-size="10.00">flash_driver_interface_t</text>
<text text-anchor="middle" x="153.5" y="-80" font-family="Helvetica,sans-Serif" font-size="10.00">bootloader_tree_t</text>
</g>
<!-- Node2 -->
<g id="node4" class="node"><title>Node2</title>
<g id="a_node4"><a xlink:href="group__bl__core.html" target="_top" xlink:title="Core bootloader functionality. ">
<polygon fill="white" stroke="black" points="231,-0.5 231,-19.5 317,-19.5 317,-0.5 231,-0.5"/>
<text text-anchor="middle" x="274" y="-7.5" font-family="Helvetica,sans-Serif" font-size="10.00">Bootloader Core</text>
</a>
</g>
</g>
<!-- Node0&#45;&gt;Node2 -->
<g id="edge2" class="edge"><title>Node0&#45;&gt;Node2</title>
<path fill="none" stroke="orange" stroke-dasharray="5,2" d="M52.6728,-67.3313C63.4683,-56.0069 83.0541,-37.692 104,-29 144.769,-12.0819 195.557,-8.44386 230.757,-8.34494"/>
<text text-anchor="middle" x="153.5" y="-65" font-family="Helvetica,sans-Serif" font-size="10.00">standard_version_t</text>
<text text-anchor="start" x="108" y="-54" font-family="Helvetica,sans-Serif" font-size="10.00">standard_version_t.</text>
<text text-anchor="middle" x="153.5" y="-43" font-family="Helvetica,sans-Serif" font-size="10.00">__unnamed__</text>
<text text-anchor="middle" x="153.5" y="-32" font-family="Helvetica,sans-Serif" font-size="10.00">standard_version_t.B</text>
</g>
</g>
</svg>
