<?xml version="1.0" encoding="UTF-8" standalone="no"?>
<!DOCTYPE svg PUBLIC "-//W3C//DTD SVG 1.1//EN"
 "http://www.w3.org/Graphics/SVG/1.1/DTD/svg11.dtd">
<!-- Generated by graphviz version 2.38.0 (20140413.2041)
 -->
<!-- Title: generic_response_frame_packet_t Pages: 1 -->
<svg width="130pt" height="173pt"
 viewBox="0.00 0.00 130.00 173.00" xmlns="http://www.w3.org/2000/svg" xmlns:xlink="http://www.w3.org/1999/xlink">
<g id="graph0" class="graph" transform="scale(1 1) rotate(0) translate(4 169)">
<title>generic_response_frame_packet_t</title>
<polygon fill="white" stroke="none" points="-4,4 -4,-169 126,-169 126,4 -4,4"/>
<!-- Node1 -->
<g id="node1" class="node"><title>Node1</title>
<polygon fill="#bfbfbf" stroke="black" points="0,-0.5 0,-30.5 122,-30.5 122,-0.5 0,-0.5"/>
<text text-anchor="start" x="8" y="-18.5" font-family="Helvetica,sans-Serif" font-size="10.00">generic_response_frame</text>
<text text-anchor="middle" x="61" y="-7.5" font-family="Helvetica,sans-Serif" font-size="10.00">_packet_t</text>
</g>
<!-- Node2 -->
<g id="node2" class="node"><title>Node2</title>
<g id="a_node2"><a xlink:href="group__packet.html#structframing__data__packet__t" target="_top" xlink:title="Serial framing data packet. ">
<polygon fill="white" stroke="black" points="3.5,-78.5 3.5,-97.5 118.5,-97.5 118.5,-78.5 3.5,-78.5"/>
<text text-anchor="middle" x="61" y="-85.5" font-family="Helvetica,sans-Serif" font-size="10.00">framing_data_packet_t</text>
</a>
</g>
</g>
<!-- Node2&#45;&gt;Node1 -->
<g id="edge1" class="edge"><title>Node2&#45;&gt;Node1</title>
<path fill="none" stroke="#9a32cd" stroke-dasharray="5,2" d="M61,-68.2362C61,-56.4079 61,-41.3829 61,-30.5762"/>
<polygon fill="#9a32cd" stroke="#9a32cd" points="57.5001,-68.3553 61,-78.3553 64.5001,-68.3554 57.5001,-68.3553"/>
<text text-anchor="middle" x="90.5" y="-52" font-family="Helvetica,sans-Serif" font-size="10.00"> framing_data</text>
</g>
<!-- Node3 -->
<g id="node3" class="node"><title>Node3</title>
<g id="a_node3"><a xlink:href="group__packet.html#structframing__header__t" target="_top" xlink:title="Serial framing header. ">
<polygon fill="white" stroke="black" points="15.5,-145.5 15.5,-164.5 106.5,-164.5 106.5,-145.5 15.5,-145.5"/>
<text text-anchor="middle" x="61" y="-152.5" font-family="Helvetica,sans-Serif" font-size="10.00">framing_header_t</text>
</a>
</g>
</g>
<!-- Node3&#45;&gt;Node2 -->
<g id="edge2" class="edge"><title>Node3&#45;&gt;Node2</title>
<path fill="none" stroke="#9a32cd" stroke-dasharray="5,2" d="M61,-135.037C61,-122.67 61,-107.12 61,-97.6273"/>
<polygon fill="#9a32cd" stroke="#9a32cd" points="57.5001,-135.234 61,-145.234 64.5001,-135.234 57.5001,-135.234"/>
<text text-anchor="middle" x="77.5" y="-119" font-family="Helvetica,sans-Serif" font-size="10.00"> header</text>
</g>
</g>
</svg>
