<?xml version="1.0" encoding="UTF-8" standalone="no"?>
<!DOCTYPE svg PUBLIC "-//W3C//DTD SVG 1.1//EN"
 "http://www.w3.org/Graphics/SVG/1.1/DTD/svg11.dtd">
<!-- Generated by graphviz version 2.38.0 (20140413.2041)
 -->
<!-- Title: ldr_Context_t Pages: 1 -->
<svg width="168pt" height="95pt"
 viewBox="0.00 0.00 167.50 95.00" xmlns="http://www.w3.org/2000/svg" xmlns:xlink="http://www.w3.org/1999/xlink">
<g id="graph0" class="graph" transform="scale(1 1) rotate(0) translate(4 91)">
<title>ldr_Context_t</title>
<polygon fill="white" stroke="none" points="-4,4 -4,-91 163.5,-91 163.5,4 -4,4"/>
<!-- Node1 -->
<g id="node1" class="node"><title>Node1</title>
<polygon fill="#bfbfbf" stroke="black" points="41,-0.5 41,-19.5 115,-19.5 115,-0.5 41,-0.5"/>
<text text-anchor="middle" x="78" y="-7.5" font-family="Helvetica,sans-Serif" font-size="10.00">ldr_Context_t</text>
</g>
<!-- Node2 -->
<g id="node2" class="node"><title>Node2</title>
<g id="a_node2"><a xlink:href="group__sbloader.html#structboot__cmd__t" target="_top" xlink:title="Boot command definition. ">
<polygon fill="white" stroke="black" points="0,-67.5 0,-86.5 68,-86.5 68,-67.5 0,-67.5"/>
<text text-anchor="middle" x="34" y="-74.5" font-family="Helvetica,sans-Serif" font-size="10.00">boot_cmd_t</text>
</a>
</g>
</g>
<!-- Node2&#45;&gt;Node1 -->
<g id="edge1" class="edge"><title>Node2&#45;&gt;Node1</title>
<path fill="none" stroke="#9a32cd" stroke-dasharray="5,2" d="M44.5493,-58.6994C48.6437,-52.1456 53.4385,-44.6614 58,-38 62.2187,-31.8392 67.2187,-25.0892 71.1641,-19.8794"/>
<polygon fill="#9a32cd" stroke="#9a32cd" points="41.4339,-57.0833 39.1606,-67.4314 47.3909,-60.7595 41.4339,-57.0833"/>
<text text-anchor="middle" x="79.5" y="-41" font-family="Helvetica,sans-Serif" font-size="10.00"> bootCmd</text>
</g>
<!-- Node3 -->
<g id="node3" class="node"><title>Node3</title>
<g id="a_node3"><a xlink:href="group__crc32.html#structcrc32__data__t" target="_top" xlink:title="State information for the CRC32 algorithm. ">
<polygon fill="white" stroke="black" points="86.5,-67.5 86.5,-86.5 159.5,-86.5 159.5,-67.5 86.5,-67.5"/>
<text text-anchor="middle" x="123" y="-74.5" font-family="Helvetica,sans-Serif" font-size="10.00">crc32_data_t</text>
</a>
</g>
</g>
<!-- Node3&#45;&gt;Node1 -->
<g id="edge2" class="edge"><title>Node3&#45;&gt;Node1</title>
<path fill="none" stroke="#9a32cd" stroke-dasharray="5,2" d="M113.724,-58.4652C110.018,-51.8836 105.552,-44.4415 101,-38 96.4513,-31.5631 90.7013,-24.8131 86.0885,-19.6724"/>
<polygon fill="#9a32cd" stroke="#9a32cd" points="110.67,-60.1739 118.532,-67.2755 116.814,-56.8208 110.67,-60.1739"/>
<text text-anchor="middle" x="122" y="-41" font-family="Helvetica,sans-Serif" font-size="10.00"> crc32</text>
</g>
</g>
</svg>
