<?xml version="1.0" encoding="UTF-8" standalone="no"?>
<!DOCTYPE svg PUBLIC "-//W3C//DTD SVG 1.1//EN"
 "http://www.w3.org/Graphics/SVG/1.1/DTD/svg11.dtd">
<!-- Generated by graphviz version 2.38.0 (20140413.2041)
 -->
<!-- Title: flexcan_transfer_info_t Pages: 1 -->
<svg width="213pt" height="184pt"
 viewBox="0.00 0.00 213.00 184.00" xmlns="http://www.w3.org/2000/svg" xmlns:xlink="http://www.w3.org/1999/xlink">
<g id="graph0" class="graph" transform="scale(1 1) rotate(0) translate(4 180)">
<title>flexcan_transfer_info_t</title>
<polygon fill="white" stroke="none" points="-4,4 -4,-180 209,-180 209,4 -4,4"/>
<!-- Node1 -->
<g id="node1" class="node"><title>Node1</title>
<polygon fill="#bfbfbf" stroke="black" points="34.5,-0.5 34.5,-19.5 147.5,-19.5 147.5,-0.5 34.5,-0.5"/>
<text text-anchor="middle" x="91" y="-7.5" font-family="Helvetica,sans-Serif" font-size="10.00">flexcan_transfer_info_t</text>
</g>
<!-- Node2 -->
<g id="node2" class="node"><title>Node2</title>
<g id="a_node2"><a xlink:href="group__flexcan__peripheral.html#structflexcan__data__info__t" target="_top" xlink:title="FlexCAN data info from user. ">
<polygon fill="white" stroke="black" points="0,-78.5 0,-97.5 100,-97.5 100,-78.5 0,-78.5"/>
<text text-anchor="middle" x="50" y="-85.5" font-family="Helvetica,sans-Serif" font-size="10.00">flexcan_data_info_t</text>
</a>
</g>
</g>
<!-- Node2&#45;&gt;Node1 -->
<g id="edge1" class="edge"><title>Node2&#45;&gt;Node1</title>
<path fill="none" stroke="#9a32cd" stroke-dasharray="5,2" d="M59.6449,-69.1216C68.0563,-53.5297 79.8943,-31.5862 86.3516,-19.6165"/>
<polygon fill="#9a32cd" stroke="#9a32cd" points="56.3708,-67.819 54.7032,-78.2818 62.5315,-71.1426 56.3708,-67.819"/>
<text text-anchor="middle" x="92" y="-52" font-family="Helvetica,sans-Serif" font-size="10.00"> rx_info</text>
<text text-anchor="middle" x="92" y="-41" font-family="Helvetica,sans-Serif" font-size="10.00">tx_info</text>
</g>
<!-- Node3 -->
<g id="node3" class="node"><title>Node3</title>
<g id="a_node3"><a xlink:href="group__flexcan__peripheral.html#structflexcan__state__t" target="_top" xlink:title="Internal driver state information. ">
<polygon fill="white" stroke="black" points="118.5,-78.5 118.5,-97.5 201.5,-97.5 201.5,-78.5 118.5,-78.5"/>
<text text-anchor="middle" x="160" y="-85.5" font-family="Helvetica,sans-Serif" font-size="10.00">flexcan_state_t</text>
</a>
</g>
</g>
<!-- Node3&#45;&gt;Node1 -->
<g id="edge2" class="edge"><title>Node3&#45;&gt;Node1</title>
<path fill="none" stroke="#9a32cd" stroke-dasharray="5,2" d="M145.36,-70.875C131.144,-55.2161 110.104,-32.0422 98.8229,-19.6165"/>
<polygon fill="#9a32cd" stroke="#9a32cd" points="142.772,-73.2307 152.085,-78.2818 147.954,-68.5253 142.772,-73.2307"/>
<text text-anchor="middle" x="145.5" y="-46.5" font-family="Helvetica,sans-Serif" font-size="10.00"> state</text>
</g>
<!-- Node4 -->
<g id="node4" class="node"><title>Node4</title>
<g id="a_node4"><a xlink:href="group__rtos__irq__sync.html#structsemaphore__t" target="_top" xlink:title="semaphore_t">
<polygon fill="white" stroke="black" points="123.5,-156.5 123.5,-175.5 196.5,-175.5 196.5,-156.5 123.5,-156.5"/>
<text text-anchor="middle" x="160" y="-163.5" font-family="Helvetica,sans-Serif" font-size="10.00">semaphore_t</text>
</a>
</g>
</g>
<!-- Node4&#45;&gt;Node3 -->
<g id="edge3" class="edge"><title>Node4&#45;&gt;Node3</title>
<path fill="none" stroke="#9a32cd" stroke-dasharray="5,2" d="M160,-146.224C160,-130.697 160,-109.358 160,-97.6165"/>
<polygon fill="#9a32cd" stroke="#9a32cd" points="156.5,-146.282 160,-156.282 163.5,-146.282 156.5,-146.282"/>
<text text-anchor="middle" x="182.5" y="-130" font-family="Helvetica,sans-Serif" font-size="10.00"> txIrqSync</text>
<text text-anchor="middle" x="182.5" y="-119" font-family="Helvetica,sans-Serif" font-size="10.00">rxIrqSync</text>
</g>
</g>
</svg>
