<?xml version="1.0" encoding="UTF-8" standalone="no"?>
<!DOCTYPE svg PUBLIC "-//W3C//DTD SVG 1.1//EN"
 "http://www.w3.org/Graphics/SVG/1.1/DTD/svg11.dtd">
<!-- Generated by graphviz version 2.38.0 (20140413.2041)
 -->
<!-- Title: usb_hid_packetizer_info_t Pages: 1 -->
<svg width="109pt" height="173pt"
 viewBox="0.00 0.00 109.00 173.00" xmlns="http://www.w3.org/2000/svg" xmlns:xlink="http://www.w3.org/1999/xlink">
<g id="graph0" class="graph" transform="scale(1 1) rotate(0) translate(4 169)">
<title>usb_hid_packetizer_info_t</title>
<polygon fill="white" stroke="none" points="-4,4 -4,-169 105,-169 105,4 -4,4"/>
<!-- Node1 -->
<g id="node1" class="node"><title>Node1</title>
<polygon fill="#bfbfbf" stroke="black" points="0,-0.5 0,-30.5 101,-30.5 101,-0.5 0,-0.5"/>
<text text-anchor="start" x="8" y="-18.5" font-family="Helvetica,sans-Serif" font-size="10.00">usb_hid_packetizer</text>
<text text-anchor="middle" x="50.5" y="-7.5" font-family="Helvetica,sans-Serif" font-size="10.00">_info_t</text>
</g>
<!-- Node2 -->
<g id="node2" class="node"><title>Node2</title>
<g id="a_node2"><a xlink:href="structbl__hid__report__t.html" target="_top" xlink:title="Structure of a bootloader HID report. ">
<polygon fill="white" stroke="black" points="10.5,-78.5 10.5,-97.5 90.5,-97.5 90.5,-78.5 10.5,-78.5"/>
<text text-anchor="middle" x="50.5" y="-85.5" font-family="Helvetica,sans-Serif" font-size="10.00">bl_hid_report_t</text>
</a>
</g>
</g>
<!-- Node2&#45;&gt;Node1 -->
<g id="edge1" class="edge"><title>Node2&#45;&gt;Node1</title>
<path fill="none" stroke="#9a32cd" stroke-dasharray="5,2" d="M50.5,-68.2362C50.5,-56.4079 50.5,-41.3829 50.5,-30.5762"/>
<polygon fill="#9a32cd" stroke="#9a32cd" points="47.0001,-68.3553 50.5,-78.3553 54.0001,-68.3554 47.0001,-68.3553"/>
<text text-anchor="middle" x="64.5" y="-52" font-family="Helvetica,sans-Serif" font-size="10.00"> report</text>
</g>
<!-- Node3 -->
<g id="node3" class="node"><title>Node3</title>
<g id="a_node3"><a xlink:href="structbl__hid__header__t.html" target="_top" xlink:title="Structure of a bootloader HID header. ">
<polygon fill="white" stroke="black" points="8,-145.5 8,-164.5 93,-164.5 93,-145.5 8,-145.5"/>
<text text-anchor="middle" x="50.5" y="-152.5" font-family="Helvetica,sans-Serif" font-size="10.00">bl_hid_header_t</text>
</a>
</g>
</g>
<!-- Node3&#45;&gt;Node2 -->
<g id="edge2" class="edge"><title>Node3&#45;&gt;Node2</title>
<path fill="none" stroke="#9a32cd" stroke-dasharray="5,2" d="M50.5,-135.037C50.5,-122.67 50.5,-107.12 50.5,-97.6273"/>
<polygon fill="#9a32cd" stroke="#9a32cd" points="47.0001,-135.234 50.5,-145.234 54.0001,-135.234 47.0001,-135.234"/>
<text text-anchor="middle" x="67" y="-119" font-family="Helvetica,sans-Serif" font-size="10.00"> header</text>
</g>
</g>
</svg>
