<?xml version="1.0" encoding="UTF-8" standalone="no"?>
<!DOCTYPE svg PUBLIC "-//W3C//DTD SVG 1.1//EN"
 "http://www.w3.org/Graphics/SVG/1.1/DTD/svg11.dtd">
<!-- Generated by graphviz version 2.38.0 (20140413.2041)
 -->
<!-- Title: bootloader_tree_t Pages: 1 -->
<svg width="1102pt" height="427pt"
 viewBox="0.00 0.00 1102.00 427.00" xmlns="http://www.w3.org/2000/svg" xmlns:xlink="http://www.w3.org/1999/xlink">
<g id="graph0" class="graph" transform="scale(1 1) rotate(0) translate(4 423)">
<title>bootloader_tree_t</title>
<polygon fill="white" stroke="none" points="-4,4 -4,-423 1098,-423 1098,4 -4,4"/>
<!-- Node1 -->
<g id="node1" class="node"><title>Node1</title>
<polygon fill="#bfbfbf" stroke="black" points="1002,-318.5 1002,-337.5 1094,-337.5 1094,-318.5 1002,-318.5"/>
<text text-anchor="middle" x="1048" y="-325.5" font-family="Helvetica,sans-Serif" font-size="10.00">bootloader_tree_t</text>
</g>
<!-- Node2 -->
<g id="node2" class="node"><title>Node2</title>
<g id="a_node2"><a xlink:href="group__context.html#structaes__driver__interface__t" target="_top" xlink:title="Interface for AES 128 functions. ">
<polygon fill="white" stroke="black" points="555.5,-334.5 555.5,-353.5 665.5,-353.5 665.5,-334.5 555.5,-334.5"/>
<text text-anchor="middle" x="610.5" y="-341.5" font-family="Helvetica,sans-Serif" font-size="10.00">aes_driver_interface_t</text>
</a>
</g>
</g>
<!-- Node2&#45;&gt;Node1 -->
<g id="edge1" class="edge"><title>Node2&#45;&gt;Node1</title>
<path fill="none" stroke="#9a32cd" stroke-dasharray="5,2" d="M675.796,-342.109C704.873,-341.222 739.67,-340.115 771,-339 852.232,-336.108 946.89,-332.223 1001.58,-329.928"/>
<polygon fill="#9a32cd" stroke="#9a32cd" points="675.654,-338.612 665.764,-342.413 675.866,-345.608 675.654,-338.612"/>
<text text-anchor="middle" x="842.5" y="-342" font-family="Helvetica,sans-Serif" font-size="10.00"> aesDriver</text>
</g>
<!-- Node5 -->
<g id="node5" class="node"><title>Node5</title>
<g id="a_node5"><a xlink:href="group__context.html#structbootloader__context__t" target="_top" xlink:title="Structure of bootloader global context. ">
<polygon fill="white" stroke="black" points="789,-229.5 789,-248.5 896,-248.5 896,-229.5 789,-229.5"/>
<text text-anchor="middle" x="842.5" y="-236.5" font-family="Helvetica,sans-Serif" font-size="10.00">bootloader_context_t</text>
</a>
</g>
</g>
<!-- Node2&#45;&gt;Node5 -->
<g id="edge8" class="edge"><title>Node2&#45;&gt;Node5</title>
<path fill="none" stroke="#9a32cd" stroke-dasharray="5,2" d="M658.223,-331.715C690.803,-322.241 734.755,-307.616 771,-289 777.04,-285.898 809.781,-262.188 828.448,-248.561"/>
<polygon fill="#9a32cd" stroke="#9a32cd" points="657.155,-328.38 648.499,-334.488 659.075,-335.111 657.155,-328.38"/>
<text text-anchor="middle" x="728.5" y="-327" font-family="Helvetica,sans-Serif" font-size="10.00"> aesInterface</text>
</g>
<!-- Node3 -->
<g id="node3" class="node"><title>Node3</title>
<g id="a_node3"><a xlink:href="group__bl__core.html#unionstandard__version__t" target="_top" xlink:title="Structure of version property. ">
<polygon fill="white" stroke="black" points="17,-348.5 17,-367.5 115,-367.5 115,-348.5 17,-348.5"/>
<text text-anchor="middle" x="66" y="-355.5" font-family="Helvetica,sans-Serif" font-size="10.00">standard_version_t</text>
</a>
</g>
</g>
<!-- Node3&#45;&gt;Node1 -->
<g id="edge2" class="edge"><title>Node3&#45;&gt;Node1</title>
<path fill="none" stroke="#9a32cd" stroke-dasharray="5,2" d="M122.557,-369.488C183.116,-380.992 283.011,-397 370,-397 370,-397 370,-397 843.5,-397 916.619,-397 997.062,-356.553 1030.75,-337.594"/>
<polygon fill="#9a32cd" stroke="#9a32cd" points="122.933,-365.996 112.452,-367.54 121.609,-372.87 122.933,-365.996"/>
<text text-anchor="middle" x="610.5" y="-411" font-family="Helvetica,sans-Serif" font-size="10.00"> version</text>
<text text-anchor="middle" x="610.5" y="-400" font-family="Helvetica,sans-Serif" font-size="10.00">bootloader_version</text>
</g>
<!-- Node4 -->
<g id="node4" class="node"><title>Node4</title>
<g id="a_node4"><a xlink:href="group__context.html#structflash__driver__interface__t" target="_top" xlink:title="Interface for the flash driver. ">
<polygon fill="white" stroke="black" points="553,-289.5 553,-308.5 668,-308.5 668,-289.5 553,-289.5"/>
<text text-anchor="middle" x="610.5" y="-296.5" font-family="Helvetica,sans-Serif" font-size="10.00">flash_driver_interface_t</text>
</a>
</g>
</g>
<!-- Node3&#45;&gt;Node4 -->
<g id="edge4" class="edge"><title>Node3&#45;&gt;Node4</title>
<path fill="none" stroke="#9a32cd" stroke-dasharray="5,2" d="M125.245,-355.367C168.77,-353.122 229.696,-349.394 283,-344 377.929,-334.394 487.718,-318.21 552.732,-308.092"/>
<polygon fill="#9a32cd" stroke="#9a32cd" points="124.935,-351.878 115.125,-355.878 125.289,-358.869 124.935,-351.878"/>
<text text-anchor="middle" x="371" y="-345" font-family="Helvetica,sans-Serif" font-size="10.00"> version</text>
</g>
<!-- Node9 -->
<g id="node9" class="node"><title>Node9</title>
<g id="a_node9"><a xlink:href="group__property.html#structproperty__store__t" target="_top" xlink:title="Structure of property store. ">
<polygon fill="white" stroke="black" points="327.5,-232.5 327.5,-251.5 414.5,-251.5 414.5,-232.5 327.5,-232.5"/>
<text text-anchor="middle" x="371" y="-239.5" font-family="Helvetica,sans-Serif" font-size="10.00">property_store_t</text>
</a>
</g>
</g>
<!-- Node3&#45;&gt;Node9 -->
<g id="edge14" class="edge"><title>Node3&#45;&gt;Node9</title>
<path fill="none" stroke="#9a32cd" stroke-dasharray="5,2" d="M89.0826,-342.699C105.25,-332.21 128.101,-318.827 150,-311 206.489,-290.811 226.225,-307.371 283,-288 309.843,-278.842 338.455,-262.219 355.255,-251.663"/>
<polygon fill="#9a32cd" stroke="#9a32cd" points="86.7831,-340.025 80.3933,-348.476 90.6586,-345.854 86.7831,-340.025"/>
<text text-anchor="middle" x="216.5" y="-336" font-family="Helvetica,sans-Serif" font-size="10.00"> targetVersion</text>
<text text-anchor="middle" x="216.5" y="-325" font-family="Helvetica,sans-Serif" font-size="10.00">serialProtocolVersion</text>
<text text-anchor="middle" x="216.5" y="-314" font-family="Helvetica,sans-Serif" font-size="10.00">bootloaderVersion</text>
</g>
<!-- Node4&#45;&gt;Node1 -->
<g id="edge3" class="edge"><title>Node4&#45;&gt;Node1</title>
<path fill="none" stroke="#9a32cd" stroke-dasharray="5,2" d="M678.504,-303.462C768.256,-309.438 925.102,-319.883 1001.96,-325.001"/>
<polygon fill="#9a32cd" stroke="#9a32cd" points="678.645,-299.963 668.434,-302.791 678.179,-306.948 678.645,-299.963"/>
<text text-anchor="middle" x="842.5" y="-321" font-family="Helvetica,sans-Serif" font-size="10.00"> flashDriver</text>
</g>
<!-- Node4&#45;&gt;Node5 -->
<g id="edge17" class="edge"><title>Node4&#45;&gt;Node5</title>
<path fill="none" stroke="#9a32cd" stroke-dasharray="5,2" d="M647.611,-286.054C659.73,-281.932 673.374,-277.529 686,-274 721.578,-264.055 762.337,-254.964 793.198,-248.541"/>
<polygon fill="#9a32cd" stroke="#9a32cd" points="646.155,-282.854 637.845,-289.426 648.44,-289.471 646.155,-282.854"/>
<text text-anchor="middle" x="728.5" y="-277" font-family="Helvetica,sans-Serif" font-size="10.00"> flashDriverInterface</text>
</g>
<!-- Node5&#45;&gt;Node1 -->
<g id="edge5" class="edge"><title>Node5&#45;&gt;Node1</title>
<path fill="none" stroke="#9a32cd" stroke-dasharray="5,2" d="M906.098,-248.129C931.256,-253.421 959.94,-261.585 984,-274 1006.27,-285.494 1027.37,-306.31 1038.61,-318.466"/>
<polygon fill="#9a32cd" stroke="#9a32cd" points="906.776,-244.695 896.285,-246.17 905.406,-251.56 906.776,-244.695"/>
<text text-anchor="middle" x="949" y="-277" font-family="Helvetica,sans-Serif" font-size="10.00"> runtimeContext</text>
</g>
<!-- Node6 -->
<g id="node6" class="node"><title>Node6</title>
<g id="a_node6"><a xlink:href="group__memif.html#structmemory__map__entry__t" target="_top" xlink:title="Structure of a memory map entry. ">
<polygon fill="white" stroke="black" points="555,-24.5 555,-43.5 666,-43.5 666,-24.5 555,-24.5"/>
<text text-anchor="middle" x="610.5" y="-31.5" font-family="Helvetica,sans-Serif" font-size="10.00">memory_map_entry_t</text>
</a>
</g>
</g>
<!-- Node6&#45;&gt;Node5 -->
<g id="edge6" class="edge"><title>Node6&#45;&gt;Node5</title>
<path fill="none" stroke="#9a32cd" stroke-dasharray="5,2" d="M640.006,-48.2241C673.843,-66.036 730.744,-98.9964 771,-138 800.947,-167.016 826.177,-210.43 836.5,-229.472"/>
<polygon fill="#9a32cd" stroke="#9a32cd" points="641.596,-45.1057 631.107,-43.6095 638.373,-51.32 641.596,-45.1057"/>
<text text-anchor="middle" x="728.5" y="-141" font-family="Helvetica,sans-Serif" font-size="10.00"> memoryMap</text>
</g>
<!-- Node7 -->
<g id="node7" class="node"><title>Node7</title>
<g id="a_node7"><a xlink:href="group__memif.html#structmemory__region__interface__t" target="_top" xlink:title="Interface to memory operations for one region of memory. ">
<polygon fill="white" stroke="black" points="304,-0.5 304,-19.5 438,-19.5 438,-0.5 304,-0.5"/>
<text text-anchor="middle" x="371" y="-7.5" font-family="Helvetica,sans-Serif" font-size="10.00">memory_region_interface_t</text>
</a>
</g>
</g>
<!-- Node7&#45;&gt;Node6 -->
<g id="edge7" class="edge"><title>Node7&#45;&gt;Node6</title>
<path fill="none" stroke="#9a32cd" stroke-dasharray="5,2" d="M448.262,-17.7065C482.982,-21.2151 523.285,-25.2877 554.91,-28.4836"/>
<polygon fill="#9a32cd" stroke="#9a32cd" points="448.458,-14.2086 438.157,-16.6853 447.754,-21.1731 448.458,-14.2086"/>
<text text-anchor="middle" x="497" y="-30" font-family="Helvetica,sans-Serif" font-size="10.00"> memoryInterface</text>
</g>
<!-- Node8 -->
<g id="node8" class="node"><title>Node8</title>
<g id="a_node8"><a xlink:href="group__property.html#structproperty__interface__t" target="_top" xlink:title="Interface to property operations. ">
<polygon fill="white" stroke="black" points="559.5,-232.5 559.5,-251.5 661.5,-251.5 661.5,-232.5 559.5,-232.5"/>
<text text-anchor="middle" x="610.5" y="-239.5" font-family="Helvetica,sans-Serif" font-size="10.00">property_interface_t</text>
</a>
</g>
</g>
<!-- Node8&#45;&gt;Node5 -->
<g id="edge9" class="edge"><title>Node8&#45;&gt;Node5</title>
<path fill="none" stroke="#9a32cd" stroke-dasharray="5,2" d="M671.588,-240.281C676.463,-240.174 681.314,-240.078 686,-240 720.282,-239.43 758.819,-239.179 788.953,-239.071"/>
<polygon fill="#9a32cd" stroke="#9a32cd" points="671.505,-236.782 661.59,-240.515 671.669,-243.78 671.505,-236.782"/>
<text text-anchor="middle" x="728.5" y="-243" font-family="Helvetica,sans-Serif" font-size="10.00"> propertyInterface</text>
</g>
<!-- Node9&#45;&gt;Node8 -->
<g id="edge10" class="edge"><title>Node9&#45;&gt;Node8</title>
<path fill="none" stroke="#9a32cd" stroke-dasharray="5,2" d="M424.861,-242C464.995,-242 519.819,-242 559.287,-242"/>
<polygon fill="#9a32cd" stroke="#9a32cd" points="424.735,-238.5 414.735,-242 424.735,-245.5 424.735,-238.5"/>
<text text-anchor="middle" x="497" y="-245" font-family="Helvetica,sans-Serif" font-size="10.00"> store</text>
</g>
<!-- Node10 -->
<g id="node10" class="node"><title>Node10</title>
<g id="a_node10"><a xlink:href="group__property.html#structbootloader__configuration__data__t" target="_top" xlink:title="Format of bootloader configuration data on Flash. ">
<polygon fill="white" stroke="black" points="5,-273 5,-303 127,-303 127,-273 5,-273"/>
<text text-anchor="start" x="13" y="-291" font-family="Helvetica,sans-Serif" font-size="10.00">bootloader_configuration</text>
<text text-anchor="middle" x="66" y="-280" font-family="Helvetica,sans-Serif" font-size="10.00">_data_t</text>
</a>
</g>
</g>
<!-- Node10&#45;&gt;Node9 -->
<g id="edge11" class="edge"><title>Node10&#45;&gt;Node9</title>
<path fill="none" stroke="#9a32cd" stroke-dasharray="5,2" d="M137.192,-277.344C196.029,-268.411 278.115,-255.949 327.458,-248.458"/>
<polygon fill="#9a32cd" stroke="#9a32cd" points="136.587,-273.895 127.225,-278.857 137.637,-280.816 136.587,-273.895"/>
<text text-anchor="middle" x="216.5" y="-278" font-family="Helvetica,sans-Serif" font-size="10.00"> configurationData</text>
</g>
<!-- Node11 -->
<g id="node11" class="node"><title>Node11</title>
<g id="a_node11"><a xlink:href="group__property.html#structreserved__region__t" target="_top" xlink:title="Structure of a reserved regions entry. ">
<polygon fill="white" stroke="black" points="20,-234.5 20,-253.5 112,-253.5 112,-234.5 20,-234.5"/>
<text text-anchor="middle" x="66" y="-241.5" font-family="Helvetica,sans-Serif" font-size="10.00">reserved_region_t</text>
</a>
</g>
</g>
<!-- Node11&#45;&gt;Node9 -->
<g id="edge12" class="edge"><title>Node11&#45;&gt;Node9</title>
<path fill="none" stroke="#9a32cd" stroke-dasharray="5,2" d="M122.469,-243.274C131.665,-243.17 141.101,-243.074 150,-243 211.683,-242.488 283.095,-242.224 327.413,-242.099"/>
<polygon fill="#9a32cd" stroke="#9a32cd" points="122.188,-239.777 112.23,-243.394 122.27,-246.776 122.188,-239.777"/>
<text text-anchor="middle" x="216.5" y="-246" font-family="Helvetica,sans-Serif" font-size="10.00"> reservedRegions</text>
</g>
<!-- Node12 -->
<g id="node12" class="node"><title>Node12</title>
<g id="a_node12"><a xlink:href="group__property.html#structunique__device__id__t" target="_top" xlink:title="Structure of a unique device id. ">
<polygon fill="white" stroke="black" points="17,-196.5 17,-215.5 115,-215.5 115,-196.5 17,-196.5"/>
<text text-anchor="middle" x="66" y="-203.5" font-family="Helvetica,sans-Serif" font-size="10.00">unique_device_id_t</text>
</a>
</g>
</g>
<!-- Node12&#45;&gt;Node9 -->
<g id="edge13" class="edge"><title>Node12&#45;&gt;Node9</title>
<path fill="none" stroke="#9a32cd" stroke-dasharray="5,2" d="M125.257,-211.01C168.789,-214.978 229.717,-221.005 283,-228 297.41,-229.892 313.106,-232.307 327.149,-234.598"/>
<polygon fill="#9a32cd" stroke="#9a32cd" points="125.41,-207.51 115.135,-210.096 124.78,-214.482 125.41,-207.51"/>
<text text-anchor="middle" x="216.5" y="-231" font-family="Helvetica,sans-Serif" font-size="10.00"> UniqueDeviceId</text>
</g>
<!-- Node13 -->
<g id="node13" class="node"><title>Node13</title>
<g id="a_node13"><a xlink:href="group__property.html#structexternal__memory__property__store__t" target="_top" xlink:title="Exernal Memory attribute store. ">
<polygon fill="white" stroke="black" points="0,-147 0,-177 132,-177 132,-147 0,-147"/>
<text text-anchor="start" x="8" y="-165" font-family="Helvetica,sans-Serif" font-size="10.00">external_memory_property</text>
<text text-anchor="middle" x="66" y="-154" font-family="Helvetica,sans-Serif" font-size="10.00">_store_t</text>
</a>
</g>
</g>
<!-- Node13&#45;&gt;Node9 -->
<g id="edge15" class="edge"><title>Node13&#45;&gt;Node9</title>
<path fill="none" stroke="#9a32cd" stroke-dasharray="5,2" d="M142.623,-169.514C184.675,-175.036 237.541,-184.22 283,-199 309.117,-207.491 337.246,-222.602 354.237,-232.46"/>
<polygon fill="#9a32cd" stroke="#9a32cd" points="142.813,-166.01 132.452,-168.222 141.931,-172.954 142.813,-166.01"/>
<text text-anchor="middle" x="216.5" y="-202" font-family="Helvetica,sans-Serif" font-size="10.00"> externalMemoryPropertyStore</text>
</g>
<!-- Node14 -->
<g id="node14" class="node"><title>Node14</title>
<g id="a_node14"><a xlink:href="group__memif.html#structmemory__interface__t" target="_top" xlink:title="Interface to memory operations. ">
<polygon fill="white" stroke="black" points="559.5,-194.5 559.5,-213.5 661.5,-213.5 661.5,-194.5 559.5,-194.5"/>
<text text-anchor="middle" x="610.5" y="-201.5" font-family="Helvetica,sans-Serif" font-size="10.00">memory_interface_t</text>
</a>
</g>
</g>
<!-- Node14&#45;&gt;Node5 -->
<g id="edge16" class="edge"><title>Node14&#45;&gt;Node5</title>
<path fill="none" stroke="#9a32cd" stroke-dasharray="5,2" d="M671.831,-211.003C701.729,-214.712 738.337,-219.613 771,-225 779.003,-226.32 787.487,-227.872 795.692,-229.454"/>
<polygon fill="#9a32cd" stroke="#9a32cd" points="671.904,-207.486 661.552,-209.742 671.052,-214.434 671.904,-207.486"/>
<text text-anchor="middle" x="728.5" y="-228" font-family="Helvetica,sans-Serif" font-size="10.00"> memoryInterface</text>
</g>
<!-- Node15 -->
<g id="node15" class="node"><title>Node15</title>
<g id="a_node15"><a xlink:href="group__command.html#structcommand__interface__t" target="_top" xlink:title="Interface to command processor operations. ">
<polygon fill="white" stroke="black" points="555.5,-99.5 555.5,-118.5 665.5,-118.5 665.5,-99.5 555.5,-99.5"/>
<text text-anchor="middle" x="610.5" y="-106.5" font-family="Helvetica,sans-Serif" font-size="10.00">command_interface_t</text>
</a>
</g>
</g>
<!-- Node15&#45;&gt;Node5 -->
<g id="edge18" class="edge"><title>Node15&#45;&gt;Node5</title>
<path fill="none" stroke="#9a32cd" stroke-dasharray="5,2" d="M637.776,-123.802C669.4,-141.621 724.104,-172.465 771,-199 789.372,-209.395 810.418,-221.341 824.698,-229.452"/>
<polygon fill="#9a32cd" stroke="#9a32cd" points="639.168,-120.568 628.737,-118.709 635.732,-126.667 639.168,-120.568"/>
<text text-anchor="middle" x="728.5" y="-202" font-family="Helvetica,sans-Serif" font-size="10.00"> commandInterface</text>
</g>
<!-- Node16 -->
<g id="node16" class="node"><title>Node16</title>
<g id="a_node16"><a xlink:href="group__command.html#structcommand__processor__data__t" target="_top" xlink:title="Command processor data format. ">
<polygon fill="white" stroke="black" points="301,-99.5 301,-118.5 441,-118.5 441,-99.5 301,-99.5"/>
<text text-anchor="middle" x="371" y="-106.5" font-family="Helvetica,sans-Serif" font-size="10.00">command_processor_data_t</text>
</a>
</g>
</g>
<!-- Node16&#45;&gt;Node15 -->
<g id="edge19" class="edge"><title>Node16&#45;&gt;Node15</title>
<path fill="none" stroke="#9a32cd" stroke-dasharray="5,2" d="M451.446,-109C485.616,-109 524.678,-109 555.421,-109"/>
<polygon fill="#9a32cd" stroke="#9a32cd" points="451.014,-105.5 441.014,-109 451.014,-112.5 451.014,-105.5"/>
<text text-anchor="middle" x="497" y="-112" font-family="Helvetica,sans-Serif" font-size="10.00"> stateData</text>
</g>
<!-- Node17 -->
<g id="node17" class="node"><title>Node17</title>
<g id="a_node17"><a xlink:href="group__command.html#structcommand__handler__entry__t" target="_top" xlink:title="Format of command handler entry. ">
<polygon fill="white" stroke="black" points="0.5,-55.5 0.5,-74.5 131.5,-74.5 131.5,-55.5 0.5,-55.5"/>
<text text-anchor="middle" x="66" y="-62.5" font-family="Helvetica,sans-Serif" font-size="10.00">command_handler_entry_t</text>
</a>
</g>
</g>
<!-- Node17&#45;&gt;Node15 -->
<g id="edge22" class="edge"><title>Node17&#45;&gt;Node15</title>
<path fill="none" stroke="#9a32cd" stroke-dasharray="5,2" d="M142.101,-64.7565C217.775,-65.2282 337.801,-67.9357 441,-79 483.691,-83.5771 531.874,-92.5453 565.746,-99.4892"/>
<polygon fill="#9a32cd" stroke="#9a32cd" points="141.741,-61.2548 131.723,-64.7042 141.706,-68.2547 141.741,-61.2548"/>
<text text-anchor="middle" x="371" y="-82" font-family="Helvetica,sans-Serif" font-size="10.00"> handlerTable</text>
</g>
<!-- Node17&#45;&gt;Node16 -->
<g id="edge20" class="edge"><title>Node17&#45;&gt;Node16</title>
<path fill="none" stroke="#9a32cd" stroke-dasharray="5,2" d="M141.712,-75.8493C191.587,-83.0918 256.555,-92.5262 304.425,-99.4775"/>
<polygon fill="#9a32cd" stroke="#9a32cd" points="142.029,-72.3586 131.629,-74.3851 141.023,-79.286 142.029,-72.3586"/>
<text text-anchor="middle" x="216.5" y="-99" font-family="Helvetica,sans-Serif" font-size="10.00"> handlerEntry</text>
</g>
<!-- Node18 -->
<g id="node18" class="node"><title>Node18</title>
<g id="a_node18"><a xlink:href="structcommand__processor__data__t_1_1_data_phase.html" target="_top" xlink:title="DataPhase">
<polygon fill="white" stroke="black" points="33.5,-108.5 33.5,-127.5 98.5,-127.5 98.5,-108.5 33.5,-108.5"/>
<text text-anchor="middle" x="66" y="-115.5" font-family="Helvetica,sans-Serif" font-size="10.00">DataPhase</text>
</a>
</g>
</g>
<!-- Node18&#45;&gt;Node16 -->
<g id="edge21" class="edge"><title>Node18&#45;&gt;Node16</title>
<path fill="none" stroke="#9a32cd" stroke-dasharray="5,2" d="M108.608,-116.764C158.167,-115.292 241.686,-112.811 300.971,-111.05"/>
<polygon fill="#9a32cd" stroke="#9a32cd" points="108.46,-113.267 98.5688,-117.062 108.668,-120.264 108.46,-113.267"/>
<text text-anchor="middle" x="216.5" y="-119" font-family="Helvetica,sans-Serif" font-size="10.00"> dataPhase</text>
</g>
</g>
</svg>
