<?xml version="1.0" encoding="UTF-8" standalone="no"?>
<!DOCTYPE svg PUBLIC "-//W3C//DTD SVG 1.1//EN"
 "http://www.w3.org/Graphics/SVG/1.1/DTD/svg11.dtd">
<!-- Generated by graphviz version 2.38.0 (20140413.2041)
 -->
<!-- Title: flexcan_state_t Pages: 1 -->
<svg width="95pt" height="106pt"
 viewBox="0.00 0.00 94.50 106.00" xmlns="http://www.w3.org/2000/svg" xmlns:xlink="http://www.w3.org/1999/xlink">
<g id="graph0" class="graph" transform="scale(1 1) rotate(0) translate(4 102)">
<title>flexcan_state_t</title>
<polygon fill="white" stroke="none" points="-4,4 -4,-102 90.5,-102 90.5,4 -4,4"/>
<!-- Node1 -->
<g id="node1" class="node"><title>Node1</title>
<polygon fill="#bfbfbf" stroke="black" points="0,-0.5 0,-19.5 83,-19.5 83,-0.5 0,-0.5"/>
<text text-anchor="middle" x="41.5" y="-7.5" font-family="Helvetica,sans-Serif" font-size="10.00">flexcan_state_t</text>
</g>
<!-- Node2 -->
<g id="node2" class="node"><title>Node2</title>
<g id="a_node2"><a xlink:href="group__rtos__irq__sync.html#structsemaphore__t" target="_top" xlink:title="semaphore_t">
<polygon fill="white" stroke="black" points="5,-78.5 5,-97.5 78,-97.5 78,-78.5 5,-78.5"/>
<text text-anchor="middle" x="41.5" y="-85.5" font-family="Helvetica,sans-Serif" font-size="10.00">semaphore_t</text>
</a>
</g>
</g>
<!-- Node2&#45;&gt;Node1 -->
<g id="edge1" class="edge"><title>Node2&#45;&gt;Node1</title>
<path fill="none" stroke="#9a32cd" stroke-dasharray="5,2" d="M41.5,-68.2239C41.5,-52.6974 41.5,-31.3582 41.5,-19.6165"/>
<polygon fill="#9a32cd" stroke="#9a32cd" points="38.0001,-68.2818 41.5,-78.2818 45.0001,-68.2819 38.0001,-68.2818"/>
<text text-anchor="middle" x="64" y="-52" font-family="Helvetica,sans-Serif" font-size="10.00"> txIrqSync</text>
<text text-anchor="middle" x="64" y="-41" font-family="Helvetica,sans-Serif" font-size="10.00">rxIrqSync</text>
</g>
</g>
</svg>
