<?xml version="1.0" encoding="UTF-8" standalone="no"?>
<!DOCTYPE svg PUBLIC "-//W3C//DTD SVG 1.1//EN"
 "http://www.w3.org/Graphics/SVG/1.1/DTD/svg11.dtd">
<!-- Generated by graphviz version 2.38.0 (20140413.2041)
 -->
<!-- Title: flash_read_once_response_frame_packet_t Pages: 1 -->
<svg width="285pt" height="184pt"
 viewBox="0.00 0.00 284.50 184.00" xmlns="http://www.w3.org/2000/svg" xmlns:xlink="http://www.w3.org/1999/xlink">
<g id="graph0" class="graph" transform="scale(1 1) rotate(0) translate(4 180)">
<title>flash_read_once_response_frame_packet_t</title>
<polygon fill="white" stroke="none" points="-4,4 -4,-180 280.5,-180 280.5,4 -4,4"/>
<!-- Node1 -->
<g id="node1" class="node"><title>Node1</title>
<polygon fill="#bfbfbf" stroke="black" points="69.5,-0.5 69.5,-30.5 201.5,-30.5 201.5,-0.5 69.5,-0.5"/>
<text text-anchor="start" x="77.5" y="-18.5" font-family="Helvetica,sans-Serif" font-size="10.00">flash_read_once_response</text>
<text text-anchor="middle" x="135.5" y="-7.5" font-family="Helvetica,sans-Serif" font-size="10.00">_frame_packet_t</text>
</g>
<!-- Node2 -->
<g id="node2" class="node"><title>Node2</title>
<g id="a_node2"><a xlink:href="group__packet.html#structframing__data__packet__t" target="_top" xlink:title="Serial framing data packet. ">
<polygon fill="white" stroke="black" points="0,-84 0,-103 115,-103 115,-84 0,-84"/>
<text text-anchor="middle" x="57.5" y="-91" font-family="Helvetica,sans-Serif" font-size="10.00">framing_data_packet_t</text>
</a>
</g>
</g>
<!-- Node2&#45;&gt;Node1 -->
<g id="edge1" class="edge"><title>Node2&#45;&gt;Node1</title>
<path fill="none" stroke="#9a32cd" stroke-dasharray="5,2" d="M73.4762,-76.5772C81.7982,-68.3156 92.1611,-58.0786 101.5,-49 107.706,-42.9666 114.602,-36.3576 120.553,-30.684"/>
<polygon fill="#9a32cd" stroke="#9a32cd" points="70.8455,-74.2572 66.2229,-83.7904 75.7816,-79.2207 70.8455,-74.2572"/>
<text text-anchor="middle" x="131" y="-52" font-family="Helvetica,sans-Serif" font-size="10.00"> framing_data</text>
</g>
<!-- Node3 -->
<g id="node3" class="node"><title>Node3</title>
<g id="a_node3"><a xlink:href="group__packet.html#structframing__header__t" target="_top" xlink:title="Serial framing header. ">
<polygon fill="white" stroke="black" points="12,-156.5 12,-175.5 103,-175.5 103,-156.5 12,-156.5"/>
<text text-anchor="middle" x="57.5" y="-163.5" font-family="Helvetica,sans-Serif" font-size="10.00">framing_header_t</text>
</a>
</g>
</g>
<!-- Node3&#45;&gt;Node2 -->
<g id="edge2" class="edge"><title>Node3&#45;&gt;Node2</title>
<path fill="none" stroke="#9a32cd" stroke-dasharray="5,2" d="M57.5,-145.942C57.5,-132.03 57.5,-113.82 57.5,-103.215"/>
<polygon fill="#9a32cd" stroke="#9a32cd" points="54.0001,-146.355 57.5,-156.355 61.0001,-146.355 54.0001,-146.355"/>
<text text-anchor="middle" x="74" y="-130" font-family="Helvetica,sans-Serif" font-size="10.00"> header</text>
</g>
<!-- Node4 -->
<g id="node4" class="node"><title>Node4</title>
<g id="a_node4"><a xlink:href="group__packet.html#structflash__read__once__response__packet__t" target="_top" xlink:title="Flash Read Once response packet format. ">
<polygon fill="white" stroke="black" points="133.5,-78.5 133.5,-108.5 265.5,-108.5 265.5,-78.5 133.5,-78.5"/>
<text text-anchor="start" x="141.5" y="-96.5" font-family="Helvetica,sans-Serif" font-size="10.00">flash_read_once_response</text>
<text text-anchor="middle" x="199.5" y="-85.5" font-family="Helvetica,sans-Serif" font-size="10.00">_packet_t</text>
</a>
</g>
</g>
<!-- Node4&#45;&gt;Node1 -->
<g id="edge3" class="edge"><title>Node4&#45;&gt;Node1</title>
<path fill="none" stroke="#9a32cd" stroke-dasharray="5,2" d="M180.811,-70.3065C170.054,-57.5329 156.855,-41.8596 147.484,-30.7309"/>
<polygon fill="#9a32cd" stroke="#9a32cd" points="178.344,-72.8103 187.462,-78.205 183.698,-68.3014 178.344,-72.8103"/>
<text text-anchor="middle" x="193" y="-52" font-family="Helvetica,sans-Serif" font-size="10.00"> response</text>
</g>
<!-- Node5 -->
<g id="node5" class="node"><title>Node5</title>
<g id="a_node5"><a xlink:href="group__packet.html#structcommand__packet__t" target="_top" xlink:title="Command packet format. ">
<polygon fill="white" stroke="black" points="148.5,-156.5 148.5,-175.5 250.5,-175.5 250.5,-156.5 148.5,-156.5"/>
<text text-anchor="middle" x="199.5" y="-163.5" font-family="Helvetica,sans-Serif" font-size="10.00">command_packet_t</text>
</a>
</g>
</g>
<!-- Node5&#45;&gt;Node4 -->
<g id="edge4" class="edge"><title>Node5&#45;&gt;Node4</title>
<path fill="none" stroke="#9a32cd" stroke-dasharray="5,2" d="M199.5,-146.236C199.5,-134.408 199.5,-119.383 199.5,-108.576"/>
<polygon fill="#9a32cd" stroke="#9a32cd" points="196,-146.355 199.5,-156.355 203,-146.355 196,-146.355"/>
<text text-anchor="middle" x="238" y="-130" font-family="Helvetica,sans-Serif" font-size="10.00"> commandPacket</text>
</g>
</g>
</svg>
