<?xml version="1.0" encoding="UTF-8" standalone="no"?>
<!DOCTYPE svg PUBLIC "-//W3C//DTD SVG 1.1//EN"
 "http://www.w3.org/Graphics/SVG/1.1/DTD/svg11.dtd">
<!-- Generated by graphviz version 2.38.0 (20140413.2041)
 -->
<!-- Title: i2c_slave_handle_t Pages: 1 -->
<svg width="110pt" height="106pt"
 viewBox="0.00 0.00 110.00 106.00" xmlns="http://www.w3.org/2000/svg" xmlns:xlink="http://www.w3.org/1999/xlink">
<g id="graph0" class="graph" transform="scale(1 1) rotate(0) translate(4 102)">
<title>i2c_slave_handle_t</title>
<polygon fill="white" stroke="none" points="-4,4 -4,-102 106,-102 106,4 -4,4"/>
<!-- Node1 -->
<g id="node1" class="node"><title>Node1</title>
<polygon fill="#bfbfbf" stroke="black" points="2,-0.5 2,-19.5 100,-19.5 100,-0.5 2,-0.5"/>
<text text-anchor="middle" x="51" y="-7.5" font-family="Helvetica,sans-Serif" font-size="10.00">i2c_slave_handle_t</text>
</g>
<!-- Node2 -->
<g id="node2" class="node"><title>Node2</title>
<g id="a_node2"><a xlink:href="group__i2c.html#structi2c__slave__transfer__t" target="_top" xlink:title="I2C slave transfer structure. ">
<polygon fill="white" stroke="black" points="0,-78.5 0,-97.5 102,-97.5 102,-78.5 0,-78.5"/>
<text text-anchor="middle" x="51" y="-85.5" font-family="Helvetica,sans-Serif" font-size="10.00">i2c_slave_transfer_t</text>
</a>
</g>
</g>
<!-- Node2&#45;&gt;Node1 -->
<g id="edge1" class="edge"><title>Node2&#45;&gt;Node1</title>
<path fill="none" stroke="#9a32cd" stroke-dasharray="5,2" d="M51,-68.2239C51,-52.6974 51,-31.3582 51,-19.6165"/>
<polygon fill="#9a32cd" stroke="#9a32cd" points="47.5001,-68.2818 51,-78.2818 54.5001,-68.2819 47.5001,-68.2818"/>
<text text-anchor="middle" x="69.5" y="-52" font-family="Helvetica,sans-Serif" font-size="10.00"> transfer</text>
<text text-anchor="middle" x="69.5" y="-41" font-family="Helvetica,sans-Serif" font-size="10.00">callback</text>
</g>
</g>
</svg>
