<?xml version="1.0" encoding="UTF-8" standalone="no"?>
<!DOCTYPE svg PUBLIC "-//W3C//DTD SVG 1.1//EN"
 "http://www.w3.org/Graphics/SVG/1.1/DTD/svg11.dtd">
<!-- Generated by graphviz version 2.38.0 (20140413.2041)
 -->
<!-- Title: property_store_t Pages: 1 -->
<svg width="396pt" height="219pt"
 viewBox="0.00 0.00 396.00 219.00" xmlns="http://www.w3.org/2000/svg" xmlns:xlink="http://www.w3.org/1999/xlink">
<g id="graph0" class="graph" transform="scale(1 1) rotate(0) translate(4 215)">
<title>property_store_t</title>
<polygon fill="white" stroke="none" points="-4,4 -4,-215 392,-215 392,4 -4,4"/>
<!-- Node1 -->
<g id="node1" class="node"><title>Node1</title>
<polygon fill="#bfbfbf" stroke="black" points="301,-106 301,-125 388,-125 388,-106 301,-106"/>
<text text-anchor="middle" x="344.5" y="-113" font-family="Helvetica,sans-Serif" font-size="10.00">property_store_t</text>
</g>
<!-- Node2 -->
<g id="node2" class="node"><title>Node2</title>
<g id="a_node2"><a xlink:href="group__property.html#structbootloader__configuration__data__t" target="_top" xlink:title="Format of bootloader configuration data on Flash. ">
<polygon fill="white" stroke="black" points="5,-180.5 5,-210.5 127,-210.5 127,-180.5 5,-180.5"/>
<text text-anchor="start" x="13" y="-198.5" font-family="Helvetica,sans-Serif" font-size="10.00">bootloader_configuration</text>
<text text-anchor="middle" x="66" y="-187.5" font-family="Helvetica,sans-Serif" font-size="10.00">_data_t</text>
</a>
</g>
</g>
<!-- Node2&#45;&gt;Node1 -->
<g id="edge1" class="edge"><title>Node2&#45;&gt;Node1</title>
<path fill="none" stroke="#9a32cd" stroke-dasharray="5,2" d="M137.506,-192.561C180.895,-188.716 236.841,-180.02 283,-160.5 303.014,-152.036 322.511,-135.628 333.746,-125.137"/>
<polygon fill="#9a32cd" stroke="#9a32cd" points="137.006,-189.09 127.325,-193.395 137.577,-196.067 137.006,-189.09"/>
<text text-anchor="middle" x="216.5" y="-193.5" font-family="Helvetica,sans-Serif" font-size="10.00"> configurationData</text>
</g>
<!-- Node3 -->
<g id="node3" class="node"><title>Node3</title>
<g id="a_node3"><a xlink:href="group__property.html#structreserved__region__t" target="_top" xlink:title="Structure of a reserved regions entry. ">
<polygon fill="white" stroke="black" points="20,-142 20,-161 112,-161 112,-142 20,-142"/>
<text text-anchor="middle" x="66" y="-149" font-family="Helvetica,sans-Serif" font-size="10.00">reserved_region_t</text>
</a>
</g>
</g>
<!-- Node3&#45;&gt;Node1 -->
<g id="edge2" class="edge"><title>Node3&#45;&gt;Node1</title>
<path fill="none" stroke="#9a32cd" stroke-dasharray="5,2" d="M122.468,-147.782C166.251,-144.383 228.78,-138.498 283,-129.5 290.339,-128.282 298.116,-126.704 305.563,-125.048"/>
<polygon fill="#9a32cd" stroke="#9a32cd" points="122.02,-144.306 112.313,-148.552 122.55,-151.286 122.02,-144.306"/>
<text text-anchor="middle" x="216.5" y="-148.5" font-family="Helvetica,sans-Serif" font-size="10.00"> reservedRegions</text>
</g>
<!-- Node4 -->
<g id="node4" class="node"><title>Node4</title>
<g id="a_node4"><a xlink:href="group__property.html#structunique__device__id__t" target="_top" xlink:title="Structure of a unique device id. ">
<polygon fill="white" stroke="black" points="17,-104 17,-123 115,-123 115,-104 17,-104"/>
<text text-anchor="middle" x="66" y="-111" font-family="Helvetica,sans-Serif" font-size="10.00">unique_device_id_t</text>
</a>
</g>
</g>
<!-- Node4&#45;&gt;Node1 -->
<g id="edge3" class="edge"><title>Node4&#45;&gt;Node1</title>
<path fill="none" stroke="#9a32cd" stroke-dasharray="5,2" d="M125.341,-113.922C177.873,-114.302 253.844,-114.851 300.874,-115.192"/>
<polygon fill="#9a32cd" stroke="#9a32cd" points="125.188,-110.421 115.163,-113.848 125.137,-117.421 125.188,-110.421"/>
<text text-anchor="middle" x="216.5" y="-118.5" font-family="Helvetica,sans-Serif" font-size="10.00"> UniqueDeviceId</text>
</g>
<!-- Node5 -->
<g id="node5" class="node"><title>Node5</title>
<g id="a_node5"><a xlink:href="group__bl__core.html#unionstandard__version__t" target="_top" xlink:title="Structure of version property. ">
<polygon fill="white" stroke="black" points="17,-50 17,-69 115,-69 115,-50 17,-50"/>
<text text-anchor="middle" x="66" y="-57" font-family="Helvetica,sans-Serif" font-size="10.00">standard_version_t</text>
</a>
</g>
</g>
<!-- Node5&#45;&gt;Node1 -->
<g id="edge4" class="edge"><title>Node5&#45;&gt;Node1</title>
<path fill="none" stroke="#9a32cd" stroke-dasharray="5,2" d="M125.097,-56.9759C169.453,-56.7878 231.504,-60.3213 283,-77.5 301.59,-83.7016 320.279,-96.7231 331.863,-105.784"/>
<polygon fill="#9a32cd" stroke="#9a32cd" points="125.029,-53.4763 115.067,-57.0829 125.104,-60.4759 125.029,-53.4763"/>
<text text-anchor="middle" x="216.5" y="-102.5" font-family="Helvetica,sans-Serif" font-size="10.00"> targetVersion</text>
<text text-anchor="middle" x="216.5" y="-91.5" font-family="Helvetica,sans-Serif" font-size="10.00">serialProtocolVersion</text>
<text text-anchor="middle" x="216.5" y="-80.5" font-family="Helvetica,sans-Serif" font-size="10.00">bootloaderVersion</text>
</g>
<!-- Node6 -->
<g id="node6" class="node"><title>Node6</title>
<g id="a_node6"><a xlink:href="group__property.html#structexternal__memory__property__store__t" target="_top" xlink:title="Exernal Memory attribute store. ">
<polygon fill="white" stroke="black" points="0,-0.5 0,-30.5 132,-30.5 132,-0.5 0,-0.5"/>
<text text-anchor="start" x="8" y="-18.5" font-family="Helvetica,sans-Serif" font-size="10.00">external_memory_property</text>
<text text-anchor="middle" x="66" y="-7.5" font-family="Helvetica,sans-Serif" font-size="10.00">_store_t</text>
</a>
</g>
</g>
<!-- Node6&#45;&gt;Node1 -->
<g id="edge5" class="edge"><title>Node6&#45;&gt;Node1</title>
<path fill="none" stroke="#9a32cd" stroke-dasharray="5,2" d="M142.494,-11.5423C186.007,-12.4208 240.358,-19.1182 283,-42.5 310.134,-57.3783 330.043,-89.7735 338.705,-105.934"/>
<polygon fill="#9a32cd" stroke="#9a32cd" points="142.285,-8.04009 132.249,-11.4376 142.213,-15.0397 142.285,-8.04009"/>
<text text-anchor="middle" x="216.5" y="-45.5" font-family="Helvetica,sans-Serif" font-size="10.00"> externalMemoryPropertyStore</text>
</g>
</g>
</svg>
