<?xml version="1.0" encoding="UTF-8" standalone="no"?>
<!DOCTYPE svg PUBLIC "-//W3C//DTD SVG 1.1//EN"
 "http://www.w3.org/Graphics/SVG/1.1/DTD/svg11.dtd">
<!-- Generated by graphviz version 2.38.0 (20140413.2041)
 -->
<!-- Title: bootloader_context_t Pages: 1 -->
<svg width="937pt" height="348pt"
 viewBox="0.00 0.00 937.00 348.00" xmlns="http://www.w3.org/2000/svg" xmlns:xlink="http://www.w3.org/1999/xlink">
<g id="graph0" class="graph" transform="scale(1 1) rotate(0) translate(4 344)">
<title>bootloader_context_t</title>
<polygon fill="white" stroke="none" points="-4,4 -4,-344 933,-344 933,4 -4,4"/>
<!-- Node1 -->
<g id="node1" class="node"><title>Node1</title>
<polygon fill="#bfbfbf" stroke="black" points="822,-135.5 822,-154.5 929,-154.5 929,-135.5 822,-135.5"/>
<text text-anchor="middle" x="875.5" y="-142.5" font-family="Helvetica,sans-Serif" font-size="10.00">bootloader_context_t</text>
</g>
<!-- Node2 -->
<g id="node2" class="node"><title>Node2</title>
<g id="a_node2"><a xlink:href="group__memif.html#structmemory__map__entry__t" target="_top" xlink:title="Structure of a memory map entry. ">
<polygon fill="white" stroke="black" points="592,-232.5 592,-251.5 703,-251.5 703,-232.5 592,-232.5"/>
<text text-anchor="middle" x="647.5" y="-239.5" font-family="Helvetica,sans-Serif" font-size="10.00">memory_map_entry_t</text>
</a>
</g>
</g>
<!-- Node2&#45;&gt;Node1 -->
<g id="edge1" class="edge"><title>Node2&#45;&gt;Node1</title>
<path fill="none" stroke="#9a32cd" stroke-dasharray="5,2" d="M713.065,-236.042C742.064,-231.455 775.982,-223.342 804,-209 830.781,-195.291 855.116,-168.727 866.947,-154.515"/>
<polygon fill="#9a32cd" stroke="#9a32cd" points="712.412,-232.601 703.03,-237.522 713.434,-239.526 712.412,-232.601"/>
<text text-anchor="middle" x="762.5" y="-238" font-family="Helvetica,sans-Serif" font-size="10.00"> memoryMap</text>
</g>
<!-- Node3 -->
<g id="node3" class="node"><title>Node3</title>
<g id="a_node3"><a xlink:href="group__memif.html#structmemory__region__interface__t" target="_top" xlink:title="Interface to memory operations for one region of memory. ">
<polygon fill="white" stroke="black" points="304,-232.5 304,-251.5 438,-251.5 438,-232.5 304,-232.5"/>
<text text-anchor="middle" x="371" y="-239.5" font-family="Helvetica,sans-Serif" font-size="10.00">memory_region_interface_t</text>
</a>
</g>
</g>
<!-- Node3&#45;&gt;Node2 -->
<g id="edge2" class="edge"><title>Node3&#45;&gt;Node2</title>
<path fill="none" stroke="#9a32cd" stroke-dasharray="5,2" d="M448.22,-242C493.73,-242 550.482,-242 591.595,-242"/>
<polygon fill="#9a32cd" stroke="#9a32cd" points="448.099,-238.5 438.099,-242 448.099,-245.5 448.099,-238.5"/>
<text text-anchor="middle" x="516.5" y="-245" font-family="Helvetica,sans-Serif" font-size="10.00"> memoryInterface</text>
</g>
<!-- Node4 -->
<g id="node4" class="node"><title>Node4</title>
<g id="a_node4"><a xlink:href="group__context.html#structaes__driver__interface__t" target="_top" xlink:title="Interface for AES 128 functions. ">
<polygon fill="white" stroke="black" points="592.5,-194.5 592.5,-213.5 702.5,-213.5 702.5,-194.5 592.5,-194.5"/>
<text text-anchor="middle" x="647.5" y="-201.5" font-family="Helvetica,sans-Serif" font-size="10.00">aes_driver_interface_t</text>
</a>
</g>
</g>
<!-- Node4&#45;&gt;Node1 -->
<g id="edge3" class="edge"><title>Node4&#45;&gt;Node1</title>
<path fill="none" stroke="#9a32cd" stroke-dasharray="5,2" d="M712.976,-195.209C741.248,-190.529 774.616,-183.876 804,-175 821.827,-169.615 841.24,-161.148 855.173,-154.58"/>
<polygon fill="#9a32cd" stroke="#9a32cd" points="712.125,-191.801 702.807,-196.844 713.236,-198.712 712.125,-191.801"/>
<text text-anchor="middle" x="762.5" y="-197" font-family="Helvetica,sans-Serif" font-size="10.00"> aesInterface</text>
</g>
<!-- Node5 -->
<g id="node5" class="node"><title>Node5</title>
<g id="a_node5"><a xlink:href="group__property.html#structproperty__interface__t" target="_top" xlink:title="Interface to property operations. ">
<polygon fill="white" stroke="black" points="596.5,-156.5 596.5,-175.5 698.5,-175.5 698.5,-156.5 596.5,-156.5"/>
<text text-anchor="middle" x="647.5" y="-163.5" font-family="Helvetica,sans-Serif" font-size="10.00">property_interface_t</text>
</a>
</g>
</g>
<!-- Node5&#45;&gt;Node1 -->
<g id="edge4" class="edge"><title>Node5&#45;&gt;Node1</title>
<path fill="none" stroke="#9a32cd" stroke-dasharray="5,2" d="M708.799,-160.397C743.976,-157.128 787.932,-153.044 821.731,-149.903"/>
<polygon fill="#9a32cd" stroke="#9a32cd" points="708.29,-156.929 698.657,-161.339 708.938,-163.899 708.29,-156.929"/>
<text text-anchor="middle" x="762.5" y="-163" font-family="Helvetica,sans-Serif" font-size="10.00"> propertyInterface</text>
</g>
<!-- Node6 -->
<g id="node6" class="node"><title>Node6</title>
<g id="a_node6"><a xlink:href="group__property.html#structproperty__store__t" target="_top" xlink:title="Structure of property store. ">
<polygon fill="white" stroke="black" points="327.5,-193.5 327.5,-212.5 414.5,-212.5 414.5,-193.5 327.5,-193.5"/>
<text text-anchor="middle" x="371" y="-200.5" font-family="Helvetica,sans-Serif" font-size="10.00">property_store_t</text>
</a>
</g>
</g>
<!-- Node6&#45;&gt;Node5 -->
<g id="edge5" class="edge"><title>Node6&#45;&gt;Node5</title>
<path fill="none" stroke="#9a32cd" stroke-dasharray="5,2" d="M424.769,-195.887C474.26,-189.216 547.735,-179.313 596.356,-172.759"/>
<polygon fill="#9a32cd" stroke="#9a32cd" points="424.032,-192.455 414.589,-197.259 424.967,-199.392 424.032,-192.455"/>
<text text-anchor="middle" x="516.5" y="-195" font-family="Helvetica,sans-Serif" font-size="10.00"> store</text>
</g>
<!-- Node7 -->
<g id="node7" class="node"><title>Node7</title>
<g id="a_node7"><a xlink:href="group__property.html#structbootloader__configuration__data__t" target="_top" xlink:title="Format of bootloader configuration data on Flash. ">
<polygon fill="white" stroke="black" points="5,-172 5,-202 127,-202 127,-172 5,-172"/>
<text text-anchor="start" x="13" y="-190" font-family="Helvetica,sans-Serif" font-size="10.00">bootloader_configuration</text>
<text text-anchor="middle" x="66" y="-179" font-family="Helvetica,sans-Serif" font-size="10.00">_data_t</text>
</a>
</g>
</g>
<!-- Node7&#45;&gt;Node6 -->
<g id="edge6" class="edge"><title>Node7&#45;&gt;Node6</title>
<path fill="none" stroke="#9a32cd" stroke-dasharray="5,2" d="M137.557,-190.726C196.368,-193.831 278.217,-198.153 327.458,-200.754"/>
<polygon fill="#9a32cd" stroke="#9a32cd" points="137.396,-187.212 127.225,-190.18 137.027,-194.203 137.396,-187.212"/>
<text text-anchor="middle" x="216.5" y="-202" font-family="Helvetica,sans-Serif" font-size="10.00"> configurationData</text>
</g>
<!-- Node8 -->
<g id="node8" class="node"><title>Node8</title>
<g id="a_node8"><a xlink:href="group__property.html#structreserved__region__t" target="_top" xlink:title="Structure of a reserved regions entry. ">
<polygon fill="white" stroke="black" points="20,-308.5 20,-327.5 112,-327.5 112,-308.5 20,-308.5"/>
<text text-anchor="middle" x="66" y="-315.5" font-family="Helvetica,sans-Serif" font-size="10.00">reserved_region_t</text>
</a>
</g>
</g>
<!-- Node8&#45;&gt;Node6 -->
<g id="edge7" class="edge"><title>Node8&#45;&gt;Node6</title>
<path fill="none" stroke="#9a32cd" stroke-dasharray="5,2" d="M122.078,-327.495C170.3,-332.488 239.306,-331.105 283,-293 307.21,-271.887 278.634,-246.058 301,-223 308.034,-215.749 317.525,-211.084 327.213,-208.094"/>
<polygon fill="#9a32cd" stroke="#9a32cd" points="122.456,-324.016 112.12,-326.344 121.652,-330.969 122.456,-324.016"/>
<text text-anchor="middle" x="216.5" y="-332" font-family="Helvetica,sans-Serif" font-size="10.00"> reservedRegions</text>
</g>
<!-- Node9 -->
<g id="node9" class="node"><title>Node9</title>
<g id="a_node9"><a xlink:href="group__property.html#structunique__device__id__t" target="_top" xlink:title="Structure of a unique device id. ">
<polygon fill="white" stroke="black" points="17,-270.5 17,-289.5 115,-289.5 115,-270.5 17,-270.5"/>
<text text-anchor="middle" x="66" y="-277.5" font-family="Helvetica,sans-Serif" font-size="10.00">unique_device_id_t</text>
</a>
</g>
</g>
<!-- Node9&#45;&gt;Node6 -->
<g id="edge8" class="edge"><title>Node9&#45;&gt;Node6</title>
<path fill="none" stroke="#9a32cd" stroke-dasharray="5,2" d="M125.027,-280.249C170.57,-278.128 234.213,-269.895 283,-243 293.473,-237.227 290.868,-229.353 301,-223 308.925,-218.031 318.129,-214.257 327.182,-211.404"/>
<polygon fill="#9a32cd" stroke="#9a32cd" points="124.878,-276.752 115.018,-280.631 125.144,-283.747 124.878,-276.752"/>
<text text-anchor="middle" x="216.5" y="-281" font-family="Helvetica,sans-Serif" font-size="10.00"> UniqueDeviceId</text>
</g>
<!-- Node10 -->
<g id="node10" class="node"><title>Node10</title>
<g id="a_node10"><a xlink:href="group__bl__core.html#unionstandard__version__t" target="_top" xlink:title="Structure of version property. ">
<polygon fill="white" stroke="black" points="17,-117.5 17,-136.5 115,-136.5 115,-117.5 17,-117.5"/>
<text text-anchor="middle" x="66" y="-124.5" font-family="Helvetica,sans-Serif" font-size="10.00">standard_version_t</text>
</a>
</g>
</g>
<!-- Node10&#45;&gt;Node6 -->
<g id="edge9" class="edge"><title>Node10&#45;&gt;Node6</title>
<path fill="none" stroke="#9a32cd" stroke-dasharray="5,2" d="M125.327,-128.667C169.551,-131.328 231.326,-138.074 283,-155 310.869,-164.129 340.09,-182.3 356.577,-193.479"/>
<polygon fill="#9a32cd" stroke="#9a32cd" points="125.503,-125.171 115.325,-128.116 125.118,-132.161 125.503,-125.171"/>
<text text-anchor="middle" x="216.5" y="-180" font-family="Helvetica,sans-Serif" font-size="10.00"> targetVersion</text>
<text text-anchor="middle" x="216.5" y="-169" font-family="Helvetica,sans-Serif" font-size="10.00">serialProtocolVersion</text>
<text text-anchor="middle" x="216.5" y="-158" font-family="Helvetica,sans-Serif" font-size="10.00">bootloaderVersion</text>
</g>
<!-- Node13 -->
<g id="node13" class="node"><title>Node13</title>
<g id="a_node13"><a xlink:href="group__context.html#structflash__driver__interface__t" target="_top" xlink:title="Interface for the flash driver. ">
<polygon fill="white" stroke="black" points="459,-109.5 459,-128.5 574,-128.5 574,-109.5 459,-109.5"/>
<text text-anchor="middle" x="516.5" y="-116.5" font-family="Helvetica,sans-Serif" font-size="10.00">flash_driver_interface_t</text>
</a>
</g>
</g>
<!-- Node10&#45;&gt;Node13 -->
<g id="edge13" class="edge"><title>Node10&#45;&gt;Node13</title>
<path fill="none" stroke="#9a32cd" stroke-dasharray="5,2" d="M125.196,-118.302C133.504,-117.348 141.957,-116.531 150,-116 259.068,-108.804 386.835,-112.65 458.76,-115.936"/>
<polygon fill="#9a32cd" stroke="#9a32cd" points="124.674,-114.839 115.171,-119.524 125.521,-121.788 124.674,-114.839"/>
<text text-anchor="middle" x="216.5" y="-119" font-family="Helvetica,sans-Serif" font-size="10.00"> version</text>
</g>
<!-- Node11 -->
<g id="node11" class="node"><title>Node11</title>
<g id="a_node11"><a xlink:href="group__property.html#structexternal__memory__property__store__t" target="_top" xlink:title="Exernal Memory attribute store. ">
<polygon fill="white" stroke="black" points="0,-221 0,-251 132,-251 132,-221 0,-221"/>
<text text-anchor="start" x="8" y="-239" font-family="Helvetica,sans-Serif" font-size="10.00">external_memory_property</text>
<text text-anchor="middle" x="66" y="-228" font-family="Helvetica,sans-Serif" font-size="10.00">_store_t</text>
</a>
</g>
</g>
<!-- Node11&#45;&gt;Node6 -->
<g id="edge10" class="edge"><title>Node11&#45;&gt;Node6</title>
<path fill="none" stroke="#9a32cd" stroke-dasharray="5,2" d="M142.304,-228.783C183.829,-224.689 236.292,-219.331 283,-214 297.37,-212.36 313.055,-210.422 327.101,-208.634"/>
<polygon fill="#9a32cd" stroke="#9a32cd" points="141.874,-225.308 132.264,-229.769 142.559,-232.274 141.874,-225.308"/>
<text text-anchor="middle" x="216.5" y="-231" font-family="Helvetica,sans-Serif" font-size="10.00"> externalMemoryPropertyStore</text>
</g>
<!-- Node12 -->
<g id="node12" class="node"><title>Node12</title>
<g id="a_node12"><a xlink:href="group__memif.html#structmemory__interface__t" target="_top" xlink:title="Interface to memory operations. ">
<polygon fill="white" stroke="black" points="596.5,-71.5 596.5,-90.5 698.5,-90.5 698.5,-71.5 596.5,-71.5"/>
<text text-anchor="middle" x="647.5" y="-78.5" font-family="Helvetica,sans-Serif" font-size="10.00">memory_interface_t</text>
</a>
</g>
</g>
<!-- Node12&#45;&gt;Node1 -->
<g id="edge11" class="edge"><title>Node12&#45;&gt;Node1</title>
<path fill="none" stroke="#9a32cd" stroke-dasharray="5,2" d="M708.875,-83.3521C738.254,-85.9424 773.685,-91.2438 804,-102 826.158,-109.862 848.86,-125.298 862.314,-135.377"/>
<polygon fill="#9a32cd" stroke="#9a32cd" points="709,-79.8511 698.754,-82.5445 708.444,-86.8289 709,-79.8511"/>
<text text-anchor="middle" x="762.5" y="-105" font-family="Helvetica,sans-Serif" font-size="10.00"> memoryInterface</text>
</g>
<!-- Node13&#45;&gt;Node1 -->
<g id="edge12" class="edge"><title>Node13&#45;&gt;Node1</title>
<path fill="none" stroke="#9a32cd" stroke-dasharray="5,2" d="M584.361,-123.869C653.166,-128.88 758.944,-136.584 821.976,-141.175"/>
<polygon fill="#9a32cd" stroke="#9a32cd" points="584.296,-120.355 574.068,-123.12 583.787,-127.337 584.296,-120.355"/>
<text text-anchor="middle" x="647.5" y="-135" font-family="Helvetica,sans-Serif" font-size="10.00"> flashDriverInterface</text>
</g>
<!-- Node14 -->
<g id="node14" class="node"><title>Node14</title>
<g id="a_node14"><a xlink:href="group__command.html#structcommand__interface__t" target="_top" xlink:title="Interface to command processor operations. ">
<polygon fill="white" stroke="black" points="592.5,-33.5 592.5,-52.5 702.5,-52.5 702.5,-33.5 592.5,-33.5"/>
<text text-anchor="middle" x="647.5" y="-40.5" font-family="Helvetica,sans-Serif" font-size="10.00">command_interface_t</text>
</a>
</g>
</g>
<!-- Node14&#45;&gt;Node1 -->
<g id="edge14" class="edge"><title>Node14&#45;&gt;Node1</title>
<path fill="none" stroke="#9a32cd" stroke-dasharray="5,2" d="M712.847,-44.9536C742.093,-48.0961 776.271,-55.0628 804,-70 833.578,-85.9332 857.734,-118.913 868.481,-135.309"/>
<polygon fill="#9a32cd" stroke="#9a32cd" points="713.013,-41.4537 702.727,-43.9948 712.352,-48.4225 713.013,-41.4537"/>
<text text-anchor="middle" x="762.5" y="-73" font-family="Helvetica,sans-Serif" font-size="10.00"> commandInterface</text>
</g>
<!-- Node15 -->
<g id="node15" class="node"><title>Node15</title>
<g id="a_node15"><a xlink:href="group__command.html#structcommand__processor__data__t" target="_top" xlink:title="Command processor data format. ">
<polygon fill="white" stroke="black" points="301,-14.5 301,-33.5 441,-33.5 441,-14.5 301,-14.5"/>
<text text-anchor="middle" x="371" y="-21.5" font-family="Helvetica,sans-Serif" font-size="10.00">command_processor_data_t</text>
</a>
</g>
</g>
<!-- Node15&#45;&gt;Node14 -->
<g id="edge15" class="edge"><title>Node15&#45;&gt;Node14</title>
<path fill="none" stroke="#9a32cd" stroke-dasharray="5,2" d="M451.35,-29.4923C496.611,-32.6252 552.159,-36.47 592.401,-39.2554"/>
<polygon fill="#9a32cd" stroke="#9a32cd" points="451.486,-25.9935 441.268,-28.7945 451.002,-32.9768 451.486,-25.9935"/>
<text text-anchor="middle" x="516.5" y="-41" font-family="Helvetica,sans-Serif" font-size="10.00"> stateData</text>
</g>
<!-- Node16 -->
<g id="node16" class="node"><title>Node16</title>
<g id="a_node16"><a xlink:href="group__command.html#structcommand__handler__entry__t" target="_top" xlink:title="Format of command handler entry. ">
<polygon fill="white" stroke="black" points="0.5,-49.5 0.5,-68.5 131.5,-68.5 131.5,-49.5 0.5,-49.5"/>
<text text-anchor="middle" x="66" y="-56.5" font-family="Helvetica,sans-Serif" font-size="10.00">command_handler_entry_t</text>
</a>
</g>
</g>
<!-- Node16&#45;&gt;Node14 -->
<g id="edge18" class="edge"><title>Node16&#45;&gt;Node14</title>
<path fill="none" stroke="#9a32cd" stroke-dasharray="5,2" d="M141.74,-61.0344C240.748,-63.0615 420.755,-64.4302 574,-53 579.955,-52.5558 586.168,-51.9377 592.342,-51.2244"/>
<polygon fill="#9a32cd" stroke="#9a32cd" points="141.61,-57.5309 131.538,-60.8172 141.461,-64.5293 141.61,-57.5309"/>
<text text-anchor="middle" x="371" y="-66" font-family="Helvetica,sans-Serif" font-size="10.00"> handlerTable</text>
</g>
<!-- Node16&#45;&gt;Node15 -->
<g id="edge16" class="edge"><title>Node16&#45;&gt;Node15</title>
<path fill="none" stroke="#9a32cd" stroke-dasharray="5,2" d="M130.386,-47.8261C137,-46.8047 143.63,-45.8402 150,-45 200.401,-38.3525 257.564,-32.9606 300.988,-29.3053"/>
<polygon fill="#9a32cd" stroke="#9a32cd" points="129.375,-44.4428 120.048,-49.4683 130.473,-51.3561 129.375,-44.4428"/>
<text text-anchor="middle" x="216.5" y="-48" font-family="Helvetica,sans-Serif" font-size="10.00"> handlerEntry</text>
</g>
<!-- Node17 -->
<g id="node17" class="node"><title>Node17</title>
<g id="a_node17"><a xlink:href="structcommand__processor__data__t_1_1_data_phase.html" target="_top" xlink:title="DataPhase">
<polygon fill="white" stroke="black" points="33.5,-0.5 33.5,-19.5 98.5,-19.5 98.5,-0.5 33.5,-0.5"/>
<text text-anchor="middle" x="66" y="-7.5" font-family="Helvetica,sans-Serif" font-size="10.00">DataPhase</text>
</a>
</g>
</g>
<!-- Node17&#45;&gt;Node15 -->
<g id="edge17" class="edge"><title>Node17&#45;&gt;Node15</title>
<path fill="none" stroke="#9a32cd" stroke-dasharray="5,2" d="M108.747,-8.42047C152.306,-7.1875 222.55,-6.36785 283,-11 293.202,-11.7818 304.023,-13.0448 314.441,-14.4836"/>
<polygon fill="#9a32cd" stroke="#9a32cd" points="108.426,-4.92853 98.5367,-8.73106 108.638,-11.9253 108.426,-4.92853"/>
<text text-anchor="middle" x="216.5" y="-14" font-family="Helvetica,sans-Serif" font-size="10.00"> dataPhase</text>
</g>
</g>
</svg>
