<?xml version="1.0" encoding="UTF-8" standalone="no"?>
<!DOCTYPE svg PUBLIC "-//W3C//DTD SVG 1.1//EN"
 "http://www.w3.org/Graphics/SVG/1.1/DTD/svg11.dtd">
<!-- Generated by graphviz version 2.38.0 (20140413.2041)
 -->
<!-- Title: peripheral_descriptor_t Pages: 1 -->
<svg width="372pt" height="116pt"
 viewBox="0.00 0.00 372.00 116.00" xmlns="http://www.w3.org/2000/svg" xmlns:xlink="http://www.w3.org/1999/xlink">
<g id="graph0" class="graph" transform="scale(1 1) rotate(0) translate(4 112)">
<title>peripheral_descriptor_t</title>
<polygon fill="white" stroke="none" points="-4,4 -4,-112 368,-112 368,4 -4,4"/>
<!-- Node1 -->
<g id="node1" class="node"><title>Node1</title>
<polygon fill="#bfbfbf" stroke="black" points="249,-44.5 249,-63.5 364,-63.5 364,-44.5 249,-44.5"/>
<text text-anchor="middle" x="306.5" y="-51.5" font-family="Helvetica,sans-Serif" font-size="10.00">peripheral_descriptor_t</text>
</g>
<!-- Node2 -->
<g id="node2" class="node"><title>Node2</title>
<g id="a_node2"><a xlink:href="group__peripheral.html#structperipheral__byte__inteface__t" target="_top" xlink:title="Peripheral abstract byte interface. ">
<polygon fill="white" stroke="black" points="6.5,-88.5 6.5,-107.5 136.5,-107.5 136.5,-88.5 6.5,-88.5"/>
<text text-anchor="middle" x="71.5" y="-95.5" font-family="Helvetica,sans-Serif" font-size="10.00">peripheral_byte_inteface_t</text>
</a>
</g>
</g>
<!-- Node2&#45;&gt;Node1 -->
<g id="edge1" class="edge"><title>Node2&#45;&gt;Node1</title>
<path fill="none" stroke="#9a32cd" stroke-dasharray="5,2" d="M136.094,-86.6301C165.067,-81.3819 199.791,-74.9965 231,-69 239.94,-67.2823 249.473,-65.4008 258.63,-63.5686"/>
<polygon fill="#9a32cd" stroke="#9a32cd" points="135.319,-83.2134 126.101,-88.4366 136.565,-90.1018 135.319,-83.2134"/>
<text text-anchor="middle" x="196" y="-85" font-family="Helvetica,sans-Serif" font-size="10.00"> byteInterface</text>
</g>
<!-- Node3 -->
<g id="node3" class="node"><title>Node3</title>
<g id="a_node3"><a xlink:href="group__peripheral.html#structperipheral__control__interface__t" target="_top" xlink:title="Peripheral control interface. ">
<polygon fill="white" stroke="black" points="25,-39 25,-69 118,-69 118,-39 25,-39"/>
<text text-anchor="start" x="33" y="-57" font-family="Helvetica,sans-Serif" font-size="10.00">peripheral_control</text>
<text text-anchor="middle" x="71.5" y="-46" font-family="Helvetica,sans-Serif" font-size="10.00">_interface_t</text>
</a>
</g>
</g>
<!-- Node3&#45;&gt;Node1 -->
<g id="edge2" class="edge"><title>Node3&#45;&gt;Node1</title>
<path fill="none" stroke="#9a32cd" stroke-dasharray="5,2" d="M128.687,-54C165.049,-54 212.237,-54 248.717,-54"/>
<polygon fill="#9a32cd" stroke="#9a32cd" points="128.255,-50.5001 118.255,-54 128.255,-57.5001 128.255,-50.5001"/>
<text text-anchor="middle" x="196" y="-57" font-family="Helvetica,sans-Serif" font-size="10.00"> controlInterface</text>
</g>
<!-- Node4 -->
<g id="node4" class="node"><title>Node4</title>
<g id="a_node4"><a xlink:href="group__peripheral.html#structperipheral__packet__interface__t" target="_top" xlink:title="Peripheral Packet Interface. ">
<polygon fill="white" stroke="black" points="0,-0.5 0,-19.5 143,-19.5 143,-0.5 0,-0.5"/>
<text text-anchor="middle" x="71.5" y="-7.5" font-family="Helvetica,sans-Serif" font-size="10.00">peripheral_packet_interface_t</text>
</a>
</g>
</g>
<!-- Node4&#45;&gt;Node1 -->
<g id="edge3" class="edge"><title>Node4&#45;&gt;Node1</title>
<path fill="none" stroke="#9a32cd" stroke-dasharray="5,2" d="M136.094,-21.3699C165.067,-26.6181 199.791,-33.0035 231,-39 239.94,-40.7177 249.473,-42.5992 258.63,-44.4314"/>
<polygon fill="#9a32cd" stroke="#9a32cd" points="136.565,-17.8982 126.101,-19.5634 135.319,-24.7866 136.565,-17.8982"/>
<text text-anchor="middle" x="196" y="-42" font-family="Helvetica,sans-Serif" font-size="10.00"> packetInterface</text>
</g>
</g>
</svg>
