<?xml version="1.0" encoding="UTF-8" standalone="no"?>
<!DOCTYPE svg PUBLIC "-//W3C//DTD SVG 1.1//EN"
 "http://www.w3.org/Graphics/SVG/1.1/DTD/svg11.dtd">
<!-- Generated by graphviz version 2.38.0 (20140413.2041)
 -->
<!-- Title: property_response_frame_packet_t Pages: 1 -->
<svg width="277pt" height="184pt"
 viewBox="0.00 0.00 276.50 184.00" xmlns="http://www.w3.org/2000/svg" xmlns:xlink="http://www.w3.org/1999/xlink">
<g id="graph0" class="graph" transform="scale(1 1) rotate(0) translate(4 180)">
<title>property_response_frame_packet_t</title>
<polygon fill="white" stroke="none" points="-4,4 -4,-180 272.5,-180 272.5,4 -4,4"/>
<!-- Node1 -->
<g id="node1" class="node"><title>Node1</title>
<polygon fill="#bfbfbf" stroke="black" points="67.5,-0.5 67.5,-30.5 193.5,-30.5 193.5,-0.5 67.5,-0.5"/>
<text text-anchor="start" x="75.5" y="-18.5" font-family="Helvetica,sans-Serif" font-size="10.00">property_response_frame</text>
<text text-anchor="middle" x="130.5" y="-7.5" font-family="Helvetica,sans-Serif" font-size="10.00">_packet_t</text>
</g>
<!-- Node2 -->
<g id="node2" class="node"><title>Node2</title>
<g id="a_node2"><a xlink:href="group__packet.html#structframing__data__packet__t" target="_top" xlink:title="Serial framing data packet. ">
<polygon fill="white" stroke="black" points="0,-84 0,-103 115,-103 115,-84 0,-84"/>
<text text-anchor="middle" x="57.5" y="-91" font-family="Helvetica,sans-Serif" font-size="10.00">framing_data_packet_t</text>
</a>
</g>
</g>
<!-- Node2&#45;&gt;Node1 -->
<g id="edge1" class="edge"><title>Node2&#45;&gt;Node1</title>
<path fill="none" stroke="#9a32cd" stroke-dasharray="5,2" d="M70.675,-75.9895C77.5307,-67.667 86.1962,-57.5526 94.5,-49 100.6,-42.7172 107.685,-36.1754 113.948,-30.6219"/>
<polygon fill="#9a32cd" stroke="#9a32cd" points="67.8608,-73.903 64.2768,-83.8732 73.2961,-78.3141 67.8608,-73.903"/>
<text text-anchor="middle" x="124" y="-52" font-family="Helvetica,sans-Serif" font-size="10.00"> framing_data</text>
</g>
<!-- Node3 -->
<g id="node3" class="node"><title>Node3</title>
<g id="a_node3"><a xlink:href="group__packet.html#structframing__header__t" target="_top" xlink:title="Serial framing header. ">
<polygon fill="white" stroke="black" points="12,-156.5 12,-175.5 103,-175.5 103,-156.5 12,-156.5"/>
<text text-anchor="middle" x="57.5" y="-163.5" font-family="Helvetica,sans-Serif" font-size="10.00">framing_header_t</text>
</a>
</g>
</g>
<!-- Node3&#45;&gt;Node2 -->
<g id="edge2" class="edge"><title>Node3&#45;&gt;Node2</title>
<path fill="none" stroke="#9a32cd" stroke-dasharray="5,2" d="M57.5,-145.942C57.5,-132.03 57.5,-113.82 57.5,-103.215"/>
<polygon fill="#9a32cd" stroke="#9a32cd" points="54.0001,-146.355 57.5,-156.355 61.0001,-146.355 54.0001,-146.355"/>
<text text-anchor="middle" x="74" y="-130" font-family="Helvetica,sans-Serif" font-size="10.00"> header</text>
</g>
<!-- Node4 -->
<g id="node4" class="node"><title>Node4</title>
<g id="a_node4"><a xlink:href="group__packet.html#structget__property__response__packet__t" target="_top" xlink:title="Get Property response packet format. ">
<polygon fill="white" stroke="black" points="133.5,-78.5 133.5,-108.5 249.5,-108.5 249.5,-78.5 133.5,-78.5"/>
<text text-anchor="start" x="141.5" y="-96.5" font-family="Helvetica,sans-Serif" font-size="10.00">get_property_response</text>
<text text-anchor="middle" x="191.5" y="-85.5" font-family="Helvetica,sans-Serif" font-size="10.00">_packet_t</text>
</a>
</g>
</g>
<!-- Node4&#45;&gt;Node1 -->
<g id="edge3" class="edge"><title>Node4&#45;&gt;Node1</title>
<path fill="none" stroke="#9a32cd" stroke-dasharray="5,2" d="M173.687,-70.3065C163.434,-57.5329 150.854,-41.8596 141.922,-30.7309"/>
<polygon fill="#9a32cd" stroke="#9a32cd" points="171.037,-72.5971 180.026,-78.205 176.496,-68.2155 171.037,-72.5971"/>
<text text-anchor="middle" x="205.5" y="-52" font-family="Helvetica,sans-Serif" font-size="10.00"> generic_response</text>
</g>
<!-- Node5 -->
<g id="node5" class="node"><title>Node5</title>
<g id="a_node5"><a xlink:href="group__packet.html#structcommand__packet__t" target="_top" xlink:title="Command packet format. ">
<polygon fill="white" stroke="black" points="140.5,-156.5 140.5,-175.5 242.5,-175.5 242.5,-156.5 140.5,-156.5"/>
<text text-anchor="middle" x="191.5" y="-163.5" font-family="Helvetica,sans-Serif" font-size="10.00">command_packet_t</text>
</a>
</g>
</g>
<!-- Node5&#45;&gt;Node4 -->
<g id="edge4" class="edge"><title>Node5&#45;&gt;Node4</title>
<path fill="none" stroke="#9a32cd" stroke-dasharray="5,2" d="M191.5,-146.236C191.5,-134.408 191.5,-119.383 191.5,-108.576"/>
<polygon fill="#9a32cd" stroke="#9a32cd" points="188,-146.355 191.5,-156.355 195,-146.355 188,-146.355"/>
<text text-anchor="middle" x="230" y="-130" font-family="Helvetica,sans-Serif" font-size="10.00"> commandPacket</text>
</g>
</g>
</svg>
