<?xml version="1.0" encoding="UTF-8" standalone="no"?>
<!DOCTYPE svg PUBLIC "-//W3C//DTD SVG 1.1//EN"
 "http://www.w3.org/Graphics/SVG/1.1/DTD/svg11.dtd">
<!-- Generated by graphviz version 2.38.0 (20140413.2041)
 -->
<!-- Title: SFLASH_CONFIGURATION_PARAM_PTR Pages: 1 -->
<svg width="147pt" height="106pt"
 viewBox="0.00 0.00 147.00 106.00" xmlns="http://www.w3.org/2000/svg" xmlns:xlink="http://www.w3.org/1999/xlink">
<g id="graph0" class="graph" transform="scale(1 1) rotate(0) translate(4 102)">
<title>SFLASH_CONFIGURATION_PARAM_PTR</title>
<polygon fill="white" stroke="none" points="-4,4 -4,-102 143,-102 143,4 -4,4"/>
<!-- Node1 -->
<g id="node1" class="node"><title>Node1</title>
<polygon fill="#bfbfbf" stroke="black" points="0,-0.5 0,-30.5 139,-30.5 139,-0.5 0,-0.5"/>
<text text-anchor="start" x="8" y="-18.5" font-family="Helvetica,sans-Serif" font-size="10.00">SFLASH_CONFIGURATION</text>
<text text-anchor="middle" x="69.5" y="-7.5" font-family="Helvetica,sans-Serif" font-size="10.00">_PARAM_PTR</text>
</g>
<!-- Node2 -->
<g id="node2" class="node"><title>Node2</title>
<g id="a_node2"><a xlink:href="group__bl__core.html#unionstandard__version__t" target="_top" xlink:title="Structure of version property. ">
<polygon fill="white" stroke="black" points="20.5,-78.5 20.5,-97.5 118.5,-97.5 118.5,-78.5 20.5,-78.5"/>
<text text-anchor="middle" x="69.5" y="-85.5" font-family="Helvetica,sans-Serif" font-size="10.00">standard_version_t</text>
</a>
</g>
</g>
<!-- Node2&#45;&gt;Node1 -->
<g id="edge1" class="edge"><title>Node2&#45;&gt;Node1</title>
<path fill="none" stroke="#9a32cd" stroke-dasharray="5,2" d="M69.5,-68.2362C69.5,-56.4079 69.5,-41.3829 69.5,-30.5762"/>
<polygon fill="#9a32cd" stroke="#9a32cd" points="66.0001,-68.3553 69.5,-78.3553 73.0001,-68.3554 66.0001,-68.3553"/>
<text text-anchor="middle" x="86.5" y="-52" font-family="Helvetica,sans-Serif" font-size="10.00"> version</text>
</g>
</g>
</svg>
