<?xml version="1.0" encoding="UTF-8" standalone="no"?>
<!DOCTYPE svg PUBLIC "-//W3C//DTD SVG 1.1//EN"
 "http://www.w3.org/Graphics/SVG/1.1/DTD/svg11.dtd">
<!-- Generated by graphviz version 2.38.0 (20140413.2041)
 -->
<!-- Title: command_frame_packet_t Pages: 1 -->
<svg width="245pt" height="162pt"
 viewBox="0.00 0.00 244.50 162.00" xmlns="http://www.w3.org/2000/svg" xmlns:xlink="http://www.w3.org/1999/xlink">
<g id="graph0" class="graph" transform="scale(1 1) rotate(0) translate(4 158)">
<title>command_frame_packet_t</title>
<polygon fill="white" stroke="none" points="-4,4 -4,-158 240.5,-158 240.5,4 -4,4"/>
<!-- Node1 -->
<g id="node1" class="node"><title>Node1</title>
<polygon fill="#bfbfbf" stroke="black" points="77,-0.5 77,-19.5 208,-19.5 208,-0.5 77,-0.5"/>
<text text-anchor="middle" x="142.5" y="-7.5" font-family="Helvetica,sans-Serif" font-size="10.00">command_frame_packet_t</text>
</g>
<!-- Node2 -->
<g id="node2" class="node"><title>Node2</title>
<g id="a_node2"><a xlink:href="group__packet.html#structframing__data__packet__t" target="_top" xlink:title="Serial framing data packet. ">
<polygon fill="white" stroke="black" points="0,-67.5 0,-86.5 115,-86.5 115,-67.5 0,-67.5"/>
<text text-anchor="middle" x="57.5" y="-74.5" font-family="Helvetica,sans-Serif" font-size="10.00">framing_data_packet_t</text>
</a>
</g>
</g>
<!-- Node2&#45;&gt;Node1 -->
<g id="edge1" class="edge"><title>Node2&#45;&gt;Node1</title>
<path fill="none" stroke="#9a32cd" stroke-dasharray="5,2" d="M73.1042,-60.172C80.5006,-53.0346 89.6415,-44.7191 98.5,-38 107.497,-31.1756 118.297,-24.5283 126.945,-19.5369"/>
<polygon fill="#9a32cd" stroke="#9a32cd" points="70.5174,-57.8075 65.8589,-67.3232 75.4347,-62.7895 70.5174,-57.8075"/>
<text text-anchor="middle" x="128" y="-41" font-family="Helvetica,sans-Serif" font-size="10.00"> framing_data</text>
</g>
<!-- Node3 -->
<g id="node3" class="node"><title>Node3</title>
<g id="a_node3"><a xlink:href="group__packet.html#structframing__header__t" target="_top" xlink:title="Serial framing header. ">
<polygon fill="white" stroke="black" points="12,-134.5 12,-153.5 103,-153.5 103,-134.5 12,-134.5"/>
<text text-anchor="middle" x="57.5" y="-141.5" font-family="Helvetica,sans-Serif" font-size="10.00">framing_header_t</text>
</a>
</g>
</g>
<!-- Node3&#45;&gt;Node2 -->
<g id="edge2" class="edge"><title>Node3&#45;&gt;Node2</title>
<path fill="none" stroke="#9a32cd" stroke-dasharray="5,2" d="M57.5,-124.037C57.5,-111.67 57.5,-96.1198 57.5,-86.6273"/>
<polygon fill="#9a32cd" stroke="#9a32cd" points="54.0001,-124.234 57.5,-134.234 61.0001,-124.234 54.0001,-124.234"/>
<text text-anchor="middle" x="74" y="-108" font-family="Helvetica,sans-Serif" font-size="10.00"> header</text>
</g>
<!-- Node4 -->
<g id="node4" class="node"><title>Node4</title>
<g id="a_node4"><a xlink:href="group__packet.html#structcommand__packet__t" target="_top" xlink:title="Command packet format. ">
<polygon fill="white" stroke="black" points="133.5,-67.5 133.5,-86.5 235.5,-86.5 235.5,-67.5 133.5,-67.5"/>
<text text-anchor="middle" x="184.5" y="-74.5" font-family="Helvetica,sans-Serif" font-size="10.00">command_packet_t</text>
</a>
</g>
</g>
<!-- Node4&#45;&gt;Node1 -->
<g id="edge3" class="edge"><title>Node4&#45;&gt;Node1</title>
<path fill="none" stroke="#9a32cd" stroke-dasharray="5,2" d="M173.215,-58.5347C165.083,-45.9499 154.459,-29.5072 148.075,-19.6273"/>
<polygon fill="#9a32cd" stroke="#9a32cd" points="170.469,-60.7341 178.836,-67.2338 176.348,-56.9351 170.469,-60.7341"/>
<text text-anchor="middle" x="201.5" y="-41" font-family="Helvetica,sans-Serif" font-size="10.00"> command_data</text>
</g>
</g>
</svg>
