<?xml version="1.0" encoding="UTF-8" standalone="no"?>
<!DOCTYPE svg PUBLIC "-//W3C//DTD SVG 1.1//EN"
 "http://www.w3.org/Graphics/SVG/1.1/DTD/svg11.dtd">
<!-- Generated by graphviz version 2.38.0 (20140413.2041)
 -->
<!-- Title: flexcan_handle_t Pages: 1 -->
<svg width="123pt" height="106pt"
 viewBox="0.00 0.00 122.50 106.00" xmlns="http://www.w3.org/2000/svg" xmlns:xlink="http://www.w3.org/1999/xlink">
<g id="graph0" class="graph" transform="scale(1 1) rotate(0) translate(4 102)">
<title>flexcan_handle_t</title>
<polygon fill="white" stroke="none" points="-4,4 -4,-102 118.5,-102 118.5,4 -4,4"/>
<!-- Node1 -->
<g id="node1" class="node"><title>Node1</title>
<polygon fill="#bfbfbf" stroke="black" points="0,-0.5 0,-19.5 89,-19.5 89,-0.5 0,-0.5"/>
<text text-anchor="middle" x="44.5" y="-7.5" font-family="Helvetica,sans-Serif" font-size="10.00">flexcan_handle_t</text>
</g>
<!-- Node2 -->
<g id="node2" class="node"><title>Node2</title>
<g id="a_node2"><a xlink:href="group__flexcan.html#structflexcan__frame__t" target="_top" xlink:title="FlexCAN message frame structure. ">
<polygon fill="white" stroke="black" points="2,-78.5 2,-97.5 87,-97.5 87,-78.5 2,-78.5"/>
<text text-anchor="middle" x="44.5" y="-85.5" font-family="Helvetica,sans-Serif" font-size="10.00">flexcan_frame_t</text>
</a>
</g>
</g>
<!-- Node2&#45;&gt;Node1 -->
<g id="edge1" class="edge"><title>Node2&#45;&gt;Node1</title>
<path fill="none" stroke="#9a32cd" stroke-dasharray="5,2" d="M44.5,-68.2239C44.5,-52.6974 44.5,-31.3582 44.5,-19.6165"/>
<polygon fill="#9a32cd" stroke="#9a32cd" points="41.0001,-68.2818 44.5,-78.2818 48.0001,-68.2819 41.0001,-68.2818"/>
<text text-anchor="middle" x="79.5" y="-52" font-family="Helvetica,sans-Serif" font-size="10.00"> rxFifoFrameBuf</text>
<text text-anchor="middle" x="79.5" y="-41" font-family="Helvetica,sans-Serif" font-size="10.00">mbFrameBuf</text>
</g>
</g>
</svg>
