<?xml version="1.0" encoding="UTF-8" standalone="no"?>
<!DOCTYPE svg PUBLIC "-//W3C//DTD SVG 1.1//EN"
 "http://www.w3.org/Graphics/SVG/1.1/DTD/svg11.dtd">
<!-- Generated by graphviz version 2.38.0 (20140413.2041)
 -->
<!-- Title: command_interface_t Pages: 1 -->
<svg width="275pt" height="162pt"
 viewBox="0.00 0.00 274.50 162.00" xmlns="http://www.w3.org/2000/svg" xmlns:xlink="http://www.w3.org/1999/xlink">
<g id="graph0" class="graph" transform="scale(1 1) rotate(0) translate(4 158)">
<title>command_interface_t</title>
<polygon fill="white" stroke="none" points="-4,4 -4,-158 270.5,-158 270.5,4 -4,4"/>
<!-- Node1 -->
<g id="node1" class="node"><title>Node1</title>
<polygon fill="#bfbfbf" stroke="black" points="39.5,-0.5 39.5,-19.5 149.5,-19.5 149.5,-0.5 39.5,-0.5"/>
<text text-anchor="middle" x="94.5" y="-7.5" font-family="Helvetica,sans-Serif" font-size="10.00">command_interface_t</text>
</g>
<!-- Node2 -->
<g id="node2" class="node"><title>Node2</title>
<g id="a_node2"><a xlink:href="group__command.html#structcommand__processor__data__t" target="_top" xlink:title="Command processor data format. ">
<polygon fill="white" stroke="black" points="126.5,-67.5 126.5,-86.5 266.5,-86.5 266.5,-67.5 126.5,-67.5"/>
<text text-anchor="middle" x="196.5" y="-74.5" font-family="Helvetica,sans-Serif" font-size="10.00">command_processor_data_t</text>
</a>
</g>
</g>
<!-- Node2&#45;&gt;Node1 -->
<g id="edge1" class="edge"><title>Node2&#45;&gt;Node1</title>
<path fill="none" stroke="#9a32cd" stroke-dasharray="5,2" d="M174.168,-61.7687C153.978,-48.9026 124.91,-30.379 108.038,-19.6273"/>
<polygon fill="#9a32cd" stroke="#9a32cd" points="172.43,-64.8113 182.744,-67.2338 176.192,-58.908 172.43,-64.8113"/>
<text text-anchor="middle" x="174.5" y="-41" font-family="Helvetica,sans-Serif" font-size="10.00"> stateData</text>
</g>
<!-- Node3 -->
<g id="node3" class="node"><title>Node3</title>
<g id="a_node3"><a xlink:href="group__command.html#structcommand__handler__entry__t" target="_top" xlink:title="Format of command handler entry. ">
<polygon fill="white" stroke="black" points="0,-134.5 0,-153.5 131,-153.5 131,-134.5 0,-134.5"/>
<text text-anchor="middle" x="65.5" y="-141.5" font-family="Helvetica,sans-Serif" font-size="10.00">command_handler_entry_t</text>
</a>
</g>
</g>
<!-- Node3&#45;&gt;Node1 -->
<g id="edge4" class="edge"><title>Node3&#45;&gt;Node1</title>
<path fill="none" stroke="#9a32cd" stroke-dasharray="5,2" d="M60.4283,-124.413C57.0144,-108.797 54.0388,-86.0422 59.5,-67 64.8099,-48.4853 78.2238,-30.154 86.8184,-19.7389"/>
<polygon fill="#9a32cd" stroke="#9a32cd" points="57.0896,-125.494 62.8772,-134.368 63.887,-123.822 57.0896,-125.494"/>
<text text-anchor="middle" x="88.5" y="-74.5" font-family="Helvetica,sans-Serif" font-size="10.00"> handlerTable</text>
</g>
<!-- Node3&#45;&gt;Node2 -->
<g id="edge2" class="edge"><title>Node3&#45;&gt;Node2</title>
<path fill="none" stroke="#9a32cd" stroke-dasharray="5,2" d="M88.9942,-129.354C102.207,-121.859 119.095,-112.576 134.5,-105 147.985,-98.3682 163.485,-91.6182 175.614,-86.5261"/>
<polygon fill="#9a32cd" stroke="#9a32cd" points="87.0381,-126.44 80.0967,-134.445 90.5146,-132.516 87.0381,-126.44"/>
<text text-anchor="middle" x="163.5" y="-108" font-family="Helvetica,sans-Serif" font-size="10.00"> handlerEntry</text>
</g>
<!-- Node4 -->
<g id="node4" class="node"><title>Node4</title>
<g id="a_node4"><a xlink:href="structcommand__processor__data__t_1_1_data_phase.html" target="_top" xlink:title="DataPhase">
<polygon fill="white" stroke="black" points="164,-134.5 164,-153.5 229,-153.5 229,-134.5 164,-134.5"/>
<text text-anchor="middle" x="196.5" y="-141.5" font-family="Helvetica,sans-Serif" font-size="10.00">DataPhase</text>
</a>
</g>
</g>
<!-- Node4&#45;&gt;Node2 -->
<g id="edge3" class="edge"><title>Node4&#45;&gt;Node2</title>
<path fill="none" stroke="#9a32cd" stroke-dasharray="5,2" d="M196.5,-124.037C196.5,-111.67 196.5,-96.1198 196.5,-86.6273"/>
<polygon fill="#9a32cd" stroke="#9a32cd" points="193,-124.234 196.5,-134.234 200,-124.234 193,-124.234"/>
<text text-anchor="middle" x="221.5" y="-108" font-family="Helvetica,sans-Serif" font-size="10.00"> dataPhase</text>
</g>
</g>
</svg>
