<?xml version="1.0" encoding="UTF-8" standalone="no"?>
<!DOCTYPE svg PUBLIC "-//W3C//DTD SVG 1.1//EN"
 "http://www.w3.org/Graphics/SVG/1.1/DTD/svg11.dtd">
<!-- Generated by graphviz version 2.38.0 (20140413.2041)
 -->
<!-- Title: usb_device_composite_struct_t Pages: 1 -->
<svg width="248pt" height="318pt"
 viewBox="0.00 0.00 247.50 318.00" xmlns="http://www.w3.org/2000/svg" xmlns:xlink="http://www.w3.org/1999/xlink">
<g id="graph0" class="graph" transform="scale(1 1) rotate(0) translate(4 314)">
<title>usb_device_composite_struct_t</title>
<polygon fill="white" stroke="none" points="-4,4 -4,-314 243.5,-314 243.5,4 -4,4"/>
<!-- Node1 -->
<g id="node1" class="node"><title>Node1</title>
<polygon fill="#bfbfbf" stroke="black" points="75,-0.5 75,-30.5 190,-30.5 190,-0.5 75,-0.5"/>
<text text-anchor="start" x="83" y="-18.5" font-family="Helvetica,sans-Serif" font-size="10.00">usb_device_composite</text>
<text text-anchor="middle" x="132.5" y="-7.5" font-family="Helvetica,sans-Serif" font-size="10.00">_struct_t</text>
</g>
<!-- Node2 -->
<g id="node2" class="node"><title>Node2</title>
<g id="a_node2"><a xlink:href="structusb__hid__generic__struct__t.html" target="_top" xlink:title="usb_hid_generic_struct_t">
<polygon fill="white" stroke="black" points="0,-78.5 0,-97.5 125,-97.5 125,-78.5 0,-78.5"/>
<text text-anchor="middle" x="62.5" y="-85.5" font-family="Helvetica,sans-Serif" font-size="10.00">usb_hid_generic_struct_t</text>
</a>
</g>
</g>
<!-- Node2&#45;&gt;Node1 -->
<g id="edge1" class="edge"><title>Node2&#45;&gt;Node1</title>
<path fill="none" stroke="#9a32cd" stroke-dasharray="5,2" d="M78.2937,-71.0934C90.3859,-58.9149 106.909,-42.2742 118.524,-30.5762"/>
<polygon fill="#9a32cd" stroke="#9a32cd" points="75.6456,-68.793 71.0834,-78.3553 80.6129,-73.7252 75.6456,-68.793"/>
<text text-anchor="middle" x="127" y="-52" font-family="Helvetica,sans-Serif" font-size="10.00"> hid_generic</text>
</g>
<!-- Node3 -->
<g id="node3" class="node"><title>Node3</title>
<g id="a_node3"><a xlink:href="group__usb__hid__peripheral.html#structusb__hid__packetizer__info__t" target="_top" xlink:title="State information for the USB HID packetizer. ">
<polygon fill="white" stroke="black" points="12,-145.5 12,-175.5 113,-175.5 113,-145.5 12,-145.5"/>
<text text-anchor="start" x="20" y="-163.5" font-family="Helvetica,sans-Serif" font-size="10.00">usb_hid_packetizer</text>
<text text-anchor="middle" x="62.5" y="-152.5" font-family="Helvetica,sans-Serif" font-size="10.00">_info_t</text>
</a>
</g>
</g>
<!-- Node3&#45;&gt;Node2 -->
<g id="edge2" class="edge"><title>Node3&#45;&gt;Node2</title>
<path fill="none" stroke="#9a32cd" stroke-dasharray="5,2" d="M62.5,-135.091C62.5,-122.214 62.5,-107.197 62.5,-97.8932"/>
<polygon fill="#9a32cd" stroke="#9a32cd" points="59.0001,-135.233 62.5,-145.233 66.0001,-135.233 59.0001,-135.233"/>
<text text-anchor="middle" x="88" y="-119" font-family="Helvetica,sans-Serif" font-size="10.00"> hid_packet</text>
</g>
<!-- Node4 -->
<g id="node4" class="node"><title>Node4</title>
<g id="a_node4"><a xlink:href="structbl__hid__report__t.html" target="_top" xlink:title="Structure of a bootloader HID report. ">
<polygon fill="white" stroke="black" points="22.5,-223.5 22.5,-242.5 102.5,-242.5 102.5,-223.5 22.5,-223.5"/>
<text text-anchor="middle" x="62.5" y="-230.5" font-family="Helvetica,sans-Serif" font-size="10.00">bl_hid_report_t</text>
</a>
</g>
</g>
<!-- Node4&#45;&gt;Node3 -->
<g id="edge3" class="edge"><title>Node4&#45;&gt;Node3</title>
<path fill="none" stroke="#9a32cd" stroke-dasharray="5,2" d="M62.5,-213.236C62.5,-201.408 62.5,-186.383 62.5,-175.576"/>
<polygon fill="#9a32cd" stroke="#9a32cd" points="59.0001,-213.355 62.5,-223.355 66.0001,-213.355 59.0001,-213.355"/>
<text text-anchor="middle" x="76.5" y="-197" font-family="Helvetica,sans-Serif" font-size="10.00"> report</text>
</g>
<!-- Node5 -->
<g id="node5" class="node"><title>Node5</title>
<g id="a_node5"><a xlink:href="structbl__hid__header__t.html" target="_top" xlink:title="Structure of a bootloader HID header. ">
<polygon fill="white" stroke="black" points="20,-290.5 20,-309.5 105,-309.5 105,-290.5 20,-290.5"/>
<text text-anchor="middle" x="62.5" y="-297.5" font-family="Helvetica,sans-Serif" font-size="10.00">bl_hid_header_t</text>
</a>
</g>
</g>
<!-- Node5&#45;&gt;Node4 -->
<g id="edge4" class="edge"><title>Node5&#45;&gt;Node4</title>
<path fill="none" stroke="#9a32cd" stroke-dasharray="5,2" d="M62.5,-280.037C62.5,-267.67 62.5,-252.12 62.5,-242.627"/>
<polygon fill="#9a32cd" stroke="#9a32cd" points="59.0001,-280.234 62.5,-290.234 66.0001,-280.234 59.0001,-280.234"/>
<text text-anchor="middle" x="79" y="-264" font-family="Helvetica,sans-Serif" font-size="10.00"> header</text>
</g>
<!-- Node6 -->
<g id="node6" class="node"><title>Node6</title>
<g id="a_node6"><a xlink:href="structusb__msc__struct__t.html" target="_top" xlink:title="usb_msc_struct_t">
<polygon fill="white" stroke="black" points="143,-78.5 143,-97.5 238,-97.5 238,-78.5 143,-78.5"/>
<text text-anchor="middle" x="190.5" y="-85.5" font-family="Helvetica,sans-Serif" font-size="10.00">usb_msc_struct_t</text>
</a>
</g>
</g>
<!-- Node6&#45;&gt;Node1 -->
<g id="edge5" class="edge"><title>Node6&#45;&gt;Node1</title>
<path fill="none" stroke="#9a32cd" stroke-dasharray="5,2" d="M176.837,-70.3927C166.874,-58.2828 153.521,-42.0514 144.08,-30.5762"/>
<polygon fill="#9a32cd" stroke="#9a32cd" points="174.332,-72.8565 183.388,-78.3553 179.738,-68.4092 174.332,-72.8565"/>
<text text-anchor="middle" x="190.5" y="-52" font-family="Helvetica,sans-Serif" font-size="10.00"> msc_disk</text>
</g>
<!-- Node7 -->
<g id="node7" class="node"><title>Node7</title>
<g id="a_node7"><a xlink:href="structusb__msd__state__t.html" target="_top" xlink:title="State information for the USB MSD peripheral. ">
<polygon fill="white" stroke="black" points="144.5,-151 144.5,-170 236.5,-170 236.5,-151 144.5,-151"/>
<text text-anchor="middle" x="190.5" y="-158" font-family="Helvetica,sans-Serif" font-size="10.00">usb_msd_state_t</text>
</a>
</g>
</g>
<!-- Node7&#45;&gt;Node6 -->
<g id="edge6" class="edge"><title>Node7&#45;&gt;Node6</title>
<path fill="none" stroke="#9a32cd" stroke-dasharray="5,2" d="M190.5,-140.442C190.5,-126.53 190.5,-108.32 190.5,-97.7154"/>
<polygon fill="#9a32cd" stroke="#9a32cd" points="187,-140.855 190.5,-150.855 194,-140.855 187,-140.855"/>
<text text-anchor="middle" x="215" y="-119" font-family="Helvetica,sans-Serif" font-size="10.00"> msc_state</text>
</g>
</g>
</svg>
