<?xml version="1.0" encoding="UTF-8" standalone="no"?>
<!DOCTYPE svg PUBLIC "-//W3C//DTD SVG 1.1//EN"
 "http://www.w3.org/Graphics/SVG/1.1/DTD/svg11.dtd">
<!-- Generated by graphviz version 2.38.0 (20140413.2041)
 -->
<!-- Title: command_processor_data_t Pages: 1 -->
<svg width="225pt" height="95pt"
 viewBox="0.00 0.00 224.50 95.00" xmlns="http://www.w3.org/2000/svg" xmlns:xlink="http://www.w3.org/1999/xlink">
<g id="graph0" class="graph" transform="scale(1 1) rotate(0) translate(4 91)">
<title>command_processor_data_t</title>
<polygon fill="white" stroke="none" points="-4,4 -4,-91 220.5,-91 220.5,4 -4,4"/>
<!-- Node1 -->
<g id="node1" class="node"><title>Node1</title>
<polygon fill="#bfbfbf" stroke="black" points="53.5,-0.5 53.5,-19.5 193.5,-19.5 193.5,-0.5 53.5,-0.5"/>
<text text-anchor="middle" x="123.5" y="-7.5" font-family="Helvetica,sans-Serif" font-size="10.00">command_processor_data_t</text>
</g>
<!-- Node2 -->
<g id="node2" class="node"><title>Node2</title>
<g id="a_node2"><a xlink:href="group__command.html#structcommand__handler__entry__t" target="_top" xlink:title="Format of command handler entry. ">
<polygon fill="white" stroke="black" points="0,-67.5 0,-86.5 131,-86.5 131,-67.5 0,-67.5"/>
<text text-anchor="middle" x="65.5" y="-74.5" font-family="Helvetica,sans-Serif" font-size="10.00">command_handler_entry_t</text>
</a>
</g>
</g>
<!-- Node2&#45;&gt;Node1 -->
<g id="edge1" class="edge"><title>Node2&#45;&gt;Node1</title>
<path fill="none" stroke="#9a32cd" stroke-dasharray="5,2" d="M80.1028,-59.6348C91.4458,-46.9228 106.727,-29.7978 115.802,-19.6273"/>
<polygon fill="#9a32cd" stroke="#9a32cd" points="77.3685,-57.4421 73.3221,-67.2338 82.5916,-62.1026 77.3685,-57.4421"/>
<text text-anchor="middle" x="127.5" y="-41" font-family="Helvetica,sans-Serif" font-size="10.00"> handlerEntry</text>
</g>
<!-- Node3 -->
<g id="node3" class="node"><title>Node3</title>
<g id="a_node3"><a xlink:href="structcommand__processor__data__t_1_1_data_phase.html" target="_top" xlink:title="DataPhase">
<polygon fill="white" stroke="black" points="149,-67.5 149,-86.5 214,-86.5 214,-67.5 149,-67.5"/>
<text text-anchor="middle" x="181.5" y="-74.5" font-family="Helvetica,sans-Serif" font-size="10.00">DataPhase</text>
</a>
</g>
</g>
<!-- Node3&#45;&gt;Node1 -->
<g id="edge2" class="edge"><title>Node3&#45;&gt;Node1</title>
<path fill="none" stroke="#9a32cd" stroke-dasharray="5,2" d="M173.094,-58.1454C169.453,-51.4272 164.805,-43.9749 159.5,-38 153.172,-30.8725 144.699,-24.4064 137.563,-19.59"/>
<polygon fill="#9a32cd" stroke="#9a32cd" points="170.036,-59.8547 177.666,-67.2058 176.286,-56.7012 170.036,-59.8547"/>
<text text-anchor="middle" x="191.5" y="-41" font-family="Helvetica,sans-Serif" font-size="10.00"> dataPhase</text>
</g>
</g>
</svg>
