<?xml version="1.0" encoding="UTF-8" standalone="no"?>
<!DOCTYPE svg PUBLIC "-//W3C//DTD SVG 1.1//EN"
 "http://www.w3.org/Graphics/SVG/1.1/DTD/svg11.dtd">
<!-- Generated by graphviz version 2.38.0 (20140413.2041)
 -->
<!-- Title: serial_data_t Pages: 1 -->
<svg width="134pt" height="229pt"
 viewBox="0.00 0.00 133.50 229.00" xmlns="http://www.w3.org/2000/svg" xmlns:xlink="http://www.w3.org/1999/xlink">
<g id="graph0" class="graph" transform="scale(1 1) rotate(0) translate(4 225)">
<title>serial_data_t</title>
<polygon fill="white" stroke="none" points="-4,4 -4,-225 129.5,-225 129.5,4 -4,4"/>
<!-- Node1 -->
<g id="node1" class="node"><title>Node1</title>
<polygon fill="#bfbfbf" stroke="black" points="23.5,-0.5 23.5,-19.5 95.5,-19.5 95.5,-0.5 23.5,-0.5"/>
<text text-anchor="middle" x="59.5" y="-7.5" font-family="Helvetica,sans-Serif" font-size="10.00">serial_data_t</text>
</g>
<!-- Node2 -->
<g id="node2" class="node"><title>Node2</title>
<g id="a_node2"><a xlink:href="group__packet.html#structserial__framing__packet__t" target="_top" xlink:title="Framing packet with data area. ">
<polygon fill="white" stroke="black" points="0,-67.5 0,-86.5 119,-86.5 119,-67.5 0,-67.5"/>
<text text-anchor="middle" x="59.5" y="-74.5" font-family="Helvetica,sans-Serif" font-size="10.00">serial_framing_packet_t</text>
</a>
</g>
</g>
<!-- Node2&#45;&gt;Node1 -->
<g id="edge1" class="edge"><title>Node2&#45;&gt;Node1</title>
<path fill="none" stroke="#9a32cd" stroke-dasharray="5,2" d="M59.5,-57.037C59.5,-44.6703 59.5,-29.1198 59.5,-19.6273"/>
<polygon fill="#9a32cd" stroke="#9a32cd" points="56.0001,-57.2338 59.5,-67.2338 63.0001,-57.2338 56.0001,-57.2338"/>
<text text-anchor="middle" x="92.5" y="-41" font-family="Helvetica,sans-Serif" font-size="10.00"> framingPacket</text>
</g>
<!-- Node3 -->
<g id="node3" class="node"><title>Node3</title>
<g id="a_node3"><a xlink:href="group__packet.html#structframing__data__packet__t" target="_top" xlink:title="Serial framing data packet. ">
<polygon fill="white" stroke="black" points="2,-134.5 2,-153.5 117,-153.5 117,-134.5 2,-134.5"/>
<text text-anchor="middle" x="59.5" y="-141.5" font-family="Helvetica,sans-Serif" font-size="10.00">framing_data_packet_t</text>
</a>
</g>
</g>
<!-- Node3&#45;&gt;Node2 -->
<g id="edge2" class="edge"><title>Node3&#45;&gt;Node2</title>
<path fill="none" stroke="#9a32cd" stroke-dasharray="5,2" d="M59.5,-124.037C59.5,-111.67 59.5,-96.1198 59.5,-86.6273"/>
<polygon fill="#9a32cd" stroke="#9a32cd" points="56.0001,-124.234 59.5,-134.234 63.0001,-124.234 56.0001,-124.234"/>
<text text-anchor="middle" x="86" y="-108" font-family="Helvetica,sans-Serif" font-size="10.00"> dataPacket</text>
</g>
<!-- Node4 -->
<g id="node4" class="node"><title>Node4</title>
<g id="a_node4"><a xlink:href="group__packet.html#structframing__header__t" target="_top" xlink:title="Serial framing header. ">
<polygon fill="white" stroke="black" points="14,-201.5 14,-220.5 105,-220.5 105,-201.5 14,-201.5"/>
<text text-anchor="middle" x="59.5" y="-208.5" font-family="Helvetica,sans-Serif" font-size="10.00">framing_header_t</text>
</a>
</g>
</g>
<!-- Node4&#45;&gt;Node3 -->
<g id="edge3" class="edge"><title>Node4&#45;&gt;Node3</title>
<path fill="none" stroke="#9a32cd" stroke-dasharray="5,2" d="M59.5,-191.037C59.5,-178.67 59.5,-163.12 59.5,-153.627"/>
<polygon fill="#9a32cd" stroke="#9a32cd" points="56.0001,-191.234 59.5,-201.234 63.0001,-191.234 56.0001,-191.234"/>
<text text-anchor="middle" x="76" y="-175" font-family="Helvetica,sans-Serif" font-size="10.00"> header</text>
</g>
</g>
</svg>
