<?xml version="1.0" encoding="UTF-8" standalone="no"?>
<!DOCTYPE svg PUBLIC "-//W3C//DTD SVG 1.1//EN"
 "http://www.w3.org/Graphics/SVG/1.1/DTD/svg11.dtd">
<!-- Generated by graphviz version 2.38.0 (20140413.2041)
 -->
<!-- Title: usb_hid_generic_struct_t Pages: 1 -->
<svg width="133pt" height="240pt"
 viewBox="0.00 0.00 133.00 240.00" xmlns="http://www.w3.org/2000/svg" xmlns:xlink="http://www.w3.org/1999/xlink">
<g id="graph0" class="graph" transform="scale(1 1) rotate(0) translate(4 236)">
<title>usb_hid_generic_struct_t</title>
<polygon fill="white" stroke="none" points="-4,4 -4,-236 129,-236 129,4 -4,4"/>
<!-- Node1 -->
<g id="node1" class="node"><title>Node1</title>
<polygon fill="#bfbfbf" stroke="black" points="0,-0.5 0,-19.5 125,-19.5 125,-0.5 0,-0.5"/>
<text text-anchor="middle" x="62.5" y="-7.5" font-family="Helvetica,sans-Serif" font-size="10.00">usb_hid_generic_struct_t</text>
</g>
<!-- Node2 -->
<g id="node2" class="node"><title>Node2</title>
<g id="a_node2"><a xlink:href="group__usb__hid__peripheral.html#structusb__hid__packetizer__info__t" target="_top" xlink:title="State information for the USB HID packetizer. ">
<polygon fill="white" stroke="black" points="12,-67.5 12,-97.5 113,-97.5 113,-67.5 12,-67.5"/>
<text text-anchor="start" x="20" y="-85.5" font-family="Helvetica,sans-Serif" font-size="10.00">usb_hid_packetizer</text>
<text text-anchor="middle" x="62.5" y="-74.5" font-family="Helvetica,sans-Serif" font-size="10.00">_info_t</text>
</a>
</g>
</g>
<!-- Node2&#45;&gt;Node1 -->
<g id="edge1" class="edge"><title>Node2&#45;&gt;Node1</title>
<path fill="none" stroke="#9a32cd" stroke-dasharray="5,2" d="M62.5,-57.0913C62.5,-44.2136 62.5,-29.1974 62.5,-19.8932"/>
<polygon fill="#9a32cd" stroke="#9a32cd" points="59.0001,-57.2332 62.5,-67.2333 66.0001,-57.2333 59.0001,-57.2332"/>
<text text-anchor="middle" x="88" y="-41" font-family="Helvetica,sans-Serif" font-size="10.00"> hid_packet</text>
</g>
<!-- Node3 -->
<g id="node3" class="node"><title>Node3</title>
<g id="a_node3"><a xlink:href="structbl__hid__report__t.html" target="_top" xlink:title="Structure of a bootloader HID report. ">
<polygon fill="white" stroke="black" points="22.5,-145.5 22.5,-164.5 102.5,-164.5 102.5,-145.5 22.5,-145.5"/>
<text text-anchor="middle" x="62.5" y="-152.5" font-family="Helvetica,sans-Serif" font-size="10.00">bl_hid_report_t</text>
</a>
</g>
</g>
<!-- Node3&#45;&gt;Node2 -->
<g id="edge2" class="edge"><title>Node3&#45;&gt;Node2</title>
<path fill="none" stroke="#9a32cd" stroke-dasharray="5,2" d="M62.5,-135.236C62.5,-123.408 62.5,-108.383 62.5,-97.5762"/>
<polygon fill="#9a32cd" stroke="#9a32cd" points="59.0001,-135.355 62.5,-145.355 66.0001,-135.355 59.0001,-135.355"/>
<text text-anchor="middle" x="76.5" y="-119" font-family="Helvetica,sans-Serif" font-size="10.00"> report</text>
</g>
<!-- Node4 -->
<g id="node4" class="node"><title>Node4</title>
<g id="a_node4"><a xlink:href="structbl__hid__header__t.html" target="_top" xlink:title="Structure of a bootloader HID header. ">
<polygon fill="white" stroke="black" points="20,-212.5 20,-231.5 105,-231.5 105,-212.5 20,-212.5"/>
<text text-anchor="middle" x="62.5" y="-219.5" font-family="Helvetica,sans-Serif" font-size="10.00">bl_hid_header_t</text>
</a>
</g>
</g>
<!-- Node4&#45;&gt;Node3 -->
<g id="edge3" class="edge"><title>Node4&#45;&gt;Node3</title>
<path fill="none" stroke="#9a32cd" stroke-dasharray="5,2" d="M62.5,-202.037C62.5,-189.67 62.5,-174.12 62.5,-164.627"/>
<polygon fill="#9a32cd" stroke="#9a32cd" points="59.0001,-202.234 62.5,-212.234 66.0001,-202.234 59.0001,-202.234"/>
<text text-anchor="middle" x="79" y="-186" font-family="Helvetica,sans-Serif" font-size="10.00"> header</text>
</g>
</g>
</svg>
