<?xml version="1.0" encoding="UTF-8" standalone="no"?>
<!DOCTYPE svg PUBLIC "-//W3C//DTD SVG 1.1//EN"
 "http://www.w3.org/Graphics/SVG/1.1/DTD/svg11.dtd">
<!-- Generated by graphviz version 2.38.0 (20140413.2041)
 -->
<!-- Title: flash_swap_ifr_field_data_t Pages: 1 -->
<svg width="134pt" height="117pt"
 viewBox="0.00 0.00 134.00 117.00" xmlns="http://www.w3.org/2000/svg" xmlns:xlink="http://www.w3.org/1999/xlink">
<g id="graph0" class="graph" transform="scale(1 1) rotate(0) translate(4 113)">
<title>flash_swap_ifr_field_data_t</title>
<polygon fill="white" stroke="none" points="-4,4 -4,-113 130,-113 130,4 -4,4"/>
<!-- Node1 -->
<g id="node1" class="node"><title>Node1</title>
<polygon fill="#bfbfbf" stroke="black" points="0,-0.5 0,-30.5 100,-30.5 100,-0.5 0,-0.5"/>
<text text-anchor="start" x="8" y="-18.5" font-family="Helvetica,sans-Serif" font-size="10.00">flash_swap_ifr_field</text>
<text text-anchor="middle" x="50" y="-7.5" font-family="Helvetica,sans-Serif" font-size="10.00">_data_t</text>
</g>
<!-- Node2 -->
<g id="node2" class="node"><title>Node2</title>
<g id="a_node2"><a xlink:href="group__flash__driver.html#structflash__swap__ifr__field__config__t" target="_top" xlink:title="Flash Swap IFR fields. ">
<polygon fill="white" stroke="black" points="0,-78.5 0,-108.5 100,-108.5 100,-78.5 0,-78.5"/>
<text text-anchor="start" x="8" y="-96.5" font-family="Helvetica,sans-Serif" font-size="10.00">flash_swap_ifr_field</text>
<text text-anchor="middle" x="50" y="-85.5" font-family="Helvetica,sans-Serif" font-size="10.00">_config_t</text>
</a>
</g>
</g>
<!-- Node2&#45;&gt;Node1 -->
<g id="edge1" class="edge"><title>Node2&#45;&gt;Node1</title>
<path fill="none" stroke="#9a32cd" stroke-dasharray="5,2" d="M50,-68.0898C50,-55.7565 50,-41.2237 50,-30.7309"/>
<polygon fill="#9a32cd" stroke="#9a32cd" points="46.5001,-68.2049 50,-78.205 53.5001,-68.205 46.5001,-68.2049"/>
<text text-anchor="middle" x="88" y="-52" font-family="Helvetica,sans-Serif" font-size="10.00"> flashSwapIfrField</text>
</g>
</g>
</svg>
